# Blender 4.5.3 LTS
# www.blender.org
g Circuito_pueblo_collider.003_Circuito.010
v -87.283752 -30.510880 184.761414
v -85.423355 -31.831306 224.194672
v -104.946121 -28.288393 185.690918
v -103.610619 -28.351007 225.092346
v -122.615410 -25.762766 185.850250
v -122.619408 -24.409113 225.448029
v -140.208801 -23.123220 185.325317
v -142.374176 -20.191057 224.848572
v -157.671616 -20.548908 183.559296
v -162.746063 -15.944125 222.341156
v -174.971695 -18.204054 180.208252
v -183.669357 -11.827334 218.085358
v -192.126846 -16.237856 174.923370
v -204.960129 -8.097965 211.255676
v -209.210052 -14.791767 167.317505
v -226.375610 -5.009649 201.333313
v -226.324509 -14.014281 156.935303
v -247.696655 -2.776760 187.989655
v -243.306992 -14.105895 143.494965
v -268.925323 -1.591026 170.596680
v -254.938248 -13.626426 130.219757
v -285.139343 -1.719285 152.435455
v -264.215088 -12.851401 114.263184
v -297.988464 -1.515561 130.944977
v -271.076447 -11.848598 96.098679
v -307.195312 -1.037461 107.322266
v -275.229584 -10.668943 76.620049
v -312.736511 -0.354390 82.340820
v -276.286652 -9.421988 56.761211
v -314.485931 0.470895 56.721878
v -274.417542 -8.100258 37.503586
v -312.216034 1.380094 31.179089
v -269.399384 -6.830501 19.778969
v -305.580750 2.313101 6.469974
v -261.588654 -5.609391 4.285962
v -294.142548 3.203965 -16.508087
v -250.919205 -4.514854 -8.452617
v -277.492249 3.970488 -36.589733
v -237.098846 -3.598383 -18.092360
v -255.529434 4.514264 -52.351192
v -219.546631 -2.839687 -24.510571
v -228.636963 4.740104 -62.445786
v -196.237183 -2.322239 -26.878366
v -198.393173 4.524513 -65.636307
v -182.518768 -1.984448 -26.832382
v -182.563751 4.357188 -66.016830
v -168.033386 -1.548000 -26.788424
v -168.110199 4.225656 -66.060547
v -153.812759 -1.033505 -26.748590
v -153.908066 4.170944 -66.100151
v -139.797363 -0.460443 -26.712891
v -139.899292 4.173815 -66.135635
v -125.927437 0.151733 -26.681334
v -126.026009 4.215010 -66.167015
v -112.143044 0.783602 -26.653913
v -112.230537 4.275228 -66.194275
v -98.384193 1.415774 -26.630640
v -98.455261 4.335145 -66.217407
v -84.590744 2.028869 -26.611536
v -84.642693 4.375425 -66.236412
v -70.702568 2.603497 -26.596590
v -70.735344 4.376741 -66.251274
v -56.659561 3.120282 -26.585800
v -56.675720 4.319753 -66.262001
v -42.401703 3.559807 -26.579182
v -42.406219 4.185160 -66.268578
v -27.869101 3.902647 -26.576723
v -27.869106 3.953673 -66.271019
v -87.319115 -26.935280 184.011841
v -85.420067 -28.283144 224.264404
v -104.974098 -24.736582 184.865326
v -103.608253 -24.800617 225.162018
v -122.615349 -22.233755 185.221741
v -122.619408 -20.856218 225.518066
v -140.174484 -19.619183 184.699066
v -142.374176 -16.640558 224.848572
v -157.590576 -17.071943 182.939972
v -162.785812 -12.357562 222.644836
v -174.832794 -14.755383 179.603394
v -183.737473 -8.226899 218.381989
v -191.921921 -12.817342 174.343201
v -205.060623 -4.483722 211.540222
v -208.935623 -11.397656 166.773651
v -226.529953 -1.371195 201.639160
v -225.982819 -10.643441 156.438843
v -247.888840 0.874776 188.268860
v -242.897430 -10.755477 143.061676
v -269.155640 2.071996 170.840363
v -254.455429 -10.266291 129.864563
v -285.410858 1.938273 152.635193
v -263.675171 -9.482134 113.996475
v -298.292145 2.136859 131.094971
v -270.498993 -8.470942 95.919243
v -307.520050 2.610242 107.423180
v -274.610840 -7.288599 76.525673
v -313.073700 3.288850 82.392258
v -275.797241 -5.998234 56.761715
v -314.829407 4.110344 56.721527
v -273.952454 -4.666408 37.581406
v -312.555878 5.015833 31.122227
v -269.086517 -3.359069 19.894056
v -305.906067 5.945814 6.350312
v -261.307129 -2.135101 4.465775
v -294.435242 6.833707 -16.695047
v -250.689438 -1.037729 -8.209306
v -277.731171 7.597281 -36.842712
v -236.995026 -0.093578 -17.899387
v -255.695145 8.137704 -52.659214
v -219.495422 0.668119 -24.296890
v -228.718689 8.358755 -62.786865
v -196.224930 1.189378 -26.658272
v -198.430313 8.192957 -66.303947
v -182.518478 1.525226 -26.580122
v -182.564178 7.966804 -66.382095
v -168.032898 1.965330 -26.535599
v -168.110916 7.829977 -66.426628
v -153.812164 2.483491 -26.495256
v -153.908951 7.769958 -66.466965
v -139.796707 3.060224 -26.459097
v -139.900238 7.767516 -66.503120
v -125.926796 3.676075 -26.427134
v -126.026939 7.803387 -66.535080
v -112.142479 4.311625 -26.399361
v -112.231354 7.858277 -66.562859
v -98.383736 4.947479 -26.375792
v -98.455925 7.912861 -66.586426
v -84.590408 5.564261 -26.356441
v -84.643173 7.947802 -66.605774
v -70.702354 6.142583 -26.341301
v -70.735649 7.943773 -66.620918
v -56.659458 6.663060 -26.330374
v -56.675869 7.881433 -66.631851
v -42.401672 7.106283 -26.323671
v -42.406258 7.741489 -66.638542
v -27.869101 7.452821 -26.321182
v -27.869106 7.504651 -66.641037
vn -0.0455 0.0197 -0.9988
vn -0.0320 0.0197 -0.9993
vn -0.0282 0.0197 -0.9994
vn 0.0610 0.2091 0.9760
vn 0.0762 0.2158 0.9735
vn 0.0582 0.2079 0.9764
vn 0.0066 0.0154 -0.9999
vn 0.0130 0.0141 -0.9998
vn 0.0221 0.1896 0.9816
vn 0.0178 0.1873 0.9821
vn 0.0731 0.0242 -0.9970
vn 0.0849 0.0286 -0.9960
vn -0.0349 0.1761 0.9838
vn -0.0415 0.1761 0.9835
vn 0.1637 0.0612 -0.9846
vn 0.1750 0.0664 -0.9823
vn -0.1148 0.1767 0.9775
vn -0.1228 0.1768 0.9766
vn 0.2608 0.0842 -0.9617
vn 0.2723 0.0841 -0.9585
vn -0.2138 0.1770 0.9607
vn -0.2221 0.1770 0.9588
vn 0.3687 0.0858 -0.9256
vn 0.3789 0.0863 -0.9214
vn -0.3266 0.1770 0.9284
vn -0.3336 0.1770 0.9259
vn 0.4792 0.0906 -0.8730
vn 0.4864 0.0909 -0.8690
vn -0.4450 0.1766 0.8779
vn -0.4494 0.1766 0.8757
vn 0.5839 0.0924 -0.8066
vn 0.5879 0.0923 -0.8037
vn -0.5587 0.1759 0.8105
vn -0.5598 0.1759 0.8097
vn 0.6897 0.0916 -0.7183
vn 0.6910 0.0916 -0.7171
vn -0.6766 0.1756 0.7152
vn -0.6775 0.1756 0.7143
vn 0.8024 0.0918 -0.5897
vn 0.8024 0.0918 -0.5896
vn -0.7947 0.1757 0.5811
vn -0.7972 0.1757 0.5776
vn 0.8945 0.0923 -0.4374
vn 0.8951 0.0923 -0.4361
vn -0.8844 0.1759 0.4324
vn -0.8866 0.1759 0.4279
vn 0.9530 0.0928 -0.2885
vn 0.9536 0.0928 -0.2864
vn -0.9407 0.1775 0.2890
vn -0.9423 0.1776 0.2838
vn 0.9856 0.0933 -0.1408
vn 0.9860 0.0933 -0.1381
vn -0.9747 0.1708 0.1440
vn -0.9757 0.1701 0.1379
vn 0.9955 0.0939 0.0117
vn 0.9955 0.0939 0.0149
vn -0.9886 0.1507 -0.0066
vn -0.9886 0.1497 -0.0132
vn 0.9800 0.0944 0.1752
vn 0.9793 0.0944 0.1790
vn -0.9772 0.1278 -0.1693
vn -0.9760 0.1268 -0.1771
vn 0.9305 0.0949 0.3537
vn 0.9290 0.0949 0.3578
vn -0.9314 0.1062 -0.3482
vn -0.9283 0.1052 -0.3566
vn 0.8338 0.0952 0.5437
vn 0.8314 0.0952 0.5475
vn -0.8378 0.0957 -0.5376
vn -0.8322 0.0957 -0.5461
vn 0.6786 0.0956 0.7283
vn 0.6758 0.0956 0.7309
vn -0.6815 0.0878 -0.7266
vn -0.6739 0.0871 -0.7336
vn 0.4690 0.0960 0.8780
vn 0.4670 0.0960 0.8790
vn -0.4685 0.0710 -0.8806
vn -0.4612 0.0705 -0.8845
vn 0.2313 0.1177 0.9657
vn 0.2312 0.1177 0.9658
vn -0.2279 0.0626 -0.9717
vn -0.2229 0.0626 -0.9728
vn 0.0629 0.1395 0.9882
vn 0.0633 0.1395 0.9882
vn -0.0505 0.0648 -0.9966
vn -0.0489 0.0648 -0.9967
vn 0.0100 0.1206 0.9926
vn 0.0101 0.1209 0.9926
vn 0.0019 0.0694 -0.9976
vn 0.0019 0.0695 -0.9976
vn 0.0036 0.1010 0.9949
vn 0.0005 0.0718 -0.9974
vn 0.0029 0.1014 0.9948
vn -0.0001 0.0718 -0.9974
vn 0.0023 0.1017 0.9948
vn -0.0006 0.0719 -0.9974
vn -0.0007 0.0719 -0.9974
vn 0.0018 0.1020 0.9948
vn -0.0011 0.0719 -0.9974
vn 0.0014 0.1023 0.9948
vn -0.0015 0.0720 -0.9974
vn 0.0012 0.1026 0.9947
vn -0.0017 0.0720 -0.9974
vn 0.0011 0.1028 0.9947
vn -0.0019 0.0720 -0.9974
vn 0.0011 0.1031 0.9947
vn -0.0019 0.0719 -0.9974
vn 0.0013 0.1033 0.9947
vn -0.0018 0.0719 -0.9974
vn 0.0016 0.1035 0.9946
vn -0.0016 0.0719 -0.9974
vn 0.0018 0.1036 0.9946
vn -0.0015 0.0718 -0.9974
vt -0.711930 0.109297
vt -0.752616 0.109193
vt -0.753473 0.004281
vt -0.712781 0.004363
vt -0.565710 0.196851
vt -0.525025 0.196971
vt -0.523831 0.301980
vt -0.564503 0.301835
vt -0.794303 0.109087
vt -0.795165 0.004197
vt -0.607396 0.196727
vt -0.606177 0.301686
vt -0.836812 0.108978
vt -0.837679 0.004111
vt -0.649904 0.196601
vt -0.648673 0.301535
vt -0.880096 0.108868
vt -0.880968 0.004023
vt -0.693187 0.196472
vt -0.691943 0.301381
vt -0.924304 0.108755
vt -0.925181 0.003933
vt -0.737394 0.196341
vt -0.736137 0.301224
vt -0.969857 0.108639
vt -0.970740 0.003842
vt -0.782945 0.196206
vt -0.781676 0.301062
vt -1.017462 0.108518
vt -1.018350 0.003746
vt -0.830546 0.196065
vt -0.829263 0.300893
vt -1.068115 0.108389
vt -1.069010 0.003644
vt -0.881197 0.195914
vt -0.879901 0.300713
vt -1.123067 0.108249
vt -1.123968 0.003534
vt -0.936147 0.195751
vt -0.934836 0.300518
vt -1.170043 0.108130
vt -1.170951 0.003440
vt -0.983121 0.195612
vt -0.981797 0.300351
vt -1.218709 0.108006
vt -1.219624 0.003343
vt -1.031785 0.195467
vt -1.030448 0.300178
vt -1.268820 0.107879
vt -1.269742 0.003243
vt -1.081893 0.195318
vt -1.080543 0.300000
vt -1.319767 0.107750
vt -1.320696 0.003141
vt -1.132839 0.195167
vt -1.131474 0.299820
vt -1.370796 0.107620
vt -1.371733 0.003039
vt -1.183865 0.195015
vt -1.182488 0.299639
vt -1.421199 0.107492
vt -1.422144 0.002939
vt -1.234265 0.194865
vt -1.232875 0.299460
vt -1.470505 0.107367
vt -1.471457 0.002841
vt -1.283568 0.194719
vt -1.282166 0.299285
vt -1.518711 0.107246
vt -1.519671 0.002746
vt -1.331771 0.194575
vt -1.330357 0.299114
vt -1.566552 0.107124
vt -1.567519 0.002651
vt -1.379608 0.194433
vt -1.378183 0.298945
vt -1.615702 0.107000
vt -1.616677 0.002554
vt -1.428757 0.194287
vt -1.427319 0.298770
vt -1.668796 0.106866
vt -1.669779 0.002448
vt -1.481848 0.194129
vt -1.480397 0.298582
vt -1.729076 0.106713
vt -1.730068 0.002328
vt -1.542124 0.193951
vt -1.540658 0.298369
vt -1.762163 0.106629
vt -1.763161 0.002263
vt -1.575210 0.193852
vt -1.573736 0.298252
vt -1.794554 0.106547
vt -1.795556 0.002198
vt -1.607600 0.193756
vt -1.606117 0.298137
vt -1.826371 0.106466
vt -1.827377 0.002134
vt -1.639415 0.193662
vt -1.637924 0.298024
vt -1.857744 0.106387
vt -1.858752 0.002071
vt -1.670786 0.193569
vt -1.669288 0.297913
vt -1.888803 0.106308
vt -1.889817 0.002009
vt -1.701846 0.193477
vt -1.700338 0.297803
vt -1.919683 0.106230
vt -1.920699 0.001947
vt -1.732723 0.193385
vt -1.731207 0.297694
vt -1.950510 0.106152
vt -1.951531 0.001886
vt -1.763549 0.193294
vt -1.762025 0.297585
vt -1.981417 0.106073
vt -1.982441 0.001823
vt -1.794456 0.193202
vt -1.792923 0.297476
vt -2.012535 0.105994
vt -2.013562 0.001761
vt -1.825572 0.193110
vt -1.824030 0.297366
vt -2.043993 0.105914
vt -2.045024 0.001697
vt -1.857028 0.193017
vt -1.855479 0.297255
vt -2.075924 0.105833
vt -2.076959 0.001633
vt -1.888958 0.192923
vt -1.887400 0.297141
vt -2.108460 0.105751
vt -2.109499 0.001567
vt -1.921492 0.192826
vt -1.919926 0.297026
s 1
f 2/1/1 4/2/2 72/3/3 70/4/1
f 3/5/4 1/6/5 69/7/5 71/8/6
f 4/2/2 6/9/7 74/10/8 72/3/3
f 5/11/9 3/5/4 71/8/6 73/12/10
f 6/9/7 8/13/11 76/14/12 74/10/8
f 7/15/13 5/11/9 73/12/10 75/16/14
f 8/13/11 10/17/15 78/18/16 76/14/12
f 9/19/17 7/15/13 75/16/14 77/20/18
f 10/17/15 12/21/19 80/22/20 78/18/16
f 11/23/21 9/19/17 77/20/18 79/24/22
f 12/21/19 14/25/23 82/26/24 80/22/20
f 13/27/25 11/23/21 79/24/22 81/28/26
f 14/25/23 16/29/27 84/30/28 82/26/24
f 15/31/29 13/27/25 81/28/26 83/32/30
f 16/29/27 18/33/31 86/34/32 84/30/28
f 17/35/33 15/31/29 83/32/30 85/36/34
f 18/33/31 20/37/35 88/38/36 86/34/32
f 19/39/37 17/35/33 85/36/34 87/40/38
f 20/37/35 22/41/39 90/42/40 88/38/36
f 21/43/41 19/39/37 87/40/38 89/44/42
f 22/41/39 24/45/43 92/46/44 90/42/40
f 23/47/45 21/43/41 89/44/42 91/48/46
f 24/45/43 26/49/47 94/50/48 92/46/44
f 25/51/49 23/47/45 91/48/46 93/52/50
f 26/49/47 28/53/51 96/54/52 94/50/48
f 27/55/53 25/51/49 93/52/50 95/56/54
f 28/53/51 30/57/55 98/58/56 96/54/52
f 29/59/57 27/55/53 95/56/54 97/60/58
f 30/57/55 32/61/59 100/62/60 98/58/56
f 31/63/61 29/59/57 97/60/58 99/64/62
f 32/61/59 34/65/63 102/66/64 100/62/60
f 33/67/65 31/63/61 99/64/62 101/68/66
f 34/65/63 36/69/67 104/70/68 102/66/64
f 35/71/69 33/67/65 101/68/66 103/72/70
f 36/69/67 38/73/71 106/74/72 104/70/68
f 37/75/73 35/71/69 103/72/70 105/76/74
f 38/73/71 40/77/75 108/78/76 106/74/72
f 39/79/77 37/75/73 105/76/74 107/80/78
f 40/77/75 42/81/79 110/82/80 108/78/76
f 41/83/81 39/79/77 107/80/78 109/84/82
f 42/81/79 44/85/83 112/86/84 110/82/80
f 43/87/85 41/83/81 109/84/82 111/88/86
f 44/85/83 46/89/87 114/90/88 112/86/84
f 45/91/89 43/87/85 111/88/86 113/92/90
f 46/89/87 48/93/91 116/94/91 114/90/88
f 47/95/92 45/91/89 113/92/90 115/96/92
f 48/93/91 50/97/93 118/98/93 116/94/91
f 49/99/94 47/95/92 115/96/92 117/100/94
f 50/97/93 52/101/95 120/102/95 118/98/93
f 51/103/96 49/99/94 117/100/94 119/104/97
f 52/101/95 54/105/98 122/106/98 120/102/95
f 53/107/99 51/103/96 119/104/97 121/108/99
f 54/105/98 56/109/100 124/110/100 122/106/98
f 55/111/101 53/107/99 121/108/99 123/112/101
f 56/109/100 58/113/102 126/114/102 124/110/100
f 57/115/103 55/111/101 123/112/101 125/116/103
f 58/113/102 60/117/104 128/118/104 126/114/102
f 59/119/105 57/115/103 125/116/103 127/120/105
f 60/117/104 62/121/106 130/122/106 128/118/104
f 61/123/107 59/119/105 127/120/105 129/124/107
f 62/121/106 64/125/108 132/126/108 130/122/106
f 63/127/109 61/123/107 129/124/107 131/128/109
f 64/125/108 66/129/110 134/130/110 132/126/108
f 65/131/111 63/127/109 131/128/109 133/132/111
f 66/129/110 68/133/112 136/134/112 134/130/110
f 67/135/113 65/131/111 133/132/111 135/136/113
g Circuito_pueblo_collider.011_Circuito.023
v -87.283752 -30.510880 184.761414
v -85.423355 -31.831306 224.194672
v -104.946121 -28.288393 185.690918
v -103.610619 -28.351007 225.092346
v -122.615410 -25.762766 185.850250
v -122.619408 -24.409113 225.448029
v -140.208801 -23.123220 185.325317
v -142.374176 -20.191057 224.848572
v -157.671616 -20.548908 183.559296
v -162.746063 -15.944125 222.341156
v -174.971695 -18.204054 180.208252
v -183.669357 -11.827334 218.085358
v -192.126846 -16.237856 174.923370
v -204.960129 -8.097965 211.255676
v -209.210052 -14.791767 167.317505
v -226.375610 -5.009649 201.333313
v -226.324509 -14.014281 156.935303
v -247.696655 -2.776760 187.989655
v -243.306992 -14.105895 143.494965
v -268.925323 -1.591026 170.596680
v -254.938248 -13.626426 130.219757
v -285.139343 -1.719285 152.435455
v -264.215088 -12.851401 114.263184
v -297.988464 -1.515561 130.944977
v -271.076447 -11.848598 96.098679
v -307.195312 -1.037461 107.322266
v -275.229584 -10.668943 76.620049
v -312.736511 -0.354390 82.340820
v -276.286652 -9.421988 56.761211
v -314.485931 0.470895 56.721878
v -274.417542 -8.100258 37.503586
v -312.216034 1.380094 31.179089
v -269.399384 -6.830501 19.778969
v -305.580750 2.313101 6.469974
v -261.588654 -5.609391 4.285962
v -294.142548 3.203965 -16.508087
v -250.919205 -4.514854 -8.452617
v -277.492249 3.970488 -36.589733
v -237.098846 -3.598383 -18.092360
v -255.529434 4.514264 -52.351192
v -219.546631 -2.839687 -24.510571
v -228.636963 4.740104 -62.445786
v -196.237183 -2.322239 -26.878366
v -198.393173 4.524513 -65.636307
v -182.518768 -1.984448 -26.832382
v -182.563751 4.357188 -66.016830
v -168.033386 -1.548000 -26.788424
v -168.110199 4.225656 -66.060547
v -153.812759 -1.033505 -26.748590
v -153.908066 4.170944 -66.100151
v -139.797363 -0.460443 -26.712891
v -139.899292 4.173815 -66.135635
v -125.927437 0.151733 -26.681334
v -126.026009 4.215010 -66.167015
v -112.143044 0.783602 -26.653913
v -112.230537 4.275228 -66.194275
v -98.384193 1.415774 -26.630640
v -98.455261 4.335145 -66.217407
v -84.590744 2.028869 -26.611536
v -84.642693 4.375425 -66.236412
v -70.702568 2.603497 -26.596590
v -70.735344 4.376741 -66.251274
v -56.659561 3.120282 -26.585800
v -56.675720 4.319753 -66.262001
v -42.401703 3.559807 -26.579182
v -42.406219 4.185160 -66.268578
v -27.869101 3.902647 -26.576723
v -27.869106 3.953673 -66.271019
vn 0.1576 0.9874 0.0109
vn 0.1655 0.9862 -0.0041
vn 0.1655 0.9862 -0.0040
vn 0.1776 0.9835 -0.0337
vn 0.1776 0.9835 -0.0336
vn 0.1836 0.9810 -0.0627
vn 0.1836 0.9810 -0.0626
vn 0.1858 0.9783 -0.0918
vn 0.1858 0.9783 -0.0917
vn 0.1867 0.9749 -0.1213
vn 0.1883 0.9705 -0.1509
vn 0.1925 0.9646 -0.1803
vn 0.2011 0.9571 -0.2085
vn 0.2226 0.9517 -0.2115
vn 0.2526 0.9531 -0.1666
vn 0.2709 0.9572 -0.1022
vn 0.2735 0.9608 -0.0454
vn 0.2658 0.9640 0.0046
vn 0.2658 0.9640 0.0045
vn 0.2504 0.9669 0.0493
vn 0.2504 0.9669 0.0492
vn 0.2281 0.9695 0.0900
vn 0.1988 0.9718 0.1271
vn 0.1989 0.9718 0.1271
vn 0.1621 0.9739 0.1590
vn 0.1187 0.9761 0.1821
vn 0.0729 0.9786 0.1924
vn 0.0730 0.9786 0.1924
vn 0.0318 0.9816 0.1884
vn 0.0319 0.9816 0.1884
vn 0.0048 0.9846 0.1749
vn -0.0071 0.9871 0.1598
vn -0.0071 0.9871 0.1597
vn -0.0132 0.9893 0.1455
vn -0.0182 0.9912 0.1311
vn -0.0219 0.9929 0.1168
vn -0.0242 0.9944 0.1024
vn -0.0250 0.9958 0.0880
vn -0.0243 0.9970 0.0736
vn -0.0221 0.9980 0.0591
vn -0.0185 0.9988 0.0447
vn -0.0135 0.9995 0.0302
vn -0.0073 0.9998 0.0158
vn -0.0038 1.0000 0.0085
vt -0.711930 0.109297
vt -0.711223 0.196389
vt -0.751904 0.196267
vt -0.752616 0.109193
vt -0.793587 0.196143
vt -0.794303 0.109087
vt -0.836093 0.196016
vt -0.836812 0.108978
vt -0.879373 0.195886
vt -0.880096 0.108868
vt -0.923577 0.195754
vt -0.924304 0.108755
vt -0.969125 0.195618
vt -0.969857 0.108639
vt -1.016724 0.195475
vt -1.017462 0.108518
vt -1.067371 0.195324
vt -1.068115 0.108389
vt -1.122318 0.195160
vt -1.123067 0.108249
vt -1.169290 0.195019
vt -1.170043 0.108130
vt -1.217950 0.194874
vt -1.218709 0.108006
vt -1.268054 0.194724
vt -1.268820 0.107879
vt -1.318996 0.194572
vt -1.319767 0.107750
vt -1.370019 0.194420
vt -1.370796 0.107620
vt -1.420416 0.194269
vt -1.421199 0.107492
vt -1.469715 0.194122
vt -1.470505 0.107367
vt -1.517914 0.193977
vt -1.518711 0.107246
vt -1.565749 0.193834
vt -1.566552 0.107124
vt -1.614893 0.193687
vt -1.615702 0.107000
vt -1.667981 0.193529
vt -1.668796 0.106866
vt -1.728253 0.193349
vt -1.729076 0.106713
vt -1.761336 0.193250
vt -1.762163 0.106629
vt -1.793724 0.193154
vt -1.794554 0.106547
vt -1.825536 0.193059
vt -1.826371 0.106466
vt -1.856907 0.192966
vt -1.857744 0.106387
vt -1.887963 0.192873
vt -1.888803 0.106308
vt -1.918839 0.192781
vt -1.919683 0.106230
vt -1.949664 0.192690
vt -1.950510 0.106152
vt -1.980567 0.192598
vt -1.981417 0.106073
vt -2.011682 0.192505
vt -2.012535 0.105994
vt -2.043137 0.192412
vt -2.043993 0.105914
vt -2.075065 0.192317
vt -2.075924 0.105833
vt -2.107598 0.192220
vt -2.108460 0.105751
s 1
f 138/137/114 137/138/114 139/139/115 140/140/116
f 140/140/116 139/139/115 141/141/117 142/142/118
f 142/142/118 141/141/117 143/143/119 144/144/120
f 144/144/120 143/143/119 145/145/121 146/146/122
f 146/146/122 145/145/121 147/147/123 148/148/123
f 148/148/123 147/147/123 149/149/124 150/150/124
f 150/150/124 149/149/124 151/151/125 152/152/125
f 152/152/125 151/151/125 153/153/126 154/154/126
f 154/154/126 153/153/126 155/155/127 156/156/127
f 156/156/127 155/155/127 157/157/128 158/158/128
f 158/158/128 157/157/128 159/159/129 160/160/129
f 160/160/129 159/159/129 161/161/130 162/162/130
f 162/162/130 161/161/130 163/163/131 164/164/132
f 164/164/132 163/163/131 165/165/133 166/166/134
f 166/166/134 165/165/133 167/167/135 168/168/135
f 168/168/135 167/167/135 169/169/136 170/170/137
f 170/170/137 169/169/136 171/171/138 172/172/138
f 172/172/138 171/171/138 173/173/139 174/174/139
f 174/174/139 173/173/139 175/175/140 176/176/141
f 176/176/141 175/175/140 177/177/142 178/178/143
f 178/178/143 177/177/142 179/179/144 180/180/144
f 180/180/144 179/179/144 181/181/145 182/182/146
f 182/182/146 181/181/145 183/183/147 184/184/147
f 184/184/147 183/183/147 185/185/148 186/186/148
f 186/186/148 185/185/148 187/187/149 188/188/149
f 188/188/149 187/187/149 189/189/150 190/190/150
f 190/190/150 189/189/150 191/191/151 192/192/151
f 192/192/151 191/191/151 193/193/152 194/194/152
f 194/194/152 193/193/152 195/195/153 196/196/153
f 196/196/153 195/195/153 197/197/154 198/198/154
f 198/198/154 197/197/154 199/199/155 200/200/155
f 200/200/155 199/199/155 201/201/156 202/202/156
f 202/202/156 201/201/156 203/203/157 204/204/157
