# Blender 4.5.3 LTS
# www.blender.org
g Circuito_pueblo_collider.005_Circuito.014
v -697.833862 -13.000899 -555.336121
v -677.605957 -22.446596 -521.760803
v -724.388306 -17.930809 -525.386841
v -691.929199 -25.439949 -502.677612
v -739.880737 -22.400919 -488.740417
v -702.369568 -28.921650 -475.470734
v -751.169678 -26.538408 -445.445984
v -711.940552 -32.674713 -438.437592
v -757.343933 -30.459452 -397.133514
v -717.584106 -36.493168 -394.228638
v -759.532776 -34.193394 -345.761353
v -719.671692 -40.257874 -345.691742
v -755.682251 -39.160831 -275.886353
v -717.750916 -45.086746 -278.353973
v -686.157166 -23.943272 -513.236633
v -712.500671 -15.465854 -541.378906
v -697.318420 -27.180798 -489.864532
v -732.303467 -20.165865 -507.853943
v -697.833862 34.970192 -555.336121
v -677.605957 25.524498 -521.760803
v -724.388306 30.040285 -525.386841
v -691.929199 22.531143 -502.677612
v -739.880737 25.570175 -488.740417
v -702.369568 19.049444 -475.470734
v -751.169678 21.432684 -445.445984
v -711.940552 15.296382 -438.437592
v -757.343933 17.511641 -397.133514
v -717.584106 11.477925 -394.228638
v -759.532776 13.777700 -345.761353
v -719.671692 7.713222 -345.691742
v -758.197815 10.704914 -299.842346
v -718.411560 4.545240 -301.514771
v -686.157166 24.027821 -513.236633
v -712.500671 32.505234 -541.378906
v -697.318420 20.790295 -489.864532
v -732.303467 27.805229 -507.853943
vn -0.7060 -0.0000 -0.7082
vn -0.8067 -0.0000 -0.5910
vn -0.7931 -0.0000 -0.6091
vn 0.7531 -0.0000 0.6579
vn 0.6894 -0.0000 0.7244
vn 0.7443 -0.0000 0.6679
vn -0.9025 -0.0000 -0.4306
vn -0.9339 -0.0000 -0.3574
vn -0.9323 -0.0000 -0.3617
vn -0.8990 -0.0000 -0.4379
vn 0.9214 -0.0000 0.3886
vn 0.8661 -0.0000 0.4998
vn 0.8578 -0.0000 0.5140
vn 0.9201 -0.0000 0.3916
vn -0.9576 -0.0000 -0.2882
vn -0.9559 -0.0000 -0.2936
vn 0.9516 -0.0000 0.3073
vn 0.9492 -0.0000 0.3147
vn -0.9827 -0.0000 -0.1852
vn -0.9813 -0.0000 -0.1924
vn 0.9825 -0.0000 0.1865
vn 0.9811 -0.0000 0.1934
vn -0.9966 -0.0000 -0.0827
vn -0.9962 -0.0000 -0.0870
vn 0.9966 -0.0000 0.0827
vn 0.9962 -0.0000 0.0868
vn -1.0000 -0.0000 -0.0055
vn -1.0000 -0.0000 -0.0089
vn 1.0000 0.0078 -0.0025
vn 1.0000 0.0072 0.0013
vn -0.9996 -0.0000 0.0285
vn 0.9989 0.0150 -0.0437
vt 5.393967 0.124739
vt 5.357528 0.124647
vt 5.357648 0.016366
vt 5.394093 0.016439
vt 5.357429 0.214517
vt 5.393863 0.214626
vt 5.393736 0.322969
vt 5.357308 0.322840
vt 5.321488 0.124556
vt 5.284140 0.124461
vt 5.284246 0.016220
vt 5.321602 0.016295
vt 5.284051 0.214298
vt 5.321394 0.214410
vt 5.321280 0.322713
vt 5.283943 0.322580
vt 5.243814 0.124359
vt 5.243914 0.016140
vt 5.243731 0.214177
vt 5.243629 0.322438
vt 5.150521 0.124123
vt 5.150605 0.015955
vt 5.150452 0.213899
vt 5.150366 0.322108
vt 5.045783 0.123857
vt 5.045849 0.015747
vt 5.045729 0.213585
vt 5.045660 0.321738
vt 4.933561 0.123573
vt 4.933607 0.015524
vt 4.933523 0.213250
vt 4.933474 0.321341
vt 4.805964 0.123249
vt 4.805986 0.015270
vt 4.805943 0.212869
vt 4.805915 0.320889
s 1
f 2/1/1 15/2/2 33/3/3 20/4/1
f 16/5/4 1/6/5 19/7/5 34/8/6
f 4/9/7 17/10/8 35/11/9 22/12/10
f 18/13/11 3/14/12 21/15/13 36/16/14
f 15/2/2 4/9/7 22/12/10 33/3/3
f 3/14/12 16/5/4 34/8/6 21/15/13
f 17/10/8 6/17/15 24/18/16 35/11/9
f 5/19/17 18/13/11 36/16/14 23/20/18
f 6/17/15 8/21/19 26/22/20 24/18/16
f 7/23/21 5/19/17 23/20/18 25/24/22
f 8/21/19 10/25/23 28/26/24 26/22/20
f 9/27/25 7/23/21 25/24/22 27/28/26
f 10/25/23 12/29/27 30/30/28 28/26/24
f 11/31/29 9/27/25 27/28/26 29/32/30
f 12/29/27 14/33/31 32/34/31 30/30/28
f 13/35/32 11/31/29 29/32/30 31/36/32
g Circuito_pueblo_collider.015_Circuito.027
v -697.833862 -13.000899 -555.336121
v -677.605957 -22.446596 -521.760803
v -724.388306 -17.930809 -525.386841
v -691.929199 -25.439949 -502.677612
v -739.880737 -22.400919 -488.740417
v -702.369568 -28.921650 -475.470734
v -751.169678 -26.538408 -445.445984
v -711.940552 -32.674713 -438.437592
v -757.343933 -30.459452 -397.133514
v -717.584106 -36.493168 -394.228638
v -759.532776 -34.193394 -345.761353
v -719.671692 -40.257874 -345.691742
v -755.682251 -39.160831 -275.886353
v -717.750916 -45.086746 -278.353973
v -686.157166 -23.943272 -513.236633
v -712.500671 -15.465854 -541.378906
v -697.318420 -27.180798 -489.864532
v -732.303467 -20.165865 -507.853943
vn 0.0767 0.9730 0.2179
vn 0.0742 0.9725 0.2209
vn 0.0964 0.9770 0.1904
vn 0.0979 0.9773 0.1878
vn 0.1103 0.9799 0.1664
vn 0.1097 0.9798 0.1674
vn 0.1209 0.9820 0.1450
vn 0.1214 0.9821 0.1441
vn 0.1336 0.9843 0.1150
vn 0.1430 0.9856 0.0902
vn 0.1503 0.9860 0.0722
vn 0.1504 0.9860 0.0721
vn 0.1539 0.9860 0.0639
vn 0.0620 0.9700 0.2349
vt 5.357528 0.124647
vt 5.357429 0.214517
vt 5.321394 0.214410
vt 5.321488 0.124556
vt 5.284140 0.124461
vt 5.284051 0.214298
vt 5.243731 0.214177
vt 5.243814 0.124359
vt 5.150452 0.213899
vt 5.150521 0.124123
vt 5.045729 0.213585
vt 5.045783 0.123857
vt 4.933523 0.213250
vt 4.933561 0.123573
vt 4.805943 0.212869
vt 4.805964 0.123249
vt 5.393967 0.124739
vt 5.393863 0.214626
s 1
f 51/37/33 52/38/34 39/39/35 40/40/36
f 53/41/37 54/42/38 41/43/39 42/44/40
f 42/44/40 41/43/39 43/45/41 44/46/41
f 44/46/41 43/45/41 45/47/42 46/48/42
f 46/48/42 45/47/42 47/49/43 48/50/44
f 48/50/44 47/49/43 49/51/45 50/52/45
f 38/53/46 37/54/46 52/38/34 51/37/33
f 40/40/36 39/39/35 54/42/38 53/41/37
