# Blender 4.5.3 LTS
# www.blender.org
o Cartel_3
v -1.685874 -0.821393 0.131258
v 1.685874 -0.821393 0.131258
v 0.014119 1.965030 0.131258
v 1.284668 -0.138024 0.131258
v -1.199975 -0.138024 0.131258
v -1.405136 -0.372221 0.131258
v 1.422165 -0.372221 0.131258
v 1.192570 -0.255122 0.131258
v -1.233820 -0.255122 0.131258
v 0.177665 1.541957 0.131258
v -1.685873 -0.821393 0.454106
v 1.685874 -0.821393 0.454106
v 0.177665 1.541957 0.454106
v 0.014119 1.965030 0.454106
v -1.405136 -0.372221 0.454106
v 1.192570 -0.255122 0.454106
v 1.284668 -0.138024 0.454106
v -1.199975 -0.138024 0.454106
v -1.233820 -0.255122 0.454106
v 1.422165 -0.372221 0.454106
vn -0.0000 -0.0000 -1.0000
vn -0.0000 -0.0000 1.0000
vn -0.5643 0.8256 -0.0000
vn 0.7860 -0.6182 -0.0000
vn -0.9607 0.2777 -0.0000
vn -0.0000 -1.0000 -0.0000
vn 0.8624 0.5063 -0.0000
vn -0.8660 0.5000 -0.0000
vn 0.9327 0.3606 -0.0000
vn 0.8350 0.5502 -0.0000
vn -0.8480 0.5300 -0.0000
vn 0.4543 0.8908 -0.0000
vt 0.073190 0.336070
vt 0.075531 0.342196
vt 0.206055 0.342196
vt 0.206646 0.335627
vt 0.064803 0.312105
vt 0.066680 0.327287
vt 0.213547 0.325737
vt 0.199287 0.304993
vt 0.140538 0.460171
vt 0.153699 0.435995
vt 0.066680 0.327287
vt 0.204535 0.348722
vt 0.205961 0.346154
vt 0.209955 0.348374
vt 0.208529 0.350941
vt 0.169032 0.412614
vt 0.170056 0.410771
vt 0.174050 0.412990
vt 0.173026 0.414833
vt 0.203697 0.350229
vt 0.207691 0.352449
vt 0.140502 0.463958
vt 0.163680 0.422246
vt 0.167674 0.424465
vt 0.144496 0.466177
vt 0.167261 0.415803
vt 0.171255 0.418022
vt 0.187004 0.380271
vt 0.190998 0.382490
vt 0.183886 0.385882
vt 0.187880 0.388101
vt 0.209603 0.339602
vt 0.213596 0.341821
s 0
f 9/1/1 5/2/1 4/3/1 8/4/1
f 1/5/1 6/6/1 7/7/1 2/8/1
f 5/2/1 3/9/1 10/10/1 4/3/1
f 6/6/1 9/1/1 8/4/1 7/7/1
f 19/1/2 16/4/2 17/3/2 18/2/2
f 11/5/2 12/8/2 20/7/2 15/11/2
f 18/2/2 17/3/2 13/10/2 14/9/2
f 15/11/2 20/7/2 16/4/2 19/1/2
f 9/12/3 6/13/3 15/14/3 19/15/3
f 8/16/4 4/17/4 17/18/4 16/19/4
f 5/20/5 9/12/5 19/15/5 18/21/5
f 1/22/6 2/23/6 12/24/6 11/25/6
f 2/23/7 7/26/7 20/27/7 12/24/7
f 3/28/8 5/20/8 18/21/8 14/29/8
f 10/30/9 3/28/9 14/29/9 13/31/9
f 4/17/10 10/30/10 13/31/10 17/18/10
f 6/13/11 1/32/11 11/33/11 15/14/11
f 7/26/12 8/16/12 16/19/12 20/27/12
