# Blender 4.5.3 LTS
# www.blender.org
o Flecha_1.001
v -1.380067 -1.380069 0.131257
v 1.380068 -1.075132 0.131257
v -1.380067 1.380067 0.131257
v 1.380068 1.075131 0.131257
v 1.380068 -2.014499 0.131257
v 1.380068 2.014498 0.131257
v 3.290299 -0.000001 0.131257
v -1.380068 -1.380068 0.454105
v 1.380068 -1.075131 0.454105
v -1.380068 1.380068 0.454105
v 1.380068 1.075131 0.454105
v 1.380068 -2.014498 0.454105
v 1.380068 2.014499 0.454105
v 3.290299 -0.000000 0.454105
vn -0.0000 -0.0000 -1.0000
vn -1.0000 -0.0000 -0.0000
vn -0.0000 -0.0000 1.0000
vn 0.1098 0.9940 -0.0000
vn 0.1098 -0.9940 -0.0000
vn 0.7256 0.6881 -0.0000
vn 0.7256 -0.6881 -0.0000
vt 0.386930 0.828832
vt 0.385342 0.958139
vt 0.563639 0.937736
vt 0.568601 0.846680
vt 0.565933 0.961645
vt 0.570734 0.818628
vt 0.632929 0.894144
vt 0.386930 0.828832
vt 0.530642 0.885201
vt 0.541655 0.885201
vt 0.541655 0.888986
vt 0.530642 0.888986
vt 0.574211 0.885201
vt 0.574211 0.888986
vt 0.421980 0.885201
vt 0.454536 0.885201
vt 0.454536 0.888986
vt 0.421980 0.888986
vt 0.498095 0.885201
vt 0.498095 0.888986
vt 0.465548 0.885201
vt 0.465548 0.888986
vt 0.606570 0.885201
vt 0.606570 0.888986
s 0
f 1/1/1 3/2/1 4/3/1 2/4/1
f 4/3/2 6/5/2 5/6/2 2/4/2
f 6/5/1 7/7/1 5/6/1
f 8/8/3 9/4/3 11/3/3 10/2/3
f 11/3/3 9/4/3 12/6/3 13/5/3
f 13/5/3 12/6/3 14/7/3
f 6/9/2 4/10/2 11/11/2 13/12/2
f 4/10/4 3/13/4 10/14/4 11/11/4
f 1/15/5 2/16/5 9/17/5 8/18/5
f 7/19/6 6/9/6 13/12/6 14/20/6
f 2/16/2 5/21/2 12/22/2 9/17/2
f 3/13/2 1/23/2 8/24/2 10/14/2
f 5/21/7 7/19/7 14/20/7 12/22/7
