# Blender 4.5.3 LTS
# www.blender.org
o Sujjeccion
v -0.151205 0.000000 0.151205
v 0.151205 0.000000 0.151205
v -0.151205 0.000000 -0.151205
v 0.151205 0.000000 -0.151205
v -0.213836 0.000000 -0.000000
v -0.000000 0.000000 0.213836
v 0.213836 0.000000 0.000000
v 0.000000 0.000000 -0.213836
v -0.151205 1.460236 0.151205
v 0.151205 1.460236 0.151205
v -0.151205 1.460236 -0.151205
v 0.151205 1.460236 -0.151205
v -0.213836 1.460236 -0.000000
v -0.000000 1.460236 0.213836
v 0.213836 1.460236 0.000000
v 0.000000 1.460236 -0.213836
v -0.261148 -0.355453 0.263233
v 0.265318 -0.355453 0.263233
v -0.261148 -0.355453 -0.263233
v 0.265318 -0.355453 -0.263233
v -0.370183 -0.355453 -0.000000
v 0.002085 -0.355453 0.372267
v 0.374352 -0.355453 -0.000000
v 0.002085 -0.355453 -0.372268
v -0.202298 -0.033400 0.204382
v 0.206468 -0.033400 0.204382
v -0.202298 -0.033400 -0.204383
v 0.206468 -0.033400 -0.204383
v -0.286956 -0.033400 -0.000000
v 0.002085 -0.033400 0.289041
v 0.291126 -0.033400 -0.000000
v 0.002085 -0.033400 -0.289041
v 0.002085 0.104905 -0.000000
vn -0.7071 -0.0000 0.7071
vn 0.7071 -0.0000 0.7071
vn -0.7071 -0.0000 -0.7071
vn 0.7071 -0.0000 -0.7071
vn -1.0000 -0.0000 -0.0000
vn -0.0000 -0.0000 1.0000
vn 1.0000 -0.0000 -0.0000
vn -0.0000 -0.0000 -1.0000
vn -0.6846 0.2502 0.6846
vn 0.6846 0.2502 0.6846
vn -0.6846 0.2502 -0.6846
vn 0.6846 0.2502 -0.6846
vn -0.9682 0.2502 -0.0000
vn -0.0000 0.2502 0.9682
vn 0.9682 0.2502 -0.0000
vn -0.0000 0.2502 -0.9682
vn -0.5731 0.5857 0.5731
vn 0.5731 0.5857 0.5731
vn -0.5731 0.5857 -0.5731
vn 0.5731 0.5857 -0.5731
vn -0.7828 0.6222 -0.0000
vn -0.0000 0.6222 0.7828
vn 0.7828 0.6222 -0.0000
vn -0.0000 0.6222 -0.7828
vn -0.0000 1.0000 -0.0000
vt 1.899285 0.164653
vt 1.899285 0.289472
vt 1.051086 0.289472
vt 1.051086 0.164653
vt 1.899285 0.788754
vt 1.899285 0.913573
vt 1.051085 0.913573
vt 1.051086 0.788754
vt 1.899285 0.414292
vt 1.051086 0.414292
vt 1.899285 1.038393
vt 1.051085 1.038393
vt 1.899285 0.539113
vt 1.051086 0.539113
vt 1.899285 0.039831
vt 1.051086 0.039831
vt 1.899285 0.663932
vt 1.051086 0.663932
vt 2.377671 0.660170
vt 2.597108 0.583276
vt 2.580098 0.754033
vt 2.460321 0.876494
vt 2.152903 0.742992
vt 2.282054 0.873132
vt 2.167777 0.560582
vt 2.300756 0.441237
vt 2.479105 0.449985
vt 2.876320 0.453332
vt 2.876320 0.892033
vt 1.904720 0.833131
vt 1.907062 0.464748
vt 2.540599 1.167031
vt 2.172722 0.183566
vt 2.142706 1.119594
vt 2.573411 0.168570
s 1
f 3/1/3 5/2/5 13/3/5 11/4/3
f 7/5/7 4/6/4 12/7/4 15/8/7
f 5/2/5 1/9/1 9/10/1 13/3/5
f 4/6/4 8/11/8 16/12/8 12/7/4
f 1/9/1 6/13/6 14/14/6 9/10/1
f 8/15/8 3/1/3 11/4/3 16/16/8
f 6/13/6 2/17/2 10/18/2 14/14/6
f 2/17/2 7/5/7 15/8/7 10/18/2
f 33/19/25 31/20/23 28/21/20 32/22/24
f 29/23/21 33/19/25 32/22/24 27/24/19
f 25/25/17 30/26/22 33/19/25 29/23/21
f 30/26/22 26/27/18 31/20/23 33/19/25
f 23/28/15 20/29/12 28/21/20 31/20/23
f 21/30/13 17/31/9 25/25/17 29/23/21
f 20/29/12 24/32/16 32/22/24 28/21/20
f 17/31/9 22/33/14 30/26/22 25/25/17
f 24/32/16 19/34/11 27/24/19 32/22/24
f 22/33/14 18/35/10 26/27/18 30/26/22
f 18/35/10 23/28/15 31/20/23 26/27/18
f 19/34/11 21/30/13 29/23/21 27/24/19
