# Blender 4.5.3 LTS
# www.blender.org
o Poste_1
v -0.398782 0.000000 0.398782
v 0.398782 0.000000 0.398782
v -0.398782 0.000000 -0.398782
v 0.398782 0.000000 -0.398782
v -0.398782 4.516429 0.398782
v 0.398782 4.516429 0.398782
v -0.398782 4.516429 -0.398782
v 0.398782 4.516429 -0.398782
vn -0.0000 1.0000 -0.0000
vn -0.0000 -0.0000 -1.0000
vn -0.0000 -0.0000 1.0000
vn 1.0000 -0.0000 -0.0000
vn -1.0000 -0.0000 -0.0000
vt 0.344889 2.972418
vt 0.344889 2.580940
vt 0.736367 2.580940
vt 0.736367 2.972418
vt 0.736367 1.187555
vt 1.127846 1.187555
vt 1.127846 2.580940
vt -0.046591 1.187555
vt 0.344889 1.187555
vt -0.046591 2.580940
vt -0.438070 1.187555
vt -0.438070 2.580940
s 0
f 5/1/1 6/2/1 8/3/1 7/4/1
f 4/5/2 3/6/2 7/7/2 8/3/2
f 1/8/3 2/9/3 6/2/3 5/10/3
f 2/9/4 4/5/4 8/3/4 6/2/4
f 3/11/5 1/8/5 5/10/5 7/12/5
