# Blender 4.5.3 LTS
# www.blender.org
mtllib Islote_castillo_160.mtl
o Islote_castillo
v 302.123566 0.000000 225.154907
v 243.174530 0.000000 181.869980
v 209.251175 0.000000 141.174774
v 519.764404 0.000000 160.997131
v 476.598358 0.000000 216.676331
v 398.913391 0.000000 242.302460
v 0.393480 -0.224441 -458.482574
v 16.104160 0.000000 -580.489014
v 471.089935 0.000000 -547.357910
v 515.171753 0.000000 -475.602386
v 674.284790 0.000000 -448.863739
v 538.983704 0.000000 -198.496368
v 539.112671 0.000000 -80.240715
v 708.609802 0.000000 -211.269791
v 684.800415 0.000000 -138.398026
v 152.437332 0.000000 -91.817970
v 133.704819 0.000000 -218.691025
v 135.652283 0.000000 -639.195557
v 347.829224 0.000000 -629.070496
v 517.734497 0.000000 -320.286530
v 48.602257 0.000000 -334.071198
v 722.973816 0.000000 -339.563904
v 517.476624 0.000000 34.837807
v 165.543350 0.000000 32.526714
v 279.488953 -196.606796 294.650574
v 210.919891 -196.606796 244.301971
v 171.460495 -196.606796 196.965561
v 532.345154 -196.606796 220.475830
v 392.074158 -196.606796 314.596436
v 493.572052 -196.606796 290.484192
v -15.405123 -196.606796 -355.836823
v -71.481171 -196.867889 -500.551178
v -53.206631 -196.606796 -642.467957
v 333.697205 -196.606796 -697.672974
v 452.001953 -196.606796 -612.339783
v 527.304932 -196.606796 -520.464722
v 712.384033 -196.606796 -489.362610
v 767.987183 -196.606796 -362.225861
v 752.310669 -196.606796 -212.995163
v 724.615723 -196.606796 -128.231323
v 120.619888 -196.606796 70.587006
v 105.375069 -196.606796 -74.049751
v 87.195366 -196.606796 -224.097321
v 545.496826 -196.606796 -87.137306
v 86.046539 -196.606796 -710.298462
v 530.703308 -196.606796 72.859993
v 11.432931 -0.112220 -391.921936
v 516.453125 0.000000 -397.944458
v 707.883606 0.000000 -398.568787
v -57.814945 -196.737335 -423.403412
v 750.365662 -196.606796 -430.584839
v 623.796753 0.000000 -204.883087
v 595.973511 0.000000 -472.194641
v 613.616821 0.000000 -101.225571
v 620.354187 0.000000 -329.925201
v 621.214294 -196.606796 -515.871704
v 641.448486 -196.606796 -86.224792
v 612.168396 0.000000 -398.256653
v 422.012878 0.000008 -589.825745
v 52.656261 0.000008 -617.504028
v 416.798126 -196.606812 -656.142151
v -12.834664 -196.606812 -688.337341
v 688.448425 -39.918686 -461.665680
v 520.680664 -39.918686 -489.858734
v 344.452057 -39.918686 -651.404175
v 469.222168 -39.918686 -567.259949
v -5.533078 -39.918686 -600.450562
v 28.732698 -39.918686 -340.629181
v -22.098339 -40.155334 -471.807709
v 152.034637 -39.918686 45.909367
v 543.922974 -39.918686 -78.494377
v 523.259583 -39.918686 48.260128
v 490.220337 -39.918686 244.105698
v 398.098572 -39.918686 267.095581
v 525.460571 -39.918686 181.461655
v 198.119919 -39.918686 160.467163
v 296.044006 -39.918686 249.015305
v 233.888519 -39.918686 203.375977
v 724.640564 -39.918686 -211.148148
v 739.572083 -39.918686 -346.420624
v 699.536072 -39.918686 -134.312607
v 138.215759 -39.918686 -85.198883
v 119.667503 -39.918686 -219.796249
v 120.558258 -39.918686 -662.255737
v 723.646912 -39.918686 -408.578003
v -10.287381 -40.037014 -401.683624
v 624.404480 -39.918686 -95.373528
v 605.861206 -39.918686 -486.135284
v 32.562710 -39.918682 -640.062012
v 422.010040 -39.918682 -610.878174
v 528.359070 0.000000 -259.391449
v 724.509338 0.000000 -276.087433
v 96.848808 0.000000 -281.266113
v 768.866455 -196.606796 -288.281097
v 41.590393 -196.606796 -294.852051
v 622.075500 0.000000 -267.404144
v 79.895378 -39.918686 -285.097717
v 740.823914 -39.918686 -279.454956
v 518.620483 0.000000 97.917473
v 177.695572 0.000000 90.343346
v 531.524231 -196.606796 146.667908
v 136.338516 -196.606796 137.268890
v 165.375595 -39.918686 106.680870
v 524.360046 -39.918686 114.860893
v 0.201862 -0.112220 -520.156372
v 493.130829 0.000000 -511.480164
v -70.390862 -196.737335 -572.180176
v 489.653442 -196.606796 -566.402222
v -21.862667 -40.037006 -536.799744
v 494.951416 -39.918686 -528.559387
vn -0.2097 0.8549 0.4746
vn -0.3367 0.8755 0.3466
vn -0.3861 0.8818 0.2708
vn 0.5371 0.8355 0.1156
vn 0.3069 0.8636 0.4000
vn 0.0289 0.8515 0.5236
vn -0.4467 0.8936 0.0444
vn -0.3962 0.8943 -0.2078
vn 0.4274 0.8364 -0.3431
vn 0.1600 0.9277 -0.3372
vn 0.3232 0.8242 -0.4650
vn -0.0000 1.0000 -0.0000
vn 0.2721 0.9158 0.2955
vn 0.4603 0.8780 0.1312
vn 0.4262 0.8096 0.4037
vn -0.4654 0.8832 0.0584
vn -0.4223 0.8944 0.1475
vn -0.0427 0.8572 -0.5132
vn 0.1571 0.8332 -0.5302
vn -0.0000 1.0000 -0.0002
vn -0.4201 0.8434 0.3350
vn 0.4722 0.8794 -0.0607
vn 0.5043 0.8622 0.0484
vn -0.4728 0.8783 0.0713
vn -0.3577 0.2958 0.8857
vn -0.6486 0.2799 0.7078
vn -0.7826 0.2632 0.5642
vn 0.9521 0.1139 0.2837
vn 0.0252 0.2907 0.9565
vn 0.5205 0.2499 0.8165
vn -0.7866 0.1619 0.5959
vn -0.9557 0.2864 0.0682
vn -0.8023 0.3725 -0.4663
vn 0.2270 0.2645 -0.9373
vn 0.7527 0.1265 -0.6461
vn 0.4367 0.1812 -0.8811
vn 0.5491 0.2242 -0.8051
vn 0.9723 0.1893 -0.1370
vn 0.9511 0.1630 0.2624
vn 0.7327 0.1414 0.6657
vn -0.9622 0.2171 0.1646
vn -0.9715 0.2082 0.1135
vn -0.9193 0.1880 0.3457
vn 0.6010 0.0239 0.7989
vn -0.0942 0.3140 -0.9447
vn 0.9980 0.0399 0.0486
vn -0.4662 0.8609 0.2038
vn -0.0001 1.0000 -0.0004
vn 0.4472 0.8730 -0.1945
vn -0.9131 0.2325 0.3350
vn 0.8893 0.2102 -0.4062
vn 0.0898 0.8174 -0.5690
vn 0.2118 0.7837 0.5839
vn 0.1621 0.2007 -0.9661
vn 0.2769 0.0566 0.9592
vn 0.3122 0.8465 -0.4312
vn -0.2369 0.8739 -0.4244
vn 0.5653 0.1978 -0.8008
vn -0.4496 0.3722 -0.8119
vn 0.5403 0.3194 -0.7785
vn 0.4300 0.2707 -0.8613
vn 0.2342 0.3615 -0.9025
vn 0.7370 0.2160 -0.6405
vn -0.7614 0.4810 -0.4346
vn -0.7731 0.2213 0.5945
vn -0.9220 0.3802 0.0738
vn -0.9445 0.2893 0.1560
vn 0.6437 0.1039 0.7582
vn 0.9938 0.0936 0.0605
vn 0.5281 0.3916 0.7535
vn 0.0351 0.4176 0.9080
vn 0.9306 0.2392 0.2771
vn -0.7572 0.3603 0.5448
vn -0.3462 0.4069 0.8453
vn -0.6270 0.3846 0.6775
vn 0.9291 0.2630 0.2602
vn 0.9464 0.2957 -0.1300
vn 0.7180 0.2298 0.6570
vn -0.9539 0.2775 0.1145
vn -0.9080 0.2559 0.3318
vn -0.0862 0.4176 -0.9045
vn 0.8646 0.3175 -0.3895
vn -0.8869 0.3111 0.3414
vn 0.3077 0.1252 0.9432
vn 0.1589 0.2803 -0.9467
vn -0.4252 0.4777 -0.7688
vn 0.5556 0.2921 -0.7784
vn 0.4831 0.8737 0.0565
vn -0.3993 0.8694 0.2912
vn 0.9800 0.1724 0.0990
vn -0.7783 0.1504 0.6096
vn -0.7766 0.2097 0.5941
vn 0.9561 0.2750 0.1011
vn 0.5297 0.8481 -0.0092
vn -0.4615 0.8705 0.1712
vn 0.9990 0.0428 -0.0137
vn -0.8943 0.2423 0.3762
vn -0.8729 0.3278 0.3614
vn 0.9959 0.0891 -0.0154
vn -0.4377 0.8981 -0.0439
vn 0.4337 0.8574 -0.2770
vn -0.9372 0.3226 -0.1325
vn 0.7951 0.1149 -0.5954
vn -0.8976 0.4245 -0.1188
vn 0.8068 0.1880 -0.5601
vt 0.549968 0.321401
vt 0.672282 0.319584
vt 0.673847 0.363334
vt 0.547487 0.359282
vt 0.564157 0.270651
vt 0.661542 0.270651
vt 0.659273 0.739429
vt 0.589711 0.728972
vt 0.586724 0.686154
vt 0.670088 0.707875
vt 0.662021 0.634628
vt 0.567895 0.617148
vt 0.549067 0.548142
vt 0.653954 0.561381
vt 0.547487 0.428571
vt 0.547487 0.500000
vt 0.547487 0.500000
vt 0.686436 0.515773
vt 0.547882 0.512036
vt 0.688889 0.500000
vt 0.674735 0.450236
vt 0.738501 0.515542
vt 0.680155 0.515345
vt 0.743675 0.500537
vt 0.640664 0.452711
vt 0.717806 0.456273
vt 0.547487 0.393927
vt 0.798461 0.501074
vt 0.794948 0.459836
vt 0.798461 0.501074
vt 0.796847 0.515739
vt 0.722979 0.560557
vt 0.792004 0.559732
vt 0.662021 0.634628
vt 0.653954 0.561381
vt 0.659273 0.739429
vt 0.567895 0.617148
vt 0.586724 0.686154
vt 0.548672 0.536107
vt 0.665552 0.385678
vt 0.673848 0.363334
vt 0.665552 0.385678
vt 0.564157 0.270651
vt 0.640664 0.452711
vt 0.657256 0.408022
vt 0.728153 0.545552
vt 0.662687 0.546036
vt 0.671421 0.530691
vt 0.733327 0.530547
vt 0.681532 0.547318
vt 0.548277 0.524071
vt 0.683984 0.531545
vt 0.547487 0.376604
vt 0.547487 0.359282
vt 0.548277 0.524071
vt 0.592699 0.771789
vt 0.793618 0.545068
vt 0.795233 0.530403
vt 0.648457 0.770982
vt 0.648457 0.770983
vt 0.679079 0.563091
s 1
usemtl Cesped
f 2/1/2 5/2/5 4/3/4 3/4/3
f 1/5/1 6/6/6 5/2/5 2/1/2
f 59/7/56 60/8/57 8/9/8 9/10/9
f 106/11/101 105/12/100 7/13/7 10/14/10
f 82/15/79 83/16/80 43/17/43 42/15/42
f 91/18/12 93/19/89 17/17/17 12/20/12
f 12/20/12 17/17/17 16/15/16 13/21/13
f 96/22/12 91/23/12 12/20/12 52/24/12
f 52/24/12 12/20/12 13/25/13 54/26/53
f 70/27/67 82/15/79 42/15/42 41/27/41
f 79/28/76 81/29/78 40/29/40 39/30/39
f 98/31/93 79/28/76 39/30/39 94/31/90
f 88/32/85 63/33/60 37/33/37 56/32/54
f 110/34/105 64/35/61 36/14/36 108/11/103
f 90/36/87 66/10/63 35/10/35 61/7/58
f 109/37/104 67/38/64 33/9/33 107/12/102
f 86/39/83 69/13/66 32/13/32 50/39/50
f 104/40/99 75/41/72 28/3/28 101/42/96
f 74/6/71 77/43/74 25/5/25 29/6/29
f 71/44/68 72/45/69 46/45/46 44/25/44
f 58/46/12 48/47/48 20/48/20 55/49/12
f 48/50/48 47/39/47 21/51/21 20/52/20
f 75/41/72 73/2/70 30/2/30 28/3/28
f 13/25/13 16/15/16 24/27/24 23/45/23
f 73/2/70 74/6/71 29/6/29 30/2/30
f 99/42/94 100/53/95 3/4/3 4/3/4
f 78/1/75 76/54/73 27/4/27 26/1/26
f 77/43/74 78/1/75 26/1/26 25/5/25
f 87/26/84 71/44/68 44/25/44 57/26/55
f 97/19/92 68/55/65 31/51/31 95/19/91
f 89/8/86 84/56/81 45/56/45 62/8/59
f 85/57/82 80/58/77 38/58/38 51/57/51
f 84/56/81 65/59/62 34/60/34 45/56/45
f 63/33/60 85/57/82 51/57/51 37/33/37
f 10/61/10 7/13/7 47/39/47 48/50/48
f 53/32/52 10/14/10 48/47/48 58/46/12
f 68/55/65 86/39/83 50/39/50 31/51/31
f 11/33/11 53/32/52 58/46/12 49/57/49
f 81/29/78 87/26/84 57/26/55 40/29/40
f 49/57/49 58/46/12 55/49/12 22/58/22
f 64/35/61 88/32/85 56/32/54 36/14/36
f 14/30/14 52/24/12 54/26/53 15/29/15
f 92/31/88 96/22/12 52/24/12 14/30/14
f 103/53/98 70/27/67 41/27/41 102/53/97
f 67/38/64 89/8/86 62/8/59 33/9/33
f 65/59/62 90/36/87 61/7/58 34/60/34
f 19/60/19 18/56/18 60/8/57 59/7/56
f 19/60/19 59/7/56 90/36/87 65/59/62
f 8/9/8 60/8/57 89/8/86 67/38/64
f 100/53/95 24/27/24 70/27/67 103/53/98
f 10/14/10 53/32/52 88/32/85 64/35/61
f 15/29/15 54/26/53 87/26/84 81/29/78
f 21/51/21 47/39/47 86/39/83 68/55/65
f 11/33/11 49/57/49 85/57/82 63/33/60
f 18/56/18 19/60/19 65/59/62 84/56/81
f 49/57/49 22/58/22 80/58/77 85/57/82
f 60/8/57 18/56/18 84/56/81 89/8/86
f 93/19/89 21/51/21 68/55/65 97/19/92
f 54/26/53 13/25/13 71/44/68 87/26/84
f 1/5/1 2/1/2 78/1/75 77/43/74
f 2/1/2 3/4/3 76/54/73 78/1/75
f 5/2/5 6/6/6 74/6/71 73/2/70
f 4/3/4 5/2/5 73/2/70 75/41/72
f 13/25/13 23/45/23 72/45/69 71/44/68
f 6/6/6 1/5/1 77/43/74 74/6/71
f 99/42/94 4/3/4 75/41/72 104/40/99
f 47/39/47 7/13/7 69/13/66 86/39/83
f 105/12/100 8/9/8 67/38/64 109/37/104
f 59/7/56 9/10/9 66/10/63 90/36/87
f 106/11/101 10/14/10 64/35/61 110/34/105
f 53/32/52 11/33/11 63/33/60 88/32/85
f 92/31/88 14/30/14 79/28/76 98/31/93
f 14/30/14 15/29/15 81/29/78 79/28/76
f 24/27/24 16/15/16 82/15/79 70/27/67
f 16/15/16 17/17/17 83/16/80 82/15/79
f 22/58/22 92/31/88 98/31/93 80/58/77
f 17/17/17 93/19/89 97/19/92 83/16/80
f 22/58/22 55/49/12 96/22/12 92/31/88
f 83/16/80 97/19/92 95/19/91 43/17/43
f 80/58/77 98/31/93 94/31/90 38/58/38
f 55/49/12 20/48/20 91/23/12 96/22/12
f 20/52/20 21/51/21 93/19/89 91/18/12
f 23/45/23 99/42/94 104/40/99 72/45/69
f 3/4/3 100/53/95 103/53/98 76/54/73
f 76/54/73 103/53/98 102/53/97 27/4/27
f 23/45/23 24/27/24 100/53/95 99/42/94
f 72/45/69 104/40/99 101/42/96 46/45/46
f 9/10/9 106/11/101 110/34/105 66/10/63
f 7/13/7 105/12/100 109/37/104 69/13/66
f 69/13/66 109/37/104 107/12/102 32/13/32
f 66/10/63 110/34/105 108/11/103 35/10/35
f 9/10/9 8/9/8 105/12/100 106/11/101
