# Blender 4.5.3 LTS
# www.blender.org
o Expositor_LOD02
v 6.081251 -3.045711 -2.228109
v -2.521480 -3.045710 5.965585
v 2.094250 -3.045711 -6.414143
v 2.094249 2.606840 -6.414143
v -6.508487 -3.045710 1.779549
v -6.508486 2.606841 1.779545
v -2.401587 -0.610337 5.968424
v 3.604267 2.704104 -4.756975
v 6.082625 -0.595042 -2.103625
v -4.922132 2.714675 3.383574
v -1.425290 -1.912647 3.240676
v -3.145843 -1.912647 4.879412
v 2.617954 1.303048 -5.433649
v 5.026762 -1.912648 -2.904598
v -5.554641 1.303048 2.350361
v 0.897402 1.303048 -3.794913
v 3.306211 -1.912648 -1.265862
v -3.834099 1.303048 0.711615
v 0.725388 -1.912648 1.192248
v -0.995155 -1.912647 2.830994
v -3.403963 1.303048 0.301933
v -1.683411 1.303048 -1.336803
v 2.876075 -1.912648 -0.856170
v 1.155533 -1.912648 0.782566
v -1.253276 1.303048 -1.746495
v 0.467266 1.303048 -3.385231
v -0.345743 -0.570434 4.087017
v 1.535286 2.756355 -2.694542
v 4.019751 -0.560335 -0.086054
v 1.874465 -0.567549 1.968042
v -2.681782 2.739522 1.347262
v -0.615393 2.756355 -0.646120
v -0.587506 2.553590 -0.956796
v 1.825515 -1.026383 1.571712
v 1.180594 2.554356 -2.686154
v 3.721588 -0.890602 -0.035579
v 0.507728 1.005470 0.148240
v 2.421924 0.952425 -1.529094
v 1.866354 0.678124 -0.914179
v 1.133577 0.166268 0.927933
v 3.048762 -0.090934 -0.735197
v 0.829213 1.891202 -1.086583
v 2.187601 0.077948 0.213840
v 1.559412 2.553587 -3.001631
v 3.972430 -1.026387 -0.473138
v 3.327506 2.554355 -4.730983
v 5.868500 -0.890623 -2.080416
v 2.654660 1.005436 -1.896574
v 4.568838 0.952419 -3.573924
v 4.013282 0.678106 -2.959000
v 3.280506 0.166254 -1.116889
v 5.195673 -0.090934 -2.780026
v 2.976130 1.891205 -3.131427
v 4.334512 0.077948 -1.830999
v -2.749925 2.553582 1.102802
v -0.336909 -1.026384 3.631307
v -0.981836 2.554357 -0.626554
v 1.559161 -0.890613 2.024026
v -1.654699 1.005485 2.207840
v 0.259518 0.952415 0.530530
v -0.296072 0.678119 1.145426
v -1.028840 0.166259 2.987549
v 0.886330 -0.090933 1.324412
v -1.333213 1.891205 0.973018
v 0.025169 0.077948 2.273439
v -4.956328 2.553592 3.204303
v -2.543314 -1.026384 5.732803
v -3.188234 2.554363 1.474945
v -0.647238 -0.890609 4.125516
v -3.861106 1.005483 4.309334
v -1.946880 0.952411 2.632031
v -2.502472 0.678120 3.246918
v -1.320075 -0.090933 3.425908
v -3.539613 1.891204 3.074508
v -3.233112 0.240587 5.109134
vn -0.6897 -0.0000 -0.7241
vn -0.0320 0.9989 -0.0347
vn -0.0302 0.9990 -0.0318
vn -0.0299 0.9991 -0.0314
vn 0.3994 -0.8162 0.4175
vn 0.4323 -0.7802 0.4521
vn 0.3722 -0.8428 0.3888
vn 0.5000 0.7131 0.4913
vn 0.4172 0.7572 0.5026
vn 0.4844 0.6861 0.5428
vn 0.4664 0.6551 0.5944
vn 0.4750 0.7042 0.5278
vn 0.3996 0.7573 0.5166
vn 0.4898 0.7621 0.4236
vn 0.4923 0.7356 0.4653
vn 0.5001 0.7131 0.4913
vn 0.4172 0.7572 0.5025
vn 0.4853 0.7248 0.4891
vn 0.4877 0.6783 0.5496
vn 0.7300 0.0139 -0.6833
vn 0.7322 0.0106 -0.6810
vn 0.7345 0.0071 -0.6786
vn 0.5066 0.7080 0.4920
vn 0.4988 0.7350 0.4593
vn -0.7145 0.0066 0.6996
vn -0.7110 -0.0000 0.7032
vn -0.7162 0.0099 0.6979
vn -0.4861 0.7103 -0.5092
vn -0.0000 -1.0000 -0.0000
vn -0.7177 0.0129 0.6962
vn 0.7392 -0.0000 -0.6735
vn 0.7874 0.1132 -0.6060
vn -0.0323 0.9989 -0.0352
vn -0.6536 0.1271 0.7461
vn 0.6891 -0.0360 0.7238
vn -0.3558 0.8576 -0.3714
vn -0.3938 0.8215 -0.4124
vn -0.3555 0.8579 -0.3710
vn -0.4261 0.7863 -0.4474
vn 0.4671 0.7357 0.4905
vn -0.6627 0.0939 0.7430
vn 0.7749 0.0955 -0.6248
vn 0.5257 -0.6531 0.5451
vn 0.5252 -0.6481 0.5515
vn 0.5296 -0.6446 0.5514
vn 0.7974 0.0993 -0.5952
vn -0.4894 0.7051 -0.5132
vn -0.6436 0.1132 0.7570
vn 0.5189 -0.6503 0.5549
vn -0.4888 0.7075 -0.5103
vn 0.4325 -0.7800 0.4523
vn -0.4848 0.7091 -0.5120
vn 0.4579 0.7413 0.4908
vn 0.4857 0.6123 0.6238
vn 0.4835 0.7169 0.5023
vn 0.5018 0.5865 0.6358
vt 0.128871 0.996507
vt 0.128871 0.808501
vt 0.316876 0.808501
vt 0.316876 0.996507
vt 0.130243 1.039547
vt 0.504882 0.996507
vt 0.598884 0.996507
vt 0.551883 0.996507
vt 0.116000 0.582355
vt 0.115940 0.641975
vt 0.081419 0.691899
vt 0.115940 0.709292
vt 0.055138 0.757016
vt 0.006744 0.800159
vt 0.114924 0.801949
vt 0.058800 0.644447
vt 0.116000 0.582355
vt 0.081419 0.691898
vt 0.115940 0.709292
vt 0.055139 0.757016
vt 0.006744 0.800159
vt 0.114924 0.801949
vt 0.116000 0.582355
vt 0.081419 0.691899
vt 0.115940 0.709291
vt 0.055138 0.757016
vt 0.006744 0.800159
vt 0.114924 0.801949
vt 0.116000 0.582355
vt 0.081419 0.691899
vt 0.115940 0.709291
vt 0.055138 0.757016
vt -0.059134 0.879921
vt -0.059134 0.808501
vt 0.087092 0.996507
vt 0.006660 0.712858
vt 0.007670 0.646986
vt 0.006744 0.800159
vt 0.114924 0.801949
vt 0.358655 0.996507
vt 0.223180 1.180545
vt 0.227574 1.180191
vt 0.265175 1.180191
vt 0.271539 1.180419
vt 0.128871 0.620496
vt 0.504882 0.808501
vt 0.504882 0.875295
vt 0.176177 1.180521
vt 0.171172 1.180191
vt 0.171172 1.042607
vt 0.175567 1.042277
vt 0.316876 0.620496
vt 0.315725 1.039344
vt 0.274575 1.042607
vt 0.274575 1.180191
vt 0.268197 1.042460
vt 0.692887 0.808501
vt 0.692887 0.996507
vt 0.222568 1.042277
vt 0.133571 1.042607
vt 0.133571 1.180191
vt 0.312176 1.042607
vt 0.312176 1.180191
vt 0.227574 1.042607
vt 0.265175 1.042607
vt 0.180572 1.180191
vt 0.180572 1.042607
vt 0.218173 1.042607
vt 0.218173 1.180191
vt 0.130279 1.183218
vt 0.313743 1.181631
vt 0.645885 0.996507
vt 0.008250 0.646957
vt 0.006842 0.585779
vt 0.006660 0.712858
vt 0.008250 0.646957
vt 0.006842 0.585779
vt 0.006660 0.712856
vt 0.008249 0.646957
vt 0.006842 0.585779
vt 0.006660 0.712858
vt 0.006842 0.585779
s 1
f 4/1/1 3/2/1 5/3/1
f 6/4/2 8/5/3 4/1/4
f 7/6/5 30/7/6 27/8/7
f 36/9/8 41/10/9 39/11/10
f 39/11/10 38/12/11 42/13/12
f 33/14/13 42/13/12 35/15/14
f 39/11/10 41/10/9 38/12/11
f 36/9/8 39/11/10 43/16/15
f 47/17/16 52/10/9 50/18/10
f 50/18/10 49/19/11 53/20/12
f 44/21/13 53/20/12 46/22/14
f 50/18/10 52/10/9 49/19/11
f 47/17/16 50/18/10 54/16/15
f 58/23/16 63/10/17 61/24/10
f 61/24/10 60/25/11 64/26/12
f 55/27/13 64/26/12 57/28/14
f 61/24/10 63/10/17 60/25/11
f 58/23/16 61/24/10 65/16/15
f 69/29/18 73/10/17 72/30/19
f 72/30/19 71/31/11 74/32/12
f 9/33/20 1/34/20 3/2/21 8/35/22
f 70/36/23 75/37/24 72/30/19
f 66/38/13 74/32/12 68/39/14
f 72/30/19 73/10/17 71/31/11
f 69/29/18 72/30/19 75/37/24
f 10/40/25 6/4/26 5/3/27
f 30/41/28 19/42/28 20/43/28 27/44/28
f 1/45/29 5/3/29 3/2/29
f 5/3/27 2/46/30 7/47/30 10/40/25
f 4/1/31 8/35/22 3/2/21
f 29/48/32 17/49/32 16/50/32 28/51/32
f 5/3/29 1/45/29 2/52/29
f 10/53/33 8/5/3 6/4/2
f 18/54/34 11/55/34 27/44/34 31/56/34
f 2/46/35 1/57/35 9/58/35 7/6/35
f 6/4/1 4/1/1 5/3/1
f 32/59/36 8/5/37 10/53/38 31/56/38
f 8/5/37 32/59/36 28/51/39
f 13/60/40 16/50/40 17/49/40 14/61/40
f 11/55/40 18/54/40 15/62/40 12/63/40
f 19/42/40 22/64/40 21/65/40 20/43/40
f 23/66/40 26/67/40 25/68/40 24/69/40
f 13/60/41 14/61/41 9/70/41 8/5/41
f 7/71/42 12/63/42 15/62/42 10/53/42
f 31/56/43 21/65/43 22/64/43 32/59/43
f 32/59/44 25/68/44 26/67/44 28/51/44
f 28/51/45 16/50/45 13/60/45 8/5/45
f 20/43/46 21/65/46 31/56/46 27/44/46
f 30/41/32 24/69/32 25/68/32 32/59/32
f 9/70/47 14/61/47 17/49/47 29/48/47
f 22/64/48 19/42/48 30/41/48 32/59/48
f 26/67/48 23/66/48 29/48/48 28/51/48
f 15/62/49 18/54/49 31/56/49 10/53/49
f 29/48/50 23/66/50 24/69/50 30/41/50
f 30/7/6 7/6/5 9/58/51 29/72/51
f 11/55/52 12/63/52 7/71/52 27/44/52
f 43/16/15 40/73/53 34/74/54 36/9/8
f 37/75/55 39/11/10 42/13/12
f 43/16/15 39/11/10 37/75/55 40/73/53
f 54/16/15 51/76/53 45/77/54 47/17/16
f 37/75/55 42/13/12 33/14/13
f 42/13/12 38/12/11 35/15/14
f 48/78/55 50/18/10 53/20/12
f 54/16/15 50/18/10 48/78/55 51/76/53
f 65/16/15 62/79/53 56/80/54 58/23/16
f 48/78/55 53/20/12 44/21/13
f 53/20/12 49/19/11 46/22/14
f 59/81/55 61/24/10 64/26/12
f 65/16/15 61/24/10 59/81/55 62/79/53
f 59/81/55 64/26/12 55/27/13
f 64/26/12 60/25/11 57/28/14
f 70/36/23 72/30/19 74/32/12
f 67/82/56 69/29/18 75/37/24
f 70/36/23 74/32/12 66/38/13
f 74/32/12 71/31/11 68/39/14
