# Blender 4.5.3 LTS
# www.blender.org
o Mesa_LOD01
v -1.377277 -1.813412 -5.828420
v -1.034028 0.438256 -5.828420
v -1.034028 -1.813412 -5.141922
v -1.377277 0.438256 -5.141922
v -1.720525 0.438256 -5.828420
v -1.720525 -1.813412 -5.141922
v 1.377272 -1.813412 -5.828420
v 1.034023 0.438256 -5.828420
v 1.034023 -1.813412 -5.141922
v 1.377272 0.438256 -5.141922
v 1.720520 0.438256 -5.828420
v 1.720520 -1.813412 -5.141922
v -1.034028 -1.813411 5.828421
v -1.034028 0.438257 5.828421
v -1.034028 -1.813411 5.141923
v -1.034028 0.438257 5.141923
v -1.720525 -1.813411 5.828421
v -1.720525 0.438257 5.828421
v -1.720525 -1.813411 5.141923
v -1.720525 0.438257 5.141923
v 1.034033 -1.813411 5.828421
v 1.034033 0.438257 5.828421
v 1.034033 -1.813411 5.141923
v 1.491698 0.438257 5.141923
v 1.720530 -1.813411 5.828421
v 1.720530 0.438257 5.828421
v 1.720530 -1.813411 5.141923
v 1.893647 0.334151 -6.592994
v -1.893652 0.334151 -6.592994
v 1.893656 0.334152 6.592993
v -1.893652 0.334152 6.592993
v 2.079633 0.950658 6.840962
v 2.079628 0.950657 -6.716978
v -2.017640 0.950657 -6.840961
v -2.141621 0.950658 6.716978
v 2.265609 1.632579 6.964947
v 2.265609 1.632578 -6.964946
v -2.265615 1.632578 -6.964946
v -2.265605 1.632579 6.964947
vn -0.0000 -0.0000 1.0000
vn -0.0000 -0.0000 -1.0000
vn -1.0000 -0.0000 -0.0000
vn 1.0000 -0.0000 -0.0000
vn -0.9443 0.0960 -0.3148
vn 0.9852 0.0501 -0.1642
vn -0.0000 -1.0000 -0.0000
vn -0.9618 -0.2736 -0.0044
vn -0.9573 -0.2892 -0.0044
vn -0.9618 -0.2739 -0.0044
vn 0.9618 -0.2736 -0.0000
vn 0.9574 -0.2888 -0.0000
vn 0.9618 -0.2739 -0.0000
vn -0.0141 -0.2736 0.9617
vn -0.0148 -0.2895 0.9571
vn 0.0144 -0.2737 -0.9617
vn 0.0150 -0.2895 -0.9571
vn 0.0144 -0.2738 -0.9617
vn -0.0000 1.0000 -0.0000
vn 0.0139 -0.2625 -0.9648
vn -0.9649 -0.2627 -0.0044
vn 0.9648 -0.2631 -0.0000
vn -0.0137 -0.2625 0.9648
vt 0.000161 0.375040
vt 0.430211 0.250081
vt 0.430211 0.500000
vt 0.000161 0.333387
vt 0.000161 0.000161
vt 0.430212 0.000161
vt 0.000161 0.749919
vt 0.430211 0.874879
vt 0.000161 0.999839
vt 0.430211 0.749919
vt 0.000161 0.500000
vt 0.000161 0.250080
vt 0.430211 0.999839
vt 0.532767 0.672969
vt 0.532767 0.983098
vt 0.443691 0.983098
vt 0.443691 0.672969
vt 0.861867 0.831507
vt 0.857467 0.850493
vt 0.545495 0.850493
vt 0.541095 0.831507
vt 0.540362 0.683966
vt 0.545495 0.664247
vt 0.857467 0.664247
vt 0.861134 0.682500
vt 0.537141 0.654095
vt 0.438588 0.653366
vt 0.443691 0.997598
vt 0.532767 0.997598
vt 0.536695 0.810973
vt 0.536695 0.703767
vt 0.866267 0.703767
vt 0.866267 0.810973
vt 0.887534 0.708901
vt 0.886801 0.806573
vt 0.541515 0.633682
vt 0.434943 0.633682
s 1
f 4/1/1 6/2/1 3/3/1
f 12/2/1 10/1/1 9/3/1
f 24/4/2 27/2/2 23/3/2
f 5/5/3 1/6/3 6/2/3 4/1/3
f 8/7/3 7/8/3 9/3/3 10/1/3
f 5/9/2 2/7/2 1/8/2
f 11/5/4 10/1/4 12/2/4 7/6/4
f 14/7/4 13/10/4 15/3/4 16/11/4
f 7/8/2 8/7/2 11/9/2
f 16/11/2 15/3/2 19/2/2 20/12/2
f 20/12/3 19/2/3 17/6/3 18/5/3
f 18/9/1 17/13/1 13/10/1 14/7/1
f 23/3/5 21/10/5 22/7/5 24/4/5
f 25/6/6 27/2/6 24/4/6 26/5/6
f 3/3/4 1/8/4 2/7/4 4/1/4
f 21/10/1 25/13/1 26/9/1 22/7/1
f 31/14/7 29/15/7 28/16/7 30/17/7
f 34/18/8 29/19/9 31/20/9 35/21/10
f 32/22/11 30/23/12 28/24/12 33/25/13
f 35/26/14 31/14/15 30/17/15 32/27/14
f 33/28/16 28/16/17 29/15/17 34/29/18
f 39/30/19 36/31/19 37/32/19 38/33/19
f 37/32/20 33/34/16 34/35/18 38/33/20
f 38/33/21 34/18/8 35/21/10 39/30/21
f 37/32/22 36/31/22 32/22/11 33/25/13
f 39/36/23 35/26/14 32/27/14 36/37/23
