# Blender 4.5.3 LTS
# www.blender.org
o Tela_3_2_LOD01
v 4.184452 3.280728 5.574406
v 5.545326 3.276313 4.339919
v 4.432601 1.429711 5.913022
v 5.651604 2.347427 4.426920
v 5.188026 1.427549 5.308358
v 5.043917 2.353135 5.156194
v 2.675871 3.281793 6.434486
v 4.294072 3.282888 5.572649
v 2.833875 1.430884 6.823901
v 4.384311 2.355069 5.687450
v 3.718502 1.430875 6.413553
v 3.614591 2.356333 6.230958
v 0.996088 3.281798 6.874083
v 2.780982 3.283682 6.457284
v 1.053505 1.430884 7.290382
v 2.840830 2.356333 6.589341
v 2.014884 1.430884 7.122018
v 1.959235 2.356333 6.919363
v -0.728472 3.281821 6.870737
v 1.086869 3.281783 6.860535
v -0.787424 1.430884 7.286726
v 1.118619 2.356333 7.068285
v 0.179196 3.281783 6.997324
v 0.181487 1.430884 7.417632
v 0.180341 2.356333 7.207483
v -2.406348 3.281790 6.424580
v -0.648847 3.283605 6.943132
v -2.565667 1.430884 6.813473
v -0.664105 2.356333 7.092567
v -1.652616 1.430884 7.135038
v -1.598901 2.356333 6.931862
v -3.912440 3.280684 5.560458
v -2.348606 3.283992 6.516594
v -4.161690 1.429675 5.898268
v -2.400033 2.356333 6.658844
v -3.361869 1.430875 6.444232
v -3.259754 2.356333 6.260619
v -5.156151 3.273540 4.345889
v -3.838751 3.280811 5.615060
v -5.475019 1.422188 4.616681
v -3.961245 2.355316 5.785588
v -4.565065 3.279135 5.057084
v -4.850655 1.427979 5.363961
v -4.707864 2.353557 5.210522
v -6.177930 3.270420 2.865084
v -5.109818 3.271935 4.426359
v -6.573657 1.420478 3.018795
v -5.254781 2.348425 4.554179
v -6.011435 1.419357 3.890752
v -5.834731 2.345035 3.778896
v -6.802605 3.355142 1.184292
v -6.125965 3.270438 2.945299
v -7.245263 1.522030 1.172893
v -6.321545 2.345273 3.025532
v -6.932705 1.462085 2.144846
v -6.717305 2.385619 2.108449
v -6.914988 3.435768 -0.418184
v -6.777224 3.358139 1.264827
v -7.355368 1.578283 -0.415580
v -7.005287 2.436951 1.260768
v -7.359464 1.580327 0.419905
v -7.131831 2.501625 0.421243
v -6.492101 3.307494 -2.069707
v -6.913563 3.427578 -0.334311
v -6.921494 1.460234 -2.145325
v -7.141178 2.506271 -0.333157
v -6.785562 3.362510 -1.176384
v -7.241598 1.520106 -1.168632
v -7.013580 2.441304 -1.172508
v -5.642197 3.270757 -3.661752
v -6.524135 3.312873 -1.979633
v -5.994116 1.419356 -3.887472
v -6.740763 2.389504 -2.012731
v -6.162023 3.270420 -2.859734
v -6.555830 1.420227 -3.015178
v -6.358922 2.345328 -2.937456
v -4.557543 3.277397 -5.057684
v -5.694121 3.270694 -3.581512
v -4.832142 1.428347 -5.357425
v -5.872392 2.345034 -3.690985
v -5.455932 1.422371 -4.609672
v -5.296941 2.348031 -4.473661
v -3.142154 3.280769 -6.073648
v -4.606006 3.278740 -4.977767
v -3.334978 1.430946 -6.427185
v -4.750024 2.353162 -5.130014
v -4.137829 1.429720 -5.886072
v -4.013842 2.355215 -5.716653
v -1.525161 3.280008 -6.725489
v -3.215615 3.281800 -6.020424
v -1.623294 1.430924 -7.110652
v -3.319407 2.356333 -6.203083
v -2.538562 1.430883 -6.796082
v -2.459685 2.356333 -6.601299
v 0.205771 3.281065 -6.972673
v -1.608165 3.281782 -6.687617
v 0.211003 1.431148 -7.384617
v -1.663675 2.356333 -6.890307
v -0.757762 1.430883 -7.261207
v -0.729210 2.356333 -7.053000
v 1.931379 3.281782 -6.681881
v 0.117220 3.281226 -6.975444
v 2.044358 1.431006 -7.087282
v 0.115237 2.356333 -7.178280
v 1.083158 1.430883 -7.256084
v 1.053515 2.356333 -7.048033
v 3.536263 3.281800 -6.006697
v 1.847823 3.280187 -6.717720
v 3.745718 1.430964 -6.371387
v 1.894451 2.356333 -6.901092
v 2.860979 1.430883 -6.781475
v 2.781186 2.356333 -6.587069
v 4.929202 3.277510 -4.966473
v 3.452695 3.281800 -6.045137
v 5.207488 1.427488 -5.255988
v 3.554929 2.356333 -6.228676
v 4.456462 1.429664 -5.865400
v 4.331705 2.355169 -5.696558
v 6.003489 3.270685 -3.552867
v 4.870186 3.277054 -5.032860
v 6.361696 1.419394 -3.769428
v 5.001747 2.353528 -5.176893
v 5.768985 1.422160 -4.582942
v 5.609435 2.347820 -4.447610
v 6.826455 3.314812 -1.947497
v 5.951470 3.270722 -3.633046
v 7.260849 1.468233 -2.010220
v 6.128293 2.345034 -3.744718
v 6.471364 3.270420 -2.831071
v 6.866528 1.420282 -2.983922
v 6.668951 2.345355 -2.907501
v 7.228871 3.419060 -0.307602
v 6.794332 3.309418 -2.037526
v 7.664425 1.587355 -0.302158
v 7.009823 2.385903 -2.073684
v 7.536654 1.522351 -1.138696
v 7.308654 2.443558 -1.142471
v 7.063752 3.355895 1.294975
v 7.221844 3.440171 -0.387284
v 7.519921 1.513527 1.286654
v 7.423304 2.501973 -0.387046
v 7.645467 1.577944 0.449768
v 7.417825 2.499243 0.451197
v 6.398187 3.270447 2.973953
v 7.097216 3.354291 1.218070
v 6.788278 1.420132 3.137147
v 7.303751 2.440983 1.206724
v 7.210745 1.460005 2.180427
v 6.995996 2.383612 2.142326
v 5.374735 3.270480 4.448452
v 6.450142 3.270429 2.893747
v 5.681182 1.422976 4.718219
v 6.646950 2.345319 2.971653
v 6.282006 1.419357 3.921834
v 6.106118 2.345044 3.808768
vn 0.7066 0.2096 0.6759
vn 0.6285 0.2499 0.7366
vn 0.6474 0.2276 0.7274
vn 0.7605 0.1463 0.6326
vn 0.5125 0.2127 0.8319
vn 0.4317 0.2469 0.8676
vn 0.4508 0.2271 0.8633
vn 0.5700 0.1553 0.8069
vn 0.2827 0.2140 0.9350
vn 0.1935 0.2475 0.9494
vn 0.2140 0.2273 0.9500
vn 0.3464 0.1541 0.9253
vn 0.0048 0.2220 0.9750
vn -0.1333 0.2200 0.9663
vn -0.0426 0.2223 0.9741
vn -0.2224 0.2151 0.9509
vn -0.2984 0.2452 0.9224
vn -0.2819 0.2266 0.9323
vn -0.1673 0.1595 0.9729
vn -0.4627 0.2150 0.8600
vn -0.5267 0.2445 0.8141
vn -0.5130 0.2263 0.8280
vn -0.4149 0.1603 0.8956
vn -0.6805 0.2210 0.6987
vn -0.7506 0.2195 0.6232
vn -0.7019 0.2212 0.6771
vn -0.7843 0.2042 0.5858
vn -0.7984 0.2177 0.5614
vn -0.8078 0.2249 0.5448
vn -0.8587 0.2219 -0.4619
vn -0.8193 0.2194 -0.5298
vn -0.8487 0.2217 -0.4802
vn -0.7651 0.2244 -0.6035
vn -0.7661 0.2224 -0.6030
vn -0.7530 0.2165 -0.6214
vn -0.5713 0.2267 -0.7888
vn -0.5728 0.2246 -0.7884
vn -0.5498 0.2164 -0.8068
vn -0.3549 0.2287 -0.9065
vn -0.3576 0.2266 -0.9059
vn -0.3231 0.2152 -0.9216
vn -0.1418 0.2239 -0.9642
vn -0.1431 0.2227 -0.9643
vn -0.1265 0.2183 -0.9676
vn 0.1481 0.2193 -0.9643
vn 0.1583 0.2232 -0.9618
vn 0.1344 0.2120 -0.9680
vn 0.3603 0.2189 -0.9068
vn 0.3851 0.2279 -0.8943
vn 0.3271 0.1998 -0.9236
vn 0.5888 0.2267 -0.7759
vn 0.5865 0.2248 -0.7781
vn 0.6118 0.2161 -0.7609
vn 0.7672 0.2174 -0.6035
vn 0.7776 0.2245 -0.5873
vn 0.7527 0.2048 -0.6256
vn 0.8607 0.2221 -0.4581
vn 0.9001 0.2236 -0.3739
vn 0.8774 0.2232 -0.4246
vn 0.6094 0.2207 0.7615
vn 0.9777 0.2099 0.0071
vn 0.9665 0.2498 0.0591
vn 0.9613 0.2490 0.1181
vn 0.9259 0.2054 0.3171
vn 0.9101 0.2206 0.3509
vn 0.8966 0.2311 0.3777
vn 0.4101 0.2210 0.8849
vn 0.1677 0.2210 0.9607
vn -0.1319 0.2207 0.9664
vn 0.1442 0.2204 0.9647
vn -0.3242 0.2210 0.9198
vn -0.5504 0.2209 0.8052
vn -0.7500 0.2200 0.6238
vn -0.5950 0.2205 0.7729
vn -0.8103 0.2313 0.5385
vn -0.8149 0.2260 0.5338
vn -0.9226 0.2231 0.3147
vn -0.9094 0.2357 0.3428
vn -0.9098 0.2347 0.3423
vn -0.8197 0.2204 0.5288
vn -0.8952 0.2483 0.3701
vn -0.9643 0.2572 0.0630
vn -0.9723 0.2337 0.0018
vn -0.9646 0.2572 0.0591
vn -0.9528 0.2806 0.1157
vn -0.9211 0.2269 -0.3163
vn -0.9212 0.2268 -0.3161
vn -0.9363 0.2308 -0.2646
vn -0.9410 0.2320 -0.2463
vn -0.9577 0.2364 -0.1639
vn -0.9213 0.2267 -0.3159
vn -0.8196 0.2198 -0.5290
vn -0.8973 0.2236 -0.3806
vn -0.7754 0.2335 -0.5867
vn -0.7499 0.2205 -0.6238
vn -0.5902 0.2386 -0.7712
vn -0.5453 0.2211 -0.8086
vn -0.3849 0.2443 -0.8901
vn -0.3170 0.2211 -0.9223
vn -0.1564 0.2306 -0.9604
vn -0.1233 0.2214 -0.9673
vn 0.1618 0.2266 -0.9605
vn 0.1652 0.2239 -0.9605
vn 0.3928 0.2368 -0.8886
vn 0.4015 0.2290 -0.8868
vn 0.1687 0.2213 -0.9605
vn 0.5651 0.2390 -0.7897
vn 0.4101 0.2212 -0.8848
vn 0.6149 0.2210 -0.7570
vn 0.7801 0.2308 -0.5816
vn 0.7844 0.2254 -0.5778
vn 0.8997 0.2240 -0.3746
vn 0.7888 0.2199 -0.5740
vn 0.8191 0.2196 -0.5300
vn 0.9580 0.2303 -0.1709
vn 0.9437 0.2492 -0.2176
vn 0.9413 0.2493 -0.2276
vn 0.9243 0.2683 -0.2716
vn 0.9551 0.2655 0.1312
vn 0.9580 0.2365 0.1619
vn 0.8912 0.2397 0.3850
vn 0.8899 0.2317 0.3931
vn 0.7816 0.2167 0.5849
vn 0.7929 0.2276 0.5652
vn 0.7929 0.2282 0.5651
vn 0.8883 0.2231 0.4015
vn 0.8046 0.2385 0.5437
vt 0.291764 0.008677
vt 0.288588 0.195334
vt 0.364553 0.103199
vt 0.366142 0.009798
vt 0.291764 0.008654
vt 0.288588 0.195334
vt 0.291764 0.008666
vt 0.290177 0.101933
vt 0.291764 0.008641
vt 0.288588 0.195334
vt 0.291764 0.008628
vt 0.288588 0.195334
vt 0.291766 0.008549
vt 0.288588 0.195334
vt 0.288588 0.195329
vt 0.437340 0.197864
vt 0.288588 0.195323
vt 0.437340 0.197864
vt 0.288588 0.195308
vt 0.437340 0.197864
vt 0.288588 0.195337
vt 0.291766 0.008529
vt 0.291766 0.008553
vt 0.288588 0.195324
vt 0.437340 0.197864
vt 0.291766 0.008541
vt 0.438929 0.104464
vt 0.291764 0.008628
vt 0.291765 0.008614
vt 0.291766 0.008533
vt 0.288588 0.195325
vt 0.288589 0.195296
vt 0.288590 0.195206
vt 0.288588 0.195332
s 1
f 2/1/1 1/2/2 6/3/3
f 4/4/4 2/1/1 6/3/3
f 8/5/5 7/6/6 12/3/7
f 10/4/8 8/5/5 12/3/7
f 14/7/9 13/2/10 18/3/11
f 16/4/12 14/7/9 18/3/11
f 23/8/13 19/2/14 25/3/15
f 27/9/16 26/10/17 31/3/18
f 29/4/19 27/9/16 31/3/18
f 33/11/20 32/2/21 37/3/22
f 35/4/23 33/11/20 37/3/22
f 42/8/24 38/12/25 44/3/26
f 48/4/27 46/13/28 50/3/29
f 74/8/30 70/14/31 76/3/32
f 82/3/33 77/15/34 79/16/35
f 88/3/36 83/17/37 85/18/38
f 94/3/39 89/19/40 91/20/41
f 100/3/42 95/21/43 97/16/44
f 102/22/45 106/3/46 104/4/47
f 108/23/48 112/3/49 110/4/50
f 118/3/51 113/24/52 115/25/53
f 120/26/54 124/3/55 122/4/56
f 129/8/57 125/2/58 131/3/59
f 3/20/60 5/27/60 6/3/3 1/2/2
f 141/4/61 139/28/62 143/3/63
f 147/4/64 145/29/65 149/3/66
f 9/20/67 11/27/67 12/3/7 7/6/6
f 15/20/68 17/27/68 18/3/11 13/2/10
f 21/20/69 24/27/69 25/3/15 19/2/14
f 23/8/13 25/3/15 22/4/70 20/30/70
f 28/20/71 30/27/71 31/3/18 26/10/17
f 34/20/72 36/27/72 37/3/22 32/2/21
f 40/20/73 43/27/73 44/3/26 38/12/25
f 42/8/24 44/3/26 41/4/74 39/30/74
f 45/2/75 47/25/76 50/3/29 46/13/28
f 53/20/77 55/27/77 56/3/78 51/31/79
f 49/27/80 50/3/29 47/25/76
f 56/3/78 54/4/81 52/30/81 51/31/79
f 57/32/82 59/20/83 61/27/83 62/3/84
f 62/3/84 60/4/85 58/30/85 57/32/82
f 63/2/86 65/20/87 69/3/88 67/8/89
f 67/8/89 69/3/88 66/4/90 64/30/90
f 68/27/91 69/3/88 65/20/87
f 72/20/92 75/27/92 76/3/32 70/14/31
f 74/8/30 76/3/32 73/4/93 71/30/93
f 82/3/33 80/4/94 78/30/94 77/15/34
f 81/27/95 82/3/33 79/16/35
f 88/3/36 86/4/96 84/30/96 83/17/37
f 87/27/97 88/3/36 85/18/38
f 94/3/39 92/4/98 90/30/98 89/19/40
f 93/27/99 94/3/39 91/20/41
f 100/3/42 98/4/100 96/30/100 95/21/43
f 99/27/101 100/3/42 97/16/44
f 101/2/102 103/20/103 106/3/46 102/22/45
f 107/2/104 109/25/105 112/3/49 108/23/48
f 105/27/106 106/3/46 103/20/103
f 118/3/51 116/4/107 114/30/107 113/24/52
f 111/27/108 112/3/49 109/25/105
f 117/27/109 118/3/51 115/25/53
f 119/2/110 121/20/111 124/3/55 120/26/54
f 127/20/112 130/27/112 131/3/59 125/2/58
f 123/27/113 124/3/55 121/20/111
f 129/8/57 131/3/59 128/4/114 126/30/114
f 134/20/115 136/27/115 137/3/116 132/33/117
f 137/3/116 135/4/118 133/30/118 132/33/117
f 138/2/119 140/20/120 142/27/120 143/3/63
f 143/3/63 139/28/62 138/2/119
f 144/2/121 146/25/122 149/3/66 145/29/65
f 152/20/123 154/27/123 155/3/124 150/34/125
f 148/27/126 149/3/66 146/25/122
f 155/3/124 153/4/127 151/30/127 150/34/125
