# Blender 4.5.3 LTS
# www.blender.org
o Tela_3_2_LOD03
v 4.184452 3.280728 5.574406
v 5.545326 3.276313 4.339919
v 4.804700 1.433517 5.603865
v 4.568447 2.104062 3.992345
v 2.675871 3.281793 6.434486
v 4.294072 3.282888 5.572649
v 3.273633 1.436834 6.613405
v 3.479950 2.126044 5.055179
v 0.996088 3.281798 6.874083
v 2.780982 3.283682 6.457284
v 1.532679 1.436308 7.198316
v 2.126342 2.123951 5.735543
v -0.728472 3.281821 6.870737
v 1.097759 3.283483 6.955290
v -0.300831 1.434826 7.333960
v 0.649343 2.080486 5.882070
v -2.406348 3.281790 6.424580
v -0.648847 3.283605 6.943132
v -2.107608 1.436949 6.969697
v -0.875744 2.135294 6.040127
v -3.912440 3.280684 5.560458
v -2.348606 3.283992 6.516594
v -3.758420 1.435921 6.166142
v -2.337463 2.138244 5.598588
v -5.156151 3.273540 4.345889
v -3.887043 3.284227 5.675148
v -5.154020 1.428905 4.982719
v -3.532112 2.100813 4.671637
v -6.177930 3.270420 2.865084
v -5.143049 3.040521 4.458731
v -6.573657 1.420478 3.018795
v -5.928941 1.882940 3.833031
v -6.802605 3.355142 1.184292
v -6.218120 2.806443 2.983056
v -7.245263 1.522030 1.172893
v -6.839654 1.927188 2.121718
v -6.914988 3.435768 -0.418184
v -6.070146 2.540469 0.885197
v -7.357495 1.578699 0.002161
v -6.492101 3.307494 -2.069707
v -6.946201 3.419224 -0.341175
v -6.998487 1.492790 -1.900983
v -6.234899 2.268174 -0.535223
v -5.642197 3.270757 -3.661752
v -6.578713 3.299247 -2.006385
v -6.263278 1.428209 -3.444632
v -5.601775 2.137092 -1.969860
v -4.557543 3.277397 -5.057684
v -5.782266 2.807580 -3.635478
v -4.832142 1.428347 -5.357425
v -5.374747 1.885389 -4.545336
v -3.142154 3.280769 -6.073648
v -4.130811 2.544545 -4.837105
v -3.533959 1.440433 -6.289024
v -1.525161 3.280008 -6.725489
v -2.736305 2.515801 -5.643547
v -1.851284 1.440970 -7.029210
v 0.205771 3.281065 -6.972673
v -1.608165 3.281782 -6.687617
v -0.030782 1.441724 -7.347234
v -1.148709 2.290719 -6.654850
v 1.931379 3.281782 -6.681881
v 0.117220 3.281226 -6.975444
v 1.803114 1.440849 -7.125423
v 0.545817 2.307781 -6.866874
v 3.536263 3.281800 -6.006697
v 1.847823 3.280187 -6.717720
v 3.522814 1.441043 -6.470621
v 2.098663 2.219946 -6.159724
v 4.929202 3.277510 -4.966473
v 3.451946 2.545037 -5.544870
v 5.017092 1.437428 -5.405357
v 6.003489 3.270685 -3.552867
v 4.870186 3.277054 -5.032860
v 6.210792 1.432958 -3.971052
v 4.949708 2.255379 -4.535815
v 6.826455 3.314812 -1.947497
v 6.007126 3.256231 -3.662681
v 7.051456 1.455190 -2.492002
v 5.424869 2.107768 -2.817815
v 7.228871 3.419060 -0.307602
v 6.113486 2.494509 -1.500473
v 7.600267 1.554150 -0.720397
v 7.063752 3.355895 1.294975
v 7.221844 3.440171 -0.387284
v 7.582941 1.545157 0.868270
v 6.573846 2.290995 -0.044613
v 6.398187 3.270447 2.973953
v 7.155590 3.127264 1.212217
v 6.788278 1.420132 3.137147
v 7.114707 1.924978 2.177284
v 5.374735 3.270480 4.448452
v 6.539524 2.805398 2.926598
v 5.681182 1.422976 4.718219
v 6.196172 1.883658 3.872769
vn 0.5264 -0.6174 0.5845
vn 0.9277 -0.1544 0.3400
vn 0.9179 -0.1762 0.3555
vn 0.3794 -0.5893 0.7133
vn 0.8043 -0.1319 0.5794
vn 0.7900 -0.1564 0.5929
vn 0.1832 -0.5931 0.7840
vn 0.6312 -0.1349 0.7638
vn 0.6149 -0.1584 0.7725
vn -0.0342 -0.6582 0.7521
vn 0.4582 -0.1892 0.8685
vn 0.4467 -0.2038 0.8712
vn -0.2325 -0.5727 0.7861
vn 0.1550 -0.1218 0.9804
vn 0.1355 -0.1477 0.9797
vn -0.4305 -0.5675 0.7019
vn -0.1091 -0.1174 0.9871
vn -0.1276 -0.1427 0.9815
vn -0.5641 -0.6269 0.5374
vn -0.3034 -0.1592 0.9395
vn -0.3167 -0.1791 0.9315
vn -0.6977 -0.6009 -0.3901
vn -0.9912 -0.1196 -0.0564
vn -0.9821 -0.1661 -0.0888
vn -0.7632 0.2253 -0.6056
vn -0.7647 0.2261 -0.6034
vn -0.7529 0.2128 -0.6228
vn -0.8223 0.2360 -0.5179
vn -0.8226 0.2357 -0.5174
vn -0.7259 0.2355 -0.6463
vn -0.2665 0.0556 -0.9622
vn -0.2931 0.0953 -0.9513
vn -0.3793 0.2312 -0.8959
vn 0.2511 0.2358 -0.9388
vn 0.2506 0.2359 -0.9389
vn 0.7230 -0.6108 -0.3227
vn 0.6099 -0.1467 -0.7787
vn 0.6337 -0.1931 -0.7491
vn 0.9480 0.3182 -0.0066
vn 0.9103 0.3204 0.2622
vn 0.8150 0.3216 0.4820
vn 0.7207 0.3210 0.6144
vn 0.4488 0.3193 0.8346
vn 0.2103 0.3208 0.9235
vn 0.0460 0.3260 0.9442
vn -0.9905 -0.0695 0.1190
vn -0.9906 -0.0678 0.1192
vn -0.9913 -0.0702 0.1117
vn -0.9096 0.2443 0.3361
vn -0.9079 0.2456 0.3397
vn -0.9272 0.2220 0.3016
vn -0.8899 0.2662 0.3704
vn -0.6849 0.3122 0.6584
vn -0.6856 0.3129 0.6573
vn 0.0460 0.1229 -0.9914
vn -0.9092 0.3355 0.2465
vn -0.7735 0.2378 -0.5875
vn -0.8081 0.2326 0.5412
vn -0.8089 0.2327 0.5399
vn -0.1544 -0.1041 -0.9825
vn 0.1220 -0.0222 -0.9923
vn 0.1223 -0.0221 -0.9923
vn 0.1222 -0.0232 -0.9922
vn 0.6577 0.0452 -0.7519
vn 0.6581 0.0454 -0.7515
vn 0.6583 0.0437 -0.7515
vn 0.8892 0.2446 0.3866
vn 0.8889 0.2449 0.3872
vn 0.8891 0.2431 0.3878
vn 0.3021 0.3014 -0.9044
vn 0.5822 0.2841 -0.7618
vn 0.5803 0.2845 -0.7631
vn 0.9507 -0.0503 -0.3059
vn 0.8750 -0.4804 0.0595
vn 0.9519 -0.0602 -0.3003
vn 0.7572 0.3475 -0.5531
vn 0.7906 0.2342 0.5657
vn 0.7922 0.2368 0.5625
vn 0.7775 0.2152 0.5909
vn 0.8040 0.2529 0.5381
vt 0.291764 0.008677
vt 0.288588 0.195334
vt 0.365543 0.045028
vt 0.291764 0.008654
vt 0.288588 0.195334
vt 0.365512 0.046845
vt 0.291764 0.008666
vt 0.365518 0.046491
vt 0.291760 0.008874
vt 0.365656 0.038365
vt 0.291764 0.008641
vt 0.288588 0.195334
vt 0.365494 0.047896
vt 0.291764 0.008628
vt 0.365490 0.048131
vt 0.291763 0.008705
vt 0.288588 0.195334
vt 0.365568 0.043518
vt 0.291758 0.008982
vt 0.288588 0.195334
vt 0.365498 0.047649
vt 0.401746 0.103832
vt 0.288588 0.195329
vt 0.437340 0.197864
vt 0.346213 0.042358
vt 0.288588 0.195323
vt 0.437737 0.174498
vt 0.348371 0.042641
vt 0.288588 0.195308
vt 0.437737 0.174502
vt 0.365360 0.055778
vt 0.288588 0.195337
vt 0.437738 0.174474
vt 0.346299 0.042360
vt 0.288588 0.195324
vt 0.437738 0.174496
vt 0.291757 0.009062
vt 0.365509 0.047002
vt 0.438134 0.151176
vt 0.438134 0.151172
vt 0.438134 0.151177
vt 0.438134 0.151195
vt 0.438134 0.151171
vt 0.438134 0.151173
vt 0.438134 0.151179
vt 0.437738 0.174492
vt 0.365483 0.048538
vt 0.291761 0.008808
vt 0.401732 0.103831
vt 0.288588 0.195325
vt 0.437340 0.197864
vt 0.328955 0.009166
vt 0.438134 0.151164
vt 0.352363 0.040572
vt 0.288589 0.195296
vt 0.437738 0.174492
vt 0.365355 0.056072
vt 0.291766 0.008529
vt 0.438133 0.151227
vt 0.328954 0.009166
vt 0.437340 0.197864
vt 0.401753 0.103832
vt 0.310369 0.008861
vt 0.291766 0.008533
vt 0.437738 0.174497
vt 0.365399 0.053483
vt 0.291766 0.008553
vt 0.437738 0.174493
vt 0.365372 0.055035
vt 0.291766 0.008541
vt 0.401750 0.103832
vt 0.310379 0.008911
vt 0.438134 0.151218
vt 0.352222 0.041813
vt 0.288590 0.195206
vt 0.438135 0.151157
vt 0.365481 0.048647
vt 0.291764 0.008628
vt 0.438134 0.151171
vt 0.401730 0.103831
vt 0.288588 0.195332
vt 0.328957 0.009166
s 1
f 2/1/1 1/2/2 4/3/3
f 6/4/4 5/5/5 8/6/6
f 10/7/7 9/2/8 12/8/9
f 14/9/10 13/2/11 16/10/12
f 18/11/13 17/12/14 20/13/15
f 22/14/16 21/2/17 24/15/18
f 26/16/19 25/17/20 28/18/21
f 45/19/22 44/20/23 47/21/24
f 51/22/25 48/23/26 50/24/27
f 53/25/28 52/26/29 54/27/29
f 56/28/30 55/29/30 57/30/30
f 61/31/31 58/32/32 60/33/33
f 71/34/34 70/35/35 72/36/35
f 78/37/36 77/2/37 80/38/38
f 4/3/3 1/2/2 3/39/39
f 8/6/6 5/5/5 7/40/40
f 12/8/9 9/2/8 11/41/41
f 16/10/12 13/2/11 15/42/42
f 20/13/15 17/12/14 19/43/43
f 24/15/18 21/2/17 23/44/44
f 28/18/21 25/17/20 27/45/45
f 40/2/46 42/46/46 43/47/47 41/48/48
f 36/49/49 33/50/50 35/51/51
f 34/52/52 33/50/50 36/49/49
f 39/53/53 38/54/54 37/55/53
f 62/2/55 64/56/55 65/57/55 63/58/55
f 47/21/24 44/20/23 46/59/56
f 49/60/57 48/23/26 51/22/25
f 29/2/58 31/61/58 32/62/58 30/63/59
f 59/64/60 58/32/32 61/31/31
f 66/2/61 68/65/61 69/66/62 67/67/63
f 73/2/64 75/68/64 76/69/65 74/70/66
f 88/2/67 90/61/67 91/71/68 89/72/69
f 80/38/38 77/2/37 79/73/70
f 82/74/71 81/75/72 83/76/72
f 87/77/73 85/78/74 84/2/75
f 86/79/76 87/77/73 84/2/75
f 95/80/77 92/81/78 94/51/79
f 93/82/80 92/81/78 95/80/77
