# Blender 4.5.3 LTS
# www.blender.org
o Terreno.004
v -722.579773 -11.311676 -577.083984
v -722.579773 -35.546829 -469.549683
v -258.906342 -51.462246 -447.074036
v -276.943817 -18.679911 -577.083984
v -722.579712 -54.547367 -198.496368
v -722.579712 -61.155090 -91.817970
v -272.576996 -52.967278 -53.919842
v -100.180099 -50.807278 -470.341156
v -83.490776 -19.140379 -647.600403
v -722.579773 -47.548820 -334.023041
v -365.118530 -48.525574 -368.618073
v -391.055786 -0.320959 -577.083984
v -399.440033 -51.023121 -123.778465
v -443.561676 -58.990063 -217.234741
v -437.229767 -55.385872 -315.702789
v -607.046997 -44.617344 -435.877197
v -610.943665 -16.826597 -577.083984
v -612.368286 -57.516796 -117.299049
v -628.786255 -56.032482 -207.820923
v -634.073120 -46.729908 -329.053070
v -218.669373 -196.369827 -358.333221
v -56.286591 -196.411285 -427.820618
v -44.227787 -196.411285 -583.415833
v -154.190506 -196.411285 -88.846306
v -260.653168 -177.428467 -294.510956
v -303.368347 -172.827057 -177.138290
v -326.140930 -164.484467 -221.384842
v -303.720612 -164.956833 -263.337982
v -425.137360 -31.463268 -393.867554
v -444.833374 -13.510838 -577.083984
v -447.334198 -48.798065 -136.548264
v -476.154877 -55.578667 -214.865005
v -483.494141 -54.568703 -323.533600
v -313.644501 -44.933876 -77.601631
v -252.653458 -190.123001 -144.478500
v -522.520081 -31.912624 -423.158569
v -527.888550 -15.168716 -577.083984
v -529.851257 -53.042282 -126.923653
v -552.470581 -58.538937 -211.342972
v -559.754395 -49.496555 -327.175812
v -722.579773 -58.225098 -24.054646
v -392.480469 -42.358742 -49.535709
v -611.656006 -61.483856 -36.795181
v -446.083801 -47.085400 -46.419769
v -322.533875 -40.793488 -26.354811
v -528.869873 -58.181587 -41.607475
v -854.734314 -3.562248 -577.083984
v -854.734314 -27.797401 -469.549683
v -854.734253 -45.294552 -198.496368
v -854.734253 -50.941780 -91.817970
v -854.734314 -39.532681 -334.023041
v -854.734314 -47.623436 -24.054646
v -722.579712 -51.048096 -266.259705
v -449.266144 -57.187969 -268.728058
v -631.429688 -51.381195 -268.436981
v -323.352173 -164.720657 -246.039383
v -480.392822 -55.073689 -269.715973
v -556.112488 -54.017746 -269.259399
v -854.734314 -42.472763 -266.259705
v -355.694275 -47.964703 -94.491493
v -280.189606 -181.475021 -154.830032
v -357.507172 -41.576115 -37.945259
v -722.579712 -57.851231 -145.157166
v -427.943848 -55.716316 -177.706650
v -620.577271 -56.774639 -162.559982
v -318.761505 -168.655762 -197.261871
v -461.744537 -52.188366 -175.706635
v -541.160889 -55.790611 -169.133316
v -854.734253 -48.079735 -145.157166
v -372.407532 -58.131634 -145.490906
v -246.334366 -60.319939 -429.132202
v -329.153595 -58.464092 -349.051941
v -247.801544 -62.362053 -69.430435
v -74.246300 -32.765686 -630.315063
v -89.692825 -59.767754 -458.870392
v -409.909149 -62.595135 -217.354263
v -398.537659 -59.057167 -303.751526
v -295.294647 -54.659550 -99.196907
v -414.555176 -60.826153 -263.336761
v -335.923096 -56.393669 -115.906387
v -395.528290 -60.462139 -180.690964
vn 0.0450 0.9763 0.2119
vn 0.0447 0.9874 0.1515
vn 0.1303 0.9553 0.2654
vn 0.1078 0.9724 0.2070
vn 0.0399 0.9979 0.0513
vn 0.0354 0.9993 0.0136
vn 0.2719 0.9468 -0.1718
vn 0.2708 0.9149 0.2995
vn 0.2496 0.9460 0.2067
vn 0.0371 0.9972 0.0648
vn 0.1080 0.9688 0.2233
vn 0.0774 0.9792 0.1874
vn 0.0582 0.9891 -0.1353
vn 0.1005 0.9938 -0.0476
vn 0.0670 0.9844 0.1630
vn -0.0299 0.9927 0.1169
vn -0.0306 0.9834 0.1787
vn -0.0241 0.9994 0.0244
vn 0.0163 0.9991 0.0395
vn -0.0004 0.9977 0.0683
vn 0.4966 0.4696 0.7300
vn 0.6555 0.3792 0.6530
vn 0.9679 0.2305 0.1004
vn 0.4865 0.4287 -0.7613
vn 0.5968 0.5646 0.5701
vn 0.6422 0.5228 -0.5606
vn 0.7654 0.6292 -0.1349
vn 0.5487 0.6418 0.5358
vn 0.0058 0.9792 0.2028
vn -0.0165 0.9908 0.1346
vn -0.0071 0.9979 -0.0645
vn 0.0266 0.9992 -0.0295
vn 0.0257 0.9881 0.1514
vn 0.1023 0.9754 -0.1952
vn 0.4393 0.4216 -0.7933
vn -0.0501 0.9893 0.1373
vn -0.0626 0.9898 0.1283
vn -0.0568 0.9984 -0.0005
vn -0.0020 1.0000 0.0096
vn -0.0052 0.9949 0.1012
vn 0.0410 0.9989 -0.0208
vn -0.0018 0.9958 -0.0920
vn -0.0199 0.9994 0.0295
vn -0.0561 0.9982 -0.0192
vn -0.0129 0.9951 -0.0985
vn -0.0652 0.9971 0.0388
vn 0.0571 0.9739 0.2195
vn 0.0583 0.9863 0.1541
vn 0.0694 0.9962 0.0516
vn 0.0770 0.9970 0.0058
vn 0.0610 0.9959 0.0673
vn 0.0784 0.9959 -0.0459
vn 0.0350 0.9979 0.0551
vn 0.0750 0.9966 0.0330
vn 0.0204 0.9974 0.0692
vn 0.7054 0.6736 0.2204
vn 0.0361 0.9988 0.0321
vn 0.0252 0.9979 0.0596
vn 0.0649 0.9968 0.0469
vn 0.0455 0.9810 -0.1887
vn 0.4628 0.4475 -0.7652
vn -0.0038 0.9945 -0.1046
vn 0.0344 0.9982 0.0493
vn 0.1068 0.9860 -0.1279
vn -0.0078 0.9999 0.0106
vn 0.7248 0.5783 -0.3745
vn 0.0203 0.9956 -0.0911
vn -0.0323 0.9987 -0.0396
vn 0.0735 0.9957 0.0572
vn 0.3697 0.8541 -0.3657
vn 0.2905 0.7913 0.5380
vn 0.3828 0.8282 0.4093
vn 0.4308 0.7117 -0.5549
vn 0.7427 0.6479 0.1694
vn 0.5545 0.6272 0.5469
vn 0.4180 0.9040 -0.0901
vn 0.2878 0.9073 0.3066
vn 0.3196 0.7680 -0.5550
vn 0.3597 0.9246 0.1250
vn 0.2868 0.8072 -0.5160
vn 0.4107 0.8767 -0.2505
vt 0.258585 0.045021
vt 0.484457 1.282626
vt -0.525277 1.677737
vt -0.518688 0.099898
vt 0.444116 2.951291
vt -0.536835 2.960735
vt 4.926101 1.695221
vt 5.136483 3.712945
vt 3.418062 2.944501
vt 3.593904 1.385548
vt 0.443714 -3.368480
vt 0.447244 -2.429574
vt -0.522454 -2.721235
vt -0.532001 -3.508283
vt 0.377933 -1.901389
vt 0.307319 -1.372935
vt -0.518606 -1.478861
vt -0.520087 -2.100689
vt -0.084778 0.953290
vt -0.237698 0.953291
vt -0.237698 0.363507
vt -0.084778 0.363507
vt 1.060923 0.953290
vt 0.821611 0.953290
vt 0.821611 0.363507
vt 1.060923 0.363507
vt 1.807425 0.953290
vt 1.408618 0.953290
vt 1.408618 0.363506
vt 1.807424 0.363507
vt 0.283862 -0.663492
vt -0.517770 -0.689123
vt 2.690578 -3.374516
vt 2.712771 -2.711858
vt 2.328858 -2.364501
vt 2.385782 -3.237492
vt 2.400450 2.993694
vt 2.636135 0.508535
vt 0.948501 -0.655760
vt 0.915769 0.025220
vt 1.078475 -1.828363
vt 0.980188 -1.334648
vt 1.171842 -3.318559
vt 1.176903 -2.322583
vt 1.241601 1.164646
vt 1.173126 2.957129
vt 0.445442 0.953290
vt 0.308082 0.953290
vt 0.308082 0.363507
vt 0.445442 0.363507
vt 0.199594 0.953290
vt 0.085873 0.953290
vt 0.085873 0.363507
vt 0.199594 0.363507
vt 0.579374 0.953290
vt 0.579374 0.363507
vt 1.999221 -0.113462
vt 2.094969 0.843912
vt 1.590439 -0.024349
vt 1.899929 2.968292
vt 1.905893 -2.215778
vt 1.911950 -3.264491
vt 2.081732 -1.730440
vt 1.947482 -1.265927
vt 1.655913 -1.295424
vt 1.780672 -1.757010
vt 1.893561 -0.663995
vt 1.618033 -0.652297
vt -0.005314 0.953290
vt -0.005314 0.363507
vt -1.687328 -2.711007
vt -1.698564 -3.498943
vt -1.682328 0.106050
vt -1.683122 -0.682256
vt -1.684644 -1.470182
vt -1.685855 -2.090603
vt -1.685428 1.687464
vt -1.698564 2.972693
vt 2.995173 -3.512557
vt 3.079487 -2.917098
vt 2.372528 -1.690307
vt 2.247360 -1.262770
vt 2.893836 -2.445351
vt 2.573692 -2.101380
vt 2.202563 -0.727819
vt 2.341616 -0.256839
vt 3.248652 -2.642460
vt 2.959212 0.258868
vt 3.717225 1.156853
vt 5.037876 1.536943
vt 5.274491 3.475559
vt 0.780379 0.059667
vt 0.820178 0.035784
vt 0.842853 0.056393
vt 0.797295 0.087131
s 1
g Terreno.004_Cesped
f 20/1/20 16/2/16 2/3/2 10/4/10
f 16/2/16 17/5/17 1/6/1 2/3/2
f 8/7/8 9/8/9 4/9/4 3/10/3
f 43/11/43 18/12/18 6/13/6 41/14/41
f 65/15/65 19/16/19 5/17/5 63/18/63
g Terreno.004_cesped-tierra
f 78/19/78 73/20/73 24/21/24 35/22/35
f 71/23/71 72/24/72 25/25/25 21/26/21
f 74/27/74 75/28/75 22/29/22 23/30/23
g Terreno.004_Cesped
f 55/31/55 20/1/20 10/4/10 53/32/53
f 62/33/62 60/34/60 13/35/13 42/36/42
f 3/10/3 4/9/4 12/37/12 11/38/11
f 58/39/58 40/40/40 20/1/20 55/31/55
f 68/41/68 39/42/39 19/16/19 65/15/65
f 46/43/46 38/44/38 18/12/18 43/11/43
f 36/45/36 37/46/37 17/5/17 16/2/16
f 40/40/40 36/45/36 16/2/16 20/1/20
g Terreno.004_cesped-tierra
f 75/28/75 71/23/71 21/26/21 22/29/22
f 79/47/79 76/48/76 27/49/27 56/50/56
f 81/51/81 70/52/70 26/53/26 66/54/66
f 72/24/72 77/55/77 28/56/28 25/25/25
g Terreno.004_Cesped
f 15/57/15 11/38/11 29/58/29 33/59/33
f 11/38/11 12/37/12 30/60/30 29/58/29
f 42/36/42 13/35/13 31/61/31 44/62/44
f 64/63/64 14/64/14 32/65/32 67/66/67
f 54/67/54 15/57/15 33/59/33 57/68/57
g Terreno.004_cesped-tierra
f 80/69/80 78/19/78 35/22/35 61/70/61
g Terreno.004_Cesped
f 33/59/33 29/58/29 36/45/36 40/40/40
f 29/58/29 30/60/30 37/46/37 36/45/36
f 44/62/44 31/61/31 38/44/38 46/43/46
f 67/66/67 32/65/32 39/42/39 68/41/68
f 57/68/57 33/59/33 40/40/40 58/39/58
f 41/14/41 6/13/6 50/71/50 52/72/52
f 53/32/53 10/4/10 51/73/51 59/74/59
f 63/18/63 5/17/5 49/75/49 69/76/69
f 10/4/10 2/3/2 48/77/48 51/73/51
f 2/3/2 1/6/1 47/78/47 48/77/48
f 5/17/5 53/32/53 59/74/59 49/75/49
f 32/65/32 57/68/57 58/39/58 39/42/39
f 14/64/14 54/67/54 57/68/57 32/65/32
g Terreno.004_cesped-tierra
f 77/55/77 79/47/79 56/50/56 28/56/28
g Terreno.004_Cesped
f 39/42/39 58/39/58 55/31/55 19/16/19
f 19/16/19 55/31/55 53/32/53 5/17/5
g Terreno.004_cesped-tierra
f 70/52/70 80/69/80 61/70/61 26/53/26
g Terreno.004_Cesped
f 45/79/45 34/80/34 60/34/60 62/33/62
f 6/13/6 63/18/63 69/76/69 50/71/50
f 31/61/31 67/66/67 68/41/68 38/44/38
f 13/35/13 64/63/64 67/66/67 31/61/31
g Terreno.004_cesped-tierra
f 76/48/76 81/51/81 66/54/66 27/49/27
g Terreno.004_Cesped
f 38/44/38 68/41/68 65/15/65 18/12/18
f 18/12/18 65/15/65 63/18/63 6/13/6
f 14/64/14 64/63/64 81/81/81 76/82/76
f 13/35/13 60/34/60 80/83/80 70/84/70
f 15/57/15 54/67/54 79/85/79 77/86/77
f 60/34/60 34/80/34 78/87/78 80/83/80
f 11/38/11 15/57/15 77/86/77 72/88/72
f 64/63/64 13/35/13 70/84/70 81/81/81
f 54/67/54 14/64/14 76/82/76 79/85/79
f 8/7/8 3/10/3 71/89/71 75/90/75
f 9/8/9 8/7/8 75/90/75 74/91/74
f 3/10/3 11/38/11 72/88/72 71/89/71
f 34/92/34 7/93/7 73/94/73 78/95/78
