# Blender 4.5.3 LTS
# www.blender.org
g Circuito_pueblo_collider.006_Circuito.016
v -755.682251 -39.160828 -275.886353
v -717.750916 -45.086739 -278.353973
v -753.237488 -41.444016 -242.758423
v -715.738953 -47.331924 -246.176605
v -749.089966 -44.398773 -195.455231
v -711.155640 -50.525814 -200.259521
v -743.898926 -47.020832 -154.019440
v -705.824707 -53.419022 -160.240479
v -738.575989 -49.391930 -120.785233
v -700.529846 -55.947697 -128.711365
v -733.044556 -51.625359 -96.294762
v -696.637085 -57.874889 -110.033104
v -718.178589 -54.886635 -68.620010
v -688.165527 -59.469704 -93.173355
v -693.676880 -56.596844 -47.939835
v -673.282776 -60.011341 -81.116264
v -663.712830 -56.928448 -34.131050
v -650.926392 -59.771816 -71.456917
v -630.104614 -56.364708 -26.002737
v -622.396973 -58.748188 -64.402107
v -594.682861 -55.109802 -20.716814
v -589.801086 -57.057106 -59.597176
v -558.853027 -53.412971 -17.114513
v -555.187012 -54.874477 -56.226242
v -524.291809 -51.496128 -14.090142
v -520.409546 -52.389866 -53.272820
v -492.907440 -49.581894 -10.516869
v -487.104706 -49.786777 -49.600098
v -466.921173 -47.917660 -5.675331
v -456.828552 -47.225521 -45.769341
v -452.496735 -46.785465 -3.028036
v -437.133942 -45.243725 -42.721668
v -681.745300 -59.740524 -86.123672
v -707.019836 -55.730579 -57.183273
v -693.805359 -58.672295 -101.347954
v -727.019226 -53.256866 -82.166290
v -420.716003 -43.965664 -38.596592
v -446.379211 -46.675770 -1.000003
v -758.197815 -33.715675 -299.842346
v -718.411560 -39.875351 -301.514771
v -755.395874 -37.484344 -242.520905
v -715.738953 -43.781425 -246.176605
v -750.634216 -40.527725 -195.203888
v -711.155640 -46.975315 -200.259521
v -745.080811 -43.271729 -153.826324
v -705.824707 -49.868519 -160.240479
v -739.452393 -45.690407 -120.602646
v -700.529846 -52.397194 -128.711365
v -733.883240 -47.930885 -95.978264
v -696.637085 -54.324390 -110.033104
v -719.157043 -51.186714 -67.819511
v -688.165527 -55.919205 -93.173355
v -694.316956 -52.939175 -46.898525
v -673.282776 -56.460842 -81.116264
v -663.959290 -53.323151 -33.411705
v -650.926392 -56.221317 -71.456917
v -630.317200 -52.748474 -24.943731
v -622.396973 -55.197689 -64.402107
v -594.817993 -51.505409 -19.640713
v -589.801086 -53.506607 -59.597176
v -558.947205 -49.824940 -16.110067
v -555.187012 -51.323978 -56.226242
v -523.732605 -47.924408 -14.983543
v -520.409546 -48.839367 -53.272820
v -492.374664 -46.027210 -10.532170
v -487.104706 -46.236279 -49.600098
v -467.107361 -44.379932 -4.935738
v -456.828552 -43.675022 -45.769341
v -452.847565 -43.270172 -2.121592
v -437.133942 -41.693226 -42.721668
v -681.745300 -56.190022 -86.123672
v -707.758118 -52.062946 -56.337875
v -693.805359 -55.121796 -101.347954
v -727.924255 -49.558804 -81.643616
v -420.716003 -40.415165 -38.596592
v -446.869354 -43.177032 -0.281980
vn -0.7815 -0.0000 0.6239
vn -0.6292 -0.0000 0.7772
vn -0.6333 -0.0000 0.7739
vn -0.7844 -0.0000 0.6202
vn 0.6241 0.3067 -0.7187
vn 0.7556 0.3037 -0.5804
vn 0.7613 0.3032 -0.5732
vn 0.6288 0.3068 -0.7145
vn -0.9655 -0.0000 0.2606
vn -0.8928 -0.0000 0.4505
vn -0.8996 -0.0000 0.4366
vn -0.9671 -0.0000 0.2542
vn 0.8610 0.2767 -0.4267
vn 0.9291 0.2446 -0.2774
vn 0.9318 0.2436 -0.2692
vn 0.8657 0.2742 -0.4187
vn -0.1960 -0.0000 0.9806
vn -0.2437 -0.0000 0.9699
vn -0.2011 -0.0000 0.9796
vn 0.2912 0.2488 -0.9237
vn 0.2275 0.2429 -0.9430
vn 0.2285 0.2430 -0.9427
vn -0.9950 0.0808 0.0589
vn -0.9960 0.0387 0.0801
vn -0.9960 0.0422 0.0783
vn 0.9111 0.4098 -0.0430
vn 0.9210 0.3885 -0.0274
vn 0.9117 0.4087 -0.0421
vn -0.9932 -0.0000 0.1164
vn -0.9934 -0.0000 0.1150
vn 0.9197 0.3845 -0.0790
vn 0.9189 0.3868 -0.0780
vn -0.9887 -0.0000 0.1497
vn -0.9890 -0.0000 0.1480
vn 0.9451 0.3042 -0.1192
vn 0.9444 0.3069 -0.1178
vn -0.9826 -0.0000 0.1859
vn -0.9830 -0.0000 0.1838
vn 0.9533 0.2514 -0.1672
vn 0.9533 0.2531 -0.1645
vn -0.4535 -0.0000 0.8912
vn -0.4542 -0.0000 0.8909
vn 0.4796 0.2836 -0.8304
vn 0.4838 0.2847 -0.8276
vn -0.3206 -0.0000 0.9472
vn -0.3183 -0.0000 0.9480
vn 0.3159 0.2552 -0.9138
vn 0.3155 0.2552 -0.9140
vn -0.1945 -0.0000 0.9809
vn -0.1919 -0.0000 0.9814
vn 0.1809 0.2668 -0.9466
vn 0.1794 0.2674 -0.9467
vn -0.1223 -0.0000 0.9925
vn -0.1205 -0.0000 0.9927
vn 0.1074 0.2833 -0.9530
vn 0.1062 0.2831 -0.9532
vn -0.0910 -0.0000 0.9958
vn -0.0905 -0.0000 0.9959
vn 0.0714 0.1511 -0.9859
vn 0.0707 0.1434 -0.9871
vn -0.0965 -0.0000 0.9953
vn -0.0977 -0.0000 0.9952
vn 0.0925 -0.0581 -0.9940
vn 0.1013 -0.0765 -0.9919
vn -0.1172 -0.0000 0.9931
vn -0.1180 -0.0000 0.9930
vn 0.1609 -0.0436 -0.9860
vn 0.1688 -0.0122 -0.9856
vn -0.1384 -0.0000 0.9904
vn -0.1400 -0.0000 0.9901
vn 0.1795 0.1611 -0.9705
vn 0.1785 0.1664 -0.9698
vt 4.328321 0.122039
vt 4.299628 0.121966
vt 4.299563 0.014265
vt 4.328262 0.014321
vt 4.299681 0.211356
vt 4.328371 0.211441
vt 4.328422 0.319201
vt 4.299737 0.319099
vt 4.385410 0.122183
vt 4.357773 0.122113
vt 4.357718 0.014380
vt 4.385362 0.014435
vt 4.357818 0.211529
vt 4.385451 0.211612
vt 4.385493 0.319402
vt 4.357863 0.319305
vt 3.724049 0.120509
vt 3.697945 0.120443
vt 3.697770 0.013074
vt 3.723879 0.013126
vt 3.698090 0.209557
vt 3.724191 0.209635
vt 3.724341 0.317064
vt 3.698245 0.316971
vt 4.805964 0.123249
vt 4.705993 0.122996
vt 4.705998 0.015072
vt 4.805986 0.015270
vt 4.705987 0.212570
vt 4.805943 0.212869
vt 4.805915 0.320889
vt 4.705976 0.320536
vt 4.600945 0.122730
vt 4.600933 0.014863
vt 4.600955 0.212256
vt 4.600961 0.320165
vt 4.508827 0.122496
vt 4.508800 0.014680
vt 4.508850 0.211981
vt 4.508872 0.319839
vt 4.435156 0.122309
vt 4.435115 0.014533
vt 4.435189 0.211760
vt 4.435224 0.319578
vt 4.270321 0.121892
vt 4.270251 0.014206
vt 4.270379 0.211268
vt 4.270440 0.318996
vt 4.206017 0.121729
vt 4.205935 0.014079
vt 4.206084 0.211076
vt 4.206155 0.318768
vt 4.134345 0.121548
vt 4.134250 0.013937
vt 4.134424 0.210862
vt 4.134506 0.318515
vt 4.057278 0.121353
vt 4.057169 0.013785
vt 4.057368 0.210631
vt 4.057464 0.318242
vt 3.977921 0.121152
vt 3.977798 0.013628
vt 3.978024 0.210394
vt 3.978132 0.317962
vt 3.899580 0.120954
vt 3.899442 0.013473
vt 3.899694 0.210160
vt 3.899816 0.317685
vt 3.826581 0.120769
vt 3.826429 0.013329
vt 3.826707 0.209941
vt 3.826840 0.317426
vt 3.762848 0.120607
vt 3.762685 0.013203
vt 3.762983 0.209751
vt 3.763127 0.317201
s 1
f 14/1/1 33/2/2 71/3/3 52/4/4
f 34/5/5 13/6/6 51/7/7 72/8/8
f 12/9/9 35/10/10 73/11/11 50/12/12
f 36/13/13 11/14/14 49/15/15 74/16/16
f 32/17/17 37/18/18 75/19/18 70/20/19
f 38/21/20 31/22/21 69/23/22 76/24/20
f 2/25/23 4/26/24 42/27/25 40/28/23
f 3/29/26 1/30/27 39/31/27 41/32/28
f 4/26/24 6/33/29 44/34/30 42/27/25
f 5/35/31 3/29/26 41/32/28 43/36/32
f 6/33/29 8/37/33 46/38/34 44/34/30
f 7/39/35 5/35/31 43/36/32 45/40/36
f 8/37/33 10/41/37 48/42/38 46/38/34
f 9/43/39 7/39/35 45/40/36 47/44/40
f 10/41/37 12/9/9 50/12/12 48/42/38
f 11/14/14 9/43/39 47/44/40 49/15/15
f 35/10/10 14/1/1 52/4/4 73/11/11
f 13/6/6 36/13/13 74/16/16 51/7/7
f 33/2/2 16/45/41 54/46/42 71/3/3
f 15/47/43 34/5/5 72/8/8 53/48/44
f 16/45/41 18/49/45 56/50/46 54/46/42
f 17/51/47 15/47/43 53/48/44 55/52/48
f 18/49/45 20/53/49 58/54/50 56/50/46
f 19/55/51 17/51/47 55/52/48 57/56/52
f 20/53/49 22/57/53 60/58/54 58/54/50
f 21/59/55 19/55/51 57/56/52 59/60/56
f 22/57/53 24/61/57 62/62/58 60/58/54
f 23/63/59 21/59/55 59/60/56 61/64/60
f 24/61/57 26/65/61 64/66/62 62/62/58
f 25/67/63 23/63/59 61/64/60 63/68/64
f 26/65/61 28/69/65 66/70/66 64/66/62
f 27/71/67 25/67/63 63/68/64 65/72/68
f 28/69/65 30/73/69 68/74/70 66/70/66
f 29/75/71 27/71/67 65/72/68 67/76/72
f 30/73/69 32/17/17 70/20/19 68/74/70
f 31/22/21 29/75/71 67/76/72 69/23/22
g Circuito_pueblo_collider.012_Circuito.024
v -755.682251 -39.160828 -275.886353
v -717.750916 -45.086739 -278.353973
v -753.237488 -41.444016 -242.758423
v -715.738953 -47.331924 -246.176605
v -749.089966 -44.398773 -195.455231
v -711.155640 -50.525814 -200.259521
v -743.898926 -47.020832 -154.019440
v -705.824707 -53.419022 -160.240479
v -738.575989 -49.391930 -120.785233
v -700.529846 -55.947697 -128.711365
v -733.044556 -51.625359 -96.294762
v -696.637085 -57.874889 -110.033104
v -718.178589 -54.886635 -68.620010
v -688.165527 -59.469704 -93.173355
v -693.676880 -56.596844 -47.939835
v -673.282776 -60.011341 -81.116264
v -663.712830 -56.928448 -34.131050
v -650.926392 -59.771816 -71.456917
v -630.104614 -56.364708 -26.002737
v -622.396973 -58.748188 -64.402107
v -594.682861 -55.109802 -20.716814
v -589.801086 -57.057106 -59.597176
v -558.853027 -53.412971 -17.114513
v -555.187012 -54.874477 -56.226242
v -524.291809 -51.496128 -14.090142
v -520.409546 -52.389866 -53.272820
v -492.907440 -49.581894 -10.516869
v -487.104706 -49.786777 -49.600098
v -466.921173 -47.917660 -5.675331
v -456.828552 -47.225521 -45.769341
v -452.496735 -46.785465 -3.028036
v -437.133942 -45.243725 -42.721668
v -681.745300 -59.740524 -86.123672
v -707.019836 -55.730579 -57.183273
v -693.805359 -58.672295 -101.347954
v -727.019226 -53.256866 -82.166290
v -420.716003 -43.965664 -38.596592
v -446.379211 -46.675770 -1.000003
vn 0.1589 0.9856 0.0575
vn 0.1606 0.9856 0.0536
vn 0.1656 0.9851 0.0473
vn 0.1723 0.9840 0.0452
vn 0.1802 0.9824 0.0499
vn 0.1827 0.9822 0.0441
vn 0.1829 0.9821 0.0449
vn 0.1704 0.9852 0.0198
vn 0.1699 0.9853 0.0192
vn 0.1349 0.9907 -0.0205
vn 0.1350 0.9906 -0.0204
vn 0.0988 0.9939 -0.0500
vn 0.0992 0.9938 -0.0498
vn 0.0615 0.9961 -0.0633
vn 0.0596 0.9962 -0.0639
vn 0.0130 0.9973 -0.0717
vn -0.0211 0.9976 -0.0663
vn -0.0421 0.9976 -0.0553
vn -0.0552 0.9976 -0.0424
vn -0.0552 0.9976 -0.0425
vn -0.0637 0.9975 -0.0291
vn -0.0704 0.9974 -0.0155
vn -0.0704 0.9974 -0.0153
vn -0.0818 0.9966 -0.0050
vn -0.0827 0.9966 -0.0046
vn -0.0796 0.9968 0.0084
vn -0.0774 0.9969 0.0104
vn -0.0667 0.9976 0.0195
vt 4.805964 0.123249
vt 4.805943 0.212869
vt 4.705987 0.212570
vt 4.705993 0.122996
vt 4.600955 0.212256
vt 4.600945 0.122730
vt 4.508850 0.211981
vt 4.508827 0.122496
vt 4.435189 0.211760
vt 4.435156 0.122309
vt 4.385451 0.211612
vt 4.385410 0.122183
vt 4.357773 0.122113
vt 4.357818 0.211529
vt 4.328371 0.211441
vt 4.328321 0.122039
vt 4.299628 0.121966
vt 4.299681 0.211356
vt 4.270379 0.211268
vt 4.270321 0.121892
vt 4.206084 0.211076
vt 4.206017 0.121729
vt 4.134424 0.210862
vt 4.134345 0.121548
vt 4.057368 0.210631
vt 4.057278 0.121353
vt 3.978024 0.210394
vt 3.977921 0.121152
vt 3.899694 0.210160
vt 3.899580 0.120954
vt 3.826707 0.209941
vt 3.826581 0.120769
vt 3.762983 0.209751
vt 3.762848 0.120607
vt 3.724191 0.209635
vt 3.724049 0.120509
vt 3.698090 0.209557
vt 3.697945 0.120443
s 1
f 78/77/73 77/78/73 79/79/74 80/80/74
f 80/80/74 79/79/74 81/81/75 82/82/75
f 82/82/75 81/81/75 83/83/76 84/84/76
f 84/84/76 83/83/76 85/85/77 86/86/77
f 86/86/77 85/85/77 87/87/78 88/88/79
f 111/89/80 112/90/81 89/91/82 90/92/83
f 109/93/84 110/94/85 91/95/86 92/96/87
f 92/96/87 91/95/86 93/97/88 94/98/88
f 94/98/88 93/97/88 95/99/89 96/100/89
f 96/100/89 95/99/89 97/101/90 98/102/90
f 98/102/90 97/101/90 99/103/91 100/104/92
f 100/104/92 99/103/91 101/105/93 102/106/93
f 102/106/93 101/105/93 103/107/94 104/108/95
f 104/108/95 103/107/94 105/109/96 106/110/97
f 106/110/97 105/109/96 107/111/98 108/112/99
f 90/92/83 89/91/82 110/94/85 109/93/84
f 88/88/79 87/87/78 112/90/81 111/89/80
f 108/112/99 107/111/98 114/113/100 113/114/100
