# Blender 4.5.3 LTS
# www.blender.org
g Circuito_pueblo_collider.004_Circuito.012
v -112.634232 135.686722 -573.721375
v -112.634232 135.823074 -533.443909
v -136.419083 129.029556 -574.350464
v -136.944550 128.389267 -534.039124
v -173.686722 118.852379 -574.702820
v -173.492310 117.257431 -534.414917
v -220.998077 105.885597 -574.826477
v -220.309631 103.271408 -534.597290
v -275.720276 90.895149 -574.760498
v -274.622406 87.239464 -534.621643
v -335.170227 74.661819 -574.542419
v -333.706787 69.955063 -534.524963
v -396.651855 57.970066 -574.209351
v -394.851868 52.207928 -534.343933
v -457.464203 41.605865 -573.798706
v -455.351654 34.786354 -534.115845
v -514.902588 26.356102 -573.347534
v -512.503784 18.477655 -533.877747
v -566.257935 13.008920 -572.893311
v -563.610413 4.067912 -533.666565
v -608.807739 2.355692 -572.473328
v -605.987244 -7.660025 -533.519287
v -639.758423 -4.796722 -572.125427
v -637.020569 -15.938788 -533.472412
v -660.209839 -8.127375 -570.834717
v -653.247986 -19.515200 -532.788147
v -697.833862 -13.000899 -555.336121
v -677.605957 -22.446596 -521.760803
v -666.705200 -20.980898 -529.286621
v -680.300110 -10.564137 -565.097595
v -126.664223 179.730927 -574.092468
v -126.974190 179.409180 -533.794983
v -136.419083 177.000641 -574.350464
v -136.944550 176.360367 -534.039124
v -173.686722 166.823486 -574.702820
v -173.492310 165.228516 -534.414917
v -220.998077 153.856689 -574.826477
v -220.309631 151.242493 -534.597290
v -275.720276 138.866257 -574.760498
v -274.622406 135.210556 -534.621643
v -335.170227 122.632912 -574.542419
v -333.706787 117.926155 -534.524963
v -396.651855 105.941154 -574.209351
v -394.851868 100.179024 -534.343933
v -457.464203 89.576950 -573.798706
v -455.351654 82.757446 -534.115845
v -514.902588 74.327194 -573.347534
v -512.503784 66.448753 -533.877747
v -566.257935 60.980015 -572.893311
v -563.610413 52.039001 -533.666565
v -608.807739 50.326786 -572.473328
v -605.987244 40.311066 -533.519287
v -639.758423 43.174370 -572.125427
v -637.020569 32.032299 -533.472412
v -660.209839 39.843719 -570.834717
v -653.247986 28.455894 -532.788147
v -697.833862 34.970192 -555.336121
v -677.605957 25.524498 -521.760803
v -666.705200 26.990196 -529.286621
v -680.300110 37.406960 -565.097595
vn -0.1590 -0.0000 -0.9873
vn -0.4273 -0.0000 -0.9041
vn -0.4053 -0.0000 -0.9142
vn -0.1374 -0.0000 -0.9905
vn 0.3910 -0.0000 0.9204
vn 0.1793 -0.0000 0.9838
vn 0.1605 -0.0000 0.9870
vn 0.3750 -0.0000 0.9270
vn 0.0245 -0.0000 -0.9997
vn 0.0160 -0.0000 -0.9999
vn 0.0187 -0.0000 -0.9998
vn -0.0165 -0.0000 0.9999
vn -0.0264 -0.0000 0.9997
vn -0.0194 -0.0000 0.9998
vn 0.0065 -0.0000 -1.0000
vn 0.0077 -0.0000 -1.0000
vn -0.0055 -0.0000 1.0000
vn -0.0066 -0.0000 1.0000
vn 0.0019 -0.0000 -1.0000
vn 0.0025 -0.0000 -1.0000
vn -0.0004 -0.0000 1.0000
vn -0.0010 -0.0000 1.0000
vn -0.0008 -0.0000 -1.0000
vn -0.0004 -0.0000 -1.0000
vn 0.0026 -0.0000 1.0000
vn 0.0022 -0.0000 1.0000
vn -0.0024 -0.0000 -1.0000
vn -0.0022 -0.0000 -1.0000
vn 0.0047 -0.0000 1.0000
vn 0.0044 -0.0000 1.0000
vn -0.0034 -0.0000 -1.0000
vn -0.0033 -0.0000 -1.0000
vn 0.0062 -0.0000 1.0000
vn 0.0060 -0.0000 1.0000
vn -0.0040 -0.0000 -1.0000
vn -0.0039 -0.0000 -1.0000
vn 0.0074 -0.0000 1.0000
vn 0.0072 -0.0000 1.0000
vn -0.0041 -0.0000 -1.0000
vn -0.0042 -0.0000 -1.0000
vn 0.0084 -0.0000 1.0000
vn 0.0083 -0.0000 1.0000
vn -0.0037 -0.0000 -1.0000
vn 0.0094 -0.0000 1.0000
vn 0.0093 -0.0000 1.0000
vn -0.0023 -0.0000 -1.0000
vn -0.0027 -0.0000 -1.0000
vn 0.0107 -0.0000 0.9999
vn 0.0105 -0.0000 0.9999
vn -0.0250 -0.0000 -0.9997
vn -0.0188 -0.0000 -0.9998
vn 0.0404 -0.0000 0.9992
vn 0.0340 -0.0000 0.9994
vn -0.5681 -0.0000 -0.8229
vn 0.4864 -0.0000 0.8737
vt 5.470690 0.124934
vt 5.431504 0.124835
vt 5.431636 0.016513
vt 5.470829 0.016591
vt 5.431394 0.214738
vt 5.470575 0.214856
vt 5.470435 0.323240
vt 5.431261 0.323102
vt 6.717460 0.128094
vt 6.677902 0.127994
vt 6.678243 0.018992
vt 6.717807 0.019071
vt 6.677620 0.218462
vt 6.717173 0.218581
vt 6.716825 0.327645
vt 6.677280 0.327506
vt 6.591912 0.127776
vt 6.592237 0.018821
vt 6.591642 0.218205
vt 6.591316 0.327202
vt 6.482335 0.127498
vt 6.482642 0.018603
vt 6.482080 0.217878
vt 6.481772 0.326815
vt 6.355469 0.127177
vt 6.355756 0.018351
vt 6.355232 0.217499
vt 6.354945 0.326366
vt 6.217614 0.126827
vt 6.217877 0.018076
vt 6.217396 0.217087
vt 6.217133 0.325879
vt 6.075071 0.126466
vt 6.075311 0.017793
vt 6.074872 0.216661
vt 6.074633 0.325375
vt 5.934141 0.126109
vt 5.934358 0.017513
vt 5.933962 0.216240
vt 5.933745 0.324878
vt 5.801125 0.125771
vt 5.801318 0.017248
vt 5.800963 0.215843
vt 5.800770 0.324408
vt 5.682321 0.125470
vt 5.682495 0.017012
vt 5.682177 0.215488
vt 5.682002 0.323988
vt 5.584028 0.125221
vt 5.584186 0.016816
vt 5.583897 0.215194
vt 5.583739 0.323640
vt 5.512534 0.125040
vt 5.512680 0.016674
vt 5.512414 0.214980
vt 5.512267 0.323388
vt 5.393967 0.124739
vt 5.394093 0.016439
vt 5.393863 0.214626
vt 5.393736 0.322969
s 1
f 26/1/1 29/2/2 59/3/3 56/4/4
f 30/5/5 25/6/6 55/7/7 60/8/8
f 2/9/9 4/10/10 34/11/11 32/12/9
f 3/13/12 1/14/13 31/15/13 33/16/14
f 4/10/10 6/17/15 36/18/16 34/11/11
f 5/19/17 3/13/12 33/16/14 35/20/18
f 6/17/15 8/21/19 38/22/20 36/18/16
f 7/23/21 5/19/17 35/20/18 37/24/22
f 8/21/19 10/25/23 40/26/24 38/22/20
f 9/27/25 7/23/21 37/24/22 39/28/26
f 10/25/23 12/29/27 42/30/28 40/26/24
f 11/31/29 9/27/25 39/28/26 41/32/30
f 12/29/27 14/33/31 44/34/32 42/30/28
f 13/35/33 11/31/29 41/32/30 43/36/34
f 14/33/31 16/37/35 46/38/36 44/34/32
f 15/39/37 13/35/33 43/36/34 45/40/38
f 16/37/35 18/41/39 48/42/40 46/38/36
f 17/43/41 15/39/37 45/40/38 47/44/42
f 18/41/39 20/45/43 50/46/36 48/42/40
f 19/47/44 17/43/41 47/44/42 49/48/45
f 20/45/43 22/49/46 52/50/47 50/46/36
f 21/51/48 19/47/44 49/48/45 51/52/49
f 22/49/46 24/53/50 54/54/51 52/50/47
f 23/55/52 21/51/48 51/52/49 53/56/53
f 24/53/50 26/1/1 56/4/4 54/54/51
f 25/6/6 23/55/52 53/56/53 55/7/7
f 29/2/2 28/57/54 58/58/54 59/3/3
f 27/59/55 30/5/5 60/8/8 57/60/55
g Circuito_pueblo_collider.014_Circuito.026
v -112.634232 135.686722 -573.721375
v -112.634232 135.823074 -533.443909
v -136.419083 129.029556 -574.350464
v -136.944550 128.389267 -534.039124
v -173.686722 118.852379 -574.702820
v -173.492310 117.257431 -534.414917
v -220.998077 105.885597 -574.826477
v -220.309631 103.271408 -534.597290
v -275.720276 90.895149 -574.760498
v -274.622406 87.239464 -534.621643
v -335.170227 74.661819 -574.542419
v -333.706787 69.955063 -534.524963
v -396.651855 57.970066 -574.209351
v -394.851868 52.207928 -534.343933
v -457.464203 41.605865 -573.798706
v -455.351654 34.786354 -534.115845
v -514.902588 26.356102 -573.347534
v -512.503784 18.477655 -533.877747
v -566.257935 13.008920 -572.893311
v -563.610413 4.067912 -533.666565
v -608.807739 2.355692 -572.473328
v -605.987244 -7.660025 -533.519287
v -639.758423 -4.796722 -572.125427
v -637.020569 -15.938788 -533.472412
v -660.209839 -8.127375 -570.834717
v -653.247986 -19.515200 -532.788147
v -697.833862 -13.000899 -555.336121
v -677.605957 -22.446596 -521.760803
v -666.705200 -20.980898 -529.286621
v -680.300110 -10.564137 -565.097595
v -85.992325 135.708572 -560.986084
v -91.319687 135.823074 -541.991516
v -82.701881 135.708572 -557.747803
v -84.843269 135.823074 -552.541809
v -103.491600 135.697647 -576.493774
v -101.141289 135.823074 -539.232300
v -96.230484 135.823074 -540.611877
v -95.473175 135.703110 -563.360352
vn -0.1665 0.9860 0.0011
vn -0.1321 0.9912 0.0001
vn -0.2794 0.9601 0.0148
vn -0.2763 0.9603 0.0394
vn -0.2739 0.9594 0.0670
vn -0.2715 0.9578 0.0947
vn -0.2688 0.9554 0.1222
vn -0.2656 0.9524 0.1497
vn -0.2618 0.9488 0.1770
vn -0.2568 0.9447 0.2042
vn -0.2498 0.9403 0.2312
vn -0.2383 0.9363 0.2580
vn -0.1967 0.9384 0.2841
vn -0.1958 0.9385 0.2844
vn -0.0977 0.9506 0.2946
vn -0.0958 0.9508 0.2945
vn -0.0003 0.9611 0.2763
vn -0.0031 0.9607 0.2776
vn 0.0274 0.9645 0.2627
vn 0.0022 1.0000 -0.0047
vn 0.0020 1.0000 -0.0048
vn -0.0011 1.0000 -0.0064
vn -0.0038 1.0000 -0.0083
vn -0.0092 0.9999 -0.0123
vn 0.0002 1.0000 -0.0037
vn -0.0005 1.0000 -0.0035
vt 6.717460 0.128094
vt 6.717173 0.218581
vt 6.677620 0.218462
vt 6.677902 0.127994
vt 6.591642 0.218205
vt 6.591912 0.127776
vt 6.482080 0.217878
vt 6.482335 0.127498
vt 6.355232 0.217499
vt 6.355469 0.127177
vt 6.217396 0.217087
vt 6.217614 0.126827
vt 6.074872 0.216661
vt 6.075071 0.126466
vt 5.933962 0.216240
vt 5.934141 0.126109
vt 5.800963 0.215843
vt 5.801125 0.125771
vt 5.682177 0.215488
vt 5.682321 0.125470
vt 5.583897 0.215194
vt 5.584028 0.125221
vt 5.512414 0.214980
vt 5.512534 0.125040
vt 5.470575 0.214856
vt 5.470690 0.124934
vt 5.431504 0.124835
vt 5.431394 0.214738
vt 5.393863 0.214626
vt 5.393967 0.124739
vt 6.765185 0.218724
vt 6.765480 0.128216
vt 6.782125 0.128258
vt 6.781829 0.218774
vt 6.801146 0.128307
vt 6.800846 0.218831
vt 6.742552 0.128158
vt 6.742260 0.218655
s 1
f 62/61/56 61/62/57 63/63/58 64/64/58
f 64/64/58 63/63/58 65/65/59 66/66/59
f 66/66/59 65/65/59 67/67/60 68/68/60
f 68/68/60 67/67/60 69/69/61 70/70/61
f 70/70/61 69/69/61 71/71/62 72/72/62
f 72/72/62 71/71/62 73/73/63 74/74/63
f 74/74/63 73/73/63 75/75/64 76/76/64
f 76/76/64 75/75/64 77/77/65 78/78/65
f 78/78/65 77/77/65 79/79/66 80/80/66
f 80/80/66 79/79/66 81/81/67 82/82/67
f 82/82/67 81/81/67 83/83/68 84/84/69
f 84/84/69 83/83/68 85/85/70 86/86/71
f 89/87/72 90/88/73 87/89/74 88/90/74
f 86/86/71 85/85/70 90/88/73 89/87/72
f 98/91/75 97/92/76 92/93/77 91/94/78
f 91/94/78 92/93/77 94/95/79 93/96/79
f 61/62/57 62/61/56 96/97/80 95/98/81
f 95/98/81 96/97/80 97/92/76 98/91/75
