# Blender 4.5.3 LTS
# www.blender.org
g Collider_puente_Caastyillo.002
v 161.524826 4.048839 -66.242554
v 161.414703 4.048843 -26.371109
v 161.414703 8.147565 -26.371107
v 161.524826 8.147559 -66.242554
v 159.206467 4.048839 -65.982353
v 159.096344 4.048843 -26.371109
v 159.096344 8.147565 -26.371107
v 159.206467 8.147559 -66.409355
v -27.905441 4.048839 -66.146164
v -28.015568 4.048843 -26.371109
v -28.015568 8.147565 -26.371107
v -27.905441 8.147559 -66.573166
vn 0.0201 0.0520 0.9984
vn 0.0096 0.0779 0.9969
vn -0.0000 -0.0000 -1.0000
vn -0.0009 0.1036 0.9946
vt 0.000000 0.000000
vt 0.000000 1.000000
s 1
f 1/1/1 4/1/1 8/1/2 5/1/2
f 3/2/3 2/2/3 6/2/3 7/2/3
f 5/1/2 8/1/2 12/1/4 9/1/4
f 7/2/3 6/2/3 10/2/3 11/2/3
g Collider_puente.001_Caastyillo.004
v 161.524826 4.048839 -66.242554
v 161.414703 4.048843 -26.371109
v 159.206467 4.048839 -65.982353
v 159.096344 4.048843 -26.371109
v -27.905441 4.048839 -66.146164
v -28.015568 4.048843 -26.371109
vn -0.0000 1.0000 -0.0000
vt 0.000000 1.000000
vt 0.000000 0.000000
s 1
f 14/3/5 13/4/5 15/4/5 16/3/5
f 16/3/5 15/4/5 17/4/5 18/3/5
