# Blender 4.5.3 LTS
# www.blender.org
o Pocion_1_LOD01
v 0.758577 -1.397675 -0.764255
v -0.765406 -1.397675 -0.764255
v 0.758577 -1.397675 0.759728
v -0.765406 -1.397675 0.759728
v 1.074195 -1.397675 -0.002263
v -0.003414 -1.397675 -1.079873
v -1.081038 -1.397675 -0.002263
v -0.003414 -1.397675 1.075361
v 1.271347 -0.486576 0.031844
v 0.897984 -0.486577 -0.869554
v -0.003414 -0.486577 -1.242931
v -0.904812 -0.486577 -0.869554
v -1.278190 -0.486576 0.031844
v -0.904812 -0.486576 0.933242
v -0.003414 -0.486576 1.306620
v 0.897984 -0.486576 0.933242
v 0.536139 0.082191 0.002881
v 0.378112 0.082191 -0.378646
v -0.180872 0.087727 -0.526841
v -0.542982 0.082191 0.002881
v -0.211840 0.120233 0.503693
v 0.378112 0.082191 0.384421
v 0.497581 0.461929 -0.256230
v -0.003414 0.461929 -0.536672
v -0.511654 0.461929 -0.207634
v -0.225791 0.461929 0.539736
v 0.378112 0.461929 0.384421
v 0.127275 0.341748 -0.352288
v -0.337042 0.363591 -0.177423
v 0.350696 0.406121 0.210126
v -0.113650 0.422707 0.385500
v 0.146103 0.904225 -0.509670
v -0.368131 0.924125 -0.273422
v 0.381795 0.974122 0.182268
v -0.132447 1.006384 0.417244
vn -0.0000 -0.7210 0.6930
vn -0.1930 -0.8636 0.4659
vn -0.0000 -1.0000 -0.0000
vn 0.1930 -0.8636 0.4659
vn 0.6259 -0.0740 -0.7764
vn 0.7189 0.5861 -0.3738
vn 0.9112 -0.1650 -0.3774
vn -0.0000 1.0000 -0.0000
vn 0.0274 0.6403 -0.7676
vn -0.9965 -0.0097 0.0830
vn -0.9904 -0.0821 -0.1110
vn -0.8005 -0.2387 -0.5497
vn 0.2100 0.7909 0.5747
vn 0.2178 0.7684 -0.6018
vn 0.0115 0.7699 -0.6380
vn 0.0236 0.7708 -0.6367
vn 0.5989 0.7615 -0.2480
vn -0.4443 0.7864 0.4290
vn -0.2586 0.7372 0.6243
vn -0.4540 0.7875 0.4168
vn -0.3776 -0.1631 -0.9115
vn -0.9084 -0.1825 -0.3763
vn 0.9034 -0.2095 0.3742
vn -0.9034 -0.2095 0.3742
vn 0.9084 -0.1825 -0.3763
vn -0.3726 -0.2283 0.8995
vn 0.3776 -0.1631 -0.9115
vn 0.3726 -0.2283 0.8995
vn -0.4232 0.0522 0.9045
vn -0.4285 0.0530 0.9020
vn 0.2226 -0.0444 0.9739
vn -0.1058 0.1296 -0.9859
vn -0.5535 0.7838 -0.2814
vn -0.2661 0.7187 -0.6424
vn 0.5875 0.7718 0.2433
vn -0.5621 0.7848 0.2611
vn 0.5535 0.8192 0.1503
vn 0.9560 0.1371 0.2595
vn -0.5290 0.2294 -0.8171
vn -0.7693 0.4950 -0.4039
vn -0.9166 -0.1554 -0.3684
vn -0.4139 -0.0209 0.9101
vn -0.3840 -0.0206 0.9231
vn 0.3276 0.4374 -0.8375
vn 0.0025 0.9941 -0.1088
vn 0.7695 0.5707 0.2868
vn 0.9165 -0.0719 0.3934
vn 0.4138 -0.2178 -0.8839
vt 0.962723 0.812725
vt 0.871955 0.774633
vt 0.821869 0.720158
vt 0.103074 0.798864
vt 0.013325 0.839299
vt 0.151730 0.743108
vt 0.347506 0.769557
vt 0.363136 0.828071
vt 0.300017 0.822657
vt 0.168930 0.577037
vt 0.176484 0.673626
vt 0.617091 0.814541
vt 0.571310 0.874837
vt 0.538915 0.784000
vt 0.675695 0.803529
vt 0.593209 0.730188
vt 0.795320 0.651343
vt 0.800365 0.554590
vt 0.254327 0.967391
vt 0.096128 0.972015
vt 0.167290 0.858790
vt 0.268007 0.888593
vt 0.259598 0.706965
vt 0.328206 0.589949
vt 0.403186 0.731912
vt 0.215839 0.784469
vt 0.809316 0.836205
vt 0.883392 0.947546
vt 0.717232 0.907647
vt 0.641477 0.571631
vt 0.713099 0.686827
vt 0.758854 0.763169
vt 0.336642 0.962955
vt 0.323448 0.899138
vt 0.436246 0.799585
vt 0.648491 0.912660
vt 0.867331 0.173735
vt 0.793886 0.176828
vt 0.784666 0.093303
vt 0.857504 0.077644
vt 0.865341 0.240330
vt 0.888556 0.185081
vt 0.980982 0.208475
vt 0.947555 0.270443
vt 0.862409 0.334318
vt 0.789554 0.324527
vt 0.795079 0.240665
vt 0.854801 0.392005
vt 0.782189 0.373246
s 1
f 8/1/1 4/2/2 7/3/3
f 3/4/4 8/5/1 5/6/3
f 18/7/5 23/8/6 17/9/7
f 8/5/1 6/10/3 1/11/3 5/6/3
f 25/12/8 23/13/6 24/14/9
f 20/15/10 25/12/11 19/16/12
f 2/17/3 6/18/3 8/1/1 7/3/3
f 21/19/13 15/20/13 16/21/13 22/22/13
f 18/7/14 10/23/14 11/24/15 19/25/16
f 17/9/17 9/26/17 10/23/17 18/7/17
f 14/27/18 15/28/19 21/29/20
f 11/30/21 6/18/21 2/17/21 12/31/21
f 12/31/22 2/17/22 7/3/22 13/32/22
f 9/26/23 16/21/23 3/4/23 5/6/23
f 13/32/24 7/3/24 4/2/24 14/27/24
f 10/23/25 9/26/25 5/6/25 1/11/25
f 14/27/26 4/2/2 8/1/1 15/28/26
f 11/24/27 10/23/27 1/11/27 6/10/27
f 16/21/28 15/20/28 8/5/1 3/4/4
f 26/33/29 21/19/30 22/22/31 27/34/31
f 23/8/6 18/7/5 19/25/32 24/35/9
f 20/15/33 19/16/33 12/31/33 13/32/33
f 11/30/15 12/31/34 19/16/16
f 22/22/35 16/21/35 9/26/35 17/9/35
f 21/29/20 20/15/36 13/32/36 14/27/18
f 27/34/37 22/22/38 17/9/38 23/8/6
f 23/13/6 25/12/8 26/36/8
f 23/8/6 26/33/8 27/34/37
f 19/16/32 25/12/39 24/14/9
f 26/36/29 25/12/11 20/15/10 21/29/30
f 33/37/40 29/38/41 31/39/42 35/40/43
f 32/41/44 33/42/40 35/43/45
f 32/41/44 35/43/45 34/44/46
f 34/45/46 30/46/47 28/47/48 32/41/44
f 34/45/46 35/48/43 31/49/42 30/46/47
f 33/37/40 32/41/44 28/47/48 29/38/41
