# Blender 4.5.3 LTS
# www.blender.org
o Rueda_LOD02
v -0.575995 -0.364383 0.006390
v -0.432357 -0.528595 0.118492
v -0.432357 -0.528595 -0.105712
v -2.766283 -1.781433 0.118492
v -2.766283 -1.781433 -0.105712
v -2.073274 -2.556596 0.006390
v -0.653655 0.247905 0.006390
v -0.696988 0.030189 0.118492
v -0.696988 0.030189 -0.105712
v -3.110461 1.125116 0.118492
v -3.110461 1.125116 -0.105712
v -3.304774 0.099764 0.006390
v -0.208088 0.675635 0.118492
v -0.208088 0.675635 -0.105712
v -0.401212 0.573040 0.006390
v -1.005552 3.159472 0.006390
v -1.931659 2.685652 0.118492
v -1.931659 2.685652 -0.105712
v 0.400810 0.580997 0.006390
v 0.205547 0.678417 0.118492
v 0.205547 0.678417 -0.105712
v 1.887810 2.724413 0.118492
v 1.887810 2.724413 -0.105712
v 0.952139 3.178015 0.006390
v 0.705685 0.044239 0.006390
v 0.662396 0.261963 0.118492
v 0.662396 0.261966 -0.105712
v 3.311507 0.167036 0.118492
v 3.311507 0.167036 -0.105712
v 3.100784 1.189147 0.006390
v 0.455795 -0.520647 0.118492
v 0.455795 -0.520647 -0.105712
v 0.595472 -0.352472 0.006390
v 2.137769 -2.514727 0.006390
v 2.814231 -1.724514 0.118492
v 2.814231 -1.724514 -0.105712
v -0.143250 -0.664823 0.006390
v 0.074432 -0.680834 0.118492
v 0.074432 -0.680834 -0.105712
v -0.703604 -3.212645 0.118492
v -0.703604 -3.212645 -0.105712
v 0.334305 -3.276574 0.006390
v -2.889838 -0.674526 0.275874
v -2.064684 -2.058609 0.275874
v 1.126272 -2.693329 0.275874
v 2.538579 -1.550337 0.275874
v 2.418278 1.754044 0.275874
v -1.736453 2.424354 0.275874
v -2.699404 1.132347 0.275874
v -0.468226 -2.926008 0.275874
v 2.933804 0.011833 0.275874
v 0.479738 2.949672 0.275874
v -3.832753 -0.607461 0.275874
v -2.270570 -3.140312 0.275874
v 0.625051 -3.826678 0.275874
v 3.157900 -2.264496 0.275874
v 3.218822 2.158733 0.275874
v -0.613538 3.850340 0.275874
v -3.146383 2.288162 0.275874
v 3.831470 0.011833 0.275874
v 1.469795 3.546329 0.275874
v -2.932081 -0.462152 -0.192869
v -2.064684 -2.058609 -0.192869
v 1.126272 -2.693329 -0.192869
v 2.418278 -1.730379 -0.192869
v 2.538578 1.574003 -0.192869
v -1.556411 2.544654 -0.192869
v -2.699404 1.132347 -0.192869
v -0.680600 -2.883764 -0.192869
v 2.933804 0.011833 -0.192869
v 0.692112 2.907429 -0.192869
v -3.528740 -1.452204 -0.192869
v -2.035332 -3.297493 -0.192869
v 2.282085 -3.140311 -0.192869
v 3.540254 1.475868 -0.192869
v 2.046845 3.321157 -0.192869
v -0.891020 3.795146 -0.192869
v -2.699430 2.717018 -0.192869
v -3.832752 0.631121 -0.192869
v 0.005758 -3.813881 -0.192868
v 3.795827 -0.742058 -0.192869
v -0.504728 0.394945 0.144011
v 0.150283 -0.542398 0.144011
v 0.628829 0.087178 0.144011
v 0.084327 0.579182 0.144011
v -0.428915 0.325731 -0.238162
v 0.270420 0.687194 -0.238162
v 0.475414 -0.301981 -0.238162
v -0.514153 -0.172609 -0.238162
v -0.706322 -0.240780 0.144011
v 0.511640 -0.549375 0.144011
v -0.254520 -0.624070 0.144011
v 0.203700 0.770915 0.144011
v -0.099607 -0.517901 -0.238162
v 0.034323 0.562750 -0.238162
v -0.619793 -0.461536 -0.238162
v 0.330652 -0.670307 -0.238162
v 0.760304 0.050955 -0.238162
v -0.555452 0.517712 -0.238162
vn 0.7774 -0.6290 -0.0000
vn -0.5432 0.8396 -0.0000
vn -0.0267 -0.9996 -0.0000
vn 0.3363 0.9418 -0.0000
vn -0.9582 0.2862 -0.0000
vn 0.8216 -0.5700 -0.0000
vn -0.3554 0.9347 -0.0000
vn 0.0471 -0.9989 -0.0000
vn 0.9950 0.0996 -0.0000
vn -0.9767 0.2148 -0.0000
vn -0.0000 -0.0000 1.0000
vn -0.0000 -0.0000 -1.0000
vn -0.8309 0.1970 0.5204
vn 0.8953 -0.2649 0.3580
vn 0.4606 -0.7142 0.5270
vn 0.4293 -0.7452 0.5102
vn 0.4642 -0.7168 0.5203
vn 0.5897 0.7196 0.3665
vn 0.5823 0.7277 0.3624
vn 0.5687 0.7405 0.3581
vn 0.8954 0.2447 -0.3719
vn 0.9084 0.2230 -0.3536
vn -0.6235 -0.7239 0.2951
vn -0.6236 -0.7290 0.2821
vn -0.6176 -0.7391 0.2690
vn -0.5985 -0.6583 -0.4566
vn -0.6137 -0.6327 -0.4723
vn -0.5830 -0.6493 -0.4883
vn -0.4406 0.8289 0.3446
vn -0.4464 0.8430 0.3001
vn -0.4595 0.8258 0.3269
vn -0.7633 0.5802 -0.2844
vn -0.7433 0.5943 -0.3072
vn 0.9267 -0.1706 0.3350
vn 0.0967 -0.9591 0.2660
vn 0.0860 -0.9661 0.2434
vn 0.1009 -0.9604 0.2597
vn -0.8098 -0.5867 -0.0000
vn 0.9521 0.3057 -0.0000
vn 0.5259 0.8505 -0.0000
vn -0.7644 -0.6448 -0.0000
vn -0.4878 0.8442 0.2222
vn -0.5207 0.8195 0.2394
vn -0.5203 0.8198 0.2394
vn -0.5211 0.8139 0.2568
vn -0.9615 0.2650 0.0725
vn -0.2355 -0.9430 0.2351
vn -0.2281 -0.9446 0.2361
vn -0.2315 -0.9421 0.2427
vn -0.2241 -0.9436 0.2439
vn -0.1264 0.9898 0.0649
vn -0.1458 0.9867 0.0725
vn -0.1445 0.9869 0.0724
vn -0.1196 0.9896 0.0805
vn 0.1450 0.9585 -0.2455
vn 0.1516 0.9584 -0.2419
vn 0.1458 0.9605 -0.2371
vn 0.1524 0.9604 -0.2333
vn -0.9615 -0.2650 -0.0725
vn -0.9556 -0.2766 -0.1018
vn -0.9662 -0.2538 -0.0447
vn 0.1981 -0.9801 -0.0073
vn 0.2182 -0.9759 -0.0000
vn 0.2154 -0.9765 -0.0000
vn 0.1916 -0.9814 0.0083
vn -0.9245 -0.1349 -0.3565
vn -0.9280 -0.1087 -0.3564
vn -0.9242 -0.1102 -0.3657
vn 0.7962 -0.6036 0.0427
vn 0.7869 -0.6128 0.0725
vn 0.7762 -0.6218 0.1039
vn 0.2702 -0.8879 -0.3722
vn 0.2465 -0.8968 -0.3674
vn 0.2801 -0.8829 -0.3769
vn 0.9860 0.1667 -0.0000
vn 0.9852 0.1715 -0.0000
vn 0.9808 0.1951 -0.0000
vn 0.5078 0.8584 -0.0725
vn 0.4907 0.8679 -0.0769
vn 0.4942 0.8666 -0.0684
vn 0.5087 0.8579 -0.0725
vn 0.8819 0.4659 0.0724
vn 0.8683 0.4931 0.0538
vn 0.8660 0.4918 0.0901
vn 0.8827 0.4644 0.0725
vn -0.6117 0.7855 -0.0940
vn -0.6395 0.7653 -0.0725
vn -0.6381 0.7665 -0.0724
vn -0.6137 0.7880 -0.0497
vn -0.5697 -0.8219 -0.0000
vn -0.5539 -0.8325 -0.0045
vn -0.5570 -0.8305 0.0040
vn -0.5716 -0.8206 -0.0000
vn -0.8287 0.4180 -0.3721
vn -0.8155 0.4431 -0.3722
vn -0.8218 -0.5526 0.1387
vn -0.8011 -0.5851 0.1265
vn -0.8243 -0.5452 0.1525
vn -0.8198 -0.5557 0.1385
vn 0.9897 -0.1231 -0.0725
vn 0.7455 -0.4370 -0.5033
vn 0.7306 -0.4612 -0.5035
vn 0.7160 0.6075 -0.3440
vn 0.7354 0.5754 -0.3580
vn 0.7313 0.5755 -0.3661
vn 0.8247 0.5521 0.1229
vn 0.8215 0.5616 0.0986
vn 0.8085 0.5692 0.1492
vn 0.8239 0.5533 0.1227
vn -0.3497 0.9001 0.2598
vn -0.3583 0.8911 0.2783
vn -0.3330 0.8987 0.2855
vn 0.8486 -0.4725 -0.2378
vn 0.8345 -0.4971 -0.2379
vn -0.8253 -0.1974 0.5290
vn -0.8398 -0.1740 0.5143
vn 0.3910 -0.9188 0.0544
vn 0.3981 -0.9101 0.1155
vn 0.4020 -0.9082 0.1161
vn 0.4153 -0.9088 0.0393
vn 0.2986 0.8840 0.3596
vn 0.2827 0.8900 0.3577
vn 0.2871 0.8857 0.3648
vn 0.3058 0.8793 0.3651
vn -0.9845 0.1621 -0.0669
vn 0.9614 -0.1644 0.2205
vn -0.2074 -0.9569 -0.2031
vn -0.2159 -0.9553 -0.2019
vn -0.2039 -0.9563 -0.2097
vn 0.4500 -0.8927 -0.0230
vn -0.2021 0.9489 -0.2422
vn -0.1789 0.9556 -0.2341
vn -0.2111 0.9449 -0.2503
vt 0.045273 0.993419
vt 0.073135 0.585431
vt 0.016548 0.585886
vt 0.045150 0.586019
vt 0.016548 0.993604
vt 0.073387 0.993698
vt 0.631142 0.279058
vt 0.777291 0.317940
vt 0.575204 0.177389
vt 0.735608 0.583149
vt 0.815900 0.560707
vt 0.742755 0.430050
vt 0.777247 0.317945
vt 0.680065 0.310389
vt 0.742835 0.430107
vt 0.831326 0.486969
vt 0.928748 0.410601
vt 0.856256 0.542023
vt 0.857997 0.736145
vt 0.269969 0.126500
vt 0.418097 0.141993
vt 0.492759 0.049232
vt 0.856275 0.541890
vt 0.914893 0.651087
vt 0.928745 0.410512
vt 0.687303 0.183453
vt 0.808408 0.173908
vt 0.595576 0.066496
vt 0.325623 0.086806
vt 0.431351 0.139278
vt 0.792440 0.275025
vt 0.750521 0.135190
vt 0.332393 0.215877
vt 0.376067 0.187171
vt 0.575277 0.177291
vt 0.772290 0.665949
vt 0.242016 0.390608
vt 0.214887 0.370034
vt 0.205330 0.421635
vt 0.182547 0.704252
vt 0.199337 0.597958
vt 0.181519 0.533635
vt 0.219965 0.486641
vt 0.146853 0.834558
vt 0.175950 0.823560
vt 0.152734 0.736053
vt 0.270648 0.614314
vt 0.240190 0.723375
vt 0.267694 0.737958
vt 0.265471 0.940524
vt 0.320098 0.914465
vt 0.241264 0.841700
vt 0.299110 0.429011
vt 0.306007 0.383759
vt 0.333404 0.665427
vt 0.349559 0.565975
vt 0.306813 0.490919
vt 0.269708 0.525790
vt 0.017047 0.585431
vt 0.016548 0.993139
vt 0.073269 0.993698
vt 0.073634 0.585886
vt 0.016548 0.993698
vt 0.073387 0.993604
vt 0.073022 0.585792
vt 0.016548 0.586246
vt 0.016913 0.993698
vt 0.073634 0.993139
vt 0.044842 0.585658
vt 0.073387 0.586246
vt 0.016913 0.585792
vt 0.044967 0.993651
vt 0.714163 0.616852
vt 0.357526 0.290750
vt 0.501597 0.238867
vt 0.540659 0.246428
vt 0.405708 0.258293
vt 0.268404 0.258068
vt 0.324836 0.313076
vt 0.739290 0.720660
vt 0.682895 0.665816
vt 0.637473 0.154597
vt 0.767173 0.745916
vt 0.839546 0.347038
vt 0.240392 0.232861
vt 0.188385 0.184736
vt 0.240455 0.232821
vt 0.767236 0.745877
vt 0.819297 0.793956
vt 0.567523 0.023429
vt 0.309554 0.051716
vt 0.958111 0.368752
vt 0.834886 0.145734
vt 0.160212 0.158257
vt 0.958125 0.368830
vt 0.742233 0.084224
vt 0.491463 0.010658
vt 0.950945 0.664637
vt 0.847473 0.820428
vt 0.908982 0.727871
vt 0.220684 0.115108
vt 0.149549 0.929110
vt 0.178976 0.949875
vt 0.235468 0.926550
vt 0.371039 0.467642
vt 0.318055 0.835440
vt 0.323550 0.750316
vt 0.383937 0.421920
s 1
f 6/1/1 3/2/1 2/3/1
f 1/4/2 5/5/2 4/6/2
f 12/1/3 9/2/3 8/3/3
f 7/4/4 11/5/4 10/6/4
f 24/1/5 21/2/5 20/3/5
f 19/4/6 23/5/6 22/6/6
f 30/1/7 27/2/7 26/3/7
f 25/4/8 29/5/8 28/6/8
f 42/1/9 39/2/9 38/3/9
f 37/4/10 41/5/10 40/6/10
f 48/7/11 58/8/11 59/9/11
f 44/10/11 54/11/11 50/12/11
f 50/12/11 54/11/11 55/13/11
f 50/12/11 55/13/11 45/14/11
f 52/15/11 61/16/11 58/8/11
f 52/15/11 58/8/11 48/7/11
f 71/17/12 76/18/12 66/19/12
f 62/20/12 79/21/12 68/22/12
f 73/23/12 63/24/12 69/25/12
f 74/26/12 64/27/12 65/28/12
f 70/29/12 81/30/12 65/28/12
f 77/31/12 71/17/12 67/32/12
f 79/21/13 53/33/13 59/9/13
f 81/30/14 60/34/14 56/35/14
f 74/26/15 56/35/16 55/13/17
f 76/18/18 61/16/19 57/36/20
f 96/37/12 89/38/12 94/39/12
f 87/40/12 98/41/12 88/42/12
f 97/43/12 94/39/12 88/42/12
f 86/44/12 99/45/12 95/46/12
f 84/47/11 93/48/11 85/49/11
f 92/50/21 89/51/22 82/52/22
f 96/37/23 92/53/24 90/54/25
f 87/55/26 84/47/27 85/49/28
f 99/45/29 82/52/30 93/48/31
f 88/56/32 83/57/33 84/47/32
f 98/41/34 84/47/34 91/58/34
f 97/43/35 91/58/36 92/53/37
f 3/59/12 6/60/12 5/61/12 1/62/12
f 10/63/11 12/64/11 8/65/11 7/66/11
f 9/59/12 12/60/12 11/61/12 7/62/12
f 17/64/11 15/65/11 13/66/11 16/63/11
f 17/67/38 18/68/38 15/69/38
f 13/70/39 14/71/39 16/72/39
f 14/62/12 15/59/12 18/60/12 16/61/12
f 22/63/11 24/64/11 20/65/11 19/66/11
f 21/59/12 24/60/12 23/61/12 19/62/12
f 28/63/11 30/64/11 26/65/11 25/66/11
f 27/59/12 30/60/12 29/61/12 25/62/12
f 35/64/11 33/65/11 31/66/11 34/63/11
f 35/67/40 36/68/40 33/69/40
f 31/70/41 32/71/41 34/72/41
f 32/62/12 33/59/12 36/60/12 34/61/12
f 40/63/11 42/64/11 38/65/11 37/66/11
f 39/59/12 42/60/12 41/61/12 37/62/12
f 57/36/11 61/16/11 52/15/11 47/73/11
f 59/9/11 53/33/11 43/74/11 49/75/11
f 56/35/11 46/76/11 45/14/11 55/13/11
f 49/75/11 48/7/11 59/9/11
f 56/35/11 60/34/11 51/77/11 46/76/11
f 57/78/11 47/79/11 51/77/11 60/34/11
f 53/80/11 54/11/11 44/10/11 43/81/11
f 78/82/12 67/32/12 68/22/12 79/21/12
f 81/30/12 74/26/12 65/28/12
f 67/32/12 78/82/12 77/31/12
f 66/19/12 76/18/12 75/83/12
f 69/25/12 64/27/12 74/26/12 80/84/12
f 62/20/12 72/85/12 79/21/12
f 80/84/12 73/23/12 69/25/12
f 70/29/12 66/86/12 75/87/12 81/30/12
f 72/88/12 62/89/12 63/24/12 73/23/12
f 71/17/12 77/31/12 76/18/12
f 59/9/42 58/8/43 77/31/44 78/82/45
f 46/90/46 51/91/46 70/29/46 65/28/46
f 55/13/47 54/11/48 73/23/49 80/84/50
f 50/92/51 45/93/52 64/27/53 69/25/54
f 58/8/55 61/16/56 76/18/57 77/31/58
f 51/91/59 47/94/60 66/86/61 70/29/59
f 52/95/62 48/96/63 67/32/64 71/17/65
f 79/21/66 72/85/67 53/33/68
f 48/96/69 49/97/70 68/22/70 67/32/71
f 80/84/72 74/26/73 55/13/74
f 75/87/75 57/78/76 60/34/77 81/30/77
f 44/98/78 50/92/79 69/25/80 63/24/81
f 43/99/82 44/98/83 63/24/84 62/89/85
f 45/93/86 46/90/87 65/28/88 64/27/89
f 47/100/90 52/95/91 71/17/92 66/19/93
f 78/82/94 79/21/95 59/9/95
f 54/11/96 53/80/97 72/88/98 73/23/99
f 49/97/100 43/101/100 62/20/100 68/22/100
f 74/26/101 81/30/102 56/35/102
f 86/44/12 89/102/12 96/103/12 99/45/12
f 75/83/103 76/18/104 57/36/105
f 99/45/12 87/40/12 95/46/12
f 94/39/12 97/43/12 96/37/12
f 93/48/106 84/47/107 98/41/108 87/40/109
f 88/42/12 98/41/12 97/43/12
f 82/52/11 85/49/11 93/48/11
f 84/47/11 83/57/11 91/58/11
f 92/50/11 82/52/11 90/104/11
f 83/57/11 92/53/11 91/58/11
f 4/63/11 6/64/11 2/65/11 1/66/11
f 83/57/110 88/56/111 94/105/112
f 97/43/113 98/41/114 91/58/114
f 87/55/115 88/56/116 84/47/116
f 85/49/117 82/52/118 86/106/119 95/107/120
f 92/53/121 83/57/122 94/105/123 89/108/124
f 90/104/125 82/52/125 99/45/125 96/103/125
f 89/51/126 86/106/126 82/52/126
f 96/37/127 97/43/128 92/53/129
f 95/107/120 87/55/130 85/49/117
f 87/40/131 99/45/132 93/48/133
