# Blender 4.5.3 LTS
# www.blender.org
o Terreno.012
v -722.579773 -56.824963 179.235352
v -722.579773 -52.177895 268.853027
v -722.579773 -56.824963 358.470703
v -276.943878 -40.565502 358.470795
v -266.854126 -41.157726 261.479828
v -276.943878 -42.278389 179.235413
v -272.576996 -52.967278 -53.919842
v -722.579773 -56.824963 43.708675
v -276.943878 -44.636150 43.708721
v -722.579773 -56.824963 111.472015
v -276.943878 -43.639389 111.472076
v -391.055847 -40.340981 358.470795
v -391.055847 -47.175079 268.853088
v -391.055847 -45.722370 179.235413
v -391.055847 -44.288898 43.708717
v -391.055847 -43.491859 111.472061
v -622.325134 -45.196350 356.844788
v -610.943665 -48.924854 268.853027
v -610.943665 -44.903889 179.235382
v -610.943665 -57.204662 43.708694
v -610.943665 -50.424309 111.472038
v -444.833435 -40.393078 358.470795
v -444.833435 -41.107861 268.853088
v -444.833435 -46.382675 179.235413
v -444.833435 -47.608067 43.708717
v -444.833435 -47.695187 111.472061
v -333.999847 -40.773945 358.470795
v -333.999847 -38.412888 268.853088
v -333.999847 -41.229324 179.235413
v -313.644501 -44.933876 -77.601631
v -333.999847 -35.452988 43.708721
v -333.999847 -39.040211 111.472076
v -722.579773 -46.859970 492.897278
v -276.943878 -38.082489 492.897308
v -391.055847 -45.102165 492.897308
v -610.943665 -38.336479 492.897278
v -444.833435 -41.452698 492.897308
v -333.999847 -33.288624 492.897308
v -527.888550 -42.860928 358.470764
v -527.888550 -46.639160 268.853058
v -527.888550 -43.143456 179.235397
v -527.888550 -52.721733 43.708706
v -527.888550 -45.111710 111.472054
v -527.888550 -37.247875 492.897308
v -274.484039 -49.328999 -11.284584
v -722.579773 -58.225098 -24.054646
v -392.480469 -42.358742 -49.535709
v -611.656006 -61.483856 -36.795181
v -446.083801 -47.085400 -46.419769
v -322.533875 -40.793488 -26.354811
v -528.869873 -58.181587 -41.607475
v -854.734314 -46.222431 179.235352
v -854.734314 -46.778435 268.853027
v -854.734314 -47.621567 358.470703
v -854.734314 -46.087128 43.708675
v -854.734314 -46.087128 111.472015
v -854.734314 -38.867554 492.897278
v -854.734314 -47.623436 -24.054646
v -362.527832 -40.557461 358.470795
v -362.527832 -42.793983 268.853088
v -362.527832 -43.475849 179.235413
v -362.527832 -39.870945 43.708721
v -362.527832 -41.266037 111.472076
v -362.527832 -39.195396 492.897308
v -357.507172 -41.576115 -37.945259
vn -0.0021 0.9999 -0.0165
vn -0.0055 1.0000 0.0013
vn -0.0112 0.9996 -0.0242
vn 0.0304 0.9995 -0.0126
vn 0.0254 0.9996 -0.0086
vn 0.0390 0.9992 -0.0097
vn 0.2065 0.9768 -0.0572
vn 0.0372 0.9989 -0.0275
vn 0.1476 0.9888 -0.0208
vn 0.0132 0.9997 -0.0225
vn 0.0846 0.9963 0.0125
vn -0.0206 0.9997 -0.0146
vn -0.0204 0.9994 -0.0274
vn -0.0471 0.9989 0.0056
vn -0.0853 0.9964 0.0033
vn -0.0772 0.9970 0.0097
vn -0.0538 0.9979 -0.0359
vn -0.0463 0.9989 -0.0019
vn -0.0540 0.9984 -0.0143
vn -0.0300 0.9976 -0.0629
vn -0.0525 0.9966 -0.0629
vn 0.0129 0.9998 -0.0156
vn 0.0110 0.9996 -0.0246
vn 0.0066 0.9999 -0.0122
vn -0.0643 0.9978 -0.0182
vn -0.0238 0.9995 -0.0196
vn -0.0276 0.9995 -0.0146
vn -0.0345 0.9994 -0.0074
vn -0.0287 0.9996 -0.0014
vn 0.0216 0.9997 -0.0144
vn -0.0061 0.9997 0.0236
vn -0.0151 0.9979 -0.0638
vn 0.0401 0.9985 -0.0370
vn -0.0327 0.9993 0.0172
vn -0.0552 0.9972 -0.0513
vn 0.0219 0.9998 0.0024
vn -0.0292 0.9990 -0.0350
vn -0.0205 0.9993 -0.0328
vn -0.0280 0.9996 -0.0092
vn -0.0114 0.9999 -0.0118
vn -0.0552 0.9966 -0.0615
vn -0.0202 0.9980 -0.0600
vn -0.0042 0.9995 -0.0311
vn 0.1870 0.9806 -0.0586
vn 0.0457 0.9985 -0.0304
vn -0.0774 0.9970 0.0080
vn -0.0193 0.9986 -0.0489
vn -0.0857 0.9963 -0.0053
vn 0.0938 0.9940 -0.0571
vn -0.0742 0.9964 -0.0419
vn 0.0705 0.9975 -0.0109
vn 0.0578 0.9983 0.0039
vn 0.0600 0.9980 -0.0195
vn 0.0807 0.9967 -0.0108
vn 0.0807 0.9967 0.0005
vn 0.0648 0.9955 -0.0693
vn 0.0805 0.9965 -0.0216
vn -0.0860 0.9961 -0.0175
vn -0.0941 0.9954 -0.0163
vn -0.0967 0.9952 0.0125
vn -0.0962 0.9954 -0.0031
vn -0.0969 0.9949 0.0265
vn -0.0992 0.9950 -0.0101
vn -0.0778 0.9967 -0.0210
vt 0.324241 0.440974
vt 0.322639 0.460128
vt 0.308525 0.459899
vt 0.308525 0.440974
vt 0.324241 0.472515
vt 0.308525 0.472515
vt 0.324241 0.485132
vt 0.308525 0.485132
vt 0.324241 0.494672
vt 0.324241 0.504212
vt 0.308525 0.504212
vt 0.308525 0.494672
vt 0.359214 0.485132
vt 0.359214 0.494672
vt 0.355198 0.494672
vt 0.355198 0.485132
vt 0.359214 0.504212
vt 0.355198 0.504212
vt 0.359214 0.472515
vt 0.355198 0.472515
vt 0.359214 0.459899
vt 0.355198 0.459899
vt 0.359214 0.440974
vt 0.355198 0.440974
vt 0.335934 0.485132
vt 0.335934 0.494672
vt 0.335934 0.504212
vt 0.335934 0.472515
vt 0.335934 0.459899
vt 0.335934 0.440974
vt 0.347627 0.459899
vt 0.347627 0.440974
vt 0.347627 0.472515
vt 0.347627 0.485132
vt 0.347627 0.504212
vt 0.347627 0.494672
vt 0.371263 0.440974
vt 0.371263 0.459899
vt 0.363230 0.459899
vt 0.363230 0.440974
vt 0.372683 0.473554
vt 0.363230 0.472515
vt 0.371263 0.485132
vt 0.363230 0.485132
vt 0.371609 0.511954
vt 0.371878 0.517956
vt 0.366096 0.521290
vt 0.364845 0.514076
vt 0.371263 0.494672
vt 0.371263 0.504212
vt 0.363230 0.504212
vt 0.363230 0.494672
vt 0.347451 0.516900
vt 0.335796 0.516223
vt 0.354997 0.517339
vt 0.324141 0.515546
vt 0.359921 0.515707
vt 0.308525 0.513752
vt 0.289920 0.494672
vt 0.289920 0.485132
vt 0.289920 0.513752
vt 0.289920 0.504212
vt 0.289920 0.472515
vt 0.289920 0.459899
vt 0.289920 0.440974
s 1
f 36/1/35 17/2/17 3/3/3 33/4/32
f 17/2/17 18/5/18 2/6/2 3/3/3
f 18/5/18 19/7/19 1/8/1 2/6/2
f 21/9/21 20/10/20 8/11/8 10/12/10
f 19/7/19 21/9/21 10/12/10 1/8/1
f 61/13/60 63/14/62 16/15/16 14/16/14
f 63/14/62 62/17/61 15/18/15 16/15/16
f 60/19/59 61/13/60 14/16/14 13/20/13
f 59/21/58 60/19/59 13/20/13 12/22/12
f 64/23/63 59/21/58 12/22/12 35/24/34
f 41/25/40 43/26/42 21/9/21 19/7/19
f 43/26/42 42/27/41 20/10/20 21/9/21
f 40/28/39 41/25/40 19/7/19 18/5/18
f 39/29/38 40/28/39 18/5/18 17/2/17
f 44/30/43 39/29/38 17/2/17 36/1/35
f 35/24/34 12/22/12 22/31/22 37/32/36
f 12/22/12 13/20/13 23/33/23 22/31/22
f 13/20/13 14/16/14 24/34/24 23/33/23
f 16/15/16 15/18/15 25/35/25 26/36/26
f 14/16/14 16/15/16 26/36/26 24/34/24
f 34/37/33 4/38/4 27/39/27 38/40/37
f 4/38/4 5/41/5 28/42/28 27/39/27
f 5/41/5 6/43/6 29/44/29 28/42/28
f 45/45/44 7/46/7 30/47/7 50/48/49
f 11/49/11 9/50/9 31/51/30 32/52/31
f 6/43/6 11/49/11 32/52/31 29/44/29
f 37/32/36 22/31/22 39/29/38 44/30/43
f 22/31/22 23/33/23 40/28/39 39/29/38
f 23/33/23 24/34/24 41/25/40 40/28/39
f 26/36/26 25/35/25 42/27/41 43/26/42
f 24/34/24 26/36/26 43/26/42 41/25/40
f 25/35/25 49/53/48 51/54/50 42/27/41
f 9/50/9 45/45/44 50/48/49 31/51/30
f 15/18/15 47/55/46 49/53/48 25/35/25
f 42/27/41 51/54/50 48/56/47 20/10/20
f 62/17/61 65/57/64 47/55/46 15/18/15
f 20/10/20 48/56/47 46/58/45 8/11/8
f 1/8/1 10/12/10 56/59/55 52/60/51
f 8/11/8 46/58/45 58/61/57 55/62/54
f 2/6/2 1/8/1 52/60/51 53/63/52
f 33/4/32 3/3/3 54/64/53 57/65/56
f 3/3/3 2/6/2 53/63/52 54/64/53
f 10/12/10 8/11/8 55/62/54 56/59/55
f 31/51/30 50/48/49 65/57/64 62/17/61
f 38/40/37 27/39/27 59/21/58 64/23/63
f 27/39/27 28/42/28 60/19/59 59/21/58
f 28/42/28 29/44/29 61/13/60 60/19/59
f 32/52/31 31/51/30 62/17/61 63/14/62
f 29/44/29 32/52/31 63/14/62 61/13/60
