# Blender 4.5.3 LTS
# www.blender.org
o Terreno.010
v 836.417053 25.023752 271.246887
v 834.490601 16.964094 180.803558
v 729.115295 15.562487 185.347580
v 688.388245 25.247936 286.605438
v 644.259705 13.215873 204.522888
v 620.874817 21.651613 297.518433
v 651.509155 5.009923 44.346321
v 716.698914 5.336890 44.346321
v 830.847107 6.174130 44.346321
v 650.532837 8.725062 130.895706
v 722.607361 10.762875 109.141068
v 832.205688 11.179401 112.061005
v 572.872009 -196.148987 105.948120
v 562.804199 -196.085220 169.704117
v 548.744385 -195.553665 248.006897
v 575.206360 -196.407700 44.346321
v 585.457581 1.225665 287.449402
v 602.034363 -5.727848 199.511765
v 612.239441 -9.487652 128.980789
v 615.175903 -12.256227 44.346321
v 1202.106934 25.023750 271.246887
v 1202.106934 16.964088 180.803558
v 1202.106934 6.174126 44.346333
v 1202.106934 11.179396 112.061012
vn -0.0062 0.9958 -0.0918
vn -0.0052 0.9964 -0.0847
vn -0.0281 0.9962 -0.0825
vn -0.0435 0.9934 -0.1062
vn -0.2251 0.9675 -0.1149
vn -0.2501 0.9574 -0.1440
vn -0.2235 0.9732 -0.0532
vn -0.0161 0.9975 -0.0684
vn -0.0023 0.9971 -0.0760
vn -0.2212 0.9729 -0.0677
vn -0.0201 0.9975 -0.0679
vn -0.0034 0.9970 -0.0769
vn -0.9719 0.2167 -0.0923
vn -0.9606 0.2217 -0.1677
vn -0.9573 0.2211 -0.1864
vn -0.9766 0.2114 -0.0396
vn -0.6746 0.7127 -0.1922
vn -0.7226 0.6712 -0.1654
vn -0.7289 0.6782 -0.0933
vn -0.7430 0.6677 -0.0468
vn -0.0000 0.9961 -0.0888
vn -0.0000 0.9963 -0.0863
vn -0.0000 0.9973 -0.0737
vn -0.0000 0.9969 -0.0788
vt 0.497660 0.468480
vt 0.507165 0.470016
vt 0.512899 0.484272
vt 0.500953 0.481572
vt 0.511983 0.495000
vt 0.501836 0.491937
vt 0.528005 0.472178
vt 0.527734 0.484911
vt 0.527412 0.494589
vt 0.492674 0.469897
vt 0.495008 0.482278
vt 0.489485 0.486474
vt 0.487506 0.475450
vt 0.496445 0.492207
vt 0.490902 0.495450
vt 0.527221 0.504122
vt 0.511151 0.504122
vt 0.501973 0.504122
vt 0.496858 0.504122
vt 0.491231 0.504122
vt 0.579723 0.484911
vt 0.579402 0.494589
vt 0.579210 0.504122
vt 0.579995 0.472178
s 1
f 6/1/6 4/2/4 3/3/3 5/4/5
f 11/5/11 10/6/10 5/4/5 3/3/3
f 4/2/4 1/7/1 2/8/2 3/3/3
f 12/9/12 11/5/11 3/3/3 2/8/2
f 17/10/17 18/11/18 14/12/14 15/13/15
f 18/11/18 19/14/19 13/15/13 14/12/14
f 9/16/9 8/17/8 11/5/11 12/9/12
f 8/17/8 7/18/7 10/6/10 11/5/11
f 19/14/19 20/19/20 16/20/16 13/15/13
f 10/6/10 7/18/7 20/19/20 19/14/19
f 5/4/5 10/6/10 19/14/19 18/11/18
f 6/1/6 5/4/5 18/11/18 17/10/17
f 12/9/12 2/8/2 22/21/22 24/22/24
f 9/16/9 12/9/12 24/22/24 23/23/23
f 2/8/2 1/7/1 21/24/21 22/21/22
