# Blender 4.5.3 LTS
# www.blender.org
o Terreno.002
v 128.254013 -6.454054 -780.384338
v -276.943817 -17.489725 -740.149536
v 388.272278 9.001403 -773.946716
v -276.943817 -18.679911 -577.083984
v -276.943817 -17.796818 -689.260864
v -83.490776 -19.140379 -647.600403
v 389.881653 4.921659 -727.995178
v 129.259842 -11.267263 -752.541565
v -44.227787 -196.411285 -583.415833
v 368.321655 -196.375122 -655.167725
v 141.078354 -196.411285 -676.663025
v 128.254013 35.647388 -1650.114624
v -276.943817 12.817934 -1650.114624
v 374.592438 55.486813 -1650.114624
v 382.801697 -12.242710 -708.390259
v -74.246300 -32.765686 -630.315063
v 131.138428 -26.052353 -732.117798
v -276.943817 -18.238365 -633.172485
v 11.216447 -15.203822 -712.543823
v 36.757195 -196.411285 -642.512268
v 16.777975 -29.409021 -693.689270
vn -0.0480 0.9965 0.0687
vn -0.0254 0.9982 0.0539
vn -0.0688 0.9938 0.0875
vn 0.0078 0.9991 0.0423
vn -0.0091 0.9987 0.0499
vn 0.1279 0.9663 0.2233
vn -0.0882 0.9234 0.3735
vn -0.0141 0.9501 0.3115
vn 0.5468 0.3130 0.7766
vn -0.0983 0.2928 0.9511
vn 0.0979 0.3083 0.9463
vn -0.0549 0.9974 0.0459
vn -0.0397 0.9984 0.0406
vn -0.0701 0.9962 0.0511
vn -0.1060 0.5904 0.8001
vn 0.4615 0.5678 0.6816
vn 0.0642 0.6131 0.7874
vn 0.0025 0.9992 0.0407
vn 0.1002 0.9571 0.2718
vn 0.4271 0.3155 0.8474
vn 0.3394 0.6182 0.7090
vt 0.428449 0.616310
vt 0.428308 0.620230
vt 0.371263 0.614566
vt 0.371263 0.607402
vt 0.464914 0.619324
vt 0.465141 0.612855
vt 0.411831 0.610679
vt 0.371263 0.599505
vt 0.412614 0.608025
vt 0.399799 0.599103
vt 0.404025 0.592500
vt 0.415427 0.600820
vt 0.464144 0.610095
vt 0.428714 0.613435
vt 0.430113 0.605628
vt 0.462105 0.602602
vt 0.462988 0.742673
vt 0.428308 0.742673
vt 0.371263 0.742673
vt 0.398498 0.601537
vt 0.371263 0.591609
s 1
f 8/1/8 1/2/1 2/3/2 5/4/5
f 3/5/3 1/2/1 8/1/8 7/6/7
f 19/7/19 8/1/8 5/4/5 18/8/18
f 21/9/21 16/10/16 9/11/9 20/12/20
f 15/13/15 17/14/17 11/15/11 10/16/10
f 1/2/1 3/5/3 14/17/14 12/18/12
f 2/3/2 1/2/1 12/18/12 13/19/13
f 7/6/7 8/1/8 17/14/17 15/13/15
f 19/7/19 6/20/6 16/10/16 21/9/21
f 8/1/8 19/7/19 21/9/21 17/14/17
f 17/14/17 21/9/21 20/12/20 11/15/11
f 6/20/6 19/7/19 18/8/18 4/21/4
