# Blender 4.5.3 LTS
# www.blender.org
o Terreno.011
v -276.943878 -44.883617 627.323853
v 267.267944 -25.590313 629.717529
v -276.943878 -40.565502 358.470795
v -266.854126 -41.157726 261.479828
v -276.943878 -42.278389 179.235413
v 254.869888 -14.251337 383.720825
v 144.782547 -40.764294 291.318909
v 60.804848 -45.780609 194.920975
v 258.534607 -196.722794 309.586456
v 171.360580 -197.088791 237.817780
v 95.482155 -196.736328 152.798737
v 80.603203 -36.594757 627.323853
v 105.243439 -37.771114 356.401672
v -4.775457 -35.640457 268.691132
v -57.642685 -59.268818 185.246140
v -87.558685 -44.419498 347.612579
v -141.016724 -41.892105 267.869110
v -167.293289 -58.545418 182.240784
v -98.170341 -42.992817 627.323853
v -276.943878 -38.082489 492.897308
v 260.846405 -15.715531 501.480469
v 92.701431 -35.233509 490.586884
v -92.864517 -45.125839 487.468231
v -276.943878 -29.919296 735.708923
v 266.851654 -12.739750 735.708923
v 80.603203 -23.762854 735.708923
v -98.170341 -26.636497 735.708923
v 261.476074 -27.559019 358.530884
v 77.264450 -54.359253 183.458817
v 165.228699 -47.969425 272.942871
v -276.943878 -22.555872 890.781494
v 266.851654 -4.062181 890.781494
v 80.603203 -16.399431 890.781494
v -98.170341 -19.273073 890.781494
vn 0.0001 0.9980 -0.0629
vn -0.0724 0.9965 -0.0413
vn 0.0223 0.9998 0.0002
vn 0.0469 0.9971 -0.0599
vn 0.0763 0.9897 -0.1213
vn -0.0545 0.9914 -0.1188
vn 0.0509 0.9778 -0.2034
vn 0.0808 0.9781 -0.1918
vn 0.6237 0.2055 -0.7542
vn 0.6708 0.2088 -0.7116
vn 0.7089 0.2111 -0.6729
vn -0.0535 0.9971 -0.0546
vn -0.0654 0.9975 -0.0264
vn -0.0282 0.9969 -0.0738
vn -0.0167 0.9799 -0.1986
vn -0.0148 0.9997 0.0203
vn 0.0080 0.9971 -0.0751
vn 0.0361 0.9856 -0.1651
vn -0.0173 0.9977 -0.0661
vn 0.0215 0.9998 0.0060
vn -0.1085 0.9939 0.0181
vn -0.0772 0.9970 0.0042
vn -0.0110 0.9999 -0.0012
vn -0.0163 0.9953 -0.0954
vn -0.0602 0.9946 -0.0851
vn -0.0405 0.9953 -0.0879
vn -0.0186 0.9955 -0.0929
vn 0.2919 0.7901 -0.5390
vn 0.5192 0.6751 -0.5241
vn 0.4464 0.6945 -0.5643
vn -0.0183 0.9987 -0.0474
vn -0.0625 0.9967 -0.0516
vn -0.0393 0.9980 -0.0495
vn -0.0172 0.9987 -0.0474
vt 0.397178 0.441738
vt 0.397925 0.461427
vt 0.371263 0.459899
vt 0.371263 0.440974
vt 0.425068 0.460190
vt 0.446133 0.456344
vt 0.430635 0.469353
vt 0.409580 0.472538
vt 0.418812 0.482924
vt 0.402137 0.484286
vt 0.433513 0.471940
vt 0.447063 0.459890
vt 0.446649 0.466781
vt 0.434377 0.476885
vt 0.421129 0.484538
vt 0.423694 0.488854
vt 0.390399 0.472654
vt 0.386700 0.484709
vt 0.446975 0.439766
vt 0.423303 0.441299
vt 0.372683 0.473554
vt 0.371263 0.485132
vt 0.421599 0.422049
vt 0.396431 0.422049
vt 0.447879 0.421712
vt 0.371263 0.422049
vt 0.396431 0.406790
vt 0.421599 0.406790
vt 0.447820 0.406790
vt 0.371263 0.406790
vt 0.396431 0.384959
vt 0.421599 0.384959
vt 0.371263 0.384959
vt 0.447820 0.384959
s 1
f 23/1/23 16/2/16 3/3/3 20/4/20
f 13/5/13 6/6/6 7/7/7 14/8/14
f 14/8/14 7/7/7 8/9/8 15/10/15
f 30/11/30 28/12/28 9/13/9 10/14/10
f 29/15/29 30/11/30 10/14/10 11/16/11
f 17/17/17 14/8/14 15/10/15 18/18/18
f 16/2/16 13/5/13 14/8/14 17/17/17
f 21/19/21 6/6/6 13/5/13 22/20/22
f 3/3/3 16/2/16 17/17/17 4/21/4
f 4/21/4 17/17/17 18/18/18 5/22/5
f 22/20/22 13/5/13 16/2/16 23/1/23
f 12/23/12 22/20/22 23/1/23 19/24/19
f 2/25/2 21/19/21 22/20/22 12/23/12
f 19/24/19 23/1/23 20/4/20 1/26/1
f 12/23/12 19/24/19 27/27/27 26/28/26
f 2/25/2 12/23/12 26/28/26 25/29/25
f 19/24/19 1/26/1 24/30/24 27/27/27
f 8/9/8 7/7/7 30/11/30 29/15/29
f 7/7/7 6/6/6 28/12/28 30/11/30
f 26/28/26 27/27/27 34/31/34 33/32/33
f 27/27/27 24/30/24 31/33/31 34/31/34
f 25/29/25 26/28/26 33/32/33 32/34/32
