# Blender 4.5.3 LTS
# www.blender.org
o Terreno.006
v -854.734314 -49.073490 627.323792
v -854.734314 -47.621567 358.470703
v -854.734314 -38.867554 492.897278
v -854.734314 -36.241585 735.708862
v -854.734314 -28.878162 890.781494
v -854.734314 5.117605 1268.369629
v -1071.555542 -33.885170 627.323792
v -1071.555542 -22.114042 358.470703
v -1071.555542 -17.905664 492.897278
v -1071.555542 -24.778177 735.708862
v -1071.555542 -16.497486 890.781494
v -1071.555542 18.722004 1268.369629
v -1722.455566 1.301716 627.323792
v -1722.455566 31.643456 358.470703
v -1722.455566 26.592356 492.897278
v -1722.455566 7.340747 735.708862
v -1722.455566 14.787037 890.781494
v -1722.455566 70.249352 1268.369629
v -854.734314 69.444237 1619.117676
v -1071.555542 67.647491 1619.117676
v -1722.455566 122.707039 1619.117676
vn 0.0722 0.9974 -0.0019
vn 0.1064 0.9932 -0.0479
vn 0.0948 0.9952 0.0245
vn 0.0580 0.9955 -0.0755
vn 0.0572 0.9959 -0.0706
vn 0.0434 0.9912 -0.1250
vn 0.0643 0.9977 0.0194
vn 0.0909 0.9956 -0.0224
vn 0.0814 0.9954 0.0511
vn 0.0540 0.9962 -0.0677
vn 0.0565 0.9954 -0.0777
vn 0.0574 0.9901 -0.1281
vn 0.0563 0.9976 0.0414
vn 0.0753 0.9972 0.0031
vn 0.0681 0.9947 0.0769
vn 0.0500 0.9969 -0.0601
vn 0.0559 0.9948 -0.0850
vn 0.0720 0.9888 -0.1309
vn 0.0269 0.9869 -0.1593
vn 0.0539 0.9871 -0.1510
vn 0.0808 0.9865 -0.1426
vt 0.289920 0.422049
vt 0.289920 0.440974
vt 0.259395 0.440974
vt 0.259395 0.422049
vt 0.289920 0.384959
vt 0.289920 0.406790
vt 0.259395 0.406790
vt 0.259395 0.384959
vt 0.289920 0.459899
vt 0.259395 0.459899
vt 0.289920 0.331801
vt 0.259395 0.331801
vt 0.167759 0.440974
vt 0.167759 0.422049
vt 0.167759 0.406790
vt 0.167759 0.384959
vt 0.167759 0.459899
vt 0.167759 0.331801
vt 0.259395 0.282421
vt 0.289920 0.282421
vt 0.167759 0.282421
s 1
f 1/1/1 3/2/3 9/3/9 7/4/7
f 5/5/5 4/6/4 10/7/10 11/8/11
f 4/6/4 1/1/1 7/4/7 10/7/10
f 3/2/3 2/9/2 8/10/8 9/3/9
f 6/11/6 5/5/5 11/8/11 12/12/12
f 7/4/7 9/3/9 15/13/15 13/14/13
f 11/8/11 10/7/10 16/15/16 17/16/17
f 9/3/9 8/10/8 14/17/14 15/13/15
f 12/12/12 11/8/11 17/16/17 18/18/18
f 10/7/10 7/4/7 13/14/13 16/15/16
f 6/11/6 12/12/12 20/19/20 19/20/19
f 12/12/12 18/18/18 21/21/21 20/19/20
