# Blender 4.5.3 LTS
# www.blender.org
o Terreno.009
v 830.831543 35.058239 627.323853
v 267.267944 -25.590313 629.717529
v 835.556946 29.631725 360.495972
v 836.417053 25.023752 271.246887
v 688.388245 25.247936 286.605438
v 609.311768 29.704353 389.273438
v 586.257019 15.299012 627.325867
v 434.522980 5.155596 628.064880
v 254.869888 -14.251337 383.720825
v 494.543365 16.273306 401.512726
v 620.874817 21.651613 297.518433
v 258.534607 -196.722794 309.586456
v 432.201843 -196.385101 317.703461
v 548.744385 -195.553665 248.006897
v 831.389282 40.914497 493.136353
v 260.846405 -15.715531 501.480469
v 444.064056 18.005306 504.193146
v 595.175476 31.688705 504.839752
v 830.831543 52.830601 735.708923
v 266.851654 -12.739750 735.708923
v 586.252258 31.155077 735.708923
v 434.394104 19.478788 735.708923
v 456.146942 -6.212792 369.132141
v 585.457581 1.225665 287.449402
v 261.476074 -27.559019 358.530884
v 398.927948 1.010984 415.496948
v 350.895447 -10.334219 628.891174
v 369.589569 -196.553955 336.525146
v 366.456940 1.144887 504.285217
v 350.622894 3.059904 735.708923
v 383.032837 -16.885906 386.711700
v 830.831543 68.732330 890.781494
v 266.851654 -4.062181 890.781494
v 586.252258 44.429558 890.781494
v 434.394104 30.707083 890.781494
v 350.622894 13.044436 890.781494
v 1202.106934 38.158939 627.323792
v 1202.106934 29.820356 360.495941
v 1202.106934 25.023750 271.246887
v 1202.106934 42.550678 493.136322
v 1202.106934 57.114601 735.708862
v 1202.106934 74.681770 890.781433
vn -0.0398 0.9980 -0.0497
vn -0.1754 0.9843 -0.0213
vn -0.0075 0.9981 -0.0618
vn -0.0025 0.9987 -0.0510
vn -0.0323 0.9975 -0.0632
vn -0.0672 0.9954 -0.0686
vn -0.0734 0.9970 -0.0232
vn -0.1354 0.9906 -0.0197
vn -0.0382 0.9518 -0.3043
vn -0.1844 0.9641 -0.1910
vn -0.1712 0.9677 -0.1852
vn 0.2114 0.2580 -0.9427
vn -0.3929 0.2785 -0.8764
vn -0.5112 0.2716 -0.8154
vn -0.0226 0.9997 -0.0072
vn -0.1462 0.9887 0.0318
vn -0.1449 0.9894 0.0104
vn -0.0673 0.9974 0.0246
vn -0.0500 0.9902 -0.1301
vn -0.1870 0.9782 -0.0905
vn -0.0828 0.9898 -0.1157
vn -0.1345 0.9856 -0.1026
vn -0.3410 0.6845 -0.6443
vn -0.4212 0.6895 -0.5892
vn 0.1374 0.5839 -0.8001
vn -0.1517 0.9627 -0.2241
vn -0.1831 0.9828 -0.0236
vn -0.0225 0.2770 -0.9606
vn -0.1681 0.9856 0.0168
vn -0.1899 0.9774 -0.0933
vn -0.0678 0.6711 -0.7383
vn -0.0532 0.9935 -0.1004
vn -0.1924 0.9795 -0.0589
vn -0.0882 0.9924 -0.0859
vn -0.1401 0.9874 -0.0729
vn -0.1957 0.9786 -0.0630
vn -0.0081 0.9979 -0.0647
vn -0.0014 0.9974 -0.0714
vn -0.0003 0.9986 -0.0526
vn -0.0044 0.9997 -0.0260
vn -0.0118 0.9905 -0.1372
vn -0.0137 0.9941 -0.1073
vt 0.461843 0.439371
vt 0.446975 0.439766
vt 0.447879 0.421712
vt 0.459652 0.421828
vt 0.494042 0.439293
vt 0.472769 0.439384
vt 0.471425 0.421945
vt 0.492787 0.422049
vt 0.527297 0.440940
vt 0.527219 0.422049
vt 0.479875 0.453839
vt 0.496033 0.455562
vt 0.507165 0.470016
vt 0.497660 0.468480
vt 0.527884 0.459614
vt 0.528005 0.472178
vt 0.464176 0.455923
vt 0.474470 0.458398
vt 0.471099 0.465638
vt 0.462284 0.462988
vt 0.492674 0.469897
vt 0.487506 0.475450
vt 0.466414 0.451871
vt 0.446133 0.456344
vt 0.471407 0.406790
vt 0.492786 0.406790
vt 0.447820 0.406790
vt 0.459614 0.406790
vt 0.527219 0.406790
vt 0.447063 0.459890
vt 0.446649 0.466781
vt 0.492786 0.384959
vt 0.527219 0.384959
vt 0.447820 0.384959
vt 0.459614 0.384959
vt 0.471407 0.384959
vt 0.579208 0.406790
vt 0.579208 0.422049
vt 0.579287 0.440940
vt 0.579874 0.459614
vt 0.579208 0.384959
vt 0.579995 0.472178
s 1
f 29/1/29 16/2/16 2/3/2 27/4/27
f 18/5/18 17/6/17 8/7/8 7/8/7
f 15/9/15 18/5/18 7/8/7 1/10/1
f 10/11/10 6/12/6 5/13/5 11/14/11
f 6/12/6 3/15/3 4/16/4 5/13/5
f 31/17/31 23/18/23 13/19/13 28/20/28
f 23/18/23 24/21/24 14/22/14 13/19/13
f 3/15/3 6/12/6 18/5/18 15/9/15
f 6/12/6 10/11/10 17/6/17 18/5/18
f 26/23/26 9/24/9 16/2/16 29/1/29
f 7/8/7 8/7/8 22/25/22 21/26/21
f 27/4/27 2/3/2 20/27/20 30/28/30
f 1/10/1 7/8/7 21/26/21 19/29/19
f 10/11/10 11/14/11 24/21/24 23/18/23
f 26/23/26 10/11/10 23/18/23 31/17/31
f 9/24/9 26/23/26 31/17/31 25/30/25
f 8/7/8 27/4/27 30/28/30 22/25/22
f 10/11/10 26/23/26 29/1/29 17/6/17
f 25/30/25 31/17/31 28/20/28 12/31/12
f 17/6/17 29/1/29 27/4/27 8/7/8
f 19/29/19 21/26/21 34/32/34 32/33/32
f 30/28/30 20/27/20 33/34/33 36/35/36
f 21/26/21 22/25/22 35/36/35 34/32/34
f 22/25/22 30/28/30 36/35/36 35/36/35
f 1/10/1 19/29/19 41/37/41 37/38/37
f 3/15/3 15/9/15 40/39/40 38/40/38
f 19/29/19 32/33/32 42/41/42 41/37/41
f 4/16/4 3/15/3 38/40/38 39/42/39
f 15/9/15 1/10/1 37/38/37 40/39/40
