# Blender 4.5.3 LTS
# www.blender.org
o Diamante_LOD00
v -3.674772 0.000000 0.000000
v -0.000003 5.316629 0.000000
v -0.000002 -5.316630 0.000000
v 3.674767 0.000000 0.000000
v -0.000002 -2.353647 1.608037
v 1.626800 0.000000 1.608037
v -0.000002 2.353647 1.608037
v -1.626805 0.000000 1.608037
vn -0.0000 -0.0000 1.0000
vn 0.5680 -0.3926 0.7234
vn 0.5680 0.3926 0.7234
vn -0.5680 0.3926 0.7234
vn -0.5680 -0.3926 0.7234
vt 0.444663 0.819663
vt 0.555337 0.819663
vt 0.555337 0.930337
vt 0.444663 0.930337
vt 0.375000 0.750000
vt 0.625000 0.750000
vt 0.625000 1.000000
vt 0.375000 1.000000
s 0
f 5/1/1 6/2/1 7/3/1 8/4/1
f 3/5/2 4/6/2 6/2/2 5/1/2
f 4/6/3 2/7/3 7/3/3 6/2/3
f 2/7/4 1/8/4 8/4/4 7/3/4
f 1/8/5 3/5/5 5/1/5 8/4/5
