# Blender 4.5.3 LTS
# www.blender.org
o Plane.001
v -5.466676 47.430519 -0.000000
v 5.466676 47.430519 -0.000000
v -5.466676 69.482216 0.000001
v 5.466676 69.482216 0.000001
v -5.466676 17.097143 -0.000001
v 5.466676 17.097143 -0.000001
v 0.000000 47.430519 -0.000000
v 0.000000 69.482216 0.000001
v 0.000000 28.426527 -0.000001
vn -0.0000 -0.0000 1.0000
vt 0.162711 0.362356
vt 0.299559 0.362356
vt 0.299559 0.914381
vt 0.162711 0.914381
vt 0.447207 0.869673
vt 0.310359 0.869673
vt 0.310359 0.093630
vt 0.447207 0.321570
vt 0.584056 0.869673
vt 0.584056 0.093630
vt 0.025863 0.362356
vt 0.025863 0.914381
s 0
g Plane.001_Vidriera
f 7/1/1 2/2/1 4/3/1 8/4/1
f 7/5/1 1/6/1 5/7/1 9/8/1
f 2/9/1 7/5/1 9/8/1 6/10/1
f 1/11/1 7/1/1 8/4/1 3/12/1
