# Blender 4.5.3 LTS
# www.blender.org
o Caja_1_LOD00
v -2.720328 -2.720898 2.721470
v -2.720328 2.720905 2.721470
v -2.721462 -2.720898 -2.720326
v -2.721462 2.720905 -2.720326
v 2.721462 -2.720898 2.720326
v 2.721462 2.720905 2.720325
v 2.720328 -2.720898 -2.721469
v 2.720328 2.720905 -2.721470
v -2.720407 -2.334780 2.335345
v -2.720407 2.334776 2.335345
v -2.721388 2.334775 -2.334211
v -2.721388 -2.334781 -2.334211
v -2.335353 -2.334781 -2.720409
v -2.335353 2.334775 -2.720409
v 2.334203 2.334775 -2.721390
v 2.334203 -2.334780 -2.721390
v 2.720407 -2.334780 -2.335345
v 2.720407 2.334776 -2.335345
v 2.721388 2.334776 2.334211
v 2.721388 -2.334780 2.334212
v 2.335353 -2.334780 2.720409
v 2.335353 2.334776 2.720409
v -2.334203 2.334776 2.721390
v -2.334203 -2.334780 2.721390
v -2.335264 -2.720898 -2.334290
v 2.334293 -2.720898 -2.335272
v 2.335263 -2.720898 2.334291
v -2.334292 -2.720898 2.335272
v 2.334293 2.720905 -2.335272
v -2.335264 2.720905 -2.334291
v -2.334292 2.720905 2.335271
v 2.335263 2.720905 2.334290
v -2.415570 -2.334780 2.335288
v -2.415570 2.334776 2.335287
v -2.416551 -2.334781 -2.334268
v -2.416552 2.334775 -2.334269
v -2.335286 2.334775 -2.415578
v -2.335286 -2.334781 -2.415578
v 2.334271 -2.334780 -2.416559
v 2.334271 2.334776 -2.416559
v 2.415570 2.334776 -2.335288
v 2.415570 -2.334780 -2.335288
v 2.416551 -2.334780 2.334269
v 2.416551 2.334776 2.334269
v 2.335286 2.334776 2.415578
v 2.335286 -2.334780 2.415578
v -2.334271 -2.334780 2.416560
v -2.334271 2.334776 2.416559
v 2.334293 -2.416063 -2.335272
v -2.335264 -2.416063 -2.334290
v -2.334292 -2.416063 2.335272
v 2.335263 -2.416062 2.334291
v -2.335264 2.416069 -2.334291
v 2.334293 2.416069 -2.335272
v 2.335263 2.416069 2.334290
v -2.334292 2.416069 2.335271
vn -0.0002 -0.0000 -1.0000
vn 1.0000 -0.0000 -0.0002
vn -1.0000 -0.0000 0.0002
vn 0.0002 -0.0000 1.0000
vn -0.0000 -1.0000 -0.0000
vn -0.0000 1.0000 -0.0000
vt 0.047871 0.595252
vt 0.407589 0.596188
vt 0.046934 0.954970
vt 0.047870 0.595252
vt 0.407589 0.596188
vt 0.406652 0.955907
vt 0.436320 0.985729
vt 0.017112 0.984637
vt 0.018203 0.565429
vt 0.047870 0.595252
vt 0.437411 0.566521
vt 0.046934 0.954971
vt 0.018203 0.565430
vt 0.437411 0.566522
vt 0.017112 0.984638
vt 0.018204 0.565430
vt 0.436320 0.985729
vt 0.437412 0.566522
s 1
g Caja_1_LOD00_Barril
f 27/1/1 28/2/1 51/2/1 52/1/1
f 30/3/2 31/1/2 56/1/2 53/3/2
f 23/1/2 24/2/2 47/2/2 48/1/2
f 26/3/3 27/1/3 52/1/3 49/3/3
f 19/4/1 20/2/1 43/2/1 44/4/1
f 32/5/3 29/6/3 54/6/3 55/5/3
f 1/7/3 2/8/3 10/3/3 9/6/3
f 2/8/3 4/9/3 11/10/3 10/3/3
f 4/9/3 3/11/3 12/5/3 11/10/3
f 3/11/3 1/7/3 9/6/3 12/5/3
f 3/7/1 4/8/1 14/12/1 13/6/1
f 4/8/1 8/13/1 15/4/1 14/12/1
f 8/13/1 7/14/1 16/5/1 15/4/1
f 7/14/1 3/7/1 13/6/1 16/5/1
f 7/7/2 8/15/2 18/12/2 17/6/2
f 8/15/2 6/13/2 19/4/2 18/12/2
f 6/13/2 5/14/2 20/2/2 19/4/2
f 5/14/2 7/7/2 17/6/2 20/2/2
f 5/7/4 6/8/4 22/3/4 21/6/4
f 6/8/4 2/16/4 23/1/4 22/3/4
f 2/16/4 1/14/4 24/2/4 23/1/4
f 1/14/4 5/7/4 21/6/4 24/2/4
f 3/17/5 7/8/5 26/3/5 25/6/5
f 7/8/5 5/13/5 27/1/5 26/3/5
f 5/13/5 1/18/5 28/2/5 27/1/5
f 1/18/5 3/17/5 25/6/5 28/2/5
f 8/7/6 4/8/6 30/3/6 29/6/6
f 4/8/6 2/13/6 31/1/6 30/3/6
f 2/13/6 6/14/6 32/5/6 31/1/6
f 6/14/6 8/7/6 29/6/6 32/5/6
f 33/6/3 34/3/3 36/10/3 35/5/3
f 38/6/1 37/12/1 40/4/1 39/5/1
f 42/6/2 41/12/2 44/4/2 43/2/2
f 46/6/4 45/3/4 48/1/4 47/2/4
f 50/6/5 49/3/5 52/1/5 51/2/5
f 54/6/6 53/3/6 56/1/6 55/5/6
f 31/1/1 32/5/1 55/5/1 56/1/1
f 9/6/1 10/3/1 34/3/1 33/6/1
f 13/6/2 14/12/2 37/12/2 38/6/2
f 12/5/6 9/6/6 33/6/6 35/5/6
f 17/6/4 18/12/4 41/12/4 42/6/4
f 16/5/6 13/6/6 38/6/6 39/5/6
f 21/6/3 22/3/3 45/3/3 46/6/3
f 10/3/5 11/10/5 36/10/5 34/3/5
f 20/2/6 17/6/6 42/6/6 43/2/6
f 25/6/4 26/3/4 49/3/4 50/6/4
f 14/12/5 15/4/5 40/4/5 37/12/5
f 24/2/6 21/6/6 46/6/6 47/2/6
f 29/6/4 30/3/4 53/3/4 54/6/4
f 11/10/4 12/5/4 35/5/4 36/10/4
f 18/12/5 19/4/5 44/4/5 41/12/5
f 28/2/2 25/6/2 50/6/2 51/2/2
f 15/4/3 16/5/3 39/5/3 40/4/3
f 22/3/5 23/1/5 48/1/5 45/3/5
o Caja_1_LOD01
v -2.720328 -2.720898 2.721470
v -2.720328 2.720905 2.721470
v -2.721462 -2.720898 -2.720326
v -2.721462 2.720905 -2.720326
v 2.721462 -2.720898 2.720326
v 2.721462 2.720905 2.720325
v 2.720328 -2.720898 -2.721469
v 2.720328 2.720905 -2.721470
v -2.720407 -2.334780 2.335345
v -2.720407 2.334776 2.335345
v -2.721388 2.334775 -2.334211
v -2.619775 -2.334781 -2.334231
v -2.335331 -2.334781 -2.618799
v -2.335353 2.334775 -2.720409
v 2.334217 2.334776 -2.660424
v 2.334203 -2.334780 -2.721390
v 2.644199 -2.334781 -2.335330
v 2.720407 2.334776 -2.335345
v 2.645179 2.334776 2.334227
v 2.721388 -2.334780 2.334212
v 2.335353 -2.334780 2.720409
v 2.335336 2.334776 2.644201
v -2.334203 2.334776 2.721390
v -2.334220 -2.334781 2.645183
v -2.335264 -2.720898 -2.334290
v 2.334293 -2.644689 -2.335272
v 2.335263 -2.720898 2.334291
v -2.334292 -2.644689 2.335272
v 2.334293 2.659938 -2.335272
v -2.335264 2.720905 -2.334291
v -2.334292 2.644696 2.335271
v 2.335263 2.720905 2.334290
v -2.415570 -2.334780 2.335288
v -2.415570 2.334776 2.335287
v -2.416552 2.334775 -2.334269
v -2.335286 2.334775 -2.415578
v 2.334271 -2.334780 -2.416559
v 2.415570 2.334776 -2.335288
v 2.416551 -2.334780 2.334269
v 2.335286 -2.334780 2.415578
v -2.334271 2.334776 2.416559
v -2.335264 -2.416063 -2.334290
v 2.335263 -2.416062 2.334291
v -2.335264 2.416069 -2.334291
v 2.335263 2.416069 2.334290
vn -0.0002 -0.0000 -1.0000
vn 1.0000 -0.0000 -0.0002
vn -1.0000 -0.0000 0.0002
vn -0.0000 1.0000 -0.0000
vn 0.0002 -0.0000 1.0000
vn -0.0000 -1.0000 -0.0000
vn -0.9979 0.0654 -0.0048
vn -0.9978 -0.0050 0.0656
vn -0.9963 0.0605 0.0607
vn 0.0682 -0.0444 -0.9967
vn 0.0603 0.0605 -0.9963
vn -0.0366 -0.0364 -0.9987
vn -0.0447 0.0684 -0.9967
vn 0.9972 -0.0530 0.0528
vn 0.9979 0.0455 0.0453
vn 0.9979 -0.0455 -0.0457
vn 0.9972 0.0530 -0.0532
vn -0.0453 -0.0455 0.9979
vn -0.0528 0.0530 0.9972
vn -0.0527 0.0530 0.9972
vn 0.0532 -0.0530 0.9972
vn 0.0457 0.0455 0.9979
vn 0.0530 -0.9972 0.0530
vn -0.0455 -0.9979 0.0455
vn -0.0530 -0.9972 -0.0530
vn 0.0455 -0.9979 -0.0455
vn -0.0364 0.9987 0.0364
vn 0.0522 0.9977 0.0432
vn 0.0455 0.9979 -0.0455
vn -0.0432 0.9977 -0.0522
vn -0.9995 0.0218 0.0220
vn -0.0046 -0.0044 -1.0000
vn -0.0016 1.0000 0.0016
vt 0.407589 0.596188
vt 0.047871 0.595252
vt 0.046934 0.954970
vt 0.407589 0.596188
vt 0.406652 0.955907
vt 0.407589 0.596188
vt 0.406652 0.955907
vt 0.046934 0.954970
vt 0.047870 0.595252
vt 0.046934 0.954971
vt 0.407589 0.596188
vt 0.047870 0.595252
vt 0.047870 0.595252
vt 0.436320 0.985729
vt 0.017112 0.984637
vt 0.018203 0.565429
vt 0.437411 0.566521
vt 0.018203 0.565430
vt 0.437411 0.566522
vt 0.017112 0.984638
vt 0.018204 0.565430
vt 0.436320 0.985729
vt 0.437412 0.566522
s 1
g Caja_1_LOD01_Barril
f 84/19/7 99/20/7 83/20/7
f 87/20/8 100/21/8 86/21/8
f 80/22/8 97/20/8 79/20/8
f 85/23/9 101/24/9 88/24/9
f 72/24/10 69/25/10 93/24/10
f 78/21/9 96/23/9 77/23/9
f 73/23/10 95/22/10 76/22/10
f 82/26/11 98/23/11 81/23/11
f 71/27/12 92/28/12 70/28/12
f 68/29/11 91/30/11 67/30/11
f 74/28/12 75/31/12 94/28/12
f 83/20/9 99/20/9 82/26/9
f 76/22/7 95/22/7 75/31/7
f 66/21/9 65/23/13 57/32/13 58/33/9
f 66/21/9 58/33/9 60/34/14 67/30/14
f 67/30/14 60/34/14 59/35/15 68/29/15
f 65/23/13 68/29/15 59/35/15 57/32/13
f 70/28/16 69/25/17 59/32/17 60/33/16
f 71/27/18 70/28/16 60/33/16 64/36/18
f 71/27/18 64/36/18 63/37/19 72/24/19
f 72/24/19 63/37/19 59/32/17 69/25/17
f 74/28/20 73/23/21 63/32/21 64/38/20
f 74/28/20 64/38/20 62/36/22 75/31/22
f 75/31/22 62/36/22 61/37/23 76/22/23
f 73/23/21 76/22/23 61/37/23 63/32/21
f 78/21/24 77/23/25 61/32/26 62/33/24
f 79/20/27 78/21/24 62/33/24 58/39/27
f 79/20/27 58/39/27 57/37/28 80/22/28
f 80/22/28 57/37/28 61/32/26 77/23/25
f 81/23/29 59/40/29 63/33/30 82/26/30
f 82/26/30 63/33/30 61/36/31 83/20/31
f 83/20/31 61/36/31 57/41/32 84/19/32
f 84/19/32 57/41/32 59/40/29 81/23/29
f 85/23/33 64/32/33 60/33/34 86/21/34
f 87/20/35 86/21/34 60/33/34 58/36/35
f 88/24/36 87/20/35 58/36/35 62/37/36
f 85/23/33 88/24/36 62/37/36 64/32/33
f 91/30/37 68/29/37 89/23/37 90/21/37
f 93/24/38 69/25/38 92/28/38 71/27/38
f 95/22/8 73/23/8 94/28/8 75/31/8
f 97/20/11 80/22/11 96/23/11 78/21/11
f 99/20/12 84/19/12 98/23/12 82/26/12
f 101/24/39 85/23/39 100/21/39 87/20/39
f 89/23/7 65/23/7 66/21/7 90/21/7
f 88/24/7 101/24/7 87/20/7
f 91/30/12 90/21/12 66/21/12 67/30/12
f 70/28/8 92/28/8 69/25/8
f 65/23/10 89/23/10 68/29/10
f 74/28/11 94/28/11 73/23/11
f 80/22/10 77/23/10 96/23/10
f 86/21/11 100/21/11 85/23/11
f 81/23/8 98/23/8 84/19/8
f 72/24/9 93/24/9 71/27/9
f 79/20/12 97/20/12 78/21/12
o Caja_1_LOD02
v -2.511341 -2.519241 2.519768
v -2.518712 2.519243 2.512400
v -2.519767 -2.511872 -2.518713
v -2.512396 2.511873 -2.511346
v 2.512396 -2.511871 2.511346
v 2.519768 2.511874 2.518713
v 2.518713 -2.519242 -2.512400
v 2.511341 2.519243 -2.519769
vn -1.0000 -0.0000 0.0002
vn -0.0002 -0.0000 -1.0000
vn 1.0000 -0.0000 -0.0002
vn 0.0002 -0.0000 1.0000
vn -0.0000 -1.0000 -0.0000
vn -0.0000 1.0000 -0.0000
vt 0.025209 0.572472
vt 0.428231 0.575653
vt 0.428957 0.978329
vt 0.027392 0.974411
vt 0.430010 0.573884
vt 0.418628 0.967945
vt 0.036432 0.965418
vt 0.028430 0.575710
vt 0.428770 0.575118
vt 0.426960 0.976321
vt 0.025380 0.976412
vt 0.027563 0.574839
vt 0.039282 0.586618
vt 0.417768 0.586063
vt 0.422469 0.971806
vt 0.032063 0.969763
vt 0.025209 0.572472
vt 0.032063 0.969763
vt 0.430010 0.573884
vt 0.418478 0.967794
s 1
g Caja_1_LOD02_Barril
f 105/42/40 104/43/40 102/44/40 103/45/40
f 108/46/41 104/47/41 105/48/41 109/49/41
f 106/50/42 108/51/42 109/52/42 107/53/42
f 103/54/43 102/55/43 106/56/43 107/57/43
f 106/58/44 102/55/44 104/47/44 108/59/44
f 107/60/45 109/61/45 105/48/45 103/54/45
