# Blender 4.5.3 LTS
# www.blender.org
o Carro_LOD00
v -8.283069 2.042040 4.208490
v 4.064259 -1.151983 4.208488
v -8.283069 2.042039 -4.208491
v 4.064259 -1.151983 -4.208491
v -7.570577 2.968372 -4.208491
v -7.570577 2.968373 4.208490
v 3.663178 0.062412 4.208488
v 3.663178 0.062412 -4.208491
v -9.159823 1.601888 -4.002902
v -8.847462 2.816988 -4.002902
v -9.159823 1.601887 -5.257507
v -8.847462 2.816988 -5.257507
v 10.911192 -3.557737 -4.002901
v 9.879285 -1.997070 -4.002901
v 10.911192 -3.557737 -5.257507
v 9.879285 -1.997070 -5.257507
v -9.159823 1.601888 4.002901
v -8.847460 2.816987 4.002901
v -9.159823 1.601888 5.257507
v -8.847460 2.816987 5.257507
v 10.911192 -3.557736 4.002900
v 9.879287 -1.997070 4.002900
v 10.911192 -3.557736 5.257505
v 9.879287 -1.997069 5.257505
v -7.977352 7.335182 -3.949666
v -7.406094 7.209358 -3.949666
v -7.977352 7.335182 -5.310745
v -7.406094 7.209358 -5.310745
v -9.303850 1.312672 -3.949665
v -8.732594 1.186850 -3.949665
v -9.303850 1.312672 -5.310745
v -8.732594 1.186850 -5.310745
v -7.977352 7.335183 3.949664
v -7.406096 7.209359 3.949664
v -7.977352 7.335183 5.310743
v -7.406096 7.209359 5.310743
v -9.303850 1.312673 3.949665
v -8.732594 1.186851 3.949665
v -9.303850 1.312673 5.310744
v -8.732594 1.186851 5.310744
vn -0.2504 -0.9681 -0.0000
vn 0.2504 0.9681 -0.0000
vn -0.0000 -0.0000 -1.0000
vn -0.0000 -0.0000 1.0000
vn 0.9496 0.3136 -0.0000
vn -0.7927 0.6097 -0.0000
vn 0.8342 0.5515 -0.0000
vn 0.6135 0.7897 -0.0000
vn -0.2490 -0.9685 -0.0000
vn 0.2490 0.9685 -0.0000
vn 0.2151 0.9766 -0.0000
vn -0.2151 -0.9766 -0.0000
vn -0.9766 0.2151 -0.0000
vn 0.9766 -0.2151 -0.0000
vt 0.298737 0.492845
vt 0.298918 0.740945
vt 0.026224 0.741143
vt 0.026044 0.493042
vt 0.313265 0.492834
vt 0.560871 0.492922
vt 0.561517 0.740015
vt 0.313445 0.740935
vt 0.576774 0.753071
vt 0.308352 0.754266
vt 0.308142 0.479248
vt 0.573865 0.479259
vt 0.579215 0.853846
vt 0.579302 0.837933
vt 0.056025 0.836430
vt 0.016280 0.852235
vt 0.016690 0.829018
vt 0.056025 0.790554
vt 0.016690 0.779644
vt 0.579302 0.790962
vt 0.579197 0.774836
vt 0.016145 0.899217
vt 0.579081 0.900828
vt 0.686280 0.447187
vt 0.686386 0.520507
vt 0.613067 0.520612
vt 0.612961 0.447293
vt 0.539642 0.447399
vt 0.539532 0.371447
vt 0.612851 0.371342
vt 0.613282 0.669883
vt 0.613176 0.596563
vt 0.686496 0.596458
vt 0.686602 0.669777
vt 0.686171 0.371236
vt 0.759490 0.371130
vt 0.759600 0.447082
s 1
g Carro_LOD00_Fruta
f 1/1/1 3/2/1 4/3/1 2/4/1
f 6/5/2 7/6/2 8/7/2 5/8/2
f 4/9/3 3/10/3 5/8/3 8/7/3
f 1/11/4 2/12/4 7/6/4 6/5/4
f 2/12/5 4/9/5 8/7/5 7/6/5
f 3/2/6 1/1/6 6/5/6 5/8/6
f 11/13/3 12/14/3 16/15/3 15/16/3
f 15/17/7 16/15/8 14/18/8 13/19/7
f 13/19/4 14/18/4 10/20/4 9/21/4
f 11/13/9 15/16/9 13/22/9 9/23/9
f 16/15/8 12/14/10 10/20/10 14/18/8
f 19/13/4 23/16/4 24/15/4 20/14/4
f 23/17/7 21/19/7 22/18/8 24/15/8
f 21/19/3 17/21/3 18/20/3 22/18/3
f 19/13/9 17/23/9 21/22/9 23/16/9
f 24/15/8 22/18/8 18/20/10 20/14/10
f 25/24/11 26/25/11 28/26/11 27/27/11
f 27/27/3 28/28/3 32/29/3 31/30/3
f 31/31/12 32/32/12 30/33/12 29/34/12
f 29/35/4 30/36/4 26/37/4 25/24/4
f 27/27/13 31/30/13 29/35/13 25/24/13
f 32/32/14 28/26/14 26/25/14 30/33/14
f 33/24/11 35/27/11 36/26/11 34/25/11
f 35/27/4 39/30/4 40/29/4 36/28/4
f 39/31/12 37/34/12 38/33/12 40/32/12
f 37/35/3 33/24/3 34/37/3 38/36/3
f 35/27/13 33/24/13 37/35/13 39/30/13
f 40/32/14 38/33/14 34/25/14 36/26/14
o Carro_LOD01
v -7.926823 2.505207 4.208490
v 4.064259 -1.151983 4.208488
v -8.283069 2.042039 -4.208491
v 3.863718 -0.544786 -4.208491
v -7.570577 2.968372 -4.208491
v 3.663178 0.062412 4.208488
v -9.159823 1.601888 -4.002902
v -8.847462 2.816988 -4.002902
v -9.159823 1.601887 -5.257507
v -8.847462 2.816988 -5.257507
v 10.911192 -3.557737 -4.002901
v 9.879285 -1.997070 -4.002901
v 10.395240 -2.777404 -5.257507
v -9.159823 1.601888 4.002901
v -8.847460 2.816987 4.002901
v -9.159823 1.601888 5.257507
v -8.847460 2.816987 5.257507
v 10.395240 -2.777403 4.002900
v 10.911192 -3.557736 5.257505
v 9.879287 -1.997069 5.257505
v -7.786932 7.293241 -3.949666
v -7.596513 7.251300 -5.310745
v -8.923012 1.228791 -3.949665
v -9.113432 1.270732 -5.310745
v -7.786933 7.293242 3.949664
v -7.596515 7.251301 5.310744
v -8.923013 1.228792 3.949665
v -9.113432 1.270733 5.310744
vn 0.9496 0.3136 -0.0000
vn -0.7927 0.6097 -0.0000
vn 0.8342 0.5515 -0.0000
vn 0.8533 0.5214 -0.0000
vn 0.2504 0.9681 -0.0000
vn -0.0000 -0.0000 1.0000
vn -0.0000 -0.0000 -1.0000
vn 0.8454 0.5334 0.0287
vn -0.2268 -0.9423 -0.2464
vn 0.2713 0.9235 -0.2712
vn 0.2437 0.9469 -0.2095
vn 0.2567 0.9366 -0.2385
vn -0.2504 -0.9681 -0.0000
vn -0.9766 0.2151 -0.0000
vn 0.9766 -0.2151 -0.0000
vt 0.573865 0.479259
vt 0.569146 0.746543
vt 0.560871 0.492922
vt 0.306001 0.492840
vt 0.313445 0.740935
vt 0.298918 0.740945
vt 0.036358 0.785099
vt 0.056025 0.836430
vt 0.016690 0.829018
vt 0.579197 0.774836
vt 0.016690 0.779644
vt 0.056025 0.790554
vt 0.579302 0.790962
vt 0.308352 0.754266
vt 0.310704 0.486041
vt 0.579215 0.853846
vt 0.579302 0.837933
vt 0.036358 0.832724
vt 0.016145 0.899217
vt 0.579081 0.900828
vt 0.036152 0.844333
vt 0.016280 0.852235
vt 0.026044 0.493042
vt 0.026224 0.741143
vt 0.710720 0.447152
vt 0.564082 0.447364
vt 0.588412 0.371377
vt 0.735050 0.371165
vt 0.686531 0.620898
vt 0.613246 0.645443
vt 0.613032 0.496173
vt 0.686316 0.471627
vt 0.588412 0.371377
vt 0.710720 0.447152
vt 0.735050 0.371165
vt 0.613032 0.496173
vt 0.686531 0.620898
vt 0.686316 0.471627
s 1
g Carro_LOD01_Fruta
f 42/38/15 44/39/15 46/40/15
f 41/41/16 45/42/16 43/43/16
f 58/44/17 60/45/18 59/46/17
f 45/42/19 41/41/19 46/40/19 44/39/19
f 47/47/20 51/48/20 52/49/20 48/50/20
f 43/51/21 45/42/21 44/39/21
f 41/52/20 42/38/20 46/40/20
f 49/53/21 50/54/21 53/55/21
f 53/55/22 52/49/18 51/48/17
f 51/56/23 47/57/23 49/53/23 53/58/23
f 52/49/24 53/55/25 50/54/26 48/50/26
f 60/45/20 57/54/20 56/53/20 59/59/20
f 59/59/23 56/53/23 54/57/23 58/56/23
f 42/60/27 41/41/27 43/43/27 44/61/27
f 54/47/21 55/50/21 58/44/21
f 55/50/26 57/54/26 60/45/24 58/44/25
f 61/62/28 62/63/28 64/64/28 63/65/28
f 63/66/29 64/67/29 62/68/29 61/69/29
f 68/70/28 66/63/28 65/71/28 67/72/28
f 66/73/29 68/67/29 67/74/29 65/75/29
o Carro_LOD02
v -7.926823 2.505207 4.208490
v 4.064259 -1.151983 4.208488
v -7.926823 2.505206 -4.208491
v 3.863718 -0.544786 -4.208491
v 3.663178 0.062412 4.208488
v -9.159823 1.601888 -4.002902
v -8.847462 2.816988 -4.630205
v -9.159823 1.601887 -5.257507
v 10.395240 -2.777404 -4.002901
v 10.395240 -2.777404 -5.257507
v -9.159823 1.601888 4.002901
v -8.847460 2.816987 4.002901
v -9.003641 2.209437 5.257507
v 10.395240 -2.777403 4.002900
v 10.395240 -2.777402 5.257505
v -7.786932 7.293241 -3.949666
v -7.596513 7.251300 -5.310745
v -8.923012 1.228791 -3.949665
v -9.113432 1.270732 -5.310745
v -7.786933 7.293242 3.949664
v -7.596515 7.251301 5.310744
v -8.923013 1.228792 3.949665
v -9.113432 1.270733 5.310744
vn 0.9496 0.3136 -0.0000
vn 0.2792 0.9602 -0.0000
vn 0.2790 0.9596 -0.0358
vn 0.2790 0.9596 0.0358
vn 0.2286 0.9730 -0.0324
vn -0.2185 -0.9758 -0.0000
vn -0.0000 -0.0000 1.0000
vn 0.0978 0.4366 -0.8943
vn 0.0978 0.4366 0.8943
vn -0.2268 -0.9433 0.2425
vn -0.2713 -0.9620 -0.0315
vn -0.0000 -0.0000 -1.0000
vn 0.2562 0.9357 0.2425
vn 0.2585 0.9441 0.2048
vn 0.2540 0.9275 0.2742
vn -0.9766 0.2151 -0.0000
vn 0.9766 -0.2151 -0.0000
vt 0.573865 0.479259
vt 0.569146 0.746543
vt 0.560871 0.492922
vt 0.579302 0.814447
vt 0.036358 0.785099
vt 0.036358 0.832724
vt 0.306181 0.740940
vt 0.306001 0.492840
vt 0.016145 0.899217
vt 0.579081 0.900828
vt 0.579215 0.853846
vt 0.036152 0.844333
vt 0.310704 0.486041
vt 0.579197 0.774836
vt 0.036152 0.844333
vt 0.579259 0.845889
vt 0.026044 0.493042
vt 0.026224 0.741143
vt 0.579302 0.790962
vt 0.036358 0.785099
vt 0.036358 0.832724
vt 0.710720 0.447152
vt 0.564082 0.447364
vt 0.588412 0.371377
vt 0.735050 0.371165
vt 0.686531 0.620898
vt 0.613246 0.645443
vt 0.613032 0.496173
vt 0.686316 0.471627
vt 0.588412 0.371377
vt 0.710720 0.447152
vt 0.735050 0.371165
vt 0.613032 0.496173
vt 0.686531 0.620898
vt 0.686316 0.471627
s 1
g Carro_LOD02_Fruta
f 70/76/30 72/77/30 73/78/30
f 75/79/31 77/80/32 78/81/33
f 71/82/34 69/83/34 73/78/34 72/77/34
f 77/84/35 74/85/35 76/86/35 78/87/35
f 69/88/36 70/76/36 73/78/36
f 76/86/37 75/79/37 78/81/37
f 77/80/38 75/79/38 74/89/38
f 83/90/39 81/91/39 79/85/39 82/84/39
f 70/92/40 69/83/40 71/82/40 72/93/40
f 79/89/41 80/94/41 82/95/41
f 80/94/42 81/91/42 83/96/43 82/95/44
f 84/97/45 85/98/45 87/99/45 86/100/45
f 86/101/46 87/102/46 85/103/46 84/104/46
f 91/105/45 89/98/45 88/106/45 90/107/45
f 89/108/46 91/102/46 90/109/46 88/110/46
