# Blender 4.5.3 LTS
# www.blender.org
o Fruta_LOD00
v 0.605060 -0.207634 -0.032954
v 0.161284 -0.276728 0.554712
v 0.053837 -0.426422 -0.474934
v -0.389939 -0.495515 0.112731
v 0.389939 0.495515 -0.112731
v -0.053837 0.426422 0.474934
v -0.161284 0.276728 -0.554712
v -0.605060 0.207634 0.032954
v 0.401643 -0.386500 -0.309592
v 0.467139 -0.295252 0.318047
v -0.139380 -0.470735 0.406852
v -0.204877 -0.561983 -0.220787
v -0.065496 -0.091248 -0.627639
v -0.606520 -0.175483 0.088805
v -0.467139 0.295252 -0.318047
v 0.139380 0.470735 -0.406852
v -0.401643 0.386500 0.309592
v 0.204877 0.561983 0.220787
v 0.606520 0.175483 -0.088805
v 0.065496 0.091248 0.627639
v 0.180596 -0.590298 0.066974
v -0.462755 -0.183673 -0.371045
v -0.180596 0.590298 -0.066974
v 0.462755 0.183673 0.371045
v 0.372552 0.058005 -0.493348
v -0.372552 -0.058005 0.493348
vn 0.9446 -0.3242 -0.0514
vn 0.7326 -0.4631 0.4988
vn 0.2908 -0.9507 0.1079
vn 0.6299 -0.6062 -0.4856
vn 0.2518 -0.4320 0.8660
vn -0.2186 -0.7383 0.6381
vn -0.6088 -0.7736 0.1760
vn -0.3213 -0.8814 -0.3463
vn 0.0840 -0.6657 -0.7415
vn -0.7453 -0.2958 -0.5976
vn -0.1027 -0.1431 -0.9844
vn -0.9512 -0.2752 0.1393
vn -0.9446 0.3242 0.0514
vn -0.7326 0.4631 -0.4988
vn -0.2518 0.4320 -0.8660
vn -0.2908 0.9507 -0.1079
vn 0.2186 0.7383 -0.6381
vn -0.6299 0.6062 0.4856
vn -0.0840 0.6657 0.7415
vn 0.3213 0.8814 0.3463
vn 0.6088 0.7736 -0.1760
vn 0.7453 0.2958 0.5976
vn 0.9512 0.2752 -0.1393
vn 0.1027 0.1431 0.9844
vn 0.6000 0.0934 -0.7945
vn -0.6000 -0.0934 0.7945
vt 0.074126 0.121872
vt 0.057864 0.196080
vt 0.148334 0.196080
vt 0.148334 0.105610
vt 0.074126 0.270288
vt 0.148334 0.286550
vt 0.222542 0.270288
vt 0.238804 0.196080
vt 0.222542 0.121872
vt 0.085647 0.067701
vt 0.053610 0.213895
vt 0.231840 0.213895
vt 0.231840 0.035665
vt 0.085647 0.360088
vt 0.231840 0.392125
vt 0.378034 0.360088
vt 0.410070 0.213895
vt 0.378034 0.067701
vt 0.394202 0.189010
vt 0.399809 0.214596
vt 0.368615 0.214596
vt 0.368615 0.183403
vt 0.394202 0.240183
vt 0.368615 0.245790
vt 0.343029 0.240183
vt 0.337422 0.214596
vt 0.343029 0.189010
vt 0.410070 0.213895
vt 0.053611 0.213895
vt 0.231840 0.392125
vt 0.231840 0.035665
s 1
g Fruta_LOD00_Fruta
f 1/1/1 10/2/2 21/3/3 9/4/4
f 10/2/2 2/5/5 11/6/6 21/3/3
f 21/3/3 11/6/6 4/7/7 12/8/8
f 9/4/4 21/3/3 12/8/8 3/9/9
f 3/10/9 12/11/8 22/12/10 13/13/11
f 12/11/8 4/14/7 14/15/12 22/12/10
f 22/12/10 14/15/12 8/16/13 15/17/14
f 13/13/11 22/12/10 15/17/14 7/18/15
f 7/19/15 15/20/14 23/21/16 16/22/17
f 15/20/14 8/23/13 17/24/18 23/21/16
f 23/21/16 17/24/18 6/25/19 18/26/20
f 16/22/17 23/21/16 18/26/20 5/27/21
f 5/18/21 18/28/20 24/12/22 19/13/23
f 18/28/20 6/16/19 20/15/24 24/12/22
f 24/12/22 20/15/24 2/14/5 10/29/2
f 19/13/23 24/12/22 10/29/2 1/10/1
f 3/14/9 13/15/11 25/12/25 9/11/4
f 13/15/11 7/16/15 16/17/17 25/12/25
f 25/12/25 16/17/17 5/18/21 19/13/23
f 9/11/4 25/12/25 19/13/23 1/10/1
f 8/16/13 14/30/12 26/12/26 17/28/18
f 14/30/12 4/14/7 11/11/6 26/12/26
f 26/12/26 11/11/6 2/10/5 20/31/24
f 17/28/18 26/12/26 20/31/24 6/18/19
o Fruta_LOD01
v 0.605060 -0.207634 -0.032954
v 0.161284 -0.276728 0.554712
v 0.053837 -0.426422 -0.474934
v -0.389939 -0.495515 0.112731
v 0.389939 0.495515 -0.112731
v -0.053837 0.426422 0.474934
v -0.161284 0.276728 -0.554712
v -0.605060 0.207634 0.032954
v 0.180596 -0.590298 0.066974
v -0.462755 -0.183673 -0.371045
v -0.180596 0.590298 -0.066974
v 0.462755 0.183673 0.371045
v 0.372552 0.058005 -0.493348
v -0.372552 -0.058005 0.493348
vn 0.6000 0.0934 -0.7945
vn 0.9446 -0.3242 -0.0514
vn 0.2908 -0.9507 0.1079
vn 0.0840 -0.6657 -0.7415
vn -0.7453 -0.2958 -0.5976
vn -0.6088 -0.7736 0.1760
vn -0.6000 -0.0934 0.7945
vn -0.9446 0.3242 0.0514
vn 0.6088 0.7736 -0.1760
vn 0.7453 0.2958 0.5976
vn -0.0840 0.6657 0.7415
vn -0.2908 0.9507 -0.1079
vn 0.2518 -0.4320 0.8660
vn -0.2518 0.4320 -0.8660
vt 0.231840 0.213895
vt 0.074126 0.121872
vt 0.148334 0.196080
vt 0.085647 0.360088
vt 0.378034 0.360088
vt 0.222542 0.121872
vt 0.085647 0.067701
vt 0.378034 0.067701
vt 0.343029 0.240183
vt 0.368615 0.214596
vt 0.394202 0.189010
vt 0.343029 0.189010
vt 0.074126 0.270288
vt 0.394202 0.240183
vt 0.222542 0.270288
s 1
g Fruta_LOD01_Fruta
f 39/32/27 27/33/28 35/34/29 29/35/30
f 36/32/31 30/35/32 40/32/33 34/36/34
f 36/32/31 29/37/30 35/34/29 30/35/32
f 27/38/28 39/32/27 31/39/35 38/32/36
f 32/40/37 37/41/38 34/36/34 40/32/33
f 38/32/36 32/39/37 40/32/33 28/35/39
f 31/39/35 39/32/27 33/42/40 37/41/38
f 33/36/40 39/32/27 29/38/30 36/32/31
f 38/32/36 31/43/35 37/41/38 32/36/37
f 35/34/29 27/38/28 38/32/36 28/44/39
f 37/41/38 33/39/40 36/32/31 34/45/34
f 35/34/29 28/38/39 40/32/33 30/46/32
