# Blender 4.5.3 LTS
# www.blender.org
o Pocion_2
v 0.190088 -2.725835 -0.496993
v -0.523328 -2.725835 -0.123615
v 0.563451 -2.725835 0.216410
v -0.149951 -2.725835 0.589787
v 0.524522 -2.725835 -0.217620
v -0.243955 -2.725835 -0.458062
v -0.484384 -2.725835 0.310415
v 0.284079 -2.725835 0.550843
v 0.020069 -2.725835 0.046390
v 1.060622 -0.284421 -0.566102
v 0.352266 -0.284421 -1.157822
v -0.567024 -0.284421 -1.075364
v -1.158745 -0.284421 -0.367008
v -1.076272 -0.284421 0.552283
v -0.367929 -0.284421 1.144003
v 0.551360 -0.284421 1.061530
v 1.143080 -0.284421 0.353188
v 0.514765 0.339309 -0.280411
v 0.168296 0.339309 -0.569834
v -0.281334 0.339309 -0.529507
v -0.570757 0.339309 -0.183038
v -0.530415 0.339309 0.266592
v -0.183960 0.339309 0.556015
v 0.265669 0.339309 0.515674
v 0.555093 0.339309 0.169218
v 0.514765 0.754440 -0.280412
v 0.168296 0.754440 -0.569834
v -0.281334 0.754440 -0.529507
v -0.570757 0.754440 -0.183038
v -0.530415 0.754440 0.266592
v -0.183960 0.754440 0.556015
v 0.265669 0.754440 0.515674
v 0.555093 0.754440 0.169218
v -0.007832 0.754440 -0.006910
v 0.142268 0.654886 -0.376107
v -0.376890 0.654886 -0.104395
v 0.412360 0.718795 0.139962
v -0.106799 0.718795 0.411674
v 0.384836 0.686840 -0.174343
v -0.173252 0.641649 -0.347130
v -0.349366 0.686840 0.209910
v 0.208722 0.732033 0.382697
v 0.067162 1.269880 -0.519610
v -0.451996 1.269880 -0.247898
v 0.423836 1.354282 0.161894
v -0.095323 1.354282 0.433606
v 0.353021 1.312081 -0.235135
v -0.266279 1.252394 -0.524894
v -0.381181 1.312081 0.149131
v 0.238132 1.371755 0.438890
v -0.014080 1.312081 -0.043002
vn -0.0000 -1.0000 -0.0000
vn 0.5669 0.6741 0.4736
vn -0.0660 0.6741 -0.7357
vn 0.0660 0.6741 0.7357
vn 0.4735 0.6741 -0.5669
vn -0.7421 -0.2549 -0.6199
vn -0.9662 -0.2428 0.0867
vn 0.9703 -0.2255 -0.0870
vn -0.6246 -0.2255 0.7477
vn 0.6219 -0.2428 -0.7445
vn 0.0873 -0.2131 0.9731
vn -0.0864 -0.2549 -0.9631
vn 0.7498 -0.2131 0.6264
vn 0.7674 -0.0000 0.6411
vn -0.0893 -0.0000 -0.9960
vn 0.0894 -0.0000 0.9960
vn 0.6411 -0.0000 -0.7675
vn -0.5669 0.6741 -0.4736
vn -0.7357 0.6741 0.0660
vn 0.7357 0.6741 -0.0660
vn -0.4736 0.6741 0.5669
vn -0.0000 1.0000 -0.0000
vn -0.7675 -0.0000 -0.6411
vn -0.9960 -0.0000 0.0894
vn 0.9960 -0.0000 -0.0893
vn -0.6411 -0.0000 0.7674
vn -0.0506 0.9940 -0.0966
vn 0.9737 -0.0250 0.2264
vn 0.8870 -0.0265 -0.4610
vn 0.9601 -0.0302 0.2780
vn -0.8843 -0.0265 0.4661
vn -0.3690 -0.0250 0.9291
vn -0.3188 -0.0302 0.9473
vn 0.3787 -0.1658 -0.9106
vn 0.3295 -0.1794 -0.9270
vn 0.4626 -0.0690 0.8839
vn -0.4447 -0.2837 -0.8496
vn -0.4446 -0.2837 -0.8496
vn -0.9640 -0.1658 -0.2078
vn -0.9494 -0.1794 -0.2576
vt 0.836776 0.028678
vt 0.870950 0.053146
vt 0.849558 0.061516
vt 0.829580 0.061128
vt 0.597594 0.054987
vt 0.577363 0.052961
vt 0.556555 0.040197
vt 0.593581 0.025400
vt 0.615914 0.048054
vt 0.631324 0.031510
vt 0.795640 0.035331
vt 0.811379 0.052890
vt 0.556555 0.194617
vt 0.600220 0.178173
vt 0.621756 0.216778
vt 0.600338 0.239517
vt 0.668485 0.154389
vt 0.709386 0.141939
vt 0.702314 0.194417
vt 0.675376 0.194017
vt 0.830938 0.183436
vt 0.873669 0.198058
vt 0.834015 0.242914
vt 0.811729 0.221969
vt 0.635387 0.166832
vt 0.647974 0.202240
vt 0.761815 0.162480
vt 0.719824 0.150572
vt 0.795769 0.173394
vt 0.639651 0.235420
vt 0.630984 0.264229
vt 0.700389 0.223466
vt 0.676771 0.216415
vt 0.806441 0.269203
vt 0.795445 0.241392
vt 0.656456 0.221113
vt 0.758160 0.201836
vt 0.728622 0.201555
vt 0.785310 0.208902
vt 0.763951 0.258534
vt 0.777782 0.228162
vt 0.671943 0.250144
vt 0.732599 0.232768
vt 0.757037 0.224460
vt 0.938786 0.119115
vt 0.937943 0.096802
vt 0.959918 0.102591
vt 0.969590 0.119115
vt 0.937943 0.141428
vt 0.959918 0.135638
vt 0.917557 0.133236
vt 0.914478 0.119115
vt 0.917557 0.104994
vt 0.883254 0.166238
vt 0.884636 0.150550
vt 0.915751 0.153291
vt 0.914024 0.173353
vt 0.884636 0.087679
vt 0.883254 0.071992
vt 0.914024 0.064876
vt 0.915751 0.084938
vt 0.886018 0.134863
vt 0.880579 0.056473
vt 0.911488 0.048488
vt 0.886097 0.119115
vt 0.880579 0.181757
vt 0.911488 0.189742
vt 0.886018 0.103367
s 1
g Pocion_2_Rampa
f 9/1/1 8/2/1 4/3/1 7/4/1
f 5/5/1 3/6/1 8/7/1 9/8/1
f 1/9/1 5/5/1 9/8/1 6/10/1
f 6/11/1 9/1/1 7/4/1 2/12/1
f 16/13/2 17/14/2 25/15/2 24/16/2
f 11/17/3 12/18/3 20/19/3 19/20/3
f 15/21/4 16/22/4 24/23/4 23/24/4
f 10/25/5 11/17/5 19/20/5 18/26/5
f 6/11/6 2/12/6 13/27/6 12/28/6
f 2/12/7 7/4/7 14/29/7 13/27/7
f 3/6/8 5/5/8 10/25/8 17/14/8
f 7/4/9 4/3/9 15/21/9 14/29/9
f 5/5/10 1/9/10 11/17/10 10/25/10
f 4/3/11 8/2/11 16/22/11 15/21/11
f 1/9/12 6/10/12 12/18/12 11/17/12
f 8/7/13 3/6/13 17/14/13 16/13/13
f 24/16/14 25/15/14 33/30/14 32/31/14
f 19/20/15 20/19/15 28/32/15 27/33/15
f 23/24/16 24/23/16 32/34/16 31/35/16
f 18/26/17 19/20/17 27/33/17 26/36/17
f 12/28/18 13/27/18 21/37/18 20/38/18
f 13/27/19 14/29/19 22/39/19 21/37/19
f 17/14/20 10/25/20 18/26/20 25/15/20
f 14/29/21 15/21/21 23/24/21 22/39/21
f 34/40/22 30/41/22 31/35/22 32/34/22
f 26/36/22 34/42/22 32/31/22 33/30/22
f 27/33/22 28/32/22 34/42/22 26/36/22
f 28/43/22 29/44/22 30/41/22 34/40/22
f 20/38/23 21/37/23 29/44/23 28/43/23
f 21/37/24 22/39/24 30/41/24 29/44/24
f 25/15/25 18/26/25 26/36/25 33/30/25
f 22/39/26 23/24/26 31/35/26 30/41/26
f 51/45/27 49/46/27 46/47/27 50/48/27
f 47/49/27 51/45/27 50/48/27 45/50/27
f 43/51/27 48/52/27 51/45/27 47/49/27
f 48/52/27 44/53/27 49/46/27 51/45/27
f 37/54/28 39/55/29 47/56/29 45/57/30
f 41/58/31 38/59/32 46/60/33 49/61/31
f 39/55/29 35/62/34 43/51/35 47/56/29
f 38/59/32 42/63/36 50/64/36 46/60/33
f 35/62/34 40/65/37 48/52/38 43/51/35
f 42/66/36 37/54/28 45/57/30 50/67/36
f 40/65/37 36/68/39 44/53/40 48/52/38
f 36/68/39 41/58/31 49/61/31 44/53/40
o Pocion_2_LOD01
v 0.438772 -2.730541 -0.374798
v -0.564661 -2.730541 0.150362
v 0.464437 -2.729710 0.418252
v -0.149951 -2.725835 0.589787
v -0.243955 -2.725835 -0.458062
v 1.060622 -0.284421 -0.566102
v 0.352266 -0.284421 -1.157822
v -0.567024 -0.284421 -1.075364
v -1.158745 -0.284421 -0.367008
v -1.076272 -0.284421 0.552283
v -0.367929 -0.284421 1.144003
v 0.551360 -0.284421 1.061530
v 1.143080 -0.284421 0.353188
v 0.514765 0.339309 -0.280411
v 0.168296 0.339309 -0.569834
v -0.281334 0.339309 -0.529507
v -0.570757 0.339309 -0.183038
v -0.530415 0.339309 0.266592
v -0.183960 0.339309 0.556015
v 0.265669 0.339309 0.515674
v 0.555093 0.339309 0.169218
v 0.377715 0.754440 -0.468426
v -0.281334 0.754440 -0.529507
v -0.615106 0.754440 0.099854
v -0.183960 0.754440 0.556015
v 0.497081 0.754440 0.346991
v 0.142268 0.654886 -0.376107
v -0.413648 0.665741 0.004231
v 0.448898 0.712218 0.030908
v -0.106799 0.718795 0.411674
v -0.173252 0.641649 -0.347130
v 0.208722 0.732033 0.382697
v -0.114113 1.256739 -0.562488
v -0.492426 1.278493 -0.073002
v 0.464903 1.333157 -0.011786
v 0.085951 1.368425 0.476473
vn -0.0020 -1.0000 0.0004
vn -0.3325 -0.6991 -0.6330
vn -0.0049 -0.8302 -0.5574
vn -0.7437 -0.2436 0.6226
vn -0.8648 -0.2437 0.4389
vn -0.9721 -0.2177 0.0872
vn 0.9801 0.0869 0.1784
vn 0.9689 0.0556 0.2410
vn 0.7569 -0.1650 0.6323
vn 0.2486 0.0305 -0.9681
vn 0.3324 -0.0028 -0.9431
vn 0.6353 -0.1347 -0.7605
vn -0.7929 0.5977 0.1188
vn -0.4080 0.8078 0.4255
vn -0.0000 1.0000 -0.0000
vn -0.8563 -0.0169 0.5163
vn -0.9823 -0.1650 0.0881
vn 0.5463 -0.0328 0.8369
vn 0.1010 0.0408 0.9940
vn -0.4567 -0.0065 0.8896
vn -0.5321 -0.2477 -0.8097
vn -0.1111 0.4625 -0.8796
vn 0.4637 -0.1313 -0.8762
vn 0.5669 0.6741 0.4736
vn -0.0660 0.6741 -0.7357
vn 0.0660 0.6741 0.7357
vn 0.4735 0.6741 -0.5669
vn -0.7897 -0.2755 -0.5482
vn -0.4331 -0.8496 -0.3011
vn 0.9638 -0.2594 -0.0607
vn 0.9448 -0.2637 -0.1945
vn 0.8661 -0.2590 -0.4275
vn -0.6563 -0.2380 0.7159
vn 0.4673 -0.2262 0.8547
vn 0.1584 -0.2310 0.9600
vn 0.2837 -0.2321 0.9304
vn 0.6257 -0.2177 -0.7491
vn -0.0003 -0.2755 -0.9613
vn 0.0186 0.1166 -0.9930
vn 0.7531 -0.1923 0.6291
vn 0.2133 0.1371 0.9673
vn -0.5669 0.6741 -0.4736
vn -0.7357 0.6741 0.0660
vn 0.7357 0.6741 -0.0660
vn -0.4736 0.6741 0.5669
vn -0.4894 0.8141 -0.3126
vn -0.8348 0.1371 -0.5332
vn 0.9666 0.2256 -0.1220
vn 0.0008 -1.0000 -0.0001
vn -0.6902 0.0742 0.7198
vn -0.8480 0.5298 -0.0177
vn -0.9963 -0.0484 0.0709
vn -0.0483 0.9941 -0.0976
vn 0.7902 0.6057 -0.0930
vn 0.9968 0.0393 -0.0700
vt 0.566935 0.046565
vt 0.631324 0.031510
vt 0.604597 0.052337
vt 0.822622 0.057979
vt 0.795769 0.173394
vt 0.761815 0.162480
vt 0.621756 0.216778
vt 0.636318 0.246500
vt 0.600338 0.239517
vt 0.675376 0.194017
vt 0.666613 0.218764
vt 0.647974 0.202240
vt 0.769803 0.226738
vt 0.795445 0.241392
vt 0.806441 0.269203
vt 0.671943 0.250144
vt 0.785310 0.208902
vt 0.758160 0.201836
vt 0.880579 0.056473
vt 0.912639 0.055924
vt 0.883254 0.071992
vt 0.886097 0.119115
vt 0.915975 0.125177
vt 0.886018 0.134863
vt 0.556555 0.194617
vt 0.600220 0.178173
vt 0.702314 0.194417
vt 0.668485 0.154389
vt 0.709386 0.141939
vt 0.811729 0.221969
vt 0.830938 0.183436
vt 0.873669 0.198058
vt 0.834015 0.242914
vt 0.635387 0.166832
vt 0.719824 0.150572
vt 0.795640 0.035331
vt 0.849558 0.061516
vt 0.870950 0.053146
vt 0.700389 0.223466
vt 0.728622 0.201555
vt 0.732599 0.232768
vt 0.916822 0.096829
vt 0.885558 0.098145
vt 0.925856 0.101659
vt 0.965201 0.111617
vt 0.950972 0.137995
vt 0.914727 0.165186
vt 0.883714 0.161015
vt 0.911488 0.189742
vt 0.880579 0.181757
s 1
g Pocion_2_LOD01_Rampa
f 54/69/41 56/70/42 52/71/43
f 53/72/44 61/73/45 60/74/46
f 72/75/47 77/76/48 71/77/49
f 66/78/50 73/79/51 65/80/52
f 75/81/53 76/82/54 77/83/55
f 75/84/53 77/76/55 73/79/55
f 69/85/56 75/81/53 68/86/57
f 83/87/58 87/88/59 81/89/60
f 82/90/61 84/91/62 78/92/63
f 72/75/64 71/77/64 63/93/64 64/94/64
f 67/95/65 66/78/65 58/96/65 59/97/65
f 70/98/66 62/99/66 63/100/66 71/101/66
f 65/80/67 57/102/67 58/96/67 66/78/67
f 60/74/68 59/103/68 56/104/42 53/72/69
f 64/94/70 54/69/70 52/71/71 57/102/72
f 62/99/73 61/73/45 53/72/44 55/105/73
f 63/100/74 62/99/75 55/105/75 54/106/76
f 52/71/71 58/96/77 57/102/72
f 58/96/78 52/71/43 56/70/42 59/97/78
f 74/107/79 73/79/51 66/78/50 67/95/79
f 54/69/76 64/94/80 63/93/74
f 76/82/81 70/98/81 71/101/81 77/83/81
f 67/108/82 59/103/82 60/74/82 68/86/82
f 68/86/83 60/74/83 61/73/83 69/85/83
f 65/80/84 72/75/84 64/94/84 57/102/84
f 70/98/85 69/85/85 61/73/85 62/99/85
f 74/109/86 67/108/87 68/86/87 75/81/53
f 73/79/55 74/107/86 75/84/53
f 77/76/48 72/75/47 65/80/88 73/79/88
f 55/105/89 53/72/69 56/104/42 54/106/41
f 75/81/53 69/85/56 70/98/90 76/82/54
f 85/110/91 79/111/92 81/89/60 87/88/59
f 84/91/62 85/112/91 87/113/93
f 84/91/62 87/113/93 86/114/94
f 86/115/94 80/116/95 78/92/63 84/91/62
f 86/115/94 87/117/59 83/118/58 80/116/95
f 85/110/91 84/91/62 82/90/61 79/111/92
o Pocion_2_LOD02
v 0.438772 -2.730541 -0.374798
v -0.564661 -2.730541 0.150362
v 0.302628 -2.738774 0.586298
v -0.243955 -2.725835 -0.458062
v 1.060622 -0.284421 -0.566102
v 0.352266 -0.284421 -1.157822
v -0.949620 -0.268237 -0.792832
v -1.076272 -0.284421 0.552283
v -0.367929 -0.284421 1.144003
v 0.551360 -0.284421 1.061530
v 1.143080 -0.284421 0.353188
v 0.403671 0.348756 -0.479585
v -0.376923 0.562258 -0.411384
v -0.413532 0.370311 0.446586
v 0.433455 0.348093 0.413461
v 0.377715 0.754440 -0.468426
v -0.615106 0.754440 0.099854
v -0.183960 0.754440 0.556015
v 0.497081 0.754440 0.346991
v -0.052545 0.641857 -0.400500
v -0.413648 0.665741 0.004231
v 0.448898 0.712218 0.030908
v 0.088098 0.730352 0.436215
v -0.114113 1.256739 -0.562488
v -0.492426 1.278493 -0.073002
v 0.464903 1.333157 -0.011786
v 0.085951 1.368425 0.476473
vn -0.3849 -0.6933 -0.6092
vn -0.0051 -0.9999 -0.0097
vn -0.4795 -0.8384 -0.2592
vn -0.0898 -0.7937 -0.6017
vn 0.1670 0.6421 -0.7482
vn 0.4307 0.3969 -0.8105
vn 0.5080 0.6101 -0.6081
vn -0.4605 0.6681 -0.5844
vn -0.5256 0.7313 -0.4346
vn -0.6996 -0.2893 0.6533
vn -0.8596 -0.2758 0.4301
vn -0.9774 -0.1889 -0.0943
vn 0.4530 -0.2135 0.8656
vn 0.0876 -0.1979 0.9763
vn 0.6943 -0.0245 -0.7193
vn -0.8855 0.4641 -0.0232
vn -0.2935 0.9148 0.2774
vn -0.0000 1.0000 -0.0000
vn -0.0773 0.9878 -0.1350
vn -0.8920 -0.0641 0.4476
vn -0.5384 0.6750 -0.5046
vn 0.2957 0.7131 0.6357
vn 0.5993 0.6247 0.5006
vn 0.2722 0.7162 0.6426
vn 0.0541 0.7248 0.6868
vn 0.9585 -0.2838 0.0261
vn 0.9506 -0.2875 -0.1175
vn 0.8796 -0.2777 -0.3862
vn -0.2688 -0.2657 -0.9258
vn -0.5249 -0.2838 0.8025
vn -0.1389 -0.2414 -0.9604
vn 0.6257 -0.2177 -0.7491
vn 0.1540 -0.1105 0.9819
vn 0.7281 -0.1142 0.6759
vn 0.8413 -0.1061 0.5301
vn 0.7523 -0.1979 0.6284
vn -0.6922 0.6635 0.2840
vn -0.7130 0.6631 0.2279
vn 0.6765 0.7353 -0.0416
vn -0.5073 0.6115 0.6072
vn -0.8689 0.4949 -0.0011
vn -0.9829 -0.1554 0.0986
vn 0.0554 -0.0209 0.9982
vn 0.0879 -0.0206 0.9959
vn -0.0981 0.4374 -0.8939
vn -0.0483 0.9941 -0.0976
vn 0.8147 0.5707 -0.1027
vn 0.9945 -0.0719 -0.0765
vn -0.0432 -0.2178 -0.9750
vt 0.795640 0.035331
vt 0.864210 0.055783
vt 0.822622 0.057979
vt 0.566935 0.046565
vt 0.631324 0.031510
vt 0.604597 0.052337
vt 0.668485 0.154389
vt 0.660900 0.198361
vt 0.635387 0.166832
vt 0.701489 0.206873
vt 0.709386 0.141939
vt 0.795769 0.173394
vt 0.740848 0.156534
vt 0.873669 0.198058
vt 0.830938 0.183436
vt 0.666613 0.218764
vt 0.769803 0.226738
vt 0.795445 0.241392
vt 0.806441 0.269203
vt 0.671943 0.250144
vt 0.636318 0.246500
vt 0.797313 0.214839
vt 0.738763 0.215019
vt 0.556555 0.194617
vt 0.600220 0.178173
vt 0.609163 0.230147
vt 0.834015 0.242914
vt 0.916822 0.096829
vt 0.885558 0.098145
vt 0.881633 0.062589
vt 0.912639 0.055924
vt 0.915975 0.125177
vt 0.925856 0.101659
vt 0.965201 0.111617
vt 0.950972 0.137995
vt 0.914727 0.165186
vt 0.883714 0.161015
vt 0.886066 0.125321
vt 0.911488 0.189742
vt 0.880579 0.181757
s 1
g Pocion_2_LOD02_Rampa
f 91/119/96 90/120/97 89/121/98
f 90/122/97 91/123/96 88/124/99
f 93/125/100 99/126/101 92/127/102
f 100/128/103 99/126/101 93/125/100 94/129/104
f 89/121/105 95/130/106 94/131/107
f 90/120/108 97/132/108 96/133/109
f 99/126/101 100/128/103 103/134/110
f 104/135/111 105/136/112 106/137/113
f 104/138/111 106/139/113 103/134/114
f 101/140/115 104/135/111 100/141/116
f 97/142/117 98/143/118 102/144/119
f 101/140/120 96/133/120 97/132/117 102/145/119
f 98/143/121 90/122/121 88/124/122 92/127/123
f 91/119/96 89/121/98 94/131/124
f 96/133/125 95/130/106 89/121/105 90/120/125
f 93/125/126 88/124/99 91/123/96 94/129/124
f 88/124/122 93/125/127 92/127/123
f 105/136/128 101/140/128 102/145/129 106/137/130
f 90/122/108 98/143/131 97/142/108
f 100/141/103 94/131/104 95/130/132 101/140/133
f 99/126/134 102/144/134 98/143/134 92/127/134
f 106/139/130 102/144/129 99/126/101 103/134/110
f 95/130/132 96/133/135 101/140/133
f 103/134/114 100/128/116 104/138/111
f 112/146/136 108/147/137 110/148/138 114/149/139
f 101/140/115 105/136/112 104/135/111
f 111/150/140 112/151/136 114/152/141
f 111/150/140 114/152/141 113/153/142
f 113/154/142 109/155/143 107/156/144 111/150/140
f 113/154/142 114/157/139 110/158/138 109/155/143
f 112/146/136 111/150/140 107/156/144 108/147/137
