# Blender 4.5.3 LTS
# www.blender.org
o Pocion_1
v 0.758577 -1.397675 -0.764255
v -0.765406 -1.397675 -0.764255
v 0.758577 -1.397675 0.759728
v -0.765406 -1.397675 0.759728
v 1.074195 -1.397675 -0.002263
v -0.003414 -1.397675 -1.079873
v -1.081038 -1.397675 -0.002263
v -0.003414 -1.397675 1.075361
v -0.003414 -1.397675 -0.002263
v 1.271347 -0.486576 0.031844
v 0.897984 -0.486577 -0.869554
v -0.003414 -0.486577 -1.242931
v -0.904812 -0.486577 -0.869554
v -1.278190 -0.486576 0.031844
v -0.904812 -0.486576 0.933242
v -0.003414 -0.486576 1.306620
v 0.897984 -0.486576 0.933242
v 0.536139 0.082191 0.002881
v 0.378112 0.082191 -0.378646
v -0.003414 0.082191 -0.536672
v -0.384941 0.082191 -0.378646
v -0.542982 0.082191 0.002881
v -0.384941 0.082191 0.384421
v -0.003414 0.082191 0.542448
v 0.378112 0.082191 0.384421
v 0.536139 0.461929 0.002881
v 0.378112 0.461929 -0.378646
v -0.003414 0.461929 -0.536672
v -0.384941 0.461929 -0.378646
v -0.542982 0.461929 0.002881
v -0.384941 0.461929 0.384421
v -0.003414 0.461929 0.542448
v 0.378112 0.461929 0.384421
v -0.003414 0.461929 0.002881
v 0.274840 0.353666 -0.249863
v -0.261176 0.353666 -0.249863
v 0.274840 0.412138 0.282966
v -0.261176 0.412138 0.282966
v 0.385857 0.382895 0.016552
v 0.006832 0.341561 -0.360222
v -0.372192 0.382895 0.016552
v 0.006832 0.424243 0.393311
v 0.274840 0.916241 -0.398020
v -0.261176 0.916241 -0.398020
v 0.274840 0.993444 0.305611
v -0.261176 0.993444 0.305611
v 0.385857 0.954849 -0.046212
v 0.006832 0.900250 -0.543745
v -0.372192 0.954849 -0.046212
v 0.006832 1.009435 0.451336
v 0.006832 0.954849 -0.046212
vn -0.0000 -1.0000 -0.0000
vn 0.2401 0.7787 0.5796
vn 0.2515 0.7538 -0.6071
vn -0.2401 0.7787 0.5796
vn 0.5989 0.7615 -0.2480
vn -0.3776 -0.1631 -0.9115
vn -0.9084 -0.1825 -0.3763
vn 0.9034 -0.2095 0.3742
vn -0.9034 -0.2095 0.3742
vn 0.9084 -0.1825 -0.3763
vn -0.3726 -0.2283 0.8995
vn 0.3776 -0.1631 -0.9115
vn 0.3726 -0.2283 0.8995
vn 0.3827 -0.0000 0.9239
vn 0.3827 -0.0000 -0.9239
vn -0.3827 -0.0000 0.9239
vn 0.9239 -0.0000 -0.3827
vn -0.2515 0.7538 -0.6071
vn -0.5989 0.7615 -0.2481
vn 0.5875 0.7718 0.2433
vn -0.5875 0.7718 0.2433
vn -0.0000 1.0000 -0.0000
vn -0.3827 -0.0000 -0.9239
vn -0.9239 -0.0000 -0.3827
vn 0.9239 -0.0000 0.3827
vn -0.9239 -0.0000 0.3827
vn -0.0000 0.9940 -0.1091
vn -0.0000 0.9940 -0.1090
vn 0.7577 -0.0250 0.6521
vn 0.9996 -0.0265 0.0029
vn 0.7217 -0.0302 0.6915
vn -0.9996 -0.0265 0.0029
vn -0.7577 -0.0250 0.6521
vn -0.7217 -0.0302 0.6915
vn 0.7577 -0.1658 -0.6312
vn 0.7217 -0.1794 -0.6685
vn -0.0000 -0.0690 0.9976
vn -0.0000 -0.2837 -0.9589
vn -0.7577 -0.1658 -0.6312
vn -0.7217 -0.1794 -0.6685
vt 0.938540 0.308543
vt 0.956577 0.374557
vt 0.917737 0.358257
vt 0.896305 0.334947
vt 0.603942 0.345820
vt 0.583122 0.369678
vt 0.544718 0.386980
vt 0.561036 0.320520
vt 0.614534 0.316088
vt 0.611302 0.274758
vt 0.887104 0.264101
vt 0.884945 0.305501
vt 0.580150 0.443769
vt 0.610600 0.395320
vt 0.653697 0.408073
vt 0.647843 0.441790
vt 0.650098 0.330354
vt 0.679456 0.280283
vt 0.711540 0.341029
vt 0.687714 0.357137
vt 0.890934 0.384604
vt 0.922631 0.432247
vt 0.854909 0.432025
vt 0.848182 0.398471
vt 0.631374 0.363518
vt 0.667394 0.379859
vt 0.849763 0.320685
vt 0.819116 0.271392
vt 0.869341 0.353352
vt 0.677420 0.412585
vt 0.683066 0.439892
vt 0.725686 0.369986
vt 0.700458 0.376367
vt 0.819649 0.431042
vt 0.824584 0.403597
vt 0.684711 0.391470
vt 0.812855 0.348435
vt 0.788619 0.332951
vt 0.833758 0.370622
vt 0.789091 0.401134
vt 0.816748 0.382678
vt 0.712837 0.409202
vt 0.775229 0.362265
vt 0.800614 0.367989
vt 0.939064 0.118801
vt 0.938218 0.096371
vt 0.960306 0.102190
vt 0.970029 0.118801
vt 0.938218 0.141230
vt 0.960306 0.135411
vt 0.917726 0.132995
vt 0.914630 0.118801
vt 0.917726 0.104606
vt 0.883243 0.166169
vt 0.884632 0.150400
vt 0.915909 0.153155
vt 0.914173 0.173321
vt 0.884632 0.087201
vt 0.883243 0.071432
vt 0.914173 0.064280
vt 0.915909 0.084446
vt 0.886022 0.134631
vt 0.880554 0.055832
vt 0.911624 0.047806
vt 0.886101 0.118801
vt 0.880554 0.181769
vt 0.911624 0.189796
vt 0.886022 0.102970
s 1
g Pocion_1_Rampa
f 9/1/1 8/2/1 4/3/1 7/4/1
f 5/5/1 3/6/1 8/7/1 9/8/1
f 1/9/1 5/5/1 9/8/1 6/10/1
f 6/11/1 9/1/1 7/4/1 2/12/1
f 16/13/2 17/14/2 25/15/2 24/16/2
f 11/17/3 12/18/3 20/19/3 19/20/3
f 15/21/4 16/22/4 24/23/4 23/24/4
f 10/25/5 11/17/5 19/20/5 18/26/5
f 6/11/6 2/12/6 13/27/6 12/28/6
f 2/12/7 7/4/7 14/29/7 13/27/7
f 3/6/8 5/5/8 10/25/8 17/14/8
f 7/4/9 4/3/9 15/21/9 14/29/9
f 5/5/10 1/9/10 11/17/10 10/25/10
f 4/3/11 8/2/11 16/22/11 15/21/11
f 1/9/12 6/10/12 12/18/12 11/17/12
f 8/7/13 3/6/13 17/14/13 16/13/13
f 24/16/14 25/15/14 33/30/14 32/31/14
f 19/20/15 20/19/15 28/32/15 27/33/15
f 23/24/16 24/23/16 32/34/16 31/35/16
f 18/26/17 19/20/17 27/33/17 26/36/17
f 12/28/18 13/27/18 21/37/18 20/38/18
f 13/27/19 14/29/19 22/39/19 21/37/19
f 17/14/20 10/25/20 18/26/20 25/15/20
f 14/29/21 15/21/21 23/24/21 22/39/21
f 34/40/22 30/41/22 31/35/22 32/34/22
f 26/36/22 34/42/22 32/31/22 33/30/22
f 27/33/22 28/32/22 34/42/22 26/36/22
f 28/43/22 29/44/22 30/41/22 34/40/22
f 20/38/23 21/37/23 29/44/23 28/43/23
f 21/37/24 22/39/24 30/41/24 29/44/24
f 25/15/25 18/26/25 26/36/25 33/30/25
f 22/39/26 23/24/26 31/35/26 30/41/26
f 51/45/27 49/46/27 46/47/28 50/48/28
f 47/49/27 51/45/27 50/48/28 45/50/28
f 43/51/27 48/52/27 51/45/27 47/49/27
f 48/52/27 44/53/27 49/46/27 51/45/27
f 37/54/29 39/55/30 47/56/30 45/57/31
f 41/58/32 38/59/33 46/60/34 49/61/32
f 39/55/30 35/62/35 43/51/36 47/56/30
f 38/59/33 42/63/37 50/64/37 46/60/34
f 35/62/35 40/65/38 48/52/38 43/51/36
f 42/66/37 37/54/29 45/57/31 50/67/37
f 40/65/38 36/68/39 44/53/40 48/52/38
f 36/68/39 41/58/32 49/61/32 44/53/40
o Pocion_1_LOD01
v 0.758577 -1.397675 -0.764255
v -0.765406 -1.397675 -0.764255
v 0.758577 -1.397675 0.759728
v -0.765406 -1.397675 0.759728
v 1.074195 -1.397675 -0.002263
v -0.003414 -1.397675 -1.079873
v -1.081038 -1.397675 -0.002263
v -0.003414 -1.397675 1.075361
v 1.271347 -0.486576 0.031844
v 0.897984 -0.486577 -0.869554
v -0.003414 -0.486577 -1.242931
v -0.904812 -0.486577 -0.869554
v -1.278190 -0.486576 0.031844
v -0.904812 -0.486576 0.933242
v -0.003414 -0.486576 1.306620
v 0.897984 -0.486576 0.933242
v 0.536139 0.082191 0.002881
v 0.378112 0.082191 -0.378646
v -0.180872 0.087727 -0.526841
v -0.542982 0.082191 0.002881
v -0.211840 0.120233 0.503693
v 0.378112 0.082191 0.384421
v 0.497581 0.461929 -0.256230
v -0.003414 0.461929 -0.536672
v -0.511654 0.461929 -0.207634
v -0.225791 0.461929 0.539736
v 0.378112 0.461929 0.384421
v 0.127275 0.341748 -0.352288
v -0.337042 0.363591 -0.177423
v 0.350696 0.406121 0.210126
v -0.113650 0.422707 0.385500
v 0.146103 0.904225 -0.509670
v -0.368131 0.924125 -0.273422
v 0.381795 0.974122 0.182268
v -0.132447 1.006384 0.417244
vn -0.0000 -0.7210 0.6930
vn -0.1930 -0.8636 0.4659
vn -0.0000 -1.0000 -0.0000
vn 0.1930 -0.8636 0.4659
vn 0.6259 -0.0740 -0.7764
vn 0.7189 0.5861 -0.3738
vn 0.9112 -0.1650 -0.3774
vn -0.0000 1.0000 -0.0000
vn 0.0274 0.6403 -0.7676
vn -0.9965 -0.0097 0.0830
vn -0.9904 -0.0821 -0.1110
vn -0.8005 -0.2387 -0.5497
vn 0.2100 0.7909 0.5747
vn 0.2178 0.7684 -0.6018
vn 0.0115 0.7699 -0.6380
vn 0.0236 0.7708 -0.6367
vn 0.5989 0.7615 -0.2480
vn -0.4443 0.7864 0.4290
vn -0.2586 0.7372 0.6243
vn -0.4540 0.7875 0.4168
vn -0.3776 -0.1631 -0.9115
vn -0.9084 -0.1825 -0.3763
vn 0.9034 -0.2095 0.3742
vn -0.9034 -0.2095 0.3742
vn 0.9084 -0.1825 -0.3763
vn -0.3726 -0.2283 0.8995
vn 0.3776 -0.1631 -0.9115
vn 0.3726 -0.2283 0.8995
vn -0.4232 0.0522 0.9045
vn -0.4285 0.0530 0.9020
vn 0.2226 -0.0444 0.9739
vn -0.1058 0.1296 -0.9859
vn -0.5535 0.7838 -0.2814
vn -0.2661 0.7187 -0.6424
vn 0.5875 0.7718 0.2433
vn -0.5621 0.7848 0.2611
vn 0.5535 0.8192 0.1503
vn 0.9560 0.1371 0.2595
vn -0.5290 0.2294 -0.8171
vn -0.7693 0.4950 -0.4039
vn -0.9166 -0.1554 -0.3684
vn -0.4139 -0.0209 0.9101
vn -0.3840 -0.0206 0.9231
vn 0.3276 0.4374 -0.8375
vn 0.0025 0.9941 -0.1088
vn 0.7695 0.5707 0.2868
vn 0.9165 -0.0719 0.3934
vn 0.4138 -0.2178 -0.8839
vt 0.956577 0.374557
vt 0.917737 0.358257
vt 0.896305 0.334947
vt 0.583122 0.369678
vt 0.544718 0.386980
vt 0.603942 0.345820
vt 0.687714 0.357137
vt 0.694402 0.382175
vt 0.667394 0.379859
vt 0.611302 0.274758
vt 0.614534 0.316088
vt 0.808681 0.375334
vt 0.789091 0.401134
vt 0.775229 0.362265
vt 0.833758 0.370622
vt 0.798462 0.339239
vt 0.884945 0.305501
vt 0.887104 0.264101
vt 0.647843 0.441790
vt 0.580150 0.443769
vt 0.610600 0.395320
vt 0.653697 0.408073
vt 0.650098 0.330354
vt 0.679456 0.280283
vt 0.711540 0.341029
vt 0.631374 0.363518
vt 0.890934 0.384604
vt 0.922631 0.432247
vt 0.851531 0.415174
vt 0.819116 0.271392
vt 0.849763 0.320685
vt 0.869341 0.353352
vt 0.683066 0.439892
vt 0.677420 0.412585
vt 0.725686 0.369986
vt 0.822117 0.417319
vt 0.916986 0.096399
vt 0.885559 0.097722
vt 0.881614 0.061981
vt 0.912781 0.055281
vt 0.916135 0.124894
vt 0.926068 0.101253
vt 0.965617 0.111264
vt 0.951314 0.137780
vt 0.914880 0.165112
vt 0.883705 0.160922
vt 0.886070 0.125038
vt 0.911624 0.189796
vt 0.880554 0.181769
s 1
g Pocion_1_LOD01_Rampa
f 59/69/41 55/70/42 58/71/43
f 54/72/44 59/73/41 56/74/43
f 69/75/45 74/76/46 68/77/47
f 59/73/41 57/78/43 52/79/43 56/74/43
f 76/80/48 74/81/46 75/82/49
f 71/83/50 76/80/51 70/84/52
f 53/85/43 57/86/43 59/69/41 58/71/43
f 72/87/53 66/88/53 67/89/53 73/90/53
f 69/75/54 61/91/54 62/92/55 70/93/56
f 68/77/57 60/94/57 61/91/57 69/75/57
f 65/95/58 66/96/59 72/97/60
f 62/98/61 57/86/61 53/85/61 63/99/61
f 63/99/62 53/85/62 58/71/62 64/100/62
f 60/94/63 67/89/63 54/72/63 56/74/63
f 64/100/64 58/71/64 55/70/64 65/95/64
f 61/91/65 60/94/65 56/74/65 52/79/65
f 65/95/66 55/70/42 59/69/41 66/96/66
f 62/92/67 61/91/67 52/79/67 57/78/67
f 67/89/68 66/88/68 59/73/41 54/72/44
f 77/101/69 72/87/70 73/90/71 78/102/71
f 74/76/46 69/75/45 70/93/72 75/103/49
f 71/83/73 70/84/73 63/99/73 64/100/73
f 62/98/55 63/99/74 70/84/56
f 73/90/75 67/89/75 60/94/75 68/77/75
f 72/97/60 71/83/76 64/100/76 65/95/58
f 78/102/77 73/90/78 68/77/78 74/76/46
f 74/81/46 76/80/48 77/104/48
f 74/76/46 77/101/48 78/102/77
f 70/84/72 76/80/79 75/82/49
f 77/104/69 76/80/51 71/83/50 72/97/70
f 84/105/80 80/106/81 82/107/82 86/108/83
f 83/109/84 84/110/80 86/111/85
f 83/109/84 86/111/85 85/112/86
f 85/113/86 81/114/87 79/115/88 83/109/84
f 85/113/86 86/116/83 82/117/82 81/114/87
f 84/105/80 83/109/84 79/115/88 80/106/81
o Pocion_1_LOD02
v 0.758577 -1.397675 -0.764255
v -0.422259 -1.403884 -1.016440
v 1.069212 -1.405187 0.336154
v -1.076056 -1.405188 0.336138
v -0.003414 -1.397675 1.075361
v 1.271347 -0.486576 0.031844
v 0.897984 -0.486577 -0.869554
v -0.003414 -0.486577 -1.242931
v -0.904812 -0.486577 -0.869554
v -1.278190 -0.486576 0.031844
v -0.502021 -0.471749 1.229238
v 0.897984 -0.486576 0.933242
v -0.180872 0.087727 -0.526841
v -0.542982 0.082191 0.002881
v -0.211840 0.120233 0.503693
v 0.458271 0.423266 -0.208023
v -0.414136 0.461929 -0.407828
v -0.225791 0.461929 0.539736
v 0.427005 0.262004 0.272932
v 0.127275 0.341748 -0.352288
v -0.337042 0.363591 -0.177423
v 0.350696 0.406121 0.210126
v -0.113650 0.422707 0.385500
v 0.146103 0.904225 -0.509670
v -0.368131 0.924125 -0.273422
v 0.381795 0.974122 0.182268
v -0.132447 1.006384 0.417244
vn 0.9827 -0.1839 -0.0229
vn 0.9817 -0.1870 -0.0365
vn 0.9212 -0.0763 0.3816
vn 0.0297 -0.7202 0.6932
vn -0.0865 -0.3580 0.9297
vn -0.1859 -0.9420 0.2793
vn 0.6216 0.7386 0.2611
vn -0.2586 0.6770 0.6891
vn -0.4682 0.1843 0.8642
vn 0.7385 0.6720 0.0550
vn 0.6803 0.6766 0.2818
vn -0.9839 0.1538 0.0913
vn -0.6012 0.5719 -0.5582
vn -0.0964 0.5271 -0.8443
vn -0.2172 0.7911 0.5718
vn -0.2382 0.7919 0.5623
vn 0.1309 0.7210 0.6804
vn 0.0017 -1.0000 0.0005
vn 0.4372 0.8528 -0.2856
vn 0.1565 0.7061 -0.6906
vn -0.0245 0.7278 -0.6853
vn 0.7554 0.6457 -0.1116
vn -0.0006 -1.0000 -0.0003
vn 0.1727 -0.8929 0.4158
vn -0.8520 -0.3510 -0.3885
vn -0.9746 -0.2165 0.0581
vn -0.9702 -0.2420 -0.0141
vn -0.0176 -0.1745 -0.9845
vn -0.3821 -0.0533 -0.9226
vn 0.0366 -0.1902 -0.9811
vn 0.9179 -0.2418 -0.3146
vn -0.8391 -0.0044 0.5440
vn 0.2790 -0.2533 -0.9263
vn 0.3741 -0.2299 0.8984
vn -0.5535 0.7838 -0.2814
vn -0.2661 0.7187 -0.6424
vn -0.5758 0.7377 0.3525
vn -0.7693 0.4950 -0.4039
vn -0.9166 -0.1554 -0.3684
vn -0.4139 -0.0209 0.9101
vn -0.3840 -0.0206 0.9231
vn 0.3276 0.4374 -0.8375
vn 0.0025 0.9941 -0.1088
vn 0.7695 0.5707 0.2868
vn 0.9165 -0.0719 0.3934
vn 0.4138 -0.2178 -0.8839
vt 0.596001 0.354919
vt 0.631374 0.363518
vt 0.610600 0.395320
vt 0.956577 0.374557
vt 0.906703 0.408306
vt 0.904479 0.343837
vt 0.667432 0.402907
vt 0.683066 0.439892
vt 0.647843 0.441790
vt 0.833758 0.370622
vt 0.798147 0.371219
vt 0.798462 0.339239
vt 0.580150 0.443769
vt 0.886027 0.284743
vt 0.693883 0.380230
vt 0.650098 0.330354
vt 0.679456 0.280283
vt 0.711540 0.341029
vt 0.544718 0.386980
vt 0.611302 0.274758
vt 0.614534 0.316088
vt 0.849763 0.320685
vt 0.869341 0.353352
vt 0.819116 0.271392
vt 0.725686 0.369986
vt 0.851531 0.415174
vt 0.822117 0.417319
vt 0.789091 0.401134
vt 0.916986 0.096399
vt 0.885559 0.097722
vt 0.881614 0.061981
vt 0.912781 0.055281
vt 0.916135 0.124894
vt 0.926068 0.101253
vt 0.965617 0.111264
vt 0.951314 0.137780
vt 0.914880 0.165112
vt 0.883705 0.160922
vt 0.886070 0.125038
vt 0.911624 0.189796
vt 0.880554 0.181769
s 1
g Pocion_1_LOD02_Rampa
f 89/118/89 92/119/90 98/120/91
f 91/121/92 97/122/93 90/123/94
f 105/124/95 104/125/96 101/126/97
f 92/119/98 105/124/95 98/120/99
f 100/127/100 103/128/101 99/129/102
f 101/126/103 97/130/104 98/120/105 105/124/105
f 91/121/92 90/123/94 88/131/106
f 102/132/107 93/133/108 94/134/109 99/135/102
f 105/124/95 92/119/98 93/133/110 102/132/107
f 91/136/92 88/137/106 87/138/111 89/118/112
f 95/139/113 88/131/113 90/123/114 96/140/115
f 88/131/116 95/139/117 94/141/118
f 93/133/119 92/119/90 89/118/89 87/138/119
f 90/123/114 97/122/120 96/140/115
f 94/134/118 93/133/121 87/138/121 88/137/116
f 98/120/122 97/130/93 91/136/92 89/118/112
f 100/127/123 99/129/123 95/139/123 96/140/123
f 99/135/102 103/142/101 102/132/107
f 94/141/109 95/139/124 99/129/102
f 101/143/103 100/127/125 96/140/125 97/122/104
f 104/144/96 103/128/101 100/127/100 101/143/97
f 102/145/107 103/128/101 104/144/96
f 102/132/107 104/125/96 105/124/95
f 111/146/126 107/147/127 109/148/128 113/149/129
f 110/150/130 111/151/126 113/152/131
f 110/150/130 113/152/131 112/153/132
f 112/154/132 108/155/133 106/156/134 110/150/130
f 112/154/132 113/157/129 109/158/128 108/155/133
f 111/146/126 110/150/130 106/156/134 107/147/127
