# Blender 4.5.3 LTS
# www.blender.org
g Collider_Circuito_castillo.006_Caastyillo.013
v 413.921387 4.048807 -442.788727
v 454.670990 4.048806 -442.310333
v 414.356323 4.048806 -455.309937
v 454.649597 4.048807 -453.846039
v 414.787933 4.048806 -466.694733
v 455.088654 4.048806 -465.452454
v 415.030792 4.048806 -476.785187
v 455.350037 4.048805 -476.559601
v 414.930664 4.048805 -485.371918
v 455.207703 4.048805 -487.229431
v 414.407867 4.048805 -492.172760
v 454.361328 4.048804 -497.596527
v 413.552582 4.048805 -496.846527
v 452.340729 4.048804 -507.854401
v 412.957306 4.048805 -498.241638
v 448.377960 4.048803 -518.065186
v 412.248718 4.048807 -498.863831
v 441.565460 4.048801 -527.622986
v 411.399384 4.048807 -499.537842
v 431.787933 4.048801 -535.041504
v 409.613983 4.048808 -500.037781
v 420.222687 4.048800 -539.238586
v 406.840973 4.048807 -500.187531
v 408.768463 4.048801 -540.461365
v 394.286469 4.048807 -500.172241
v 394.329651 4.048801 -540.492126
v 413.921387 44.085548 -442.788727
v 454.670990 44.085545 -442.310333
v 414.356323 44.085548 -455.309937
v 454.649597 44.085548 -453.846039
v 414.787933 44.085548 -466.694733
v 455.088654 44.085548 -465.452454
v 415.030792 44.085548 -476.785187
v 455.350037 44.085548 -476.559601
v 414.930664 44.085545 -485.371918
v 455.207703 44.085545 -487.229431
v 414.407867 44.085545 -492.172760
v 454.361328 44.085545 -497.596527
v 413.552582 44.085545 -496.846527
v 452.340729 44.085545 -507.854401
v 412.957306 44.085545 -498.241638
v 448.377960 44.085545 -518.065186
v 412.248718 44.085548 -498.863831
v 441.565460 44.085545 -527.622986
v 411.399384 44.085548 -499.537842
v 431.787933 44.085541 -535.041504
v 409.613983 44.085548 -500.037781
v 420.222687 44.085541 -539.238586
v 406.840973 44.085548 -500.187531
v 408.768463 44.085541 -540.461365
v 394.286469 44.085548 -500.172241
v 394.329651 44.085541 -540.492126
vn -0.9998 -0.0000 -0.0180
vn -1.0000 -0.0000 0.0019
vn 0.9994 -0.0000 0.0347
vn 0.9993 -0.0000 0.0363
vn -0.9995 -0.0000 -0.0307
vn 0.9995 -0.0000 0.0310
vn -1.0000 -0.0000 -0.0051
vn 1.0000 -0.0000 0.0062
vn -0.9989 -0.0000 0.0474
vn 0.9990 -0.0000 -0.0442
vn -0.9905 -0.0000 0.1375
vn 0.9917 -0.0000 -0.1285
vn -0.9604 -0.0000 0.2786
vn 0.9576 -0.0000 -0.2880
vn -0.8801 -0.0000 0.4748
vn 0.8099 -0.0000 -0.5865
vn -0.7176 -0.0000 0.6965
vn 0.6409 -0.0000 -0.7676
vn -0.4782 -0.0000 0.8783
vn 0.4546 -0.0000 -0.8907
vn -0.2253 -0.0000 0.9743
vn 0.1628 -0.0000 -0.9867
vn -0.0542 -0.0000 0.9985
vn 0.0264 -0.0000 -0.9997
vn -0.0021 -0.0000 1.0000
vn -0.0012 -0.0000 -1.0000
vt 0.482456 1.000000
vt 0.478070 1.000000
vt 0.478070 0.000000
vt 0.482456 0.000000
vt 0.486842 1.000000
vt 0.486842 0.000000
vt 0.491228 1.000000
vt 0.491228 0.000000
vt 0.495614 1.000000
vt 0.495614 0.000000
vt 0.500000 1.000000
vt 0.500000 0.000000
vt 0.504386 1.000000
vt 0.504386 0.000000
vt 0.508772 1.000000
vt 0.508772 0.000000
vt 0.513158 1.000000
vt 0.513158 0.000000
vt 0.517544 1.000000
vt 0.517544 0.000000
vt 0.521930 1.000000
vt 0.521930 0.000000
vt 0.526316 1.000000
vt 0.526316 0.000000
vt 0.530702 1.000000
vt 0.530702 0.000000
s 1
f 4/1/1 2/2/2 28/2/2 30/1/1
f 1/3/3 3/4/4 29/4/4 27/3/3
f 6/5/5 4/1/1 30/1/1 32/5/5
f 3/4/4 5/6/6 31/6/6 29/4/4
f 8/7/7 6/5/5 32/5/5 34/7/7
f 5/6/6 7/8/8 33/8/8 31/6/6
f 10/9/9 8/7/7 34/7/7 36/9/9
f 7/8/8 9/10/10 35/10/10 33/8/8
f 12/11/11 10/9/9 36/9/9 38/11/11
f 9/10/10 11/12/12 37/12/12 35/10/10
f 14/13/13 12/11/11 38/11/11 40/13/13
f 11/12/12 13/14/14 39/14/14 37/12/12
f 16/15/15 14/13/13 40/13/13 42/15/15
f 13/14/14 15/16/16 41/16/16 39/14/14
f 18/17/17 16/15/15 42/15/15 44/17/17
f 15/16/16 17/18/18 43/18/18 41/16/16
f 20/19/19 18/17/17 44/17/17 46/19/19
f 17/18/18 19/20/20 45/20/20 43/18/18
f 22/21/21 20/19/19 46/19/19 48/21/21
f 19/20/20 21/22/22 47/22/22 45/20/20
f 24/23/23 22/21/21 48/21/21 50/23/23
f 21/22/22 23/24/24 49/24/24 47/22/22
f 26/25/25 24/23/23 50/23/23 52/25/25
f 23/24/24 25/26/26 51/26/26 49/24/24
g Collider_Circuito_castillo.015_Caastyillo.027
v 413.921387 4.048807 -442.788727
v 454.670990 4.048806 -442.310333
v 414.356323 4.048806 -455.309937
v 454.649597 4.048807 -453.846039
v 414.787933 4.048806 -466.694733
v 455.088654 4.048806 -465.452454
v 415.030792 4.048806 -476.785187
v 455.350037 4.048805 -476.559601
v 414.930664 4.048805 -485.371918
v 455.207703 4.048805 -487.229431
v 414.407867 4.048805 -492.172760
v 454.361328 4.048804 -497.596527
v 413.552582 4.048805 -496.846527
v 452.340729 4.048804 -507.854401
v 412.957306 4.048805 -498.241638
v 448.377960 4.048803 -518.065186
v 412.248718 4.048807 -498.863831
v 441.565460 4.048801 -527.622986
v 411.399384 4.048807 -499.537842
v 431.787933 4.048801 -535.041504
v 409.613983 4.048808 -500.037781
v 420.222687 4.048800 -539.238586
v 406.840973 4.048807 -500.187531
v 408.768463 4.048801 -540.461365
v 394.286469 4.048807 -500.172241
v 394.329651 4.048801 -540.492126
vn -0.0000 1.0000 -0.0000
vt 0.478070 1.000000
vt 0.482456 1.000000
vt 0.482456 0.000000
vt 0.478070 0.000000
vt 0.486842 1.000000
vt 0.486842 0.000000
vt 0.491228 1.000000
vt 0.491228 0.000000
vt 0.495614 1.000000
vt 0.495614 0.000000
vt 0.500000 1.000000
vt 0.500000 0.000000
vt 0.504386 1.000000
vt 0.504386 0.000000
vt 0.508772 1.000000
vt 0.508772 0.000000
vt 0.513158 1.000000
vt 0.513158 0.000000
vt 0.517544 1.000000
vt 0.517544 0.000000
vt 0.521930 1.000000
vt 0.521930 0.000000
vt 0.526316 1.000000
vt 0.526316 0.000000
vt 0.530702 1.000000
vt 0.530702 0.000000
s 1
f 54/27/27 56/28/27 55/29/27 53/30/27
f 56/28/27 58/31/27 57/32/27 55/29/27
f 58/31/27 60/33/27 59/34/27 57/32/27
f 60/33/27 62/35/27 61/36/27 59/34/27
f 62/35/27 64/37/27 63/38/27 61/36/27
f 64/37/27 66/39/27 65/40/27 63/38/27
f 66/39/27 68/41/27 67/42/27 65/40/27
f 68/41/27 70/43/27 69/44/27 67/42/27
f 70/43/27 72/45/27 71/46/27 69/44/27
f 72/45/27 74/47/27 73/48/27 71/46/27
f 74/47/27 76/49/27 75/50/27 73/48/27
f 76/49/27 78/51/27 77/52/27 75/50/27
