# Blender 4.5.3 LTS
# www.blender.org
o Collider_Circuito_castillo.005
v 492.485687 44.085564 -184.727432
v 472.678589 44.085556 -227.494614
v 483.399506 44.085564 -184.513184
v 449.595367 44.085560 -216.310898
v 480.633545 44.085564 -182.006516
v 442.656494 44.085564 -204.237457
v 480.051514 44.085567 -178.257004
v 439.790466 44.085564 -185.369064
v 439.790466 4.048826 -185.369064
v 480.051514 4.048827 -178.257004
v 442.656494 4.048823 -204.237457
v 480.633545 4.048824 -182.006516
v 449.595367 4.048818 -216.310898
v 483.399506 4.048826 -184.513184
v 472.678589 4.048817 -227.494614
v 492.485687 4.048824 -184.727432
v 501.984589 4.048817 -227.993286
v 502.447357 4.048825 -184.727432
v 535.117737 4.048815 -227.067764
v 533.973145 4.048826 -184.438858
v 560.001953 4.048816 -227.067764
v 558.356079 4.048827 -183.388123
v 584.204041 4.048817 -227.067764
v 583.421692 4.048827 -182.421738
v 606.190308 4.048818 -227.067764
v 607.945374 4.048827 -182.434158
v 624.037292 4.048817 -227.067764
v 628.252197 4.048829 -182.464371
v 635.199768 4.048817 -226.973114
v 652.538025 4.048831 -183.046844
v 638.645264 4.048818 -229.598358
v 679.069214 4.048830 -207.567093
v 638.803040 4.048818 -232.109680
v 678.986084 4.048831 -225.807938
v 638.583069 4.048817 -242.895889
v 678.986084 4.048832 -242.839279
v 638.509827 4.048807 -376.651642
v 678.829651 4.048820 -376.623474
v 638.524475 4.048804 -388.150116
v 678.844238 4.048818 -404.692535
v 638.647156 4.048803 -394.351898
v 677.947449 4.048812 -420.587036
v 637.418579 4.048802 -397.345947
v 667.305420 4.048806 -434.354675
v 633.320312 4.048801 -398.163391
v 649.832764 4.048802 -437.989746
v 620.493347 4.048800 -398.435089
v 626.819763 4.048800 -438.836029
v 468.586700 4.048804 -398.612000
v 469.302704 4.048807 -438.836029
v 431.865021 4.048806 -401.760406
v 458.346466 4.048808 -438.952667
v 417.394135 4.048805 -413.221375
v 455.884338 4.048808 -439.970215
v 414.615326 4.048809 -423.130768
v 455.108673 4.048806 -440.927032
v 413.921387 4.048807 -442.788727
v 454.670990 4.048806 -442.310333
v 488.638824 4.048825 -184.727432
v 459.958618 4.048817 -225.276962
v 665.197327 4.048832 -183.623413
v 636.699402 4.048818 -227.160339
v 677.807617 4.048831 -197.660294
v 638.374878 4.048818 -228.591965
v 461.697968 4.048807 -438.752808
v 443.229736 4.048805 -398.942230
v 456.991455 4.048807 -439.310394
v 422.560577 4.048806 -406.186035
v 673.475586 4.048809 -429.636108
v 638.420227 4.048802 -395.928345
v 659.672913 4.048803 -437.148682
v 635.480530 4.048802 -398.163116
v 673.922546 4.048831 -188.561554
v 637.724243 4.048818 -227.764618
v 501.984589 44.085556 -227.993286
v 502.447357 44.085564 -184.727432
v 535.117737 44.085556 -227.067764
v 533.973145 44.085564 -184.438858
v 560.001953 44.085560 -227.067764
v 558.356079 44.085567 -183.388123
v 584.204041 44.085560 -227.067764
v 583.421692 44.085567 -182.421738
v 606.190308 44.085560 -227.067764
v 607.945374 44.085567 -182.434158
v 624.037292 44.085560 -227.067764
v 628.252197 44.085567 -182.464371
v 635.199768 44.085560 -226.973114
v 652.538025 44.085571 -183.046844
v 638.645264 44.085556 -229.598358
v 679.069214 44.085571 -207.567093
v 638.803040 44.085556 -232.109680
v 678.986084 44.085575 -225.807938
v 638.583069 44.085556 -242.895889
v 678.986084 44.085571 -242.839279
v 638.509827 44.085548 -376.651642
v 678.829651 44.085564 -376.623474
v 638.524475 44.085545 -388.150116
v 678.844238 44.085560 -404.692535
v 638.647156 44.085541 -394.351898
v 677.947449 44.085552 -420.587036
v 637.418579 44.085541 -397.345947
v 667.305420 44.085545 -434.354675
v 633.320312 44.085541 -398.163391
v 649.832764 44.085541 -437.989746
v 620.493347 44.085541 -398.435089
v 626.819763 44.085541 -438.836029
v 468.586700 44.085545 -398.612000
v 469.302704 44.085545 -438.836029
v 431.865021 44.085545 -401.760406
v 458.346466 44.085548 -438.952667
v 417.394135 44.085545 -413.221375
v 455.884338 44.085548 -439.970215
v 414.615326 44.085552 -423.130768
v 455.108673 44.085545 -440.927032
v 413.921387 44.085548 -442.788727
v 454.670990 44.085545 -442.310333
v 488.638824 44.085564 -184.727432
v 459.958618 44.085560 -225.276962
v 665.197327 44.085571 -183.623413
v 636.699402 44.085560 -227.160339
v 677.807617 44.085571 -197.660294
v 638.374878 44.085556 -228.591965
v 461.697968 44.085545 -438.752808
v 443.229736 44.085545 -398.942230
v 456.991455 44.085548 -439.310394
v 422.560577 44.085545 -406.186035
v 673.475586 44.085548 -429.636108
v 638.420227 44.085541 -395.928345
v 659.672913 44.085541 -437.148682
v 635.480530 44.085541 -398.163116
v 673.922546 44.085571 -188.561554
v 637.724243 44.085556 -227.764618
vn 0.9999 -0.0000 0.0105
vn 0.9981 -0.0000 -0.0616
vn -0.9670 -0.0000 0.2548
vn -0.9996 -0.0000 0.0279
vn 1.0000 -0.0000 0.0004
vn -1.0000 -0.0000 0.0003
vn 0.9999 -0.0000 -0.0105
vn -1.0000 -0.0000 0.0006
vn -0.0000 1.0000 -0.0000
vn -0.4811 -0.0000 0.8767
vn -0.7722 -0.0000 0.6353
vn 0.9290 -0.0000 -0.3700
vn 0.8167 -0.0000 -0.5771
vn -0.0610 -0.0000 0.9981
vn -0.2164 -0.0000 0.9763
vn 0.1983 -0.0000 -0.9802
vn 0.0107 -0.0000 -0.9999
vn -0.0184 -0.0000 0.9998
vn 0.0112 -0.0000 -0.9999
vn 0.0055 -0.0000 1.0000
vn 0.0071 -0.0000 -1.0000
vn -0.1582 -0.0000 0.9874
vn -0.0243 -0.0000 0.9997
vn -0.9882 -0.0000 -0.1534
vn 0.1277 -0.0000 -0.9918
vn 0.3368 -0.0000 -0.9416
vn 0.9887 -0.0000 0.1502
vn 0.9440 -0.0000 0.3299
vn -0.6715 -0.0000 -0.7410
vn -0.6545 -0.0000 0.7561
vn -0.3874 -0.0000 0.9219
vn 0.7715 -0.0000 0.6362
vn 0.6371 -0.0000 -0.7708
vn 0.8990 -0.0000 -0.4380
vn -0.8805 -0.0000 0.4740
vn -0.0000 -0.0000 -1.0000
vn -0.0204 -0.0000 -0.9998
vn 0.9881 -0.0000 -0.1537
vn 0.1718 -0.0000 0.9851
vn 0.0947 -0.0000 0.9955
vn -0.9534 -0.0000 0.3017
vn 0.0046 -0.0000 -1.0000
vn 0.9994 -0.0000 -0.0353
vn -0.0055 -0.0000 1.0000
vn 0.0261 -0.0000 -0.9997
vn -0.0140 -0.0000 0.9999
vn 0.0408 -0.0000 -0.9992
vn -0.0000 -0.0000 1.0000
vn 0.0190 -0.0000 -0.9998
vn -0.0010 -0.0000 -1.0000
vn -0.0127 -0.0000 -0.9999
vn -0.0042 -0.0000 1.0000
vn -0.0347 -0.0000 -0.9994
vn 0.0578 -0.0000 0.9983
vn -0.9981 -0.0000 -0.0610
vn -0.9651 -0.0000 -0.2620
vn -0.0409 -0.0000 -0.9992
vn 0.8941 -0.0000 0.4479
vn 0.9868 -0.0000 0.1619
vn 0.6543 -0.0000 0.7562
vn -1.0000 -0.0000 0.0023
vn -0.2766 -0.0000 -0.9610
vn 0.9998 -0.0000 0.0212
vn 0.3226 -0.0000 0.9465
vn -0.9197 -0.0000 -0.3927
vn 0.6583 -0.0000 0.7527
vn 0.3885 -0.0000 -0.9214
vn -0.4925 -0.0000 -0.8703
vt 0.416667 0.000000
vt 0.421053 0.000000
vt 0.421053 1.000000
vt 0.416667 1.000000
vt 0.412281 0.000000
vt 0.412281 1.000000
vt 0.372807 0.000000
vt 0.372807 1.000000
vt 0.315789 1.000000
vt 0.320175 1.000000
vt 0.320175 0.000000
vt 0.315789 0.000000
vt 0.324561 1.000000
vt 0.324561 0.000000
vt 0.326754 1.000000
vt 0.328947 1.000000
vt 0.328947 0.000000
vt 0.326754 0.000000
vt 0.333333 1.000000
vt 0.333333 0.000000
vt 0.337719 1.000000
vt 0.337719 0.000000
vt 0.342105 1.000000
vt 0.342105 0.000000
vt 0.346491 1.000000
vt 0.346491 0.000000
vt 0.350877 1.000000
vt 0.350877 0.000000
vt 0.355263 1.000000
vt 0.355263 0.000000
vt 0.359649 1.000000
vt 0.359649 0.000000
vt 0.362939 1.000000
vt 0.364035 1.000000
vt 0.364035 0.000000
vt 0.362939 0.000000
vt 0.368421 1.000000
vt 0.368421 0.000000
vt 0.423246 1.000000
vt 0.425439 1.000000
vt 0.425439 0.000000
vt 0.423246 0.000000
vt 0.427632 1.000000
vt 0.429825 1.000000
vt 0.429825 0.000000
vt 0.427632 0.000000
vt 0.434211 1.000000
vt 0.434211 0.000000
vt 0.460526 1.000000
vt 0.460526 0.000000
vt 0.462719 1.000000
vt 0.464912 1.000000
vt 0.464912 0.000000
vt 0.462719 0.000000
vt 0.467105 1.000000
vt 0.469298 1.000000
vt 0.469298 0.000000
vt 0.467105 0.000000
vt 0.473684 1.000000
vt 0.473684 0.000000
vt 0.478070 1.000000
vt 0.478070 0.000000
vt 0.361842 1.000000
vt 0.361842 0.000000
vt 0.362390 1.000000
vt 0.362390 0.000000
s 1
f 39/1/1 41/2/2 99/2/2 97/1/1
f 42/3/3 40/4/4 98/4/4 100/3/3
f 37/5/5 39/1/1 97/1/1 95/5/5
f 40/4/4 38/6/6 96/6/6 98/4/4
f 35/7/7 37/5/5 95/5/5 93/7/7
f 38/6/6 36/8/8 94/8/8 96/6/6
f 10/9/9 12/10/9 11/11/9 9/12/9
f 12/10/9 14/13/9 13/14/9 11/11/9
f 59/15/9 16/16/9 15/17/9 60/18/9
f 16/16/9 18/19/9 17/20/9 15/17/9
f 18/19/9 20/21/9 19/22/9 17/20/9
f 20/21/9 22/23/9 21/24/9 19/22/9
f 22/23/9 24/25/9 23/26/9 21/24/9
f 24/25/9 26/27/9 25/28/9 23/26/9
f 26/27/9 28/29/9 27/30/9 25/28/9
f 28/29/9 30/31/9 29/32/9 27/30/9
f 63/33/9 32/34/9 31/35/9 64/36/9
f 32/34/9 34/37/9 33/38/9 31/35/9
f 34/37/9 36/8/9 35/7/9 33/38/9
f 36/8/9 38/6/9 37/5/9 35/7/9
f 38/6/9 40/4/9 39/1/9 37/5/9
f 40/4/9 42/3/9 41/2/9 39/1/9
f 69/39/9 44/40/9 43/41/9 70/42/9
f 71/43/9 46/44/9 45/45/9 72/46/9
f 46/44/9 48/47/9 47/48/9 45/45/9
f 48/47/9 50/49/9 49/50/9 47/48/9
f 65/51/9 52/52/9 51/53/9 66/54/9
f 67/55/9 54/56/9 53/57/9 68/58/9
f 54/56/9 56/59/9 55/60/9 53/57/9
f 56/59/9 58/61/9 57/62/9 55/60/9
f 14/13/9 59/15/9 60/18/9 13/14/9
f 30/31/9 61/63/9 62/64/9 29/32/9
f 73/65/9 63/33/9 64/36/9 74/66/9
f 50/49/9 65/51/9 66/54/9 49/50/9
f 52/52/9 67/55/9 68/58/9 51/53/9
f 42/3/9 69/39/9 70/42/9 41/2/9
f 44/40/9 71/43/9 72/46/9 43/41/9
f 61/63/9 73/65/9 74/66/9 62/64/9
f 44/40/10 69/39/11 127/39/11 102/40/10
f 70/42/12 43/41/13 101/41/13 128/42/12
f 46/44/14 71/43/15 129/43/15 104/44/14
f 72/46/16 45/45/17 103/45/17 130/46/16
f 48/47/18 46/44/14 104/44/14 106/47/18
f 45/45/17 47/48/19 105/48/19 103/45/17
f 50/49/20 48/47/18 106/47/18 108/49/20
f 47/48/19 49/50/21 107/50/21 105/48/19
f 52/52/22 65/51/23 123/51/23 110/52/22
f 12/10/24 10/9/24 7/9/24 5/10/24
f 66/54/25 51/53/26 109/53/26 124/54/25
f 9/12/27 11/11/28 6/11/28 8/12/27
f 14/13/29 12/10/29 5/10/29 3/13/29
f 54/56/30 67/55/31 125/55/31 112/56/30
f 11/11/28 13/14/32 4/14/32 6/11/28
f 68/58/33 53/57/34 111/57/34 126/58/33
f 56/59/35 54/56/30 112/56/30 114/59/35
f 16/16/36 59/15/37 117/15/37 1/16/36
f 53/57/34 55/60/38 113/60/38 111/57/34
f 60/18/39 15/17/40 2/17/40 118/18/39
f 58/61/41 56/59/35 114/59/35 116/61/41
f 18/19/42 16/16/36 1/16/36 76/19/42
f 55/60/38 57/62/43 115/62/43 113/60/38
f 15/17/40 17/20/44 75/20/44 2/17/40
f 20/21/45 18/19/42 76/19/42 78/21/45
f 17/20/44 19/22/46 77/22/46 75/20/44
f 22/23/47 20/21/45 78/21/45 80/23/47
f 19/22/46 21/24/48 79/24/48 77/22/46
f 24/25/49 22/23/47 80/23/47 82/25/49
f 21/24/48 23/26/48 81/26/48 79/24/48
f 26/27/50 24/25/49 82/25/49 84/27/50
f 23/26/48 25/28/48 83/28/48 81/26/48
f 28/29/51 26/27/50 84/27/50 86/29/51
f 25/28/48 27/30/52 85/30/52 83/28/48
f 30/31/53 28/29/51 86/29/51 88/31/53
f 27/30/52 29/32/54 87/32/54 85/30/52
f 32/34/55 63/33/56 121/33/56 90/34/55
f 59/15/37 14/13/57 3/13/57 117/15/37
f 64/36/58 31/35/59 89/35/59 122/36/58
f 13/14/32 60/18/60 118/18/60 4/14/32
f 34/37/61 32/34/55 90/34/55 92/37/61
f 61/63/62 30/31/53 88/31/53 119/63/62
f 31/35/59 33/38/63 91/38/63 89/35/59
f 29/32/54 62/64/64 120/64/64 87/32/54
f 36/8/8 34/37/61 92/37/61 94/8/8
f 63/33/56 73/65/65 131/65/65 121/33/56
f 33/38/63 35/7/7 93/7/7 91/38/63
f 74/66/66 64/36/58 122/36/58 132/66/66
f 65/51/23 50/49/20 108/49/20 123/51/23
f 49/50/21 66/54/25 124/54/25 107/50/21
f 67/55/31 52/52/22 110/52/22 125/55/31
f 51/53/26 68/58/33 126/58/33 109/53/26
f 69/39/11 42/3/3 100/3/3 127/39/11
f 41/2/2 70/42/12 128/42/12 99/2/2
f 71/43/15 44/40/10 102/40/10 129/43/15
f 43/41/67 72/46/16 130/46/16 101/41/67
f 73/65/68 61/63/62 119/63/62 131/65/68
f 62/64/64 74/66/66 132/66/66 120/64/64
