# Blender 4.5.3 LTS
# www.blender.org
o Collider_Circuito_castillo.008
v 211.215637 4.771449 -504.497955
v 231.506058 4.046288 -541.462585
v 198.096817 7.267315 -517.605469
v 228.294327 4.695114 -544.106995
v 192.008118 8.823006 -525.578674
v 223.828705 5.886531 -550.164612
v 187.038208 10.209025 -532.518494
v 218.842056 7.279700 -557.126038
v 180.866745 11.867900 -540.340088
v 211.018555 9.374340 -566.992310
v 174.466110 13.409358 -547.171692
v 202.020203 11.532558 -576.547546
v 167.217255 14.921103 -553.366211
v 191.055756 13.809727 -585.865112
v 158.911621 16.374454 -558.692749
v 177.884872 16.106319 -594.268555
v 149.227936 17.753582 -562.945801
v 162.379974 18.309969 -601.056274
v 137.713455 19.043324 -565.864868
v 144.544937 20.307634 -605.581726
v 123.725571 20.189316 -567.059326
v 124.573471 22.025461 -607.328491
v 110.189438 22.350111 -566.319519
v 105.278717 23.215855 -606.329895
v 99.105240 25.058971 -564.105469
v 87.948898 25.359655 -602.849976
v 90.461349 28.074736 -560.795227
v 72.536667 28.433359 -596.909973
v 83.939270 31.252100 -556.699524
v 59.301502 32.317585 -588.598450
v 79.154724 34.521759 -551.981079
v 48.568684 36.816963 -578.152039
v 75.782944 37.880859 -546.638489
v 40.603954 41.669659 -565.971802
v 73.658417 41.344448 -540.582947
v 35.513817 46.595940 -552.545654
v 72.777451 44.895466 -533.748230
v 33.242950 51.348202 -538.339294
v 73.229294 48.465748 -526.153564
v 33.643127 55.729939 -523.732849
v 75.124435 51.945663 -517.904419
v 36.544807 59.586075 -509.020233
v 78.556564 55.202431 -509.163086
v 41.795300 62.784733 -494.438629
v 83.459000 58.035461 -500.327118
v 49.402294 65.261810 -479.989624
v 211.215637 44.808189 -504.497955
v 231.506058 44.083027 -541.462585
v 198.096817 47.304058 -517.605469
v 228.294327 44.731853 -544.106995
v 192.008118 48.859749 -525.578674
v 223.828705 45.923271 -550.164612
v 187.038208 50.245762 -532.518494
v 218.842056 47.316441 -557.126038
v 180.866745 51.904640 -540.340088
v 211.018555 49.411083 -566.992310
v 174.466110 53.446098 -547.171692
v 202.020203 51.569302 -576.547546
v 167.217255 54.957844 -553.366211
v 191.055756 53.846466 -585.865112
v 158.911621 56.411194 -558.692749
v 177.884872 56.143063 -594.268555
v 149.227936 57.790321 -562.945801
v 162.379974 58.346710 -601.056274
v 137.713455 59.080063 -565.864868
v 144.544937 60.344376 -605.581726
v 123.725571 60.226059 -567.059326
v 124.573471 62.062199 -607.328491
v 110.189438 62.386848 -566.319519
v 105.278717 63.252594 -606.329895
v 99.105240 65.095711 -564.105469
v 87.948898 65.396393 -602.849976
v 90.461349 68.111473 -560.795227
v 72.536667 68.470100 -596.909973
v 83.939270 71.288834 -556.699524
v 59.301502 72.354332 -588.598450
v 79.154724 74.558502 -551.981079
v 48.568684 76.853699 -578.152039
v 75.782944 77.917610 -546.638489
v 40.603954 81.706390 -565.971802
v 73.658417 81.381195 -540.582947
v 35.513817 86.632683 -552.545654
v 72.777451 84.932213 -533.748230
v 33.242950 91.384949 -538.339294
v 73.229294 88.502495 -526.153564
v 33.643127 95.766678 -523.732849
v 75.124435 91.982414 -517.904419
v 36.544807 99.622826 -509.020233
v 78.556564 95.239174 -509.163086
v 41.795300 102.821472 -494.438629
v 83.459000 98.072205 -500.327118
v 49.402294 105.298553 -479.989624
vn 0.1358 0.9891 0.0567
vn 0.1438 0.9873 0.0673
vn 0.1440 0.9873 0.0676
vn 0.1542 0.9847 0.0817
vn 0.1542 0.9847 0.0816
vn 0.1564 0.9840 0.0849
vn 0.1542 0.9846 0.0823
vn 0.1480 0.9861 0.0758
vn 0.1382 0.9881 0.0676
vn 0.1247 0.9904 0.0590
vn 0.1080 0.9928 0.0518
vn 0.0895 0.9949 0.0475
vn 0.0915 0.9951 0.0373
vn 0.1339 0.9910 0.0047
vn 0.1910 0.9804 -0.0474
vn 0.2360 0.9658 -0.1076
vn 0.2633 0.9493 -0.1717
vn 0.2694 0.9344 -0.2330
vn 0.2556 0.9241 -0.2840
vn 0.2267 0.9203 -0.3189
vn 0.1895 0.9230 -0.3349
vn 0.1505 0.9311 -0.3323
vn 0.1147 0.9428 -0.3129
vn 0.0856 0.9564 -0.2792
vn 0.0732 0.9631 -0.2590
vn -0.7173 -0.0000 0.6968
vn -0.6356 -0.0000 0.7720
vn -0.7342 -0.0000 0.6789
vn 0.7068 -0.0000 -0.7074
vn 0.7484 -0.0000 -0.6633
vn 0.7565 -0.0000 -0.6540
vn -0.8085 -0.0000 0.5884
vn -0.8094 -0.0000 0.5873
vn 0.8031 -0.0000 -0.5959
vn 0.8049 -0.0000 -0.5934
vn -0.8000 -0.0000 0.6000
vn -0.7970 -0.0000 0.6040
vn 0.8007 -0.0000 -0.5991
vn 0.7978 -0.0000 -0.6029
vn -0.6929 -0.0000 0.7210
vn -0.7594 -0.0000 0.6507
vn -0.7536 -0.0000 0.6574
vn -0.6847 -0.0000 0.7288
vn 0.7610 -0.0000 -0.6488
vn 0.6948 -0.0000 -0.7192
vn 0.6867 -0.0000 -0.7270
vn 0.7552 -0.0000 -0.6555
vn -0.5994 -0.0000 0.8005
vn -0.5888 -0.0000 0.8083
vn 0.6014 -0.0000 -0.7989
vn 0.5908 -0.0000 -0.8068
vn -0.4768 -0.0000 0.8790
vn -0.4648 -0.0000 0.8854
vn 0.4784 -0.0000 -0.8781
vn 0.4663 -0.0000 -0.8846
vn -0.3304 -0.0000 0.9438
vn -0.3187 -0.0000 0.9479
vn 0.3309 -0.0000 -0.9437
vn 0.3191 -0.0000 -0.9477
vn -0.1720 -0.0000 0.9851
vn -0.1621 -0.0000 0.9868
vn 0.1708 -0.0000 -0.9853
vn 0.1611 -0.0000 -0.9869
vn -0.0210 -0.0000 0.9998
vn -0.0145 -0.0000 0.9999
vn 0.0208 -0.0000 -0.9998
vn 0.0101 -0.0000 -0.9999
vn 0.1203 -0.0000 0.9927
vn 0.1288 -0.0000 0.9917
vn -0.1165 -0.0000 -0.9932
vn -0.1342 -0.0000 -0.9910
vn 0.2712 -0.0000 0.9625
vn 0.2870 -0.0000 0.9579
vn -0.2631 -0.0000 -0.9648
vn -0.2916 -0.0000 -0.9565
vn 0.4358 -0.0000 0.9001
vn 0.4593 -0.0000 0.8883
vn -0.4266 -0.0000 -0.9045
vn -0.4659 -0.0000 -0.8848
vn 0.6036 -0.0000 0.7973
vn 0.6320 -0.0000 0.7750
vn -0.5969 -0.0000 -0.8023
vn -0.6430 -0.0000 -0.7659
vn 0.7579 -0.0000 0.6524
vn 0.7853 -0.0000 0.6192
vn -0.7567 -0.0000 -0.6538
vn -0.8000 -0.0000 -0.6000
vn 0.8807 -0.0000 0.4736
vn 0.9012 -0.0000 0.4334
vn -0.8843 -0.0000 -0.4668
vn -0.9152 -0.0000 -0.4030
vn 0.9606 -0.0000 0.2778
vn 0.9715 -0.0000 0.2369
vn -0.9651 -0.0000 -0.2620
vn -0.9800 -0.0000 -0.1988
vn 0.9965 -0.0000 0.0834
vn 0.9989 -0.0000 0.0473
vn -0.9981 -0.0000 -0.0614
vn -1.0000 -0.0000 -0.0067
vn 0.9953 -0.0000 -0.0966
vn 0.9921 -0.0000 -0.1254
vn -0.9927 -0.0000 0.1207
vn -0.9864 -0.0000 0.1642
vn 0.9665 -0.0000 -0.2565
vn 0.9607 -0.0000 -0.2776
vn -0.9602 -0.0000 0.2794
vn -0.9500 -0.0000 0.3121
vn 0.9182 -0.0000 -0.3962
vn 0.9118 -0.0000 -0.4106
vn -0.9099 -0.0000 0.4148
vn -0.8990 -0.0000 0.4380
vn 0.8849 -0.0000 -0.4659
vn -0.8744 -0.0000 0.4852
vt 0.583333 1.000000
vt 0.596605 0.999374
vt 0.591390 0.000000
vt 0.583333 0.000000
vt 0.596279 1.000000
vt 0.596279 0.000000
vt 0.600498 1.000000
vt 0.600498 0.000000
vt 0.605263 1.000000
vt 0.609649 1.000000
vt 0.609649 0.000000
vt 0.605263 0.000000
vt 0.614035 1.000000
vt 0.614035 0.000000
vt 0.618421 1.000000
vt 0.618421 0.000000
vt 0.622807 1.000000
vt 0.622807 0.000000
vt 0.627193 1.000000
vt 0.627193 0.000000
vt 0.631579 1.000000
vt 0.631579 0.000000
vt 0.635965 1.000000
vt 0.635965 0.000000
vt 0.640351 1.000000
vt 0.640351 0.000000
vt 0.644737 1.000000
vt 0.644737 0.000000
vt 0.649123 1.000000
vt 0.649123 0.000000
vt 0.653509 1.000000
vt 0.653509 0.000000
vt 0.657895 1.000000
vt 0.657895 0.000000
vt 0.662281 1.000000
vt 0.662281 0.000000
vt 0.666667 1.000000
vt 0.666667 0.000000
vt 0.671053 1.000000
vt 0.671053 0.000000
vt 0.675439 1.000000
vt 0.675439 0.000000
vt 0.679825 1.000000
vt 0.679825 0.000000
vt 0.684211 1.000000
vt 0.684211 0.000000
s 1
f 2/1/1 4/2/2 3/3/3 1/4/1
f 4/2/2 6/5/4 5/6/5 3/3/3
f 6/5/4 8/7/6 7/8/6 5/6/5
f 10/9/7 12/10/8 11/11/8 9/12/7
f 12/10/8 14/13/9 13/14/9 11/11/8
f 14/13/9 16/15/10 15/16/10 13/14/9
f 16/15/10 18/17/11 17/18/11 15/16/10
f 18/17/11 20/19/12 19/20/12 17/18/11
f 20/19/12 22/21/13 21/22/13 19/20/12
f 22/21/13 24/23/14 23/24/14 21/22/13
f 24/23/14 26/25/15 25/26/15 23/24/14
f 26/25/15 28/27/16 27/28/16 25/26/15
f 28/27/16 30/29/17 29/30/17 27/28/16
f 30/29/17 32/31/18 31/32/18 29/30/17
f 32/31/18 34/33/19 33/34/19 31/32/18
f 34/33/19 36/35/20 35/36/20 33/34/19
f 36/35/20 38/37/21 37/38/21 35/36/20
f 38/37/21 40/39/22 39/40/22 37/38/21
f 40/39/22 42/41/23 41/42/23 39/40/22
f 42/41/23 44/43/24 43/44/24 41/42/23
f 44/43/24 46/45/25 45/46/25 43/44/24
f 8/7/6 10/9/7 9/12/7 7/8/6
f 4/2/26 2/1/27 48/1/27 50/2/28
f 1/4/29 3/3/30 49/3/31 47/4/29
f 6/5/32 4/2/26 50/2/28 52/5/33
f 3/3/30 5/6/34 51/6/35 49/3/31
f 8/7/36 6/5/32 52/5/33 54/7/37
f 5/6/34 7/8/38 53/8/39 51/6/35
f 12/10/40 10/9/41 56/9/42 58/10/43
f 9/12/44 11/11/45 57/11/46 55/12/47
f 14/13/48 12/10/40 58/10/43 60/13/49
f 11/11/45 13/14/50 59/14/51 57/11/46
f 16/15/52 14/13/48 60/13/49 62/15/53
f 13/14/50 15/16/54 61/16/55 59/14/51
f 18/17/56 16/15/52 62/15/53 64/17/57
f 15/16/54 17/18/58 63/18/59 61/16/55
f 20/19/60 18/17/56 64/17/57 66/19/61
f 17/18/58 19/20/62 65/20/63 63/18/59
f 22/21/64 20/19/60 66/19/61 68/21/65
f 19/20/62 21/22/66 67/22/67 65/20/63
f 24/23/68 22/21/64 68/21/65 70/23/69
f 21/22/66 23/24/70 69/24/71 67/22/67
f 26/25/72 24/23/68 70/23/69 72/25/73
f 23/24/70 25/26/74 71/26/75 69/24/71
f 28/27/76 26/25/72 72/25/73 74/27/77
f 25/26/74 27/28/78 73/28/79 71/26/75
f 30/29/80 28/27/76 74/27/77 76/29/81
f 27/28/78 29/30/82 75/30/83 73/28/79
f 32/31/84 30/29/80 76/29/81 78/31/85
f 29/30/82 31/32/86 77/32/87 75/30/83
f 34/33/88 32/31/84 78/31/85 80/33/89
f 31/32/86 33/34/90 79/34/91 77/32/87
f 36/35/92 34/33/88 80/33/89 82/35/93
f 33/34/90 35/36/94 81/36/95 79/34/91
f 38/37/96 36/35/92 82/35/93 84/37/97
f 10/9/41 8/7/36 54/7/37 56/9/42
f 35/36/94 37/38/98 83/38/99 81/36/95
f 7/8/38 9/12/44 55/12/47 53/8/39
f 40/39/100 38/37/96 84/37/97 86/39/101
f 37/38/98 39/40/102 85/40/103 83/38/99
f 42/41/104 40/39/100 86/39/101 88/41/105
f 39/40/102 41/42/106 87/42/107 85/40/103
f 44/43/108 42/41/104 88/41/105 90/43/109
f 41/42/106 43/44/110 89/44/111 87/42/107
f 46/45/112 44/43/108 90/43/109 92/45/112
f 43/44/110 45/46/113 91/46/113 89/44/111
