# Blender 4.5.3 LTS
# www.blender.org
o cartel_2
v -1.686885 -0.855478 0.131258
v 1.668678 -0.855478 0.131258
v -1.744538 0.855478 0.131258
v 1.668678 0.855478 0.131258
v -1.668679 -0.179609 0.131258
v -1.668679 -0.425940 0.131258
v 1.668678 0.179608 0.131258
v 1.668678 0.425939 0.131258
v -1.502738 -0.888856 0.131258
v 1.502737 -0.834237 0.131258
v 1.502737 0.925016 0.131258
v -1.502738 0.918399 0.131258
v 1.536394 0.124704 0.131258
v -1.496669 -0.371380 0.131258
v 1.536394 0.226406 0.131258
v -1.496669 -0.279557 0.131258
v -1.668679 -0.425940 0.454106
v -1.686885 -0.855478 0.454106
v 1.502737 -0.834237 0.454106
v 1.668678 -0.855478 0.454106
v 1.668678 0.425939 0.454106
v 1.668678 0.855478 0.454106
v -1.502738 0.918399 0.454106
v -1.744538 0.855478 0.454106
v -1.668679 -0.179609 0.454106
v 1.668678 0.179608 0.454106
v -1.496669 -0.371380 0.454106
v -1.496669 -0.279557 0.454106
v -1.502738 -0.888856 0.454106
v 1.502737 0.925016 0.454106
v 1.536394 0.124704 0.454106
v 1.536394 0.226406 0.454106
vn -0.0000 -0.0000 -1.0000
vn -0.0000 -0.0000 1.0000
vn -0.0022 1.0000 -0.0000
vn -0.9973 -0.0731 -0.0000
vn -0.3833 0.9236 -0.0000
vn 1.0000 -0.0000 -0.0000
vn -0.3023 0.9532 -0.0000
vn 0.8335 -0.5526 -0.0000
vn -0.5024 -0.8646 -0.0000
vn -0.9991 0.0423 -0.0000
vn -0.1784 -0.9840 -0.0000
vn -0.1270 -0.9919 -0.0000
vn -1.0000 -0.0000 -0.0000
vn 0.0182 -0.9998 -0.0000
vn 0.3865 0.9223 -0.0000
vn -0.2518 0.9678 -0.0000
vt 0.903782 0.493610
vt 0.889233 0.539644
vt 0.899698 0.535259
vt 0.903934 0.503087
vt 0.890363 0.409212
vt 0.903782 0.487197
vt 0.912125 0.490659
vt 0.903652 0.418322
vt 0.708835 0.453935
vt 0.704316 0.458596
vt 0.705030 0.408155
vt 0.698270 0.450776
vt 0.716643 0.406050
vt 0.694316 0.460662
vt 0.691509 0.535259
vt 0.706758 0.539227
vt 0.739137 0.533647
vt 0.748958 0.533647
vt 0.748958 0.535722
vt 0.739137 0.535722
vt 0.749846 0.533647
vt 0.756502 0.533647
vt 0.756502 0.535722
vt 0.749846 0.535722
vt 0.733110 0.533647
vt 0.733668 0.533647
vt 0.733668 0.535722
vt 0.733110 0.535722
vt 0.726458 0.533647
vt 0.726458 0.535722
vt 0.757946 0.533647
vt 0.758608 0.533647
vt 0.758608 0.535722
vt 0.757946 0.535722
vt 0.734321 0.533647
vt 0.735674 0.533647
vt 0.735674 0.535722
vt 0.734321 0.535722
vt 0.757356 0.533647
vt 0.757356 0.535722
vt 0.761369 0.533647
vt 0.761369 0.535722
vt 0.715433 0.533647
vt 0.716071 0.533647
vt 0.716071 0.535722
vt 0.715433 0.535722
vt 0.725899 0.533647
vt 0.725899 0.535722
vt 0.738435 0.533647
vt 0.738435 0.535722
s 0
f 15/1/1 11/2/1 4/3/1 8/4/1
f 10/5/1 13/6/1 7/7/1 2/8/1
f 14/9/1 16/10/1 15/1/1 13/6/1
f 1/11/1 6/12/1 14/9/1 9/13/1
f 9/13/1 14/9/1 13/6/1 10/5/1
f 5/14/1 3/15/1 12/16/1 16/10/1
f 16/10/1 12/16/1 11/2/1 15/1/1
f 32/1/2 21/4/2 22/3/2 30/2/2
f 19/5/2 20/8/2 26/7/2 31/6/2
f 27/9/2 31/6/2 32/1/2 28/10/2
f 18/11/2 29/13/2 27/9/2 17/12/2
f 29/13/2 19/5/2 31/6/2 27/9/2
f 25/14/2 28/10/2 23/16/2 24/15/2
f 28/10/2 32/1/2 30/2/2 23/16/2
f 11/17/3 12/18/3 23/19/3 30/20/3
f 3/21/4 5/22/4 25/23/4 24/24/4
f 7/25/5 13/26/5 31/27/5 26/28/5
f 2/29/6 7/25/6 26/28/6 20/30/6
f 14/31/7 6/32/7 17/33/7 27/34/7
f 15/35/8 8/36/8 21/37/8 32/38/8
f 5/22/9 16/39/9 28/40/9 25/23/9
f 6/32/10 1/41/10 18/42/10 17/33/10
f 1/43/11 9/44/11 29/45/11 18/46/11
f 10/47/12 2/29/12 20/30/12 19/48/12
f 16/39/13 14/31/13 27/34/13 28/40/13
f 9/44/14 10/47/14 19/48/14 29/45/14
f 8/36/6 4/49/6 22/50/6 21/37/6
f 13/26/6 15/35/6 32/38/6 31/27/6
f 4/49/15 11/17/15 30/20/15 22/50/15
f 12/18/16 3/21/16 24/24/16 23/19/16
