# Blender 4.5.3 LTS
# www.blender.org
o Circuito_pueblo_cimiento.005
v -697.833801 -13.000898 -555.336060
v -677.605896 -22.446594 -521.760742
v -724.388245 -17.930807 -525.386780
v -691.929138 -25.439947 -502.677551
v -739.880676 -22.400917 -488.740387
v -702.369507 -28.921648 -475.470703
v -751.169617 -26.538406 -445.445953
v -711.940491 -32.674709 -438.437561
v -757.343872 -30.459450 -397.133484
v -717.584045 -36.493168 -394.228607
v -759.532715 -34.193390 -345.761322
v -719.671631 -40.257870 -345.691711
v -757.497925 -38.877155 -275.768188
v -717.750854 -45.086742 -278.353943
v -686.157104 -23.943270 -513.236572
v -712.500610 -15.465853 -541.378845
v -697.318359 -27.180796 -489.864471
v -732.303406 -20.165863 -507.853882
vn 0.0767 0.9730 0.2179
vn 0.0742 0.9725 0.2209
vn 0.0964 0.9770 0.1904
vn 0.0979 0.9773 0.1878
vn 0.1103 0.9799 0.1664
vn 0.1097 0.9798 0.1674
vn 0.1209 0.9820 0.1450
vn 0.1214 0.9821 0.1441
vn 0.1336 0.9843 0.1150
vn 0.1430 0.9856 0.0902
vn 0.1504 0.9860 0.0721
vn 0.1504 0.9860 0.0720
vn 0.1540 0.9860 0.0639
vn 0.0620 0.9700 0.2349
vt -2.180789 0.999421
vt -2.180789 0.502947
vt -1.982503 0.502947
vt -1.982503 0.999421
vt -1.777007 0.999421
vt -1.777007 0.502947
vt -1.555129 0.502947
vt -1.555129 0.999421
vt -1.041829 0.502947
vt -1.041829 0.999421
vt -0.465554 0.502947
vt -0.465554 0.999421
vt 0.151899 0.502947
vt 0.151899 0.999421
vt 0.999848 0.502947
vt 0.999848 0.999421
vt -2.381286 0.999421
vt -2.381286 0.502947
s 1
g Circuito_pueblo_cimiento.005_Carretera
f 15/1/1 16/2/2 3/3/3 4/4/4
f 17/5/5 18/6/6 5/7/7 6/8/8
f 6/8/8 5/7/7 7/9/9 8/10/9
f 8/10/9 7/9/9 9/11/10 10/12/10
f 10/12/10 9/11/10 11/13/11 12/14/12
f 12/14/12 11/13/11 13/15/13 14/16/13
f 2/17/14 1/18/14 16/2/2 15/1/1
f 4/4/4 3/3/3 18/6/6 17/5/5
