# Blender 4.5.3 LTS
# www.blender.org
o Pocion_2_LOD01
v 0.438772 -2.730541 -0.374798
v -0.564661 -2.730541 0.150362
v 0.464437 -2.729710 0.418252
v -0.149951 -2.725835 0.589787
v -0.243955 -2.725835 -0.458062
v 1.060622 -0.284421 -0.566102
v 0.352266 -0.284421 -1.157822
v -0.567024 -0.284421 -1.075364
v -1.158745 -0.284421 -0.367008
v -1.076272 -0.284421 0.552283
v -0.367929 -0.284421 1.144003
v 0.551360 -0.284421 1.061530
v 1.143080 -0.284421 0.353188
v 0.514765 0.339309 -0.280411
v 0.168296 0.339309 -0.569834
v -0.281334 0.339309 -0.529507
v -0.570757 0.339309 -0.183038
v -0.530415 0.339309 0.266592
v -0.183960 0.339309 0.556015
v 0.265669 0.339309 0.515674
v 0.555093 0.339309 0.169218
v 0.377715 0.754440 -0.468426
v -0.281334 0.754440 -0.529507
v -0.615106 0.754440 0.099854
v -0.183960 0.754440 0.556015
v 0.497081 0.754440 0.346991
v 0.142268 0.654886 -0.376107
v -0.413648 0.665741 0.004231
v 0.448898 0.712218 0.030908
v -0.106799 0.718795 0.411674
v -0.173252 0.641649 -0.347130
v 0.208722 0.732033 0.382697
v -0.114113 1.256739 -0.562488
v -0.492426 1.278493 -0.073002
v 0.464903 1.333157 -0.011786
v 0.085951 1.368425 0.476473
vn -0.0020 -1.0000 0.0004
vn -0.3325 -0.6991 -0.6330
vn -0.0049 -0.8302 -0.5574
vn -0.7437 -0.2436 0.6226
vn -0.8648 -0.2437 0.4389
vn -0.9721 -0.2177 0.0872
vn 0.9801 0.0869 0.1784
vn 0.9689 0.0556 0.2410
vn 0.7569 -0.1650 0.6323
vn 0.2486 0.0305 -0.9681
vn 0.3324 -0.0028 -0.9431
vn 0.6353 -0.1347 -0.7605
vn -0.7929 0.5977 0.1188
vn -0.4080 0.8078 0.4255
vn -0.0000 1.0000 -0.0000
vn -0.8563 -0.0169 0.5163
vn -0.9823 -0.1650 0.0881
vn 0.5463 -0.0328 0.8369
vn 0.1010 0.0408 0.9940
vn -0.4567 -0.0065 0.8896
vn -0.5321 -0.2477 -0.8097
vn -0.1111 0.4625 -0.8796
vn 0.4637 -0.1313 -0.8762
vn 0.5669 0.6741 0.4736
vn -0.0660 0.6741 -0.7357
vn 0.0660 0.6741 0.7357
vn 0.4735 0.6741 -0.5669
vn -0.7897 -0.2755 -0.5482
vn -0.4331 -0.8496 -0.3011
vn 0.9638 -0.2594 -0.0607
vn 0.9448 -0.2637 -0.1945
vn 0.8661 -0.2590 -0.4275
vn -0.6563 -0.2380 0.7159
vn 0.4673 -0.2262 0.8547
vn 0.1584 -0.2310 0.9600
vn 0.2837 -0.2321 0.9304
vn 0.6257 -0.2177 -0.7491
vn -0.0003 -0.2755 -0.9613
vn 0.0186 0.1166 -0.9930
vn 0.7531 -0.1923 0.6291
vn 0.2133 0.1371 0.9673
vn -0.5669 0.6741 -0.4736
vn -0.7357 0.6741 0.0660
vn 0.7357 0.6741 -0.0660
vn -0.4736 0.6741 0.5669
vn -0.4894 0.8141 -0.3126
vn -0.8348 0.1371 -0.5332
vn 0.9666 0.2256 -0.1220
vn 0.0008 -1.0000 -0.0001
vn -0.6902 0.0742 0.7198
vn -0.8480 0.5298 -0.0177
vn -0.9963 -0.0484 0.0709
vn -0.0483 0.9941 -0.0976
vn 0.7902 0.6057 -0.0930
vn 0.9968 0.0393 -0.0700
vt 0.063503 0.055225
vt 0.213980 0.020042
vt 0.151519 0.068715
vt 0.652327 0.079602
vt 0.587285 0.348785
vt 0.508155 0.322608
vt 0.191619 0.453013
vt 0.225651 0.522473
vt 0.141566 0.506153
vt 0.316930 0.399821
vt 0.296451 0.457654
vt 0.252891 0.419038
vt 0.525547 0.472931
vt 0.585181 0.507683
vt 0.610325 0.572894
vt 0.308906 0.530988
vt 0.562139 0.431558
vt 0.498832 0.414506
vt 0.782247 0.080429
vt 0.857171 0.079147
vt 0.788500 0.116697
vt 0.795143 0.226823
vt 0.864968 0.240991
vt 0.794958 0.263626
vt 0.039244 0.401222
vt 0.141289 0.362792
vt 0.379884 0.400756
vt 0.300826 0.307209
vt 0.396410 0.278115
vt 0.623620 0.462617
vt 0.669272 0.372950
vt 0.768842 0.407968
vt 0.675284 0.512006
vt 0.223476 0.336289
vt 0.410260 0.293947
vt 0.589722 0.026141
vt 0.715204 0.088403
vt 0.765361 0.069268
vt 0.375385 0.468642
vt 0.429811 0.413264
vt 0.438485 0.486285
vt 0.866947 0.174742
vt 0.793883 0.177816
vt 0.888061 0.186028
vt 0.980009 0.209301
vt 0.946756 0.270947
vt 0.862051 0.334491
vt 0.789575 0.324743
vt 0.854482 0.391878
vt 0.782247 0.373217
s 1
f 3/1/1 5/2/2 1/3/3
f 2/4/4 10/5/5 9/6/6
f 21/7/7 26/8/8 20/9/9
f 15/10/10 22/11/11 14/12/12
f 24/13/13 25/14/14 26/15/15
f 24/16/13 26/8/15 22/11/15
f 18/17/16 24/13/13 17/18/17
f 32/19/18 36/20/19 30/21/20
f 31/22/21 33/23/22 27/24/23
f 21/7/24 20/9/24 12/25/24 13/26/24
f 16/27/25 15/10/25 7/28/25 8/29/25
f 19/30/26 11/31/26 12/32/26 20/33/26
f 14/12/27 6/34/27 7/28/27 15/10/27
f 9/6/28 8/35/28 5/36/2 2/4/29
f 13/26/30 3/1/30 1/3/31 6/34/32
f 11/31/33 10/5/5 2/4/4 4/37/33
f 12/32/34 11/31/35 4/37/35 3/38/36
f 1/3/31 7/28/37 6/34/32
f 7/28/38 1/3/3 5/2/2 8/29/38
f 23/39/39 22/11/11 15/10/10 16/27/39
f 3/1/36 13/26/40 12/25/34
f 25/14/41 19/30/41 20/33/41 26/15/41
f 16/40/42 8/35/42 9/6/42 17/18/42
f 17/18/43 9/6/43 10/5/43 18/17/43
f 14/12/44 21/7/44 13/26/44 6/34/44
f 19/30/45 18/17/45 10/5/45 11/31/45
f 23/41/46 16/40/47 17/18/47 24/13/13
f 22/11/15 23/39/46 24/16/13
f 26/8/8 21/7/7 14/12/48 22/11/48
f 4/37/49 2/4/29 5/36/2 3/38/1
f 24/13/13 18/17/16 19/30/50 25/14/14
f 34/42/51 28/43/52 30/21/20 36/20/19
f 33/23/22 34/44/51 36/45/53
f 33/23/22 36/45/53 35/46/54
f 35/47/54 29/48/55 27/24/23 33/23/22
f 35/47/54 36/49/19 32/50/18 29/48/55
f 34/42/51 33/23/22 31/22/21 28/43/52
