# Blender 4.5.3 LTS
# www.blender.org
o Rampa_LOD03
v -2.546111 -0.015365 4.757838
v -2.508115 0.161902 -4.757839
v 0.078253 0.818682 4.757838
v 0.145325 0.650328 -4.757838
v 0.378645 0.841653 4.757839
v 0.378649 0.841655 -4.757838
v 2.984280 2.028795 4.757840
v 3.103619 1.784537 -4.757838
v 2.864953 2.273057 -4.757839
v 3.281802 2.074238 4.757838
v 3.201559 2.236733 -4.757837
v 5.705086 3.599064 4.757838
v 5.800566 3.445010 -4.757838
v 6.140352 3.445634 4.757838
v 5.847689 3.903815 4.757838
v 5.994039 3.674746 -4.757839
v 8.263473 5.393682 4.757838
v 8.263493 5.393698 -4.757838
v 8.532261 5.524941 4.757839
v 8.406352 5.655289 -4.757838
v 10.129726 7.861792 4.757838
v 10.289152 7.775671 -4.757838
v 0.337466 -0.134128 3.860336
v 0.337467 0.833389 4.344093
v 0.337467 0.833389 3.376578
v 1.304983 -0.134128 4.344093
v 1.304983 1.223673 3.860336
v 1.304983 -0.134128 3.376578
v 3.842029 -0.134128 4.344093
v 3.358271 2.154112 4.344093
v 3.358271 -0.134128 3.376578
v 3.358271 2.154112 3.376578
v 4.325788 2.544396 3.860336
v 4.325786 -0.134128 3.376578
v 3.358273 -0.134129 -3.860336
v 3.358273 2.154111 -4.344094
v 3.358273 2.154111 -3.376579
v 4.325788 -0.134129 -4.344093
v 4.325788 2.544396 -3.860336
v 4.325788 -0.134129 -3.376578
v 7.657649 -0.134128 3.860336
v 7.657648 4.689834 4.344093
v 7.657648 4.689834 3.376578
v 8.625162 -0.134128 4.344093
v 8.625163 5.415362 3.860336
v 8.625162 -0.134128 3.376578
v 7.657649 -0.134129 -3.860336
v 7.657648 4.689834 -4.344094
v 7.657648 4.689834 -3.376579
v 8.625162 -0.134129 -4.344093
v 8.625162 5.415361 -3.860336
v 8.625162 -0.134129 -3.376578
v -2.396218 -0.544467 4.513322
v -2.334914 -0.608931 3.297630
v 7.982473 4.436870 4.513322
v 7.904001 4.610792 3.297629
v 10.387759 7.567204 3.905476
v 7.794672 4.623026 4.513321
v -2.557067 -0.286674 -4.513322
v -2.473887 -0.426156 -3.297628
v 1.269723 0.701861 -3.297628
v 5.572798 2.830405 -4.513322
v 7.404870 4.212080 -3.297628
v 10.496016 7.381714 -4.513323
v 10.587379 7.347690 -3.297629
v 2.530637 1.369687 -4.513322
vn 0.8985 0.4390 -0.0000
vn 1.0000 -0.0000 -0.0000
vn 0.8915 -0.0805 0.4458
vn 0.7721 -0.6202 -0.1386
vn 0.6095 -0.7877 -0.0895
vn 0.6184 -0.7805 -0.0920
vn -0.6013 0.7961 -0.0678
vn -0.7559 0.6504 -0.0745
vn -0.6142 0.7862 -0.0684
vn 0.1080 0.1089 0.9882
vn 0.0501 0.0506 0.9975
vn 0.0586 0.0591 0.9965
vn 0.2431 -0.9700 0.0009
vn 0.5246 -0.8343 0.1698
vn 0.6582 -0.7483 -0.0823
vn 0.4831 -0.8444 0.2316
vn -0.3070 0.9429 0.1292
vn -0.3929 0.8368 -0.3813
vn -0.5488 0.7066 0.4468
vn -0.6781 0.7193 0.1511
vn -0.5280 0.6996 0.4814
vn -0.0000 -0.0000 -1.0000
vn -0.2431 0.9700 -0.0009
vn 0.3710 -0.9285 0.0142
vn -0.4573 0.8892 0.0143
vn 0.4780 -0.8784 -0.0000
vn -0.4780 0.8784 -0.0000
vn 0.6408 -0.7676 -0.0142
vn -0.8427 -0.5383 -0.0000
vn -0.0000 -0.0000 1.0000
vn -0.5650 0.8250 -0.0143
vn 0.7882 -0.6154 -0.0000
vn -0.7882 0.6154 -0.0000
vn -1.0000 -0.0000 -0.0000
vn -0.9651 -0.1020 0.2413
vn 0.2235 0.0945 -0.9701
vn 0.4168 0.0881 0.9047
vn 0.4430 -0.8954 -0.0434
vn -0.4524 0.8898 -0.0598
vn 0.3188 -0.9360 -0.1494
vn 0.2964 -0.9401 -0.1686
vn 0.4025 -0.9124 -0.0745
vn 0.6813 -0.7184 -0.1408
vn 0.4324 -0.9005 -0.0462
vn -0.7000 0.7105 0.0725
vt 0.176971 0.872274
vt 0.151603 0.923010
vt 0.126235 0.872274
vt 0.166243 0.708928
vt 0.206250 0.821220
vt 0.126235 0.821220
vt 0.126235 0.708610
vt 0.175123 0.437918
vt 0.272901 0.708610
vt 0.224012 0.708610
vt 0.753505 0.054839
vt 0.126235 0.109519
vt 0.126235 0.000159
vt 0.062704 0.998310
vt 0.009208 0.874037
vt 0.120363 0.875398
vt 0.007737 0.125585
vt 0.062448 0.000222
vt 0.117445 0.122896
vt 0.001114 0.873532
vt 0.278443 0.939615
vt 0.278443 0.838760
vt 0.329178 0.855277
vt 0.329178 0.956918
vt 0.008758 0.782905
vt 0.122637 0.859870
vt 0.117637 0.629744
vt 0.117908 0.497218
vt 0.007973 0.329891
vt 0.008170 0.499519
vt 0.117464 0.139158
vt 0.117877 0.496184
vt 0.007595 0.003288
vt 0.003515 0.669753
vt 0.007863 0.995846
vt 0.160143 0.923010
vt 0.143232 0.872274
vt 0.244929 0.872274
vt 0.261838 0.923010
vt 0.278443 0.948378
vt 0.278443 0.846906
vt 0.329178 0.872274
vt 0.329178 0.948378
vt 0.329178 0.821538
vt 0.253075 0.923010
vt 0.253075 0.872274
vt 0.278443 0.939922
vt 0.278443 0.838450
vt 0.329178 0.855362
vt 0.329178 0.956834
vt 0.160059 0.923010
vt 0.143147 0.872274
vt 0.244619 0.872274
vt 0.261531 0.923010
vt 0.278443 0.923010
vt 0.278443 0.846905
vt 0.329178 0.846907
vt 0.329178 0.948377
vt 0.227707 0.923010
vt 0.253074 0.872274
vt 0.278443 0.973746
vt 0.151602 0.923010
vt 0.151602 0.872274
vt 0.278443 0.939926
vt 0.278443 0.838446
vt 0.329178 0.855367
vt 0.329178 0.956829
vt 0.160054 0.923010
vt 0.143142 0.872274
vt 0.244615 0.872274
vt 0.261527 0.923010
vt 0.446296 0.821220
vt 0.326273 0.821220
vt 0.366281 0.741205
vt 0.446296 0.708928
vt 0.286265 0.741205
vt 0.419567 0.708610
vt 0.321789 0.477360
vt 0.419567 0.477360
vt 0.517344 0.708610
vt 0.517344 0.437918
vt 0.370678 0.708610
vt 0.126235 0.437600
vt 0.126235 0.273560
vt 0.671497 0.328240
vt 0.753505 0.437600
vt 0.671497 0.218879
vt 0.126235 0.273560
vt 0.671497 0.218880
vt 0.004220 0.505266
vt 0.117977 0.501776
vt 0.117875 0.494392
vt 0.008167 0.497315
vt 0.116334 0.995800
vt 0.117304 0.000159
s 1
f 9/1/1 7/2/1 8/3/1
f 27/4/2 26/5/2 28/6/2
f 34/7/3 33/8/3 29/9/3
f 38/10/2 39/8/2 40/7/2
f 45/11/2 44/12/2 46/13/2
f 50/12/2 51/11/2 52/13/2
f 57/14/4 55/15/5 56/16/6
f 58/17/7 57/18/8 56/19/9
f 57/14/10 58/20/11 55/15/12
f 1/21/13 2/22/13 4/23/13 3/24/13
f 62/25/14 63/26/15 61/27/16
f 60/28/17 66/29/17 59/30/17
f 63/31/18 66/29/18 60/32/18
f 63/31/19 64/33/20 66/29/21
f 66/34/22 64/35/22 62/25/22
f 3/36/23 4/37/23 2/38/23 1/39/23
f 5/40/24 6/41/24 8/42/24 7/43/24
f 6/41/22 9/44/22 8/42/22
f 5/45/25 7/2/25 9/1/25 6/46/25
f 10/47/26 11/48/26 13/49/26 12/50/26
f 12/51/27 13/52/27 11/53/27 10/54/27
f 14/55/28 16/56/28 18/57/28 17/58/28
f 14/55/29 15/59/29 16/60/29
f 17/58/30 15/61/30 14/55/30
f 15/59/31 17/62/31 18/63/31 16/60/31
f 19/64/32 20/65/32 22/66/32 21/67/32
f 21/68/33 22/69/33 20/70/33 19/71/33
f 28/72/22 23/73/22 25/74/22 27/75/22
f 24/76/34 25/74/34 23/73/34
f 24/76/30 23/73/30 26/5/30 27/4/30
f 31/77/35 29/9/35 30/78/35 32/79/35
f 34/80/36 31/77/36 32/79/36 33/81/36
f 37/79/30 35/82/30 40/80/30 39/81/30
f 29/9/37 33/8/37 30/78/37
f 35/82/34 37/79/34 36/78/34
f 36/78/22 39/8/22 38/10/22 35/82/22
f 46/83/22 41/84/22 43/85/22 45/86/22
f 42/87/34 43/85/34 41/84/34
f 42/87/30 41/84/30 44/12/30 45/11/30
f 49/85/30 47/88/30 52/83/30 51/86/30
f 47/88/34 49/85/34 48/89/34
f 48/89/22 51/11/22 50/12/22 47/88/22
f 55/15/5 53/90/38 54/91/38 56/16/6
f 58/17/7 56/19/9 54/92/39 53/93/39
f 61/27/40 60/28/41 59/30/41 66/34/42
f 53/90/30 55/15/12 58/20/11
f 65/94/43 63/26/15 62/25/14 64/35/43
f 66/34/42 62/25/44 61/27/40
f 63/31/19 65/95/45 64/33/20
f 63/26/30 60/28/30 61/27/30
