# Blender 4.5.3 LTS
# www.blender.org
o Valla_LOD03
v -6.634526 -3.598936 0.118774
v -5.583272 -3.598936 0.392910
v -6.360390 -3.598936 -0.932479
v -5.309137 -3.598936 -0.658344
v -5.583272 3.235651 -0.932480
v -6.634526 3.235651 -0.658344
v -6.360390 3.235651 0.392909
v -5.309137 3.235651 0.118774
v 5.359246 -3.598936 0.193769
v 6.695796 -3.598936 0.149326
v 5.756269 -3.598936 -1.078060
v 5.422254 3.235651 0.225608
v 5.359245 3.235651 -0.733339
v 6.656886 3.235651 -0.727522
v 6.258355 3.235651 0.421953
v -6.035871 -0.080992 -0.244551
v -5.935243 1.834116 -0.230028
v 6.036403 -0.109616 -0.232050
v -6.035115 -0.112465 0.632962
v -5.944630 1.828235 0.621635
v -6.400118 -0.100695 0.196217
v -6.407691 2.008742 0.194735
v 6.396162 -0.265581 0.199757
v 5.942862 1.785643 -0.231976
v 6.035770 -0.080586 0.637234
v 5.941756 1.780887 0.625273
v 6.401474 1.862270 0.198707
v -5.889128 -2.813673 -0.183823
v -5.790947 -0.945125 -0.169653
v 5.889647 -2.841601 -0.171626
v -5.888390 -2.844381 0.672356
v -5.800106 -0.950862 0.661305
v -6.244521 -2.832899 0.246231
v -6.251909 -0.774745 0.244786
v 6.240661 -2.993775 0.249685
v 5.798381 -0.992419 -0.171553
v 5.889030 -2.813278 0.676525
v 5.797303 -0.997059 0.664854
v 6.245842 -0.917655 0.248661
vn -0.0000 1.0000 -0.0000
vn -0.2052 -0.0233 0.9784
vn 0.2052 0.0233 0.9784
vn -0.2522 -0.0287 0.9672
vn 0.9784 -0.0233 0.2052
vn 0.9784 0.0233 -0.2052
vn 0.9672 -0.0287 0.2522
vn 0.2052 -0.0233 -0.9784
vn -0.2052 0.0233 -0.9784
vn 0.2522 -0.0287 -0.9672
vn -0.9784 -0.0233 -0.2052
vn -0.9784 0.0233 0.2052
vn -0.9672 -0.0287 -0.2522
vn -0.9997 0.0031 0.0225
vn -0.9538 -0.0404 -0.2977
vn -0.9630 -0.0362 -0.2671
vn 0.7919 -0.0733 -0.6062
vn -0.7459 0.0319 0.6653
vn -0.6848 0.0123 0.7286
vn -0.6731 -0.0046 0.7395
vn 0.0017 -0.9263 0.3767
vn -0.0126 -0.9999 -0.0093
vn -0.0129 -0.9998 -0.0162
vn -0.7682 0.0400 0.6390
vn -0.7731 0.0457 -0.6327
vn -0.7476 0.0363 -0.6632
vn -0.6783 0.0124 -0.7347
vn -0.6640 -0.0055 -0.7477
vn -0.0002 -0.0000 -1.0000
vn -0.0000 0.0008 -1.0000
vn 0.0009 0.0068 -1.0000
vn -0.0003 0.0064 1.0000
vn -0.0004 0.0059 1.0000
vn 0.6898 0.0142 0.7239
vn 0.7544 0.0353 0.6555
vn 0.6750 -0.0030 0.7378
vn 0.7515 0.0312 -0.6590
vn 0.7765 0.0379 -0.6290
vn 0.6924 0.0129 -0.7214
vn -0.7479 0.0373 0.6628
vn -0.7041 -0.0140 0.7100
vn -0.6761 -0.0094 0.7367
vn -0.0030 -0.9954 0.0962
vn 0.0784 -0.9906 -0.1124
vn 0.1588 -0.9873 -0.0108
vn -0.7643 0.0729 0.6407
vn -0.7907 0.0547 -0.6097
vn -0.7476 0.0384 -0.6631
vn -0.7024 -0.0053 -0.7118
vn -0.6644 -0.0076 -0.7474
vn -0.0154 -0.0196 -0.9997
vn 0.0107 -0.0008 -0.9999
vn -0.0466 0.0675 0.9966
vn 0.1109 0.1123 0.9875
vn 0.7125 -0.0061 0.7017
vn 0.7554 0.0383 0.6541
vn 0.6745 -0.0024 0.7383
vn 0.7525 0.0344 -0.6577
vn 0.7725 0.0717 -0.6309
vn 0.7103 -0.0152 -0.7037
vn -0.9672 0.0287 0.2522
vn 0.2522 0.0287 0.9672
vn 0.9672 0.0287 -0.2522
vn -0.2522 0.0287 -0.9672
vn -0.0697 -0.0241 0.9973
vn -0.0075 -0.9803 -0.1974
vn -0.9978 0.0089 0.0656
vn 0.0045 0.0506 -0.9987
vn 0.9438 0.0474 0.3272
vn 0.0011 0.0075 -1.0000
vn 0.0074 0.9560 0.2933
vn 0.0023 -0.9204 0.3911
vn 0.7820 0.0430 0.6218
vn 0.0076 0.9595 -0.2817
vn 0.0213 -0.9968 -0.0773
vn -0.1332 -0.9841 -0.1179
vn 0.6795 -0.0037 -0.7337
vn 0.0126 0.0390 -0.9992
vn -0.0941 0.9686 0.2303
vn -0.2002 0.9369 0.2867
vn -0.0225 0.9888 0.1475
vn -0.0065 -0.0176 0.9998
vn -0.0287 -0.9591 0.2818
vn 0.8004 0.0454 0.5977
vn -0.0212 0.9856 -0.1680
vn 0.0645 0.9876 -0.1431
vn -0.1431 0.8995 -0.4127
vn 0.6847 -0.0100 -0.7288
vt 0.266025 0.175632
vt 0.256584 0.324074
vt 0.108142 0.314633
vt 0.197213 0.985535
vt 0.268826 0.397349
vt 0.303799 0.985632
vt 0.090643 0.985589
vt 0.162241 0.397251
vt 0.019854 0.985719
vt 0.055642 0.397109
vt 0.375396 0.397295
vt 0.410398 0.985775
vt 0.082292 0.397111
vt 0.048885 0.985661
vt 0.170569 0.985531
vt 0.098389 0.179171
vt 0.095768 0.305384
vt 0.253034 0.310969
vt 0.233419 0.150712
vt 0.379500 0.397282
vt 0.305069 0.985641
vt 0.422880 0.985790
vt 0.551864 0.412915
vt 0.860201 0.493861
vt 0.949311 0.418118
vt 0.525980 0.420718
vt 0.555619 0.454514
vt 0.560799 0.453259
vt 0.911956 0.455490
vt 0.906151 0.453308
vt 0.557902 0.458588
vt 0.560856 0.453245
vt 0.905347 0.453249
vt 0.927954 0.411815
vt 0.551864 0.412915
vt 0.860201 0.493861
vt 0.949311 0.418117
vt 0.525980 0.420718
vt 0.555619 0.454514
vt 0.560799 0.453259
vt 0.911956 0.455490
vt 0.906151 0.453308
vt 0.557901 0.458588
vt 0.560856 0.453245
vt 0.905348 0.453249
vt 0.927954 0.411815
vt 0.117583 0.166191
vt 0.446185 0.397164
vt 0.259311 0.397347
vt 0.176409 0.397275
vt 0.019854 0.397140
s 1
f 5/1/1 6/2/1 7/3/1
f 2/4/2 7/5/3 1/6/4
f 4/7/5 8/8/6 2/4/7
f 3/9/8 5/10/9 4/7/10
f 1/6/11 6/11/12 3/12/13
f 13/13/14 11/14/15 9/15/16
f 12/16/1 15/17/1 14/18/1 13/19/1
f 14/20/17 10/21/17 11/22/17
f 21/23/18 20/24/19 22/25/20
f 23/26/21 19/27/22 21/23/23
f 21/23/18 19/27/24 20/24/19
f 16/28/25 21/23/26 17/29/27
f 17/29/27 21/23/26 22/25/28
f 24/30/29 18/31/30 17/29/31
f 25/32/32 20/24/33 19/27/33
f 26/33/34 23/26/35 27/34/36
f 23/26/37 18/31/38 24/30/39
f 33/35/40 32/36/41 34/37/42
f 35/38/43 31/39/44 33/35/45
f 33/35/40 31/39/46 32/36/41
f 28/40/47 33/35/48 29/41/49
f 29/41/49 33/35/48 34/37/50
f 36/42/51 30/43/30 29/41/52
f 37/44/53 32/36/33 31/39/54
f 38/45/55 35/38/56 39/46/57
f 35/38/58 30/43/59 36/42/60
f 8/47/1 5/1/1 7/3/1
f 1/6/11 7/5/61 6/11/12
f 2/4/2 8/8/62 7/5/3
f 4/7/5 5/10/63 8/8/6
f 3/12/8 6/11/64 5/48/9
f 9/15/65 10/21/65 15/49/65 12/50/65
f 23/26/66 21/23/66 16/28/66 18/31/66
f 12/50/67 13/13/14 9/15/16
f 13/13/68 14/51/68 11/14/68
f 10/21/69 14/20/69 15/49/69
f 18/31/30 16/28/70 17/29/31
f 26/33/71 27/34/71 22/25/71 20/24/71
f 20/24/33 25/32/32 26/33/32
f 25/32/72 19/27/22 23/26/21
f 23/26/35 26/33/34 25/32/73
f 24/30/74 17/29/74 22/25/74 27/34/74
f 35/38/43 33/35/45 28/40/75 30/43/76
f 24/30/39 27/34/77 23/26/37
f 30/43/30 28/40/78 29/41/52
f 38/45/79 39/46/80 34/37/71 32/36/81
f 32/36/33 37/44/53 38/45/82
f 37/44/83 31/39/44 35/38/43
f 35/38/56 38/45/55 37/44/84
f 36/42/85 29/41/86 34/37/74 39/46/87
f 36/42/60 39/46/88 35/38/58
