# Blender 4.5.3 LTS
# www.blender.org
o Valla
v -6.472159 -3.598936 0.230544
v -5.471502 -3.598936 0.230544
v -6.472159 -3.598936 -0.770113
v -5.471502 -3.598936 -0.770113
v -6.679402 -3.598936 -0.269785
v -5.971831 -3.598936 0.437786
v -5.264260 -3.598936 -0.269785
v -5.971831 -3.598936 -0.977356
v -6.625540 -3.598936 0.000992
v -5.701055 -3.598936 0.383925
v -5.318122 -3.598936 -0.540561
v -6.242607 -3.598936 -0.923494
v -6.625540 -3.598936 -0.540561
v -6.242607 -3.598936 0.383925
v -5.318122 -3.598936 0.000992
v -5.701055 -3.598936 -0.923494
v -6.625540 3.235651 0.000991
v -6.472159 3.235651 0.230544
v -5.701055 3.235651 0.383924
v -5.471502 3.235651 0.230544
v -5.318122 3.235651 -0.540562
v -5.471502 3.235651 -0.770114
v -6.242607 3.235651 -0.923494
v -6.472159 3.235651 -0.770114
v -6.625540 3.235651 -0.540562
v -6.679402 3.235651 -0.269785
v -6.242607 3.235651 0.383924
v -5.971831 3.235651 0.437786
v -5.318122 3.235651 0.000991
v -5.264260 3.235651 -0.269785
v -5.701055 3.235651 -0.923494
v -5.971831 3.235651 -0.977356
v -5.971831 3.235651 -0.574098
v -5.971831 3.235651 0.034528
v -5.971831 3.235651 -0.269785
v -6.276144 3.235651 -0.269785
v -5.667519 3.235651 -0.269785
v -5.667519 3.235651 0.034528
v -6.276144 3.235651 0.034528
v -6.276144 3.235651 -0.574098
v -5.667519 3.235651 -0.574098
v 6.472158 -3.598936 0.230544
v 5.471503 -3.598936 0.230544
v 6.472158 -3.598936 -0.770113
v 5.471503 -3.598936 -0.770113
v 6.679402 -3.598936 -0.269785
v 5.971832 -3.598936 0.437786
v 5.264261 -3.598936 -0.269785
v 5.971832 -3.598936 -0.977356
v 6.625543 -3.598936 0.000992
v 5.701055 -3.598936 0.383925
v 5.318120 -3.598936 -0.540561
v 6.242609 -3.598936 -0.923494
v 6.625543 -3.598936 -0.540561
v 6.242609 -3.598936 0.383925
v 5.318120 -3.598936 0.000992
v 5.701055 -3.598936 -0.923494
v 6.625543 3.235651 0.000991
v 6.472158 3.235651 0.230544
v 5.701055 3.235651 0.383924
v 5.471503 3.235651 0.230544
v 5.318120 3.235651 -0.540562
v 5.471503 3.235651 -0.770114
v 6.242609 3.235651 -0.923494
v 6.472158 3.235651 -0.770114
v 6.625543 3.235651 -0.540562
v 6.679402 3.235651 -0.269785
v 6.242609 3.235651 0.383924
v 5.971832 3.235651 0.437786
v 5.318120 3.235651 0.000991
v 5.264261 3.235651 -0.269785
v 5.701055 3.235651 -0.923494
v 5.971832 3.235651 -0.977356
v 5.971832 3.235651 -0.574098
v 5.971832 3.235651 0.034528
v 5.971832 3.235651 -0.269785
v 6.276145 3.235651 -0.269785
v 5.667519 3.235651 -0.269785
v 5.667519 3.235651 0.034528
v 6.276145 3.235651 0.034528
v 6.276145 3.235651 -0.574098
v 5.667519 3.235651 -0.574098
v -5.943538 -0.156772 -0.227411
v -6.037530 1.596414 -0.227411
v -6.084071 0.190617 -0.227411
v -5.886685 1.249025 -0.227411
v -5.874237 0.719821 -0.227411
v 0.000000 -0.156772 -0.227411
v 0.000000 1.596414 -0.227411
v 0.000000 1.249025 -0.227411
v 0.000000 0.719821 -0.227411
v 0.000000 0.190617 -0.227411
v -5.943538 -0.156772 0.619846
v -6.037530 1.596414 0.619846
v -6.084071 0.190617 0.619846
v -5.886685 1.249025 0.619846
v -5.874237 0.719821 0.619846
v 0.000000 -0.156772 0.619846
v 0.000000 1.596414 0.619846
v 0.000000 1.249025 0.619846
v 0.000000 0.719821 0.619846
v 0.000000 0.190617 0.619846
v 0.000000 1.889675 -0.227411
v -5.960064 1.889675 -0.227411
v 0.000000 1.889675 0.619846
v -5.960064 1.889675 0.619846
v -6.202672 -0.303256 0.196217
v -6.490290 0.190272 0.196217
v -6.290634 1.228938 0.196216
v -6.443444 1.589043 0.196216
v -6.278945 0.736213 0.196216
v 0.000000 -0.346986 0.196217
v -6.229095 2.032192 0.196216
v 0.000000 2.079887 0.196216
v 5.943536 -0.156772 -0.227411
v 6.037530 1.596414 -0.227411
v 6.084073 0.190617 -0.227411
v 5.886686 1.249025 -0.227411
v 5.874238 0.719821 -0.227411
v 5.943536 -0.156772 0.619846
v 6.037530 1.596414 0.619846
v 6.084073 0.190617 0.619846
v 5.886686 1.249025 0.619846
v 5.874238 0.719821 0.619846
v 5.960063 1.889675 -0.227411
v 5.960063 1.889675 0.619846
v 6.202670 -0.303256 0.196217
v 6.490289 0.190272 0.196217
v 6.290633 1.228938 0.196216
v 6.443445 1.589043 0.196216
v 6.278944 0.736213 0.196216
v 6.229095 2.032192 0.196216
v -5.799039 -2.887611 -0.167100
v -5.890747 -1.177046 -0.167100
v -5.936156 -2.548668 -0.167100
v -5.743571 -1.515991 -0.167100
v -5.731425 -2.032328 -0.167100
v 0.000000 -2.887611 -0.167100
v 0.000000 -1.177046 -0.167100
v 0.000000 -1.515991 -0.167100
v 0.000000 -2.032328 -0.167100
v 0.000000 -2.548668 -0.167100
v -5.799039 -2.887611 0.659559
v -5.890747 -1.177046 0.659559
v -5.936156 -2.548668 0.659559
v -5.743571 -1.515991 0.659559
v -5.731425 -2.032328 0.659559
v 0.000000 -2.887611 0.659559
v 0.000000 -1.177046 0.659559
v 0.000000 -1.515991 0.659559
v 0.000000 -2.032328 0.659559
v 0.000000 -2.548668 0.659559
v 0.000000 -0.890917 -0.167100
v -5.815163 -0.890917 -0.167100
v 0.000000 -0.890917 0.659559
v -5.815163 -0.890917 0.659559
v -6.051874 -3.030534 0.246231
v -6.332500 -2.549004 0.246231
v -6.137696 -1.535590 0.246231
v -6.286795 -1.184239 0.246231
v -6.126293 -2.016337 0.246231
v 0.000000 -3.073201 0.246231
v -6.077655 -0.751864 0.246231
v 0.000000 -0.705329 0.246231
v 5.799040 -2.887611 -0.167100
v 5.890748 -1.177046 -0.167100
v 5.936158 -2.548668 -0.167100
v 5.743571 -1.515991 -0.167100
v 5.731424 -2.032328 -0.167100
v 5.799040 -2.887611 0.659559
v 5.890748 -1.177046 0.659559
v 5.936158 -2.548668 0.659559
v 5.743571 -1.515991 0.659559
v 5.731424 -2.032328 0.659559
v 5.815164 -0.890917 -0.167100
v 5.815164 -0.890917 0.659559
v 6.051875 -3.030534 0.246231
v 6.332500 -2.549004 0.246231
v 6.137697 -1.535590 0.246231
v 6.286793 -1.184239 0.246231
v 6.126294 -2.016337 0.246231
v 6.077656 -0.751864 0.246231
vn -0.0000 1.0000 -0.0000
vn 0.7071 -0.0000 -0.7071
vn 0.3827 -0.0000 -0.9239
vn -1.0000 -0.0000 -0.0000
vn -0.9239 -0.0000 0.3827
vn -0.3827 -0.0000 0.9239
vn -0.0000 -0.0000 1.0000
vn 0.3827 -0.0000 0.9239
vn 0.9239 -0.0000 0.3827
vn 1.0000 -0.0000 -0.0000
vn 0.9239 -0.0000 -0.3827
vn -0.0000 -0.0000 -1.0000
vn -0.7071 -0.0000 0.7071
vn -0.3827 -0.0000 -0.9239
vn 0.7071 -0.0000 0.7071
vn -0.7071 -0.0000 -0.7071
vn -0.9239 -0.0000 -0.3827
vn -0.7023 -0.3666 0.6102
vn -0.7032 -0.3580 0.6143
vn -0.7022 -0.3609 0.6137
vn -0.6858 -0.2954 0.6652
vn -0.7114 -0.1596 0.6844
vn -0.7114 -0.1598 0.6844
vn -0.6898 -0.2953 0.6610
vn -0.7154 0.1305 0.6864
vn -0.7154 0.1307 0.6864
vn -0.0033 -0.9290 0.3702
vn -0.0000 -0.9290 0.3702
vn -0.6884 0.2665 0.6747
vn -0.6948 0.2719 0.6658
vn -0.0000 0.9304 0.3665
vn -0.0036 0.9304 0.3665
vn -0.7256 0.2876 0.6252
vn -0.7248 0.2931 0.6235
vn -0.7262 0.2878 0.6244
vn -0.7248 0.2931 -0.6235
vn -0.7256 0.2876 -0.6251
vn -0.7262 0.2878 -0.6244
vn -0.0000 0.9304 -0.3665
vn -0.0036 0.9304 -0.3665
vn -0.7154 0.1307 -0.6864
vn -0.6948 0.2719 -0.6658
vn -0.6884 0.2665 -0.6747
vn -0.7154 0.1305 -0.6864
vn -0.0033 -0.9290 -0.3702
vn -0.0000 -0.9290 -0.3702
vn -0.7115 -0.1598 -0.6843
vn -0.7114 -0.1596 -0.6844
vn -0.6898 -0.2953 -0.6610
vn -0.6858 -0.2953 -0.6652
vn -0.7022 -0.3609 -0.6137
vn -0.7032 -0.3580 -0.6143
vn -0.7023 -0.3666 -0.6102
vn 0.7023 -0.3666 0.6102
vn 0.7022 -0.3609 0.6137
vn 0.7032 -0.3580 0.6143
vn 0.6858 -0.2954 0.6652
vn 0.6898 -0.2953 0.6610
vn 0.7115 -0.1598 0.6843
vn 0.7114 -0.1596 0.6844
vn 0.7154 0.1307 0.6864
vn 0.7154 0.1305 0.6864
vn 0.0033 -0.9290 0.3702
vn 0.6948 0.2719 0.6658
vn 0.6884 0.2665 0.6746
vn 0.0036 0.9304 0.3665
vn 0.7256 0.2876 0.6252
vn 0.7262 0.2878 0.6244
vn 0.7248 0.2931 0.6235
vn 0.7248 0.2931 -0.6235
vn 0.7262 0.2878 -0.6244
vn 0.7255 0.2876 -0.6252
vn 0.0036 0.9304 -0.3665
vn 0.7154 0.1307 -0.6864
vn 0.7154 0.1305 -0.6864
vn 0.6884 0.2665 -0.6746
vn 0.6948 0.2719 -0.6658
vn 0.0033 -0.9290 -0.3702
vn 0.7114 -0.1598 -0.6844
vn 0.7114 -0.1596 -0.6844
vn 0.6898 -0.2953 -0.6610
vn 0.6858 -0.2954 -0.6652
vn 0.7022 -0.3609 -0.6137
vn 0.7023 -0.3666 -0.6102
vn 0.7032 -0.3580 -0.6143
vn 0.0069 -0.0238 -0.9997
vn 0.0219 0.0115 -0.9997
vn 0.0250 0.0223 -0.9994
vn 0.0132 -0.0268 -0.9996
vn 0.0833 0.0861 -0.9928
vn 0.1089 0.1089 -0.9881
vn 0.0057 0.0241 0.9997
vn 0.0228 -0.0097 0.9997
vn 0.0128 -0.0310 0.9994
vn 0.0240 -0.0179 0.9996
vn 0.0122 0.1192 0.9928
vn -0.0000 0.1540 0.9881
vn -0.6981 -0.3673 0.6145
vn -0.7430 -0.1769 0.6455
vn -0.7820 -0.3457 0.5186
vn -0.7242 -0.3575 0.5897
vn -0.6856 -0.2955 0.6653
vn -0.7057 -0.1707 0.6877
vn -0.7186 -0.1663 0.6752
vn -0.7025 -0.3055 0.6428
vn -0.7109 0.1401 0.6892
vn -0.7311 0.1259 0.6705
vn 0.1250 -0.8602 0.4943
vn -0.0000 -0.9746 0.2240
vn 0.1019 -0.9448 0.3114
vn -0.6856 0.2714 0.6755
vn -0.6802 0.3025 0.6677
vn 0.1099 -0.1099 0.9878
vn 0.0808 -0.0849 0.9931
vn 0.1398 0.8544 0.5004
vn 0.0419 0.9642 0.2618
vn -0.1088 0.9592 0.2609
vn 0.0200 -0.1155 -0.9931
vn -0.0000 -0.1555 -0.9878
vn -0.7254 0.2878 0.6253
vn -0.7235 0.3144 0.6145
vn -0.8007 0.2149 0.5592
vn -0.7513 0.0855 0.6544
vn -0.7172 0.3148 -0.6217
vn -0.7257 0.2889 -0.6244
vn -0.6288 0.1666 -0.7595
vn -0.8029 0.2744 -0.5293
vn -0.0000 0.9757 -0.2190
vn 0.1009 0.9449 -0.3114
vn 0.2011 0.8945 -0.3992
vn -0.7231 0.1387 -0.6767
vn -0.7119 0.2826 -0.6430
vn -0.6890 0.2809 -0.6681
vn -0.7125 0.1314 -0.6893
vn 0.0366 -0.9646 -0.2610
vn -0.1079 -0.9580 -0.2656
vn 0.1829 -0.8977 -0.4009
vn -0.7271 -0.1545 -0.6689
vn -0.7079 -0.1607 -0.6878
vn -0.7063 -0.2957 -0.6432
vn -0.6853 -0.2944 -0.6661
vn -0.6965 -0.3878 -0.6037
vn -0.7832 -0.2856 -0.5523
vn -0.6234 -0.2457 -0.7423
vn -0.6961 -0.3582 -0.6222
vn -0.0057 0.0241 -0.9997
vn -0.0229 -0.0097 -0.9997
vn -0.0128 -0.0310 -0.9994
vn -0.0240 -0.0179 -0.9996
vn -0.0122 0.1192 -0.9928
vn -0.0069 -0.0238 0.9997
vn -0.0219 0.0115 0.9997
vn -0.0250 0.0223 0.9994
vn -0.0132 -0.0268 0.9996
vn -0.0833 0.0861 0.9928
vn 0.6956 -0.3611 0.6211
vn 0.6965 -0.3878 0.6037
vn 0.7832 -0.2856 0.5523
vn 0.6823 -0.1944 0.7047
vn 0.6852 -0.2948 0.6660
vn 0.7063 -0.2957 0.6432
vn 0.7271 -0.1545 0.6689
vn 0.7127 -0.1594 0.6831
vn 0.7231 0.1387 0.6767
vn 0.7105 0.1355 0.6905
vn -0.1618 -0.8773 0.4518
vn -0.0366 -0.9646 0.2610
vn 0.7119 0.2826 0.6430
vn 0.6871 0.2797 0.6705
vn -0.0200 -0.1155 0.9931
vn -0.1009 0.9449 0.3114
vn -0.2057 0.9107 0.3582
vn -0.0808 -0.0849 -0.9931
vn 0.7255 0.2887 0.6247
vn 0.5969 0.2224 0.7709
vn 0.8029 0.2744 0.5293
vn 0.7172 0.3148 0.6217
vn 0.7235 0.3144 -0.6145
vn 0.8007 0.2149 -0.5592
vn 0.7916 0.0935 -0.6038
vn 0.7254 0.2881 -0.6251
vn -0.1045 0.8445 -0.5253
vn -0.0419 0.9642 -0.2618
vn 0.7312 0.1259 -0.6705
vn 0.7105 0.1355 -0.6905
vn 0.6853 0.2745 -0.6746
vn 0.6802 0.3025 -0.6677
vn -0.1019 -0.9448 -0.3114
vn -0.1618 -0.8773 -0.4518
vn 0.7186 -0.1663 -0.6752
vn 0.7094 -0.1739 -0.6830
vn 0.7025 -0.3055 -0.6428
vn 0.6854 -0.2953 -0.6656
vn 0.7242 -0.3575 -0.5897
vn 0.6967 -0.3660 -0.6170
vn 0.6823 -0.1944 -0.7047
vn 0.7820 -0.3457 -0.5186
vt 0.226265 0.186493
vt 0.209704 0.131409
vt 0.251503 0.148722
vt 0.283493 0.180713
vt 0.245723 0.284314
vt 0.235994 0.235403
vt 0.300807 0.222511
vt 0.300807 0.267753
vt 0.147902 0.303771
vt 0.138173 0.254861
vt 0.187083 0.245132
vt 0.196812 0.294043
vt 0.128444 0.205951
vt 0.122664 0.148722
vt 0.164462 0.131409
vt 0.177355 0.196222
vt 0.073360 0.267753
vt 0.073360 0.222511
vt 0.090673 0.180713
vt 0.164462 0.358856
vt 0.209704 0.358856
vt 0.122664 0.341542
vt 0.090673 0.309551
vt 0.251503 0.341542
vt 0.283493 0.309551
vt 0.073136 0.985601
vt 0.046495 0.985649
vt 0.046504 0.397039
vt 0.073155 0.397104
vt 0.339584 0.985692
vt 0.312935 0.985639
vt 0.312979 0.397360
vt 0.339621 0.397336
vt 0.259639 0.985574
vt 0.232992 0.985554
vt 0.233047 0.397330
vt 0.259692 0.397349
vt 0.206347 0.985535
vt 0.206401 0.397310
vt 0.153061 0.985524
vt 0.126418 0.985548
vt 0.126456 0.397191
vt 0.153105 0.397244
vt 0.099777 0.985580
vt 0.099806 0.397143
vt 0.019854 0.985719
vt 0.019854 0.397140
vt 0.286286 0.985600
vt 0.286336 0.397362
vt 0.446185 0.985744
vt 0.419535 0.985845
vt 0.419544 0.397234
vt 0.446185 0.397164
vt 0.179704 0.985521
vt 0.179753 0.397284
vt 0.392885 0.985779
vt 0.366234 0.985741
vt 0.366263 0.397304
vt 0.392903 0.397282
vt 0.814624 0.985528
vt 0.712744 0.986791
vt 0.707981 0.456735
vt 0.810865 0.455549
vt 0.610888 0.987226
vt 0.605845 0.441926
vt 0.877338 0.445383
vt 0.881375 0.984505
vt 0.543293 0.457663
vt 0.543903 0.987226
vt 0.605846 0.441926
vt 0.600598 0.388665
vt 0.502370 0.426984
vt 0.881622 0.392271
vt 0.807671 0.400966
vt 0.710995 0.401757
vt 0.490768 0.987018
vt 0.937728 0.983506
vt 0.929410 0.455195
vt 0.990549 0.982396
vt 0.969022 0.423614
vt 0.881621 0.392270
vt 0.969022 0.423613
s 1
f 41/1/1 21/2/1 22/3/1 31/4/1
f 40/5/1 33/6/1 32/7/1 23/8/1
f 39/9/1 34/10/1 35/11/1 36/12/1
f 38/13/1 29/14/1 30/15/1 37/16/1
f 34/10/1 38/13/1 37/16/1 35/11/1
f 28/17/1 19/18/1 38/13/1 34/10/1
f 19/18/1 20/19/1 29/14/1 38/13/1
f 17/20/1 39/9/1 36/12/1 26/21/1
f 18/22/1 27/23/1 39/9/1 17/20/1
f 27/23/1 28/17/1 34/10/1 39/9/1
f 25/24/1 40/5/1 23/8/1 24/25/1
f 26/21/1 36/12/1 40/5/1 25/24/1
f 36/12/1 35/11/1 33/6/1 40/5/1
f 33/6/1 41/1/1 31/4/1 32/7/1
f 35/11/1 37/16/1 41/1/1 33/6/1
f 37/16/1 30/15/1 21/2/1 41/1/1
f 4/26/2 16/27/3 31/28/3 22/29/2
f 5/30/4 9/31/5 17/32/5 26/33/4
f 14/34/6 6/35/7 28/36/7 27/37/6
f 6/35/7 10/38/8 19/39/8 28/36/7
f 15/40/9 7/41/10 30/42/10 29/43/9
f 7/41/10 11/44/11 21/45/11 30/42/10
f 16/27/3 8/46/12 32/47/12 31/28/3
f 9/31/5 1/48/13 18/49/13 17/32/5
f 8/50/12 12/51/14 23/52/14 32/53/12
f 10/38/8 2/54/15 20/55/15 19/39/8
f 3/56/16 13/57/17 25/58/17 24/59/16
f 11/44/11 4/26/2 22/29/2 21/45/11
f 1/48/13 14/34/6 27/37/6 18/49/13
f 12/51/14 3/56/16 24/59/16 23/52/14
f 2/54/15 15/40/9 29/43/9 20/55/15
f 13/57/17 5/30/4 26/33/4 25/58/17
f 82/1/1 72/4/1 63/3/1 62/2/1
f 81/5/1 64/8/1 73/7/1 74/6/1
f 80/9/1 77/12/1 76/11/1 75/10/1
f 79/13/1 78/16/1 71/15/1 70/14/1
f 75/10/1 76/11/1 78/16/1 79/13/1
f 69/17/1 75/10/1 79/13/1 60/18/1
f 60/18/1 79/13/1 70/14/1 61/19/1
f 58/20/1 67/21/1 77/12/1 80/9/1
f 59/22/1 58/20/1 80/9/1 68/23/1
f 68/23/1 80/9/1 75/10/1 69/17/1
f 66/24/1 65/25/1 64/8/1 81/5/1
f 67/21/1 66/24/1 81/5/1 77/12/1
f 77/12/1 81/5/1 74/6/1 76/11/1
f 74/6/1 73/7/1 72/4/1 82/1/1
f 76/11/1 74/6/1 82/1/1 78/16/1
f 78/16/1 82/1/1 62/2/1 71/15/1
f 45/26/16 63/29/16 72/28/14 57/27/14
f 46/30/10 67/33/10 58/32/9 50/31/9
f 55/34/8 68/37/8 69/36/7 47/35/7
f 47/35/7 69/36/7 60/39/6 51/38/6
f 56/40/5 70/43/5 71/42/4 48/41/4
f 48/41/4 71/42/4 62/45/17 52/44/17
f 57/27/14 72/28/14 73/47/12 49/46/12
f 50/31/9 58/32/9 59/49/15 42/48/15
f 49/50/12 73/53/12 64/52/3 53/51/3
f 51/38/6 60/39/6 61/55/13 43/54/13
f 44/56/2 65/59/2 66/58/11 54/57/11
f 52/44/17 62/45/17 63/29/16 45/26/16
f 42/48/15 59/49/15 68/37/8 55/34/8
f 53/51/3 64/52/3 65/59/2 44/56/2
f 43/54/13 61/55/13 70/43/5 56/40/5
f 54/57/11 66/58/11 67/33/10 46/30/10
f 90/60/12 91/61/12 87/62/12 86/63/12
f 91/61/12 92/64/12 85/65/12 87/62/12
f 86/63/12 84/66/12 89/67/12 90/60/12
f 83/68/12 85/65/12 92/64/12 88/69/12
f 100/60/7 96/63/7 97/62/7 101/61/7
f 101/61/7 97/62/7 95/70/7 102/64/7
f 96/63/7 100/60/7 99/67/7 94/66/7
f 93/68/7 98/69/7 102/64/7 95/70/7
f 108/71/18 107/72/19 93/68/19 95/70/20
f 110/73/21 109/74/22 96/63/23 94/66/24
f 109/74/22 111/75/25 97/62/26 96/63/23
f 107/72/27 112/76/28 98/69/28 93/68/27
f 111/75/25 108/71/29 95/70/30 97/62/26
f 94/66/7 99/67/7 105/77/7 106/78/7
f 114/79/31 113/80/32 106/78/32 105/77/31
f 89/67/12 84/66/12 104/78/12 103/77/12
f 110/73/33 94/66/34 106/78/35 113/80/35
f 84/66/36 110/81/37 113/82/38 104/78/38
f 103/77/39 104/78/40 113/82/40 114/79/39
f 87/62/41 85/65/42 108/71/43 111/75/44
f 83/68/45 88/69/46 112/76/46 107/72/45
f 86/63/47 87/62/41 111/75/44 109/74/48
f 84/66/49 86/63/47 109/74/48 110/81/50
f 85/65/51 83/68/52 107/72/52 108/71/53
f 90/60/12 118/63/12 119/62/12 91/61/12
f 91/61/12 119/62/12 117/65/12 92/64/12
f 118/63/12 90/60/12 89/67/12 116/66/12
f 115/68/12 88/69/12 92/64/12 117/65/12
f 100/60/7 101/61/7 124/62/7 123/63/7
f 101/61/7 102/64/7 122/70/7 124/62/7
f 123/63/7 121/66/7 99/67/7 100/60/7
f 120/68/7 122/70/7 102/64/7 98/69/7
f 128/71/54 122/70/55 120/68/56 127/72/56
f 130/73/57 121/66/58 123/63/59 129/74/60
f 129/74/60 123/63/59 124/62/61 131/75/62
f 127/72/63 120/68/63 98/69/28 112/76/28
f 131/75/62 124/62/61 122/70/64 128/71/65
f 121/66/7 126/78/7 105/77/7 99/67/7
f 114/79/31 105/77/31 126/78/66 132/80/66
f 89/67/12 103/77/12 125/78/12 116/66/12
f 130/73/67 132/80/68 126/78/68 121/66/69
f 116/66/70 125/78/71 132/82/71 130/81/72
f 103/77/39 114/79/39 132/82/73 125/78/73
f 119/62/74 131/75/75 128/71/76 117/65/77
f 115/68/78 127/72/78 112/76/46 88/69/46
f 118/63/79 129/74/80 131/75/75 119/62/74
f 116/66/81 130/81/82 129/74/80 118/63/79
f 117/65/83 128/71/84 127/72/85 115/68/85
f 140/60/12 141/61/12 137/62/86 136/63/87
f 141/61/12 142/64/12 135/65/88 137/62/86
f 136/63/87 134/66/89 139/67/12 140/60/12
f 133/68/90 135/65/88 142/64/12 138/69/91
f 150/60/7 146/63/92 147/62/93 151/61/7
f 151/61/7 147/62/93 145/70/94 152/64/7
f 146/63/92 150/60/7 149/67/7 144/66/95
f 143/68/96 148/69/97 152/64/7 145/70/94
f 158/71/98 157/72/99 143/68/100 145/70/101
f 160/73/102 159/74/103 146/63/104 144/66/105
f 159/74/103 161/75/106 147/62/107 146/63/104
f 157/72/108 162/76/28 148/69/109 143/68/110
f 161/75/106 158/71/111 145/70/112 147/62/107
f 144/66/95 149/67/7 155/77/113 156/78/114
f 164/79/31 163/80/115 156/78/116 155/77/117
f 139/67/12 134/66/89 154/78/118 153/77/119
f 160/73/120 144/66/121 156/78/122 163/80/123
f 134/66/124 160/81/125 163/82/126 154/78/127
f 153/77/128 154/78/129 163/82/130 164/79/39
f 137/62/131 135/65/132 158/71/133 161/75/134
f 133/68/135 138/69/136 162/76/46 157/72/137
f 136/63/138 137/62/131 161/75/134 159/74/139
f 134/66/140 136/63/138 159/74/139 160/81/141
f 135/65/142 133/68/143 157/72/144 158/71/145
f 140/60/12 168/63/146 169/62/147 141/61/12
f 141/61/12 169/62/147 167/65/148 142/64/12
f 168/63/146 140/60/12 139/67/12 166/66/149
f 165/68/150 138/69/91 142/64/12 167/65/148
f 150/60/7 151/61/7 174/62/151 173/63/152
f 151/61/7 152/64/7 172/70/153 174/62/151
f 173/63/152 171/66/154 149/67/7 150/60/7
f 170/68/155 172/70/153 152/64/7 148/69/97
f 178/71/156 172/70/157 170/68/158 177/72/159
f 180/73/160 171/66/161 173/63/162 179/74/163
f 179/74/163 173/63/162 174/62/164 181/75/165
f 177/72/166 170/68/167 148/69/109 162/76/28
f 181/75/165 174/62/164 172/70/168 178/71/169
f 171/66/154 176/78/170 155/77/113 149/67/7
f 164/79/31 155/77/117 176/78/171 182/80/172
f 139/67/12 153/77/119 175/78/173 166/66/149
f 180/73/174 182/80/175 176/78/176 171/66/177
f 166/66/178 175/78/179 182/82/180 180/81/181
f 153/77/128 164/79/39 182/82/182 175/78/183
f 169/62/184 181/75/185 178/71/186 167/65/187
f 165/68/188 177/72/189 162/76/46 138/69/136
f 168/63/190 179/74/191 181/75/185 169/62/184
f 166/66/192 180/81/193 179/74/191 168/63/190
f 167/65/194 178/71/195 177/72/196 165/68/197
