# Blender 4.5.3 LTS
# www.blender.org
o Entrada
v 0.000089 0.000000 -0.398309
v 0.000000 54.623180 0.000002
v 0.000000 27.311590 0.000001
v 31.461956 54.623180 0.000002
v 0.000000 13.655795 0.000001
v 15.730978 54.623180 0.000002
v 0.000000 40.967384 0.000002
v 13.052891 0.000000 0.000000
v 31.461956 40.967384 0.000002
v 16.983633 26.793251 0.000001
v 12.366910 12.791896 0.000000
v 15.730978 40.967384 0.000002
v 0.000000 6.827898 0.000000
v 7.865489 54.623180 0.000002
v 0.000000 34.139488 0.000001
v 31.461956 47.795280 0.000002
v 7.865489 27.311590 0.000001
v 0.000000 20.483692 0.000001
v 23.596468 54.623180 0.000002
v 0.000000 47.795280 0.000002
v 7.865489 0.000000 0.000000
v 31.461956 34.139488 0.000001
v 20.903984 29.968081 0.000002
v 13.096086 20.310913 0.000001
v 12.491355 6.827898 0.000000
v 7.865489 13.655795 0.000001
v 15.730978 47.795280 0.000002
v 15.730978 34.139488 0.000001
v 7.865489 40.967384 0.000002
v 23.596468 40.967384 0.000002
v 25.936195 32.462082 0.000001
v 7.865489 34.139488 0.000001
v 7.865489 47.795280 0.000002
v 7.865489 6.827898 0.000000
v 7.865489 20.483692 0.000001
v 23.596468 47.795280 0.000002
v 47.192936 54.623180 0.000002
v 49.871025 0.000000 0.000000
v 45.940281 26.793251 0.000001
v 50.557003 12.791896 0.000000
v 47.192936 40.967384 0.000002
v 56.055534 54.623180 0.000002
v 56.055534 27.311590 0.000001
v 39.327446 54.623180 0.000002
v 56.055534 0.000000 0.000000
v 42.019928 29.968081 0.000002
v 49.827824 20.310913 0.000001
v 50.432556 6.827898 0.000000
v 56.055534 13.655795 0.000001
v 47.192936 47.795280 0.000002
v 47.192936 34.139488 0.000001
v 56.055534 40.967384 0.000002
v 39.327446 40.967384 0.000002
v 36.987717 32.462082 0.000001
v 56.055534 34.139488 0.000001
v 56.055534 47.795280 0.000002
v 56.055534 6.827898 0.000000
v 56.055534 20.483692 0.000001
v 39.327446 47.795280 0.000002
v 0.374806 51.079285 -2.301800
v 0.374806 64.255463 -2.301800
v 7.329922 51.079285 -2.301800
v 14.285035 51.079285 -2.301800
v 21.240149 51.079285 -2.301800
v 28.195265 51.079285 -2.301800
v 35.150379 51.079285 -2.301800
v 42.105492 51.079285 -2.301800
v 49.060608 51.079285 -2.301800
v 56.015720 51.079285 -2.301800
v 49.060600 64.255463 -2.301800
v 42.105492 64.255463 -2.301800
v 35.150375 64.255463 -2.301800
v 28.195263 64.255463 -2.301800
v 21.240149 64.255463 -2.301800
v 14.285032 64.255463 -2.301800
v 7.329919 64.255463 -2.301800
v 0.374806 57.804623 -2.301800
v 7.329919 57.804623 -2.301800
v 14.285032 57.804623 -2.301800
v 21.240149 57.804623 -2.301800
v 28.195263 57.804623 -2.301800
v 35.150379 57.804623 -2.301800
v 42.105492 57.804623 -2.301800
v 49.060608 57.804623 -2.301800
v 56.015720 57.804623 -2.301800
v 0.374806 57.804623 2.188812
v 0.374806 51.079285 2.188812
v 56.015720 51.079285 2.188812
v 7.329919 64.255463 2.188812
v 0.374806 64.255463 2.188812
v 7.329922 51.079285 2.188812
v 14.285035 51.079285 2.188812
v 21.240149 51.079285 2.188812
v 28.195265 51.079285 2.188812
v 35.150379 51.079285 2.188812
v 42.105492 51.079285 2.188812
v 49.060608 51.079285 2.188812
v 49.060600 64.255463 2.188812
v 42.105492 64.255463 2.188812
v 35.150375 64.255463 2.188812
v 28.195263 64.255463 2.188812
v 21.240149 64.255463 2.188812
v 14.285032 64.255463 2.188812
v 7.329919 57.804623 2.188812
v 14.285032 57.804623 2.188812
v 21.240149 57.804623 2.188812
v 28.195263 57.804623 2.188812
v 35.150379 57.804623 2.188812
v 42.105492 57.804623 2.188812
v 49.060608 57.804623 2.188812
v 56.015720 57.804623 2.188812
vn -0.0000 -0.0000 1.0000
vn -0.0253 -0.0291 0.9993
vn -0.0000 -0.0000 -1.0000
vn 1.0000 -0.0000 -0.0000
vn -0.0000 -1.0000 -0.0000
vn -1.0000 -0.0000 -0.0000
vn -0.0000 1.0000 -0.0000
vt 0.212827 0.436656
vt 0.283489 0.436656
vt 0.283489 0.497996
vt 0.212827 0.497996
vt 0.071503 0.191293
vt 0.118494 0.189741
vt 0.153419 0.247977
vt 0.071503 0.252634
vt 0.071503 0.068612
vt 0.113061 0.068612
vt 0.109180 0.122192
vt 0.071503 0.129953
vt 0.071503 0.436656
vt 0.142165 0.436656
vt 0.142165 0.497996
vt 0.071503 0.497996
vt 0.071503 0.313974
vt 0.142165 0.313974
vt 0.142165 0.375315
vt 0.071503 0.375315
vt 0.233847 0.298905
vt 0.283489 0.313974
vt 0.283489 0.375315
vt 0.212827 0.375315
vt 0.188639 0.276499
vt 0.000841 0.313974
vt 0.000841 0.375315
vt 0.000841 0.252634
vt 0.000841 0.436656
vt 0.000841 0.497996
vt 0.000841 0.068612
vt 0.000841 0.129953
vt 0.000841 0.007272
vt 0.071503 0.007272
vt 0.118106 0.007272
vt 0.000841 0.191293
vt 0.000602 0.625912
vt 0.000601 1.000769
vt 0.374316 1.000769
vt 0.374316 0.625912
s 0
f 36/1/1 16/2/1 4/3/1 19/4/1
f 35/5/1 24/6/1 10/7/1 17/8/1
f 34/9/1 25/10/1 11/11/1 26/12/1
f 33/13/1 27/14/1 6/15/1 14/16/1
f 32/17/1 28/18/1 12/19/1 29/20/1
f 31/21/1 22/22/1 9/23/1 30/24/1
f 28/18/1 31/21/1 30/24/1 12/19/1
f 10/7/1 23/25/1 31/21/1 28/18/1
f 15/26/1 32/17/1 29/20/1 7/27/1
f 3/28/1 17/8/1 32/17/1 15/26/1
f 17/8/1 10/7/1 28/18/1 32/17/1
f 20/29/1 33/13/1 14/16/1 2/30/1
f 7/27/1 29/20/1 33/13/1 20/29/1
f 29/20/1 12/19/1 27/14/1 33/13/1
f 13/31/1 34/9/1 26/12/1 5/32/1
f 1/33/2 21/34/2 34/9/2 13/31/2
f 21/34/1 8/35/1 25/10/1 34/9/1
f 18/36/1 35/5/1 17/8/1 3/28/1
f 5/32/1 26/12/1 35/5/1 18/36/1
f 26/12/1 11/11/1 24/6/1 35/5/1
f 27/14/1 36/1/1 19/4/1 6/15/1
f 12/19/1 30/24/1 36/1/1 27/14/1
f 30/24/1 9/23/1 16/2/1 36/1/1
f 59/1/1 44/4/1 4/3/1 16/2/1
f 58/5/1 43/8/1 39/7/1 47/6/1
f 57/9/1 49/12/1 40/11/1 48/10/1
f 56/13/1 42/16/1 37/15/1 50/14/1
f 55/17/1 52/20/1 41/19/1 51/18/1
f 54/21/1 53/24/1 9/23/1 22/22/1
f 51/18/1 41/19/1 53/24/1 54/21/1
f 39/7/1 51/18/1 54/21/1 46/25/1
f 43/8/1 55/17/1 51/18/1 39/7/1
f 52/20/1 56/13/1 50/14/1 41/19/1
f 45/34/1 57/9/1 48/10/1 38/35/1
f 49/12/1 58/5/1 47/6/1 40/11/1
f 50/14/1 37/15/1 44/4/1 59/1/1
f 41/19/1 50/14/1 59/1/1 53/24/1
f 53/24/1 59/1/1 16/2/1 9/23/1
f 77/37/3 61/38/3 76/39/3 78/40/3
f 79/37/3 75/38/3 74/39/3 80/40/3
f 81/37/3 73/38/3 72/39/3 82/40/3
f 83/37/3 71/38/3 70/39/3 84/40/3
f 68/37/3 84/38/3 85/39/3 69/40/3
f 67/37/3 83/38/3 84/39/3 68/40/3
f 66/37/3 82/38/3 83/39/3 67/40/3
f 65/37/3 81/38/3 82/39/3 66/40/3
f 64/37/3 80/38/3 81/39/3 65/40/3
f 63/37/3 79/38/3 80/39/3 64/40/3
f 62/37/3 78/38/3 79/39/3 63/40/3
f 60/37/3 77/38/3 78/39/3 62/40/3
f 86/37/1 104/40/1 89/39/1 90/38/1
f 105/37/1 106/40/1 102/39/1 103/38/1
f 107/37/1 108/40/1 100/39/1 101/38/1
f 109/37/1 110/40/1 98/39/1 99/38/1
f 97/37/1 88/40/1 111/39/1 110/38/1
f 96/37/1 97/40/1 110/39/1 109/38/1
f 95/37/1 96/40/1 109/39/1 108/38/1
f 94/37/1 95/40/1 108/39/1 107/38/1
f 93/37/1 94/40/1 107/39/1 106/38/1
f 92/37/1 93/40/1 106/39/1 105/38/1
f 91/37/1 92/40/1 105/39/1 104/38/1
f 87/37/1 91/40/1 104/39/1 86/38/1
f 80/40/4 74/39/4 102/38/4 106/37/4
f 62/38/5 63/39/5 92/40/5 91/37/5
f 73/39/6 81/40/6 107/37/6 101/38/6
f 63/38/5 64/39/5 93/40/5 92/37/5
f 82/40/4 72/39/4 100/38/4 108/37/4
f 64/38/5 65/39/5 94/40/5 93/37/5
f 85/39/7 84/38/7 110/37/7 111/40/7
f 71/39/6 83/40/6 109/37/6 99/38/6
f 65/38/5 66/39/5 95/40/5 94/37/5
f 84/40/4 70/39/4 98/38/4 110/37/4
f 66/38/5 67/39/5 96/40/5 95/37/5
f 83/39/7 82/38/7 108/37/7 109/40/7
f 67/38/5 68/39/5 97/40/5 96/37/5
f 61/39/6 77/40/6 86/37/6 90/38/6
f 68/38/5 69/39/5 88/40/5 97/37/5
f 81/39/7 80/38/7 106/37/7 107/40/7
f 70/39/7 71/38/7 99/37/7 98/40/7
f 79/39/7 78/38/7 104/37/7 105/40/7
f 77/39/6 60/40/6 87/37/6 86/38/6
f 72/39/7 73/38/7 101/37/7 100/40/7
f 74/39/7 75/38/7 103/37/7 102/40/7
f 78/40/4 76/39/4 89/38/4 104/37/4
f 76/39/7 61/38/7 90/37/7 89/40/7
f 75/39/6 79/40/6 105/37/6 103/38/6
f 60/38/5 62/39/5 91/40/5 87/37/5
