# Blender 4.5.3 LTS
# www.blender.org
mtllib Window_2.mtl
o Vidriera_2
v -8.664206 -0.518732 -0.000001
v -4.057998 8.869717 0.000002
v 0.000000 -0.306138 -0.000001
v 0.000000 4.653265 0.000001
v -14.179166 5.414229 -0.000001
v -10.944370 12.007441 0.000001
v -15.597999 9.426919 -0.000002
v -15.230158 12.211199 -0.000002
v -7.277350 10.894799 0.000002
v -11.645518 1.991528 -0.000001
v -10.754715 -2.219486 -0.000001
v 0.000000 -3.672212 -0.000001
v -12.313740 -5.939884 -0.000001
v -4.429046 -7.924096 -0.000002
v -12.136579 -10.120903 -0.000002
v -7.759689 -9.837444 -0.000002
v 8.664206 -0.518732 -0.000001
v 4.057998 8.869717 0.000002
v 14.179166 5.414229 -0.000001
v 10.944370 12.007441 0.000001
v 15.597999 9.426919 -0.000002
v 15.230158 12.211199 -0.000002
v 7.277350 10.894799 0.000002
v 11.645518 1.991528 -0.000001
v 10.754715 -2.219486 -0.000001
v 12.313740 -5.939884 -0.000001
v 4.429046 -7.924096 -0.000002
v 12.136579 -10.120903 -0.000002
v 7.759689 -9.837444 -0.000002
v 0.000000 3.158017 0.000001
v -4.717264 8.059478 0.000001
v -7.711604 9.943020 0.000001
v -11.122216 10.977862 0.000001
v -10.884569 2.706272 -0.000001
v -7.038094 -0.532454 -0.000001
v -14.327097 11.130230 -0.000001
v -14.537466 9.537889 -0.000002
v -13.253386 5.906304 -0.000001
v -9.898832 -2.859834 -0.000001
v -11.268010 -6.127190 -0.000001
v -5.055565 -7.088237 -0.000002
v 0.000000 -2.234895 -0.000001
v -11.145532 -9.017685 -0.000002
v -8.067200 -8.818324 -0.000002
v 4.717264 8.059478 0.000001
v 7.711604 9.943020 0.000001
v 11.122216 10.977862 0.000001
v 10.884569 2.706272 -0.000001
v 7.038094 -0.532454 -0.000001
v 14.327097 11.130230 -0.000001
v 14.537466 9.537889 -0.000002
v 13.253386 5.906304 -0.000001
v 9.898832 -2.859834 -0.000001
v 11.268010 -6.127190 -0.000001
v 5.055565 -7.088237 -0.000002
v 11.145532 -9.017685 -0.000002
v 8.067200 -8.818324 -0.000002
v -0.000000 3.158017 1.611007
v -4.717264 8.059478 1.611008
v -7.711604 9.943020 1.611008
v -11.122216 10.977862 1.611007
v -10.884569 2.706272 1.611006
v -7.038094 -0.532454 1.611006
v -14.327097 11.130230 1.611005
v -14.537466 9.537889 1.611005
v -13.253386 5.906304 1.611006
v -9.898832 -2.859834 1.611006
v -11.268010 -6.127190 1.611005
v -5.055565 -7.088237 1.611005
v -0.000000 -2.234895 1.611006
v -11.145532 -9.017685 1.611005
v -8.067200 -8.818324 1.611005
v 4.717264 8.059478 1.611008
v 7.711604 9.943020 1.611008
v 11.122216 10.977862 1.611007
v 10.884569 2.706272 1.611006
v 7.038094 -0.532454 1.611006
v 14.327097 11.130230 1.611005
v 14.537466 9.537889 1.611005
v 13.253386 5.906304 1.611006
v 9.898832 -2.859834 1.611006
v 11.268010 -6.127190 1.611005
v 5.055565 -7.088237 1.611005
v 11.145532 -9.017685 1.611005
v 8.067200 -8.818324 1.611005
v -0.000000 4.653265 1.611008
v -4.057998 8.869717 1.611008
v -7.277350 10.894799 1.611008
v -10.944370 12.007441 1.611007
v -11.645518 1.991528 1.611006
v -8.664206 -0.518732 1.611005
v -15.230158 12.211199 1.611005
v -15.597999 9.426919 1.611004
v -14.179166 5.414229 1.611005
v -10.754715 -2.219486 1.611006
v -12.313740 -5.939884 1.611005
v -4.429046 -7.924096 1.611005
v -0.000000 -3.672212 1.611006
v -12.136579 -10.120903 1.611005
v -7.759689 -9.837444 1.611005
v 4.057998 8.869717 1.611008
v 7.277350 10.894799 1.611008
v 10.944370 12.007441 1.611007
v 11.645518 1.991528 1.611006
v 8.664206 -0.518732 1.611005
v 15.230158 12.211199 1.611005
v 15.597999 9.426919 1.611004
v 14.179166 5.414229 1.611005
v 10.754715 -2.219486 1.611006
v 12.313740 -5.939884 1.611005
v 4.429046 -7.924096 1.611005
v 12.136579 -10.120903 1.611005
v 7.759689 -9.837444 1.611005
vn -0.0000 -0.0000 1.0000
vn -0.6311 0.7757 -0.0000
vn -0.7205 0.6934 -0.0000
vn 0.1702 -0.9854 -0.0000
vn 0.0475 -0.9989 -0.0000
vn 0.2889 -0.9574 -0.0000
vn 0.5998 -0.8002 -0.0000
vn -0.9914 -0.1310 -0.0000
vn -0.9946 0.1041 -0.0000
vn -0.9843 0.1763 -0.0000
vn -0.9991 -0.0423 -0.0000
vn -0.6311 -0.7757 -0.0000
vn -0.7205 -0.6934 -0.0000
vn -0.7289 0.6846 -0.0000
vn -0.6441 0.7650 -0.0000
vn 0.0646 -0.9979 -0.0000
vn 0.4151 -0.9098 -0.0000
vn 0.6925 -0.7214 -0.0000
vn -0.8007 0.5991 -0.0000
vn 0.7205 -0.6934 -0.0000
vn 0.6311 -0.7757 -0.0000
vn -0.8830 -0.4693 -0.0000
vn -0.7289 -0.6846 -0.0000
vn 0.6311 0.7757 -0.0000
vn 0.4151 0.9098 -0.0000
vn -0.5998 0.8002 -0.0000
vn -0.2889 0.9574 -0.0000
vn -0.9946 -0.1041 -0.0000
vn 0.9991 0.0423 -0.0000
vn 0.9843 -0.1763 -0.0000
vn 0.1702 0.9854 -0.0000
vn 0.0475 0.9989 -0.0000
vn -0.0646 0.9979 -0.0000
vn -0.9914 0.1310 -0.0000
vn -0.6925 0.7214 -0.0000
vn -0.6441 -0.7650 -0.0000
vn 0.8007 -0.5991 -0.0000
vn -0.5998 -0.8002 -0.0000
vn -0.2889 -0.9574 -0.0000
vn 0.7205 0.6934 -0.0000
vn 0.9991 -0.0423 -0.0000
vn 0.9843 0.1763 -0.0000
vn -0.8830 0.4693 -0.0000
vn -0.1702 0.9854 -0.0000
vn -0.4151 0.9098 -0.0000
vn -0.1702 -0.9854 -0.0000
vn -0.4151 -0.9098 -0.0000
vn 0.6441 -0.7650 -0.0000
vn 0.7289 -0.6846 -0.0000
vn 0.6441 0.7650 -0.0000
vn 0.7289 0.6846 -0.0000
vn 0.9946 -0.1041 -0.0000
vn 0.9914 0.1310 -0.0000
vn 0.9946 0.1041 -0.0000
vn 0.9914 -0.1310 -0.0000
vn -0.0475 0.9989 -0.0000
vn -0.0475 -0.9989 -0.0000
vn 0.8830 -0.4693 -0.0000
vn -0.8007 -0.5991 -0.0000
vn 0.8830 0.4693 -0.0000
vn -0.9843 -0.1763 -0.0000
vn 0.8007 0.5991 -0.0000
vn 0.5998 0.8002 -0.0000
vn 0.6925 0.7214 -0.0000
vn 0.0646 0.9979 -0.0000
vn 0.2889 0.9574 -0.0000
vn -0.6925 -0.7214 -0.0000
vn -0.9991 0.0423 -0.0000
vn -0.0646 -0.9979 -0.0000
vt 0.781542 0.507601
vt 0.971603 0.513713
vt 0.971603 0.607261
vt 0.844215 0.739624
vt 0.677669 0.595062
vt 0.763353 0.790488
vt 0.671251 0.818434
vt 0.613699 0.681478
vt 0.584704 0.822548
vt 0.579023 0.779548
vt 0.704288 0.444751
vt 0.971603 0.461627
vt 0.667314 0.356517
vt 0.835079 0.330564
vt 0.670622 0.278460
vt 0.753751 0.283843
vt 0.613699 0.681478
vt 0.753751 0.283843
vt 1.002274 0.100440
vt 1.002274 0.000033
vt 0.974632 0.000033
vt 0.974632 0.100440
vt 1.002273 0.251586
vt 1.002273 0.309633
vt 0.973127 0.309633
vt 0.973127 0.251586
vt 1.002273 0.828720
vt 1.002274 0.894625
vt 0.974632 0.894625
vt 0.974632 0.828720
vt 1.002273 0.338692
vt 0.973127 0.338692
vt 1.002273 0.681664
vt 1.002273 0.753465
vt 0.974632 0.753465
vt 0.974632 0.681664
vt 0.973127 0.123106
vt 0.973127 0.000034
vt 1.002273 0.000034
vt 1.002273 0.123106
vt 1.002273 0.480409
vt 1.002273 0.571381
vt 0.973128 0.571381
vt 0.973128 0.480409
vt 1.002273 0.187105
vt 0.973127 0.187105
vt 1.002274 0.999967
vt 0.974632 0.999967
vt 1.002273 0.612452
vt 0.974632 0.612452
vt 1.002273 0.566213
vt 0.974632 0.566213
vt 1.002273 0.000034
vt 1.002273 0.123106
vt 0.973127 0.123106
vt 0.973127 0.000034
vt 1.002273 0.426277
vt 1.002273 0.499342
vt 0.974632 0.499342
vt 0.974632 0.426277
vt 1.002273 0.100440
vt 1.002273 0.165697
vt 0.974632 0.165697
vt 0.974632 0.100440
vt 0.973128 0.873178
vt 0.973128 0.810342
vt 1.002273 0.810342
vt 1.002273 0.873178
vt 1.002273 0.353251
vt 0.974632 0.353251
vt 0.973128 0.754533
vt 0.973128 0.702193
vt 1.002273 0.702193
vt 1.002273 0.754533
vt 1.002273 0.231447
vt 1.002273 0.305064
vt 0.974632 0.305064
vt 0.974632 0.231447
vt 0.973128 0.999966
vt 1.002274 0.999966
vt 0.973128 0.638101
vt 1.002273 0.638101
vt 1.002274 0.828720
vt 0.974632 0.828720
vt 0.974632 0.894625
vt 1.002273 0.000033
vt 0.974632 0.000033
vt 1.002274 0.753465
vt 1.002274 0.681664
vt 0.974632 0.681664
vt 0.974632 0.753465
vt 0.971603 0.647640
vt 0.862018 0.761504
vt 0.775080 0.816191
vt 0.676054 0.846237
vt 0.657119 0.575760
vt 0.737629 0.507972
vt 0.560317 0.851740
vt 0.550384 0.776551
vt 0.588699 0.668189
vt 0.681175 0.462043
vt 0.639074 0.361575
vt 0.851998 0.307992
vt 0.971603 0.422813
vt 0.643859 0.248668
vt 0.762055 0.256322
vt 1.002273 0.408379
vt 0.973127 0.408379
vt 1.002274 0.231447
vt 1.002274 0.165697
vt 0.974632 0.165697
vt 0.974632 0.231447
vt 0.973127 0.251586
vt 0.973127 0.187105
vt 1.002273 0.187105
vt 1.002273 0.251586
vt 1.002274 0.566213
vt 1.002274 0.499342
vt 0.974632 0.499342
vt 0.974632 0.566213
vt 0.973128 0.571381
vt 0.973128 0.480409
vt 1.002273 0.480409
vt 1.002273 0.571381
vt 1.002274 0.353251
vt 1.002274 0.305064
vt 0.974632 0.305064
vt 0.974632 0.353251
vt 0.973127 0.338692
vt 0.973127 0.309633
vt 1.002273 0.309633
vt 1.002273 0.338692
vt 1.002274 0.426277
vt 0.974632 0.426277
vt 1.002273 0.638101
vt 0.973128 0.638101
vt 0.973127 0.408379
vt 1.002273 0.408379
vt 1.002273 0.702192
vt 0.973128 0.702193
vt 1.002274 0.612452
vt 0.974632 0.612452
vt 1.002274 0.873178
vt 1.002274 0.999966
vt 0.973128 0.999966
vt 0.973128 0.873178
vt 1.002273 0.754533
vt 0.973128 0.754533
s 1
usemtl TT_checker_512x512_UV_GRID.001
f 35/1/1 3/2/1 30/3/1 31/4/1
f 34/5/1 32/6/1 33/7/1 38/8/1
f 38/8/1 33/7/1 36/9/1 37/10/1
f 35/1/1 31/4/1 32/6/1 34/5/1
f 3/2/1 35/1/1 39/11/1 42/12/1
f 42/12/1 39/11/1 40/13/1 41/14/1
f 41/14/1 40/13/1 43/15/1 44/16/1
f 49/1/1 45/4/1 30/3/1 3/2/1
f 48/5/1 52/17/1 47/7/1 46/6/1
f 52/17/1 51/10/1 50/9/1 47/7/1
f 49/1/1 48/5/1 46/6/1 45/4/1
f 3/2/1 42/12/1 53/11/1 49/1/1
f 42/12/1 55/14/1 54/13/1 53/11/1
f 55/14/1 57/18/1 56/15/1 54/13/1
f 18/19/2 4/20/3 86/21/3 101/22/2
f 47/23/4 50/24/5 78/25/5 75/26/4
f 16/27/6 14/28/7 97/29/7 100/30/6
f 50/24/8 51/31/9 79/32/9 78/25/8
f 13/33/10 15/34/11 99/35/11 96/36/10
f 31/37/12 30/38/13 58/39/13 59/40/12
f 48/41/14 49/42/15 77/43/15 76/44/14
f 15/34/16 16/27/6 100/30/6 99/35/16
f 46/45/17 47/23/4 75/26/4 74/46/17
f 14/28/7 12/47/18 98/48/18 97/29/7
f 11/49/19 13/33/10 96/36/10 95/50/19
f 1/51/2 11/49/19 95/50/19 91/52/2
f 30/53/20 45/54/21 73/55/21 58/56/20
f 5/57/22 10/58/23 90/59/23 94/60/22
f 2/61/24 9/62/25 88/63/25 87/64/24
f 41/65/26 44/66/27 72/67/27 69/68/26
f 7/69/28 5/57/22 94/60/22 93/70/28
f 43/71/29 40/72/30 68/73/30 71/74/29
f 6/75/31 8/76/32 92/77/32 89/78/31
f 44/66/27 43/71/33 71/74/33 72/67/27
f 8/76/34 7/69/28 93/70/28 92/77/34
f 42/79/35 41/65/26 69/68/26 70/80/35
f 10/58/23 1/51/36 91/52/36 90/59/23
f 40/72/30 39/81/37 67/82/37 68/73/30
f 9/62/25 6/75/31 89/78/31 88/63/25
f 27/28/38 29/83/39 113/84/39 111/85/38
f 4/86/40 2/61/24 87/64/24 86/87/40
f 28/88/41 26/89/42 110/90/42 112/91/41
f 59/4/1 58/3/1 86/92/1 87/93/1
f 61/7/1 60/6/1 88/94/1 89/95/1
f 63/1/1 62/5/1 90/96/1 91/97/1
f 65/10/1 64/9/1 92/98/1 93/99/1
f 64/9/1 61/7/1 89/95/1 92/98/1
f 66/8/1 65/10/1 93/99/1 94/100/1
f 60/6/1 59/4/1 87/93/1 88/94/1
f 62/5/1 66/8/1 94/100/1 90/96/1
f 67/11/1 63/1/1 91/97/1 95/101/1
f 68/13/1 67/11/1 95/101/1 96/102/1
f 70/12/1 69/14/1 97/103/1 98/104/1
f 72/16/1 71/15/1 99/105/1 100/106/1
f 71/15/1 68/13/1 96/102/1 99/105/1
f 69/14/1 72/16/1 100/106/1 97/103/1
f 58/3/1 73/4/1 101/93/1 86/92/1
f 74/6/1 75/7/1 103/95/1 102/94/1
f 76/5/1 77/1/1 105/97/1 104/96/1
f 78/9/1 79/10/1 107/99/1 106/98/1
f 75/7/1 78/9/1 106/98/1 103/95/1
f 79/10/1 80/17/1 108/100/1 107/99/1
f 73/4/1 74/6/1 102/94/1 101/93/1
f 80/17/1 76/5/1 104/96/1 108/100/1
f 77/1/1 81/11/1 109/101/1 105/97/1
f 81/11/1 82/13/1 110/102/1 109/101/1
f 83/14/1 70/12/1 98/104/1 111/103/1
f 84/15/1 85/18/1 113/106/1 112/105/1
f 82/13/1 84/15/1 112/105/1 110/102/1
f 85/18/1 83/14/1 111/103/1 113/106/1
f 51/31/9 52/107/43 80/108/43 79/32/9
f 20/109/44 23/110/45 102/111/45 103/112/44
f 45/54/21 46/45/17 74/46/17 73/55/21
f 33/113/46 32/114/47 60/115/47 61/116/46
f 17/117/48 24/118/49 104/119/49 105/120/48
f 52/107/43 48/41/14 76/44/14 80/108/43
f 35/121/50 34/122/51 62/123/51 63/124/50
f 21/125/52 22/126/53 106/127/53 107/128/52
f 37/129/54 36/130/55 64/131/55 65/132/54
f 22/126/56 20/109/44 103/112/44 106/127/56
f 36/130/57 33/113/46 61/116/46 64/131/57
f 19/133/58 21/125/52 107/128/52 108/134/58
f 49/42/12 53/135/59 81/136/59 77/43/12
f 38/137/60 37/129/54 65/132/54 66/138/60
f 23/110/45 18/19/2 101/22/2 102/111/45
f 32/114/47 31/37/12 59/40/12 60/115/47
f 24/118/49 19/133/58 108/134/58 104/119/49
f 53/135/59 54/139/61 82/140/61 81/136/59
f 34/122/51 38/137/60 66/138/60 62/123/51
f 25/141/62 17/117/24 105/120/24 109/142/62
f 55/143/63 42/144/64 70/145/64 83/146/63
f 26/89/42 25/141/62 109/142/62 110/90/42
f 56/147/65 57/67/66 85/66/66 84/148/65
f 12/47/67 27/28/38 111/85/38 98/48/67
f 54/139/61 56/147/68 84/148/68 82/140/61
f 39/81/37 35/121/21 63/124/21 67/82/37
f 29/83/39 28/88/69 112/91/69 113/84/39
f 57/67/66 55/143/63 83/146/63 85/66/66
