# Blender 4.5.3 LTS
# www.blender.org
o Maderas_LOD00
v 3.041083 12.486964 -8.993246
v -3.873726 16.479237 -8.993246
v 3.041083 12.486965 -7.177678
v -3.873726 16.479237 -7.177678
v 2.471060 11.499670 -8.993246
v -4.443738 15.491941 -8.993246
v 2.471060 11.499671 -7.177678
v -4.443738 15.491942 -7.177678
v 3.041083 12.486967 9.029871
v -3.873717 16.479239 9.029881
v 3.041083 12.486965 7.214313
v -3.873717 16.479237 7.214313
v 2.471070 11.499672 9.029871
v -4.443738 15.491943 9.029881
v 2.471070 11.499671 7.214313
v -4.443738 15.491942 7.214313
v -3.737427 3.442355 -0.738335
v -3.737427 16.448662 -0.738336
v -3.737427 3.442355 0.743146
v -3.737427 16.448662 0.743145
v -4.877452 3.442355 -0.738335
v -4.877452 16.448662 -0.738336
v -4.877452 3.442355 0.743146
v -4.877452 16.448662 0.743145
v -3.737427 0.038758 -8.993245
v -3.737427 16.433722 -8.993246
v -3.737427 0.038758 -7.177677
v -3.737427 16.433723 -7.177678
v -4.877452 0.038758 -8.993245
v -4.877452 16.433722 -8.993246
v -4.877452 0.038758 -7.177677
v -4.877452 16.433723 -7.177678
v -3.737417 0.038750 9.029872
v -3.737417 16.433723 9.029871
v -3.737417 0.038750 7.214314
v -3.737417 16.433723 7.214313
v -4.877452 0.038750 9.029872
v -4.877452 16.433723 9.029871
v -4.877452 0.038750 7.214314
v -4.877452 16.433723 7.214313
v 3.085336 0.142310 -8.993245
v 3.085336 12.586689 -8.993246
v 3.085336 0.142310 -7.177677
v 3.085336 12.586690 -7.177678
v 1.945301 0.142310 -8.993245
v 1.945301 12.586689 -8.993246
v 1.945301 0.142310 -7.177677
v 1.945301 12.586690 -7.177678
v 3.085336 0.142311 9.029872
v 3.085336 12.586691 9.029871
v 3.085336 0.142311 7.214304
v 3.085336 12.586690 7.214303
v 1.945301 0.142311 9.029872
v 1.945301 12.586691 9.029871
v 1.945301 0.142311 7.214304
v 1.945301 12.586690 7.214303
v 2.036105 9.503405 -8.993246
v -3.855849 9.503405 -8.993246
v 2.036105 9.503405 -7.177678
v -3.855849 9.503405 -7.177678
v 2.036105 8.363379 -8.993246
v -3.855849 8.363379 -8.993246
v 2.036105 8.363379 -7.177678
v -3.855849 8.363379 -7.177678
v 2.036105 9.503406 9.029871
v -3.855840 9.503406 9.029871
v 2.036105 9.503406 7.214303
v -3.855840 9.503406 7.214303
v 2.036105 8.363379 9.029871
v -3.855840 8.363379 9.029871
v 2.036105 8.363379 7.214303
v -3.855840 8.363379 7.214303
v 0.044240 14.008318 -8.993246
v -4.161718 9.802371 -8.993246
v 0.044240 14.008320 -7.177687
v -4.161718 9.802371 -7.177678
v 0.850362 13.202196 -8.993246
v -3.355596 8.996248 -8.993246
v 0.850362 13.202198 -7.177687
v -3.355596 8.996248 -7.177678
v 0.044240 14.008321 9.029871
v -4.161718 9.802372 9.029871
v 0.044240 14.008320 7.214313
v -4.161718 9.802372 7.214313
v 0.850362 13.202199 9.029871
v -3.355596 8.996249 9.029871
v 0.850362 13.202198 7.214313
v -3.355596 8.996249 7.214313
v -3.686668 9.366863 -7.266969
v -3.686659 9.366864 7.303596
v -3.686668 8.230763 -7.266969
v -3.686659 8.230764 7.303596
v -4.826704 9.366863 -7.266969
v -4.826694 9.366864 7.303596
v -4.826704 8.230763 -7.266969
v -4.826694 8.230764 7.303596
v -4.884849 8.010378 -7.398150
v -4.884840 2.802293 -0.486793
v -4.884849 8.954360 -6.686807
v -4.884840 3.746285 0.224550
v -3.744813 8.010378 -7.398150
v -3.744813 2.802293 -0.486793
v -3.744813 8.954360 -6.686807
v -3.744813 3.746285 0.224550
v -4.884840 8.010379 7.434786
v -4.884840 2.802293 0.523429
v -4.884840 8.954361 6.723433
v -4.884840 3.746285 -0.187924
v -3.744804 8.010379 7.434786
v -3.744813 2.802293 0.523429
v -3.744804 8.954361 6.723433
v -3.744813 3.746285 -0.187924
v -3.686668 3.632427 -7.266969
v -3.686659 3.632428 7.303596
v -3.686668 2.496337 -7.266969
v -3.686659 2.496338 7.303596
v -4.826704 3.632427 -7.266969
v -4.826694 3.632428 7.303596
v -4.826704 2.496337 -7.266969
v -4.826694 2.496338 7.303596
v -3.714665 16.394026 -7.266970
v -3.714655 16.394026 7.303595
v -3.714665 15.257927 -7.266970
v -3.714655 15.257927 7.303595
v -4.854691 16.394026 -7.266970
v -4.854691 16.394026 7.303595
v -4.854691 15.257927 -7.266970
v -4.854691 15.257927 7.303595
vn 0.5000 0.8660 -0.0000
vn -0.0000 -0.0000 1.0000
vn -0.5000 -0.8660 -0.0000
vn -0.0000 -0.0000 -1.0000
vn 1.0000 -0.0000 -0.0000
vn -1.0000 -0.0000 -0.0000
vn -0.0000 1.0000 -0.0000
vn -0.0000 -1.0000 -0.0000
vn -0.7071 0.7071 -0.0000
vn 0.7071 -0.7071 -0.0000
vn -0.0000 0.7986 0.6018
vn -0.0000 -0.7986 -0.6018
vn -0.0000 0.7986 -0.6018
vn -0.0000 -0.7986 0.6018
vt 0.588597 0.316287
vt 0.430534 0.316287
vt 0.430534 0.158224
vt 0.588597 0.158224
vt 0.430534 0.000161
vt 0.588597 0.000161
vt 0.588597 0.632413
vt 0.430534 0.632413
vt 0.430534 0.474350
vt 0.588597 0.474350
s 1
f 1/1/1 2/2/1 4/3/1 3/4/1
f 3/4/2 4/3/2 8/5/2 7/6/2
f 7/7/3 8/8/3 6/9/3 5/10/3
f 5/10/4 6/9/4 2/2/4 1/1/4
f 9/1/1 11/4/1 12/3/1 10/2/1
f 11/4/4 15/6/4 16/5/4 12/3/4
f 15/7/3 13/10/3 14/9/3 16/8/3
f 13/10/2 9/1/2 10/2/2 14/9/2
f 17/1/5 18/2/5 20/3/5 19/4/5
f 19/4/2 20/3/2 24/5/2 23/6/2
f 23/7/6 24/8/6 22/9/6 21/10/6
f 21/10/4 22/9/4 18/2/4 17/1/4
f 25/1/5 26/2/5 28/3/5 27/4/5
f 27/4/2 28/3/2 32/5/2 31/6/2
f 31/7/6 32/8/6 30/9/6 29/10/6
f 29/10/4 30/9/4 26/2/4 25/1/4
f 33/1/5 35/4/5 36/3/5 34/2/5
f 35/4/4 39/6/4 40/5/4 36/3/4
f 39/7/6 37/10/6 38/9/6 40/8/6
f 37/10/2 33/1/2 34/2/2 38/9/2
f 41/1/5 42/2/5 44/3/5 43/4/5
f 43/4/2 44/3/2 48/5/2 47/6/2
f 47/7/6 48/8/6 46/9/6 45/10/6
f 45/10/4 46/9/4 42/2/4 41/1/4
f 49/1/5 51/4/5 52/3/5 50/2/5
f 51/4/4 55/6/4 56/5/4 52/3/4
f 55/7/6 53/10/6 54/9/6 56/8/6
f 53/10/2 49/1/2 50/2/2 54/9/2
f 57/1/7 58/2/7 60/3/7 59/4/7
f 59/4/2 60/3/2 64/5/2 63/6/2
f 63/7/8 64/8/8 62/9/8 61/10/8
f 61/10/4 62/9/4 58/2/4 57/1/4
f 65/1/7 67/4/7 68/3/7 66/2/7
f 67/4/4 71/6/4 72/5/4 68/3/4
f 71/7/8 69/10/8 70/9/8 72/8/8
f 69/10/2 65/1/2 66/2/2 70/9/2
f 73/1/9 74/2/9 76/3/9 75/4/9
f 75/4/2 76/3/2 80/5/2 79/6/2
f 79/7/10 80/8/10 78/9/10 77/10/10
f 77/10/4 78/9/4 74/2/4 73/1/4
f 81/1/9 83/4/9 84/3/9 82/2/9
f 83/4/4 87/6/4 88/5/4 84/3/4
f 87/7/10 85/10/10 86/9/10 88/8/10
f 85/10/2 81/1/2 82/2/2 86/9/2
f 89/1/5 90/2/5 92/3/5 91/4/5
f 91/4/8 92/3/8 96/5/8 95/6/8
f 95/7/6 96/8/6 94/9/6 93/10/6
f 93/10/7 94/9/7 90/2/7 89/1/7
f 97/1/6 98/2/6 100/3/6 99/4/6
f 99/4/11 100/3/11 104/5/11 103/6/11
f 103/7/5 104/8/5 102/9/5 101/10/5
f 101/10/12 102/9/12 98/2/12 97/1/12
f 105/1/6 107/4/6 108/3/6 106/2/6
f 107/4/13 111/6/13 112/5/13 108/3/13
f 111/7/5 109/10/5 110/9/5 112/8/5
f 109/10/14 105/1/14 106/2/14 110/9/14
f 113/1/5 114/2/5 116/3/5 115/4/5
f 115/4/8 116/3/8 120/5/8 119/6/8
f 119/7/6 120/8/6 118/9/6 117/10/6
f 117/10/7 118/9/7 114/2/7 113/1/7
f 121/1/5 122/2/5 124/3/5 123/4/5
f 123/4/8 124/3/8 128/5/8 127/6/8
f 127/7/6 128/8/6 126/9/6 125/10/6
f 125/10/7 126/9/7 122/2/7 121/1/7
