# Blender 4.5.3 LTS
# www.blender.org
o Paellera_LOD00
v 0.519752 0.140975 -1.848684
v 0.562578 0.062737 -1.533324
v 0.354331 0.207932 -2.118550
v 0.000001 0.231697 -2.214384
v 0.519752 0.393272 -1.786087
v 0.562578 0.341441 -1.577138
v 0.354331 0.460230 -2.055962
v 0.000001 0.483995 -2.151786
v 0.586808 0.146115 -1.874457
v 0.394013 0.220605 -2.171222
v 0.000001 0.249037 -2.284277
v 0.633667 0.063152 -1.544831
v 0.586808 0.398413 -1.811859
v 0.394013 0.472913 -2.108624
v 0.000001 0.501345 -2.221689
v 0.633667 0.341846 -1.588646
v -0.519751 0.140975 -1.848684
v -0.562566 0.062737 -1.533324
v -0.354330 0.207932 -2.118550
v -0.519751 0.393272 -1.786087
v -0.562566 0.341441 -1.577138
v -0.354330 0.460230 -2.055962
v -0.586797 0.146115 -1.874457
v -0.394012 0.220605 -2.171222
v -0.633666 0.063152 -1.544831
v -0.586797 0.398413 -1.811859
v -0.394012 0.472913 -2.108624
v -0.633666 0.341846 -1.588646
v 0.519752 0.140975 1.848682
v 0.562578 0.062738 1.533322
v 0.354331 0.207932 2.118548
v 0.000001 0.231697 2.214382
v 0.519752 0.393273 1.786085
v 0.562578 0.341441 1.577136
v 0.354331 0.460230 2.055960
v 0.000001 0.483995 2.151784
v 0.586808 0.146115 1.874455
v 0.394013 0.220605 2.171220
v 0.000001 0.249037 2.284275
v 0.633667 0.063153 1.544829
v 0.586808 0.398413 1.811867
v 0.394013 0.472903 2.108632
v 0.000001 0.501345 2.221687
v 0.633667 0.341846 1.588644
v -0.519751 0.140975 1.848682
v -0.562566 0.062738 1.533322
v -0.354330 0.207932 2.118548
v -0.519751 0.393273 1.786085
v -0.562566 0.341441 1.577136
v -0.354330 0.460230 2.055960
v -0.586797 0.146115 1.874455
v -0.394012 0.220605 2.171220
v -0.633666 0.063153 1.544829
v -0.586797 0.398413 1.811867
v -0.394012 0.472903 2.108632
v -0.633666 0.341846 1.588644
v -0.998772 -0.729173 0.998782
v 0.998783 -0.729173 0.998782
v -0.998772 -0.729173 -0.998783
v 0.998783 -0.729173 -0.998783
v -1.412487 -0.729173 -0.000001
v 0.000001 -0.729173 1.412487
v 1.412488 -0.729173 -0.000001
v 0.000001 -0.729173 -1.412489
v 0.000001 -0.729173 -0.000001
v -1.304968 -0.729173 0.540531
v 0.540542 -0.729173 1.304968
v 1.304969 -0.729173 -0.540532
v -0.540531 -0.729173 -1.304970
v -1.304968 -0.729173 -0.540532
v -0.540531 -0.729173 1.304968
v 1.304969 -0.729173 0.540531
v 0.540542 -0.729173 -1.304970
v 0.000001 -0.729173 -0.607490
v 0.000001 -0.729173 0.607488
v -0.607478 -0.729173 -0.000001
v 0.607489 -0.729173 -0.000001
v 0.607489 -0.729173 0.607488
v -0.607478 -0.729173 0.607488
v -0.607478 -0.729173 -0.607490
v 0.607489 -0.729173 -0.607490
v -1.621406 0.556677 0.671608
v -1.240967 0.556677 1.240966
v 0.671609 0.556677 1.621405
v 1.240978 0.556677 1.240966
v 1.621407 0.556677 -0.671610
v 1.240978 0.556677 -1.240968
v -0.671608 0.556677 -1.621408
v -1.240967 0.556677 -1.240968
v -1.621406 0.556677 -0.671610
v -1.754994 0.556677 -0.000001
v -0.671608 0.556677 1.621405
v 0.000001 0.556677 1.754994
v 1.621407 0.556677 0.671608
v 1.755005 0.556677 -0.000001
v 0.671609 0.556677 -1.621408
v 0.000001 0.556677 -1.754996
v -1.756961 0.556677 0.727759
v -1.344719 0.556677 1.344729
v 0.727761 0.556677 1.756971
v 1.344730 0.556677 1.344729
v 1.756973 0.556677 -0.727762
v 1.344730 0.556677 -1.344721
v -0.727760 0.556677 -1.756963
v -1.344719 0.556677 -1.344721
v -1.756961 0.556677 -0.727762
v -1.901721 0.556677 -0.000001
v -0.727760 0.556677 1.756971
v 0.000001 0.556677 1.901730
v 1.756973 0.556677 0.727759
v 1.901732 0.556677 -0.000001
v 0.727761 0.556677 -1.756963
v 0.000001 0.556677 -1.901732
v 0.000001 -0.620586 -0.639411
v 0.000001 -0.620586 -1.372006
v 0.000001 -0.620586 0.639409
v 0.000001 -0.620586 -0.000001
v -0.639410 -0.620586 -0.000001
v -1.372004 -0.620586 -0.000001
v 0.639411 -0.620586 -0.000001
v 0.000001 -0.620586 1.372014
v 1.372015 -0.620586 -0.000001
v 0.639411 -0.620586 0.639409
v 0.525051 -0.620586 1.267569
v 1.267571 -0.620586 0.525049
v -0.639410 -0.620586 0.639409
v -0.525040 -0.620586 1.267569
v -1.267570 -0.620586 0.525049
v -0.639410 -0.620586 -0.639411
v -0.525040 -0.620586 -1.267571
v -1.267570 -0.620586 -0.525041
v 0.639411 -0.620586 -0.639411
v 0.525051 -0.620586 -1.267571
v 1.267571 -0.620586 -0.525041
v -0.970152 -0.620586 0.970162
v 0.970163 -0.620586 0.970162
v 0.970163 -0.620586 -0.970154
v -0.970152 -0.620586 -0.970154
vn -0.9403 -0.0656 0.3341
vn -0.8594 -0.1231 0.4962
vn -0.9871 -0.0057 0.1599
vn -0.2684 -0.2320 0.9350
vn 0.9349 0.0684 -0.3482
vn 0.8461 0.1284 -0.5174
vn 0.9346 0.0686 -0.3489
vn 0.9862 0.0059 -0.1657
vn 0.2837 0.2309 -0.9307
vn -0.0000 0.9712 0.2384
vn 0.0061 0.9715 0.2370
vn 0.0060 0.9715 0.2370
vn -0.0255 -0.9707 -0.2391
vn -0.0184 -0.9712 -0.2374
vn -0.0181 -0.9713 -0.2373
vn 0.0181 0.9713 0.2370
vn 0.0253 0.9709 0.2383
vn 0.0182 0.9713 0.2370
vn -0.0062 -0.9715 -0.2369
vn -0.0061 -0.9715 -0.2370
vn -0.0000 -0.9712 -0.2382
vn 0.9403 -0.0656 0.3341
vn 0.8594 -0.1231 0.4962
vn 0.9871 -0.0057 0.1598
vn 0.2684 -0.2320 0.9350
vn -0.9349 0.0684 -0.3482
vn -0.9346 0.0686 -0.3489
vn -0.8461 0.1284 -0.5174
vn -0.9862 0.0059 -0.1657
vn -0.2837 0.2309 -0.9307
vn -0.0060 0.9715 0.2370
vn -0.0061 0.9715 0.2370
vn 0.0255 -0.9707 -0.2391
vn 0.0181 -0.9713 -0.2373
vn 0.0184 -0.9712 -0.2374
vn -0.0181 0.9713 0.2370
vn -0.0182 0.9713 0.2370
vn -0.0253 0.9709 0.2383
vn 0.0061 -0.9715 -0.2370
vn 0.0062 -0.9715 -0.2369
vn -0.9403 -0.0656 -0.3341
vn -0.8594 -0.1231 -0.4962
vn -0.9871 -0.0057 -0.1599
vn -0.2684 -0.2320 -0.9350
vn 0.9349 0.0684 0.3482
vn 0.9346 0.0686 0.3489
vn 0.8460 0.1284 0.5174
vn 0.9862 0.0059 0.1657
vn 0.2837 0.2309 0.9307
vn -0.0000 0.9712 -0.2383
vn 0.0061 0.9715 -0.2370
vn 0.0062 0.9715 -0.2369
vn -0.0255 -0.9707 0.2391
vn -0.0181 -0.9713 0.2373
vn -0.0184 -0.9712 0.2374
vn 0.0182 0.9714 -0.2370
vn 0.0182 0.9713 -0.2370
vn 0.0253 0.9709 -0.2383
vn -0.0061 -0.9715 0.2370
vn -0.0062 -0.9715 0.2369
vn -0.0000 -0.9712 0.2382
vn 0.9403 -0.0656 -0.3341
vn 0.8594 -0.1231 -0.4962
vn 0.9871 -0.0057 -0.1598
vn 0.2684 -0.2320 -0.9350
vn -0.9349 0.0684 0.3482
vn -0.8461 0.1284 0.5174
vn -0.9346 0.0686 0.3489
vn -0.9862 0.0059 0.1657
vn -0.2837 0.2309 0.9307
vn -0.0062 0.9715 -0.2369
vn -0.0061 0.9715 -0.2370
vn 0.0255 -0.9707 0.2391
vn 0.0184 -0.9712 0.2374
vn 0.0181 -0.9713 0.2373
vn -0.0182 0.9714 -0.2370
vn -0.0253 0.9709 -0.2383
vn -0.0182 0.9713 -0.2370
vn 0.0062 -0.9715 0.2369
vn 0.0061 -0.9715 0.2370
vn -0.0000 -1.0000 -0.0000
vn 0.3639 0.3094 0.8786
vn 0.6724 0.3094 0.6724
vn -0.9509 0.3094 -0.0000
vn -0.8786 0.3094 0.3639
vn -0.6724 0.3094 0.6724
vn -0.0000 0.3094 -0.9509
vn -0.3639 0.3094 -0.8786
vn -0.6724 0.3094 -0.6724
vn 0.9509 0.3094 -0.0000
vn 0.8786 0.3094 -0.3639
vn -0.3639 0.3094 0.8786
vn 0.6724 0.3094 -0.6724
vn -0.0000 0.3094 0.9509
vn -0.8786 0.3094 -0.3639
vn 0.3639 0.3094 -0.8786
vn 0.8786 0.3094 0.3639
vn -0.8635 -0.3556 -0.3577
vn -0.9346 -0.3556 -0.0000
vn 0.6609 -0.3556 -0.6609
vn 0.3577 -0.3556 -0.8635
vn -0.8635 -0.3556 0.3577
vn -0.3577 -0.3556 0.8635
vn -0.0000 -0.3556 0.9346
vn 0.3577 -0.3556 0.8635
vn 0.8635 -0.3556 0.3577
vn 0.9346 -0.3556 -0.0000
vn 0.8635 -0.3556 -0.3577
vn -0.0000 -0.3556 -0.9346
vn -0.6609 -0.3556 0.6609
vn -0.3577 -0.3556 -0.8635
vn 0.6609 -0.3556 0.6609
vn -0.6609 -0.3556 -0.6609
vn -0.0000 1.0000 -0.0000
vt 0.965307 0.191324
vt 0.965720 0.210823
vt 0.950142 0.211001
vt 0.949661 0.191611
vt 0.949272 0.171750
vt 0.965130 0.178157
vt 0.965707 0.232651
vt 0.950318 0.232776
vt 0.983520 0.191360
vt 0.983476 0.210728
vt 0.969339 0.210899
vt 0.969345 0.191272
vt 0.984114 0.172355
vt 0.969389 0.178077
vt 0.984299 0.233415
vt 0.969716 0.233742
vt 0.988277 0.172419
vt 0.987490 0.191349
vt 0.986993 0.210597
vt 0.988277 0.232046
vt 0.415556 0.737006
vt 0.431574 0.745499
vt 0.418497 0.750226
vt 0.404650 0.751489
vt 0.431910 0.711293
vt 0.446393 0.722199
vt 0.440510 0.734820
vt 0.423742 0.724154
vt 0.406197 0.694938
vt 0.419060 0.703107
vt 0.410877 0.715972
vt 0.398011 0.707790
vt 0.389844 0.720651
vt 0.402694 0.728837
vt 0.392029 0.745605
vt 0.381350 0.736669
vt 0.381243 0.697124
vt 0.375360 0.709745
vt 0.376623 0.723592
vt 0.417104 0.680455
vt 0.429725 0.686339
vt 0.403256 0.681718
vt 0.390179 0.686445
vt 0.440404 0.695274
vt 0.445131 0.708351
vt 0.908940 0.144793
vt 0.885028 0.134517
vt 0.902319 0.108016
vt 0.914728 0.113858
vt 0.987808 0.068005
vt 0.987808 0.093873
vt 0.956966 0.087613
vt 0.957940 0.073860
vt 0.977803 0.117935
vt 0.950847 0.099809
vt 0.910765 0.014163
vt 0.936564 0.014527
vt 0.930776 0.045461
vt 0.916997 0.044846
vt 0.960477 0.024802
vt 0.943186 0.051303
vt 0.857696 0.091315
vt 0.857696 0.065446
vt 0.888539 0.071707
vt 0.887564 0.085460
vt 0.958510 0.135340
vt 0.941639 0.110008
vt 0.867701 0.041384
vt 0.894658 0.059511
vt 0.934739 0.145157
vt 0.928508 0.114474
vt 0.979060 0.043390
vt 0.952055 0.061540
vt 0.886995 0.023980
vt 0.903865 0.049311
vt 0.866444 0.115929
vt 0.893449 0.097779
vt 0.448601 0.656661
vt 0.467827 0.676030
vt 0.450819 0.772922
vt 0.426139 0.784580
vt 0.422902 0.647459
vt 0.351566 0.678248
vt 0.370935 0.659022
vt 0.342363 0.703947
vt 0.373152 0.775283
vt 0.353926 0.755914
vt 0.398852 0.784485
vt 0.470187 0.753696
vt 0.395614 0.647364
vt 0.479390 0.727997
vt 0.342269 0.731234
vt 0.479484 0.700710
vt 0.394623 0.643537
vt 0.423478 0.643537
vt 0.338442 0.732226
vt 0.338442 0.703371
vt 0.427131 0.788407
vt 0.398276 0.788407
vt 0.483311 0.699718
vt 0.483311 0.728573
vt 0.450606 0.653254
vt 0.471007 0.673665
vt 0.348159 0.676243
vt 0.368570 0.655841
vt 0.371147 0.778690
vt 0.350746 0.758279
vt 0.473595 0.755701
vt 0.453184 0.776103
vt 0.941416 0.093170
vt 0.909425 0.098390
vt 0.925479 0.095894
vt 0.904089 0.066149
vt 0.920025 0.063426
vt 0.922752 0.079660
vt 0.906599 0.082248
vt 0.936080 0.060929
vt 0.938906 0.077071
s 1
f 5/1/1 7/2/2 3/3/2 1/4/1
f 2/5/3 6/6/3 5/1/1 1/4/1
f 3/3/4 7/2/4 8/7/4 4/8/4
f 9/9/5 10/10/6 14/11/6 13/12/7
f 12/13/8 9/9/5 13/12/7 16/14/8
f 10/10/9 11/15/9 15/16/9 14/11/9
f 8/7/10 7/2/11 14/11/12 15/16/10
f 2/17/13 1/18/14 9/9/15 12/13/13
f 5/1/16 6/6/17 16/14/17 13/12/18
f 1/18/14 3/19/19 10/10/20 9/9/15
f 5/1/16 13/12/18 14/11/12 7/2/11
f 3/19/19 4/20/21 11/15/21 10/10/20
f 20/1/22 17/4/22 19/3/23 22/2/23
f 18/5/24 17/4/22 20/1/22 21/6/24
f 19/3/25 4/8/25 8/7/25 22/2/25
f 23/9/26 26/12/27 27/11/28 24/10/28
f 25/13/29 28/14/29 26/12/27 23/9/26
f 24/10/30 27/11/30 15/16/30 11/15/30
f 8/7/10 15/16/10 27/11/31 22/2/32
f 18/17/33 25/13/33 23/9/34 17/18/35
f 20/1/36 26/12/37 28/14/38 21/6/38
f 17/18/35 23/9/34 24/10/39 19/19/40
f 20/1/36 22/2/32 27/11/31 26/12/37
f 19/19/40 24/10/39 11/15/21 4/20/21
f 33/1/41 29/4/41 31/3/42 35/2/42
f 30/5/43 29/4/41 33/1/41 34/6/43
f 31/3/44 32/8/44 36/7/44 35/2/44
f 37/9/45 41/12/46 42/11/47 38/10/47
f 40/13/48 44/14/48 41/12/46 37/9/45
f 38/10/49 42/11/49 43/16/49 39/15/49
f 36/7/50 43/16/50 42/11/51 35/2/52
f 30/17/53 40/13/53 37/9/54 29/18/55
f 33/1/56 41/12/57 44/14/58 34/6/58
f 29/18/55 37/9/54 38/10/59 31/19/60
f 33/1/56 35/2/52 42/11/51 41/12/57
f 31/19/60 38/10/59 39/15/61 32/20/61
f 48/1/62 50/2/63 47/3/63 45/4/62
f 46/5/64 49/6/64 48/1/62 45/4/62
f 47/3/65 50/2/65 36/7/65 32/8/65
f 51/9/66 52/10/67 55/11/67 54/12/68
f 53/13/69 51/9/66 54/12/68 56/14/69
f 52/10/70 39/15/70 43/16/70 55/11/70
f 36/7/50 50/2/71 55/11/72 43/16/50
f 46/17/73 45/18/74 51/9/75 53/13/73
f 48/1/76 49/6/77 56/14/77 54/12/78
f 45/18/74 47/19/79 52/10/80 51/9/75
f 48/1/76 54/12/78 55/11/72 50/2/71
f 47/19/79 32/20/61 39/15/61 52/10/80
f 81/21/81 73/22/81 60/23/81 68/24/81
f 80/25/81 69/26/81 64/27/81 74/28/81
f 79/29/81 76/30/81 65/31/81 75/32/81
f 78/33/81 77/34/81 63/35/81 72/36/81
f 75/32/81 65/31/81 77/34/81 78/33/81
f 62/37/81 75/32/81 78/33/81 67/38/81
f 67/38/81 78/33/81 72/36/81 58/39/81
f 66/40/81 61/41/81 76/30/81 79/29/81
f 57/42/81 66/40/81 79/29/81 71/43/81
f 71/43/81 79/29/81 75/32/81 62/37/81
f 70/44/81 59/45/81 69/26/81 80/25/81
f 61/41/81 70/44/81 80/25/81 76/30/81
f 76/30/81 80/25/81 74/28/81 65/31/81
f 74/28/81 64/27/81 73/22/81 81/21/81
f 65/31/81 74/28/81 81/21/81 77/34/81
f 77/34/81 81/21/81 68/24/81 63/35/81
f 88/46/82 89/47/83 138/48/83 130/49/82
f 95/50/84 86/51/85 134/52/85 122/53/84
f 86/51/85 87/54/86 137/55/86 134/52/85
f 93/56/87 84/57/88 124/58/88 121/59/87
f 84/57/88 85/60/89 136/61/89 124/58/88
f 91/62/90 82/63/91 128/64/91 119/65/90
f 87/54/86 96/66/92 133/67/92 137/55/86
f 82/63/91 83/68/93 135/69/93 128/64/91
f 96/66/92 97/70/94 115/71/94 133/67/92
f 85/60/89 94/72/95 125/73/95 136/61/89
f 94/72/95 95/50/84 122/53/84 125/73/95
f 83/68/93 92/74/96 127/75/96 135/69/93
f 92/74/96 93/56/87 121/59/87 127/75/96
f 89/47/83 90/76/97 131/77/97 138/48/83
f 90/76/97 91/62/90 119/65/90 131/77/97
f 97/70/94 88/46/82 130/49/82 115/71/94
f 70/44/98 61/41/99 107/78/99 106/79/98
f 60/23/100 73/22/101 112/80/101 103/81/100
f 61/41/99 66/40/102 98/82/102 107/78/99
f 71/43/103 62/37/104 109/83/104 108/84/103
f 62/37/104 67/38/105 100/85/105 109/83/104
f 72/36/106 63/35/107 111/86/107 110/87/106
f 63/35/107 68/24/108 102/88/108 111/86/107
f 73/22/101 64/27/109 113/89/109 112/80/101
f 66/40/102 57/42/110 99/90/110 98/82/102
f 64/27/109 69/26/111 104/91/111 113/89/109
f 67/38/105 58/39/112 101/92/112 100/85/105
f 59/45/113 70/44/98 106/79/98 105/93/113
f 68/24/108 60/23/100 103/81/100 102/88/108
f 57/42/110 71/43/103 108/84/103 99/90/110
f 69/26/111 59/45/113 105/93/113 104/91/111
f 58/39/112 72/36/106 110/87/106 101/92/112
f 83/94/114 82/95/114 98/82/114 99/90/114
f 85/96/114 84/97/114 100/85/114 101/92/114
f 87/98/114 86/99/114 102/88/114 103/81/114
f 89/100/114 88/101/114 104/91/114 105/93/114
f 91/102/114 90/103/114 106/79/114 107/78/114
f 93/104/114 92/105/114 108/84/114 109/83/114
f 95/106/114 94/107/114 110/87/114 111/86/114
f 97/108/114 96/109/114 112/80/114 113/89/114
f 82/95/114 91/102/114 107/78/114 98/82/114
f 84/97/114 93/104/114 109/83/114 100/85/114
f 86/99/114 95/106/114 111/86/114 102/88/114
f 88/101/114 97/108/114 113/89/114 104/91/114
f 90/103/114 89/100/114 105/93/114 106/79/114
f 92/105/114 83/94/114 99/90/114 108/84/114
f 94/107/114 85/96/114 101/92/114 110/87/114
f 96/109/114 87/98/114 103/81/114 112/80/114
f 132/110/114 134/52/114 137/55/114 133/67/114
f 129/111/114 114/112/114 115/71/114 130/49/114
f 126/113/114 116/114/114 117/115/114 118/116/114
f 123/117/114 125/73/114 122/53/114 120/118/114
f 116/114/114 123/117/114 120/118/114 117/115/114
f 121/59/114 124/58/114 123/117/114 116/114/114
f 124/58/114 136/61/114 125/73/114 123/117/114
f 128/64/114 126/113/114 118/116/114 119/65/114
f 135/69/114 127/75/114 126/113/114 128/64/114
f 127/75/114 121/59/114 116/114/114 126/113/114
f 131/77/114 129/111/114 130/49/114 138/48/114
f 119/65/114 118/116/114 129/111/114 131/77/114
f 118/116/114 117/115/114 114/112/114 129/111/114
f 114/112/114 132/110/114 133/67/114 115/71/114
f 117/115/114 120/118/114 132/110/114 114/112/114
f 120/118/114 122/53/114 134/52/114 132/110/114
