# Blender 4.5.3 LTS
# www.blender.org
o Tela_3_2_LOD00
v 4.184406 3.280711 5.574348
v 5.490972 3.273096 4.292907
v 4.432601 1.429711 5.913022
v 4.308504 2.355206 5.743685
v 5.651604 2.347427 4.426920
v 4.899806 3.278713 5.004029
v 5.188026 1.427549 5.308358
v 5.043917 2.353135 5.156194
v 2.675855 3.281783 6.434445
v 4.258088 3.280573 5.519726
v 2.833875 1.430884 6.823901
v 2.754860 2.356333 6.629173
v 4.384311 2.355069 5.687450
v 3.510680 3.281801 6.048371
v 3.718502 1.430875 6.413553
v 3.614591 2.356333 6.230958
v 0.996079 3.281783 6.874014
v 2.759258 3.281792 6.395676
v 1.053505 1.430884 7.290382
v 1.024788 2.356333 7.082203
v 2.840830 2.356333 6.589341
v 1.903587 3.281783 6.716709
v 2.014884 1.430884 7.122018
v 1.959235 2.356333 6.919363
v -0.728449 3.281783 6.870569
v 1.086869 3.281783 6.860535
v -0.787424 1.430884 7.286726
v -0.757936 2.356333 7.078648
v 1.118619 2.356333 7.068285
v 0.179196 3.281783 6.997324
v 0.181487 1.430884 7.417632
v 0.180341 2.356333 7.207483
v -2.406337 3.281783 6.424549
v -0.637660 3.281783 6.884076
v -2.565667 1.430884 6.813473
v -2.486002 2.356333 6.619011
v -0.664105 2.356333 7.092567
v -1.545177 3.281783 6.728686
v -1.652616 1.430884 7.135038
v -1.598901 2.356333 6.931862
v -3.912414 3.280674 5.560420
v -2.322933 3.281783 6.463346
v -4.161690 1.429675 5.898268
v -4.037052 2.355170 5.729344
v -2.400033 2.356333 6.658844
v -3.157639 3.281801 6.077006
v -3.361869 1.430875 6.444232
v -3.259754 2.356333 6.260619
v -5.156075 3.273517 4.345825
v -3.838751 3.280811 5.615060
v -5.475019 1.422188 4.616681
v -5.315542 2.347848 4.481249
v -3.961245 2.355316 5.785588
v -4.565065 3.279135 5.057084
v -4.850655 1.427979 5.363961
v -4.707864 2.353557 5.210522
v -6.177930 3.270420 2.865084
v -5.096880 3.274076 4.416867
v -6.572893 1.420273 3.018303
v -6.375407 2.345346 2.941689
v -5.254781 2.348425 4.554179
v -5.658027 3.270723 3.667050
v -6.011435 1.419357 3.890752
v -5.834731 2.345035 3.778896
v -6.789255 3.364444 1.180471
v -6.125965 3.270438 2.945299
v -7.245263 1.522030 1.172893
v -7.017254 2.443237 1.176677
v -6.321545 2.345273 3.025532
v -6.501905 3.309144 2.072044
v -6.932705 1.462085 2.144846
v -6.717305 2.385619 2.108449
v -6.900084 3.420889 -0.418421
v -6.777224 3.358139 1.264827
v -7.355368 1.578283 -0.415580
v -7.127726 2.499591 -0.417000
v -7.005287 2.436951 1.260768
v -6.904198 3.422933 0.422580
v -7.359464 1.580327 0.419905
v -7.131831 2.501625 0.421243
v -6.492101 3.307494 -2.069707
v -6.913563 3.427578 -0.334311
v -6.921792 1.460307 -2.145423
v -6.706942 2.383905 -2.107570
v -7.141178 2.506271 -0.333157
v -6.785562 3.362510 -1.176384
v -7.241598 1.520106 -1.168632
v -7.013580 2.441304 -1.172508
v -5.642102 3.270731 -3.661690
v -6.524135 3.312873 -1.979633
v -5.994116 1.419356 -3.887472
v -5.818109 2.345044 -3.774581
v -6.740763 2.389504 -2.012731
v -6.162023 3.270420 -2.859734
v -6.555830 1.420227 -3.015178
v -6.358922 2.345328 -2.937456
v -4.547004 3.279299 -5.048985
v -5.694121 3.270694 -3.581512
v -4.831513 1.428162 -5.356896
v -4.689254 2.353730 -5.202945
v -5.872392 2.345034 -3.690985
v -5.137950 3.273691 -4.337661
v -5.455932 1.422371 -4.609672
v -5.296941 2.348031 -4.473661
v -3.132055 3.281800 -6.058873
v -4.606006 3.278740 -4.977767
v -3.334801 1.430874 -6.426922
v -3.233428 2.356333 -6.242897
v -4.750024 2.353162 -5.130014
v -3.889854 3.280710 -5.547235
v -4.137829 1.429720 -5.886072
v -4.013842 2.355215 -5.716653
v -1.517394 3.281782 -6.703708
v -3.215615 3.281800 -6.020424
v -1.623238 1.430883 -7.110481
v -1.570311 2.356333 -6.907094
v -3.319407 2.356333 -6.203083
v -2.380799 3.281782 -6.406516
v -2.538562 1.430883 -6.796082
v -2.459685 2.356333 -6.601299
v 0.206979 3.281782 -6.963155
v -1.608165 3.281782 -6.687617
v 0.211148 1.430883 -7.383453
v 0.209068 2.356333 -7.173304
v -1.663675 2.356333 -6.890307
v -0.700648 3.281782 -6.844794
v -0.757762 1.430883 -7.261207
v -0.729210 2.356333 -7.053000
v 1.931379 3.281782 -6.681881
v 0.116226 3.281782 -6.968122
v 2.044261 1.430883 -7.086748
v 1.987825 2.356333 -6.884314
v 0.115237 2.356333 -7.178280
v 1.023872 3.281782 -6.839974
v 1.083158 1.430883 -7.256084
v 1.053515 2.356333 -7.048033
v 3.536263 3.281800 -6.006697
v 1.840608 3.281782 -6.697953
v 3.745552 1.430874 -6.371027
v 3.640907 2.356333 -6.188862
v 1.894451 2.356333 -6.901092
v 2.701383 3.281782 -6.392662
v 2.860979 1.430883 -6.781475
v 2.781186 2.356333 -6.587069
v 4.917876 3.278538 -4.952322
v 3.452695 3.281800 -6.045137
v 5.207169 1.427374 -5.255597
v 5.062527 2.352961 -5.103963
v 3.554929 2.356333 -6.228676
v 4.206957 3.280664 -5.527718
v 4.456462 1.429664 -5.865400
v 4.331705 2.355169 -5.696558
v 6.003489 3.270685 -3.552867
v 4.858865 3.279097 -5.023539
v 6.361626 1.419374 -3.769376
v 6.182558 2.345026 -3.661122
v 5.001747 2.353528 -5.176893
v 5.449884 3.273489 -4.312288
v 5.768985 1.422160 -4.582942
v 5.609435 2.347820 -4.447610
v 6.826357 3.314788 -1.947461
v 5.951470 3.270722 -3.633046
v 7.260849 1.468233 -2.010220
v 7.043608 2.391510 -1.978836
v 6.128293 2.345034 -3.744718
v 6.471364 3.270420 -2.831071
v 6.866528 1.420282 -2.983922
v 6.668951 2.345355 -2.907501
v 7.209197 3.429979 -0.304256
v 6.794332 3.309418 -2.037526
v 7.664425 1.587355 -0.302158
v 7.436811 2.508663 -0.303211
v 7.009823 2.385903 -2.073684
v 7.080664 3.364764 -1.146247
v 7.536654 1.522351 -1.138696
v 7.308654 2.443558 -1.142471
v 7.063748 3.355894 1.294974
v 7.195672 3.423272 -0.388365
v 7.519921 1.513527 1.286654
v 7.291831 2.434715 1.290814
v 7.423304 2.501973 -0.387046
v 7.190183 3.420550 0.452636
v 7.645467 1.577944 0.449768
v 7.417825 2.499243 0.451197
v 6.398187 3.270447 2.973953
v 7.075725 3.362180 1.210609
v 6.787962 1.420053 3.137003
v 6.593071 2.345255 3.055478
v 7.303751 2.440983 1.206724
v 6.781246 3.307220 2.104225
v 7.210745 1.460005 2.180427
v 6.995996 2.383612 2.142326
v 5.366527 3.274278 4.442250
v 6.450142 3.270429 2.893747
v 5.681182 1.422976 4.718219
v 5.523850 2.348627 4.580239
v 6.646950 2.345319 2.971653
v 5.930230 3.270732 3.695694
v 6.282006 1.419357 3.921834
v 6.106118 2.345044 3.808768
vn 0.6574 0.2213 0.7203
vn 0.6861 0.2213 0.6930
vn 0.6088 0.2206 0.7621
vn 0.6092 0.2206 0.7618
vn 0.6095 0.2206 0.7615
vn 0.7506 0.2199 0.6230
vn 0.4610 0.2216 0.8593
vn 0.4906 0.2217 0.8427
vn 0.4096 0.2209 0.8851
vn 0.4099 0.2209 0.8850
vn 0.4102 0.2209 0.8849
vn 0.5631 0.2207 0.7963
vn 0.2252 0.2217 0.9487
vn 0.2570 0.2218 0.9406
vn 0.1670 0.2209 0.9609
vn 0.1674 0.2209 0.9608
vn 0.1678 0.2209 0.9607
vn 0.3423 0.2209 0.9133
vn -0.0427 0.2223 0.9740
vn 0.0053 0.2225 0.9749
vn -0.1338 0.2204 0.9662
vn -0.1327 0.2204 0.9663
vn -0.1316 0.2204 0.9665
vn 0.1442 0.2204 0.9647
vn -0.2725 0.2216 0.9363
vn -0.2467 0.2217 0.9434
vn -0.3246 0.2210 0.9197
vn -0.3244 0.2210 0.9198
vn -0.3242 0.2210 0.9198
vn -0.1649 0.2209 0.9612
vn -0.5049 0.2215 0.8343
vn -0.4839 0.2216 0.8466
vn -0.5508 0.2208 0.8049
vn -0.5506 0.2208 0.8051
vn -0.5503 0.2208 0.8052
vn -0.4098 0.2209 0.8850
vn -0.7019 0.2212 0.6771
vn -0.6802 0.2213 0.6988
vn -0.7507 0.2198 0.6230
vn -0.7503 0.2198 0.6235
vn -0.7499 0.2198 0.6240
vn -0.5950 0.2205 0.7729
vn -0.8074 0.2198 0.5476
vn -0.8015 0.2198 0.5561
vn -0.8191 0.2196 0.5300
vn -0.8195 0.2196 0.5293
vn -0.8199 0.2196 0.5287
vn -0.7816 0.2198 0.5838
vn -0.9131 0.2261 0.3394
vn -0.9088 0.2255 0.3510
vn -0.9227 0.2273 0.3113
vn -0.9228 0.2273 0.3111
vn -0.9228 0.2273 0.3110
vn -0.8916 0.2231 0.3941
vn -0.9694 0.2395 0.0532
vn -0.9682 0.2391 0.0734
vn -0.9708 0.2399 -0.0053
vn -0.9579 0.2364 0.1626
vn -0.9363 0.2309 -0.2645
vn -0.9410 0.2320 -0.2463
vn -0.9211 0.2269 -0.3163
vn -0.9212 0.2270 -0.3160
vn -0.9213 0.2270 -0.3158
vn -0.9577 0.2364 -0.1639
vn -0.8487 0.2217 -0.4802
vn -0.8588 0.2223 -0.4616
vn -0.8190 0.2196 -0.5300
vn -0.8194 0.2196 -0.5295
vn -0.8198 0.2196 -0.5289
vn -0.8973 0.2236 -0.3806
vn -0.7628 0.2199 -0.6081
vn -0.7680 0.2199 -0.6015
vn -0.7508 0.2197 -0.6229
vn -0.7503 0.2198 -0.6235
vn -0.7499 0.2198 -0.6240
vn -0.7863 0.2198 -0.5774
vn -0.5671 0.2209 -0.7934
vn -0.5760 0.2208 -0.7871
vn -0.5457 0.2208 -0.8083
vn -0.5455 0.2208 -0.8085
vn -0.5453 0.2208 -0.8087
vn -0.6078 0.2206 -0.7628
vn -0.3482 0.2212 -0.9109
vn -0.3630 0.2212 -0.9052
vn -0.3173 0.2210 -0.9222
vn -0.3171 0.2210 -0.9223
vn -0.3170 0.2210 -0.9223
vn -0.4097 0.2209 -0.8851
vn -0.1383 0.2206 -0.9655
vn -0.1456 0.2206 -0.9644
vn -0.1251 0.2204 -0.9673
vn -0.1240 0.2205 -0.9675
vn -0.1231 0.2205 -0.9676
vn -0.1669 0.2209 -0.9609
vn 0.1573 0.2207 -0.9626
vn 0.1516 0.2207 -0.9635
vn 0.1679 0.2209 -0.9607
vn 0.1683 0.2209 -0.9607
vn 0.1688 0.2209 -0.9606
vn 0.1352 0.2204 -0.9660
vn 0.3827 0.2211 -0.8970
vn 0.3673 0.2212 -0.9034
vn 0.4096 0.2209 -0.8851
vn 0.4099 0.2209 -0.8850
vn 0.4102 0.2209 -0.8848
vn 0.3258 0.2210 -0.9193
vn 0.5946 0.2208 -0.7731
vn 0.5822 0.2208 -0.7825
vn 0.6144 0.2206 -0.7576
vn 0.6147 0.2206 -0.7573
vn 0.6151 0.2206 -0.7570
vn 0.5517 0.2208 -0.8043
vn 0.7769 0.2199 -0.5900
vn 0.7693 0.2199 -0.5999
vn 0.7887 0.2198 -0.5741
vn 0.7888 0.2198 -0.5740
vn 0.7507 0.2198 -0.6230
vn 0.8774 0.2232 -0.4246
vn 0.8605 0.2224 -0.4584
vn 0.9002 0.2238 -0.3736
vn 0.8999 0.2238 -0.3742
vn 0.8997 0.2238 -0.3748
vn 0.8191 0.2196 -0.5300
vn 0.9491 0.2341 -0.2110
vn 0.9417 0.2322 -0.2434
vn 0.9576 0.2364 -0.1645
vn 0.9576 0.2364 -0.1646
vn 0.9230 0.2273 -0.3105
vn 0.9647 0.2382 0.1126
vn 0.9677 0.2390 0.0797
vn 0.9580 0.2365 0.1619
vn 0.9708 0.2399 0.0071
vn 0.8997 0.2243 0.3745
vn 0.9063 0.2252 0.3575
vn 0.8885 0.2228 0.4011
vn 0.8884 0.2228 0.4014
vn 0.8883 0.2228 0.4016
vn 0.9208 0.2269 0.3171
vn 0.7925 0.2199 0.5689
vn 0.8004 0.2199 0.5577
vn 0.7791 0.2198 0.5871
vn 0.7791 0.2198 0.5870
vn 0.7792 0.2198 0.5870
vn 0.8190 0.2196 0.5300
vt 0.364553 0.103199
vt 0.290177 0.101933
vt 0.288588 0.195334
vt 0.362965 0.196599
vt 0.438929 0.104464
vt 0.437340 0.197864
vt 0.366142 0.009798
vt 0.291766 0.008533
s 1
f 8/1/1 6/2/2 1/3/3 4/4/4
f 7/5/5 8/1/1 4/4/4 3/6/5
f 5/7/6 2/8/6 6/2/2 8/1/1
f 16/1/7 14/2/8 9/3/9 12/4/10
f 15/5/11 16/1/7 12/4/10 11/6/11
f 13/7/12 10/8/12 14/2/8 16/1/7
f 24/1/13 22/2/14 17/3/15 20/4/16
f 23/5/17 24/1/13 20/4/16 19/6/17
f 21/7/18 18/8/18 22/2/14 24/1/13
f 32/1/19 30/2/20 25/3/21 28/4/22
f 31/5/23 32/1/19 28/4/22 27/6/23
f 29/7/24 26/8/24 30/2/20 32/1/19
f 40/1/25 38/2/26 33/3/27 36/4/28
f 39/5/29 40/1/25 36/4/28 35/6/29
f 37/7/30 34/8/30 38/2/26 40/1/25
f 48/1/31 46/2/32 41/3/33 44/4/34
f 47/5/35 48/1/31 44/4/34 43/6/35
f 45/7/36 42/8/36 46/2/32 48/1/31
f 56/1/37 54/2/38 49/3/39 52/4/40
f 55/5/41 56/1/37 52/4/40 51/6/41
f 53/7/42 50/8/42 54/2/38 56/1/37
f 64/1/43 62/2/44 57/3/45 60/4/46
f 63/5/47 64/1/43 60/4/46 59/6/47
f 61/7/48 58/8/48 62/2/44 64/1/43
f 72/1/49 70/2/50 65/3/51 68/4/52
f 71/5/53 72/1/49 68/4/52 67/6/53
f 69/7/54 66/8/54 70/2/50 72/1/49
f 80/1/55 78/2/56 73/3/57 76/4/57
f 79/5/57 80/1/55 76/4/57 75/6/57
f 77/7/58 74/8/58 78/2/56 80/1/55
f 88/1/59 86/2/60 81/3/61 84/4/62
f 87/5/63 88/1/59 84/4/62 83/6/63
f 85/7/64 82/8/64 86/2/60 88/1/59
f 96/1/65 94/2/66 89/3/67 92/4/68
f 95/5/69 96/1/65 92/4/68 91/6/69
f 93/7/70 90/8/70 94/2/66 96/1/65
f 104/1/71 102/2/72 97/3/73 100/4/74
f 103/5/75 104/1/71 100/4/74 99/6/75
f 101/7/76 98/8/76 102/2/72 104/1/71
f 112/1/77 110/2/78 105/3/79 108/4/80
f 111/5/81 112/1/77 108/4/80 107/6/81
f 109/7/82 106/8/82 110/2/78 112/1/77
f 120/1/83 118/2/84 113/3/85 116/4/86
f 119/5/87 120/1/83 116/4/86 115/6/87
f 117/7/88 114/8/88 118/2/84 120/1/83
f 128/1/89 126/2/90 121/3/91 124/4/92
f 127/5/93 128/1/89 124/4/92 123/6/93
f 125/7/94 122/8/94 126/2/90 128/1/89
f 136/1/95 134/2/96 129/3/97 132/4/98
f 135/5/99 136/1/95 132/4/98 131/6/99
f 133/7/100 130/8/100 134/2/96 136/1/95
f 144/1/101 142/2/102 137/3/103 140/4/104
f 143/5/105 144/1/101 140/4/104 139/6/105
f 141/7/106 138/8/106 142/2/102 144/1/101
f 152/1/107 150/2/108 145/3/109 148/4/110
f 151/5/111 152/1/107 148/4/110 147/6/111
f 149/7/112 146/8/112 150/2/108 152/1/107
f 160/1/113 158/2/114 153/3/115 156/4/116
f 159/5/116 160/1/113 156/4/116 155/6/116
f 157/7/117 154/8/117 158/2/114 160/1/113
f 168/1/118 166/2/119 161/3/120 164/4/121
f 167/5/122 168/1/118 164/4/121 163/6/122
f 165/7/123 162/8/123 166/2/119 168/1/118
f 176/1/124 174/2/125 169/3/126 172/4/127
f 175/5/127 176/1/124 172/4/127 171/6/127
f 173/7/128 170/8/128 174/2/125 176/1/124
f 184/1/129 182/2/130 177/3/131 180/4/131
f 183/5/131 184/1/129 180/4/131 179/6/131
f 181/7/132 178/8/132 182/2/130 184/1/129
f 192/1/133 190/2/134 185/3/135 188/4/136
f 191/5/137 192/1/133 188/4/136 187/6/137
f 189/7/138 186/8/138 190/2/134 192/1/133
f 200/1/139 198/2/140 193/3/141 196/4/142
f 199/5/143 200/1/139 196/4/142 195/6/143
f 197/7/144 194/8/144 198/2/140 200/1/139
