# Blender 4.5.3 LTS
# www.blender.org
mtllib Acantilado.mtl
o Acantilado_puente
v -254.435059 -14.228524 57.974480
v -9.934517 -19.206501 44.442017
v -215.277313 -0.595974 -97.049629
v -24.974564 0.000000 -100.531952
v -211.360687 -5.941122 -21.249210
v -137.993530 -12.540676 59.105782
v -21.557503 -1.668893 -25.931030
v -136.763351 0.000000 -110.851936
v -132.602020 -1.003247 -25.011488
v -68.927628 -16.579184 55.454308
v -71.563942 0.000000 -110.311295
v -73.708115 -0.167659 -26.237541
v -327.154724 5.388021 57.683411
v -280.145386 3.547686 -69.286865
v -316.939514 4.544716 -17.762314
v -205.530792 -23.940441 145.716187
v 27.203171 -33.483997 120.258713
v -129.870377 -27.184187 164.144119
v -52.688652 -35.703850 150.902725
v -305.241058 1.598684 152.491714
v -176.534790 -12.852800 245.711014
v 88.646240 -42.676517 194.244522
v -109.955338 -27.153719 256.198181
v -36.697502 -37.444962 264.692322
v -248.038300 -3.481279 218.168976
v 18.210312 -89.655457 35.202774
v -233.343765 -78.613991 -132.202606
v -6.064995 -78.331268 -136.361557
v -1.983994 -79.122993 -47.265591
v -139.574463 -78.331268 -148.686707
v -61.706734 -78.331268 -148.041016
v -366.990601 -79.876373 52.595222
v -310.815765 -80.152954 -99.045509
v -354.775085 -77.025421 -37.509689
v 56.486176 -101.487694 127.267609
v -340.787537 -87.545944 165.824875
v -187.073532 -92.404518 277.156738
v 129.632462 -108.570152 215.690292
v -107.557617 -99.025917 289.681641
v -20.057243 -105.652916 299.823975
v -272.470215 -89.975922 244.263260
v -269.038086 -0.963580 -23.710247
v -253.835510 2.270431 -83.296616
v -292.229187 -11.723186 57.518379
v -257.356110 -16.511751 149.172226
v -217.194138 -5.632210 236.813400
v -279.393860 -79.607849 -115.777374
v -235.633026 -90.605965 266.530334
v 76.179825 -42.135975 275.427979
v 115.008591 -42.667809 226.383469
v 114.752289 -108.313599 312.645630
v 141.429001 -108.565918 238.751205
v -6.927361 -34.528175 -41.877213
v 12.696564 -49.564037 37.137634
v -138.864166 -33.199440 -139.130890
v -64.196068 -33.199440 -138.511719
v -331.809296 -36.738205 162.457260
v -355.763123 -27.711475 53.880264
v 49.028748 -63.384346 125.513412
v 119.280914 -72.022774 210.273682
v -24.261993 -67.126846 290.951294
v -266.299194 -40.816399 237.672562
v -10.840675 -33.199440 -127.312187
v -345.175354 -28.246458 -32.522182
v -108.162918 -56.004841 281.224670
v -184.411469 -44.892269 269.214478
v -228.780441 -33.673939 -123.324135
v -303.069092 -36.017227 -91.529465
v -272.938293 -35.187222 -107.573814
v -230.975647 -41.873772 259.024658
v 134.987228 -72.015793 235.009598
v 105.008133 -71.592354 303.246094
v 8.634323 -26.345251 82.350372
v -60.808144 -27.597780 103.178513
v -133.931961 -19.684580 111.624939
v -229.982925 -14.473060 101.845337
v -322.037476 3.345643 107.415955
v 34.191772 -95.571571 82.024307
v -358.554016 -83.899788 111.707321
v -275.064453 -12.975054 103.345306
v 27.706177 -56.474194 82.114647
v -351.615295 -32.541412 112.359894
v -232.897873 -10.084823 18.362637
v -15.746010 -10.437697 9.255497
v -135.297775 -6.771961 17.047146
v -71.317871 -8.373422 14.608383
v -322.047119 5.045274 19.960545
v 7.587082 -84.389221 -5.242289
v -366.669739 -78.450905 6.490604
v -280.633636 -6.343383 16.904064
v -356.256104 -27.978968 9.626884
v 2.358521 -42.046104 -1.580673
v -39.431068 -17.892843 49.948158
v -48.269257 0.000000 -105.421623
v -47.632812 -0.918276 -26.084286
v -12.742737 -36.753712 135.580719
v 25.974365 -38.251961 229.468430
v -33.885864 -78.331268 -142.201294
v 95.594208 -42.401890 250.905746
v 128.090652 -108.439758 275.698425
v 119.997696 -71.804070 269.127869
v -37.518372 -33.199440 -132.911957
v -26.086906 -26.971518 92.764442
v -43.531944 -9.405560 11.931938
v -119.912857 -27.168953 210.171173
v -191.032791 -18.396620 195.713608
v -44.693085 -38.455070 207.797531
v 57.924713 -38.080257 157.251617
v -282.693542 -0.941297 188.590103
v 93.059311 -105.028923 171.478958
v -312.682739 -88.760941 208.303833
v -237.275116 -11.071981 192.992813
v -305.108093 -38.777306 203.324677
v 84.154831 -67.703560 167.893555
v 6.615814 -38.983719 182.524567
vn 0.0368 0.9963 0.0776
vn 0.4647 0.8842 0.0482
vn -0.0999 0.9077 -0.4075
vn 0.4829 0.8281 -0.2847
vn 0.0123 0.9959 0.0898
vn 0.0326 0.9912 0.1282
vn 0.5079 0.8601 0.0477
vn -0.0473 0.9036 -0.4258
vn -0.0165 0.9966 0.0809
vn 0.0695 0.9806 0.1835
vn 0.0458 0.9011 -0.4313
vn 0.0148 0.9954 0.0951
vn -0.2682 0.9624 0.0436
vn -0.2487 0.9074 -0.3387
vn -0.3324 0.9312 -0.1497
vn 0.0839 0.9963 0.0181
vn 0.4386 0.8891 -0.1307
vn 0.0984 0.9943 0.0405
vn 0.0882 0.9924 0.0855
vn -0.2665 0.9456 0.1867
vn 0.0690 0.9163 0.3945
vn 0.4532 0.8319 -0.3203
vn 0.0848 0.9097 0.4065
vn 0.0296 0.9096 0.4144
vn -0.1681 0.9338 0.3159
vn 0.9525 0.1462 -0.2672
vn -0.2557 0.2128 -0.9431
vn 0.7286 0.2084 -0.6525
vn 0.9848 0.1247 -0.1213
vn -0.0814 0.2079 -0.9748
vn 0.1069 0.2110 -0.9716
vn -0.9802 0.1880 0.0615
vn -0.6378 0.2305 -0.7349
vn -0.8786 0.2215 -0.4230
vn 0.8294 0.1365 -0.5417
vn -0.8771 0.1678 0.4500
vn -0.1671 0.1751 0.9703
vn 0.8255 0.1313 -0.5489
vn -0.1111 0.1916 0.9752
vn -0.0890 0.2119 0.9732
vn -0.5806 0.1777 0.7946
vn 0.1120 0.9888 0.0991
vn -0.1265 0.9158 -0.3813
vn 0.2435 0.9685 0.0521
vn 0.2139 0.9740 -0.0750
vn -0.0579 0.9185 0.3910
vn -0.4016 0.2222 -0.8884
vn -0.3596 0.1762 0.9163
vn 0.1649 0.8901 0.4250
vn 0.5871 0.8018 -0.1113
vn 0.5254 0.3167 0.7897
vn 0.9776 0.2059 -0.0430
vn 0.9506 0.2983 -0.0856
vn 0.9067 0.3657 -0.2101
vn -0.0756 0.4374 -0.8961
vn 0.0975 0.4414 -0.8920
vn -0.8154 0.3864 0.4311
vn -0.8918 0.4502 0.0449
vn 0.8112 0.3083 -0.4969
vn 0.7790 0.2699 -0.5659
vn -0.0623 0.4411 0.8953
vn -0.5360 0.3805 0.7536
vn 0.6939 0.4102 -0.5919
vn -0.7963 0.4680 -0.3834
vn -0.0618 0.4294 0.9010
vn -0.1178 0.4026 0.9078
vn -0.2312 0.4375 -0.8690
vn -0.5852 0.4301 -0.6874
vn -0.3653 0.4318 -0.8247
vn -0.3221 0.3841 0.8653
vn 0.9145 0.4004 -0.0571
vn 0.4281 0.5204 0.7389
vn 0.4744 0.8795 -0.0371
vn 0.0884 0.9814 0.1704
vn 0.0649 0.9882 0.1388
vn 0.0475 0.9955 0.0820
vn -0.2828 0.9536 0.1034
vn 0.9183 0.1520 -0.3654
vn -0.9584 0.1625 0.2347
vn 0.2129 0.9769 -0.0156
vn 0.8786 0.3569 -0.3173
vn -0.8866 0.4010 0.2304
vn 0.0218 0.9913 0.1297
vn 0.5186 0.8504 0.0893
vn -0.0012 0.9904 0.1385
vn 0.0431 0.9819 0.1844
vn -0.2478 0.9687 0.0167
vn 0.9663 0.1380 -0.2174
vn -0.9698 0.2103 -0.1236
vn 0.1661 0.9772 0.1319
vn -0.8772 0.4661 -0.1153
vn 0.9308 0.3364 -0.1432
vn 0.0638 0.9777 0.2002
vn 0.0927 0.9124 -0.3986
vn 0.0283 0.9932 0.1129
vn 0.0285 0.9918 0.1249
vn 0.0321 0.9994 0.0132
vn 0.2007 0.2130 -0.9562
vn 0.3490 0.9173 0.1915
vn 0.8965 0.2634 0.3561
vn 0.7795 0.5084 0.3659
vn 0.1834 0.4504 -0.8738
vn 0.0498 0.9807 0.1888
vn 0.0562 0.9756 0.2121
vn 0.1443 0.9880 -0.0546
vn 0.1496 0.9797 -0.1332
vn 0.0766 0.9970 -0.0060
vn 0.4370 0.8499 -0.2945
vn -0.2433 0.9338 0.2623
vn 0.7698 0.1237 -0.6262
vn -0.7406 0.1795 0.6475
vn 0.1996 0.9626 -0.1834
vn -0.6896 0.3823 0.6151
vn 0.7527 0.2858 -0.5931
vn 0.0187 0.9993 0.0319
vt 0.617758 0.673169
vt 0.656708 0.664165
vt 0.671415 0.763673
vt 0.645591 0.779818
vt 0.382526 0.741875
vt 0.495504 0.708414
vt 0.530621 0.830886
vt 0.412284 0.851247
vt 0.332933 0.697377
vt 0.470721 0.648906
vt 0.609915 0.612351
vt 0.655792 0.605814
vt 0.566096 0.620439
vt 0.580435 0.683547
vt 0.617794 0.797241
vt 0.304316 0.773759
vt 0.351641 0.848143
vt 0.309679 0.840462
vt 0.237355 0.789818
vt 0.268646 0.723854
vt 0.209567 0.743306
vt 0.595063 0.468922
vt 0.533691 0.474607
vt 0.513663 0.395338
vt 0.586172 0.389398
vt 0.419465 0.510138
vt 0.390568 0.431204
vt 0.230367 0.605104
vt 0.161772 0.627562
vt 0.158914 0.558609
vt 0.227976 0.534396
vt 0.291761 0.581481
vt 0.298789 0.506603
vt 0.371035 0.358458
vt 0.284226 0.430775
vt 0.264632 0.355359
vt 0.348008 0.284407
vt 0.483015 0.304643
vt 0.450943 0.213412
vt 0.578696 0.303081
vt 0.569195 0.221254
vt 0.225017 0.465103
vt 0.167692 0.498614
vt 0.193321 0.439528
vt 0.220694 0.397123
vt 0.721303 0.605989
vt 0.798009 0.600778
vt 0.796572 0.681501
vt 0.717567 0.677581
vt 0.655639 0.849345
vt 0.703152 0.911445
vt 0.574124 0.974021
vt 0.549640 0.895913
vt 0.093811 0.639969
vt 0.005374 0.652769
vt 0.000089 0.546941
vt 0.088007 0.556805
vt 0.731379 0.252031
vt 0.797829 0.229405
vt 0.798010 0.336859
vt 0.726709 0.351815
vt 0.642307 0.144661
vt 0.681047 0.157444
vt 0.681724 0.216249
vt 0.101272 0.482579
vt 0.019918 0.455392
vt 0.061154 0.366392
vt 0.132941 0.409617
vt 0.777349 0.836312
vt 0.716084 0.797888
vt 0.152850 0.788031
vt 0.080193 0.839791
vt 0.036841 0.762199
vt 0.124677 0.725337
vt 0.223595 0.306819
vt 0.172977 0.243131
vt 0.288267 0.157499
vt 0.322961 0.225297
vt 0.403603 0.999911
vt 0.406072 0.920395
vt 0.279346 0.908330
vt 0.250771 0.977600
vt 0.138129 0.902874
vt 0.193841 0.840219
vt 0.423191 0.077520
vt 0.443123 0.143490
vt 0.722587 0.443806
vt 0.795419 0.431215
vt 0.796483 0.523223
vt 0.722542 0.533038
vt 0.168849 0.358232
vt 0.107501 0.303787
vt 0.331510 0.918560
vt 0.313669 0.993887
vt 0.687728 0.824455
vt 0.742719 0.877379
vt 0.667155 0.088386
vt 0.697690 0.030979
vt 0.755447 0.077392
vt 0.710987 0.121718
vt 0.620227 0.062043
vt 0.602772 0.128322
vt 0.726825 0.161914
vt 0.781090 0.121690
vt 0.630452 0.000089
vt 0.659615 0.463275
vt 0.652014 0.541348
vt 0.182865 0.695751
vt 0.675509 0.296500
vt 0.663628 0.383780
vt 0.283061 0.654197
vt 0.233202 0.674738
vt 0.444308 0.589106
vt 0.549383 0.555251
vt 0.599250 0.547544
s 1
f 95/1/95 7/2/7 4/3/4 94/4/94
f 5/5/5 9/6/9 8/7/8 3/8/3
f 83/9/83 85/10/85 9/6/9 5/5/5
f 104/11/104 84/12/84 7/2/7 95/1/95
f 85/10/85 86/13/86 12/14/12 9/6/9
f 9/6/9 12/14/12 11/15/11 8/7/8
f 42/16/42 43/17/43 14/18/14 15/19/15
f 90/20/90 42/16/42 15/19/15 87/21/87
f 103/22/103 74/23/74 19/24/19 96/25/96
f 74/23/74 75/26/75 18/27/18 19/24/19
f 80/28/80 77/29/77 20/30/20 45/31/45
f 75/26/75 76/32/76 16/33/16 18/27/18
f 105/34/105 106/35/106 21/36/21 23/37/23
f 107/38/107 105/34/105 23/37/23 24/39/24
f 115/40/115 107/38/107 24/39/24 97/41/97
f 112/42/112 109/43/109 25/44/25 46/45/46
f 92/46/92 88/47/88 29/48/29 53/49/53
f 56/50/56 31/51/31 30/52/30 55/53/55
f 82/54/82 79/55/79 36/56/36 57/57/57
f 114/58/114 110/59/110 35/60/35 59/61/59
f 97/41/97 99/62/99 50/63/50 22/64/22
f 113/65/113 111/66/111 41/67/41 62/68/62
f 53/49/53 29/48/29 28/69/28 63/70/63
f 91/71/91 89/72/89 32/73/32 58/74/58
f 66/75/66 37/76/37 39/77/39 65/78/65
f 55/53/55 30/52/30 27/79/27 67/80/67
f 68/81/68 33/82/33 34/83/34 64/84/64
f 65/78/65 39/77/39 40/85/40 61/86/61
f 81/87/81 78/88/78 26/89/26 54/90/54
f 70/91/70 48/92/48 37/76/37 66/75/66
f 69/93/69 47/94/47 33/82/33 68/81/68
f 102/95/102 98/96/98 31/51/31 56/50/56
f 67/80/67 27/79/27 47/94/47 69/93/69
f 62/68/62 41/67/41 48/92/48 70/91/70
f 106/35/106 112/42/112 46/45/46 21/36/21
f 76/32/76 80/28/80 45/31/45 16/33/16
f 83/9/83 5/5/5 42/16/42 90/20/90
f 5/5/5 3/8/3 43/17/43 42/16/42
f 101/97/101 100/98/100 52/99/52 71/100/71
f 61/86/61 72/101/72 49/102/49 24/39/24
f 60/103/60 71/100/71 52/99/52 38/104/38
f 22/64/22 50/63/50 71/100/71 60/103/60
f 40/85/40 51/105/51 72/101/72 61/86/61
f 99/62/99 101/97/101 71/100/71 50/63/50
f 25/44/25 62/68/62 70/91/70 46/45/46
f 3/8/3 67/80/67 69/93/69 43/17/43
f 94/4/94 102/95/102 56/50/56 11/15/11
f 43/17/43 69/93/69 68/81/68 14/18/14
f 46/45/46 70/91/70 66/75/66 21/36/21
f 73/106/73 81/87/81 54/90/54 2/107/2
f 23/37/23 65/78/65 61/86/61 24/39/24
f 14/18/14 68/81/68 64/84/64 15/19/15
f 8/7/8 55/53/55 67/80/67 3/8/3
f 21/36/21 66/75/66 65/78/65 23/37/23
f 87/21/87 91/71/91 58/74/58 13/108/13
f 7/2/7 53/49/53 63/70/63 4/3/4
f 109/43/109 113/65/113 62/68/62 25/44/25
f 108/109/108 114/58/114 59/61/59 17/110/17
f 77/29/77 82/54/82 57/57/57 20/30/20
f 11/15/11 56/50/56 55/53/55 8/7/8
f 84/12/84 92/46/92 53/49/53 7/2/7
f 13/108/13 58/74/58 82/54/82 77/29/77
f 17/110/17 59/61/59 81/87/81 73/106/73
f 1/111/1 44/112/44 80/28/80 76/32/76
f 59/61/59 35/60/35 78/88/78 81/87/81
f 58/74/58 32/73/32 79/55/79 82/54/82
f 6/113/6 1/111/1 76/32/76 75/26/75
f 44/112/44 13/108/13 77/29/77 80/28/80
f 10/114/10 6/113/6 75/26/75 74/23/74
f 93/115/93 10/114/10 74/23/74 103/22/103
f 2/107/2 54/90/54 92/46/92 84/12/84
f 15/19/15 64/84/64 91/71/91 87/21/87
f 1/111/1 83/9/83 90/20/90 44/112/44
f 64/84/64 34/83/34 89/72/89 91/71/91
f 54/90/54 26/89/26 88/47/88 92/46/92
f 44/112/44 90/20/90 87/21/87 13/108/13
f 6/113/6 10/114/10 86/13/86 85/10/85
f 93/115/93 2/107/2 84/12/84 104/11/104
f 1/111/1 6/113/6 85/10/85 83/9/83
f 10/114/10 93/115/93 104/11/104 86/13/86
f 2/107/2 93/115/93 103/22/103 73/106/73
f 4/3/4 63/70/63 102/95/102 94/4/94
f 49/102/49 72/101/72 101/97/101 99/62/99
f 72/101/72 51/105/51 100/98/100 101/97/101
f 63/70/63 28/69/28 98/96/98 102/95/102
f 24/39/24 49/102/49 99/62/99 97/41/97
f 108/109/108 115/40/115 97/41/97 22/64/22
f 73/106/73 103/22/103 96/25/96 17/110/17
f 86/13/86 104/11/104 95/1/95 12/14/12
f 12/14/12 95/1/95 94/4/94 11/15/11
f 17/110/17 96/25/96 115/40/115 108/109/108
f 22/64/22 60/103/60 114/58/114 108/109/108
f 20/30/20 57/57/57 113/65/113 109/43/109
f 16/33/16 45/31/45 112/42/112 106/35/106
f 57/57/57 36/56/36 111/66/111 113/65/113
f 60/103/60 38/104/38 110/59/110 114/58/114
f 45/31/45 20/30/20 109/43/109 112/42/112
f 96/25/96 19/24/19 107/38/107 115/40/115
f 19/24/19 18/27/18 105/34/105 107/38/107
f 18/27/18 16/33/16 106/35/106 105/34/105
