# Blender 4.5.3 LTS
# www.blender.org
o entrada_Mina
v -128.418167 191.724777 -563.881165
v -126.668434 183.487259 -559.540466
v -128.433838 191.798553 -553.734314
v -126.668434 183.487259 -553.734314
v -127.323982 186.573502 -565.122925
v -126.668434 183.487259 -562.344604
v -115.859367 132.599564 -578.743103
v -115.859367 132.599564 -574.756287
v -124.331146 192.592911 -563.881165
v -122.581413 184.355377 -559.540466
v -124.346817 192.666687 -553.734314
v -122.581413 184.355377 -553.734314
v -123.236961 187.441635 -565.122925
v -122.581406 184.355377 -562.344604
v -111.772346 133.467697 -578.743103
v -111.772346 133.467697 -574.756287
v -128.418167 191.724777 -543.587463
v -126.668434 183.487259 -547.928162
v -127.323990 186.573502 -542.345703
v -126.668442 183.487259 -545.124023
v -115.859383 132.599564 -528.725525
v -115.859375 132.599564 -532.712341
v -124.331146 192.592896 -543.587463
v -122.581413 184.355377 -547.928162
v -123.236969 187.441620 -542.345703
v -122.581413 184.355377 -545.124023
v -111.772354 133.467682 -528.725525
v -111.772354 133.467682 -532.712341
v -112.972839 127.817459 -583.066895
v -112.972839 127.817459 -590.607117
v -129.917953 206.201035 -583.066895
v -130.450668 208.665222 -590.607117
v -112.972839 127.817459 -585.580261
v -112.972839 127.817459 -588.093689
v -130.585403 209.288422 -588.093689
v -129.917953 206.201035 -585.580261
v -125.676743 207.117905 -583.066895
v -108.731628 128.734329 -583.066895
v -108.731628 128.734329 -588.093689
v -108.731628 128.734329 -590.607117
v -126.209457 209.582108 -590.607117
v -125.676743 207.117920 -585.580261
v -108.731628 128.734329 -585.580261
v -126.344177 210.205307 -588.093689
v -113.414238 128.221710 -516.959534
v -113.414238 128.221710 -524.499756
v -122.790886 173.749939 -516.959534
v -123.085663 175.181244 -524.499756
v -113.414230 128.221710 -519.472900
v -113.414230 128.221710 -521.986328
v -123.160217 175.543213 -521.986328
v -122.790886 173.749939 -519.472900
v -118.540894 174.625229 -516.959534
v -109.164246 129.097000 -516.959534
v -109.164246 129.097000 -521.986328
v -109.164246 129.097000 -524.499756
v -118.835678 176.056534 -524.499756
v -118.540894 174.625229 -519.472900
v -109.164246 129.097000 -519.472900
v -118.910225 176.418518 -521.986328
v -132.156357 216.555237 -524.499756
v -132.156357 216.555237 -516.959534
v -124.962349 183.277725 -524.499756
v -124.736191 182.231567 -516.959473
v -132.156357 216.555237 -521.986328
v -132.156357 216.555237 -519.472961
v -124.678993 181.966980 -519.472900
v -124.962349 183.277725 -521.986328
v -120.721130 184.194595 -524.499756
v -127.915131 217.472107 -524.499756
v -127.915138 217.472107 -519.472961
v -127.915138 217.472107 -516.959534
v -120.494972 183.148438 -516.959473
v -120.721130 184.194595 -521.986328
v -127.915138 217.472122 -521.986328
v -120.437775 182.883850 -519.472900
v -127.820251 202.720291 -508.049896
v -126.580109 197.162537 -507.711151
v -127.860817 202.902130 -611.593384
v -126.580109 197.162537 -614.154968
v -127.484673 201.216370 -507.711151
v -126.818451 198.230682 -507.711151
v -126.894714 198.572464 -614.083618
v -127.492317 201.250656 -611.593384
v -126.893364 198.566391 -509.421814
v -127.259804 200.208633 -611.357544
v -127.360123 200.658234 -608.768250
v -127.002747 199.056595 -508.151520
v -122.042862 204.200317 -611.593384
v -122.002289 204.018478 -508.049896
v -121.000496 199.528885 -507.711151
v -120.762154 198.460724 -507.711151
v -120.762154 198.460739 -614.154968
v -121.674362 202.548859 -611.593384
v -121.666710 202.514572 -507.711151
v -121.075409 199.864594 -509.421814
v -121.076759 199.870667 -614.083618
v -121.542168 201.956436 -608.768250
v -121.184784 200.354782 -508.151520
v -121.441849 201.506836 -611.357544
v -127.383377 191.754333 -550.193054
v -127.383377 191.754333 -557.060181
v -128.059937 194.735428 -550.193054
v -128.059937 194.735428 -557.060181
v -171.629074 181.712646 -550.193054
v -171.629074 181.712646 -557.060181
v -172.305634 184.693741 -550.193054
v -172.305634 184.693741 -557.060181
v -127.383377 191.754333 -557.600098
v -127.383377 191.754333 -564.467224
v -128.059937 194.735428 -557.600098
v -128.059937 194.735428 -564.467224
v -171.629074 181.712646 -557.600098
v -171.629074 181.712646 -564.467224
v -172.305634 184.693741 -557.600098
v -172.305634 184.693741 -564.467224
v -127.383377 191.754333 -549.653076
v -127.383377 191.754333 -542.785950
v -128.059937 194.735428 -549.653076
v -128.059937 194.735428 -542.785950
v -171.629074 181.712646 -549.653076
v -171.629059 181.712646 -542.785950
v -172.305634 184.693741 -549.653076
v -172.305634 184.693741 -542.785950
v -127.863968 193.464676 -564.172485
v -125.193588 181.846924 -566.887573
v -127.882942 194.156174 -567.150085
v -125.212570 182.538422 -569.865173
v -172.138489 183.749374 -566.146545
v -169.468109 172.131622 -568.861572
v -172.157455 184.440872 -569.124146
v -169.487091 172.823120 -571.839172
v -127.863960 193.464676 -543.080688
v -125.193588 181.846924 -540.365662
v -127.882942 194.156174 -540.103088
v -125.212570 182.538422 -537.388062
v -172.138489 183.749374 -541.106689
v -169.468109 172.131622 -538.391602
v -172.157471 184.440872 -538.129089
v -169.487091 172.823120 -535.414001
v -125.116447 181.161438 -566.899475
v -122.446075 169.543701 -569.614563
v -125.135429 181.852936 -569.877075
v -122.465057 170.235199 -572.592163
v -169.390961 171.446136 -568.873535
v -166.720581 159.828400 -571.588562
v -169.409943 172.137634 -571.851135
v -166.739578 160.519897 -574.566162
v -125.116447 181.161438 -540.353699
v -122.446075 169.543701 -537.638672
v -125.135422 181.852936 -537.376099
v -122.465057 170.235199 -534.661072
v -169.390961 171.446136 -538.379700
v -166.720581 159.828400 -535.664612
v -169.409943 172.137634 -535.402100
v -166.739563 160.519897 -532.687012
v -121.620064 169.225800 -570.106323
v -118.949692 157.608047 -572.821350
v -121.639038 169.917297 -573.083862
v -118.968666 158.299545 -575.798950
v -165.894577 159.510498 -572.080322
v -163.224213 147.892746 -574.795349
v -165.913559 160.201996 -575.057922
v -163.243179 148.584244 -577.772949
v -121.620064 169.225800 -537.146912
v -118.949684 157.608047 -534.431885
v -121.639038 169.917297 -534.169312
v -118.968666 158.299545 -531.454285
v -165.894577 159.510498 -535.172913
v -163.224213 147.892746 -532.457825
v -165.913559 160.201996 -532.195312
v -163.243179 148.584244 -529.480225
v -118.796989 156.701019 -573.036743
v -116.126617 145.083267 -575.751770
v -118.815971 157.392517 -576.014343
v -116.145599 145.774765 -578.729370
v -163.071503 146.985718 -575.010742
v -160.401138 135.367966 -577.725830
v -163.090485 147.677216 -577.988342
v -160.420120 136.059464 -580.703430
v -118.796989 156.701019 -534.216492
v -116.126617 145.083267 -531.501404
v -118.815964 157.392517 -531.238892
v -116.145592 145.774765 -528.523804
v -163.071503 146.985718 -532.242432
v -160.401138 135.367966 -529.527405
v -163.090485 147.677216 -529.264832
v -160.420105 136.059464 -526.549805
v -115.710739 144.386826 -576.392700
v -113.040367 132.769073 -579.107788
v -115.729713 145.078323 -579.370300
v -113.059341 133.460571 -582.085327
v -159.985260 134.671539 -578.366760
v -157.314880 123.053780 -581.081787
v -160.004227 135.363037 -581.344360
v -157.333862 123.745277 -584.059387
v -115.710739 144.386826 -530.860535
v -113.040359 132.769089 -528.145447
v -115.729713 145.078323 -527.882935
v -113.059341 133.460587 -525.167847
v -159.985260 134.671539 -528.886475
v -157.314880 123.053780 -526.171448
v -160.004227 135.363022 -525.908875
v -157.333862 123.745285 -523.193848
v -122.666962 199.887695 -586.123169
v -122.666962 199.887695 -588.341797
v -123.150131 202.053055 -586.123169
v -123.150131 202.053055 -588.341797
v -122.908546 200.970367 -585.663696
v -122.566895 199.439240 -587.232483
v -122.908546 200.970367 -588.801270
v -123.250198 202.501511 -587.232483
v -118.771942 201.893402 -585.663696
v -118.530350 200.810715 -586.123169
v -118.430283 200.362259 -587.232483
v -118.530350 200.810715 -588.341797
v -118.771942 201.893402 -588.801270
v -119.013519 202.976074 -588.341797
v -119.113586 203.424530 -587.232483
v -119.013519 202.976074 -586.123169
v -118.771942 201.893402 -587.232483
v -122.666962 199.887695 -520.019592
v -122.666962 199.887695 -522.238159
v -123.150131 202.053055 -520.019592
v -123.150131 202.053055 -522.238159
v -122.908546 200.970367 -519.560059
v -122.566895 199.439240 -521.128906
v -122.908546 200.970367 -522.697693
v -123.250198 202.501511 -521.128906
v -118.771942 201.893402 -519.560059
v -118.530350 200.810715 -520.019592
v -118.430283 200.362259 -521.128906
v -118.530350 200.810715 -522.238159
v -118.771942 201.893402 -522.697693
v -119.013519 202.976074 -522.238159
v -119.113586 203.424530 -521.128906
v -119.013519 202.976074 -520.019592
v -118.771942 201.893402 -521.128906
vn -0.9782 -0.2078 -0.0000
vn 0.9782 0.2078 -0.0000
vn -0.0498 0.2344 -0.9709
vn -0.0487 0.2295 -0.9721
vn 0.2078 -0.9782 -0.0000
vn -0.2078 0.9781 -0.0074
vn 0.0482 -0.2270 0.9727
vn -0.0477 0.2245 -0.9733
vn -0.0498 0.2344 0.9709
vn -0.0487 0.2295 0.9721
vn -0.2078 0.9781 0.0074
vn 0.0482 -0.2270 -0.9727
vn -0.0477 0.2245 0.9733
vn -0.9774 -0.2113 -0.0000
vn 0.9774 0.2113 -0.0000
vn -0.2048 0.9474 -0.2459
vn -0.0000 -0.0000 -1.0000
vn -0.0000 -0.0000 1.0000
vn -0.1316 0.6086 0.7825
vn -0.2113 0.9774 -0.0000
vn -0.9794 -0.2017 -0.0000
vn 0.9794 0.2017 -0.0000
vn -0.1996 0.9690 -0.1455
vn -0.1630 0.7917 0.5888
vn -0.2017 0.9794 -0.0000
vn 0.2101 -0.9718 0.1071
vn 0.1864 -0.8624 -0.4707
vn 0.2113 -0.9774 -0.0000
vn -0.9760 -0.2178 -0.0000
vn 0.9760 0.2178 -0.0000
vn 0.2178 -0.9760 -0.0000
vn -0.0107 0.0482 -0.9988
vn -0.2144 0.9609 -0.1752
vn 0.2025 -0.9076 0.3677
vn -0.2178 0.9760 0.0018
vn 0.2129 -0.9542 -0.2101
vn 0.0425 -0.1905 0.9808
vn -0.0468 0.2096 0.9767
vn -0.1855 0.8314 -0.5238
vn -0.2135 0.9568 0.1971
vn 0.9752 0.2213 -0.0000
vn -0.9752 -0.2213 -0.0000
vn -0.2213 0.9752 -0.0000
vn 0.2213 -0.9752 -0.0000
vn 0.9758 0.2141 0.0435
vn -0.9758 -0.2141 -0.0435
vn 0.2184 -0.9503 -0.2221
vn -0.2184 0.9503 0.2221
vn -0.0062 0.2262 -0.9741
vn 0.0062 -0.2262 0.9741
vn 0.9758 0.2141 -0.0435
vn -0.9758 -0.2141 0.0435
vn 0.2184 -0.9503 0.2221
vn -0.2184 0.9503 -0.2221
vn -0.0062 0.2262 0.9741
vn 0.0062 -0.2262 -0.9741
vn -0.0833 0.3735 0.9239
vn -0.0833 0.3735 -0.9239
vn 0.0833 -0.3735 0.9239
vn -0.2012 0.9017 -0.3827
vn 0.2012 -0.9017 0.3827
vn -0.2012 0.9017 0.3827
vn 0.2012 -0.9017 -0.3827
vn 0.0833 -0.3735 -0.9239
vn 0.2017 -0.9794 -0.0000
vt 0.098126 0.378838
vt 0.007882 0.400722
vt 0.035640 0.511697
vt 0.113551 0.442450
vt 0.094872 0.511738
vt 0.121001 0.473173
vt 0.717106 0.518848
vt 0.706514 0.475169
vt 0.098126 0.378838
vt 0.113551 0.442450
vt 0.121001 0.473173
vt 0.094872 0.511738
vt 0.132614 0.416130
vt 0.754632 0.409518
vt 0.755133 0.456618
vt 0.133115 0.463231
vt 0.587605 0.547529
vt 0.613949 0.547529
vt 0.613949 0.585582
vt 0.587605 0.585582
vt 0.628212 0.547671
vt 0.532887 0.547497
vt 0.532887 0.585550
vt 0.628212 0.585724
vt 0.533058 0.547529
vt 0.533058 0.585582
vt 0.719065 0.409896
vt 0.719565 0.456997
vt 0.813997 0.408887
vt 0.814498 0.455988
vt 0.098126 0.378838
vt 0.113551 0.442450
vt 0.007882 0.400722
vt 0.121001 0.473173
vt 0.094872 0.511738
vt 0.706514 0.475169
vt 0.098126 0.378838
vt 0.007882 0.400722
vt 0.035641 0.511697
vt 0.113551 0.442450
vt 0.094872 0.511738
vt 0.755133 0.456619
vt 0.754632 0.409518
vt 0.478512 0.547529
vt 0.478512 0.585582
vt 0.452168 0.585582
vt 0.452168 0.547529
vt 0.437561 0.547671
vt 0.437561 0.585724
vt 0.719065 0.409896
vt 0.719566 0.456997
vt 0.813997 0.408887
vt 0.891335 0.244469
vt 0.891335 0.982301
vt 0.914003 0.976731
vt 0.914003 0.244469
vt 0.845998 0.244469
vt 0.845998 0.954709
vt 0.868666 0.954828
vt 0.868666 0.244469
vt 0.914003 0.629383
vt 0.891335 0.627952
vt 0.891335 0.665855
vt 0.914003 0.667287
vt 0.964221 0.241459
vt 0.968754 0.993193
vt 0.929620 0.993429
vt 0.925087 0.241695
vt 0.968582 0.964705
vt 0.929448 0.964941
vt 0.868666 0.635043
vt 0.845998 0.635043
vt 0.845998 0.672946
vt 0.868666 0.672946
vt -0.002205 0.661009
vt 0.626626 0.661009
vt 0.621679 0.628047
vt -0.002205 0.628047
vt -0.002205 0.726935
vt 0.603166 0.726935
vt 0.603252 0.693972
vt -0.002205 0.693972
vt 0.256148 0.558119
vt 0.232536 0.558119
vt 0.232536 0.598712
vt 0.256149 0.598712
vt 0.928092 0.836857
vt 0.925142 0.404457
vt 0.964276 0.404191
vt 0.967226 0.836590
vt 0.208923 0.561732
vt 0.208923 0.601847
vt 0.185311 0.561732
vt 0.185311 0.601847
vt 0.154888 0.660817
vt 0.626626 0.660817
vt 0.621679 0.627854
vt 0.154888 0.627854
vt 0.154888 0.726743
vt 0.603166 0.726742
vt 0.603252 0.693780
vt 0.154888 0.693780
vt 0.154888 0.659718
vt 0.154888 0.626755
vt 0.154888 0.725643
vt 0.154888 0.692681
vt 0.185310 0.561732
vt 0.208923 0.561732
vt 0.208923 0.601847
vt 0.185310 0.601847
vt 0.525033 0.628046
vt 0.525033 0.661009
vt 0.580285 0.661009
vt 0.580285 0.628046
vt 0.925116 0.404568
vt 0.964248 0.404184
vt 0.925116 0.404568
vt 0.232536 0.558119
vt 0.232536 0.598712
vt 0.525033 0.693972
vt 0.580285 0.693972
vt 0.256148 0.598712
vt 0.525033 0.726934
vt 0.580285 0.726934
vt 0.004110 0.127337
vt 0.996776 0.130518
vt 0.997442 0.117396
vt 0.004110 0.117396
vt 0.007271 0.169120
vt 0.973537 0.170813
vt 0.973537 0.155443
vt 0.004110 0.155124
vt 0.020074 0.130462
vt 0.971337 0.145745
vt 0.008219 0.135024
vt 0.947173 0.149930
vt 0.004110 0.127337
vt 0.007271 0.169120
vt 0.020074 0.130462
vt 0.026566 0.178146
vt 1.002840 0.178146
vt 1.002840 0.232292
vt 0.026566 0.232292
vt 0.000425 0.178233
vt 0.026759 0.178233
vt 0.026665 0.232315
vt 0.000425 0.232315
vt 1.002840 0.177700
vt 0.053167 0.178146
vt 0.053167 0.232292
vt 1.002840 0.231845
vt 0.605908 0.949427
vt 0.796041 0.947402
vt 0.796306 0.996323
vt 0.606212 0.998357
vt 0.015789 0.173716
vt 1.002997 0.170859
vt 0.999299 0.236784
vt 0.015977 0.240351
vt 0.001665 0.903420
vt 0.604003 0.903420
vt 0.604003 0.997804
vt 0.001665 0.997804
vt 0.001665 0.903421
vt 0.604003 0.903421
vt 0.001664 0.903421
vt 0.001669 0.736793
vt 0.624661 0.734651
vt 0.624661 0.898477
vt 0.001669 0.900619
vt 0.624661 0.898476
vt 0.001669 0.736794
vt 0.624661 0.734651
vt 0.624661 0.898477
vt 0.001669 0.900619
vt 0.001669 0.736794
vt 0.001669 0.736793
vt 0.624661 0.898478
vt 0.073401 0.544037
vt 0.050355 0.545650
vt 0.056081 0.528444
vt 0.072572 0.520538
vt 0.096504 0.544023
vt 0.089579 0.527263
vt 0.090907 0.561528
vt 0.074114 0.564274
vt 0.058683 0.561591
vt 0.124766 0.607603
vt 0.107806 0.607580
vt 0.107867 0.561551
vt 0.124827 0.561573
vt 0.041723 0.607621
vt 0.024763 0.607621
vt 0.024763 0.561591
vt 0.041723 0.561591
vt 0.090846 0.607558
vt 0.007803 0.607621
vt 0.007803 0.561591
vt 0.075643 0.607621
vt 0.141726 0.607626
vt 0.141787 0.561596
vt 0.058683 0.607621
vt 0.651346 0.902245
vt 0.651346 0.947891
vt 0.606417 0.947891
vt 0.606417 0.902245
vt 0.606417 0.902245
vt 0.868666 0.815054
vt 0.868666 0.852957
vt 0.845998 0.852957
vt 0.845998 0.815054
vt 0.891335 0.815054
vt 0.891335 0.852957
vt 0.914003 0.815054
vt 0.914003 0.852957
vt 0.525033 0.628047
vt 0.580285 0.628047
vt 0.580285 0.661009
vt 0.580285 0.726935
vt 0.525033 0.726935
s 1
f 4/1/1 3/2/1 1/3/1 2/4/1
f 1/3/1 5/5/1 6/6/1 2/4/1
f 5/5/1 7/7/1 8/8/1 6/6/1
f 12/9/2 10/10/2 9/3/2 11/2/2
f 9/3/2 10/10/2 14/11/2 13/12/2
f 13/12/2 14/11/2 16/8/2 15/7/2
f 7/13/3 5/14/4 13/15/4 15/16/3
f 2/17/5 6/18/5 14/19/5 10/20/5
f 1/21/6 3/22/6 11/23/6 9/24/6
f 4/25/5 2/17/5 10/20/5 12/26/5
f 6/27/7 8/13/7 16/16/7 14/28/7
f 5/14/4 1/29/8 9/30/8 13/15/4
f 4/31/1 18/32/1 17/3/1 3/33/1
f 17/3/1 18/32/1 20/34/1 19/35/1
f 19/35/1 20/34/1 22/36/1 21/7/1
f 12/37/2 11/38/2 23/39/2 24/40/2
f 23/39/2 25/41/2 26/34/2 24/40/2
f 25/41/2 27/7/2 28/8/2 26/34/2
f 21/13/9 27/16/9 25/42/10 19/43/10
f 18/44/5 24/45/5 26/46/5 20/47/5
f 17/48/11 23/49/11 11/23/11 3/22/11
f 4/25/5 12/26/5 24/45/5 18/44/5
f 20/50/12 26/51/12 28/16/12 22/13/12
f 19/43/10 25/42/10 23/30/13 17/52/13
f 34/53/14 35/54/14 32/55/14 30/56/14
f 29/57/14 31/58/14 36/59/14 33/60/14
f 33/60/14 36/59/14 35/54/14 34/53/14
f 39/53/15 40/56/15 41/55/15 44/54/15
f 38/57/15 43/60/15 42/59/15 37/58/15
f 43/60/15 39/53/15 44/54/15 42/59/15
f 32/61/16 35/62/16 44/63/16 41/64/16
f 30/65/17 32/66/17 41/67/17 40/68/17
f 31/69/18 29/65/18 38/68/18 37/70/18
f 35/66/19 36/69/19 42/70/19 44/67/19
f 36/71/20 31/72/20 37/73/20 42/74/20
f 50/75/21 51/76/21 48/77/21 46/78/21
f 45/79/21 47/80/21 52/81/21 49/82/21
f 49/82/21 52/81/21 51/76/21 50/75/21
f 55/75/22 56/78/22 57/77/22 60/76/22
f 54/79/22 59/82/22 58/81/22 53/80/22
f 59/82/22 55/75/22 60/76/22 58/81/22
f 48/83/23 51/84/23 60/85/23 57/86/23
f 46/87/17 48/88/17 57/89/17 56/90/17
f 47/88/18 45/87/18 54/90/18 53/89/18
f 51/84/24 52/91/24 58/92/24 60/85/24
f 52/91/25 47/93/25 53/94/25 58/92/25
f 66/95/14 67/96/14 64/97/14 62/98/14
f 61/99/14 63/100/14 68/101/14 65/102/14
f 65/102/14 68/101/14 67/96/14 66/95/14
f 71/103/15 72/104/15 73/97/15 76/96/15
f 70/105/15 75/106/15 74/101/15 69/100/15
f 75/106/15 71/103/15 76/96/15 74/101/15
f 64/107/26 67/108/26 76/109/26 73/110/26
f 61/111/20 65/112/20 75/113/20 70/114/20
f 62/115/18 64/87/18 73/90/18 72/116/18
f 63/87/17 61/117/17 70/116/17 69/90/17
f 67/108/27 68/118/27 74/119/27 76/109/27
f 65/112/20 66/120/20 71/121/20 75/113/20
f 68/118/28 63/83/28 69/122/28 74/119/28
f 66/120/20 62/123/20 72/124/20 71/121/20
f 82/125/29 83/126/29 80/127/29 78/128/29
f 77/129/29 79/130/29 84/131/29 81/132/29
f 85/133/29 86/134/29 83/126/29 82/125/29
f 88/135/29 87/136/29 86/134/29 85/133/29
f 81/132/29 84/131/29 87/136/29 88/135/29
f 91/137/30 92/128/30 93/127/30 97/126/30
f 90/138/30 95/132/30 94/131/30 89/130/30
f 96/139/30 91/137/30 97/126/30 100/134/30
f 99/135/30 96/139/30 100/134/30 98/136/30
f 95/132/30 99/135/30 98/136/30 94/131/30
f 78/140/31 80/141/31 93/142/31 92/143/31
f 80/144/32 83/145/32 97/146/32 93/147/32
f 86/145/33 87/144/33 98/147/33 100/146/33
f 84/144/17 79/145/17 89/146/17 94/147/17
f 88/144/34 85/145/34 96/146/34 99/147/34
f 79/148/35 77/149/35 90/150/35 89/151/35
f 87/144/36 84/145/36 94/146/36 98/147/36
f 81/144/37 88/145/37 99/146/37 95/147/37
f 77/144/38 81/145/38 95/146/38 90/147/38
f 83/145/39 86/144/39 100/147/39 97/146/39
f 82/144/18 78/145/18 92/146/18 91/147/18
f 85/144/40 82/145/40 91/146/40 96/147/40
f 101/152/41 102/153/41 104/154/41 103/155/41
f 105/152/42 107/155/42 108/154/42 106/153/42
f 102/156/17 106/157/17 108/158/17 104/159/17
f 103/159/18 107/158/18 105/157/18 101/156/18
f 104/160/43 108/161/43 107/162/43 103/163/43
f 101/163/44 105/162/44 106/161/44 102/160/44
f 109/152/41 110/153/41 112/154/41 111/155/41
f 113/152/42 115/155/42 116/154/42 114/153/42
f 110/156/17 114/157/17 116/158/17 112/159/17
f 111/159/18 115/158/18 113/157/18 109/156/18
f 112/164/43 116/165/43 115/162/43 111/163/43
f 109/163/44 113/162/44 114/165/44 110/166/44
f 117/153/41 119/154/41 120/155/41 118/152/41
f 121/153/42 122/152/42 124/155/42 123/154/42
f 118/156/18 120/159/18 124/158/18 122/157/18
f 119/159/17 117/156/17 121/157/17 123/158/17
f 120/163/43 119/164/43 123/165/43 124/162/43
f 117/164/44 118/163/44 122/162/44 121/165/44
f 125/152/45 126/153/45 128/154/45 127/155/45
f 129/154/46 131/153/46 132/152/46 130/155/46
f 126/159/47 130/158/47 132/157/47 128/156/47
f 127/156/48 131/157/48 129/158/48 125/159/48
f 128/167/49 132/168/49 131/169/49 127/170/49
f 125/170/50 129/171/50 130/168/50 126/167/50
f 133/154/51 135/153/51 136/152/51 134/155/51
f 137/152/52 138/153/52 140/154/52 139/155/52
f 134/157/53 136/158/53 140/159/53 138/156/53
f 135/158/54 133/157/54 137/156/54 139/159/54
f 136/167/55 135/170/55 139/169/55 140/168/55
f 133/170/56 134/167/56 138/168/56 137/171/56
f 141/152/45 142/153/45 144/154/45 143/155/45
f 145/154/46 147/153/46 148/152/46 146/155/46
f 142/159/47 146/158/47 148/157/47 144/156/47
f 143/156/48 147/157/48 145/158/48 141/159/48
f 144/172/49 148/173/49 147/174/49 143/175/49
f 141/175/50 145/169/50 146/173/50 142/172/50
f 149/154/51 151/153/51 152/152/51 150/155/51
f 153/152/52 154/153/52 156/154/52 155/155/52
f 150/157/53 152/158/53 156/159/53 154/156/53
f 151/158/54 149/157/54 153/156/54 155/159/54
f 152/172/55 151/175/55 155/174/55 156/173/55
f 149/175/56 150/172/56 154/173/56 153/169/56
f 157/152/45 158/153/45 160/154/45 159/155/45
f 161/154/46 163/153/46 164/152/46 162/155/46
f 158/159/47 162/158/47 164/157/47 160/156/47
f 159/156/48 163/157/48 161/158/48 157/159/48
f 160/172/49 164/168/49 163/171/49 159/170/49
f 157/170/50 161/169/50 162/168/50 158/176/50
f 165/154/51 167/153/51 168/152/51 166/155/51
f 169/152/52 170/153/52 172/154/52 171/155/52
f 166/157/53 168/158/53 172/159/53 170/156/53
f 167/158/54 165/157/54 169/156/54 171/159/54
f 168/172/55 167/170/55 171/171/55 172/168/55
f 165/170/56 166/176/56 170/168/56 169/169/56
f 173/152/45 174/153/45 176/154/45 175/155/45
f 177/154/46 179/153/46 180/152/46 178/155/46
f 174/159/47 178/158/47 180/157/47 176/156/47
f 175/156/48 179/157/48 177/158/48 173/159/48
f 176/177/49 180/173/49 179/169/49 175/175/49
f 173/175/50 177/169/50 178/168/50 174/176/50
f 181/154/51 183/153/51 184/152/51 182/155/51
f 185/152/52 186/153/52 188/154/52 187/155/52
f 182/157/53 184/158/53 188/159/53 186/156/53
f 183/158/54 181/157/54 185/156/54 187/159/54
f 184/177/55 183/175/55 187/169/55 188/173/55
f 181/175/56 182/176/56 186/168/56 185/169/56
f 189/152/45 190/153/45 192/154/45 191/155/45
f 193/154/46 195/153/46 196/152/46 194/155/46
f 190/159/47 194/158/47 196/157/47 192/156/47
f 191/156/48 195/157/48 193/158/48 189/159/48
f 192/172/49 196/168/49 195/171/49 191/170/49
f 189/170/50 193/178/50 194/168/50 190/176/50
f 197/154/51 199/153/51 200/152/51 198/155/51
f 201/152/52 202/153/52 204/154/52 203/155/52
f 198/157/53 200/158/53 204/159/53 202/156/53
f 199/158/54 197/157/54 201/156/54 203/159/54
f 200/172/55 199/170/55 203/171/55 204/168/55
f 197/170/56 198/176/56 202/168/56 201/178/56
f 221/179/30 217/180/30 218/181/30 219/182/30
f 213/183/30 221/179/30 219/182/30 220/184/30
f 214/185/30 215/186/30 221/179/30 213/183/30
f 215/186/30 216/187/30 217/180/30 221/179/30
f 207/188/57 209/189/57 213/190/57 220/191/57
f 211/192/58 208/193/58 218/194/58 217/195/58
f 209/189/59 205/196/59 214/185/59 213/190/59
f 208/193/60 212/197/60 219/198/60 218/194/60
f 205/196/61 210/199/61 215/186/61 214/185/61
f 212/200/62 207/188/62 220/191/62 219/201/62
f 210/199/63 206/202/63 216/187/63 215/186/63
f 206/202/64 211/192/64 217/195/64 216/187/64
f 238/179/30 234/180/30 235/181/30 236/182/30
f 230/183/30 238/179/30 236/182/30 237/184/30
f 231/185/30 232/186/30 238/179/30 230/183/30
f 232/186/30 233/187/30 234/180/30 238/179/30
f 224/188/57 226/189/57 230/190/57 237/191/57
f 228/192/58 225/193/58 235/194/58 234/195/58
f 226/189/59 222/196/59 231/185/59 230/190/59
f 225/193/60 229/197/60 236/198/60 235/194/60
f 222/196/61 227/199/61 232/186/61 231/185/61
f 229/200/62 224/188/62 237/191/62 236/201/62
f 227/199/63 223/202/63 233/187/63 232/186/63
f 223/202/64 228/192/64 234/195/64 233/187/64
f 22/203/5 28/204/5 27/205/5 21/206/5
f 8/207/5 7/203/5 15/204/5 16/205/5
f 33/208/28 43/209/28 38/210/28 29/211/28
f 33/208/28 34/212/28 39/213/28 43/209/28
f 30/214/28 40/215/28 39/213/28 34/212/28
f 46/216/65 56/217/65 55/218/65 50/112/65
f 49/120/65 50/112/65 55/218/65 59/121/65
f 49/120/65 59/121/65 54/219/65 45/220/65
