# Blender 4.5.3 LTS
# www.blender.org
o Montaña_1_1.002
v -678.022034 96.374329 -365.336823
v -477.648438 102.227676 -358.104980
v -709.324402 102.227692 -454.068329
v -573.611755 102.227692 -318.355682
v -437.899109 102.227692 -454.068329
v -573.611755 333.010406 -454.068329
v -698.993896 102.227676 -402.133362
v -521.676758 102.227676 -328.686188
v -448.229614 102.227676 -506.003296
v -698.993896 102.227676 -506.003326
v -625.546753 102.227722 -328.686188
v -448.229614 102.227692 -402.133331
v -573.611755 275.760742 -512.998047
v -573.611755 275.760742 -395.138641
v -632.541443 275.760742 -454.068329
v -514.682068 275.760742 -454.068329
v -514.682068 227.244232 -395.138641
v -632.541443 227.244232 -395.138641
v -632.541443 227.244232 -512.998047
v -514.682068 227.244232 -512.998047
v -686.452698 102.227676 -378.670410
v -498.213867 102.227676 -341.227386
v -460.770813 102.227676 -529.466248
v -706.716736 102.227722 -480.544556
v -600.088013 102.227692 -320.963379
v -440.506775 102.227692 -427.592102
v -573.611755 216.058167 -542.462891
v -573.611755 317.380219 -424.603485
v -662.006287 216.058167 -454.068329
v -544.146912 317.380219 -454.068329
v -706.716736 102.227676 -427.592102
v -547.135559 102.227676 -320.963348
v -440.506775 102.227676 -480.544556
v -686.452698 102.227676 -529.466248
v -649.009644 102.227722 -341.227386
v -460.770813 102.227692 -378.670410
v -573.611755 317.380219 -483.533173
v -573.611755 216.058167 -365.673767
v -603.076599 317.380219 -454.068329
v -485.217224 216.058167 -454.068329
v -514.682068 263.003723 -424.603485
v -514.682068 174.452698 -365.673767
v -544.146912 263.003723 -395.138641
v -485.217224 174.452698 -395.138641
v -632.541443 263.003723 -424.603485
v -632.541443 174.452698 -365.673767
v -662.006287 174.452698 -395.138641
v -603.076599 263.003723 -395.138641
v -632.541443 174.452698 -542.462891
v -632.541443 263.003723 -483.533173
v -662.006287 174.452698 -512.998047
v -603.076599 263.003723 -512.998047
v -514.682068 174.452698 -542.462891
v -514.682068 263.003723 -483.533173
v -544.146912 263.003723 -512.998047
v -485.217224 174.452698 -512.998047
v -485.217224 205.201843 -483.533173
v -544.146912 302.841827 -483.533173
v -544.146912 205.201843 -542.462891
v -603.076599 302.841827 -483.533173
v -662.006287 205.201843 -483.533173
v -662.006287 128.580017 -542.462891
v -603.076599 205.201843 -365.673767
v -662.006287 128.580017 -365.673767
v -662.006287 205.201843 -424.603485
v -485.217224 128.580017 -365.673767
v -544.146912 205.201843 -365.673767
v -544.146912 302.841827 -424.603485
v -485.217224 205.201843 -424.603485
v -603.076599 302.841827 -424.603485
v -603.076599 205.201843 -542.462891
v -485.217224 128.580017 -542.462891
v -709.394592 -66.708435 -318.285522
v -437.828949 -66.708450 -318.285522
v -573.611755 -66.708435 -262.042419
v -381.585876 -66.708435 -454.068329
v -500.126648 -66.708450 -276.659515
v -647.096924 -66.708389 -276.659546
v -396.202972 -66.708435 -380.583191
v -466.927887 -66.708450 -294.404602
v -611.074158 -66.708435 -265.732178
v -385.275574 -66.708435 -416.605927
v -536.149353 -66.708450 -265.732117
v -385.275574 -66.708450 -491.530701
v -680.295654 -66.708389 -294.404633
v -413.948059 -66.708435 -347.384460
v -679.628113 59.577271 -348.052002
vn -0.6447 0.3315 0.6888
vn 0.6636 0.3453 0.6636
vn -0.9211 0.3893 -0.0000
vn -0.0000 0.3522 0.9359
vn 0.9359 0.3522 -0.0000
vn -0.0000 1.0000 -0.0000
vn -0.8280 0.3823 0.4102
vn 0.3865 0.3489 0.8537
vn 0.8280 0.3823 -0.4102
vn -0.8280 0.3823 -0.4102
vn -0.3865 0.3489 0.8537
vn 0.8537 0.3489 0.3865
vn -0.0000 0.5336 -0.8457
vn -0.0000 0.5336 0.8457
vn -0.8457 0.5336 -0.0000
vn 0.8457 0.5336 -0.0000
vn 0.6383 0.4304 0.6383
vn -0.6383 0.4304 0.6383
vn -0.6383 0.4304 -0.6383
vn 0.6383 0.4304 -0.6383
vn -0.7377 0.3653 0.5677
vn 0.5397 0.3470 0.7670
vn 0.7724 0.3778 -0.5105
vn -0.8953 0.3871 -0.2205
vn -0.2026 0.3512 0.9141
vn 0.9141 0.3512 0.2026
vn -0.0000 0.4483 -0.8939
vn -0.0000 0.7844 0.6203
vn -0.9052 0.4249 -0.0000
vn 0.6203 0.7844 -0.0000
vn -0.8953 0.3871 0.2205
vn 0.2026 0.3512 0.9141
vn 0.9147 0.3632 -0.1770
vn -0.7724 0.3778 -0.5105
vn -0.5439 0.3436 0.7656
vn 0.7670 0.3470 0.5397
vn -0.0000 0.7844 -0.6203
vn -0.0000 0.4249 0.9052
vn -0.6203 0.7844 -0.0000
vn 0.9052 0.4249 -0.0000
vn 0.7736 0.4904 0.4014
vn 0.5039 0.3943 0.7685
vn 0.4014 0.4904 0.7736
vn 0.7685 0.3943 0.5039
vn -0.7736 0.4904 0.4014
vn -0.5039 0.3943 0.7685
vn -0.7685 0.3943 0.5039
vn -0.4014 0.4904 0.7736
vn -0.6050 0.3982 -0.6895
vn -0.7736 0.4904 -0.4014
vn -0.7685 0.3943 -0.5039
vn -0.4014 0.4904 -0.7736
vn 0.6050 0.3982 -0.6895
vn 0.7736 0.4904 -0.4014
vn 0.4014 0.4904 -0.7736
vn 0.7685 0.3943 -0.5039
vn 0.8630 0.4130 -0.2909
vn 0.5411 0.6438 -0.5411
vn 0.3688 0.4294 -0.8244
vn -0.5411 0.6438 -0.5411
vn -0.8630 0.4130 -0.2909
vn -0.7407 0.3824 -0.5524
vn -0.2909 0.4130 0.8630
vn -0.6559 0.3737 0.6559
vn -0.8630 0.4130 0.2909
vn 0.6532 0.3831 0.6532
vn 0.2909 0.4130 0.8630
vn 0.5411 0.6438 0.5411
vn 0.8630 0.4130 0.2909
vn -0.5411 0.6438 0.5411
vn -0.3688 0.4294 -0.8244
vn 0.7407 0.3824 -0.5524
vn -0.6072 0.3195 0.7275
vn 0.6708 0.3162 0.6708
vn -0.0000 0.3162 0.9487
vn 0.9487 0.3162 -0.0000
vn 0.3630 0.3162 0.8765
vn -0.3630 0.3162 0.8765
vn 0.8765 0.3162 0.3630
vn 0.5271 0.3162 0.7888
vn -0.1851 0.3162 0.9305
vn 0.9305 0.3162 0.1851
vn 0.1851 0.3162 0.9305
vn 0.9446 0.3149 -0.0930
vn -0.5298 0.3187 0.7860
vn 0.7888 0.3162 0.5271
vt 0.556707 0.535070
vt 0.556729 0.517653
vt 0.570708 0.514843
vt 0.573418 0.529205
vt 0.496955 0.416781
vt 0.395209 0.286752
vt 0.425721 0.253019
vt 0.534769 0.407259
vt 0.550094 0.501640
vt 0.533058 0.471791
vt 0.559191 0.469238
vt 0.567648 0.500609
vt 0.454921 0.502737
vt 0.422313 0.464603
vt 0.490533 0.468424
vt 0.516548 0.501171
vt 0.370053 0.414471
vt 0.347226 0.360262
vt 0.368888 0.322622
vt 0.443312 0.417227
vt 0.538740 0.637254
vt 0.552184 0.569777
vt 0.577844 0.561854
vt 0.579395 0.630774
vt 0.408452 0.689504
vt 0.446604 0.618251
vt 0.512679 0.589492
vt 0.484971 0.658631
vt 0.466160 0.569412
vt 0.468704 0.534465
vt 0.526840 0.523542
vt 0.525461 0.548340
vt 0.621250 0.643235
vt 0.606392 0.566012
vt 0.658342 0.586633
vt 0.677095 0.684328
vt 0.592123 0.529595
vt 0.585412 0.511856
vt 0.621379 0.504396
vt 0.633595 0.534330
vt 0.584606 0.492979
vt 0.583332 0.454413
vt 0.621643 0.415155
vt 0.620470 0.472213
vt 0.566344 0.380018
vt 0.461777 0.221300
vt 0.508122 0.199134
vt 0.597800 0.321435
vt 0.709906 0.415107
vt 0.722136 0.482526
vt 0.681640 0.321966
vt 0.596708 0.840366
vt 0.650045 0.839434
vt 0.545434 0.835244
vt 0.746455 0.765355
vt 0.705290 0.833714
vt 0.754179 0.646526
vt 0.328168 0.637578
vt 0.315610 0.597890
vt 0.308627 0.558312
vt 0.403078 0.761722
vt 0.447028 0.797942
vt 0.371430 0.745625
vt 0.346700 0.678332
vt 0.495889 0.821414
vt 0.310331 0.478702
vt 0.318244 0.438712
vt 0.330255 0.399122
vt 0.307135 0.518669
vt 0.739444 0.549070
vt 0.623485 0.221500
vt 0.558352 0.180200
vt 0.046111 0.307563
vt 0.069589 0.242364
vt 0.099074 0.179335
vt 0.034216 0.712655
vt 0.021640 0.645579
vt 0.014541 0.578234
vt 0.133969 0.119292
vt 0.173660 0.062489
vt 0.013200 0.510296
vt 0.052412 0.778348
vt 0.017895 0.442192
vt 0.216839 0.009347
vt 0.028825 0.374458
vt 0.291329 0.755325
vt 0.074548 0.840366
s 1
f 70/1/70 28/2/28 6/3/6 39/4/39
f 69/5/69 26/6/26 5/7/5 40/8/40
f 68/9/68 41/10/41 16/11/16 30/12/30
f 67/13/67 42/14/42 17/15/17 43/16/43
f 66/17/66 36/18/36 12/19/12 44/20/44
f 65/21/65 45/22/45 15/23/15 29/24/29
f 64/25/64 46/26/46 18/27/18 47/28/47
f 63/29/63 38/30/38 14/31/14 48/32/48
f 61/33/61 50/34/50 19/35/19 51/36/51
f 60/37/60 37/38/37 13/39/13 52/40/52
f 58/41/58 54/42/54 20/43/20 55/44/55
f 57/45/57 33/46/33 9/47/9 56/48/56
f 54/42/54 57/45/57 56/48/56 20/43/20
f 16/11/16 40/8/40 57/45/57 54/42/54
f 40/8/40 5/7/5 33/46/33 57/45/57
f 37/38/37 58/41/58 55/44/55 13/39/13
f 6/3/6 30/12/30 58/41/58 37/38/37
f 30/12/30 16/11/16 54/42/54 58/41/58
f 13/39/13 55/44/55 59/49/59 27/50/27
f 55/44/55 20/43/20 53/51/53 59/49/59
f 50/34/50 60/37/60 52/40/52 19/35/19
f 15/23/15 39/4/39 60/37/60 50/34/50
f 39/4/39 6/3/6 37/38/37 60/37/60
f 24/52/24 61/33/61 51/36/51 10/53/10
f 3/54/3 29/24/29 61/33/61 24/52/24
f 29/24/29 15/23/15 50/34/50 61/33/61
f 10/53/10 51/36/51 62/55/62 34/56/34
f 51/36/51 19/35/19 49/57/49 62/55/62
f 46/26/46 63/29/63 48/32/48 18/27/18
f 11/58/11 25/59/25 63/29/63 46/26/46
f 25/59/25 4/60/4 38/30/38 63/29/63
f 21/61/21 64/25/64 47/28/47 7/62/7
f 1/63/1 35/64/35 64/25/64 21/61/21
f 35/64/35 11/58/11 46/26/46 64/25/64
f 31/65/31 65/21/65 29/24/29 3/54/3
f 7/62/7 47/28/47 65/21/65 31/65/31
f 47/28/47 18/27/18 45/22/45 65/21/65
f 42/14/42 66/17/66 44/20/44 17/15/17
f 8/66/8 22/67/22 66/17/66 42/14/42
f 22/67/22 2/68/2 36/18/36 66/17/66
f 38/30/38 67/13/67 43/16/43 14/31/14
f 4/60/4 32/69/32 67/13/67 38/30/38
f 32/69/32 8/66/8 42/14/42 67/13/67
f 28/2/28 68/9/68 30/12/30 6/3/6
f 14/31/14 43/16/43 68/9/68 28/2/28
f 43/16/43 17/15/17 41/10/41 68/9/68
f 41/10/41 69/5/69 40/8/40 16/11/16
f 17/15/17 44/20/44 69/5/69 41/10/41
f 44/20/44 12/19/12 26/6/26 69/5/69
f 45/22/45 70/1/70 39/4/39 15/23/15
f 18/27/18 48/32/48 70/1/70 45/22/45
f 48/32/48 14/31/14 28/2/28 70/1/70
f 19/35/19 52/40/52 71/70/71 49/57/49
f 52/40/52 13/39/13 27/50/27 71/70/71
f 20/43/20 56/48/56 72/71/72 53/51/53
f 56/48/56 9/47/9 23/72/23 72/71/72
f 36/18/36 2/68/2 74/73/74 86/74/86
f 12/19/12 36/18/36 86/74/86 79/75/79
f 25/59/25 11/58/11 78/76/78 81/77/81
f 4/60/4 25/59/25 81/77/81 75/78/75
f 26/6/26 12/19/12 79/75/79 82/79/82
f 5/7/5 26/6/26 82/79/82 76/80/76
f 32/69/32 4/60/4 75/78/75 83/81/83
f 11/58/11 35/64/35 85/82/85 78/76/78
f 8/66/8 32/69/32 83/81/83 77/83/77
f 33/46/33 5/7/5 76/80/76 84/84/84
f 22/67/22 8/66/8 77/83/77 80/85/80
f 2/68/2 22/67/22 80/85/80 74/73/74
f 35/64/35 1/63/1 87/86/73 73/87/73 85/82/85
