# Blender 4.5.3 LTS
# www.blender.org
o Sobresaliente
v -117.642670 129.950378 -525.221863
v -116.968132 80.671989 -525.221863
v -117.642670 129.950378 -585.381287
v -119.187897 80.671989 -585.381287
v -117.642670 133.751282 -555.301575
v -107.701248 105.311188 -525.221863
v -104.152138 80.671997 -555.301575
v -113.548843 105.311188 -585.381287
v -79.122787 114.049965 -555.301575
v -117.642670 131.176498 -540.261719
v -110.614693 92.991592 -525.221863
v -109.750031 80.671989 -570.341431
v -115.374924 117.630783 -585.381287
v -117.642670 130.765762 -570.341431
v -110.614693 117.631905 -525.221863
v -107.698318 80.671997 -540.261719
v -115.374924 92.991585 -585.381287
v -92.421730 110.203156 -570.341431
v -89.006531 110.816071 -540.261719
v -80.909821 129.945374 -555.301575
v -89.866341 95.080238 -555.301575
v -95.844711 93.598877 -540.261719
v -92.860863 124.673805 -540.261719
v -96.817551 123.511269 -570.341431
v -99.113213 93.339172 -570.341431
vn 0.4486 0.7582 0.4732
vn 0.6843 -0.4935 0.5369
vn 0.5621 0.6631 -0.4944
vn 0.6979 -0.4036 -0.5916
vn 0.1767 0.9837 -0.0345
vn 0.6539 -0.0654 0.7537
vn 0.7278 -0.6828 -0.0649
vn 0.6151 -0.0452 -0.7871
vn 0.9939 -0.0854 -0.0699
vn 0.2993 0.8698 0.3922
vn 0.6885 -0.3847 0.6148
vn 0.7110 -0.5168 -0.4769
vn 0.5967 0.3990 -0.6962
vn 0.3638 0.8189 -0.4438
vn 0.5587 0.4820 0.6749
vn 0.7090 -0.5863 0.3920
vn 0.6749 -0.3086 -0.6703
vn 0.7036 -0.0884 -0.7050
vn 0.7698 -0.0967 0.6309
vn 0.6832 0.7287 -0.0474
vn 0.8347 -0.5463 -0.0691
vn 0.7515 -0.4746 0.4583
vn 0.5268 0.6137 0.5881
vn 0.5103 0.5650 -0.6483
vn 0.7196 -0.4297 -0.5454
vt 0.387691 0.451152
vt 0.324150 0.613601
vt 0.002521 0.613601
vt 0.002521 0.475444
vt 0.425054 0.192880
vt 0.429381 0.299003
vt 0.002521 0.330368
vt 0.002521 0.187490
vt 0.814969 0.191524
vt 0.829846 0.292407
vt 0.642125 0.274362
vt 0.638404 0.203324
vt 0.871633 0.440445
vt 0.928020 0.613601
vt 0.633138 0.613601
vt 0.640512 0.415986
vt 1.231314 0.321996
vt 1.231314 0.468852
vt 1.231314 0.613601
vt 0.897181 0.000579
vt 0.604361 0.000579
vt 1.231314 0.000579
vt 1.231314 0.177047
vt 0.311578 0.000579
vt 0.002521 0.000579
s 1
f 25/1/25 12/2/12 4/3/4 17/4/17
f 24/5/24 18/6/18 8/7/8 13/8/13
f 23/9/23 19/10/19 9/11/9 20/12/20
f 22/13/22 16/14/16 7/15/7 21/16/21
f 19/10/19 22/13/22 21/16/21 9/11/9
f 6/17/6 11/18/11 22/13/22 19/10/19
f 11/18/11 2/19/2 16/14/16 22/13/22
f 10/20/10 23/9/23 20/12/20 5/21/5
f 1/22/1 15/23/15 23/9/23 10/20/10
f 15/23/15 6/17/6 19/10/19 23/9/23
f 14/24/14 24/5/24 13/8/13 3/25/3
f 5/21/5 20/12/20 24/5/24 14/24/14
f 20/12/20 9/11/9 18/6/18 24/5/24
f 18/6/18 25/1/25 17/4/17 8/7/8
f 9/11/9 21/16/21 25/1/25 18/6/18
f 21/16/21 7/15/7 12/2/12 25/1/25
