# Blender 4.5.3 LTS
# www.blender.org
o Circuito_castillo.002
v 156.668060 4.048839 -66.690842
v 156.557938 4.048843 -26.371109
v 168.549469 4.048840 -66.753395
v 169.424042 4.048843 -26.442995
v 177.951340 4.048839 -67.101860
v 180.822281 4.048843 -26.884315
v 184.684418 4.048840 -67.783485
v 191.285477 4.048842 -28.007612
v 187.569962 4.048840 -68.396400
v 201.331619 4.048842 -30.361273
v 188.804718 4.048839 -68.878227
v 211.104874 4.048844 -34.820816
v 189.635513 4.048838 -69.407959
v 219.713135 4.048843 -42.008915
v 190.207275 4.048841 -70.325417
v 225.857010 4.048841 -51.227150
v 190.470322 4.048841 -71.477470
v 229.447632 4.048840 -61.159435
v 191.365662 4.048840 -76.677811
v 231.340103 4.048841 -71.411247
v 191.840591 4.048841 -84.701530
v 232.273636 4.048840 -82.373604
v 191.999512 4.048840 -95.382812
v 232.669907 4.048840 -94.572113
v 192.465210 4.048839 -108.646484
v 232.784561 4.048840 -108.441788
v 192.492676 4.048839 -122.542755
v 232.812515 4.048839 -122.486565
v 192.504684 4.048838 -137.480713
v 232.824539 4.048838 -137.465134
v 192.504196 4.048837 -153.236267
v 232.824051 4.048837 -153.248901
v 192.494415 4.048834 -169.631790
v 232.814255 4.048835 -169.662781
v 192.478531 4.048832 -186.490158
v 232.798386 4.048832 -186.531235
v 192.459747 4.048831 -203.634613
v 232.779587 4.048831 -203.678329
v 192.441238 4.048828 -220.888626
v 232.761093 4.048829 -220.927887
v 192.426208 4.048827 -238.075943
v 232.746078 4.048827 -238.103485
v 192.417877 4.048826 -255.020462
v 232.737747 4.048825 -255.028488
v 192.419434 4.048823 -271.546417
v 232.739304 4.048823 -271.526031
v 192.434082 4.048822 -287.478485
v 232.753891 4.048822 -287.418854
v 192.541611 4.048822 -304.341888
v 232.708115 4.048821 -300.828613
v 195.819489 4.048821 -321.820526
v 233.748856 4.048821 -308.143799
v 204.928299 4.048821 -337.873016
v 236.448929 4.048821 -312.730560
v 217.888977 4.048820 -349.909363
v 241.286728 4.048821 -317.072815
v 233.027878 4.048820 -358.127045
v 248.435349 4.048821 -320.867096
v 249.363876 4.048821 -363.024719
v 257.375336 4.048821 -323.508728
v 266.289673 4.048819 -364.901764
v 267.213348 4.048821 -324.592468
v 185.509293 4.048844 -68.389420
v 185.509293 4.048845 -27.540724
v 187.569946 4.048839 -68.396393
v 201.331604 4.048842 -30.361271
v 188.804703 4.048838 -68.878220
v 211.104858 4.048843 -34.820812
v 189.635498 4.048837 -69.407951
v 219.713120 4.048843 -42.008911
v 190.207260 4.048840 -70.325409
v 225.856979 4.048841 -51.227146
v 190.470306 4.048840 -71.477463
v 229.447601 4.048840 -61.159431
v 191.365646 4.048840 -76.677803
v 231.340073 4.048840 -71.411240
v 192.020996 4.048840 -84.701523
v 232.273605 4.048839 -82.373596
v 192.465195 4.048838 -108.646477
v 232.784531 4.048840 -108.441780
v 192.517227 4.048839 -133.513199
v 232.824509 4.048837 -133.636032
v 232.814224 4.048835 -169.662766
v 232.779556 4.048830 -203.678314
v 232.746048 4.048826 -238.103470
v 192.491867 4.048826 -300.445221
v 232.605576 4.048824 -300.445221
v 192.541595 4.048821 -304.341858
v 232.708084 4.048820 -300.828583
v 195.819473 4.048821 -321.820496
v 233.748825 4.048821 -308.143768
v 204.928284 4.048821 -337.872986
v 236.448898 4.048820 -312.730530
v 217.888962 4.048820 -349.909332
v 241.286697 4.048820 -317.072784
v 233.027847 4.048819 -358.127014
v 248.435318 4.048821 -320.867065
v 249.363846 4.048820 -363.024689
v 257.375305 4.048821 -323.508698
v 266.289642 4.048819 -364.901733
v 267.213318 4.048821 -324.592468
v 185.509293 43.096863 -27.726606
v 185.509293 43.096867 -68.865517
v 202.783661 43.096867 -30.837364
v 189.022018 43.096867 -68.872490
v 212.556931 43.096867 -35.296906
v 190.256775 43.096863 -69.354317
v 221.165192 43.096867 -42.485004
v 191.087570 43.096863 -69.884048
v 227.309052 43.096867 -51.703239
v 191.659332 43.096867 -70.801506
v 230.899673 43.096867 -61.635525
v 191.922363 43.096867 -71.953560
v 232.792160 43.096867 -71.887329
v 192.817719 43.096863 -77.153900
v 233.725662 43.096863 -82.849693
v 193.473053 43.096863 -85.177612
v 234.236588 43.096867 -108.917870
v 193.917252 43.096863 -109.122566
v 234.276596 43.096863 -134.112122
v 192.517227 43.096859 -133.989304
v 234.266312 43.096863 -170.138855
v 192.625549 43.096859 -170.107864
v 234.231613 43.096855 -204.154388
v 192.625549 43.096855 -204.110687
v 234.198105 43.096851 -238.579559
v 192.625549 43.096851 -238.552017
v 234.057663 43.096848 -300.445221
v 192.491867 43.096844 -300.445221
v 234.160172 43.096844 -301.304688
v 193.993668 43.096848 -304.817963
v 235.200912 43.096848 -308.619873
v 197.271530 43.096848 -322.296600
v 237.900955 43.096848 -313.206635
v 206.380341 43.096844 -338.349091
v 242.738754 43.096848 -317.548889
v 219.341019 43.096844 -350.385437
v 249.887375 43.096848 -321.343170
v 234.479904 43.096844 -358.603119
v 258.827362 43.096848 -323.984802
v 250.815903 43.096848 -363.500793
v 268.665375 43.096848 -325.068542
v 267.741699 43.096844 -365.377838
v 185.509293 47.267998 -36.768490
v 185.509293 47.268005 -59.974796
v 199.922775 47.737957 -38.744453
v 191.882919 47.737957 -60.965401
v 207.934036 47.724865 -42.357105
v 194.879654 47.724861 -62.294125
v 214.966660 47.697674 -48.131535
v 197.286118 47.697670 -64.237526
v 219.952072 47.704018 -55.644531
v 199.016327 47.704018 -66.860214
v 222.803314 47.734169 -63.778782
v 200.018692 47.734165 -69.810303
v 224.473038 47.742916 -72.983360
v 201.136856 47.742912 -76.057869
v 225.343796 47.745602 -83.334435
v 201.854935 47.745602 -84.692871
v 225.840958 47.745529 -108.960503
v 202.312881 47.745529 -109.079941
v 225.882553 47.744579 -134.115372
v 202.350754 47.744576 -134.124451
v 225.873276 47.744026 -170.132416
v 202.339493 47.744026 -170.114304
v 225.839172 47.743702 -204.145294
v 202.304260 47.743706 -204.119781
v 225.805984 47.743523 -238.573837
v 202.270401 47.743523 -238.557739
v 225.665680 47.743420 -300.445221
v 202.129745 47.743416 -300.445221
v 225.832840 47.725224 -302.033081
v 202.320969 47.725224 -304.089600
v 227.435257 47.667625 -311.420044
v 205.037170 47.667625 -319.496460
v 231.424118 47.684155 -318.372894
v 212.857208 47.684155 -333.182800
v 237.909836 47.704350 -324.325867
v 224.169922 47.704346 -343.608459
v 246.698654 47.717186 -329.054474
v 237.668625 47.717186 -350.891815
v 257.167175 47.723137 -332.173553
v 252.476089 47.723141 -355.312042
v 268.473938 47.724270 -333.423737
v 267.933167 47.724270 -357.022644
vn -0.0000 1.0000 -0.0000
vn -0.1169 -0.0062 -0.9931
vn -0.1410 -0.0632 -0.9880
vn -0.3011 -0.0002 -0.9536
vn -0.2951 -0.0005 -0.9555
vn 0.1817 0.0053 0.9833
vn 0.1906 0.0049 0.9816
vn -0.0460 0.2719 0.9612
vn -0.2644 0.0154 0.9643
vn -0.5355 0.0096 -0.8445
vn -0.5300 0.0094 -0.8479
vn 0.4506 -0.0059 0.8927
vn 0.4549 -0.0061 0.8905
vn -0.7461 0.0196 -0.6655
vn -0.7420 0.0194 -0.6701
vn 0.7072 -0.0177 0.7068
vn 0.7141 -0.0180 0.6999
vn -0.8934 0.0278 -0.4485
vn -0.8915 0.0276 -0.4523
vn 0.9231 -0.0297 0.3833
vn 0.9252 -0.0298 0.3784
vn -0.9649 0.0327 -0.2604
vn -0.9644 0.0327 -0.2626
vn 0.9799 -0.0340 0.1964
vn 0.9801 -0.0341 0.1958
vn -0.9905 0.0352 -0.1327
vn -0.9904 0.0352 -0.1338
vn 0.9914 -0.0353 0.1261
vn 0.9915 -0.0353 0.1251
vn -0.9985 0.0356 -0.0420
vn -0.9976 0.0366 -0.0591
vn 0.9977 -0.0366 0.0565
vn 0.9982 -0.0425 0.0425
vn 0.9996 -0.0280 -0.0089
vn 0.9995 -0.0323 0.0011
vn -0.9994 0.0308 -0.0155
vn -0.9993 0.0372 -0.0006
vn -0.9993 0.0372 -0.0007
vn -0.9993 0.0370 -0.0053
vn 0.9998 -0.0096 -0.0184
vn 0.9718 -0.1426 0.1878
vn -0.9993 0.0372 0.0007
vn -0.9993 0.0372 0.0006
vn -0.9993 0.0372 0.0010
vn -0.9993 0.0372 0.0016
vn -0.9961 0.0364 -0.0800
vn -0.9960 0.0366 -0.0814
vn -0.9879 0.0338 -0.1515
vn -0.9878 0.0354 -0.1519
vn 0.9822 -0.0257 0.1859
vn 0.9826 -0.0267 0.1836
vn 0.9910 -0.1329 -0.0177
vn 0.9849 -0.0074 0.1730
vn 0.2318 -0.9724 0.0274
vn 0.2484 -0.9672 0.0528
vn -0.2451 -0.9691 -0.0273
vn -0.2417 -0.9703 -0.0091
vn -0.9424 0.0310 -0.3330
vn -0.9444 0.0311 -0.3274
vn 0.9395 -0.0308 0.3411
vn 0.9378 -0.0307 0.3458
vn -0.7718 0.0210 -0.6356
vn -0.7758 0.0212 -0.6306
vn 0.7861 -0.0217 0.6178
vn 0.7821 -0.0215 0.6227
vn -0.5702 0.0112 -0.8214
vn -0.5750 0.0114 -0.8181
vn 0.5857 -0.0119 0.8104
vn 0.5809 -0.0117 0.8139
vn -0.3757 0.0027 -0.9267
vn -0.3803 0.0029 -0.9249
vn 0.3865 -0.0031 0.9223
vn 0.3818 -0.0029 0.9242
vn -0.1951 -0.0047 -0.9808
vn -0.1994 -0.0045 -0.9799
vn 0.2017 0.0044 0.9794
vn 0.1973 0.0046 0.9803
vn -0.1095 -0.0080 -0.9940
vn 0.1102 0.0080 0.9939
vn 0.0527 -0.9647 0.2582
vn 0.0291 -0.9645 0.2624
vn -0.0260 -0.9713 -0.2365
vn -0.0466 -0.9716 -0.2321
vn 0.1022 -0.9642 0.2449
vn -0.0887 -0.9720 -0.2175
vn 0.1571 -0.9632 0.2179
vn -0.1326 -0.9728 -0.1898
vn 0.2143 -0.9621 0.1687
vn -0.1758 -0.9739 -0.1436
vn 0.2582 -0.9614 0.0951
vn -0.2100 -0.9750 -0.0732
vn 0.2224 -0.9750 -0.0003
vn -0.2502 -0.9682 0.0004
vn 0.2219 -0.9751 -0.0001
vn -0.2501 -0.9682 0.0003
vn 0.2208 -0.9753 0.0001
vn -0.2502 -0.9682 0.0002
vn 0.2267 -0.9740 -0.0030
vn -0.2503 -0.9682 -0.0001
vn 0.2391 -0.9710 0.0002
vn -0.2530 -0.9674 -0.0037
vn 0.2467 -0.9690 0.0135
vn -0.2526 -0.9675 -0.0144
vn 0.4885 -0.8720 0.0318
vn 0.4730 -0.8811 -0.0074
vn 0.2413 -0.9700 0.0305
vn -0.2549 -0.9663 -0.0345
vn 0.2338 -0.9708 0.0530
vn -0.2524 -0.9651 -0.0697
vn 0.2096 -0.9732 0.0949
vn -0.2389 -0.9634 -0.1213
vn 0.1630 -0.9746 0.1539
vn -0.2015 -0.9628 -0.1798
vn 0.1128 -0.9733 0.1998
vn -0.1432 -0.9636 -0.2260
vn 0.0786 -0.9745 0.2099
vn -0.0621 -0.9659 -0.2515
vn 0.0476 -0.9705 0.2365
vn -0.0011 -0.9726 -0.2326
vn -0.1648 -0.8997 0.4043
vn 0.1343 -0.8830 0.4498
vn -0.0062 -0.8722 -0.4891
vn -0.1324 -0.8842 -0.4479
vn 0.2366 -0.8760 0.4203
vn -0.2564 -0.8767 -0.4070
vn 0.3487 -0.8778 0.3286
vn -0.3574 -0.8769 -0.3214
vn 0.4404 -0.8757 0.1979
vn -0.4311 -0.8756 -0.2179
vn 0.4733 -0.8740 0.1098
vn -0.4679 -0.8747 -0.1262
vn 0.4807 -0.8747 0.0615
vn -0.4802 -0.8748 -0.0644
vn -0.4842 -0.8742 -0.0353
vn -0.4900 -0.8717 -0.0002
vn 0.6209 -0.7730 -0.1304
vn -0.4844 -0.8748 -0.0003
vn 0.8457 -0.5337 0.0009
vn -0.4844 -0.8748 0.0003
vn 0.8464 -0.5325 -0.0001
vn -0.4844 -0.8748 0.0005
vn 0.8468 -0.5320 -0.0010
vn -0.4844 -0.8748 0.0008
vn 0.6010 -0.7792 0.1778
vn -0.4839 -0.8748 -0.0241
vn 0.4658 -0.8798 0.0946
vn -0.4842 -0.8728 -0.0607
vn 0.4541 -0.8754 0.1657
vn -0.4549 -0.8760 -0.1602
vn 0.3796 -0.8749 0.3008
vn -0.3760 -0.8749 -0.3054
vn 0.2824 -0.8748 0.3937
vn -0.2785 -0.8747 -0.3966
vn 0.1859 -0.8748 0.4474
vn -0.1837 -0.8747 -0.4484
vn 0.0966 -0.8748 0.4747
vn -0.0957 -0.8748 -0.4750
vn 0.0535 -0.8740 0.4829
vn -0.0533 -0.8740 -0.4829
vt 23.050425 0.499344
vt 22.897182 0.499344
vt 22.897182 0.000001
vt 23.050425 0.000001
vt 22.768288 0.499344
vt 22.768288 0.000001
vt 22.661222 0.499346
vt 22.661222 0.000004
vt 22.579065 0.499344
vt 22.579065 0.000001
vt 22.504337 0.499344
vt 22.504337 0.000001
vt 22.428785 0.499344
vt 22.428785 0.000001
vt 22.353497 0.499346
vt 22.353497 0.000004
vt 22.280777 0.499345
vt 22.280777 0.000001
vt 22.183550 0.499345
vt 22.183550 0.000004
vt 22.065571 0.499345
vt 22.065571 0.000004
vt 21.923820 0.499345
vt 21.923820 0.000004
vt 21.755795 0.499345
vt 21.755795 0.000003
vt 21.582775 0.499345
vt 21.582775 0.000003
vt 21.397524 0.499345
vt 21.397524 0.000003
vt 21.202225 0.499345
vt 21.202225 0.000003
vt 20.999058 0.499345
vt 20.999058 0.000003
vt 20.790215 0.499345
vt 20.790215 0.000003
vt 20.577871 0.499345
vt 20.577871 0.000003
vt 20.364216 0.499345
vt 20.364216 0.000003
vt 20.151430 0.499345
vt 20.151430 0.000003
vt 19.941702 0.499345
vt 19.941702 0.000003
vt 19.737211 0.499345
vt 19.737211 0.000003
vt 19.540142 0.499345
vt 19.540142 0.000003
vt 19.352680 0.499345
vt 19.352680 0.000003
vt 19.196810 0.499345
vt 19.196810 0.000003
vt 19.049561 0.499345
vt 19.049561 0.000003
vt 18.899780 0.499345
vt 18.899780 0.000003
vt 18.743002 0.499345
vt 18.743002 0.000003
vt 18.579670 0.499345
vt 18.579670 0.000003
vt 18.412928 0.499345
vt 18.412928 0.000003
vt 18.153137 -0.009920
vt 18.153137 0.499576
vt 18.067959 0.499576
vt 18.067959 -0.009920
vt 24.453075 0.499535
vt 24.453075 -0.010975
vt 24.543818 -0.010975
vt 24.543818 0.499535
vt 17.990484 0.499579
vt 17.990484 -0.009918
vt 24.370541 0.499535
vt 24.370541 -0.010975
vt 17.912176 0.499579
vt 17.912176 -0.009918
vt 24.287119 0.499535
vt 24.287119 -0.010975
vt 17.834116 0.499579
vt 17.834116 -0.009918
vt 24.203960 0.499535
vt 24.203960 -0.010975
vt 17.758745 0.499576
vt 17.758745 -0.009920
vt 24.123661 0.499535
vt 24.123661 -0.010975
vt 17.657944 0.499576
vt 17.657944 -0.009920
vt 24.016264 0.499535
vt 24.016264 -0.010975
vt 17.535625 0.499579
vt 17.535625 -0.009918
vt 23.885950 0.499535
vt 23.885950 -0.010975
vt 23.543816 0.499535
vt 23.543816 -0.010975
vt 17.214495 0.499576
vt 16.843061 0.499576
vt 16.843061 -0.009920
vt 17.214495 -0.009920
vt 23.148094 0.499535
vt 23.148094 -0.010975
vt 16.429953 0.499577
vt 16.429953 -0.009920
vt 15.993287 0.499577
vt 15.993287 -0.009919
vt 15.551179 0.499577
vt 15.551179 -0.009919
vt 15.121737 0.499577
vt 15.121737 -0.009919
vt 14.723081 0.499577
vt 14.723081 -0.009919
vt 20.889484 0.499535
vt 20.889484 -0.010973
vt 21.314211 -0.010973
vt 21.314211 0.499535
vt 20.495949 0.884387
vt 20.119747 0.884387
vt 20.119747 0.610140
vt 20.495949 0.610140
vt 14.561490 0.499577
vt 14.561490 -0.009919
vt 20.717325 0.499535
vt 20.717325 -0.010973
vt 14.408835 0.499577
vt 14.408835 -0.009919
vt 20.554684 0.499535
vt 20.554684 -0.010973
vt 14.253552 0.499577
vt 14.253552 -0.009919
vt 20.389254 0.499535
vt 20.389254 -0.010973
vt 14.091017 0.499577
vt 14.091017 -0.009919
vt 20.216084 0.499535
vt 20.216084 -0.010973
vt 13.921687 0.499577
vt 13.921687 -0.009919
vt 20.035681 0.499535
vt 20.035681 -0.010973
vt 13.748822 0.499577
vt 13.748822 -0.009919
vt 19.851509 0.499535
vt 19.851509 -0.010973
vt 19.363482 0.884387
vt 19.200354 0.884387
vt 19.200354 0.610140
vt 19.363482 0.610140
vt 19.523279 0.884387
vt 19.523279 0.610140
vt 19.676668 0.884387
vt 19.676668 0.610140
vt 19.823202 0.884387
vt 19.823202 0.610140
vt 19.967262 0.884387
vt 19.967262 0.610140
vt 20.901197 0.884387
vt 20.901197 0.610140
vt 21.318409 0.884387
vt 21.318409 0.610140
vt 21.730478 0.884387
vt 21.730478 0.610140
vt 22.120316 0.884387
vt 22.120316 0.610140
vt 22.470829 0.884387
vt 22.470829 0.610140
vt 22.773874 0.884387
vt 22.773874 0.610140
vt 22.773874 0.999958
vt 22.470829 0.999958
vt 22.889297 0.884387
vt 22.889297 0.610140
vt 22.984423 0.884387
vt 22.984423 0.610140
vt 23.055544 0.884387
vt 23.055544 0.610140
vt 23.129206 0.884387
vt 23.129206 0.610140
vt 23.203102 0.884387
vt 23.203102 0.610140
vt 23.276207 0.884387
vt 23.276207 0.610140
vt 23.356588 0.884387
vt 23.356588 0.610140
vt 23.356588 0.999958
vt 23.276207 0.999958
vt 23.356588 0.499562
vt 23.276207 0.499562
vt 23.203102 0.999958
vt 23.203102 0.499562
vt 23.129206 0.999958
vt 23.129206 0.499562
vt 23.055544 0.999958
vt 23.055544 0.499562
vt 22.984423 0.999958
vt 22.984423 0.499562
vt 22.889297 0.999958
vt 22.889297 0.499562
vt 22.773874 0.499562
vt 22.470829 0.499562
vt 22.120316 0.999958
vt 22.120316 0.499562
vt 21.730478 0.999958
vt 21.730478 0.499562
vt 21.318409 0.999958
vt 21.318409 0.499562
vt 20.901197 0.999958
vt 20.901197 0.499562
vt 20.495949 0.999958
vt 20.495949 0.499562
vt 20.119747 0.999958
vt 20.119747 0.499562
vt 19.967262 0.999958
vt 19.967262 0.499562
vt 19.823202 0.999958
vt 19.823202 0.499562
vt 19.676668 0.999958
vt 19.676668 0.499562
vt 19.523279 0.999958
vt 19.523279 0.499562
vt 19.363482 0.999958
vt 19.363482 0.499562
vt 19.200354 0.999958
vt 19.200354 0.499562
s 1
f 2/1/1 4/2/1 3/3/1 1/4/1
f 4/2/1 6/5/1 5/6/1 3/3/1
f 6/5/1 8/7/1 7/8/1 5/6/1
f 8/7/1 10/9/1 9/10/1 7/8/1
f 10/9/1 12/11/1 11/12/1 9/10/1
f 12/11/1 14/13/1 13/14/1 11/12/1
f 14/13/1 16/15/1 15/16/1 13/14/1
f 16/15/1 18/17/1 17/18/1 15/16/1
f 18/17/1 20/19/1 19/20/1 17/18/1
f 20/19/1 22/21/1 21/22/1 19/20/1
f 22/21/1 24/23/1 23/24/1 21/22/1
f 24/23/1 26/25/1 25/26/1 23/24/1
f 26/25/1 28/27/1 27/28/1 25/26/1
f 28/27/1 30/29/1 29/30/1 27/28/1
f 30/29/1 32/31/1 31/32/1 29/30/1
f 32/31/1 34/33/1 33/34/1 31/32/1
f 34/33/1 36/35/1 35/36/1 33/34/1
f 36/35/1 38/37/1 37/38/1 35/36/1
f 38/37/1 40/39/1 39/40/1 37/38/1
f 40/39/1 42/41/1 41/42/1 39/40/1
f 42/41/1 44/43/1 43/44/1 41/42/1
f 44/43/1 46/45/1 45/46/1 43/44/1
f 46/45/1 48/47/1 47/48/1 45/46/1
f 48/47/1 50/49/1 49/50/1 47/48/1
f 50/49/1 52/51/1 51/52/1 49/50/1
f 52/51/1 54/53/1 53/54/1 51/52/1
f 54/53/1 56/55/1 55/56/1 53/54/1
f 56/55/1 58/57/1 57/58/1 55/56/1
f 58/57/1 60/59/1 59/60/1 57/58/1
f 60/59/1 62/61/1 61/62/1 59/60/1
f 64/63/2 102/64/3 104/65/4 66/66/5
f 65/67/6 105/68/7 103/69/8 63/70/9
f 66/66/5 104/65/4 106/71/10 68/72/11
f 67/73/12 107/74/13 105/68/7 65/67/6
f 68/72/11 106/71/10 108/75/14 70/76/15
f 69/77/16 109/78/17 107/74/13 67/73/12
f 70/76/15 108/75/14 110/79/18 72/80/19
f 71/81/20 111/82/21 109/78/17 69/77/16
f 72/80/19 110/79/18 112/83/22 74/84/23
f 73/85/24 113/86/25 111/82/21 71/81/20
f 74/84/23 112/83/22 114/87/26 76/88/27
f 75/89/28 115/90/29 113/86/25 73/85/24
f 76/88/27 114/87/26 116/91/30 78/92/31
f 77/93/32 117/94/33 115/90/29 75/89/28
f 79/95/34 119/96/35 117/94/33 77/93/32
f 118/97/36 120/98/37 82/99/38 80/100/39
f 81/101/40 121/102/41 119/96/35 79/95/34
f 120/98/37 122/103/42 83/104/43 82/99/38
f 122/103/42 124/105/44 84/106/44 83/104/43
f 124/105/44 126/107/45 85/108/45 84/106/44
f 126/107/45 128/109/46 87/110/47 85/108/45
f 128/109/46 130/111/48 89/112/49 87/110/47
f 88/113/50 131/114/51 129/115/52 86/116/53
f 171/117/54 173/118/55 172/119/56 170/120/57
f 89/112/49 130/111/48 132/121/58 91/122/59
f 90/123/60 133/124/61 131/114/51 88/113/50
f 91/122/59 132/121/58 134/125/62 93/126/63
f 92/127/64 135/128/65 133/124/61 90/123/60
f 93/126/63 134/125/62 136/129/66 95/130/67
f 94/131/68 137/132/69 135/128/65 92/127/64
f 95/130/67 136/129/66 138/133/70 97/134/71
f 96/135/72 139/136/73 137/132/69 94/131/68
f 97/134/71 138/133/70 140/137/74 99/138/75
f 98/139/76 141/140/77 139/136/73 96/135/72
f 99/138/75 140/137/74 142/141/78 101/142/78
f 100/143/79 143/144/79 141/140/77 98/139/76
f 183/145/80 185/146/81 184/147/82 182/148/83
f 181/149/84 183/145/80 182/148/83 180/150/85
f 179/151/86 181/149/84 180/150/85 178/152/87
f 177/153/88 179/151/86 178/152/87 176/154/89
f 175/155/90 177/153/88 176/154/89 174/156/91
f 173/118/55 175/155/90 174/156/91 172/119/56
f 169/157/92 171/117/54 170/120/57 168/158/93
f 167/159/94 169/157/92 168/158/93 166/160/95
f 165/161/96 167/159/94 166/160/95 164/162/97
f 163/163/98 165/161/96 164/162/97 162/164/99
f 161/165/100 163/163/98 162/164/99 160/166/101
f 159/167/102 161/165/100 160/166/101 158/168/103
f 117/169/104 119/170/105 161/165/100 159/167/102
f 157/171/106 159/167/102 158/168/103 156/172/107
f 155/173/108 157/171/106 156/172/107 154/174/109
f 153/175/110 155/173/108 154/174/109 152/176/111
f 151/177/112 153/175/110 152/176/111 150/178/113
f 149/179/114 151/177/112 150/178/113 148/180/115
f 147/181/116 149/179/114 148/180/115 146/182/117
f 145/183/118 147/181/116 146/182/117 144/184/119
f 145/183/118 103/185/120 105/186/121 147/181/116
f 102/187/122 144/184/119 146/182/117 104/188/123
f 147/181/116 105/186/121 107/189/124 149/179/114
f 104/188/123 146/182/117 148/180/115 106/190/125
f 149/179/114 107/189/124 109/191/126 151/177/112
f 106/190/125 148/180/115 150/178/113 108/192/127
f 151/177/112 109/191/126 111/193/128 153/175/110
f 108/192/127 150/178/113 152/176/111 110/194/129
f 153/175/110 111/193/128 113/195/130 155/173/108
f 110/194/129 152/176/111 154/174/109 112/196/131
f 155/173/108 113/195/130 115/197/132 157/171/106
f 112/196/131 154/174/109 156/172/107 114/198/133
f 157/171/106 115/197/132 117/169/104 159/167/102
f 114/198/133 156/172/107 158/168/103 116/199/134
f 160/166/101 118/200/135 116/199/134 158/168/103
f 119/170/105 121/201/136 163/163/98 161/165/100
f 162/164/99 120/202/137 118/200/135 160/166/101
f 121/201/136 123/203/138 165/161/96 163/163/98
f 164/162/97 122/204/139 120/202/137 162/164/99
f 123/203/138 125/205/140 167/159/94 165/161/96
f 166/160/95 124/206/141 122/204/139 164/162/97
f 125/205/140 127/207/142 169/157/92 167/159/94
f 168/158/93 126/208/143 124/206/141 166/160/95
f 127/207/142 129/209/144 171/117/54 169/157/92
f 170/120/57 128/210/145 126/208/143 168/158/93
f 129/209/144 131/211/146 173/118/55 171/117/54
f 172/119/56 130/212/147 128/210/145 170/120/57
f 173/118/55 131/211/146 133/213/148 175/155/90
f 130/212/147 172/119/56 174/156/91 132/214/149
f 175/155/90 133/213/148 135/215/150 177/153/88
f 132/214/149 174/156/91 176/154/89 134/216/151
f 177/153/88 135/215/150 137/217/152 179/151/86
f 134/216/151 176/154/89 178/152/87 136/218/153
f 179/151/86 137/217/152 139/219/154 181/149/84
f 136/218/153 178/152/87 180/150/85 138/220/155
f 181/149/84 139/219/154 141/221/156 183/145/80
f 138/220/155 180/150/85 182/148/83 140/222/157
f 183/145/80 141/221/156 143/223/158 185/146/81
f 140/222/157 182/148/83 184/147/82 142/224/159
f 116/91/30 118/97/36 80/100/39 78/92/31
