# Blender 4.5.3 LTS
# www.blender.org
o Circuito_castillo.008
v 211.215637 4.771449 -504.497955
v 231.506058 4.046288 -541.462585
v 198.096817 7.267315 -517.605469
v 228.294327 4.695114 -544.106995
v 192.008118 8.823006 -525.578674
v 223.828705 5.886531 -550.164612
v 187.038208 10.209025 -532.518494
v 218.842056 7.279700 -557.126038
v 180.866745 11.867900 -540.340088
v 211.018555 9.374340 -566.992310
v 174.466110 13.409358 -547.171692
v 202.020203 11.532558 -576.547546
v 167.217255 14.921103 -553.366211
v 191.055756 13.809727 -585.865112
v 158.911621 16.374454 -558.692749
v 177.884872 16.106319 -594.268555
v 149.227936 17.753582 -562.945801
v 162.379974 18.309969 -601.056274
v 137.713455 19.043324 -565.864868
v 144.544937 20.307634 -605.581726
v 123.725571 20.189316 -567.059326
v 124.573471 22.025461 -607.328491
v 110.189438 22.350111 -566.319519
v 105.278717 23.215855 -606.329895
v 99.105240 25.058971 -564.105469
v 87.948898 25.359655 -602.849976
v 90.461349 28.074736 -560.795227
v 72.536667 28.433359 -596.909973
v 83.939270 31.252100 -556.699524
v 59.301502 32.317585 -588.598450
v 79.154724 34.521759 -551.981079
v 48.568684 36.816963 -578.152039
v 75.782944 37.880859 -546.638489
v 40.603954 41.669659 -565.971802
v 73.658417 41.344448 -540.582947
v 35.513817 46.595940 -552.545654
v 72.777451 44.895466 -533.748230
v 33.242950 51.348202 -538.339294
v 73.229294 48.465748 -526.153564
v 33.643127 55.729939 -523.732849
v 75.124435 51.945663 -517.904419
v 36.544807 59.586075 -509.020233
v 78.556564 55.202431 -509.163086
v 41.795300 62.784733 -494.438629
v 83.459000 58.035461 -500.327118
v 49.402294 65.261810 -479.989624
v 211.215622 4.771448 -504.497925
v 231.506027 4.046288 -541.462524
v 198.096802 7.267314 -517.605408
v 228.294296 4.695114 -544.106934
v 192.008102 8.823005 -525.578613
v 223.828674 5.886530 -550.164551
v 187.038193 10.209024 -532.518433
v 218.842041 7.279699 -557.125977
v 180.866730 11.867899 -540.340027
v 211.018539 9.374339 -566.992249
v 174.466095 13.409357 -547.171631
v 202.020187 11.532557 -576.547485
v 167.217239 14.921101 -553.366150
v 191.055740 13.809726 -585.865051
v 158.911606 16.374453 -558.692688
v 177.884857 16.106318 -594.268494
v 149.227921 17.753580 -562.945740
v 162.379959 18.309967 -601.056213
v 137.713440 19.043322 -565.864868
v 144.544922 20.307632 -605.581665
v 123.725555 20.189314 -567.059265
v 124.573456 22.025459 -607.328430
v 110.189423 22.350109 -566.319458
v 105.278702 23.215853 -606.329834
v 99.105225 25.058969 -564.105408
v 87.948898 25.359653 -602.849915
v 90.461334 28.074734 -560.795166
v 72.536667 28.433357 -596.909912
v 83.939255 31.252096 -556.699463
v 59.301495 32.317581 -588.598389
v 79.154709 34.521755 -551.981018
v 48.568676 36.816959 -578.151978
v 75.782928 37.880856 -546.638428
v 40.603947 41.669655 -565.971741
v 73.658401 41.344444 -540.582886
v 35.513817 46.595936 -552.545593
v 72.777451 44.895462 -533.748169
v 33.242950 51.348198 -538.339233
v 73.229279 48.465744 -526.153503
v 33.643127 55.729935 -523.732788
v 75.124420 51.945660 -517.904358
v 36.544800 59.586071 -509.020172
v 78.556564 55.202427 -509.163025
v 41.795292 62.784725 -494.438568
v 83.459000 58.035458 -500.327057
v 49.402287 65.261803 -479.989594
v 232.958084 43.094315 -541.938599
v 212.667679 43.819473 -504.973999
v 229.746368 43.743137 -544.583008
v 199.548859 46.315342 -518.081482
v 225.280746 44.934555 -550.640625
v 193.460175 47.871033 -526.054688
v 220.294113 46.327728 -557.602051
v 188.490265 49.257046 -532.994507
v 182.318787 50.915928 -540.816101
v 212.470612 48.422367 -567.468323
v 203.472260 50.580589 -577.023560
v 175.918167 52.457382 -547.647705
v 192.507797 52.857750 -586.341125
v 168.669296 53.969128 -553.842224
v 179.336914 55.154346 -594.744568
v 160.363678 55.422478 -559.168762
v 163.832016 57.357994 -601.532288
v 150.679993 56.801605 -563.421814
v 145.996979 59.355659 -606.057739
v 139.165497 58.091347 -566.340942
v 126.025528 61.073479 -607.804504
v 125.177612 59.237343 -567.535339
v 106.730759 62.263878 -606.805908
v 111.641495 61.398132 -566.795532
v 89.400970 64.407669 -603.325989
v 100.557281 64.106987 -564.581482
v 73.988739 67.481392 -597.385986
v 91.913406 67.122749 -561.271240
v 60.753574 71.365616 -589.074463
v 85.391342 70.300117 -557.175537
v 50.020748 75.864990 -578.628052
v 80.606796 73.569778 -552.457092
v 42.056026 80.717674 -566.447815
v 77.235001 76.928894 -547.114502
v 36.965881 85.643967 -553.021667
v 75.110474 80.392479 -541.058960
v 34.695015 90.396233 -538.815308
v 74.229523 83.943497 -534.224243
v 35.095196 94.777962 -524.208862
v 74.681351 87.513779 -526.629578
v 37.996872 98.634109 -509.496246
v 76.576492 90.993698 -518.380432
v 43.247364 101.832764 -494.914642
v 80.008636 94.250458 -509.639099
v 50.854359 104.309830 -480.465698
v 84.911072 97.083488 -500.803131
v 228.682770 47.951069 -534.150024
v 216.812820 48.232079 -512.525513
v 223.470825 48.917145 -539.075562
v 205.618164 50.285355 -523.407959
v 218.629654 50.214653 -545.501709
v 199.897888 51.793552 -531.028748
v 213.648254 51.604942 -552.459900
v 194.948746 53.195732 -537.991577
v 188.472595 54.963367 -546.255615
v 206.191925 53.590443 -561.918396
v 197.768784 55.590122 -570.943054
v 181.580734 56.659615 -553.684631
v 187.614746 57.668243 -579.670410
v 173.609665 58.365471 -560.577332
v 175.483246 59.743214 -587.518738
v 164.334412 60.038528 -566.614136
v 161.193451 61.725185 -593.886536
v 153.463272 61.643803 -571.486877
v 144.645599 63.521812 -598.201050
v 140.629364 63.146049 -574.851440
v 125.860580 65.059059 -599.971130
v 125.362076 64.493439 -576.295654
v 107.692078 66.464676 -598.973572
v 110.579453 66.413551 -575.448608
v 91.590042 68.729210 -595.723572
v 98.157440 68.973969 -572.915833
v 77.499420 71.783623 -590.312622
v 88.068024 71.989052 -569.018921
v 65.552902 75.506851 -582.860657
v 80.103226 75.320488 -564.022156
v 55.931614 79.735779 -573.570435
v 74.018478 78.873009 -558.094421
v 48.792904 84.267380 -562.745361
v 69.612869 82.586853 -551.303406
v 44.206867 88.885002 -550.750793
v 66.788971 86.408440 -543.668701
v 42.147549 93.388237 -537.949890
v 65.548141 90.262756 -535.232422
v 42.527836 97.605728 -524.663330
v 65.943054 94.045296 -526.095215
v 45.239155 101.390717 -511.163971
v 68.032608 97.629829 -516.412903
v 50.174473 104.610771 -497.689209
v 71.859940 100.879837 -506.375183
v 57.308338 107.171104 -484.319763
v 77.377914 103.620056 -496.304596
vn 0.1358 0.9891 0.0567
vn 0.1438 0.9873 0.0673
vn 0.1440 0.9873 0.0676
vn 0.1542 0.9847 0.0817
vn 0.1542 0.9847 0.0816
vn 0.1564 0.9840 0.0849
vn 0.1542 0.9846 0.0823
vn 0.1480 0.9861 0.0758
vn 0.1382 0.9881 0.0676
vn 0.1247 0.9904 0.0590
vn 0.1080 0.9928 0.0518
vn 0.0895 0.9949 0.0475
vn 0.0915 0.9951 0.0373
vn 0.1339 0.9910 0.0047
vn 0.1910 0.9804 -0.0474
vn 0.2360 0.9658 -0.1076
vn 0.2633 0.9493 -0.1717
vn 0.2694 0.9344 -0.2330
vn 0.2556 0.9241 -0.2840
vn 0.2267 0.9203 -0.3189
vn 0.1895 0.9230 -0.3349
vn 0.1505 0.9311 -0.3323
vn 0.1147 0.9428 -0.3129
vn 0.0856 0.9564 -0.2792
vn 0.0732 0.9631 -0.2590
vn -0.6313 0.0329 0.7748
vn -0.7290 0.0354 0.6836
vn -0.7139 0.0351 0.6994
vn 0.7449 -0.0358 -0.6662
vn 0.7521 -0.0360 -0.6581
vn 0.7031 -0.0348 -0.7103
vn -0.8052 0.0372 0.5918
vn -0.8045 0.0371 0.5928
vn 0.7991 -0.0370 -0.6001
vn 0.8008 -0.0371 -0.5978
vn -0.7929 0.0369 0.6083
vn -0.7957 0.0370 0.6046
vn 0.7964 -0.0370 -0.6037
vn 0.7937 -0.0369 -0.6072
vn -0.7547 0.0361 0.6551
vn -0.7494 0.0359 0.6611
vn -0.6808 0.0342 0.7317
vn -0.6880 0.0344 0.7249
vn 0.6899 -0.0345 -0.7231
vn 0.6827 -0.0343 -0.7299
vn 0.7510 -0.0360 -0.6593
vn 0.7563 -0.0361 -0.6532
vn -0.5854 0.0316 0.8101
vn -0.5943 0.0319 0.8036
vn 0.5964 -0.0320 -0.8021
vn 0.5874 -0.0317 -0.8087
vn -0.4624 0.0280 0.8862
vn -0.4720 0.0283 0.8811
vn 0.4736 -0.0283 -0.8803
vn 0.4639 -0.0280 -0.8855
vn -0.3175 0.0234 0.9480
vn -0.3261 0.0236 0.9450
vn 0.3266 -0.0237 -0.9449
vn 0.3179 -0.0234 -0.9478
vn -0.1621 0.0181 0.9866
vn -0.1684 0.0183 0.9856
vn 0.1672 -0.0182 -0.9857
vn 0.1611 -0.0180 -0.9868
vn -0.0152 0.0128 0.9998
vn -0.0184 0.0129 0.9997
vn 0.0177 -0.0128 -0.9998
vn 0.0102 -0.0126 -0.9999
vn 0.1276 0.0073 0.9918
vn 0.1227 0.0075 0.9924
vn -0.1196 -0.0077 -0.9928
vn -0.1338 -0.0071 -0.9910
vn 0.2851 0.0011 0.9585
vn 0.2734 0.0016 0.9619
vn -0.2656 -0.0019 -0.9641
vn -0.2897 -0.0009 -0.9571
vn 0.4559 -0.0061 0.8900
vn 0.4368 -0.0053 0.8995
vn -0.4271 0.0049 -0.9042
vn -0.4616 0.0064 -0.8871
vn 0.6270 -0.0138 0.7789
vn 0.6027 -0.0127 0.7979
vn -0.5945 0.0123 -0.8040
vn -0.6359 0.0142 -0.7717
vn 0.7794 -0.0213 0.6262
vn 0.7551 -0.0201 0.6553
vn -0.7515 0.0199 -0.6594
vn -0.7914 0.0220 -0.6109
vn 0.8959 -0.0279 0.4434
vn 0.8770 -0.0268 0.4797
vn -0.8782 0.0268 -0.4776
vn -0.9077 0.0286 -0.4187
vn 0.9680 -0.0330 0.2489
vn 0.9575 -0.0321 0.2867
vn -0.9603 0.0323 -0.2770
vn -0.9755 0.0336 -0.2173
vn 0.9976 -0.0364 0.0594
vn 0.9949 -0.0359 0.0938
vn -0.9963 0.0361 -0.0785
vn -0.9990 0.0368 -0.0254
vn 0.9927 -0.0383 -0.1144
vn 0.9955 -0.0381 -0.0863
vn -0.9938 0.0382 0.1040
vn -0.9883 0.0385 0.1473
vn 0.9624 -0.0391 -0.2687
vn 0.9681 -0.0390 -0.2475
vn -0.9635 0.0391 0.2647
vn -0.9538 0.0391 0.2980
vn 0.9139 -0.0389 -0.4042
vn 0.9203 -0.0390 -0.3892
vn -0.9144 0.0389 0.4030
vn -0.9034 0.0388 0.4271
vn 0.8869 -0.0386 -0.4603
vn -0.8790 0.0385 0.4753
vn 0.0493 -0.9701 -0.2376
vn 0.0374 -0.9689 -0.2447
vn -0.3320 -0.9397 0.0819
vn -0.3410 -0.9379 0.0637
vn -0.2499 -0.8961 0.3669
vn -0.2276 -0.9065 0.3555
vn 0.1733 -0.9790 0.1078
vn 0.1744 -0.9744 0.1417
vn -0.2858 -0.8821 0.3745
vn 0.1611 -0.9633 0.2145
vn -0.3270 -0.8712 0.3661
vn 0.1346 -0.9509 0.2786
vn -0.3696 -0.8652 0.3387
vn 0.0970 -0.9389 0.3303
vn -0.4078 -0.8660 0.2895
vn 0.0519 -0.9290 0.3664
vn -0.4332 -0.8746 0.2175
vn 0.0045 -0.9233 0.3841
vn -0.4364 -0.8909 0.1259
vn -0.0388 -0.9230 0.3829
vn -0.4097 -0.9119 0.0241
vn -0.0714 -0.9283 0.3650
vn -0.3525 -0.9328 -0.0750
vn -0.0889 -0.9379 0.3353
vn -0.2720 -0.9489 -0.1599
vn -0.0904 -0.9497 0.2999
vn -0.1790 -0.9578 -0.2251
vn -0.0783 -0.9614 0.2638
vn -0.0944 -0.9609 -0.2603
vn -0.0854 -0.9677 0.2374
vn -0.0492 -0.9621 -0.2681
vn -0.1318 -0.9661 0.2219
vn -0.0308 -0.9631 -0.2672
vn -0.1901 -0.9606 0.2026
vn -0.0114 -0.9644 -0.2641
vn -0.2421 -0.9545 0.1740
vn 0.0071 -0.9659 -0.2589
vn -0.2834 -0.9486 0.1410
vn 0.0236 -0.9674 -0.2522
vn -0.3129 -0.9435 0.1089
vn 0.0582 -0.9700 -0.2362
vn -0.3381 -0.9393 0.0592
vn 0.0636 -0.9680 -0.2429
vn -0.3059 -0.9482 0.0856
vn 0.0840 -0.9602 -0.2665
vn -0.2683 -0.9580 0.1015
vn 0.2269 -0.8887 -0.3985
vn 0.2418 -0.8906 -0.3852
vn -0.4319 -0.8509 0.2991
vn -0.4667 -0.8460 0.2578
vn 0.2596 -0.8927 -0.3683
vn -0.5077 -0.8370 0.2041
vn 0.2544 -0.8918 -0.3741
vn -0.5050 -0.8378 0.2073
vn 0.2349 -0.8881 -0.3951
vn -0.4859 -0.8420 0.2343
vn -0.4523 -0.8485 0.2747
vn 0.2062 -0.8832 -0.4213
vn 0.1678 -0.8773 -0.4496
vn -0.4030 -0.8566 0.3221
vn 0.1192 -0.8711 -0.4765
vn -0.3363 -0.8658 0.3705
vn 0.0626 -0.8651 -0.4977
vn -0.2540 -0.8750 0.4121
vn 0.0034 -0.8599 -0.5104
vn -0.1630 -0.8831 0.4399
vn -0.0868 -0.8577 -0.5068
vn -0.0769 -0.8862 0.4569
vn -0.2123 -0.8563 -0.4709
vn -0.0273 -0.8796 0.4749
vn -0.3392 -0.8511 -0.4006
vn -0.0026 -0.8695 0.4940
vn -0.4577 -0.8369 -0.3003
vn 0.0348 -0.8621 0.5056
vn -0.5527 -0.8151 -0.1736
vn 0.0852 -0.8590 0.5048
vn -0.6117 -0.7904 -0.0332
vn 0.1452 -0.8612 0.4870
vn -0.6312 -0.7687 0.1031
vn 0.2092 -0.8687 0.4490
vn -0.6183 -0.7543 0.2209
vn 0.2698 -0.8801 0.3907
vn -0.5845 -0.7484 0.3135
vn 0.3207 -0.8934 0.3147
vn -0.5404 -0.7502 0.3810
vn 0.3574 -0.9064 0.2251
vn -0.4932 -0.7581 0.4266
vn 0.3773 -0.9174 0.1266
vn -0.4477 -0.7706 0.4536
vn 0.3795 -0.9249 0.0237
vn -0.4241 -0.7782 0.4632
vn 0.3751 -0.9265 -0.0310
vt -5.446357 0.499346
vt -5.588304 0.499345
vt -5.588304 0.000003
vt -5.446357 0.000004
vt -5.698353 0.499346
vt -5.698353 0.000004
vt -5.805627 0.499346
vt -5.805627 0.000003
vt -5.947217 0.499345
vt -6.088338 0.499346
vt -6.088338 0.000003
vt -5.947217 0.000003
vt -6.238331 0.499346
vt -6.238331 0.000003
vt -6.397878 0.499346
vt -6.397878 0.000003
vt -6.569622 0.499346
vt -6.569622 0.000003
vt -6.758224 0.499346
vt -6.758224 0.000004
vt -6.970048 0.499346
vt -6.970048 0.000004
vt -7.174922 0.499346
vt -7.174922 0.000004
vt -7.357156 0.499346
vt -7.357156 0.000004
vt -7.521479 0.499346
vt -7.521479 0.000004
vt -7.672791 0.499346
vt -7.672791 0.000004
vt -7.815908 0.499346
vt -7.815908 0.000004
vt -7.955214 0.499346
vt -7.955214 0.000004
vt -8.094375 0.499346
vt -8.094375 0.000004
vt -8.236205 0.499346
vt -8.236205 0.000004
vt -8.382711 0.499346
vt -8.382711 0.000004
vt -8.535264 0.499346
vt -8.535264 0.000004
vt -8.694809 0.499346
vt -8.694809 0.000004
vt -8.862069 0.499346
vt -8.862069 0.000004
vt -10.983096 -0.009918
vt -10.983096 0.499577
vt -11.130380 0.499577
vt -11.130381 -0.009918
vt -6.653977 0.499536
vt -6.653977 -0.010973
vt -6.497066 -0.010973
vt -6.497066 0.499536
vt -11.244521 0.499579
vt -11.244523 -0.009918
vt -6.775580 0.499536
vt -6.775580 -0.010973
vt -11.355738 0.499579
vt -11.355740 -0.009918
vt -6.894066 0.499536
vt -6.894066 -0.010973
vt -11.502501 -0.009918
vt -11.502501 0.499579
vt -11.648779 0.499579
vt -11.648779 -0.009918
vt -7.206262 0.499536
vt -7.206262 -0.010973
vt -7.050420 -0.010973
vt -7.050420 0.499536
vt -11.804281 0.499579
vt -11.804282 -0.009918
vt -7.371929 0.499536
vt -7.371929 -0.010973
vt -11.969735 0.499579
vt -11.969735 -0.009918
vt -7.548197 0.499536
vt -7.548197 -0.010973
vt -12.147902 0.499579
vt -12.147900 -0.009918
vt -7.738008 0.499536
vt -7.738008 -0.010973
vt -12.343617 0.499579
vt -12.343617 -0.009918
vt -7.946520 0.499536
vt -7.946520 -0.010973
vt -12.563466 0.499579
vt -12.563468 -0.009918
vt -8.180738 0.499536
vt -8.180738 -0.010973
vt -12.776066 0.499579
vt -12.776066 -0.009918
vt -8.407235 0.499536
vt -8.407235 -0.010973
vt -12.965173 0.499579
vt -12.965175 -0.009918
vt -8.608705 0.499536
vt -8.608705 -0.010973
vt -13.135723 0.499579
vt -13.135724 -0.009918
vt -8.790401 0.499536
vt -8.790401 -0.010973
vt -13.292812 0.499579
vt -13.292812 -0.009918
vt -8.957755 0.499536
vt -8.957755 -0.010973
vt -13.441445 0.499579
vt -13.441446 -0.009918
vt -9.116104 0.499538
vt -9.116104 -0.010973
vt -13.586177 0.499579
vt -13.586177 -0.009918
vt -9.270293 0.499536
vt -9.270293 -0.010973
vt -13.730798 0.499579
vt -13.730800 -0.009918
vt -9.424371 0.499538
vt -9.424371 -0.010973
vt -13.878216 0.499579
vt -13.878217 -0.009918
vt -9.581424 0.499536
vt -9.581424 -0.010973
vt -14.030491 0.499579
vt -14.030491 -0.009918
vt -9.743653 0.499538
vt -9.743651 -0.010973
vt -14.189027 0.499579
vt -14.189027 -0.009918
vt -9.912548 0.499536
vt -9.912547 -0.010973
vt -14.354781 0.499579
vt -14.354781 -0.009918
vt -10.089137 0.499536
vt -10.089136 -0.010973
vt -14.528531 0.499579
vt -14.528531 -0.009918
vt -10.274240 0.499536
vt -10.274240 -0.010973
vt -4.490402 0.884387
vt -4.628894 0.884387
vt -4.628895 0.610142
vt -4.490402 0.610142
vt -7.320463 0.884387
vt -7.484420 0.884387
vt -7.484420 0.610142
vt -7.320463 0.610142
vt -7.164049 0.884387
vt -7.164049 0.610142
vt -7.014451 0.884387
vt -7.014451 0.610142
vt -6.870756 0.884387
vt -6.870757 0.610142
vt -6.731645 0.884387
vt -6.731646 0.610142
vt -6.595171 0.884387
vt -6.595171 0.610142
vt -6.458596 0.884387
vt -6.458597 0.610142
vt -6.318337 0.884387
vt -6.318337 0.610142
vt -6.170101 0.884387
vt -6.170101 0.610142
vt -6.009161 0.884387
vt -6.009161 0.610142
vt -5.830708 0.884387
vt -5.830709 0.610142
vt -5.630087 0.884387
vt -5.630087 0.610142
vt -5.422624 0.884387
vt -5.422625 0.610142
vt -5.237934 0.884387
vt -5.237934 0.610142
vt -5.069806 0.884387
vt -5.069806 0.610142
vt -4.913674 0.884387
vt -4.913674 0.610142
vt -4.766932 0.884387
vt -4.766932 0.610142
vt -4.385449 0.884387
vt -4.385450 0.610142
vt -4.277740 0.884387
vt -4.277740 0.610142
vt -4.138754 0.884387
vt -4.138754 0.610142
vt -4.138754 0.999960
vt -4.277740 0.999960
vt -4.138754 0.499563
vt -4.277740 0.499563
vt -4.385449 0.999960
vt -4.385449 0.499563
vt -4.490402 0.999960
vt -4.490402 0.499563
vt -4.628894 0.999960
vt -4.628894 0.499563
vt -4.766932 0.499563
vt -4.766932 0.999960
vt -4.913675 0.999960
vt -4.913674 0.499563
vt -5.069807 0.999960
vt -5.069806 0.499563
vt -5.237935 0.999960
vt -5.237934 0.499563
vt -5.422624 0.999960
vt -5.422624 0.499563
vt -5.630088 0.999960
vt -5.630087 0.499563
vt -5.830708 0.999960
vt -5.830708 0.499563
vt -6.009162 0.999960
vt -6.009161 0.499563
vt -6.170101 0.999960
vt -6.170101 0.499563
vt -6.318339 0.999960
vt -6.318337 0.499563
vt -6.458596 0.999960
vt -6.458596 0.499563
vt -6.595172 0.999960
vt -6.595171 0.499563
vt -6.731645 0.999960
vt -6.731645 0.499563
vt -6.870756 0.999960
vt -6.870756 0.499563
vt -7.014449 0.999960
vt -7.014451 0.499563
vt -7.164049 0.999960
vt -7.164049 0.499563
vt -7.320463 0.999960
vt -7.320463 0.499563
vt -7.484419 0.999960
vt -7.484420 0.499563
s 1
f 2/1/1 4/2/2 3/3/3 1/4/1
f 4/2/2 6/5/4 5/6/5 3/3/3
f 6/5/4 8/7/6 7/8/6 5/6/5
f 10/9/7 12/10/8 11/11/8 9/12/7
f 12/10/8 14/13/9 13/14/9 11/11/8
f 14/13/9 16/15/10 15/16/10 13/14/9
f 16/15/10 18/17/11 17/18/11 15/16/10
f 18/17/11 20/19/12 19/20/12 17/18/11
f 20/19/12 22/21/13 21/22/13 19/20/12
f 22/21/13 24/23/14 23/24/14 21/22/13
f 24/23/14 26/25/15 25/26/15 23/24/14
f 26/25/15 28/27/16 27/28/16 25/26/15
f 28/27/16 30/29/17 29/30/17 27/28/16
f 30/29/17 32/31/18 31/32/18 29/30/17
f 32/31/18 34/33/19 33/34/19 31/32/18
f 34/33/19 36/35/20 35/36/20 33/34/19
f 36/35/20 38/37/21 37/38/21 35/36/20
f 38/37/21 40/39/22 39/40/22 37/38/21
f 40/39/22 42/41/23 41/42/23 39/40/22
f 42/41/23 44/43/24 43/44/24 41/42/23
f 44/43/24 46/45/25 45/46/25 43/44/24
f 8/7/6 10/9/7 9/12/7 7/8/6
f 48/47/26 93/48/26 95/49/27 50/50/28
f 49/51/29 96/52/30 94/53/31 47/54/31
f 50/50/28 95/49/27 97/55/32 52/56/33
f 51/57/34 98/58/35 96/52/30 49/51/29
f 52/56/33 97/55/32 99/59/36 54/60/37
f 53/61/38 100/62/39 98/58/35 51/57/34
f 56/63/40 102/64/41 103/65/42 58/66/43
f 57/67/44 104/68/45 101/69/46 55/70/47
f 58/66/43 103/65/42 105/71/48 60/72/49
f 59/73/50 106/74/51 104/68/45 57/67/44
f 60/72/49 105/71/48 107/75/52 62/76/53
f 61/77/54 108/78/55 106/74/51 59/73/50
f 62/76/53 107/75/52 109/79/56 64/80/57
f 63/81/58 110/82/59 108/78/55 61/77/54
f 64/80/57 109/79/56 111/83/60 66/84/61
f 65/85/62 112/86/63 110/82/59 63/81/58
f 66/84/61 111/83/60 113/87/64 68/88/65
f 67/89/66 114/90/67 112/86/63 65/85/62
f 68/88/65 113/87/64 115/91/68 70/92/69
f 69/93/70 116/94/71 114/90/67 67/89/66
f 70/92/69 115/91/68 117/95/72 72/96/73
f 71/97/74 118/98/75 116/94/71 69/93/70
f 72/96/73 117/95/72 119/99/76 74/100/77
f 73/101/78 120/102/79 118/98/75 71/97/74
f 74/100/77 119/99/76 121/103/80 76/104/81
f 75/105/82 122/106/83 120/102/79 73/101/78
f 76/104/81 121/103/80 123/107/84 78/108/85
f 77/109/86 124/110/87 122/106/83 75/105/82
f 78/108/85 123/107/84 125/111/88 80/112/89
f 79/113/90 126/114/91 124/110/87 77/109/86
f 80/112/89 125/111/88 127/115/92 82/116/93
f 81/117/94 128/118/95 126/114/91 79/113/90
f 82/116/93 127/115/92 129/119/96 84/120/97
f 83/121/98 130/122/99 128/118/95 81/117/94
f 84/120/97 129/119/96 131/123/100 86/124/101
f 54/60/37 99/59/36 102/64/41 56/63/40
f 55/70/47 101/69/46 100/62/39 53/61/38
f 85/125/102 132/126/103 130/122/99 83/121/98
f 86/124/101 131/123/100 133/127/104 88/128/105
f 87/129/106 134/130/107 132/126/103 85/125/102
f 88/128/105 133/127/104 135/131/108 90/132/109
f 89/133/110 136/134/111 134/130/107 87/129/106
f 90/132/109 135/131/108 137/135/112 92/136/112
f 91/137/113 138/138/113 136/134/111 89/133/110
f 146/139/114 147/140/115 148/141/116 145/142/117
f 182/143/118 184/144/119 183/145/120 181/146/121
f 180/147/122 182/143/118 181/146/121 179/148/123
f 178/149/124 180/147/122 179/148/123 177/150/125
f 176/151/126 178/149/124 177/150/125 175/152/127
f 174/153/128 176/151/126 175/152/127 173/154/129
f 172/155/130 174/153/128 173/154/129 171/156/131
f 170/157/132 172/155/130 171/156/131 169/158/133
f 168/159/134 170/157/132 169/158/133 167/160/135
f 166/161/136 168/159/134 167/160/135 165/162/137
f 164/163/138 166/161/136 165/162/137 163/164/139
f 162/165/140 164/163/138 163/164/139 161/166/141
f 160/167/142 162/165/140 161/166/141 159/168/143
f 158/169/144 160/167/142 159/168/143 157/170/145
f 156/171/146 158/169/144 157/170/145 155/172/147
f 154/173/148 156/171/146 155/172/147 153/174/149
f 152/175/150 154/173/148 153/174/149 151/176/151
f 150/177/152 152/175/150 151/176/151 149/178/153
f 147/140/115 150/177/152 149/178/153 148/141/116
f 144/179/154 146/139/114 145/142/117 143/180/155
f 142/181/156 144/179/154 143/180/155 141/182/157
f 140/183/158 142/181/156 141/182/157 139/184/159
f 140/183/158 94/185/160 96/186/161 142/181/156
f 93/187/162 139/184/159 141/182/157 95/188/163
f 142/181/156 96/186/161 98/189/164 144/179/154
f 95/188/163 141/182/157 143/180/155 97/190/165
f 144/179/154 98/189/164 100/191/166 146/139/114
f 97/190/165 143/180/155 145/142/117 99/192/167
f 146/139/114 100/191/166 101/193/168 147/140/115
f 99/192/167 145/142/117 148/141/116 102/194/169
f 102/194/169 148/141/116 149/178/153 103/195/170
f 147/140/115 101/193/168 104/196/171 150/177/152
f 150/177/152 104/196/171 106/197/172 152/175/150
f 103/195/170 149/178/153 151/176/151 105/198/173
f 152/175/150 106/197/172 108/199/174 154/173/148
f 105/198/173 151/176/151 153/174/149 107/200/175
f 154/173/148 108/199/174 110/201/176 156/171/146
f 107/200/175 153/174/149 155/172/147 109/202/177
f 156/171/146 110/201/176 112/203/178 158/169/144
f 109/202/177 155/172/147 157/170/145 111/204/179
f 158/169/144 112/203/178 114/205/180 160/167/142
f 111/204/179 157/170/145 159/168/143 113/206/181
f 160/167/142 114/205/180 116/207/182 162/165/140
f 113/206/181 159/168/143 161/166/141 115/208/183
f 162/165/140 116/207/182 118/209/184 164/163/138
f 115/208/183 161/166/141 163/164/139 117/210/185
f 164/163/138 118/209/184 120/211/186 166/161/136
f 117/210/185 163/164/139 165/162/137 119/212/187
f 166/161/136 120/211/186 122/213/188 168/159/134
f 119/212/187 165/162/137 167/160/135 121/214/189
f 168/159/134 122/213/188 124/215/190 170/157/132
f 121/214/189 167/160/135 169/158/133 123/216/191
f 170/157/132 124/215/190 126/217/192 172/155/130
f 123/216/191 169/158/133 171/156/131 125/218/193
f 172/155/130 126/217/192 128/219/194 174/153/128
f 125/218/193 171/156/131 173/154/129 127/220/195
f 174/153/128 128/219/194 130/221/196 176/151/126
f 127/220/195 173/154/129 175/152/127 129/222/197
f 176/151/126 130/221/196 132/223/198 178/149/124
f 129/222/197 175/152/127 177/150/125 131/224/199
f 178/149/124 132/223/198 134/225/200 180/147/122
f 131/224/199 177/150/125 179/148/123 133/226/201
f 180/147/122 134/225/200 136/227/202 182/143/118
f 133/226/201 179/148/123 181/146/121 135/228/203
f 182/143/118 136/227/202 138/229/204 184/144/119
f 135/228/203 181/146/121 183/145/120 137/230/205
