# Blender 4.5.3 LTS
# www.blender.org
o Tela
v 8.426920 -0.594933 9.026263
v 0.143870 -0.592155 12.383584
v 12.615320 -0.473199 0.000000
v 0.143870 8.111836 -0.000001
v 3.740766 -0.591690 11.793386
v 11.470365 -0.567668 4.884980
v 0.143870 3.691643 5.337862
v 4.936881 3.669370 -0.000000
v 4.565161 1.778395 5.382250
v 6.287305 -0.590998 10.613770
v 12.253080 -0.478408 2.490338
v 0.143870 5.728356 2.721242
v 2.781942 5.402141 -0.000000
v 1.938645 -0.590830 12.117387
v 10.038727 -0.604147 7.091889
v 0.143870 1.516271 9.215568
v 8.645300 1.437519 -0.000000
v 4.900639 2.682441 2.767647
v 4.392741 0.800195 8.725533
v 2.656945 2.744722 5.425728
v 7.474394 0.586165 5.237817
v 7.018367 0.134152 7.874318
v 2.444289 1.183462 8.930102
v 2.773075 4.075601 2.756229
v 8.008134 0.790180 2.618914
v -8.139192 -0.594933 9.026263
v -12.327590 -0.473525 0.000000
v -3.453037 -0.591690 11.793386
v -11.182635 -0.567895 4.884980
v -4.649152 3.869727 -0.000000
v -4.277432 1.586173 5.382250
v -5.999576 -0.590998 10.613770
v -11.965352 -0.478725 2.490338
v -2.494213 5.480655 -0.000000
v -1.650916 -0.590830 12.117387
v -9.750998 -0.604216 7.091889
v -8.357571 1.461977 -0.000000
v -4.612910 2.887178 2.767647
v -4.105012 0.670700 8.725533
v -2.369216 2.604530 5.425728
v -7.186665 0.496698 5.237817
v -6.730639 0.039218 7.874318
v -2.156560 1.120232 8.930102
v -2.485345 4.226836 2.756229
v -7.720405 0.873855 2.618914
v 8.426920 -0.594934 -9.026263
v 0.143870 -0.592157 -12.383584
v 3.740766 -0.591692 -11.793386
v 11.470365 -0.567669 -4.884980
v 0.143870 3.696704 -5.337863
v 4.565161 1.582910 -5.382250
v 6.287305 -0.591000 -10.613770
v 12.253080 -0.478409 -2.490338
v 0.143870 5.731431 -2.721243
v 1.938645 -0.590832 -12.117387
v 10.038727 -0.604148 -7.091889
v 0.143870 1.370759 -9.166386
v 4.900639 2.883796 -2.767647
v 4.392741 0.670698 -8.725533
v 2.656945 2.603036 -5.425728
v 7.474394 0.493820 -5.237817
v 7.018367 0.039217 -7.874318
v 2.444289 1.116622 -8.928857
v 2.773075 4.227913 -2.756229
v 8.008134 0.868041 -2.618914
v -8.139192 -0.594934 -9.026263
v -3.453037 -0.591692 -11.793386
v -11.182635 -0.567896 -4.884980
v -4.277432 1.586262 -5.382250
v -5.999576 -0.591000 -10.613770
v -11.965352 -0.478725 -2.490338
v -1.650916 -0.590832 -12.117387
v -9.750998 -0.604217 -7.091889
v -4.612910 2.887197 -2.767647
v -4.105012 0.670698 -8.725533
v -2.369216 2.604668 -5.425728
v -7.186665 0.496697 -5.237817
v -6.730639 0.039217 -7.874318
v -2.156560 1.116632 -8.928857
v -2.485345 4.226806 -2.756229
v -7.720405 0.873854 -2.618914
v 10.225966 -0.575705 6.803289
v 8.695174 -3.758678 8.705970
v 6.833530 -0.557406 10.211553
v 6.833530 -0.557406 10.211553
v 4.710810 -3.752015 11.351506
v 2.409688 -0.556368 12.035769
v 2.409688 -0.556368 12.035769
v 0.016678 -3.752015 12.371662
v -2.374949 -0.556368 11.990273
v -2.374949 -0.556368 11.990273
v -4.656032 -3.752015 11.243591
v -6.751636 -0.557791 10.058806
v -6.751636 -0.557791 10.058806
v -8.572204 -3.760221 8.508291
v -10.082403 -0.575794 6.581440
v -10.082403 -0.575794 6.581440
v -11.408468 -3.747191 4.352022
v -12.137554 -0.410037 2.097195
v -12.137554 -0.410037 2.097195
v -12.501049 -3.456774 -0.136247
v -12.082520 -0.431510 -2.397341
v -12.082520 -0.431510 -2.397341
v -11.289858 -3.766044 -4.677781
v -9.902718 -0.575676 -6.857909
v -9.902718 -0.575676 -6.857909
v -8.366854 -3.758294 -8.754667
v -6.495106 -0.557309 -10.249179
v -6.495106 -0.557309 -10.249179
v -4.365703 -3.752017 -11.378090
v -2.059649 -0.556370 -12.046969
v -2.059649 -0.556370 -12.046969
v 0.333699 -3.752017 -12.362369
v 2.724989 -0.556370 -11.979073
v 2.724989 -0.556370 -11.979073
v 5.001139 -3.752017 -11.217009
v 7.090060 -0.557892 -10.021190
v 7.090060 -0.557892 -10.021190
v 8.900504 -3.760607 -8.459594
v 10.405623 -0.575815 -6.526791
v 10.405614 -0.575815 -6.526801
v 11.719548 -3.743445 -4.287614
v 12.433933 -0.405668 -2.038423
v 12.433933 -0.405668 -2.038423
v 12.779486 -3.461311 0.190096
v 12.348499 -0.435207 2.459138
v 12.348499 -0.435207 2.459138
v 11.554068 -3.769761 4.742119
v 10.154917 -0.575656 6.912539
vn 0.3990 0.8899 0.2208
vn 0.3280 0.9304 0.1635
vn 0.3672 0.9301 0.0063
vn 0.4433 0.8963 0.0132
vn 0.4925 0.7629 0.4190
vn 0.4930 0.8099 0.3180
vn 0.5602 0.8281 0.0222
vn 0.6108 0.7917 0.0142
vn 0.2189 0.8674 0.4468
vn 0.2769 0.8880 0.3671
vn 0.4003 0.8626 0.3095
vn 0.3594 0.8341 0.4185
vn 0.2939 0.9159 0.2735
vn 0.2798 0.9345 0.2201
vn 0.2865 0.9454 0.1553
vn 0.3482 0.9122 0.2158
vn 0.1929 0.8763 0.4414
vn 0.2637 0.8956 0.3584
vn 0.2580 0.9272 0.2714
vn -0.0121 0.8706 0.4919
vn -0.0054 0.8574 0.5147
vn -0.0062 0.8500 0.5267
vn 0.1455 0.8527 0.5018
vn 0.0098 0.8294 0.5585
vn 0.0073 1.0000 0.0038
vn -0.4085 0.8791 0.2456
vn -0.4571 0.8894 -0.0000
vn -0.3740 0.9274 -0.0000
vn -0.3342 0.9267 0.1719
vn -0.4754 0.7585 0.4457
vn -0.5946 0.8040 0.0001
vn -0.5589 0.8292 -0.0000
vn -0.4898 0.7947 0.3585
vn -0.2408 0.8686 0.4331
vn -0.3671 0.8190 0.4410
vn -0.3953 0.8520 0.3432
vn -0.2767 0.8964 0.3463
vn -0.2704 0.9288 0.2534
vn -0.3349 0.9106 0.2421
vn -0.2786 0.9444 0.1746
vn -0.2549 0.9445 0.2074
vn -0.1959 0.8875 0.4171
vn -0.2442 0.9131 0.3266
vn -0.2286 0.9435 0.2399
vn -0.1583 0.8573 0.4899
vn 0.4045 0.8834 -0.2364
vn 0.3321 0.9279 -0.1694
vn 0.4856 0.7593 -0.4332
vn 0.4931 0.7998 -0.3423
vn 0.2250 0.8723 -0.4342
vn 0.3601 0.8191 -0.4466
vn 0.3955 0.8521 -0.3429
vn 0.2763 0.8966 -0.3460
vn 0.2703 0.9289 -0.2530
vn 0.3347 0.9109 -0.2415
vn 0.2778 0.9448 -0.1738
vn 0.2545 0.9447 -0.2068
vn 0.1953 0.8878 -0.4167
vn 0.2442 0.9131 -0.3266
vn 0.2286 0.9435 -0.2399
vn 0.0001 0.8737 -0.4864
vn 0.0001 0.8481 -0.5298
vn -0.0000 0.8637 -0.5040
vn 0.1364 0.8669 -0.4794
vn 0.0034 0.8283 -0.5602
vn -0.4085 0.8791 -0.2456
vn -0.3342 0.9267 -0.1719
vn -0.4758 0.7584 -0.4455
vn -0.4898 0.7947 -0.3585
vn -0.2248 0.8722 -0.4344
vn -0.2763 0.8965 -0.3463
vn -0.3951 0.8521 -0.3433
vn -0.3597 0.8192 -0.4467
vn -0.2704 0.9288 -0.2534
vn -0.2549 0.9445 -0.2074
vn -0.2786 0.9444 -0.1746
vn -0.3350 0.9106 -0.2421
vn -0.1953 0.8878 -0.4167
vn -0.2442 0.9131 -0.3266
vn -0.2286 0.9435 -0.2399
vn -0.1364 0.8669 -0.4794
vn 0.7067 0.0803 0.7030
vn 0.3801 0.0763 0.9218
vn -0.0094 0.1115 0.9937
vn -0.4026 0.0742 0.9123
vn -0.7203 0.0756 0.6895
vn -0.9046 0.0846 0.4177
vn -0.9917 0.1277 -0.0128
vn -0.8938 0.0882 -0.4396
vn -0.7033 0.0815 -0.7062
vn -0.3745 0.0769 -0.9240
vn 0.0141 0.1087 -0.9940
vn 0.4082 0.0737 -0.9099
vn 0.7236 0.0745 -0.6862
vn 0.9068 0.0842 -0.4130
vn 0.9918 0.1265 0.0197
vn 0.8923 0.0903 0.4424
vt 0.868547 0.327602
vt 0.980394 0.330990
vt 0.989938 0.396605
vt 0.885335 0.396605
vt 0.730613 0.323984
vt 0.786671 0.323683
vt 0.787625 0.396605
vt 0.730847 0.396605
vt 0.721950 0.161314
vt 0.773288 0.166704
vt 0.777831 0.254793
vt 0.727553 0.253648
vt 0.842469 0.189132
vt 0.922050 0.209747
vt 0.959770 0.267895
vt 0.854484 0.258599
vt 0.756110 0.085872
vt 0.823207 0.116953
vt 0.879581 0.158780
vt 0.661338 0.153793
vt 0.661338 0.255963
vt 0.661338 0.070321
vt 0.708628 0.077335
vt 0.661338 0.324906
vt 0.661338 0.396605
vt 0.454129 0.327602
vt 0.437342 0.396605
vt 0.332739 0.396605
vt 0.342283 0.330990
vt 0.592064 0.323984
vt 0.591830 0.396605
vt 0.535051 0.396605
vt 0.536006 0.323683
vt 0.600727 0.161314
vt 0.595123 0.253648
vt 0.544845 0.254793
vt 0.549388 0.166704
vt 0.480208 0.189132
vt 0.468193 0.258599
vt 0.362906 0.267895
vt 0.400627 0.209747
vt 0.566567 0.085872
vt 0.499470 0.116953
vt 0.443095 0.158780
vt 0.614049 0.077335
vt 0.868547 0.465609
vt 0.980394 0.462221
vt 0.730613 0.469227
vt 0.786671 0.469528
vt 0.721950 0.631864
vt 0.727553 0.539563
vt 0.777831 0.538418
vt 0.773288 0.626507
vt 0.842469 0.604079
vt 0.854484 0.534612
vt 0.959770 0.525316
vt 0.922050 0.583464
vt 0.756110 0.707339
vt 0.823207 0.676258
vt 0.879581 0.634431
vt 0.661338 0.638123
vt 0.661338 0.537248
vt 0.661338 0.722890
vt 0.708628 0.715876
vt 0.661338 0.468305
vt 0.454129 0.465609
vt 0.342283 0.462221
vt 0.592064 0.469227
vt 0.536006 0.469528
vt 0.600727 0.631864
vt 0.549388 0.626507
vt 0.544845 0.538418
vt 0.595123 0.539563
vt 0.480208 0.604079
vt 0.400627 0.583464
vt 0.362906 0.525316
vt 0.468193 0.534612
vt 0.566567 0.707339
vt 0.499470 0.676258
vt 0.443095 0.634431
vt 0.614049 0.715876
vt 0.121289 0.609937
vt 0.383591 0.607725
vt 0.249140 0.437809
vt 0.383575 0.607720
vt 0.121267 0.609957
vt 0.249333 0.438283
s 1
f 25/1/1 11/2/2 3/3/3 17/4/4
f 24/5/5 18/6/6 8/7/7 13/8/8
f 23/9/9 19/10/10 9/11/11 20/12/12
f 22/13/13 15/14/14 6/15/15 21/16/16
f 19/10/10 22/13/13 21/16/16 9/11/11
f 5/17/17 10/18/18 22/13/13 19/10/10
f 10/18/18 1/19/19 15/14/14 22/13/13
f 16/20/20 23/9/9 20/12/12 7/21/21
f 2/22/22 14/23/23 23/9/9 16/20/20
f 14/23/23 5/17/17 19/10/10 23/9/9
f 12/24/24 24/5/5 13/8/8 4/25/25
f 7/21/21 20/12/12 24/5/5 12/24/24
f 20/12/12 9/11/11 18/6/6 24/5/5
f 18/6/6 25/1/1 17/4/4 8/7/7
f 9/11/11 21/16/16 25/1/1 18/6/6
f 21/16/16 6/15/15 11/2/2 25/1/1
f 45/26/26 37/27/27 27/28/28 33/29/29
f 44/30/30 34/31/31 30/32/32 38/33/33
f 43/34/34 40/35/35 31/36/36 39/37/37
f 42/38/38 41/39/39 29/40/40 36/41/41
f 39/37/37 31/36/36 41/39/39 42/38/38
f 28/42/42 39/37/37 42/38/38 32/43/43
f 32/43/43 42/38/38 36/41/41 26/44/44
f 16/20/20 7/21/21 40/35/35 43/34/34
f 2/22/22 16/20/20 43/34/34 35/45/45
f 35/45/45 43/34/34 39/37/37 28/42/42
f 12/24/24 4/25/25 34/31/31 44/30/30
f 7/21/21 12/24/24 44/30/30 40/35/35
f 40/35/35 44/30/30 38/33/33 31/36/36
f 38/33/33 30/32/32 37/27/27 45/26/26
f 31/36/36 38/33/33 45/26/26 41/39/39
f 41/39/39 45/26/26 33/29/29 29/40/40
f 65/46/46 17/4/4 3/3/3 53/47/47
f 64/48/48 13/8/8 8/7/7 58/49/49
f 63/50/50 60/51/51 51/52/52 59/53/53
f 62/54/54 61/55/55 49/56/56 56/57/57
f 59/53/53 51/52/52 61/55/55 62/54/54
f 48/58/58 59/53/53 62/54/54 52/59/59
f 52/59/59 62/54/54 56/57/57 46/60/60
f 57/61/61 50/62/62 60/51/51 63/50/50
f 47/63/63 57/61/61 63/50/50 55/64/64
f 55/64/64 63/50/50 59/53/53 48/58/58
f 54/65/65 4/25/25 13/8/8 64/48/48
f 50/62/62 54/65/65 64/48/48 60/51/51
f 60/51/51 64/48/48 58/49/49 51/52/52
f 58/49/49 8/7/7 17/4/4 65/46/46
f 51/52/52 58/49/49 65/46/46 61/55/55
f 61/55/55 65/46/46 53/47/47 49/56/56
f 81/66/66 71/67/67 27/28/28 37/27/27
f 80/68/68 74/69/69 30/32/32 34/31/31
f 79/70/70 75/71/71 69/72/72 76/73/73
f 78/74/74 73/75/75 68/76/76 77/77/77
f 75/71/71 78/74/74 77/77/77 69/72/72
f 67/78/78 70/79/79 78/74/74 75/71/71
f 70/79/79 66/80/80 73/75/75 78/74/74
f 57/61/61 79/70/70 76/73/73 50/62/62
f 47/63/63 72/81/81 79/70/70 57/61/61
f 72/81/81 67/78/78 75/71/71 79/70/70
f 54/65/65 80/68/68 34/31/31 4/25/25
f 50/62/62 76/73/73 80/68/68 54/65/65
f 76/73/73 69/72/72 74/69/69 80/68/68
f 74/69/69 81/66/66 37/27/27 30/32/32
f 69/72/72 77/77/77 81/66/66 74/69/69
f 77/77/77 68/76/76 71/67/67 81/66/66
f 82/82/82 84/83/82 83/84/82
f 85/85/83 87/86/83 86/87/83
f 88/82/84 90/83/84 89/84/84
f 91/82/85 93/83/85 92/84/85
f 94/82/86 96/83/86 95/84/86
f 97/82/87 99/83/87 98/84/87
f 100/82/88 102/83/88 101/84/88
f 103/82/89 105/83/89 104/84/89
f 106/82/90 108/83/90 107/84/90
f 109/82/91 111/83/91 110/84/91
f 112/82/92 114/83/92 113/84/92
f 115/82/93 117/83/93 116/84/93
f 118/82/94 120/83/94 119/84/94
f 121/82/95 123/83/95 122/84/95
f 124/82/96 126/83/96 125/84/96
f 127/82/97 129/83/97 128/84/97
