# Blender 4.5.3 LTS
# www.blender.org
o Estrella
v 1.150632 -1.552914 0.000000
v 0.577338 0.802722 -0.000000
v 0.000001 -0.969727 0.000000
v 0.000001 1.870245 -0.000000
v 0.987540 -0.317352 0.000000
v 1.822783 0.624807 -0.000000
v 0.000001 -0.743805 0.102353
v 0.900837 -1.200377 0.102353
v 0.448363 0.617587 0.102353
v 0.000001 1.446626 0.102353
v 0.775713 -0.252515 0.102353
v 1.423566 0.478269 0.102353
v 0.000001 -0.969727 0.102353
v 1.150632 -1.552914 0.102353
v 0.577338 0.802722 0.102353
v 0.000001 1.870245 0.102353
v 0.987540 -0.317352 0.102353
v 1.822783 0.624807 0.102353
v 0.000001 -0.743805 0.223478
v 0.900837 -1.200377 0.223478
v 0.448363 0.617587 0.223478
v 0.000001 1.446626 0.223478
v 0.775713 -0.252515 0.223478
v 1.423566 0.478269 0.223478
v -1.150637 -1.552914 0.000000
v -0.577335 0.802722 -0.000000
v -0.987545 -0.317352 0.000000
v -1.822780 0.624807 -0.000000
v -0.900834 -1.200377 0.102353
v -0.448360 0.617587 0.102353
v -0.775717 -0.252515 0.102353
v -1.423571 0.478269 0.102353
v -1.150637 -1.552914 0.102353
v -0.577335 0.802722 0.102353
v -0.987545 -0.317352 0.102353
v -1.822780 0.624807 0.102353
v -0.900834 -1.200377 0.223478
v -0.448360 0.617587 0.223478
v -0.775717 -0.252515 0.223478
v -1.423571 0.478269 0.223478
v 0.000001 -0.743805 -0.102353
v 0.900837 -1.200377 -0.102353
v 0.448363 0.617587 -0.102353
v 0.000001 1.446626 -0.102353
v 0.775713 -0.252515 -0.102353
v 1.423566 0.478269 -0.102353
v 0.000001 -0.969727 -0.102353
v 1.150632 -1.552914 -0.102353
v 0.577338 0.802722 -0.102353
v 0.000001 1.870245 -0.102353
v 0.987540 -0.317352 -0.102353
v 1.822783 0.624807 -0.102353
v 0.000001 -0.743805 -0.223478
v 0.900837 -1.200377 -0.223478
v 0.448363 0.617587 -0.223478
v 0.000001 1.446626 -0.223478
v 0.775713 -0.252515 -0.223478
v 1.423566 0.478269 -0.223478
v -0.900834 -1.200377 -0.102353
v -0.448360 0.617587 -0.102353
v -0.775717 -0.252515 -0.102353
v -1.423571 0.478269 -0.102353
v -1.150637 -1.552914 -0.102353
v -0.577335 0.802722 -0.102353
v -0.987545 -0.317352 -0.102353
v -1.822780 0.624807 -0.102353
v -0.900834 -1.200377 -0.223478
v -0.448360 0.617587 -0.223478
v -0.775717 -0.252515 -0.223478
v -1.423571 0.478269 -0.223478
vn 0.7483 -0.6634 -0.0000
vn -0.4521 -0.8920 -0.0000
vn -0.0000 -0.0000 1.0000
vn 0.1414 0.9900 -0.0000
vn 0.9914 0.1309 -0.0000
vn 0.8796 0.4757 -0.0000
vn 0.1414 0.9899 -0.0000
vn -0.7483 -0.6634 -0.0000
vn 0.4521 -0.8920 -0.0000
vn -0.1414 0.9900 -0.0000
vn -0.9914 0.1309 -0.0000
vn -0.8796 0.4757 -0.0000
vn -0.1414 0.9899 -0.0000
vn -0.0000 -0.0000 -1.0000
vt 0.047270 0.403683
vt 0.047270 0.604201
vt 0.005411 0.604201
vt 0.005411 0.403683
vt 0.047270 0.000016
vt 0.047270 0.207377
vt 0.005411 0.207377
vt 0.005411 0.000016
vt 0.323024 0.106572
vt 0.062243 0.238745
vt 0.062243 0.173343
vt 0.395338 0.004518
vt 0.062243 0.872848
vt 0.192038 0.632851
vt 0.229375 0.686446
vt 0.062243 0.995482
vt 0.474349 0.592520
vt 0.286804 0.380968
vt 0.348125 0.362198
vt 0.589916 0.634940
vt 0.005473 0.403836
vt 0.005473 0.207327
vt 0.047270 0.207327
vt 0.047270 0.403836
vt 0.005473 0.999948
vt 0.005473 0.806535
vt 0.047270 0.806535
vt 0.047270 0.999948
vt 0.005473 0.604222
vt 0.047270 0.604222
vt 0.005472 0.000052
vt 0.047270 0.000052
vt 0.047270 0.806465
vt 0.005411 0.806465
vt 0.047270 0.999984
vt 0.005411 0.999984
s 1
f 11/1/1 12/2/1 24/3/1 23/4/1
f 7/5/2 8/6/2 20/7/2 19/8/2
f 8/9/3 7/10/3 13/11/3 14/12/3
f 10/13/3 9/14/3 15/15/3 16/16/3
f 12/17/3 11/18/3 17/19/3 18/20/3
f 9/14/3 12/17/3 18/20/3 15/15/3
f 11/18/3 8/9/3 14/12/3 17/19/3
f 6/21/4 2/22/4 15/23/4 18/24/4
f 3/25/2 1/26/2 14/27/2 13/28/2
f 1/26/5 5/29/5 17/30/5 14/27/5
f 2/22/6 4/31/6 16/32/6 15/23/6
f 5/29/1 6/21/1 18/24/1 17/30/1
f 19/10/3 20/9/3 21/14/3 22/13/3
f 21/14/3 20/9/3 23/18/3 24/17/3
f 12/2/7 9/33/7 21/34/7 24/3/7
f 9/33/6 10/35/6 22/36/6 21/34/6
f 8/6/5 11/1/5 23/4/5 20/7/5
f 31/1/8 39/4/8 40/3/8 32/2/8
f 7/5/9 19/8/9 37/7/9 29/6/9
f 29/9/3 33/12/3 13/11/3 7/10/3
f 10/13/3 16/16/3 34/15/3 30/14/3
f 32/17/3 36/20/3 35/19/3 31/18/3
f 30/14/3 34/15/3 36/20/3 32/17/3
f 31/18/3 35/19/3 33/12/3 29/9/3
f 28/21/10 36/24/10 34/23/10 26/22/10
f 3/25/9 13/28/9 33/27/9 25/26/9
f 25/26/11 33/27/11 35/30/11 27/29/11
f 26/22/12 34/23/12 16/32/12 4/31/12
f 27/29/8 35/30/8 36/24/8 28/21/8
f 19/10/3 22/13/3 38/14/3 37/9/3
f 38/14/3 40/17/3 39/18/3 37/9/3
f 32/2/13 40/3/13 38/34/13 30/33/13
f 30/33/12 38/34/12 22/36/12 10/35/12
f 29/6/11 37/7/11 39/4/11 31/1/11
f 45/1/1 57/4/1 58/3/1 46/2/1
f 41/5/2 53/8/2 54/7/2 42/6/2
f 42/9/14 48/12/14 47/11/14 41/10/14
f 44/13/14 50/16/14 49/15/14 43/14/14
f 46/17/14 52/20/14 51/19/14 45/18/14
f 43/14/14 49/15/14 52/20/14 46/17/14
f 45/18/14 51/19/14 48/12/14 42/9/14
f 6/21/4 52/24/4 49/23/4 2/22/4
f 3/25/2 47/28/2 48/27/2 1/26/2
f 1/26/5 48/27/5 51/30/5 5/29/5
f 2/22/6 49/23/6 50/32/6 4/31/6
f 5/29/1 51/30/1 52/24/1 6/21/1
f 53/10/14 56/13/14 55/14/14 54/9/14
f 55/14/14 58/17/14 57/18/14 54/9/14
f 46/2/7 58/3/7 55/34/7 43/33/7
f 43/33/6 55/34/6 56/36/6 44/35/6
f 42/6/5 54/7/5 57/4/5 45/1/5
f 61/1/8 62/2/8 70/3/8 69/4/8
f 41/5/9 59/6/9 67/7/9 53/8/9
f 59/9/14 41/10/14 47/11/14 63/12/14
f 44/13/14 60/14/14 64/15/14 50/16/14
f 62/17/14 61/18/14 65/19/14 66/20/14
f 60/14/14 62/17/14 66/20/14 64/15/14
f 61/18/14 59/9/14 63/12/14 65/19/14
f 28/21/10 26/22/10 64/23/10 66/24/10
f 3/25/9 25/26/9 63/27/9 47/28/9
f 25/26/11 27/29/11 65/30/11 63/27/11
f 26/22/12 4/31/12 50/32/12 64/23/12
f 27/29/8 28/21/8 66/24/8 65/30/8
f 53/10/14 67/9/14 68/14/14 56/13/14
f 68/14/14 67/9/14 69/18/14 70/17/14
f 62/2/13 60/33/13 68/34/13 70/3/13
f 60/33/12 44/35/12 56/36/12 68/34/12
f 59/6/11 61/1/11 69/4/11 67/7/11
