# Blender 4.5.3 LTS
# www.blender.org
o Rampa
v -2.581251 -0.189922 4.757838
v -2.467199 0.341983 4.757838
v -2.581251 -0.189922 -4.757840
v -2.467199 0.341982 -4.757838
v 0.214832 0.481943 4.757838
v 0.013588 0.987042 4.757838
v 0.214832 0.481942 -4.757838
v 0.013586 0.987042 -4.757838
v 0.482074 0.590266 4.757838
v 0.275240 1.093052 4.757838
v 0.482072 0.590265 -4.757838
v 0.275238 1.093051 -4.757838
v 3.103619 1.784538 4.757840
v 2.864955 2.273057 4.757840
v 3.103619 1.784537 -4.757838
v 2.864953 2.273057 -4.757839
v 3.362031 1.911734 4.757838
v 3.121304 2.399220 4.757838
v 3.362029 1.911733 -4.757837
v 3.121302 2.399220 -4.757837
v 5.896030 3.290951 4.757838
v 5.609591 3.753112 4.757838
v 5.896030 3.290950 -4.757837
v 5.609591 3.753111 -4.757839
v 6.140352 3.445634 4.757838
v 5.847689 3.903815 4.757838
v 6.140351 3.445634 -4.757839
v 5.847689 3.903814 -4.757839
v 8.447664 5.193811 4.757838
v 8.079227 5.593532 4.757838
v 8.447664 5.193810 -4.757837
v 8.079225 5.593531 -4.757839
v 8.658124 5.394488 4.757840
v 8.280402 5.785537 4.757838
v 8.658124 5.394487 -4.757839
v 8.280400 5.785536 -4.757837
v 10.448483 7.689486 4.757838
v 9.970205 7.947846 4.757838
v 10.448483 7.689485 -4.757837
v 9.970205 7.947845 -4.757837
v 0.337466 -0.134128 4.344093
v 0.337467 0.833389 4.344093
v 0.337466 -0.134128 3.376578
v 0.337467 0.833389 3.376578
v 1.304983 -0.134128 4.344093
v 1.304983 1.223673 4.344093
v 1.304983 -0.134128 3.376578
v 1.304983 1.223673 3.376578
v 3.358271 -0.134128 4.344093
v 3.358271 2.154112 4.344093
v 3.358271 -0.134128 3.376578
v 3.358271 2.154112 3.376578
v 4.325786 -0.134128 4.344093
v 4.325788 2.544396 4.344093
v 4.325786 -0.134128 3.376578
v 4.325788 2.544396 3.376578
v 3.358273 -0.134129 -4.344093
v 3.358273 2.154111 -4.344094
v 3.358273 -0.134129 -3.376578
v 3.358273 2.154111 -3.376579
v 4.325788 -0.134129 -4.344093
v 4.325788 2.544396 -4.344094
v 4.325788 -0.134129 -3.376578
v 4.325788 2.544396 -3.376579
v 7.657648 -0.134128 4.344093
v 7.657648 4.689834 4.344093
v 7.657648 -0.134128 3.376578
v 7.657648 4.689834 3.376578
v 8.625162 -0.134128 4.344093
v 8.625162 5.415362 4.344093
v 8.625162 -0.134128 3.376578
v 8.625162 5.415361 3.376578
v 7.657648 -0.134129 -4.344093
v 7.657648 4.689834 -4.344094
v 7.657648 -0.134129 -3.376578
v 7.657648 4.689834 -3.376579
v 8.625162 -0.134129 -4.344093
v 8.625162 5.415361 -4.344094
v 8.625162 -0.134129 -3.376578
v 8.625162 5.415361 -3.376579
v -2.553909 -0.370558 4.513322
v 0.532179 0.459562 4.513322
v -2.553909 -0.370558 3.297630
v 0.532179 0.459562 3.297630
v 3.381259 1.708473 4.513322
v 3.381259 1.708473 3.297630
v 6.191308 3.259856 4.513322
v 6.191308 3.259856 3.297629
v 8.737918 5.250307 4.513322
v 8.737918 5.250307 3.297629
v 10.474687 7.513960 4.513323
v 10.474687 7.513959 3.297629
v -2.563133 -0.118719 4.513322
v 0.396113 0.682128 4.513322
v -2.563133 -0.118719 3.297630
v 0.396113 0.682128 3.297630
v 3.245191 1.931039 4.513322
v 3.245191 1.931039 3.297630
v 6.055241 3.482421 4.513322
v 6.055241 3.482421 3.297629
v 8.601849 5.472874 4.513322
v 8.601849 5.472873 3.297629
v 10.299589 7.619440 4.513323
v 10.299589 7.619439 3.297629
v -2.553909 -0.370559 -4.513322
v 0.532179 0.459562 -4.513322
v -2.553909 -0.370558 -3.297628
v 0.532179 0.459562 -3.297628
v 3.381257 1.708472 -4.513322
v 3.381257 1.708472 -3.297628
v 6.191308 3.259855 -4.513322
v 6.191308 3.259855 -3.297628
v 8.737915 5.250306 -4.513322
v 8.737915 5.250307 -3.297628
v 10.474682 7.513959 -4.513323
v 10.474682 7.513959 -3.297629
v -2.563133 -0.118719 -4.513322
v 0.396111 0.682128 -4.513322
v -2.563133 -0.118719 -3.297628
v 0.396111 0.682128 -3.297628
v 3.245191 1.931038 -4.513322
v 3.245191 1.931038 -3.297628
v 6.055241 3.482420 -4.513322
v 6.055241 3.482420 -3.297628
v 8.601848 5.472872 -4.513322
v 8.601848 5.472873 -3.297628
v 10.299587 7.619438 -4.513323
v 10.299587 7.619438 -3.297629
vn -0.9778 0.2097 -0.0000
vn -0.0000 -0.0000 -1.0000
vn 0.9290 0.3701 -0.0000
vn -0.0000 -0.0000 1.0000
vn 0.2336 -0.9723 -0.0000
vn -0.2517 0.9678 -0.0000
vn -0.9248 -0.3804 -0.0000
vn 0.8985 0.4390 -0.0000
vn 0.4146 -0.9100 -0.0000
vn -0.4146 0.9100 -0.0000
vn -0.8966 -0.4428 -0.0000
vn 0.8500 0.5268 -0.0000
vn 0.4781 -0.8783 -0.0000
vn -0.4779 0.8784 -0.0000
vn -0.8427 -0.5383 -0.0000
vn 0.7353 0.6777 -0.0000
vn 0.6039 -0.7971 -0.0000
vn -0.6037 0.7972 -0.0000
vn -0.7193 -0.6947 -0.0000
vn 0.4753 0.8798 -0.0000
vn 0.7885 -0.6151 -0.0000
vn -0.7879 0.6158 -0.0000
vn -1.0000 -0.0000 -0.0000
vn 1.0000 -0.0000 -0.0000
vn 0.2598 -0.9657 -0.0000
vn 0.4015 -0.9159 -0.0000
vn 0.4833 -0.8754 -0.0000
vn 0.6158 -0.7879 -0.0000
vn 0.7934 -0.6087 -0.0000
vn -0.2612 0.9653 -0.0000
vn -0.4015 0.9159 -0.0000
vn -0.4833 0.8754 -0.0000
vn -0.6158 0.7879 -0.0000
vn -0.7843 0.6203 -0.0000
vn -0.9993 -0.0366 -0.0000
vn 0.5160 0.8566 -0.0000
vt 0.278443 0.923010
vt 0.227707 0.923010
vt 0.227707 0.872274
vt 0.278443 0.872274
vt 0.278443 0.821538
vt 0.329178 0.821538
vt 0.329178 0.872274
vt 0.126235 0.872274
vt 0.176971 0.872274
vt 0.176971 0.923010
vt 0.126235 0.923010
vt 0.329178 0.923010
vt 0.329178 0.973746
vt 0.278443 0.973746
vt 0.286265 0.821220
vt 0.286265 0.741205
vt 0.366281 0.741205
vt 0.366281 0.821220
vt 0.446296 0.708928
vt 0.446296 0.821220
vt 0.126235 0.821220
vt 0.126235 0.708928
vt 0.206250 0.708928
vt 0.206250 0.821220
vt 0.321790 0.708610
vt 0.321789 0.477360
vt 0.419567 0.477360
vt 0.419567 0.708610
vt 0.517344 0.437918
vt 0.517344 0.708610
vt 0.126235 0.708610
vt 0.126235 0.437918
vt 0.224012 0.437918
vt 0.224012 0.708610
vt 0.126235 0.218880
vt 0.671497 0.218879
vt 0.671497 0.328240
vt 0.126235 0.328240
vt 0.753505 0.437600
vt 0.126235 0.437600
vt 0.126235 0.000159
vt 0.753505 0.000159
vt 0.753505 0.109519
vt 0.126235 0.109519
vt 0.671497 0.218880
vt 0.008173 0.502219
vt 0.117884 0.502092
vt 0.117727 0.604973
vt 0.008339 0.604944
vt 0.117365 0.704688
vt 0.008500 0.704582
vt 0.116751 0.806848
vt 0.008837 0.806745
vt 0.115990 0.908590
vt 0.009398 0.908568
vt 0.115321 0.996787
vt 0.010087 0.996923
vt 0.008163 0.494114
vt 0.008049 0.395521
vt 0.117761 0.395394
vt 0.117874 0.493987
vt 0.007934 0.295478
vt 0.117645 0.295351
vt 0.007814 0.192249
vt 0.117526 0.192122
vt 0.007694 0.088301
vt 0.117405 0.088175
vt 0.007592 0.000286
vt 0.117304 0.000159
vt 0.125838 0.503928
vt 0.125917 0.603237
vt 0.007016 0.999841
vt 0.001431 0.910700
vt 0.000548 0.807075
vt 0.000159 0.603202
vt 0.000231 0.504053
vt 0.000159 0.703851
vt 0.123946 0.910726
vt 0.118393 0.999706
vt 0.125036 0.807198
vt 0.125711 0.703976
s 1
f 1/1/1 2/2/1 4/3/1 3/4/1
f 3/4/2 4/5/2 8/6/2 7/7/2
f 7/8/3 8/9/3 6/10/3 5/11/3
f 5/12/4 6/13/4 2/14/4 1/1/4
f 3/4/5 7/7/5 5/12/5 1/1/5
f 8/9/6 4/3/6 2/2/6 6/10/6
f 9/1/7 10/2/7 12/3/7 11/4/7
f 11/4/2 12/5/2 16/6/2 15/7/2
f 15/8/8 16/9/8 14/10/8 13/11/8
f 13/12/4 14/13/4 10/14/4 9/1/4
f 11/4/9 15/7/9 13/12/9 9/1/9
f 16/9/10 12/3/10 10/2/10 14/10/10
f 17/1/11 18/2/11 20/3/11 19/4/11
f 19/4/2 20/5/2 24/6/2 23/7/2
f 23/8/12 24/9/12 22/10/12 21/11/12
f 21/12/4 22/13/4 18/14/4 17/1/4
f 19/4/13 23/7/13 21/12/13 17/1/13
f 24/9/14 20/3/14 18/2/14 22/10/14
f 25/1/15 26/2/15 28/3/15 27/4/15
f 27/4/2 28/5/2 32/6/2 31/7/2
f 31/8/16 32/9/16 30/10/16 29/11/16
f 29/12/4 30/13/4 26/14/4 25/1/4
f 27/4/17 31/7/17 29/12/17 25/1/17
f 32/9/18 28/3/18 26/2/18 30/10/18
f 33/1/19 34/2/19 36/3/19 35/4/19
f 35/4/2 36/5/2 40/6/2 39/7/2
f 39/8/20 40/9/20 38/10/20 37/11/20
f 37/12/4 38/13/4 34/14/4 33/1/4
f 35/4/21 39/7/21 37/12/21 33/1/21
f 40/9/22 36/3/22 34/2/22 38/10/22
f 41/15/23 42/16/23 44/17/23 43/18/23
f 43/18/2 44/17/2 48/19/2 47/20/2
f 47/21/24 48/22/24 46/23/24 45/24/24
f 45/24/4 46/23/4 42/16/4 41/15/4
f 49/25/23 50/26/23 52/27/23 51/28/23
f 51/28/2 52/27/2 56/29/2 55/30/2
f 55/31/24 56/32/24 54/33/24 53/34/24
f 53/34/4 54/33/4 50/26/4 49/25/4
f 57/25/23 59/28/23 60/27/23 58/26/23
f 59/28/4 63/30/4 64/29/4 60/27/4
f 63/31/24 61/34/24 62/33/24 64/32/24
f 61/34/2 57/25/2 58/26/2 62/33/2
f 65/35/23 66/36/23 68/37/23 67/38/23
f 67/38/2 68/37/2 72/39/2 71/40/2
f 71/41/24 72/42/24 70/43/24 69/44/24
f 69/44/4 70/43/4 66/36/4 65/35/4
f 73/35/23 75/38/23 76/37/23 74/45/23
f 75/38/4 79/40/4 80/39/4 76/37/4
f 79/41/24 77/44/24 78/43/24 80/42/24
f 77/44/2 73/35/2 74/45/2 78/43/2
f 81/46/25 83/47/25 84/48/25 82/49/25
f 84/48/26 86/50/26 85/51/26 82/49/26
f 86/50/27 88/52/27 87/53/27 85/51/27
f 88/52/28 90/54/28 89/55/28 87/53/28
f 90/54/29 92/56/29 91/57/29 89/55/29
f 93/58/30 94/59/30 96/60/30 95/61/30
f 96/60/31 94/59/31 97/62/31 98/63/31
f 98/63/32 97/62/32 99/64/32 100/65/32
f 100/65/33 99/64/33 101/66/33 102/67/33
f 102/67/34 101/66/34 103/68/34 104/69/34
f 84/48/2 83/47/2 95/70/2 96/71/2
f 83/47/35 81/46/35 93/58/35 95/61/35
f 89/55/4 91/57/4 103/72/4 101/73/4
f 87/53/4 89/55/4 101/73/4 99/74/4
f 81/46/4 82/49/4 94/75/4 93/76/4
f 85/51/4 87/53/4 99/74/4 97/77/4
f 92/56/2 90/54/2 102/78/2 104/79/2
f 82/49/4 85/51/4 97/77/4 94/75/4
f 90/54/2 88/52/2 100/80/2 102/78/2
f 88/52/2 86/50/2 98/81/2 100/80/2
f 86/50/2 84/48/2 96/71/2 98/81/2
f 91/57/36 92/56/36 104/79/36 103/72/36
f 105/46/25 106/49/25 108/48/25 107/47/25
f 108/48/26 106/49/26 109/51/26 110/50/26
f 110/50/27 109/51/27 111/53/27 112/52/27
f 112/52/28 111/53/28 113/55/28 114/54/28
f 114/54/29 113/55/29 115/57/29 116/56/29
f 117/58/30 119/61/30 120/60/30 118/59/30
f 120/60/31 122/63/31 121/62/31 118/59/31
f 122/63/32 124/65/32 123/64/32 121/62/32
f 124/65/33 126/67/33 125/66/33 123/64/33
f 126/67/34 128/69/34 127/68/34 125/66/34
f 108/48/4 120/71/4 119/70/4 107/47/4
f 107/47/35 119/61/35 117/58/35 105/46/35
f 113/55/2 125/73/2 127/72/2 115/57/2
f 111/53/2 123/74/2 125/73/2 113/55/2
f 105/46/2 117/76/2 118/75/2 106/49/2
f 109/51/2 121/77/2 123/74/2 111/53/2
f 116/56/4 128/79/4 126/78/4 114/54/4
f 106/49/2 118/75/2 121/77/2 109/51/2
f 114/54/4 126/78/4 124/80/4 112/52/4
f 112/52/4 124/80/4 122/81/4 110/50/4
f 110/50/4 122/81/4 120/71/4 108/48/4
f 115/57/36 127/72/36 128/79/36 116/56/36
