# Blender 4.5.3 LTS
# www.blender.org
o Terreno.004
v -722.579773 -11.311676 -577.083984
v -722.579773 -35.546829 -469.549683
v -258.906342 -51.462246 -447.074036
v -276.943817 -18.679911 -577.083984
v -722.579712 -54.547367 -198.496368
v -722.579712 -61.155090 -91.817970
v -272.576996 -52.967278 -53.919842
v -100.180099 -50.807278 -470.341156
v -83.490776 -19.140379 -647.600403
v -722.579773 -47.548820 -334.023041
v -365.118530 -48.525574 -368.618073
v -391.055786 -0.320959 -577.083984
v -399.440033 -51.023121 -123.778465
v -443.561676 -58.990063 -217.234741
v -437.229767 -55.385872 -315.702789
v -607.046997 -44.617344 -435.877197
v -610.943665 -16.826597 -577.083984
v -612.368286 -57.516796 -117.299049
v -628.786255 -56.032482 -207.820923
v -634.073120 -46.729908 -329.053070
v -218.669373 -196.369827 -358.333221
v -56.286591 -196.411285 -427.820618
v -44.227787 -196.411285 -583.415833
v -154.190506 -196.411285 -88.846306
v -260.653168 -177.428467 -294.510956
v -303.368347 -172.827057 -177.138290
v -326.140930 -164.484467 -221.384842
v -303.720612 -164.956833 -263.337982
v -425.137360 -31.463268 -393.867554
v -444.833374 -13.510838 -577.083984
v -447.334198 -48.798065 -136.548264
v -476.154877 -55.578667 -214.865005
v -483.494141 -54.568703 -323.533600
v -313.644501 -44.933876 -77.601631
v -252.653458 -190.123001 -144.478500
v -522.520081 -31.912624 -423.158569
v -527.888550 -15.168716 -577.083984
v -529.851257 -53.042282 -126.923653
v -552.470581 -58.538937 -211.342972
v -559.754395 -49.496555 -327.175812
v -722.579773 -58.225098 -24.054646
v -392.480469 -42.358742 -49.535709
v -611.656006 -61.483856 -36.795181
v -446.083801 -47.085400 -46.419769
v -322.533875 -40.793488 -26.354811
v -528.869873 -58.181587 -41.607475
v -854.734314 -3.562248 -577.083984
v -854.734314 -27.797401 -469.549683
v -854.734253 -45.294552 -198.496368
v -854.734253 -50.941780 -91.817970
v -854.734314 -39.532681 -334.023041
v -854.734314 -47.623436 -24.054646
v -722.579712 -51.048096 -266.259705
v -449.266144 -57.187969 -268.728058
v -631.429688 -51.381195 -268.436981
v -323.352173 -164.720657 -246.039383
v -480.392822 -55.073689 -269.715973
v -556.112488 -54.017746 -269.259399
v -854.734314 -42.472763 -266.259705
v -355.694275 -47.964703 -94.491493
v -280.189606 -181.475021 -154.830032
v -357.507172 -41.576115 -37.945259
v -722.579712 -57.851231 -145.157166
v -427.943848 -55.716316 -177.706650
v -620.577271 -56.774639 -162.559982
v -318.761505 -168.655762 -197.261871
v -461.744537 -52.188366 -175.706635
v -541.160889 -55.790611 -169.133316
v -854.734253 -48.079735 -145.157166
v -372.407532 -58.131634 -145.490906
v -246.334366 -60.319939 -429.132202
v -329.153595 -58.464092 -349.051941
v -247.801544 -62.362053 -69.430435
v -74.246300 -32.765686 -630.315063
v -89.692825 -59.767754 -458.870392
v -409.909149 -62.595135 -217.354263
v -398.537659 -59.057167 -303.751526
v -295.294647 -54.659550 -99.196907
v -414.555176 -60.826153 -263.336761
v -335.923096 -56.393669 -115.906387
v -395.528290 -60.462139 -180.690964
vn 0.0450 0.9763 0.2119
vn 0.0447 0.9874 0.1515
vn 0.1303 0.9553 0.2654
vn 0.1078 0.9724 0.2070
vn 0.0399 0.9979 0.0513
vn 0.0354 0.9993 0.0136
vn 0.2719 0.9468 -0.1718
vn 0.2708 0.9149 0.2995
vn 0.2496 0.9460 0.2067
vn 0.0371 0.9972 0.0648
vn 0.1080 0.9688 0.2233
vn 0.0774 0.9792 0.1874
vn 0.0582 0.9891 -0.1353
vn 0.1005 0.9938 -0.0476
vn 0.0670 0.9844 0.1630
vn -0.0299 0.9927 0.1169
vn -0.0306 0.9834 0.1787
vn -0.0241 0.9994 0.0244
vn 0.0163 0.9991 0.0395
vn -0.0004 0.9977 0.0683
vn 0.4966 0.4696 0.7300
vn 0.6555 0.3792 0.6530
vn 0.9679 0.2305 0.1004
vn 0.4865 0.4287 -0.7613
vn 0.5968 0.5646 0.5701
vn 0.6422 0.5228 -0.5606
vn 0.7654 0.6292 -0.1349
vn 0.5487 0.6418 0.5358
vn 0.0058 0.9792 0.2028
vn -0.0165 0.9908 0.1346
vn -0.0071 0.9979 -0.0645
vn 0.0266 0.9992 -0.0295
vn 0.0257 0.9881 0.1514
vn 0.1023 0.9754 -0.1952
vn 0.4393 0.4216 -0.7933
vn -0.0501 0.9893 0.1373
vn -0.0626 0.9898 0.1283
vn -0.0568 0.9984 -0.0005
vn -0.0020 1.0000 0.0096
vn -0.0052 0.9949 0.1012
vn 0.0410 0.9989 -0.0208
vn -0.0018 0.9958 -0.0920
vn -0.0199 0.9994 0.0295
vn -0.0561 0.9982 -0.0192
vn -0.0129 0.9951 -0.0985
vn -0.0652 0.9971 0.0388
vn 0.0571 0.9739 0.2195
vn 0.0583 0.9863 0.1541
vn 0.0694 0.9962 0.0516
vn 0.0770 0.9970 0.0058
vn 0.0610 0.9959 0.0673
vn 0.0784 0.9959 -0.0459
vn 0.0350 0.9979 0.0551
vn 0.0750 0.9966 0.0330
vn 0.0204 0.9974 0.0692
vn 0.7054 0.6736 0.2204
vn 0.0361 0.9988 0.0321
vn 0.0252 0.9979 0.0596
vn 0.0649 0.9968 0.0469
vn 0.0455 0.9810 -0.1887
vn 0.4628 0.4475 -0.7652
vn -0.0038 0.9945 -0.1046
vn 0.0344 0.9982 0.0493
vn 0.1068 0.9860 -0.1279
vn -0.0078 0.9999 0.0106
vn 0.7248 0.5783 -0.3745
vn 0.0203 0.9956 -0.0911
vn -0.0323 0.9987 -0.0396
vn 0.0735 0.9957 0.0572
vn 0.3697 0.8541 -0.3657
vn 0.2905 0.7913 0.5380
vn 0.3828 0.8282 0.4093
vn 0.4308 0.7117 -0.5549
vn 0.7427 0.6479 0.1694
vn 0.5545 0.6272 0.5469
vn 0.4180 0.9040 -0.0901
vn 0.2878 0.9073 0.3066
vn 0.3196 0.7680 -0.5550
vn 0.3597 0.9246 0.1250
vn 0.2868 0.8072 -0.5160
vn 0.4107 0.8767 -0.2505
vt 0.320985 0.556690
vt 0.324790 0.571729
vt 0.308525 0.576470
vt 0.308525 0.557390
vt 0.324241 0.591609
vt 0.308525 0.591609
vt 0.396148 0.576581
vt 0.398498 0.601537
vt 0.371263 0.591609
vt 0.373802 0.573306
vt 0.324141 0.515546
vt 0.324041 0.526879
vt 0.308525 0.523292
vt 0.308525 0.513752
vt 0.322885 0.533251
vt 0.321729 0.539623
vt 0.308525 0.538310
vt 0.308525 0.530801
vt 0.368679 0.524331
vt 0.375366 0.520140
vt 0.388544 0.522873
vt 0.374683 0.530706
vt 0.375572 0.570780
vt 0.363913 0.559506
vt 0.373556 0.551828
vt 0.379467 0.560813
vt 0.399799 0.599103
vt 0.397625 0.574966
vt 0.402328 0.570595
vt 0.404025 0.592500
vt 0.321357 0.548157
vt 0.308525 0.547850
vt 0.359921 0.515707
vt 0.360176 0.523668
vt 0.354018 0.527791
vt 0.354997 0.517339
vt 0.355198 0.591609
vt 0.358849 0.562261
vt 0.331961 0.548273
vt 0.331448 0.556426
vt 0.334066 0.534177
vt 0.332473 0.540119
vt 0.335796 0.516223
vt 0.335658 0.528234
vt 0.336690 0.569939
vt 0.335934 0.591609
vt 0.351890 0.547439
vt 0.352544 0.540965
vt 0.364337 0.541533
vt 0.364729 0.545004
vt 0.354568 0.535804
vt 0.357823 0.530848
vt 0.367543 0.535303
vt 0.365376 0.538136
vt 0.354145 0.553128
vt 0.367493 0.547439
vt 0.348697 0.554811
vt 0.350400 0.565815
vt 0.342184 0.555913
vt 0.347627 0.591609
vt 0.347275 0.529589
vt 0.347451 0.516900
vt 0.350005 0.535383
vt 0.347806 0.540948
vt 0.343217 0.540615
vt 0.345246 0.535102
vt 0.347003 0.548198
vt 0.342621 0.548337
vt 0.362960 0.526683
vt 0.370806 0.532163
vt 0.289920 0.523292
vt 0.289920 0.513752
vt 0.289920 0.557390
vt 0.289920 0.547850
vt 0.289920 0.538310
vt 0.289920 0.530801
vt 0.289920 0.576470
vt 0.289920 0.591609
vt 0.364845 0.514076
vt 0.366096 0.521290
vt 0.371878 0.517956
s 1
f 20/1/20 16/2/16 2/3/2 10/4/10
f 16/2/16 17/5/17 1/6/1 2/3/2
f 8/7/8 9/8/9 4/9/4 3/10/3
f 43/11/43 18/12/18 6/13/6 41/14/41
f 65/15/65 19/16/19 5/17/5 63/18/63
f 78/19/78 73/20/73 24/21/24 35/22/35
f 71/23/71 72/24/72 25/25/25 21/26/21
f 74/27/74 75/28/75 22/29/22 23/30/23
f 55/31/55 20/1/20 10/4/10 53/32/53
f 62/33/62 60/34/60 13/35/13 42/36/42
f 3/10/3 4/9/4 12/37/12 11/38/11
f 58/39/58 40/40/40 20/1/20 55/31/55
f 68/41/68 39/42/39 19/16/19 65/15/65
f 46/43/46 38/44/38 18/12/18 43/11/43
f 36/45/36 37/46/37 17/5/17 16/2/16
f 40/40/40 36/45/36 16/2/16 20/1/20
f 75/28/75 71/23/71 21/26/21 22/29/22
f 79/47/79 76/48/76 27/49/27 56/50/56
f 81/51/81 70/52/70 26/53/26 66/54/66
f 72/24/72 77/55/77 28/56/28 25/25/25
f 15/57/15 11/38/11 29/58/29 33/59/33
f 11/38/11 12/37/12 30/60/30 29/58/29
f 42/36/42 13/35/13 31/61/31 44/62/44
f 64/63/64 14/64/14 32/65/32 67/66/67
f 54/67/54 15/57/15 33/59/33 57/68/57
f 80/69/80 78/19/78 35/22/35 61/70/61
f 33/59/33 29/58/29 36/45/36 40/40/40
f 29/58/29 30/60/30 37/46/37 36/45/36
f 44/62/44 31/61/31 38/44/38 46/43/46
f 67/66/67 32/65/32 39/42/39 68/41/68
f 57/68/57 33/59/33 40/40/40 58/39/58
f 41/14/41 6/13/6 50/71/50 52/72/52
f 53/32/53 10/4/10 51/73/51 59/74/59
f 63/18/63 5/17/5 49/75/49 69/76/69
f 10/4/10 2/3/2 48/77/48 51/73/51
f 2/3/2 1/6/1 47/78/47 48/77/48
f 5/17/5 53/32/53 59/74/59 49/75/49
f 32/65/32 57/68/57 58/39/58 39/42/39
f 14/64/14 54/67/54 57/68/57 32/65/32
f 77/55/77 79/47/79 56/50/56 28/56/28
f 39/42/39 58/39/58 55/31/55 19/16/19
f 19/16/19 55/31/55 53/32/53 5/17/5
f 70/52/70 80/69/80 61/70/61 26/53/26
f 45/79/45 34/80/34 60/34/60 62/33/62
f 6/13/6 63/18/63 69/76/69 50/71/50
f 31/61/31 67/66/67 68/41/68 38/44/38
f 13/35/13 64/63/64 67/66/67 31/61/31
f 76/48/76 81/51/81 66/54/66 27/49/27
f 38/44/38 68/41/68 65/15/65 18/12/18
f 18/12/18 65/15/65 63/18/63 6/13/6
f 14/64/14 64/63/64 81/51/81 76/48/76
f 13/35/13 60/34/60 80/69/80 70/52/70
f 15/57/15 54/67/54 79/47/79 77/55/77
f 60/34/60 34/80/34 78/19/78 80/69/80
f 11/38/11 15/57/15 77/55/77 72/24/72
f 64/63/64 13/35/13 70/52/70 81/51/81
f 54/67/54 14/64/14 76/48/76 79/47/79
f 8/7/8 3/10/3 71/23/71 75/28/75
f 9/8/9 8/7/8 75/28/75 74/27/74
f 3/10/3 11/38/11 72/24/72 71/23/71
f 34/80/34 7/81/7 73/20/73 78/19/78
