# Blender 4.5.3 LTS
# www.blender.org
o Terreno.005
v -854.734314 -46.222431 179.235352
v -854.734314 -46.778435 268.853027
v -854.734314 -47.621567 358.470703
v -854.734314 -3.562248 -577.083984
v -854.734314 -27.797401 -469.549683
v -854.734253 -45.294552 -198.496368
v -854.734253 -50.941780 -91.817970
v -854.734314 -39.532681 -334.023041
v -854.734314 -46.087128 43.708675
v -854.734314 -46.087128 111.472015
v -854.734314 -47.623436 -24.054646
v -854.734314 -42.472763 -266.259705
v -854.734253 -48.079735 -145.157166
v -854.734314 7.834528 -633.172363
v -1071.555542 -17.511444 179.235352
v -1071.555542 -19.230610 268.853027
v -1071.555542 -22.114042 358.470703
v -1071.555542 7.950696 -577.083984
v -1071.555542 -12.520371 -469.549683
v -1071.555420 -19.658060 -198.496368
v -1071.555420 -23.025869 -91.817970
v -1071.555542 -18.423866 -334.023041
v -1071.555542 -17.108576 43.708675
v -1071.555542 -17.108576 111.472015
v -1071.555542 -18.911755 -24.054646
v -1071.555542 -18.888052 -266.259705
v -1071.555420 -21.151657 -145.157166
v -1071.555542 18.198793 -633.172363
v -1722.455566 43.857536 179.235352
v -1722.455566 39.185757 268.853027
v -1722.455566 31.643456 358.470703
v -1722.455566 31.736954 -577.083984
v -1722.455566 21.099316 -469.549683
v -1722.455566 34.383389 -198.496368
v -1722.455566 36.284908 -91.817970
v -1722.455566 26.357710 -334.023041
v -1722.455566 45.011406 43.708675
v -1722.455566 45.011406 111.472015
v -1722.455566 42.456932 -24.054646
v -1722.455566 30.815348 -266.259705
v -1722.455566 35.796764 -145.157166
v -1722.455566 36.617916 -633.172363
vn 0.1303 0.9914 0.0083
vn 0.1250 0.9920 0.0166
vn 0.1214 0.9924 0.0206
vn 0.0550 0.9790 0.1963
vn 0.0722 0.9884 0.1334
vn 0.1165 0.9926 0.0331
vn 0.1275 0.9918 -0.0052
vn 0.0930 0.9947 0.0447
vn 0.1322 0.9912 -0.0122
vn 0.1322 0.9912 0.0020
vn 0.1306 0.9907 -0.0394
vn 0.1076 0.9939 0.0257
vn 0.1228 0.9915 0.0419
vn 0.0495 0.9807 0.1892
vn 0.1116 0.9936 0.0159
vn 0.1068 0.9938 0.0317
vn 0.1036 0.9938 0.0392
vn 0.0464 0.9848 0.1673
vn 0.0621 0.9927 0.1037
vn 0.0993 0.9950 0.0115
vn 0.1091 0.9939 -0.0182
vn 0.0796 0.9967 0.0157
vn 0.1134 0.9935 -0.0141
vn 0.1134 0.9935 0.0038
vn 0.1119 0.9926 -0.0466
vn 0.0918 0.9958 0.0003
vn 0.1049 0.9942 0.0243
vn 0.0407 0.9861 0.1612
vn 0.0930 0.9954 0.0234
vn 0.0887 0.9950 0.0466
vn 0.0857 0.9946 0.0579
vn 0.0378 0.9897 0.1383
vn 0.0520 0.9960 0.0729
vn 0.0822 0.9966 -0.0099
vn 0.0906 0.9954 -0.0314
vn 0.0663 0.9977 -0.0136
vn 0.0947 0.9954 -0.0160
vn 0.0947 0.9955 0.0057
vn 0.0932 0.9942 -0.0536
vn 0.0759 0.9968 -0.0250
vn 0.0870 0.9962 0.0069
vn 0.0321 0.9905 0.1336
vt 0.289920 0.547850
vt 0.289920 0.557390
vt 0.259395 0.557390
vt 0.259395 0.547850
vt 0.289920 0.576470
vt 0.259395 0.576470
vt 0.289920 0.459899
vt 0.289920 0.472515
vt 0.259395 0.472515
vt 0.259395 0.459899
vt 0.289920 0.504212
vt 0.289920 0.513752
vt 0.259395 0.513752
vt 0.259395 0.504212
vt 0.289920 0.494672
vt 0.259395 0.494672
vt 0.289920 0.591609
vt 0.289920 0.599505
vt 0.259395 0.599505
vt 0.259395 0.591609
vt 0.289920 0.523292
vt 0.259395 0.523292
vt 0.289920 0.530801
vt 0.289920 0.538310
vt 0.259395 0.538310
vt 0.259395 0.530801
vt 0.289920 0.485132
vt 0.259395 0.485132
vt 0.167759 0.576470
vt 0.167759 0.557390
vt 0.167759 0.472515
vt 0.167759 0.459899
vt 0.167759 0.538310
vt 0.167759 0.530801
vt 0.167759 0.513752
vt 0.167759 0.504212
vt 0.167759 0.494672
vt 0.167759 0.599505
vt 0.167759 0.591609
vt 0.167759 0.523292
vt 0.167759 0.547850
vt 0.167759 0.485132
s 1
f 12/1/12 8/2/8 22/3/22 26/4/26
f 8/2/8 5/5/5 19/6/19 22/3/22
f 3/7/3 2/8/2 16/9/16 17/10/17
f 9/11/9 11/12/11 25/13/25 23/14/23
f 10/15/10 9/11/9 23/14/23 24/16/24
f 4/17/4 14/18/14 28/19/28 18/20/18
f 5/5/5 4/17/4 18/20/18 19/6/19
f 11/12/11 7/21/7 21/22/21 25/13/25
f 13/23/13 6/24/6 20/25/20 27/26/27
f 6/24/6 12/1/12 26/4/26 20/25/20
f 7/21/7 13/23/13 27/26/27 21/22/21
f 1/27/1 10/15/10 24/16/24 15/28/15
f 2/8/2 1/27/1 15/28/15 16/9/16
f 22/3/22 19/6/19 33/29/33 36/30/36
f 17/10/17 16/9/16 30/31/30 31/32/31
f 27/26/27 20/25/20 34/33/34 41/34/41
f 23/14/23 25/13/25 39/35/39 37/36/37
f 24/16/24 23/14/23 37/36/37 38/37/38
f 18/20/18 28/19/28 42/38/42 32/39/32
f 19/6/19 18/20/18 32/39/32 33/29/33
f 25/13/25 21/22/21 35/40/35 39/35/39
f 20/25/20 26/4/26 40/41/40 34/33/34
f 21/22/21 27/26/27 41/34/41 35/40/35
f 15/28/15 24/16/24 38/37/38 29/42/29
f 16/9/16 15/28/15 29/42/29 30/31/30
f 26/4/26 22/3/22 36/30/36 40/41/40
