# Blender 4.5.3 LTS
# www.blender.org
o Terreno.001
v -722.579773 13.049921 -740.149475
v -276.943817 -17.489725 -740.149536
v -722.579773 -11.311676 -577.083984
v -276.943817 -18.679911 -577.083984
v -276.943817 -17.796818 -689.260864
v -722.579773 11.481877 -689.260803
v -391.055786 3.593731 -740.149536
v -391.055786 -0.320959 -577.083984
v -391.055786 3.015026 -689.260864
v -610.943665 -7.725959 -740.149475
v -610.943665 -16.826597 -577.083984
v -610.943665 -8.838094 -689.260803
v -444.833374 -8.273423 -740.149536
v -444.833374 -13.510838 -577.083984
v -444.833374 -8.985277 -689.260864
v -527.888550 -7.999691 -740.149475
v -527.888550 -15.168716 -577.083984
v -527.888550 -8.911685 -689.260803
v -854.734314 20.799349 -740.149475
v -854.734314 -3.562248 -577.083984
v -854.734314 19.231304 -689.260803
v -276.943817 12.817934 -1650.114624
v -391.055786 33.901390 -1650.114624
v -610.943665 22.581699 -1650.114624
v -444.833374 22.034237 -1650.114624
v -527.888550 22.307968 -1650.114624
v -722.579773 0.085100 -633.172363
v -276.943817 -18.238365 -633.172485
v -391.055786 1.347034 -633.172485
v -610.943665 -12.832345 -633.172363
v -444.833374 -11.248057 -633.172485
v -527.888550 -12.040201 -633.172363
v -854.734314 7.834528 -633.172363
vn 0.1192 0.9925 0.0284
vn 0.1811 0.9833 0.0206
vn 0.0696 0.9835 0.1669
vn 0.1640 0.9863 0.0185
vn 0.1774 0.9840 0.0135
vn 0.1105 0.9890 0.0979
vn -0.0171 0.9996 0.0220
vn -0.0339 0.9991 0.0268
vn -0.0206 0.9996 0.0187
vn 0.0618 0.9977 0.0265
vn 0.0333 0.9945 0.0995
vn 0.0810 0.9948 0.0614
vn -0.1058 0.9941 0.0237
vn -0.1224 0.9916 0.0414
vn -0.1098 0.9936 0.0279
vn 0.0027 0.9997 0.0256
vn -0.0147 0.9983 0.0557
vn -0.0011 0.9993 0.0368
vn 0.0585 0.9978 0.0307
vn 0.0574 0.9784 0.1988
vn 0.0582 0.9917 0.1144
vn 0.1816 0.9828 0.0327
vn -0.0164 0.9993 0.0333
vn 0.0033 0.9994 0.0333
vn -0.1057 0.9938 0.0331
vn 0.0859 0.9822 0.1671
vn 0.1691 0.9854 0.0185
vn -0.0287 0.9992 0.0268
vn 0.0518 0.9937 0.0993
vn -0.1179 0.9922 0.0414
vn -0.0095 0.9984 0.0557
vt 0.324241 0.607402
vt 0.324241 0.614566
vt 0.308525 0.614566
vt 0.308525 0.607402
vt 0.324241 0.599505
vt 0.308525 0.599505
vt 0.371263 0.599505
vt 0.371263 0.607402
vt 0.355198 0.607402
vt 0.355198 0.599505
vt 0.371263 0.614566
vt 0.355198 0.614566
vt 0.335934 0.599505
vt 0.335934 0.607402
vt 0.335934 0.614566
vt 0.347627 0.614566
vt 0.347627 0.607402
vt 0.347627 0.599505
vt 0.289920 0.614566
vt 0.289920 0.607402
vt 0.289920 0.599505
vt 0.347627 0.742673
vt 0.335934 0.742673
vt 0.324241 0.742673
vt 0.355198 0.742673
vt 0.371263 0.742673
vt 0.308525 0.591609
vt 0.289920 0.591609
vt 0.347627 0.591609
vt 0.335934 0.591609
vt 0.355198 0.591609
vt 0.324241 0.591609
vt 0.371263 0.591609
s 1
f 12/1/12 10/2/10 1/3/1 6/4/6
f 30/5/29 12/1/12 6/4/6 27/6/26
f 28/7/27 5/8/5 9/9/9 29/10/28
f 5/8/5 2/11/2 7/12/7 9/9/9
f 32/13/31 18/14/18 12/1/12 30/5/29
f 18/14/18 16/15/16 10/2/10 12/1/12
f 9/9/9 7/12/7 13/16/13 15/17/15
f 29/10/28 9/9/9 15/17/15 31/18/30
f 15/17/15 13/16/13 16/15/16 18/14/18
f 31/18/30 15/17/15 18/14/18 32/13/31
f 6/4/6 1/3/1 19/19/19 21/20/21
f 27/6/26 6/4/6 21/20/21 33/21/20
f 16/15/16 13/16/13 25/22/25 26/23/24
f 10/2/10 16/15/16 26/23/24 24/24/24
f 13/16/13 7/12/7 23/25/23 25/22/25
f 7/12/7 2/11/2 22/26/22 23/25/23
f 3/27/3 27/6/26 33/21/20 20/28/20
f 14/29/14 31/18/30 32/13/31 17/30/17
f 8/31/8 29/10/28 31/18/30 14/29/14
f 17/30/17 32/13/31 30/5/29 11/32/11
f 4/33/4 28/7/27 29/10/28 8/31/8
f 11/32/11 30/5/29 27/6/26 3/27/3
