# Blender 4.5.3 LTS
# www.blender.org
o Terreno.007
v -722.579773 -36.627590 890.781494
v -276.943878 -22.555872 890.781494
v 266.851654 -4.062181 890.781494
v -391.055847 -16.122757 890.781494
v -610.943665 -36.627590 890.781494
v -444.833435 -18.171007 890.781494
v -333.999847 -16.853928 890.781494
v 80.603203 -16.399431 890.781494
v -98.170341 -19.273073 890.781494
v -527.888550 -28.640079 890.781494
v -854.734314 -28.878162 890.781494
v -362.527832 -14.979726 890.781494
v 350.622894 13.044436 890.781494
v -722.579773 2.318682 1268.369629
v -276.943878 -0.935638 1268.369629
v 266.851654 16.699219 1268.369629
v -391.055847 15.295410 1268.369629
v -610.943665 5.274080 1268.369629
v -444.833435 17.450560 1268.369629
v -333.999847 9.634124 1268.369629
v 80.603203 -1.017119 1268.369629
v -98.170341 -5.478133 1268.369629
v -527.888550 11.650314 1268.369629
v -854.734314 5.117605 1268.369629
v -362.527832 14.003848 1268.369629
v 350.622894 36.226418 1268.369629
v -722.579773 72.791878 1619.117676
v -276.943878 49.729206 1619.117676
v 266.851654 47.462643 1619.117676
v -391.055847 76.352448 1619.117676
v -610.943665 77.914932 1619.117676
v -444.833435 82.749611 1619.117676
v -333.999847 65.677750 1619.117676
v 80.603203 27.854136 1619.117676
v -98.170341 26.566202 1619.117676
v -527.888550 82.125595 1619.117676
v -854.734314 69.444237 1619.117676
v -362.527832 72.590584 1619.117676
v 350.622894 67.815620 1619.117676
vn 0.0132 0.9948 -0.1013
vn 0.0718 0.9959 -0.0550
vn -0.1459 0.9879 -0.0522
vn 0.0018 0.9965 -0.0841
vn -0.0492 0.9930 -0.1072
vn -0.0483 0.9944 -0.0941
vn 0.1248 0.9899 -0.0679
vn -0.0503 0.9978 -0.0431
vn -0.0085 0.9991 -0.0427
vn -0.0913 0.9904 -0.1037
vn 0.0397 0.9946 -0.0961
vn 0.0555 0.9955 -0.0764
vn -0.2133 0.9753 -0.0568
vn -0.0027 0.9890 -0.1477
vn 0.1102 0.9896 -0.0929
vn -0.1553 0.9855 -0.0688
vn 0.0421 0.9909 -0.1282
vn -0.0492 0.9869 -0.1534
vn -0.0138 0.9901 -0.1394
vn 0.1663 0.9799 -0.1101
vn -0.0539 0.9965 -0.0643
vn 0.0108 0.9973 -0.0722
vn -0.0709 0.9862 -0.1494
vn 0.0188 0.9896 -0.1427
vn 0.0977 0.9880 -0.1200
vn -0.2221 0.9724 -0.0717
vn -0.0188 0.9808 -0.1943
vn 0.1519 0.9795 -0.1323
vn -0.1656 0.9825 -0.0854
vn 0.0824 0.9816 -0.1722
vn -0.0490 0.9786 -0.1997
vn 0.0194 0.9828 -0.1837
vn 0.2071 0.9663 -0.1527
vn -0.0578 0.9947 -0.0855
vn 0.0306 0.9943 -0.1018
vn -0.0501 0.9796 -0.1947
vn -0.0020 0.9820 -0.1887
vn 0.1375 0.9770 -0.1633
vn -0.2307 0.9692 -0.0861
vt 0.347627 0.384959
vt 0.335934 0.384959
vt 0.335934 0.331801
vt 0.347627 0.331801
vt 0.371263 0.384959
vt 0.363230 0.384959
vt 0.363230 0.331801
vt 0.371263 0.331801
vt 0.359214 0.384959
vt 0.359214 0.331801
vt 0.447820 0.384959
vt 0.421599 0.384959
vt 0.421599 0.331801
vt 0.447820 0.331801
vt 0.396431 0.384959
vt 0.396431 0.331801
vt 0.324241 0.384959
vt 0.324241 0.331801
vt 0.308525 0.384959
vt 0.289920 0.384959
vt 0.289920 0.331801
vt 0.308525 0.331801
vt 0.355198 0.384959
vt 0.355198 0.331801
vt 0.459614 0.384959
vt 0.459614 0.331801
vt 0.421599 0.282421
vt 0.447820 0.282421
vt 0.396431 0.282421
vt 0.371263 0.282421
vt 0.324241 0.282421
vt 0.335934 0.282421
vt 0.289920 0.282421
vt 0.308525 0.282421
vt 0.347627 0.282421
vt 0.355198 0.282421
vt 0.359214 0.282421
vt 0.459614 0.282421
vt 0.363230 0.282421
s 1
f 6/1/6 10/2/10 23/3/23 19/4/19
f 2/5/2 7/6/7 20/7/20 15/8/15
f 7/6/7 12/9/12 25/10/25 20/7/20
f 3/11/3 8/12/8 21/13/21 16/14/16
f 8/12/8 9/15/9 22/16/22 21/13/21
f 9/15/9 2/5/2 15/8/15 22/16/22
f 10/2/10 5/17/5 18/18/18 23/3/23
f 1/19/1 11/20/11 24/21/24 14/22/14
f 4/23/4 6/1/6 19/4/19 17/24/17
f 12/9/12 4/23/4 17/24/17 25/10/25
f 5/17/5 1/19/1 14/22/14 18/18/18
f 13/25/13 3/11/3 16/14/16 26/26/26
f 16/14/16 21/13/21 34/27/34 29/28/29
f 21/13/21 22/16/22 35/29/35 34/27/34
f 22/16/22 15/8/15 28/30/28 35/29/35
f 23/3/23 18/18/18 31/31/31 36/32/36
f 14/22/14 24/21/24 37/33/37 27/34/27
f 17/24/17 19/4/19 32/35/32 30/36/30
f 25/10/25 17/24/17 30/36/30 38/37/38
f 18/18/18 14/22/14 27/34/27 31/31/31
f 26/26/26 16/14/16 29/28/29 39/38/39
f 19/4/19 23/3/23 36/32/36 32/35/32
f 15/8/15 20/7/20 33/39/33 28/30/28
f 20/7/20 25/10/25 38/37/38 33/39/33
