# Blender 4.5.3 LTS
# www.blender.org
mtllib Agua.mtl
o Agua
v 303.995361 -64.981285 377.908569
v 155.760056 -64.981285 286.830841
v 67.425293 -64.981285 206.111740
v 635.064392 -64.981285 126.160408
v 613.529663 -64.981285 192.166977
v 448.457489 -64.981285 387.025574
v 585.869385 -64.981285 285.283142
v -198.101151 -64.985397 -319.858704
v -281.009460 -65.667999 -460.903809
v -77.573372 -64.985397 -327.634399
v -114.589218 -64.981285 -485.298767
v -79.373131 -64.981285 -650.057922
v 383.197418 -64.981285 -715.788269
v 542.438782 -64.981285 -615.130310
v -233.653473 -64.981285 -73.060692
v -197.662582 -64.985397 -187.437973
v -34.737370 -64.981285 49.256180
v -43.431770 -65.524544 -94.376663
v -46.688099 -64.985397 -197.087418
v 129.347382 -64.981285 -738.993469
v 300.308716 -64.985397 208.628189
v 243.855347 -64.985397 167.175797
v 211.368164 -64.985397 128.203415
v 511.906921 -64.985397 105.378036
v 499.722015 -64.985397 166.781189
v 393.000854 -64.985397 225.049789
v 471.515259 -64.985397 216.097046
v 57.520428 -64.985397 -326.922577
v 11.352612 -65.200348 -446.066864
v 26.398184 -64.985397 -562.908020
v 359.904877 -64.985397 -589.650940
v 442.339874 -64.985397 -538.103210
v 169.510727 -64.985397 24.155098
v 156.959579 -64.985397 -94.925346
v 160.203476 -64.985397 -230.920975
v 143.852402 -64.985397 -612.205627
v 643.051636 -64.981285 45.053448
v 8.218451 -64.981285 135.713974
v 517.420105 -64.985397 45.053448
v 189.555237 -64.985397 75.484520
v -411.393677 -66.963318 -413.859558
v -422.552094 -63.486420 -141.859680
v -456.979889 -64.377609 -219.829803
v -468.066040 -65.196312 -331.951050
vn -0.0000 1.0000 -0.0000
vn -0.0013 1.0000 -0.0031
vn -0.0037 1.0000 -0.0062
vn -0.0003 1.0000 -0.0006
vn -0.0005 1.0000 -0.0003
vn 0.0002 1.0000 0.0004
vn 0.0039 1.0000 -0.0012
vn 0.0022 1.0000 -0.0010
vn -0.0007 1.0000 -0.0010
vn -0.0002 1.0000 0.0011
vn 0.0001 1.0000 0.0013
vn 0.0004 1.0000 -0.0004
vn 0.0008 1.0000 -0.0004
vn 0.0003 1.0000 0.0005
vn -0.0013 1.0000 0.0001
vn -0.0006 1.0000 0.0012
vn -0.0047 0.9999 -0.0104
vn 0.0057 1.0000 -0.0046
vn 0.0028 1.0000 -0.0039
vn -0.0015 1.0000 -0.0065
vt 0.199404 0.668680
vt 0.183843 0.734959
vt 0.113884 0.724704
vt 0.148737 0.665412
vt 0.213756 0.570625
vt 0.212387 0.613802
vt 0.148921 0.609745
vt 0.133791 0.561664
vt 0.358256 0.443249
vt 0.334524 0.460674
vt 0.297491 0.410374
vt 0.359806 0.372087
vt 0.320868 0.477057
vt 0.260357 0.444307
vt 0.447207 0.486653
vt 0.442084 0.460840
vt 0.489926 0.450169
vt 0.498979 0.477916
vt 0.430227 0.440109
vt 0.397222 0.436345
vt 0.420534 0.368255
vt 0.478299 0.411025
vt 0.256194 0.668381
vt 0.236786 0.718467
vt 0.243111 0.767584
vt 0.198647 0.804219
vt 0.383309 0.778826
vt 0.417962 0.757156
vt 0.460042 0.789537
vt 0.393100 0.831851
vt 0.303272 0.520797
vt 0.297995 0.570855
vt 0.217411 0.510245
vt 0.299359 0.628024
vt 0.292486 0.788307
vt 0.286388 0.841606
vt 0.311698 0.499219
vt 0.235468 0.473900
vt 0.449524 0.512012
vt 0.502337 0.512012
vt 0.035250 0.670495
vt 0.039910 0.623362
vt 0.054383 0.590585
vt 0.059074 0.704927
s 1
usemtl Agua
f 10/1/4 11/2/5 9/3/3 8/4/2
f 18/5/10 19/6/11 16/7/8 15/8/7
f 21/9/1 22/10/1 2/11/1 1/12/1
f 22/10/1 23/13/1 3/14/1 2/11/1
f 24/15/1 25/16/1 5/17/1 4/18/1
f 27/19/1 26/20/1 6/21/1 7/22/1
f 25/16/1 27/19/1 7/22/1 5/17/1
f 26/20/1 21/9/1 1/12/1 6/21/1
f 28/23/12 29/24/13 11/2/5 10/1/4
f 29/24/13 30/25/14 12/26/6 11/2/5
f 31/27/1 32/28/1 14/29/1 13/30/1
f 33/31/9 34/32/15 18/5/10 17/33/9
f 34/32/15 35/34/16 19/6/11 18/5/10
f 30/25/14 36/35/1 20/36/1 12/26/6
f 36/35/1 31/27/1 13/30/1 20/36/1
f 35/34/16 28/23/12 10/1/4 19/6/11
f 19/6/11 10/1/4 8/4/2 16/7/8
f 40/37/1 33/31/9 17/33/9 38/38/1
f 23/13/1 40/37/1 38/38/1 3/14/1
f 39/39/1 24/15/1 4/18/1 37/40/1
f 16/7/8 8/4/2 44/41/20 43/42/19
f 15/8/7 16/7/8 43/42/19 42/43/18
f 8/4/2 9/3/3 41/44/17 44/41/20
