# Blender 4.5.3 LTS
# www.blender.org
mtllib Colina.mtl
o Colina
v -416.039246 59.560871 -894.888306
v -416.039246 59.560860 -1071.997681
v -238.929916 59.560860 -894.888306
v -238.929901 59.560860 -1071.997681
v -451.691528 -0.000000 -859.236023
v -438.175537 38.548027 -872.752075
v -425.042145 65.616104 -932.930176
v -429.385345 68.537277 -983.442993
v -425.042175 65.616096 -1033.955811
v -438.175507 38.548027 -1094.133911
v -451.691559 -0.000000 -1107.649902
v -377.997406 65.616104 -1081.000610
v -327.484589 68.537277 -1085.343750
v -276.971771 65.616096 -1081.000610
v -216.793671 38.548027 -1094.133911
v -203.277634 -0.000000 -1107.649902
v -229.927032 65.616104 -1033.955811
v -225.583832 68.537277 -983.442993
v -229.927002 65.616096 -932.930176
v -216.793671 38.548027 -872.752075
v -203.277618 -0.000000 -859.236023
v -276.971771 65.616104 -885.885437
v -327.484589 68.537285 -881.542236
v -377.997406 65.616096 -885.885437
v -486.791809 -0.000001 -915.561523
v -467.406006 40.814564 -922.760193
v -498.544312 0.000001 -983.442993
v -476.668396 42.755005 -983.442993
v -486.791809 0.000002 -1051.324463
v -467.406006 40.814560 -1044.125854
v -395.366058 -0.000001 -1142.750244
v -388.167389 40.814564 -1123.364380
v -327.484589 0.000001 -1154.502686
v -327.484589 42.755005 -1132.626831
v -259.603119 0.000001 -1142.750244
v -266.801788 40.814564 -1123.364380
v -168.177353 -0.000001 -1051.324463
v -187.563171 40.814564 -1044.125854
v -156.424866 0.000001 -983.442993
v -178.300766 42.755005 -983.442993
v -168.177353 0.000001 -915.561523
v -187.563171 40.814564 -922.760193
v -259.603119 -0.000001 -824.135742
v -266.801788 40.814564 -843.521606
v -327.484589 0.000001 -812.383301
v -327.484589 42.755005 -834.259155
v -395.366058 0.000001 -824.135742
v -388.167389 40.814564 -843.521606
v -278.644348 75.743591 -1032.283203
v -327.484589 78.842110 -1033.391724
v -376.324829 75.743591 -1032.283203
v -277.535858 78.842110 -983.442993
v -327.484589 82.607414 -983.442993
v -377.433319 78.842110 -983.442993
v -278.644348 75.743591 -934.602722
v -327.484589 78.842110 -933.494263
v -376.324829 75.743591 -934.602722
vn -0.3147 0.8955 0.3147
vn -0.3147 0.8955 -0.3147
vn 0.3147 0.8955 0.3147
vn 0.3147 0.8955 -0.3147
vn -0.6316 0.4496 0.6316
vn -0.5236 0.6721 0.5236
vn -0.3342 0.9297 0.1551
vn -0.3402 0.9404 -0.0000
vn -0.3342 0.9297 -0.1551
vn -0.5236 0.6721 -0.5236
vn -0.6316 0.4496 -0.6316
vn -0.1551 0.9297 -0.3342
vn -0.0000 0.9404 -0.3402
vn 0.1551 0.9297 -0.3342
vn 0.5236 0.6721 -0.5236
vn 0.6316 0.4496 -0.6316
vn 0.3342 0.9297 -0.1551
vn 0.3402 0.9404 -0.0000
vn 0.3342 0.9297 0.1551
vn 0.5236 0.6721 0.5236
vn 0.6316 0.4497 0.6316
vn 0.1551 0.9297 0.3342
vn -0.0000 0.9404 0.3402
vn -0.1551 0.9297 0.3342
vn -0.8351 0.4506 0.3154
vn -0.6743 0.6929 0.2553
vn -0.8914 0.4533 -0.0000
vn -0.7020 0.7122 -0.0000
vn -0.8351 0.4506 -0.3154
vn -0.6743 0.6929 -0.2553
vn -0.3154 0.4506 -0.8351
vn -0.2553 0.6929 -0.6743
vn -0.0000 0.4533 -0.8914
vn -0.0000 0.7122 -0.7020
vn 0.3154 0.4506 -0.8351
vn 0.2553 0.6929 -0.6743
vn 0.8351 0.4506 -0.3154
vn 0.6743 0.6929 -0.2553
vn 0.8914 0.4533 -0.0000
vn 0.7020 0.7122 -0.0000
vn 0.8351 0.4506 0.3154
vn 0.6743 0.6929 0.2553
vn 0.3154 0.4506 0.8351
vn 0.2553 0.6929 0.6743
vn -0.0000 0.4533 0.8914
vn -0.0000 0.7122 0.7020
vn -0.3154 0.4506 0.8351
vn -0.2553 0.6929 0.6743
vn 0.1314 0.9826 -0.1314
vn -0.0000 0.9910 -0.1337
vn -0.1314 0.9826 -0.1314
vn 0.1337 0.9910 -0.0000
vn -0.0000 1.0000 -0.0000
vn -0.1337 0.9910 -0.0000
vn 0.1314 0.9826 0.1314
vn -0.0000 0.9910 0.1337
vn -0.1314 0.9826 0.1314
vt 0.000100 0.598456
vt 0.163771 0.565204
vt 0.227524 0.686908
vt 0.077746 0.789649
vt 0.318112 0.790203
vt 0.228161 0.930926
vt 0.000100 0.406884
vt 0.149871 0.434782
vt 0.244967 0.452495
vt 0.279319 0.527686
vt 0.332470 0.614919
vt 0.394715 0.695913
vt 0.452495 0.755033
vt 0.434782 0.850129
vt 0.406885 0.999900
vt 0.598456 0.999898
vt 0.565204 0.836228
vt 0.686907 0.772476
vt 0.789647 0.922252
vt 0.790203 0.681888
vt 0.930924 0.771839
vt 0.527686 0.720681
vt 0.614918 0.667530
vt 0.695912 0.605284
vt 0.755033 0.547505
vt 0.850129 0.565218
vt 0.999900 0.593116
vt 0.999900 0.401544
vt 0.836229 0.434796
vt 0.772476 0.313092
vt 0.922253 0.210351
vt 0.681888 0.209797
vt 0.771838 0.069074
vt 0.720681 0.472314
vt 0.667530 0.385081
vt 0.605284 0.304087
vt 0.547504 0.244967
vt 0.565218 0.149871
vt 0.593115 0.000100
vt 0.401543 0.000102
vt 0.434796 0.163772
vt 0.313093 0.227524
vt 0.210352 0.077748
vt 0.209797 0.318112
vt 0.069076 0.228161
vt 0.472313 0.279319
vt 0.385081 0.332470
vt 0.304087 0.394716
vt 0.633508 0.524868
vt 0.555092 0.580314
vt 0.500000 0.500000
vt 0.580314 0.444908
vt 0.475131 0.633508
vt 0.419686 0.555092
vt 0.444908 0.419686
vt 0.524868 0.366492
vt 0.366491 0.475132
s 1
f 25/1/25 26/2/26 28/3/28 27/4/27
f 27/4/27 28/3/28 30/5/30 29/6/29
f 5/7/5 6/8/6 26/2/26 25/1/25
f 6/8/6 1/9/1 7/10/7 26/2/26
f 26/2/26 7/10/7 8/11/8 28/3/28
f 28/3/28 8/11/8 9/12/9 30/5/30
f 30/5/30 9/12/9 2/13/2 10/14/10
f 29/6/29 30/5/30 10/14/10 11/15/11
f 31/16/31 32/17/32 34/18/34 33/19/33
f 33/19/33 34/18/34 36/20/36 35/21/35
f 11/15/11 10/14/10 32/17/32 31/16/31
f 10/14/10 2/13/2 12/22/12 32/17/32
f 32/17/32 12/22/12 13/23/13 34/18/34
f 34/18/34 13/23/13 14/24/14 36/20/36
f 36/20/36 14/24/14 4/25/4 15/26/15
f 35/21/35 36/20/36 15/26/15 16/27/16
f 37/28/37 38/29/38 40/30/40 39/31/39
f 39/31/39 40/30/40 42/32/42 41/33/41
f 16/27/16 15/26/15 38/29/38 37/28/37
f 15/26/15 4/25/4 17/34/17 38/29/38
f 38/29/38 17/34/17 18/35/18 40/30/40
f 40/30/40 18/35/18 19/36/19 42/32/42
f 42/32/42 19/36/19 3/37/3 20/38/20
f 41/33/41 42/32/42 20/38/20 21/39/21
f 43/40/43 44/41/44 46/42/46 45/43/45
f 45/43/45 46/42/46 48/44/48 47/45/47
f 21/39/21 20/38/20 44/41/44 43/40/43
f 20/38/20 3/37/3 22/46/22 44/41/44
f 44/41/44 22/46/22 23/47/23 46/42/46
f 46/42/46 23/47/23 24/48/24 48/44/48
f 48/44/48 24/48/24 1/9/1 6/8/6
f 47/45/47 48/44/48 6/8/6 5/7/5
f 49/49/49 50/50/50 53/51/53 52/52/52
f 50/50/50 51/53/51 54/54/54 53/51/53
f 52/52/52 53/51/53 56/55/56 55/56/55
f 53/51/53 54/54/54 57/57/57 56/55/56
f 4/25/4 14/24/14 49/49/49 17/34/17
f 14/24/14 13/23/13 50/50/50 49/49/49
f 13/23/13 12/22/12 51/53/51 50/50/50
f 12/22/12 2/13/2 9/12/9 51/53/51
f 51/53/51 9/12/9 8/11/8 54/54/54
f 54/54/54 8/11/8 7/10/7 57/57/57
f 57/57/57 7/10/7 1/9/1 24/48/24
f 56/55/56 57/57/57 24/48/24 23/47/23
f 55/56/55 56/55/56 23/47/23 22/46/22
f 19/36/19 55/56/55 22/46/22 3/37/3
f 18/35/18 52/52/52 55/56/55 19/36/19
f 17/34/17 49/49/49 52/52/52 18/35/18
