# Blender 4.5.3 LTS
# www.blender.org
o Montaña_1_1
v -712.345215 168.213455 -502.200897
v -451.795197 168.213440 -502.200867
v -712.345215 168.213440 -762.750916
v -451.795166 168.213440 -762.750854
v -766.306885 168.213455 -632.475891
v -582.070190 168.213455 -448.239197
v -397.833496 168.213455 -632.475891
v -582.070190 168.213455 -816.712585
v -582.070190 481.512482 -632.475891
v -752.282715 168.213440 -561.971558
v -511.565857 168.213440 -462.263367
v -411.857666 168.213440 -702.980225
v -652.574524 168.213257 -802.688416
v -752.282715 168.213440 -702.980225
v -652.574524 168.213486 -462.263397
v -411.857697 168.213455 -561.971558
v -511.565857 168.213486 -802.688354
v -582.070190 403.793243 -712.475891
v -582.070190 403.793243 -552.475891
v -662.070190 403.793243 -632.475891
v -502.070190 403.793243 -632.475891
v -502.070190 337.929626 -552.475891
v -662.070190 337.929626 -552.475891
v -662.070190 337.929626 -712.475891
v -502.070190 337.929626 -712.475891
v -735.257385 168.213440 -530.119507
v -479.713776 168.213440 -479.288696
v -428.882996 168.213440 -734.832275
v -684.426636 168.213486 -785.663086
v -762.766846 168.213486 -668.418701
v -618.013000 168.213455 -451.779266
v -401.373566 168.213455 -596.533081
v -546.127380 168.213440 -813.172485
v -582.070190 322.743988 -752.475891
v -582.070190 460.293732 -592.475891
v -702.070190 322.743988 -632.475891
v -542.070190 460.293732 -632.475891
v -762.766846 168.213440 -596.533081
v -546.127380 168.213440 -451.779236
v -401.373535 168.213440 -668.418701
v -618.013000 168.213440 -813.172546
v -735.257385 168.213440 -734.832336
v -684.426636 168.213486 -479.288696
v -428.882996 168.213455 -530.119446
v -479.713776 168.213486 -785.663086
v -582.070190 460.293732 -672.475891
v -582.070190 322.743988 -512.475891
v -622.070190 460.293732 -632.475891
v -462.070190 322.743988 -632.475891
v -502.070190 386.474915 -592.475891
v -502.070190 266.262482 -512.475891
v -542.070190 386.474915 -552.475891
v -462.070190 266.262482 -552.475891
v -662.070190 386.474915 -592.475891
v -662.070190 266.262482 -512.475891
v -702.070190 266.262482 -552.475891
v -622.070190 386.474915 -552.475891
v -662.070190 266.262482 -752.475891
v -662.070190 386.474915 -672.475891
v -702.070190 266.262482 -712.475891
v -622.070190 386.474915 -712.475891
v -502.070190 266.262482 -752.475891
v -502.070190 386.474915 -672.475891
v -542.070190 386.474915 -712.475891
v -462.070190 266.262482 -712.475891
v -462.070190 308.005981 -672.475891
v -542.070190 440.557159 -672.475891
v -542.070190 308.005981 -752.475891
v -622.070190 440.557159 -672.475891
v -702.070190 308.005981 -672.475891
v -702.070190 203.988037 -752.475891
v -622.070190 308.005981 -512.475891
v -702.070190 203.988037 -512.475891
v -702.070190 308.005981 -592.475891
v -462.070190 203.988037 -512.475891
v -542.070190 308.005981 -512.475891
v -542.070190 440.557159 -592.475891
v -462.070190 308.005981 -592.475891
v -622.070190 440.557159 -592.475891
v -622.070190 308.005981 -752.475891
v -462.070190 203.988037 -752.475891
v -766.402161 -61.125763 -448.143951
v -397.738251 -61.125790 -448.143921
v -766.402100 -61.125790 -816.807861
v -397.738220 -61.125790 -816.807861
v -842.754883 -61.125763 -632.475891
v -582.070190 -61.125763 -893.160645
v -822.911499 -61.125790 -532.716187
v -341.228882 -61.125790 -732.235596
v -681.829895 -61.126034 -873.317200
v -822.911499 -61.125790 -732.235657
v -482.310455 -61.125710 -873.317139
v -798.821655 -61.125790 -487.647217
v -437.241516 -61.125790 -415.724457
v -365.318756 -61.125790 -777.304565
v -726.898865 -61.125710 -849.227295
v -837.745911 -61.125710 -683.332947
v -531.213135 -61.125790 -888.151611
v -837.745972 -61.125790 -581.618835
v -632.927246 -61.125790 -888.151672
v -798.821594 -61.125790 -777.304565
v -365.318787 -61.125763 -487.647217
v -437.241516 -61.125710 -849.227295
v -667.202209 53.543884 -426.949005
v -458.477631 53.543884 -817.445190
v -424.766724 53.543823 -789.779358
v -496.938171 53.543884 -838.002808
v -359.609497 53.543839 -632.475891
v -538.670227 53.543823 -850.662109
v -582.070190 53.543839 -854.936584
v -800.256409 53.543823 -589.075989
v -804.530884 53.543839 -632.475891
v -787.597107 53.543823 -547.343872
v -767.039551 53.543823 -508.883362
v -739.373657 53.543839 -475.172424
v -363.883972 53.543823 -675.875793
v -376.543274 53.543823 -717.607910
v -625.470093 53.543823 -850.662109
v -667.202209 53.543610 -838.002808
v -397.100861 53.543823 -756.068420
v -767.039490 53.543823 -756.068481
v -739.373657 53.543823 -789.779358
v -787.597046 53.543823 -717.607910
v -705.662720 53.543884 -817.445190
v -705.662720 53.543884 -447.506592
v -800.256348 53.543884 -675.875854
vn -0.6636 0.3453 0.6636
vn 0.6636 0.3453 0.6636
vn -0.6636 0.3453 -0.6636
vn 0.6636 0.3453 -0.6636
vn -0.9359 0.3522 -0.0000
vn -0.0000 0.3893 0.9211
vn 0.9307 0.3643 -0.0321
vn -0.0000 0.3522 -0.9359
vn -0.0000 1.0000 -0.0000
vn -0.8537 0.3489 0.3865
vn 0.4102 0.3823 0.8280
vn 0.8537 0.3489 -0.3865
vn -0.3865 0.3489 -0.8537
vn -0.8537 0.3489 -0.3865
vn -0.4233 0.3593 0.8317
vn 0.8280 0.3823 0.4102
vn 0.3865 0.3489 -0.8537
vn -0.0000 0.5336 -0.8457
vn -0.0000 0.5336 0.8457
vn -0.8457 0.5336 -0.0000
vn 0.8457 0.5336 -0.0000
vn 0.6383 0.4304 0.6383
vn -0.6383 0.4304 0.6383
vn -0.6383 0.4304 -0.6383
vn 0.6383 0.4304 -0.6383
vn -0.7670 0.3470 0.5397
vn 0.5698 0.3570 0.7402
vn 0.7670 0.3470 -0.5397
vn -0.5397 0.3470 -0.7670
vn -0.9141 0.3512 -0.2026
vn -0.2205 0.3871 0.8953
vn 0.8953 0.3871 0.2205
vn 0.2026 0.3512 -0.9141
vn -0.0000 0.4249 -0.9052
vn -0.0000 0.7844 0.6203
vn -0.9052 0.4249 -0.0000
vn 0.6203 0.7844 -0.0000
vn -0.9141 0.3512 0.2026
vn 0.2205 0.3871 0.8953
vn 0.9141 0.3512 -0.2026
vn -0.2026 0.3512 -0.9141
vn -0.7670 0.3470 -0.5397
vn -0.5397 0.3470 0.7670
vn 0.7402 0.3570 0.5698
vn 0.5397 0.3470 -0.7670
vn -0.0000 0.7844 -0.6203
vn -0.0000 0.4249 0.9052
vn -0.6203 0.7844 -0.0000
vn 0.9052 0.4249 -0.0000
vn 0.7736 0.4904 0.4014
vn 0.5039 0.3943 0.7685
vn 0.4014 0.4904 0.7736
vn 0.7685 0.3943 0.5039
vn -0.7736 0.4904 0.4014
vn -0.5039 0.3943 0.7685
vn -0.7685 0.3943 0.5039
vn -0.4014 0.4904 0.7736
vn -0.5039 0.3943 -0.7685
vn -0.7736 0.4904 -0.4014
vn -0.7685 0.3943 -0.5039
vn -0.4014 0.4904 -0.7736
vn 0.5039 0.3943 -0.7685
vn 0.7736 0.4904 -0.4014
vn 0.4014 0.4904 -0.7736
vn 0.7685 0.3943 -0.5039
vn 0.8630 0.4130 -0.2909
vn 0.5411 0.6438 -0.5411
vn 0.2909 0.4130 -0.8630
vn -0.5411 0.6438 -0.5411
vn -0.8630 0.4130 -0.2909
vn -0.6532 0.3831 -0.6532
vn -0.2909 0.4130 0.8630
vn -0.6532 0.3831 0.6532
vn -0.8630 0.4130 0.2909
vn 0.6532 0.3831 0.6532
vn 0.2909 0.4130 0.8630
vn 0.5411 0.6438 0.5411
vn 0.8630 0.4130 0.2909
vn -0.5411 0.6438 0.5411
vn -0.2909 0.4130 -0.8630
vn 0.6532 0.3831 -0.6532
vn -0.7337 0.3149 0.6021
vn 0.6708 0.3162 0.6708
vn -0.6708 0.3162 -0.6708
vn 0.6708 0.3162 -0.6708
vn -0.9487 0.3162 -0.0000
vn -0.0000 0.3162 -0.9487
vn -0.8765 0.3162 0.3630
vn 0.8371 0.3149 -0.4474
vn -0.3630 0.3162 -0.8765
vn -0.8765 0.3162 -0.3630
vn 0.3630 0.3162 -0.8765
vn -0.7888 0.3162 0.5271
vn 0.6021 0.3149 0.7337
vn 0.7888 0.3162 -0.5271
vn -0.5271 0.3162 -0.7888
vn -0.9305 0.3162 -0.1851
vn 0.1851 0.3162 -0.9305
vn -0.9305 0.3162 0.1851
vn -0.1851 0.3162 -0.9305
vn -0.7888 0.3162 -0.5271
vn 0.7337 0.3149 0.6021
vn 0.5271 0.3162 -0.7888
vn -0.4474 0.3149 0.8371
vn 0.9446 0.3149 -0.0930
vn -0.6931 0.3161 0.6479
vn 0.9305 0.3162 -0.1851
vn 0.8638 0.3161 -0.3924
vn -0.5271 0.3162 0.7888
vt 0.337453 0.535192
vt 0.316823 0.579039
vt 0.304949 0.544817
vt 0.299337 0.511633
vt 0.413993 0.437330
vt 0.412123 0.458773
vt 0.308549 0.422554
vt 0.320730 0.397096
vt 0.480760 0.468300
vt 0.476819 0.477001
vt 0.469376 0.475061
vt 0.471287 0.467693
vt 0.472947 0.549343
vt 0.430564 0.688505
vt 0.390057 0.676163
vt 0.451126 0.536413
vt 0.476089 0.486620
vt 0.475858 0.506701
vt 0.462648 0.499390
vt 0.467394 0.482478
vt 0.532100 0.516294
vt 0.539558 0.556358
vt 0.497508 0.524214
vt 0.493629 0.496550
vt 0.550642 0.621795
vt 0.525143 0.681680
vt 0.476263 0.691830
vt 0.502246 0.576745
vt 0.505566 0.415465
vt 0.489781 0.451173
vt 0.475357 0.451163
vt 0.482970 0.416213
vt 0.592941 0.385215
vt 0.563102 0.434480
vt 0.515444 0.445884
vt 0.539231 0.405085
vt 0.542331 0.466609
vt 0.532549 0.490247
vt 0.493998 0.481327
vt 0.500482 0.467801
vt 0.398658 0.359168
vt 0.408812 0.405911
vt 0.337419 0.373381
vt 0.358716 0.352479
vt 0.462595 0.407770
vt 0.462641 0.445048
vt 0.443006 0.430611
vt 0.436452 0.388780
vt 0.462786 0.463802
vt 0.462037 0.473113
vt 0.445764 0.468648
vt 0.446491 0.454666
vt 0.401232 0.477666
vt 0.377454 0.501047
vt 0.297673 0.479768
vt 0.300504 0.449977
vt 0.457950 0.481611
vt 0.447952 0.498254
vt 0.422336 0.500288
vt 0.438912 0.481068
vt 0.426830 0.532777
vt 0.359333 0.646364
vt 0.334619 0.613296
vt 0.390774 0.534091
vt 0.467569 0.303776
vt 0.438163 0.309242
vt 0.497271 0.302431
vt 0.409643 0.319756
vt 0.382593 0.333906
vt 0.678414 0.427954
vt 0.688284 0.473828
vt 0.686872 0.517012
vt 0.588662 0.334872
vt 0.557870 0.317670
vt 0.619939 0.357340
vt 0.650168 0.388326
vt 0.527392 0.306864
vt 0.651216 0.598739
vt 0.615048 0.634049
vt 0.572271 0.662448
vt 0.674294 0.558288
vt 0.732335 0.963779
vt 0.666654 0.996005
vt 0.177858 0.519178
vt 0.181410 0.569125
vt 0.035189 0.581620
vt 0.032776 0.515764
vt 0.180616 0.470680
vt 0.037943 0.449613
vt 0.189469 0.424029
vt 0.052744 0.384931
vt 0.204745 0.380046
vt 0.074690 0.322531
vt 0.547570 0.187471
vt 0.498800 0.185143
vt 0.491516 0.039882
vt 0.557822 0.040625
vt 0.597423 0.196538
vt 0.624441 0.047907
vt 0.648369 0.212167
vt 0.690733 0.062385
vt 0.700834 0.234314
vt 0.755840 0.083085
vt 0.795535 0.927567
vt 0.225732 0.338963
vt 0.106274 0.264356
vt 0.252399 0.301523
vt 0.145228 0.211677
vt 0.191255 0.620350
vt 0.207360 0.672862
vt 0.057878 0.710195
vt 0.044061 0.646537
vt 0.361502 0.217076
vt 0.320991 0.239950
vt 0.242355 0.123777
vt 0.298881 0.090079
vt 0.405148 0.200108
vt 0.360140 0.064277
vt 0.284485 0.268383
vt 0.190201 0.163786
vt 0.451141 0.189483
vt 0.424982 0.047035
vt 0.750129 0.268701
vt 0.795535 0.309129
vt 0.234705 0.722210
vt 0.266265 0.768640
s 1
f 81/1/81 28/2/28 4/3/4 45/4/45
f 80/5/80 34/6/34 8/7/8 41/8/41
f 79/9/79 35/10/35 9/11/9 48/12/48
f 78/13/78 32/14/32 7/15/7 49/16/49
f 77/17/77 50/18/50 21/19/21 37/20/37
f 76/21/76 51/22/51 22/23/22 52/24/52
f 75/25/75 44/26/44 16/27/16 53/28/53
f 74/29/74 54/30/54 20/31/20 36/32/36
f 73/33/73 55/34/55 23/35/23 56/36/56
f 72/37/72 47/38/47 19/39/19 57/40/57
f 71/41/71 58/42/58 13/43/13 29/44/29
f 70/45/70 59/46/59 24/47/24 60/48/60
f 69/49/69 46/50/46 18/51/18 61/52/61
f 68/53/68 62/54/62 17/55/17 33/56/33
f 67/57/67 63/58/63 25/59/25 64/60/64
f 66/61/66 40/62/40 12/63/12 65/64/65
f 63/58/63 66/61/66 65/64/65 25/59/25
f 21/19/21 49/16/49 66/61/66 63/58/63
f 49/16/49 7/15/7 40/62/40 66/61/66
f 46/50/46 67/57/67 64/60/64 18/51/18
f 9/11/9 37/20/37 67/57/67 46/50/46
f 37/20/37 21/19/21 63/58/63 67/57/67
f 34/6/34 68/53/68 33/56/33 8/7/8
f 18/51/18 64/60/64 68/53/68 34/6/34
f 64/60/64 25/59/25 62/54/62 68/53/68
f 59/46/59 69/49/69 61/52/61 24/47/24
f 20/31/20 48/12/48 69/49/69 59/46/59
f 48/12/48 9/11/9 46/50/46 69/49/69
f 30/65/30 70/45/70 60/48/60 14/66/14
f 5/67/5 36/32/36 70/45/70 30/65/30
f 36/32/36 20/31/20 59/46/59 70/45/70
f 42/68/42 71/41/71 29/44/29 3/69/3
f 14/66/14 60/48/60 71/41/71 42/68/42
f 60/48/60 24/47/24 58/42/58 71/41/71
f 55/34/55 72/37/72 57/40/57 23/35/23
f 15/70/15 31/71/31 72/37/72 55/34/55
f 31/71/31 6/72/6 47/38/47 72/37/72
f 26/73/26 73/33/73 56/36/56 10/74/10
f 1/75/1 43/76/43 73/33/73 26/73/26
f 43/76/43 15/70/15 55/34/55 73/33/73
f 38/77/38 74/29/74 36/32/36 5/67/5
f 10/74/10 56/36/56 74/29/74 38/77/38
f 56/36/56 23/35/23 54/30/54 74/29/74
f 51/22/51 75/25/75 53/28/53 22/23/22
f 11/78/11 27/79/27 75/25/75 51/22/51
f 27/79/27 2/80/2 44/26/44 75/25/75
f 47/38/47 76/21/76 52/24/52 19/39/19
f 6/72/6 39/81/39 76/21/76 47/38/47
f 39/81/39 11/78/11 51/22/51 76/21/76
f 35/10/35 77/17/77 37/20/37 9/11/9
f 19/39/19 52/24/52 77/17/77 35/10/35
f 52/24/52 22/23/22 50/18/50 77/17/77
f 50/18/50 78/13/78 49/16/49 21/19/21
f 22/23/22 53/28/53 78/13/78 50/18/50
f 53/28/53 16/27/16 32/14/32 78/13/78
f 54/30/54 79/9/79 48/12/48 20/31/20
f 23/35/23 57/40/57 79/9/79 54/30/54
f 57/40/57 19/39/19 35/10/35 79/9/79
f 58/42/58 80/5/80 41/8/41 13/43/13
f 24/47/24 61/52/61 80/5/80 58/42/58
f 61/52/61 18/51/18 34/6/34 80/5/80
f 62/54/62 81/1/81 45/4/45 17/55/17
f 25/59/25 65/64/65 81/1/81 62/54/62
f 65/64/65 12/63/12 28/2/28 81/1/81
f 44/26/44 2/80/2 83/82/83 102/83/102
f 105/84/103 106/85/85 85/86/85 103/87/103
f 107/88/92 105/84/103 103/87/103 92/89/92
f 109/90/98 107/88/92 92/89/92 98/91/98
f 110/92/87 109/90/98 98/91/98 87/93/87
f 111/94/99 112/95/86 86/96/86 99/97/99
f 113/98/88 111/94/99 99/97/99 88/99/88
f 114/100/93 113/98/88 88/99/88 93/101/93
f 115/102/106 114/100/93 93/101/93 82/103/82
f 2/80/2 27/79/27 94/104/94 83/82/83
f 118/105/100 110/92/87 87/93/87 100/106/100
f 119/107/90 118/105/100 100/106/100 90/108/90
f 120/109/95 117/110/108 89/111/89 95/112/95
f 106/85/85 120/109/95 95/112/95 85/86/85
f 121/113/101 122/114/84 84/115/84 101/116/101
f 123/117/91 121/113/101 101/116/101 91/118/91
f 124/119/96 119/107/90 90/108/90 96/120/96
f 122/114/84 124/119/96 96/120/96 84/115/84
f 126/121/97 123/117/91 91/118/91 97/122/97
f 112/95/86 126/121/97 97/122/97 86/96/86
f 5/67/5 30/65/30 126/121/97 112/95/86
f 30/65/30 14/66/14 123/117/91 126/121/97
f 15/70/15 43/76/43 125/123/109 104/124/104
f 43/76/43 1/75/1 115/102/106 125/123/109
f 3/69/3 29/44/29 124/119/96 122/114/84
f 29/44/29 13/43/13 119/107/90 124/119/96
f 14/66/14 42/68/42 121/113/101 123/117/91
f 42/68/42 3/69/3 122/114/84 121/113/101
f 4/3/4 28/2/28 120/109/95 106/85/85
f 28/2/28 12/63/12 117/110/108 120/109/95
f 13/43/13 41/8/41 118/105/100 119/107/90
f 41/8/41 8/7/8 110/92/87 118/105/100
f 12/63/12 40/62/40 116/125/107 117/110/108
f 40/62/40 7/15/7 108/126/105 116/125/107
f 1/75/1 26/73/26 114/100/93 115/102/106
f 26/73/26 10/74/10 113/98/88 114/100/93
f 10/74/10 38/77/38 111/94/99 113/98/88
f 38/77/38 5/67/5 112/95/86 111/94/99
f 8/7/8 33/56/33 109/90/98 110/92/87
f 33/56/33 17/55/17 107/88/92 109/90/98
f 17/55/17 45/4/45 105/84/103 107/88/92
f 45/4/45 4/3/4 106/85/85 105/84/103
