# Blender 4.5.3 LTS
# www.blender.org
o Montaña_1
v -420.924133 78.240417 -423.536835
v -160.374115 78.240402 -423.536804
v -420.924103 78.240402 -684.086853
v -160.374084 78.240402 -684.086792
v -464.716187 102.704819 -553.811829
v -290.649109 78.240417 -369.575134
v -112.213272 136.224716 -553.811829
v -290.649109 78.240417 -738.048523
v -290.649109 391.539429 -553.811829
v -460.861633 78.240402 -483.307495
v -220.144791 78.240402 -383.599304
v -117.093338 78.240402 -624.316162
v -361.153442 78.240219 -724.024353
v -460.861603 78.240402 -624.316162
v -361.153442 78.240448 -383.599335
v -117.093353 78.240417 -483.307495
v -220.144775 78.240448 -724.024292
v -290.649109 313.820190 -633.811829
v -290.649109 313.820190 -473.811829
v -370.649109 313.820190 -553.811829
v -193.721176 313.820190 -553.811829
v -199.921387 247.956589 -473.811829
v -370.649109 247.956589 -473.811829
v -370.649109 247.956589 -633.811829
v -199.921387 247.956589 -633.811829
v -443.836304 78.240402 -451.455414
v -188.292694 78.240402 -400.624634
v -136.568344 78.240402 -656.168213
v -393.005524 78.240448 -706.999023
v -461.736572 100.371597 -590.572510
v -326.591919 78.240417 -373.115204
v -111.735825 136.224716 -526.643738
v -254.706299 78.240402 -734.508423
v -290.649109 232.770950 -673.811829
v -290.649109 370.320679 -513.811829
v -410.649109 232.770950 -553.811829
v -247.212509 370.320679 -553.811829
v -461.736603 100.371536 -517.226746
v -254.706329 78.240402 -373.115173
v -112.213272 136.224716 -580.979919
v -326.591888 78.240402 -734.508484
v -443.836304 78.240402 -656.168274
v -393.005524 78.240448 -400.624634
v -136.568359 78.240417 -451.455414
v -188.292694 78.240448 -706.999023
v -290.649109 370.320679 -593.811829
v -290.649109 232.770950 -433.811829
v -330.649109 370.320679 -553.811829
v -127.410431 194.768417 -553.442200
v -199.109726 296.501892 -513.811829
v -210.644470 176.289444 -433.811829
v -250.362625 296.501892 -473.811829
v -156.647293 176.289444 -473.811829
v -370.649109 296.501892 -513.811829
v -370.649109 176.289444 -433.811829
v -410.649109 176.289444 -473.811829
v -330.649109 296.501892 -473.811829
v -370.649109 176.289444 -673.811829
v -370.649109 296.501892 -593.811829
v -410.649109 176.289444 -633.811829
v -330.649109 296.501892 -633.811829
v -210.644470 176.289444 -673.811829
v -199.109726 296.501892 -593.811829
v -250.362625 296.501892 -633.811829
v -156.647293 176.289444 -633.811829
v -129.480927 194.130600 -566.939880
v -246.851379 350.584106 -593.811829
v -250.649109 218.032944 -673.811829
v -330.649109 350.584106 -593.811829
v -410.649109 218.032944 -594.920715
v -410.649109 114.014999 -673.811829
v -330.649109 218.032944 -433.811829
v -410.649109 114.014999 -433.811829
v -410.649109 218.032944 -513.811829
v -170.649109 114.014999 -433.811829
v -250.649109 218.032944 -433.811829
v -246.851379 350.584106 -513.811829
v -129.480927 194.130600 -539.944519
v -330.649109 350.584106 -513.811829
v -330.649109 218.032944 -673.811829
v -170.649109 114.014999 -673.811829
v -474.981079 -116.925720 -369.479889
v -106.317169 -116.925751 -369.479858
v -106.317154 -116.925751 -738.143799
v -290.649109 -116.925720 -293.127106
v -29.964386 -116.925720 -553.811829
v -290.649109 -116.925720 -814.496582
v -190.889389 -116.925751 -312.970520
v -49.807800 -116.925751 -653.571533
v -390.408813 -116.925995 -794.653137
v -390.408844 -116.925667 -312.970551
v -49.807831 -116.925720 -454.052094
v -190.889374 -116.925667 -794.653076
v -507.400543 -116.925751 -408.983154
v -145.820435 -116.925751 -337.060394
v -73.897675 -116.925751 -698.640503
v -435.477783 -116.925667 -770.563232
v -341.506195 -116.925720 -298.136108
v -34.973373 -116.925720 -502.954742
v -239.792023 -116.925751 -809.487549
v -239.792053 -116.925751 -298.136047
v -34.973328 -116.925751 -604.668884
v -341.506165 -116.925751 -809.487610
v -435.477783 -116.925667 -337.060425
v -73.897690 -116.925720 -408.983154
v -145.820419 -116.925667 -770.563232
v -105.173737 78.240417 -517.869019
v -101.633682 78.240417 -553.811829
v -105.173721 78.240402 -589.754639
v -133.625443 232.770950 -553.811829
v -133.625443 218.032944 -593.811829
v -133.625443 218.032944 -513.811829
vn -0.6568 0.3703 0.6568
vn 0.6528 0.3699 0.6611
vn -0.6551 0.3763 -0.6551
vn 0.6528 0.3699 -0.6611
vn -0.9212 0.3891 0.0010
vn -0.0000 0.3768 0.9263
vn 0.9884 0.1520 -0.0038
vn -0.0000 0.3768 -0.9263
vn -0.0151 0.9999 -0.0000
vn -0.8171 0.3819 0.4319
vn 0.3828 0.3735 0.8450
vn 0.8337 0.3013 -0.4627
vn -0.3828 0.3735 -0.8450
vn -0.8165 0.3809 -0.4339
vn -0.3828 0.3735 0.8450
vn 0.8337 0.3013 0.4627
vn 0.3828 0.3735 -0.8450
vn -0.0046 0.5319 -0.8468
vn -0.0046 0.5319 0.8468
vn -0.8456 0.5338 0.0004
vn 0.7589 0.6512 -0.0000
vn 0.5214 0.4285 0.7379
vn -0.6383 0.4304 0.6383
vn -0.6359 0.4304 -0.6406
vn 0.5214 0.4285 -0.7379
vn -0.7352 0.3735 0.5657
vn 0.5336 0.3716 0.7597
vn 0.7460 0.3376 -0.5740
vn -0.5142 0.3742 -0.7717
vn -0.8885 0.3856 -0.2488
vn -0.2006 0.3757 0.9047
vn 0.9722 0.2019 0.1188
vn 0.2006 0.3757 -0.9047
vn -0.0002 0.4249 -0.9053
vn -0.0123 0.7830 0.6219
vn -0.9052 0.4251 0.0011
vn 0.5667 0.8239 -0.0000
vn -0.8883 0.3868 0.2476
vn 0.2006 0.3757 0.9047
vn 0.9731 0.2023 -0.1100
vn -0.2006 0.3757 -0.9047
vn -0.7428 0.3787 -0.5521
vn -0.5344 0.3717 0.7591
vn 0.7460 0.3376 0.5740
vn 0.5336 0.3716 -0.7597
vn -0.0123 0.7830 -0.6219
vn -0.0002 0.4249 0.9053
vn -0.6203 0.7844 -0.0000
vn 0.9911 0.1331 0.0007
vn 0.6556 0.5619 0.5044
vn 0.4528 0.3751 0.8089
vn 0.3501 0.4918 0.7973
vn 0.6919 0.3168 0.6488
vn -0.7736 0.4904 0.4014
vn -0.5039 0.3943 0.7685
vn -0.7673 0.3943 0.5058
vn -0.4014 0.4904 0.7736
vn -0.5039 0.3943 -0.7685
vn -0.7732 0.4910 -0.4013
vn -0.7662 0.3935 -0.5080
vn -0.4014 0.4904 -0.7736
vn 0.4528 0.3751 -0.8089
vn 0.6556 0.5619 -0.5044
vn 0.3501 0.4918 -0.7973
vn 0.6919 0.3168 -0.6488
vn 0.9782 0.1778 -0.1068
vn 0.4837 0.6632 -0.5711
vn 0.2663 0.4078 -0.8734
vn -0.5411 0.6438 -0.5411
vn -0.8608 0.4136 -0.2966
vn -0.6532 0.3831 -0.6532
vn -0.2909 0.4130 0.8630
vn -0.6532 0.3831 0.6532
vn -0.8624 0.4129 0.2929
vn 0.6257 0.3499 0.6972
vn 0.2663 0.4078 0.8734
vn 0.4837 0.6632 0.5711
vn 0.9768 0.1801 0.1160
vn -0.5411 0.6438 0.5411
vn -0.2909 0.4130 -0.8630
vn 0.6257 0.3499 -0.6972
vn -0.6584 0.3647 0.6584
vn 0.6561 0.3639 0.6612
vn 0.6561 0.3639 -0.6612
vn -0.0000 0.3647 0.9311
vn 0.9387 0.3447 -0.0000
vn -0.0000 0.3647 -0.9311
vn 0.3563 0.3647 0.8602
vn 0.8570 0.3528 -0.3755
vn -0.3563 0.3647 -0.8602
vn -0.3563 0.3647 0.8602
vn 0.8570 0.3528 0.3755
vn 0.3563 0.3647 -0.8602
vn -0.7202 0.3632 0.5911
vn 0.5173 0.3647 0.7742
vn 0.7673 0.3599 -0.5308
vn -0.4392 0.3632 -0.8217
vn -0.1817 0.3647 0.9132
vn 0.9184 0.3468 0.1904
vn 0.1817 0.3647 -0.9132
vn 0.1817 0.3647 0.9132
vn 0.9184 0.3468 -0.1904
vn -0.1817 0.3647 -0.9132
vn -0.5173 0.3647 0.7742
vn 0.7673 0.3599 0.5308
vn 0.5173 0.3647 -0.7742
vn 0.9331 0.2714 0.2359
vn 0.9680 0.2510 -0.0018
vn 0.9326 0.2723 -0.2370
vn 0.9001 0.4357 -0.0002
vn 0.8354 0.3709 -0.4056
vn 0.8343 0.3709 0.4078
vt 0.603775 0.589633
vt 0.650160 0.576623
vt 0.633413 0.608856
vt 0.611329 0.638279
vt 0.457085 0.571918
vt 0.484261 0.562075
vt 0.520989 0.704732
vt 0.483166 0.717014
vt 0.468021 0.475053
vt 0.479827 0.476727
vt 0.480273 0.486375
vt 0.470572 0.486724
vt 0.492173 0.474155
vt 0.515900 0.467895
vt 0.514414 0.484993
vt 0.490653 0.485982
vt 0.504707 0.408029
vt 0.539607 0.394341
vt 0.525656 0.441053
vt 0.495592 0.451415
vt 0.590517 0.373507
vt 0.637198 0.380151
vt 0.654421 0.410832
vt 0.570779 0.425015
vt 0.392397 0.457106
vt 0.444048 0.469325
vt 0.448486 0.487441
vt 0.398772 0.488660
vt 0.355107 0.335870
vt 0.414653 0.381605
vt 0.431507 0.438652
vt 0.375102 0.411167
vt 0.452057 0.404720
vt 0.478669 0.412151
vt 0.478829 0.455596
vt 0.461382 0.451938
vt 0.355585 0.651723
vt 0.418985 0.598924
vt 0.439751 0.723674
vt 0.390207 0.721384
vt 0.393385 0.521452
vt 0.445016 0.505903
vt 0.433830 0.537940
vt 0.376157 0.568762
vt 0.468813 0.498589
vt 0.480541 0.496063
vt 0.481109 0.517465
vt 0.463640 0.522447
vt 0.511624 0.563964
vt 0.549086 0.574324
vt 0.585136 0.664810
vt 0.554661 0.687593
vt 0.493117 0.497692
vt 0.517453 0.501955
vt 0.529847 0.528108
vt 0.498432 0.520358
vt 0.565142 0.504488
vt 0.670010 0.510652
vt 0.663253 0.543369
vt 0.577303 0.539549
vt 0.558296 0.482851
vt 0.235826 0.546565
vt 0.226186 0.617885
vt 0.229895 0.488072
vt 0.273489 0.665545
vt 0.329215 0.703971
vt 0.423341 0.271585
vt 0.462148 0.270579
vt 0.498278 0.276082
vt 0.281082 0.315328
vt 0.229967 0.358206
vt 0.333930 0.291291
vt 0.380477 0.278875
vt 0.236629 0.429951
vt 0.563452 0.303786
vt 0.591768 0.325830
vt 0.616600 0.351356
vt 0.531851 0.286851
vt 0.562752 0.460719
vt 0.665432 0.442111
vt 0.803936 0.202422
vt 0.842566 0.261507
vt 0.871521 0.324924
vt 0.439847 0.012216
vt 0.509872 0.023921
vt 0.576983 0.042994
vt 0.843914 0.726936
vt 0.805636 0.786551
vt 0.758913 0.840292
vt 0.890749 0.390901
vt 0.670494 0.476116
vt 0.901626 0.458851
vt 0.704877 0.885942
vt 0.646087 0.924949
vt 0.641051 0.071199
vt 0.701007 0.106810
vt 0.226186 0.024322
vt 0.297568 0.013483
vt 0.900989 0.527659
vt 0.891858 0.595757
vt 0.755783 0.150693
vt 0.583484 0.955931
vt 0.518460 0.980236
vt 0.872873 0.662747
vt 0.450925 0.998822
vt 0.368913 0.009276
vt 0.621344 0.479186
vt 0.619463 0.459025
vt 0.621877 0.499468
vt 0.578432 0.481517
vt 0.580027 0.489349
vt 0.579108 0.473563
s 1
f 81/1/81 28/2/28 4/3/4 45/4/45
f 80/5/80 34/6/34 8/7/8 41/8/41
f 79/9/79 35/10/35 9/11/9 48/12/48
f 77/13/77 50/14/50 21/15/21 37/16/37
f 76/17/76 51/18/51 22/19/22 52/20/52
f 75/21/75 44/22/44 16/23/16 53/24/53
f 74/25/74 54/26/54 20/27/20 36/28/36
f 73/29/73 55/30/55 23/31/23 56/32/56
f 72/33/72 47/34/47 19/35/19 57/36/57
f 71/37/71 58/38/58 13/39/13 29/40/29
f 70/41/70 59/42/59 24/43/24 60/44/60
f 69/45/69 46/46/46 18/47/18 61/48/61
f 68/49/68 62/50/62 17/51/17 33/52/33
f 67/53/67 63/54/63 25/55/25 64/56/64
f 111/57/111 109/58/109 12/59/12 65/60/65
f 63/54/63 111/57/111 65/60/65 25/55/25
f 21/15/21 110/61/110 111/57/111 63/54/63
f 46/46/46 67/53/67 64/56/64 18/47/18
f 9/11/9 37/16/37 67/53/67 46/46/46
f 37/16/37 21/15/21 63/54/63 67/53/67
f 34/6/34 68/49/68 33/52/33 8/7/8
f 18/47/18 64/56/64 68/49/68 34/6/34
f 64/56/64 25/55/25 62/50/62 68/49/68
f 59/42/59 69/45/69 61/48/61 24/43/24
f 20/27/20 48/12/48 69/45/69 59/42/59
f 48/12/48 9/11/9 46/46/46 69/45/69
f 30/62/30 70/41/70 60/44/60 14/63/14
f 5/64/5 36/28/36 70/41/70 30/62/30
f 36/28/36 20/27/20 59/42/59 70/41/70
f 42/65/42 71/37/71 29/40/29 3/66/3
f 14/63/14 60/44/60 71/37/71 42/65/42
f 60/44/60 24/43/24 58/38/58 71/37/71
f 55/30/55 72/33/72 57/36/57 23/31/23
f 15/67/15 31/68/31 72/33/72 55/30/55
f 31/68/31 6/69/6 47/34/47 72/33/72
f 26/70/26 73/29/73 56/32/56 10/71/10
f 1/72/1 43/73/43 73/29/73 26/70/26
f 43/73/43 15/67/15 55/30/55 73/29/73
f 38/74/38 74/25/74 36/28/36 5/64/5
f 10/71/10 56/32/56 74/25/74 38/74/38
f 56/32/56 23/31/23 54/26/54 74/25/74
f 51/18/51 75/21/75 53/24/53 22/19/22
f 11/75/11 27/76/27 75/21/75 51/18/51
f 27/76/27 2/77/2 44/22/44 75/21/75
f 47/34/47 76/17/76 52/20/52 19/35/19
f 6/69/6 39/78/39 76/17/76 47/34/47
f 39/78/39 11/75/11 51/18/51 76/17/76
f 35/10/35 77/13/77 37/16/37 9/11/9
f 19/35/19 52/20/52 77/13/77 35/10/35
f 52/20/52 22/19/22 50/14/50 77/13/77
f 50/14/50 112/79/112 110/61/110 21/15/21
f 22/19/22 53/24/53 112/79/112 50/14/50
f 53/24/53 16/23/16 107/80/107 112/79/112
f 54/26/54 79/9/79 48/12/48 20/27/20
f 23/31/23 57/36/57 79/9/79 54/26/54
f 57/36/57 19/35/19 35/10/35 79/9/79
f 58/38/58 80/5/80 41/8/41 13/39/13
f 24/43/24 61/48/61 80/5/80 58/38/58
f 61/48/61 18/47/18 34/6/34 80/5/80
f 62/50/62 81/1/81 45/4/45 17/51/17
f 25/55/25 65/60/65 81/1/81 62/50/62
f 65/60/65 12/59/12 28/2/28 81/1/81
f 44/22/44 2/77/2 83/81/83 105/82/105
f 16/23/16 44/22/44 105/82/105 92/83/92
f 31/68/31 15/67/15 91/84/91 98/85/98
f 6/69/6 31/68/31 98/85/98 85/86/85
f 45/4/45 4/3/4 84/87/84 106/88/106
f 17/51/17 45/4/45 106/88/106 93/89/93
f 107/80/107 16/23/16 92/83/92 99/90/99
f 108/91/108 107/80/107 99/90/99 86/92/86
f 33/52/33 17/51/17 93/89/93 100/93/100
f 8/7/8 33/52/33 100/93/100 87/94/87
f 39/78/39 6/69/6 85/86/85 101/95/101
f 11/75/11 39/78/39 101/95/101 88/96/88
f 1/72/1 26/70/26 94/97/94 82/98/82
f 109/58/109 108/91/108 86/92/86 102/99/102
f 12/59/12 109/58/109 102/99/102 89/100/89
f 27/76/27 11/75/11 88/96/88 95/101/95
f 2/77/2 27/76/27 95/101/95 83/81/83
f 41/8/41 8/7/8 87/94/87 103/102/103
f 13/39/13 41/8/41 103/102/103 90/103/90
f 28/2/28 12/59/12 89/100/89 96/104/96
f 4/3/4 28/2/28 96/104/96 84/87/84
f 29/40/29 13/39/13 90/103/90 97/105/97
f 43/73/43 1/72/1 82/98/82 104/106/104
f 15/67/15 43/73/43 104/106/104 91/84/91
f 7/107/7 32/108/32 107/80/107 108/91/108
f 40/109/40 7/107/7 108/91/108 109/58/109
f 49/110/49 66/111/66 111/57/111 110/61/110
f 66/111/66 40/109/40 109/58/109 111/57/111
f 78/112/78 49/110/49 110/61/110 112/79/112
f 32/108/32 78/112/78 112/79/112 107/80/107
