# Blender 4.5.3 LTS
# www.blender.org
o Expositor_LOD01
v 6.081251 -3.045711 -2.228109
v -2.521480 -3.045710 5.965585
v 2.094250 -3.045711 -6.414143
v 2.094249 2.606840 -6.414143
v -6.508487 -3.045710 1.779549
v -6.508486 2.606841 1.779545
v -2.521482 -0.810842 5.965584
v 3.521138 2.606840 -4.916026
v 6.138573 -0.645348 -2.167927
v -5.081601 2.606841 3.277667
v -1.425290 -1.912647 3.240676
v -3.145843 -1.912647 4.879412
v 2.617954 1.303048 -5.433649
v 5.026762 -1.912648 -2.904598
v -5.554641 1.303048 2.350361
v 0.897402 1.303048 -3.794913
v 3.306211 -1.912648 -1.265862
v -3.834099 1.303048 0.711615
v 0.725388 -1.912648 1.192248
v -0.995155 -1.912647 2.830994
v -3.403963 1.303048 0.301933
v -1.683411 1.303048 -1.336803
v 2.876075 -1.912648 -0.856170
v 1.155533 -1.912648 0.782566
v -1.253276 1.303048 -1.746495
v 0.467266 1.303048 -3.385231
v -0.047639 -0.585583 3.825809
v -2.301534 -0.543501 5.909419
v 3.565830 2.773188 -4.653781
v -4.857683 2.773188 3.369210
v 1.301306 2.781604 -2.509558
v 4.253733 -0.585584 -0.271040
v 2.106826 -0.590633 1.781356
v -2.981147 2.756356 1.607145
v -0.849376 2.781604 -0.461134
v -0.534511 -0.509837 4.175921
v 5.917532 -0.509838 -1.969353
v 1.788181 2.705858 -2.859667
v 1.616167 -0.509838 2.127494
v -2.513185 2.705858 1.237179
v 3.766855 -0.509838 0.079075
v -0.362497 2.705858 -0.811249
v -0.610910 2.526873 -0.991509
v 1.825515 -1.026383 1.571712
v 1.180594 2.554356 -2.686154
v 3.721588 -0.890602 -0.035579
v -0.134814 2.566486 -1.379027
v 0.641423 0.722181 0.284088
v 2.575692 0.985760 -1.227020
v 1.407564 0.714550 -0.829874
v 1.133577 0.166268 0.927933
v 1.750199 1.663617 -2.130562
v 0.057901 1.732096 -0.279823
v 3.048762 -0.090934 -0.735197
v 2.072189 0.555839 -0.865431
v 1.104980 1.737624 -1.256484
v 2.187601 0.077948 0.213840
v 0.641456 1.928559 -0.567977
v 1.536011 2.526873 -3.036338
v 3.972430 -1.026387 -0.473138
v 3.327506 2.554355 -4.730983
v 5.868500 -0.890623 -2.080416
v 2.012099 2.566484 -3.423860
v 2.788341 0.722184 -1.760746
v 4.722603 0.985760 -3.271850
v 3.554475 0.714550 -2.874703
v 3.280506 0.166254 -1.116889
v 3.897110 1.663616 -4.175391
v 2.204812 1.732096 -2.324652
v 5.195673 -0.090934 -2.780026
v 4.121916 0.817966 -3.056970
v 3.251893 1.737626 -3.301321
v 4.334512 0.077948 -1.830999
v 2.788367 1.928559 -2.612807
v 4.687736 -0.174984 -2.411163
v -2.773332 2.526873 1.068090
v -0.336909 -1.026384 3.631307
v -0.981836 2.554357 -0.626554
v 1.559161 -0.890613 2.024026
v -2.297243 2.566483 0.680588
v -1.521000 0.722183 2.343696
v 0.413269 0.985760 0.832589
v -0.754858 0.714551 1.229725
v -1.028840 0.166259 2.987549
v -0.412223 1.663617 -0.070953
v -2.104521 1.732097 1.779776
v 0.886330 -0.090933 1.324412
v -0.187428 0.817967 1.047459
v -1.057439 1.737623 0.803113
v 0.025169 0.077948 2.273439
v -1.520966 1.928559 1.491632
v 0.378402 -0.174983 1.693275
v -4.979737 2.526874 3.169586
v -2.543314 -1.026384 5.732803
v -3.188234 2.554363 1.474945
v -0.647238 -0.890609 4.125516
v -4.503641 2.566489 2.782076
v -3.727405 0.722181 4.445191
v -1.793135 0.985760 2.934074
v -2.961263 0.714551 3.331221
v -3.235256 0.166275 5.089021
v -2.618628 1.663617 2.030542
v -4.310926 1.732097 3.881272
v -1.320075 -0.090933 3.425908
v -2.296636 0.555832 3.295670
v -3.263843 1.737623 2.904608
v -2.181236 0.077948 4.374934
v -3.727371 1.928559 3.593118
vn -0.6897 -0.0000 -0.7241
vn -0.0000 1.0000 -0.0000
vn 0.6226 -0.3888 0.6792
vn 0.5142 -0.6708 0.5344
vn 0.5774 -0.5420 0.6105
vn 0.4672 0.7357 0.4905
vn 0.4671 0.7357 0.4905
vn 0.7361 0.3850 0.5566
vn 0.7054 0.1295 0.6969
vn 0.9017 0.3016 -0.3097
vn 0.6265 -0.3715 0.6852
vn -0.4104 0.7970 -0.4431
vn -0.4101 0.7965 -0.4443
vn -0.4134 0.8021 -0.4310
vn 0.5038 0.7097 0.4924
vn 0.4131 0.7318 0.5421
vn 0.3136 0.7410 0.5938
vn 0.1956 0.6935 0.6934
vn 0.5049 0.7252 0.4682
vn 0.5083 0.6941 0.5098
vn 0.3476 0.8133 0.4667
vn 0.5566 0.6770 0.4816
vn 0.5399 0.7184 0.4387
vn 0.3121 0.6570 0.6863
vn 0.4732 0.7568 0.4510
vn 0.4268 0.6452 0.6337
vn 0.4608 0.7453 0.4818
vn 0.2900 0.6660 0.6873
vn 0.4366 0.8017 0.4083
vn 0.5730 0.6687 0.4739
vn 0.4692 0.7664 0.4387
vn 0.5039 0.7096 0.4925
vn 0.4131 0.7318 0.5420
vn 0.3476 0.8132 0.4667
vn 0.3121 0.6569 0.6863
vn -0.6251 0.1319 0.7693
vn -0.7241 -0.0000 0.6897
vn -0.5104 0.6984 -0.5017
vn -0.0000 -1.0000 -0.0000
vn -0.6288 0.1275 0.7670
vn 0.7241 -0.0000 -0.6897
vn 0.7930 0.1365 -0.5938
vn 0.6871 -0.0179 0.7263
vn -0.4066 0.3472 0.8451
vn -0.4138 0.8019 -0.4310
vn -0.4123 0.7989 -0.4379
vn -0.4385 0.7718 -0.4605
vn 0.8524 0.3816 -0.3574
vn -0.7133 0.0388 0.6997
vn 0.7529 0.0640 -0.6550
vn 0.5377 -0.6553 0.5305
vn 0.5336 -0.6584 0.5308
vn 0.5244 -0.6433 0.5578
vn -0.5105 0.6998 -0.4997
vn 0.5132 -0.6725 0.5333
vn -0.4111 0.7999 -0.4373
vn -0.5088 0.6866 -0.5193
vn 0.5213 0.7039 0.4824
vn 0.4309 0.7780 0.4571
vn 0.4857 0.6123 0.6238
vn 0.1875 0.7979 0.5728
vn 0.5277 0.7159 0.4572
vn 0.3570 0.6826 0.6377
vn 0.3346 0.6749 0.6577
vn 0.4984 0.6458 0.5785
vn 0.4983 0.6458 0.5785
vt 0.128871 0.996507
vt 0.128871 0.808501
vt 0.316876 0.808501
vt 0.316876 0.996507
vt 0.128871 1.038285
vt 0.504882 0.996507
vt 0.598884 0.996507
vt 0.551883 0.996507
vt 0.274575 1.180191
vt 0.313743 1.181631
vt 0.265885 1.180843
vt 0.171172 1.042607
vt 0.131063 1.040301
vt 0.179862 1.041954
vt 0.133571 1.180191
vt 0.171882 1.180843
vt 0.128871 1.184512
vt 0.218930 1.180887
vt 0.227574 1.180191
vt 0.265175 1.042607
vt 0.226864 1.041954
vt 0.274102 1.042172
vt 0.180572 1.180191
vt 0.218173 1.042607
vt 0.316876 1.038285
vt 0.315309 1.039726
vt 0.116000 0.582355
vt 0.115940 0.641975
vt 0.089031 0.686343
vt 0.006840 0.752256
vt 0.006596 0.698829
vt 0.033604 0.756239
vt 0.035924 0.800904
vt 0.068221 0.757488
vt 0.114924 0.801949
vt 0.115940 0.698990
vt 0.058800 0.644447
vt 0.065961 0.703181
vt 0.116000 0.582355
vt 0.087823 0.642445
vt 0.006597 0.698829
vt 0.035924 0.800904
vt 0.068221 0.757488
vt 0.114924 0.801949
vt 0.116000 0.582355
vt 0.006596 0.698829
vt 0.035924 0.800904
vt 0.068221 0.757488
vt 0.114924 0.801949
vt 0.116000 0.582355
vt 0.089031 0.686343
vt 0.006596 0.698829
vt 0.035924 0.800904
vt 0.068221 0.757488
vt 0.114924 0.801949
vt 0.358655 0.996507
vt 0.265175 1.180191
vt 0.128871 0.620496
vt 0.504882 0.808501
vt 0.504882 0.875295
vt 0.087092 0.996507
vt 0.171172 1.180191
vt 0.316876 0.620496
vt 0.274575 1.042607
vt 0.692887 0.808501
vt 0.692887 0.996507
vt -0.059134 0.879921
vt 0.133571 1.042607
vt 0.312176 1.042607
vt 0.312176 1.180191
vt 0.227574 1.042607
vt 0.180572 1.042607
vt 0.218173 1.180191
vt 0.645885 0.996507
vt 0.115940 0.752439
vt 0.008250 0.646957
vt 0.006842 0.585779
vt 0.006840 0.800161
vt 0.089408 0.700050
vt 0.008250 0.646957
vt 0.006842 0.585779
vt 0.008249 0.646957
vt 0.006842 0.585779
vt 0.008250 0.646957
vt 0.006842 0.585779
vt -0.059134 0.808501
s 1
f 4/1/1 3/2/1 5/3/1
f 6/4/2 8/5/2 4/1/2
f 7/6/3 33/7/4 27/8/5
f 36/9/6 28/10/6 27/11/6
f 38/12/7 29/13/7 31/14/7
f 37/15/8 32/16/9 9/17/10
f 27/11/7 33/18/7 39/19/7
f 40/20/7 35/21/7 34/22/7
f 41/23/6 33/18/6 32/16/7
f 42/24/7 31/14/7 35/21/7
f 7/6/3 27/8/5 28/6/11
f 10/25/12 30/26/13 34/22/14
f 46/27/15 54/28/16 55/29/17
f 53/30/18 48/31/19 58/32/20
f 47/33/21 56/34/22 45/35/23
f 55/29/17 54/28/16 49/36/24
f 57/37/25 55/29/17 50/38/26
f 46/27/15 55/29/17 57/37/25
f 62/39/27 70/28/28 75/40/29
f 69/30/18 64/41/19 74/32/20
f 63/42/21 72/43/30 61/44/23
f 62/39/27 75/40/29 73/37/31
f 79/45/27 87/28/28 92/40/29
f 86/30/18 81/46/19 91/32/20
f 80/47/21 89/48/30 78/49/23
f 79/45/27 92/40/29 90/37/31
f 96/50/32 104/28/33 105/51/17
f 103/30/18 98/52/19 108/32/20
f 97/53/34 106/54/22 95/55/23
f 105/51/17 104/28/33 99/36/35
f 107/37/25 105/51/17 100/38/26
f 96/50/32 105/51/17 107/37/25
f 10/56/36 6/4/37 5/3/37
f 39/19/38 19/19/38 20/57/38 27/11/38
f 1/58/39 5/3/39 3/2/39
f 5/3/37 2/59/37 7/60/40 10/56/36
f 4/1/41 8/61/42 3/2/41
f 32/16/41 17/62/41 16/12/41 38/12/41
f 5/3/39 1/58/39 2/63/39
f 10/25/2 8/5/2 6/4/2
f 18/64/37 11/9/37 36/9/37 34/22/37
f 2/59/43 1/65/43 9/66/43 7/6/43
f 6/4/1 4/1/1 5/3/1
f 30/56/44 10/56/36 7/6/40 28/6/44
f 35/21/45 8/5/46 10/25/12 34/22/14
f 8/5/46 35/21/45 31/14/47
f 8/61/42 29/61/48 9/67/10
f 13/68/7 16/12/7 17/62/7 14/15/7
f 11/9/7 18/64/7 15/69/7 12/70/7
f 19/19/7 22/71/7 21/20/7 20/57/7
f 23/23/7 26/72/7 25/24/7 24/73/7
f 13/68/49 14/15/49 37/15/49 29/13/49
f 28/10/50 12/70/50 15/69/50 30/26/50
f 40/20/51 21/20/51 22/71/51 35/21/51
f 42/24/51 25/24/51 26/72/51 31/14/51
f 38/12/52 16/12/52 13/68/52 29/13/52
f 20/57/41 21/20/41 40/20/41 27/11/41
f 33/18/41 24/73/41 25/24/41 42/24/41
f 37/15/38 14/15/38 17/62/38 32/16/38
f 22/71/37 19/19/37 39/19/37 35/21/37
f 26/72/37 23/23/37 41/23/37 31/14/37
f 15/69/53 18/64/53 34/22/53 30/26/53
f 41/23/54 23/23/54 24/73/54 33/18/54
f 33/7/4 7/6/3 9/66/55 32/74/55
f 29/13/48 37/15/8 9/17/10
f 34/22/7 36/9/6 27/11/6
f 32/16/7 38/12/7 31/14/7
f 40/20/7 34/22/7 27/11/6
f 35/21/7 39/19/7 33/18/7
f 42/24/7 35/21/7 33/18/7
f 31/14/7 41/23/6 32/16/7
f 8/5/46 31/14/47 29/13/56
f 11/9/57 12/70/57 28/10/57 36/9/57
f 52/75/58 56/34/22 55/29/17 49/36/24
f 56/34/22 58/32/20 48/31/19 50/38/26
f 57/37/25 51/76/59 44/77/60 46/27/15
f 57/37/25 50/38/26 48/31/19 51/76/59
f 47/33/21 43/78/61 53/30/18 58/32/20
f 47/33/21 58/32/20 56/34/22
f 68/75/62 72/43/30 71/79/63 65/36/64
f 56/34/22 52/75/58 45/35/23
f 56/34/22 50/38/26 55/29/17
f 72/43/30 74/32/20 64/41/19 66/38/65
f 73/37/31 67/80/59 60/81/60 62/39/27
f 73/37/31 66/38/65 64/41/19 67/80/59
f 63/42/21 59/78/61 69/30/18 74/32/20
f 63/42/21 74/32/20 72/43/30
f 70/28/28 65/36/64 71/79/63 75/40/29
f 72/43/30 68/75/62 61/44/23
f 72/43/30 66/38/65 71/79/63
f 71/79/63 66/38/65 73/37/31 75/40/29
f 85/75/62 89/48/30 88/79/63 82/36/64
f 89/48/30 91/32/20 81/46/19 83/38/66
f 90/37/31 84/82/59 77/83/60 79/45/27
f 90/37/31 83/38/66 81/46/19 84/82/59
f 80/47/21 76/78/61 86/30/18 91/32/20
f 80/47/21 91/32/20 89/48/30
f 87/28/28 82/36/64 88/79/63 92/40/29
f 89/48/30 85/75/62 78/49/23
f 89/48/30 83/38/66 88/79/63
f 88/79/63 83/38/66 90/37/31 92/40/29
f 102/75/58 106/54/22 105/51/17 99/36/35
f 106/54/22 108/32/20 98/52/19 100/38/26
f 107/37/25 101/84/59 94/85/60 96/50/32
f 107/37/25 100/38/26 98/52/19 101/84/59
f 97/53/34 93/78/61 103/30/18 108/32/20
f 97/53/34 108/32/20 106/54/22
f 106/54/22 102/75/58 95/55/23
f 106/54/22 100/38/26 105/51/17
f 9/67/10 1/86/41 3/2/41 8/61/42
