# Blender 4.5.3 LTS
# www.blender.org
o Mesa_LOD02
v -1.377277 -1.813412 -5.828420
v -1.034028 0.438256 -5.828420
v -1.034028 -1.813412 -5.141922
v -1.377277 0.438256 -5.141922
v -1.720525 0.438256 -5.828420
v -1.720525 -1.813412 -5.141922
v 1.377272 -1.813412 -5.828420
v 1.034023 0.438256 -5.828420
v 1.034023 -1.813412 -5.141922
v 1.377272 0.438256 -5.141922
v 1.720520 0.438256 -5.828420
v 1.720520 -1.813412 -5.141922
v -1.491693 -1.813411 5.828421
v -1.262861 0.438257 5.828421
v -1.034028 -1.813411 5.141923
v -1.034028 0.438257 5.141923
v -1.720525 -1.813411 5.141923
v -1.720525 0.438257 5.141923
v 1.034033 -1.813411 5.828421
v 1.034033 0.438257 5.828421
v 1.262865 -1.813411 5.141923
v 1.491698 0.438257 5.141923
v 1.720530 -1.813411 5.828421
v 1.720530 0.438257 5.828421
v 1.986637 0.796530 -6.685982
v -1.986643 0.862585 -6.741775
v 2.042438 0.862586 6.741775
v -2.042433 0.796531 6.685982
v 2.265609 1.632579 6.964947
v 2.265609 1.632578 -6.964946
v -2.265615 1.632578 -6.964946
v -2.265605 1.632579 6.964947
vn -0.0000 -0.0000 1.0000
vn -1.0000 -0.0000 -0.0000
vn -0.0000 -0.0000 -1.0000
vn 1.0000 -0.0000 -0.0000
vn 0.8935 -0.0454 0.4468
vn -0.8935 0.0454 0.4468
vn -0.8935 0.0454 -0.4468
vn 0.8935 -0.0454 -0.4468
vn -0.0000 -1.0000 -0.0000
vn -0.0000 1.0000 -0.0000
vn 0.0039 -0.2984 -0.9544
vn -0.9545 -0.2983 -0.0027
vn 0.9544 -0.2985 -0.0012
vn -0.0039 -0.2984 0.9544
vt 0.000161 0.375040
vt 0.430211 0.250081
vt 0.430211 0.500000
vt 0.000161 0.000161
vt 0.430212 0.000161
vt 0.000161 0.749919
vt 0.430211 0.874879
vt 0.000161 0.999839
vt 0.000161 0.833226
vt 0.430211 0.916532
vt 0.000161 0.500000
vt 0.000161 0.250080
vt 0.430211 0.416694
vt 0.430211 0.749919
vt 0.000161 0.333387
vt 0.430211 0.999839
vt 0.535959 0.659195
vt 0.532767 0.994973
vt 0.443691 0.993681
vt 0.439508 0.656899
vt 0.536695 0.810973
vt 0.536695 0.703767
vt 0.866267 0.703767
vt 0.866267 0.810973
vt 0.887534 0.708901
vt 0.886801 0.806573
vt 0.861070 0.834945
vt 0.542284 0.836637
vt 0.541287 0.680413
vt 0.860143 0.677570
vt 0.541515 0.633682
vt 0.434943 0.633682
s 1
f 4/1/1 6/2/1 3/3/1
f 12/2/1 10/1/1 9/3/1
f 5/4/2 1/5/2 6/2/2 4/1/2
f 8/6/2 7/7/2 9/3/2 10/1/2
f 5/8/3 2/6/3 1/7/3
f 11/4/4 10/1/4 12/2/4 7/5/4
f 14/9/5 13/10/5 15/3/5 16/11/5
f 7/7/3 8/6/3 11/8/3
f 16/11/3 15/3/3 17/2/3 18/12/3
f 18/12/6 17/2/6 13/5/6 14/4/6
f 21/13/7 19/14/7 20/6/7 22/15/7
f 23/5/8 21/13/8 22/15/8 24/4/8
f 19/14/1 23/16/1 24/8/1 20/6/1
f 28/17/9 26/18/9 25/19/9 27/20/9
f 32/21/10 29/22/10 30/23/10 31/24/10
f 3/3/4 1/7/4 2/6/4 4/1/4
f 30/23/11 25/25/11 26/26/11 31/24/11
f 31/24/12 26/27/12 28/28/12 32/21/12
f 30/23/13 29/22/13 27/29/13 25/30/13
f 32/31/14 28/17/14 27/20/14 29/32/14
