# Blender 4.5.3 LTS
# www.blender.org
o Circuito_castillo.003
v 266.289673 4.048819 -364.901764
v 267.213348 4.048821 -324.592468
v 283.308716 4.048819 -363.792419
v 276.945312 4.048821 -323.977844
v 299.913513 4.048821 -359.470551
v 285.578125 4.048821 -321.785156
v 315.421722 4.048820 -351.435669
v 292.293457 4.048822 -318.408752
v 328.631897 4.048821 -339.083832
v 296.792267 4.048821 -314.346649
v 337.654816 4.048821 -322.416962
v 299.463043 4.048821 -309.490875
v 340.748413 4.048822 -304.131073
v 300.547272 4.048822 -301.039459
v 340.780029 4.048822 -284.016357
v 300.460144 4.048822 -284.055328
v 340.768005 4.048824 -256.414001
v 300.448120 4.048824 -256.422546
v 340.768463 4.048826 -221.527512
v 300.448578 4.048826 -221.522354
v 340.778259 4.048828 -181.154388
v 300.458374 4.048828 -181.142258
v 340.794159 4.048831 -137.088608
v 300.474274 4.048831 -137.073090
v 340.812958 4.048834 -91.123093
v 300.493073 4.048834 -91.106743
v 340.831482 4.048837 -45.050434
v 300.511597 4.048837 -45.035522
v 340.846527 4.048841 -0.662913
v 300.526642 4.048841 -0.651985
v 340.854858 4.048842 40.247620
v 300.534973 4.048842 40.250851
v 340.853302 4.048844 75.890251
v 300.533417 4.048844 75.879051
v 340.838684 4.048847 104.477325
v 300.518799 4.048847 104.435402
v 340.693573 4.048847 122.029221
v 300.602112 4.048847 126.314598
v 341.735718 4.048847 128.301239
v 304.962341 4.048847 144.836380
v 345.082977 4.048846 132.578659
v 316.681976 4.048850 161.198166
v 352.128906 4.048848 137.485672
v 332.437073 4.048851 172.669800
v 362.789734 4.048850 141.902252
v 350.381134 4.048851 180.265228
v 375.975739 4.048851 144.941284
v 369.673462 4.048852 184.765579
v 390.395996 4.048851 146.177078
v 389.674713 4.048854 186.490509
v 266.289642 4.048819 -364.901733
v 267.213318 4.048821 -324.592468
v 283.308685 4.048819 -363.792389
v 276.945282 4.048821 -323.977814
v 299.913483 4.048820 -359.470520
v 285.578094 4.048821 -321.785126
v 315.421692 4.048820 -351.435638
v 292.293427 4.048821 -318.408722
v 328.631866 4.048820 -339.083832
v 296.792236 4.048820 -314.346619
v 337.654785 4.048821 -322.416931
v 299.463013 4.048821 -309.490845
v 340.748413 4.048821 -304.131042
v 300.547241 4.048821 -301.039429
v 340.779999 4.048822 -284.016357
v 300.460114 4.048822 -284.055298
v 340.767975 4.048824 -256.413971
v 300.448090 4.048824 -256.422516
v 340.768433 4.048826 -221.527496
v 300.448547 4.048826 -221.522339
v 340.778229 4.048828 -181.154373
v 300.458344 4.048828 -181.142258
v 340.794128 4.048831 -137.088593
v 300.474243 4.048831 -137.073074
v 340.812927 4.048834 -91.123085
v 300.493073 4.048834 -91.106735
v 340.831451 4.048837 -45.050430
v 300.511566 4.048837 -45.035519
v 340.846497 4.048840 -0.662913
v 300.526611 4.048840 -0.651985
v 340.854828 4.048842 40.247616
v 300.534943 4.048842 40.250847
v 340.853271 4.048844 75.890244
v 300.533386 4.048844 75.879044
v 340.838654 4.048846 104.477318
v 300.518768 4.048846 104.435394
v 340.693542 4.048846 122.029213
v 300.602081 4.048847 126.314583
v 341.735687 4.048847 128.301224
v 304.962311 4.048847 144.836365
v 345.082947 4.048846 132.578644
v 316.681946 4.048850 161.198151
v 352.128876 4.048848 137.485657
v 332.437042 4.048850 172.669785
v 362.789703 4.048850 141.902237
v 350.381104 4.048851 180.265213
v 375.975708 4.048850 144.941269
v 369.673431 4.048852 184.765564
v 390.395966 4.048850 146.177063
v 389.674683 4.048853 186.490494
v 268.665375 43.096848 -325.068542
v 267.741699 43.096844 -365.377838
v 278.397369 43.096848 -324.453918
v 284.760742 43.096844 -364.268494
v 287.030151 43.096848 -322.261230
v 301.365540 43.096848 -359.946625
v 293.745483 43.096848 -318.884827
v 316.873779 43.096844 -351.911743
v 298.244293 43.096848 -314.822693
v 330.083923 43.096844 -339.559906
v 300.915070 43.096848 -309.966949
v 339.106842 43.096848 -322.893036
v 301.999298 43.096848 -301.515533
v 342.200470 43.096848 -304.607147
v 301.912201 43.096844 -284.531403
v 342.232086 43.096844 -284.492432
v 301.900146 43.096848 -256.898621
v 342.220032 43.096848 -256.890076
v 301.900635 43.096851 -221.998428
v 342.220490 43.096851 -222.003586
v 301.910400 43.096851 -181.618332
v 342.230286 43.096851 -181.630463
v 301.926331 43.096855 -137.549149
v 342.246185 43.096855 -137.564682
v 301.945129 43.096859 -91.582832
v 342.265015 43.096859 -91.599182
v 301.963654 43.096863 -45.511612
v 342.283508 43.096863 -45.526524
v 301.978668 43.096867 -1.128081
v 342.298553 43.096867 -1.139009
v 301.987030 43.096867 39.774754
v 342.306915 43.096867 39.771523
v 301.985474 43.096867 75.402946
v 342.305359 43.096867 75.414146
v 301.970856 43.096870 103.959297
v 342.290741 43.096870 104.001221
v 302.054138 43.096870 125.838493
v 342.145630 43.096870 121.553116
v 306.414368 43.096870 144.360275
v 343.187775 43.096874 127.825142
v 318.134003 43.096874 160.722061
v 346.535004 43.096870 132.102554
v 333.889099 43.096874 172.193695
v 353.580963 43.096874 137.009567
v 351.833160 43.096878 179.789124
v 364.241760 43.096874 141.426147
v 371.125519 43.096878 184.289474
v 377.427765 43.096874 144.465179
v 391.126740 43.096878 186.014404
v 391.848022 43.096874 145.700974
v 268.473938 47.724270 -333.423737
v 267.933167 47.724270 -357.022644
v 279.715454 47.721153 -332.700989
v 283.442657 47.721153 -356.021393
v 289.994019 47.712547 -330.052734
v 298.401672 47.712551 -352.155121
v 298.510773 47.696594 -325.689575
v 312.108459 47.696590 -345.106964
v 304.776154 47.676769 -319.897522
v 323.552063 47.676765 -334.485107
v 308.737762 47.669559 -312.614563
v 331.284149 47.669559 -320.245422
v 310.338776 47.727997 -302.156860
v 333.860992 47.727997 -303.965820
v 310.303894 47.743286 -284.523285
v 333.840363 47.743286 -284.500549
v 310.291870 47.743286 -256.896820
v 333.828308 47.743286 -256.891846
v 310.292328 47.743290 -221.999496
v 333.828796 47.743290 -222.002518
v 310.302124 47.743286 -181.620865
v 333.838562 47.743286 -181.627945
v 310.318024 47.743290 -137.552399
v 333.854492 47.743290 -137.561447
v 310.336853 47.743294 -91.586235
v 333.873291 47.743294 -91.595772
v 310.355347 47.743294 -45.514713
v 333.891815 47.743294 -45.523422
v 310.370392 47.743294 -1.130355
v 333.906830 47.743294 -1.136734
v 310.378693 47.743290 39.774078
v 333.915222 47.743290 39.772198
v 310.377136 47.743286 75.405273
v 333.913666 47.743286 75.411819
v 310.362518 47.743286 103.968018
v 333.899048 47.743286 103.992500
v 310.345825 47.714077 124.952194
v 333.853912 47.714077 122.439415
v 313.888275 47.634232 140.999634
v 335.713867 47.634235 131.185791
v 323.964691 47.680111 154.846558
v 340.704346 47.680111 137.978073
v 337.959473 47.711479 164.921036
v 349.510590 47.711475 144.282211
v 354.405701 47.725269 171.835693
v 361.669220 47.725269 149.379578
v 372.433594 47.730537 176.023697
v 376.119690 47.730541 152.730957
v 391.276489 47.731621 177.645157
v 391.698303 47.731617 154.070236
vn -0.0000 1.0000 -0.0000
vn 0.9993 -0.0372 -0.0004
vn 0.9993 -0.0372 -0.0003
vn -0.9993 0.0372 0.0003
vn -0.9993 0.0372 0.0004
vn 0.9993 -0.0372 -0.0001
vn -0.9993 0.0372 0.0001
vn 0.9993 -0.0372 0.0003
vn -0.9993 0.0372 -0.0003
vn 0.9993 -0.0372 -0.0016
vn 0.9993 -0.0372 -0.0017
vn -0.9993 0.0371 -0.0044
vn 0.9924 -0.0383 -0.1166
vn 0.9923 -0.0383 -0.1177
vn -0.9962 0.0380 0.0786
vn -0.9963 0.0380 0.0775
vn 0.9096 -0.0389 -0.4138
vn 0.9100 -0.0389 -0.4128
vn -0.9149 0.0389 0.4017
vn -0.9145 0.0389 0.4028
vn 0.7082 -0.0349 -0.7052
vn 0.7107 -0.0350 -0.7027
vn -0.6880 0.0344 0.7249
vn -0.6855 0.0344 0.7273
vn 0.4906 -0.0289 -0.8709
vn 0.4939 -0.0290 -0.8690
vn -0.4813 0.0286 0.8761
vn -0.4781 0.0285 0.8778
vn 0.3079 -0.0230 -0.9511
vn 0.3112 -0.0232 -0.9501
vn -0.3062 0.0230 0.9517
vn -0.3030 0.0229 0.9527
vn 0.1554 -0.0178 -0.9877
vn 0.1585 -0.0179 -0.9872
vn -0.1569 0.0179 0.9875
vn -0.1538 0.0178 0.9879
vn 0.0859 -0.0153 -0.9962
vn -0.0854 0.0153 0.9962
vn 0.0630 -0.0145 -0.9979
vn 0.1573 -0.0179 -0.9874
vn 0.1532 -0.0177 -0.9880
vn -0.1571 0.0179 0.9874
vn -0.1612 0.0180 0.9868
vn -0.0650 0.0146 0.9978
vn 0.3516 -0.0245 -0.9358
vn 0.3477 -0.0244 -0.9373
vn -0.3561 0.0246 0.9341
vn -0.3601 0.0248 0.9326
vn 0.5662 -0.0311 -0.8237
vn 0.5628 -0.0310 -0.8260
vn -0.5750 0.0313 0.8176
vn -0.5783 0.0314 0.8152
vn 0.7844 -0.0367 -0.6192
vn 0.7826 -0.0367 -0.6214
vn -0.7901 0.0368 0.6118
vn -0.7917 0.0369 0.6097
vn 0.9500 -0.0391 -0.3098
vn -0.9447 0.0391 0.3256
vn -0.9447 0.0391 0.3255
vn 0.9974 -0.0378 -0.0616
vn 0.9974 -0.0378 -0.0607
vn -0.9957 0.0381 0.0839
vn -0.9957 0.0381 0.0849
vn 0.9993 -0.0371 0.0028
vn -0.9993 0.0372 0.0006
vn 0.9993 -0.0372 0.0002
vn -0.9993 0.0372 -0.0002
vn -0.0372 -0.9709 0.2366
vn -0.0205 -0.9706 0.2396
vn 0.0224 -0.9654 -0.2598
vn 0.0410 -0.9654 -0.2575
vn -0.0723 -0.9714 0.2263
vn 0.0816 -0.9649 -0.2498
vn -0.1120 -0.9723 0.2050
vn 0.1320 -0.9637 -0.2320
vn -0.1561 -0.9739 0.1645
vn 0.1950 -0.9619 -0.1919
vn -0.1976 -0.9764 0.0866
vn 0.2546 -0.9600 -0.1162
vn -0.2346 -0.9719 0.0186
vn 0.2643 -0.9639 -0.0327
vn -0.2506 -0.9681 -0.0013
vn 0.2504 -0.9682 -0.0007
vn -0.2502 -0.9682 -0.0001
vn 0.2501 -0.9682 0.0001
vn -0.2502 -0.9682 -0.0000
vn 0.2501 -0.9682 -0.0000
vn -0.2502 -0.9682 0.0001
vn 0.2501 -0.9682 -0.0001
vn 0.2502 -0.9682 -0.0001
vn -0.2501 -0.9682 0.0001
vn -0.2501 -0.9682 -0.0000
vn 0.2502 -0.9682 -0.0000
vn -0.2501 -0.9682 -0.0001
vn 0.2502 -0.9682 0.0001
vn -0.2502 -0.9682 0.0003
vn 0.2504 -0.9681 0.0008
vn -0.2610 -0.9651 0.0231
vn 0.2389 -0.9709 -0.0144
vn -0.2596 -0.9615 0.0902
vn 0.2121 -0.9748 -0.0688
vn -0.2172 -0.9617 0.1671
vn 0.1767 -0.9743 -0.1397
vn -0.1564 -0.9628 0.2205
vn 0.1298 -0.9733 -0.1895
vn -0.0958 -0.9638 0.2488
vn 0.0816 -0.9723 -0.2189
vn -0.0422 -0.9645 0.2607
vn 0.0366 -0.9717 -0.2333
vn -0.0173 -0.9645 0.2635
vn 0.0150 -0.9713 -0.2375
vn -0.0315 -0.8740 0.4849
vn -0.0770 -0.8748 0.4783
vn 0.0308 -0.8740 -0.4850
vn 0.0755 -0.8748 -0.4786
vn -0.1733 -0.8748 0.4524
vn 0.1702 -0.8747 -0.4537
vn -0.2792 -0.8748 0.3959
vn 0.2748 -0.8747 -0.3991
vn -0.3831 -0.8749 0.2962
vn 0.3803 -0.8751 -0.2995
vn -0.4573 -0.8754 0.1570
vn 0.4585 -0.8758 -0.1507
vn -0.4833 -0.8745 0.0403
vn 0.4846 -0.8742 -0.0317
vn -0.4847 -0.8747 0.0001
vn 0.4847 -0.8747 0.0012
vn -0.4844 -0.8748 -0.0001
vn 0.4844 -0.8748 0.0001
vn -0.4844 -0.8748 0.0001
vn 0.4844 -0.8748 -0.0001
vn -0.4844 -0.8748 0.0002
vn 0.4844 -0.8748 -0.0002
vn -0.4844 -0.8748 -0.0000
vn 0.4844 -0.8748 -0.0000
vn -0.4850 -0.8745 -0.0018
vn 0.4849 -0.8746 -0.0005
vn -0.4844 -0.8738 0.0420
vn 0.4817 -0.8745 -0.0559
vn -0.4394 -0.8771 0.1940
vn 0.4397 -0.8758 -0.1993
vn -0.3358 -0.8744 0.3501
vn 0.3435 -0.8748 -0.3418
vn -0.2337 -0.8746 0.4249
vn 0.2383 -0.8747 -0.4220
vn -0.1480 -0.8747 0.4614
vn 0.1498 -0.8748 -0.4608
vn -0.0754 -0.8748 0.4786
vn 0.0760 -0.8748 -0.4785
vn -0.0415 -0.8743 0.4835
vn 0.0417 -0.8744 -0.4835
vt 0.981650 -16.206470
vt 0.981650 -16.040476
vt 0.482307 -16.040476
vt 0.482307 -16.206470
vt 0.981650 -15.879072
vt 0.482307 -15.879072
vt 0.981650 -15.724371
vt 0.482307 -15.724371
vt 0.981650 -15.574848
vt 0.482307 -15.574848
vt 0.981650 -15.423170
vt 0.482307 -15.423170
vt 0.981650 -15.255564
vt 0.482307 -15.255564
vt 0.981650 -15.025837
vt 0.482307 -15.025837
vt 0.981650 -14.683800
vt 0.482307 -14.683798
vt 0.981649 -14.251656
vt 0.482307 -14.251656
vt 0.981649 -13.751604
vt 0.482307 -13.751604
vt 0.981649 -13.205843
vt 0.482307 -13.205843
vt 0.981649 -12.636568
vt 0.482307 -12.636568
vt 0.981649 -12.065983
vt 0.482307 -12.065983
vt 0.981649 -11.516285
vt 0.482307 -11.516285
vt 0.981649 -11.009670
vt 0.482307 -11.009670
vt 0.981649 -10.568336
vt 0.482307 -10.568336
vt 0.981649 -10.214487
vt 0.482307 -10.214487
vt 0.981649 -9.970310
vt 0.482307 -9.970310
vt 0.981649 -9.813112
vt 0.482307 -9.813112
vt 0.981649 -9.654852
vt 0.482307 -9.654852
vt 0.981649 -9.481003
vt 0.482307 -9.481003
vt 0.981649 -9.288885
vt 0.482307 -9.288885
vt 0.981649 -9.082420
vt 0.482307 -9.082420
vt 0.981649 -8.868484
vt 0.482307 -8.868484
vt 0.503268 -3.293175
vt -0.006227 -3.293175
vt -0.006227 -3.863069
vt 0.503268 -3.863069
vt 0.507490 -1.926837
vt -0.003018 -1.926837
vt -0.003018 -2.533982
vt 0.507489 -2.533982
vt -0.006227 -4.388296
vt 0.503268 -4.388296
vt 0.507490 -1.367278
vt -0.003018 -1.367278
vt -0.006227 -4.845843
vt 0.503269 -4.845843
vt 0.507490 -0.879825
vt -0.003018 -0.879825
vt -0.006227 -5.212691
vt 0.503269 -5.212691
vt 0.507490 -0.488998
vt -0.003018 -0.488998
vt -0.006228 -5.465835
vt 0.503269 -5.465835
vt 0.507490 -0.219308
vt -0.003018 -0.219308
vt -0.006228 -5.628789
vt 0.503269 -5.628789
vt 0.507490 -0.045703
vt -0.003018 -0.045703
vt -0.006228 -5.792854
vt 0.503269 -5.792854
vt 0.507490 0.129086
vt -0.003018 0.129086
vt -0.006228 -5.973090
vt 0.503269 -5.973090
vt 0.507490 0.321101
vt -0.003018 0.321101
vt -0.006228 -6.172262
vt 0.503269 -6.172262
vt 0.507490 0.533294
vt -0.003018 0.533294
vt -0.006228 -6.386311
vt 0.503269 -6.386311
vt 0.507490 0.761332
vt -0.003018 0.761332
vt -0.006228 -6.608107
vt 0.503269 -6.608107
vt 0.507490 0.997622
vt -0.003018 0.997622
vt 0.503270 0.999394
vt -0.006227 0.999394
vt -0.006227 0.827302
vt 0.503270 0.827302
vt 0.507489 -6.923799
vt -0.003019 -6.923799
vt -0.003019 -7.107139
vt 0.507489 -7.107139
vt -0.006227 0.659970
vt 0.503270 0.659970
vt 0.507489 -6.745528
vt -0.003019 -6.745528
vt -0.006227 0.499591
vt 0.503270 0.499591
vt 0.507489 -6.574662
vt -0.003019 -6.574662
vt -0.006227 0.344575
vt 0.503270 0.344575
vt 0.507489 -6.409511
vt -0.003019 -6.409511
vt -0.006227 0.187325
vt 0.503270 0.187325
vt 0.507489 -6.241984
vt -0.003019 -6.241984
vt -0.006227 0.013574
vt 0.503270 0.013574
vt 0.507489 -6.056876
vt -0.003019 -6.056876
vt -0.006227 -0.224593
vt 0.503270 -0.224593
vt 0.507489 -5.803138
vt -0.003019 -5.803138
vt -0.006227 -0.579192
vt 0.503270 -0.579192
vt 0.507489 -5.425361
vt -0.003019 -5.425361
vt -0.006227 -1.027213
vt 0.503270 -1.027213
vt 0.507489 -4.948058
vt -0.003019 -4.948058
vt -0.006227 -1.545634
vt 0.503269 -1.545634
vt 0.507489 -4.395753
vt -0.003018 -4.395753
vt -0.006227 -2.111444
vt 0.503269 -2.111444
vt 0.507489 -3.792958
vt -0.003018 -3.792958
vt -0.006227 -2.701630
vt 0.503268 -2.701630
vt 0.507489 -3.164197
vt -0.003018 -3.164197
vt 0.883488 0.788016
vt 0.883488 0.997319
vt 0.609243 0.997319
vt 0.609243 0.788016
vt 0.883488 0.586024
vt 0.609241 0.586024
vt 0.883488 0.398070
vt 0.609241 0.398070
vt 0.883488 0.227987
vt 0.609241 0.227987
vt 0.883488 0.073165
vt 0.609241 0.073165
vt 0.883488 -0.080613
vt 0.609241 -0.080613
vt 0.883488 -0.319498
vt 0.609241 -0.319498
vt 0.883488 -0.665686
vt 0.609241 -0.665686
vt 0.883488 -1.097463
vt 0.609241 -1.097463
vt 0.883488 -1.593109
vt 0.609241 -1.593109
vt 0.883488 -2.130904
vt 0.609241 -2.130904
vt 0.883488 -2.689135
vt 0.609241 -2.689135
vt 0.883488 -3.246079
vt 0.609241 -3.246080
vt 0.883488 -3.780024
vt 0.609241 -3.780025
vt 0.883487 -4.269242
vt 0.609241 -4.269242
vt 0.883487 -4.692029
vt 0.609241 -4.692029
vt 0.883487 -5.026659
vt 0.609241 -5.026659
vt 0.883487 -5.251412
vt 0.609241 -5.251412
vt 0.883487 -5.415383
vt 0.609241 -5.415383
vt 0.883487 -5.563775
vt 0.609241 -5.563775
vt 0.883487 -5.710059
vt 0.609241 -5.710059
vt 0.883487 -5.861409
vt 0.609241 -5.861409
vt 0.883487 -6.019314
vt 0.609241 -6.019314
vt 0.883487 -6.181714
vt 0.609241 -6.181714
vt 0.999059 -6.181714
vt 0.999059 -6.019314
vt 0.498662 -6.181714
vt 0.498662 -6.019314
vt 0.999059 -5.861409
vt 0.498662 -5.861409
vt 0.999059 -5.710059
vt 0.498662 -5.710059
vt 0.999059 -5.563775
vt 0.498662 -5.563775
vt 0.999059 -5.415383
vt 0.498662 -5.415383
vt 0.999059 -5.251412
vt 0.498662 -5.251412
vt 0.999059 -5.026659
vt 0.498662 -5.026659
vt 0.999059 -4.692029
vt 0.498662 -4.692029
vt 0.999059 -4.269242
vt 0.498662 -4.269242
vt 0.999059 -3.780025
vt 0.498662 -3.780024
vt 0.999059 -3.246080
vt 0.498663 -3.246080
vt 0.999059 -2.689135
vt 0.498663 -2.689135
vt 0.999059 -2.130904
vt 0.498664 -2.130904
vt 0.999059 -1.593109
vt 0.498664 -1.593109
vt 0.999059 -1.097463
vt 0.498664 -1.097463
vt 0.999059 -0.665686
vt 0.498664 -0.665686
vt 0.999059 -0.319498
vt 0.498664 -0.319498
vt 0.999059 -0.080613
vt 0.498664 -0.080613
vt 0.999059 0.073165
vt 0.498664 0.073165
vt 0.999059 0.227987
vt 0.498664 0.227987
vt 0.999059 0.398070
vt 0.498664 0.398070
vt 0.999059 0.586024
vt 0.498664 0.586024
vt 0.999059 0.788016
vt 0.498664 0.788016
vt 0.999059 0.997319
vt 0.498664 0.997319
s 1
g Circuito_castillo.003_Castillo_interior
f 2/1/1 4/2/1 3/3/1 1/4/1
f 4/2/1 6/5/1 5/6/1 3/3/1
f 6/5/1 8/7/1 7/8/1 5/6/1
f 8/7/1 10/9/1 9/10/1 7/8/1
f 10/9/1 12/11/1 11/12/1 9/10/1
f 12/11/1 14/13/1 13/14/1 11/12/1
f 14/13/1 16/15/1 15/16/1 13/14/1
f 16/15/1 18/17/1 17/18/1 15/16/1
f 18/17/1 20/19/1 19/20/1 17/18/1
f 20/19/1 22/21/1 21/22/1 19/20/1
f 22/21/1 24/23/1 23/24/1 21/22/1
f 24/23/1 26/25/1 25/26/1 23/24/1
f 26/25/1 28/27/1 27/28/1 25/26/1
f 28/27/1 30/29/1 29/30/1 27/28/1
f 30/29/1 32/31/1 31/32/1 29/30/1
f 32/31/1 34/33/1 33/34/1 31/32/1
f 34/33/1 36/35/1 35/36/1 33/34/1
f 36/35/1 38/37/1 37/38/1 35/36/1
f 38/37/1 40/39/1 39/40/1 37/38/1
f 40/39/1 42/41/1 41/42/1 39/40/1
f 42/41/1 44/43/1 43/44/1 41/42/1
f 44/43/1 46/45/1 45/46/1 43/44/1
f 46/45/1 48/47/1 47/48/1 45/46/1
f 48/47/1 50/49/1 49/50/1 47/48/1
f 78/51/2 127/52/2 129/53/3 80/54/3
f 79/55/4 130/56/4 128/57/5 77/58/5
f 80/54/3 129/53/3 131/59/6 82/60/6
f 81/61/7 132/62/7 130/56/4 79/55/4
f 82/60/6 131/59/6 133/63/8 84/64/8
f 83/65/9 134/66/9 132/62/7 81/61/7
f 84/64/8 133/63/8 135/67/10 86/68/11
f 85/69/12 136/70/12 134/66/9 83/65/9
f 86/68/11 135/67/10 137/71/13 88/72/14
f 87/73/15 138/74/16 136/70/12 85/69/12
f 88/72/14 137/71/13 139/75/17 90/76/18
f 89/77/19 140/78/20 138/74/16 87/73/15
f 90/76/18 139/75/17 141/79/21 92/80/22
f 91/81/23 142/82/24 140/78/20 89/77/19
f 92/80/22 141/79/21 143/83/25 94/84/26
f 93/85/27 144/86/28 142/82/24 91/81/23
f 94/84/26 143/83/25 145/87/29 96/88/30
f 95/89/31 146/90/32 144/86/28 93/85/27
f 96/88/30 145/87/29 147/91/33 98/92/34
f 97/93/35 148/94/36 146/90/32 95/89/31
f 98/92/34 147/91/33 149/95/37 100/96/37
f 99/97/38 150/98/38 148/94/36 97/93/35
f 52/99/39 101/100/39 103/101/40 54/102/41
f 53/103/42 104/104/43 102/105/44 51/106/44
f 54/102/41 103/101/40 105/107/45 56/108/46
f 55/109/47 106/110/48 104/104/43 53/103/42
f 56/108/46 105/107/45 107/111/49 58/112/50
f 57/113/51 108/114/52 106/110/48 55/109/47
f 58/112/50 107/111/49 109/115/53 60/116/54
f 59/117/55 110/118/56 108/114/52 57/113/51
f 60/116/54 109/115/53 111/119/57 62/120/57
f 61/121/58 112/122/59 110/118/56 59/117/55
f 62/120/57 111/119/57 113/123/60 64/124/61
f 63/125/62 114/126/63 112/122/59 61/121/58
f 64/124/61 113/123/60 115/127/64 66/128/64
f 65/129/65 116/130/65 114/126/63 63/125/62
f 66/128/64 115/127/64 117/131/66 68/132/66
f 67/133/67 118/134/67 116/130/65 65/129/65
f 68/132/66 117/131/66 119/135/6 70/136/6
f 69/137/7 120/138/7 118/134/67 67/133/67
f 70/136/6 119/135/6 121/139/3 72/140/3
f 71/141/4 122/142/4 120/138/7 69/137/7
f 72/140/3 121/139/3 123/143/2 74/144/2
f 73/145/5 124/146/5 122/142/4 71/141/4
f 74/144/2 123/143/2 125/147/2 76/148/2
f 75/149/5 126/150/5 124/146/5 73/145/5
f 76/148/2 125/147/2 127/52/2 78/51/2
f 77/58/5 128/57/5 126/150/5 75/149/5
g Circuito_castillo.003_Castillo_interior2
f 198/151/68 200/152/69 199/153/70 197/154/71
f 196/155/72 198/151/68 197/154/71 195/156/73
f 194/157/74 196/155/72 195/156/73 193/158/75
f 192/159/76 194/157/74 193/158/75 191/160/77
f 190/161/78 192/159/76 191/160/77 189/162/79
f 188/163/80 190/161/78 189/162/79 187/164/81
f 186/165/82 188/163/80 187/164/81 185/166/83
f 184/167/84 186/165/82 185/166/83 183/168/85
f 182/169/86 184/167/84 183/168/85 181/170/87
f 180/171/88 182/169/86 181/170/87 179/172/89
f 178/173/88 180/171/88 179/172/89 177/174/89
f 176/175/88 178/173/88 177/174/89 175/176/90
f 174/177/91 176/175/88 175/176/90 173/178/90
f 172/179/91 174/177/91 173/178/90 171/180/90
f 170/181/92 172/179/91 171/180/90 169/182/93
f 168/183/94 170/181/92 169/182/93 167/184/95
f 166/185/96 168/183/94 167/184/95 165/186/97
f 164/187/98 166/185/96 165/186/97 163/188/99
f 162/189/100 164/187/98 163/188/99 161/190/101
f 160/191/102 162/189/100 161/190/101 159/192/103
f 158/193/104 160/191/102 159/192/103 157/194/105
f 156/195/106 158/193/104 157/194/105 155/196/107
f 154/197/108 156/195/106 155/196/107 153/198/109
f 152/199/110 154/197/108 153/198/109 151/200/111
f 152/199/110 102/201/112 104/202/113 154/197/108
f 101/203/114 151/200/111 153/198/109 103/204/115
f 154/197/108 104/202/113 106/205/116 156/195/106
f 103/204/115 153/198/109 155/196/107 105/206/117
f 156/195/106 106/205/116 108/207/118 158/193/104
f 105/206/117 155/196/107 157/194/105 107/208/119
f 158/193/104 108/207/118 110/209/120 160/191/102
f 107/208/119 157/194/105 159/192/103 109/210/121
f 160/191/102 110/209/120 112/211/122 162/189/100
f 109/210/121 159/192/103 161/190/101 111/212/123
f 162/189/100 112/211/122 114/213/124 164/187/98
f 111/212/123 161/190/101 163/188/99 113/214/125
f 164/187/98 114/213/124 116/215/126 166/185/96
f 113/214/125 163/188/99 165/186/97 115/216/127
f 166/185/96 116/215/126 118/217/128 168/183/94
f 115/216/127 165/186/97 167/184/95 117/218/129
f 168/183/94 118/217/128 120/219/130 170/181/92
f 117/218/129 167/184/95 169/182/93 119/220/131
f 170/181/92 120/219/130 122/221/130 172/179/91
f 119/220/131 169/182/93 171/180/90 121/222/131
f 172/179/91 122/221/130 124/223/132 174/177/91
f 121/222/131 171/180/90 173/178/90 123/224/133
f 174/177/91 124/223/132 126/225/132 176/175/88
f 123/224/133 173/178/90 175/176/90 125/226/133
f 176/175/88 126/225/132 128/227/132 178/173/88
f 125/226/133 175/176/90 177/174/89 127/228/133
f 178/173/88 128/227/132 130/229/130 180/171/88
f 127/228/133 177/174/89 179/172/89 129/230/131
f 180/171/88 130/229/130 132/231/134 182/169/86
f 129/230/131 179/172/89 181/170/87 131/232/135
f 182/169/86 132/231/134 134/233/128 184/167/84
f 131/232/135 181/170/87 183/168/85 133/234/129
f 184/167/84 134/233/128 136/235/136 186/165/82
f 133/234/129 183/168/85 185/166/83 135/236/137
f 186/165/82 136/235/136 138/237/138 188/163/80
f 135/236/137 185/166/83 187/164/81 137/238/139
f 188/163/80 138/237/138 140/239/140 190/161/78
f 137/238/139 187/164/81 189/162/79 139/240/141
f 190/161/78 140/239/140 142/241/142 192/159/76
f 139/240/141 189/162/79 191/160/77 141/242/143
f 192/159/76 142/241/142 144/243/144 194/157/74
f 141/242/143 191/160/77 193/158/75 143/244/145
f 194/157/74 144/243/144 146/245/146 196/155/72
f 143/244/145 193/158/75 195/156/73 145/246/147
f 196/155/72 146/245/146 148/247/148 198/151/68
f 145/246/147 195/156/73 197/154/71 147/248/149
f 198/151/68 148/247/148 150/249/150 200/152/69
f 147/248/149 197/154/71 199/153/70 149/250/151
