# Blender 4.5.3 LTS
# www.blender.org
o Arbol
v -4.000813 21.407835 4.000812
v 4.000813 21.407835 4.000812
v -4.000813 21.407835 -4.000815
v 4.000813 21.407835 -4.000815
v -5.658006 21.407835 -0.000002
v 0.000000 21.407835 5.658004
v 5.658006 21.407835 -0.000002
v 0.000000 21.407835 -5.658007
v 0.000000 21.407835 -0.000002
v -5.227315 21.407835 2.165224
v 2.165226 21.407835 5.227313
v 5.227315 21.407835 -2.165227
v -2.165226 21.407835 -5.227317
v -5.227315 21.407835 -2.165227
v -2.165226 21.407835 5.227313
v 5.227315 21.407835 2.165224
v 2.165226 21.407835 -5.227317
v 0.000000 21.407835 -2.433405
v 0.000000 21.407835 2.433402
v -2.433404 21.407835 -0.000002
v 2.433404 21.407835 -0.000002
v 2.433404 21.407835 2.433402
v -2.433404 21.407835 2.433402
v -2.433404 21.407835 -2.433405
v 2.433404 21.407835 -2.433405
v -0.686281 26.781828 0.284265
v -0.525257 26.781828 0.525255
v 0.284267 26.781828 0.686279
v 0.525257 26.781828 0.525255
v 0.686281 26.781828 -0.284269
v 0.525257 26.781828 -0.525259
v -0.284267 26.781828 -0.686283
v -0.525257 26.781828 -0.525259
v -0.686281 26.781828 -0.284269
v -0.742823 26.781828 -0.000002
v -0.284267 26.781828 0.686279
v 0.000000 26.781828 0.742821
v 0.686281 26.781828 0.284265
v 0.742823 26.781828 -0.000002
v 0.284267 26.781828 -0.686283
v 0.000000 26.781828 -0.742825
v 0.000000 27.166769 -0.319476
v 0.000000 27.166769 0.319472
v 0.000000 27.312477 -0.000002
v -0.319474 27.166769 -0.000002
v 0.319474 27.166769 -0.000002
v 0.319474 27.050789 0.319472
v -0.319474 27.050789 0.319472
v -0.319474 27.050789 -0.319476
v 0.319474 27.050789 -0.319476
v -1.476701 0.041380 1.476701
v 1.476701 0.041380 1.476701
v -1.476701 0.041380 -1.476701
v 1.476701 0.041380 -1.476701
v -2.088373 0.041380 -0.000000
v 0.000000 0.041380 2.088373
v 2.088373 0.041380 -0.000000
v 0.000000 0.041380 -2.088373
v -1.929405 8.092898 0.799183
v -1.929405 0.041380 0.799184
v 0.799184 0.041380 1.929405
v 1.929405 0.041380 -0.799184
v -0.799184 0.041380 -1.929405
v -1.929405 0.041380 -0.799184
v -0.799184 0.041380 1.929405
v 1.929405 0.041380 0.799184
v 0.799184 0.041380 -1.929405
v 0.000000 8.092898 -2.088374
v 2.088373 8.092898 -0.000001
v 0.000000 8.092898 2.088372
v -2.088373 8.092898 -0.000001
v 1.476701 8.092898 -1.476702
v -1.476701 8.092898 -1.476702
v 1.476701 8.092898 1.476701
v -1.476701 8.092898 1.476701
v 0.799184 8.092898 1.929404
v 1.929405 8.092898 -0.799185
v -0.799184 8.092898 -1.929405
v -1.929405 8.092898 -0.799185
v -0.799184 8.092898 1.929404
v 1.929405 8.092898 0.799183
v 0.799184 8.092898 -1.929405
v -7.058698 7.018889 7.058697
v 7.058698 7.018889 7.058697
v -7.058698 7.018888 -7.058699
v 7.058698 7.018888 -7.058699
v -9.982504 7.018888 -0.000001
v 0.000000 7.018889 9.982504
v 9.982504 7.018888 -0.000001
v 0.000000 7.018888 -9.982505
v 0.000000 7.018888 -0.000001
v -9.222633 7.018888 3.820141
v 3.820141 7.018889 9.222633
v 9.222633 7.018888 -3.820142
v -3.820141 7.018888 -9.222634
v -9.222633 7.018888 -3.820142
v -3.820141 7.018889 9.222633
v 9.222633 7.018888 3.820141
v 3.820141 7.018888 -9.222634
v 0.000000 7.018888 -4.293293
v 0.000000 7.018889 4.293292
v -4.293293 7.018888 -0.000001
v 4.293293 7.018888 -0.000001
v 4.293293 7.018889 4.293292
v -4.293293 7.018889 4.293292
v -4.293293 7.018888 -4.293293
v 4.293293 7.018888 -4.293293
v -2.969304 15.809642 2.969303
v 2.969304 15.809642 2.969303
v -2.969304 15.809642 -2.969305
v 2.969304 15.809642 -2.969305
v -4.199228 15.809642 -0.000001
v 0.000000 15.809642 4.199226
v 4.199228 15.809642 -0.000001
v 0.000000 15.809642 -4.199229
v -3.879577 15.809642 1.606976
v 1.606977 15.809642 3.879576
v 3.879577 15.809642 -1.606978
v -1.606977 15.809642 -3.879578
v -3.879577 15.809642 -1.606978
v -1.606977 15.809642 3.879576
v 3.879577 15.809642 1.606976
v 1.606977 15.809642 -3.879578
v -5.646961 14.204252 5.646959
v 5.646961 14.204252 5.646959
v -5.646961 14.204252 -5.646962
v 5.646961 14.204252 -5.646962
v -7.986008 14.204252 -0.000001
v 0.000000 14.204253 7.986007
v 7.986008 14.204252 -0.000001
v 0.000000 14.204250 -7.986009
v 0.000000 14.204252 -0.000001
v -7.378106 14.204252 3.056109
v 3.056110 14.204252 7.378105
v 7.378106 14.204252 -3.056111
v -3.056110 14.204252 -7.378107
v -7.378106 14.204252 -3.056111
v -3.056110 14.204252 7.378105
v 7.378106 14.204252 3.056109
v 3.056110 14.204252 -7.378107
v 0.000000 14.204252 -3.434635
v 0.000000 14.204252 3.434633
v -3.434634 14.204252 -0.000001
v 3.434634 14.204252 -0.000001
v 3.434634 14.204252 3.434633
v -3.434634 14.204252 3.434633
v -3.434634 14.204252 -3.434635
v 3.434634 14.204252 -3.434635
v -2.375440 21.236855 2.375438
v 2.375440 21.236855 2.375438
v -2.375440 21.236855 -2.375441
v 2.375440 21.236855 -2.375441
v -3.359380 21.236855 -0.000002
v 0.000000 21.236855 3.359378
v 3.359380 21.236855 -0.000002
v 0.000000 21.236855 -3.359381
v -3.103657 21.236855 1.285578
v 1.285579 21.236855 3.103656
v 3.103657 21.236855 -1.285581
v -1.285579 21.236855 -3.103659
v -3.103657 21.236855 -1.285581
v -1.285579 21.236855 3.103656
v 3.103657 21.236855 1.285578
v 1.285579 21.236855 -3.103659
vn -0.0000 -1.0000 -0.0000
vn 0.3670 -0.2836 -0.8859
vn 0.6781 -0.2836 -0.6781
vn 0.8859 -0.2836 -0.3670
vn -0.3670 -0.2836 -0.8859
vn -0.0000 -0.2836 -0.9589
vn 0.9589 -0.2836 -0.0000
vn 0.8859 -0.2836 0.3670
vn -0.0000 -0.2836 0.9589
vn 0.3670 -0.2836 0.8859
vn 0.6781 -0.2836 0.6781
vn -0.8859 -0.2836 0.3670
vn -0.9589 -0.2836 -0.0000
vn -0.6781 -0.2836 0.6781
vn -0.3670 -0.2836 0.8859
vn -0.8859 -0.2836 -0.3670
vn -0.6781 -0.2836 -0.6781
vn 0.4285 0.7954 -0.4285
vn 0.6389 0.7112 -0.2932
vn 0.5036 0.7020 -0.5036
vn 0.2932 0.7112 -0.6389
vn -0.4285 0.7954 -0.4285
vn -0.0000 0.8603 -0.5098
vn -0.0000 0.7169 -0.6972
vn -0.2932 0.7112 -0.6389
vn -0.4285 0.7954 0.4285
vn -0.0000 0.8603 0.5098
vn -0.0000 1.0000 -0.0000
vn -0.5098 0.8603 -0.0000
vn 0.4285 0.7954 0.4285
vn 0.6389 0.7112 0.2932
vn 0.6972 0.7169 -0.0000
vn 0.5098 0.8603 -0.0000
vn -0.0000 0.7169 0.6972
vn 0.2932 0.7112 0.6389
vn 0.5034 0.7022 0.5034
vn -0.6389 0.7112 0.2932
vn -0.6972 0.7169 -0.0000
vn -0.5036 0.7020 0.5036
vn -0.2932 0.7112 0.6389
vn -0.6389 0.7112 -0.2932
vn -0.5034 0.7022 -0.5034
vn -0.9239 -0.0000 0.3827
vn -0.7071 -0.0000 0.7071
vn -0.3827 -0.0000 0.9239
vn -0.0000 -0.0000 1.0000
vn 0.3827 -0.0000 -0.9239
vn -0.0000 -0.0000 -1.0000
vn 0.9239 -0.0000 -0.3827
vn 0.7071 -0.0000 -0.7071
vn 1.0000 -0.0000 -0.0000
vn -0.9239 -0.0000 -0.3827
vn -1.0000 -0.0000 -0.0000
vn -0.7071 -0.0000 -0.7071
vn -0.3827 -0.0000 -0.9239
vn 0.3827 -0.0000 0.9239
vn 0.7071 -0.0000 0.7071
vn 0.9239 -0.0000 0.3827
vn 0.3590 -0.3465 -0.8666
vn 0.6633 -0.3466 -0.6633
vn 0.8666 -0.3465 -0.3590
vn -0.3590 -0.3465 -0.8666
vn -0.0000 -0.3465 -0.9380
vn 0.9380 -0.3465 -0.0000
vn 0.8666 -0.3465 0.3590
vn -0.0000 -0.3465 0.9380
vn 0.3590 -0.3465 0.8666
vn 0.6633 -0.3466 0.6633
vn -0.8666 -0.3465 0.3590
vn -0.9380 -0.3465 -0.0000
vn -0.6633 -0.3466 0.6633
vn -0.3590 -0.3465 0.8666
vn -0.8666 -0.3465 -0.3590
vn -0.6633 -0.3466 -0.6633
vn -0.0000 0.5496 -0.8354
vn 0.3197 0.5496 -0.7718
vn -0.5907 0.5496 0.5907
vn -0.7718 0.5496 0.3197
vn -0.3197 0.5496 -0.7718
vn 0.5907 0.5496 0.5907
vn 0.3197 0.5496 0.7718
vn -0.7718 0.5496 -0.3197
vn -0.5907 0.5496 -0.5907
vn 0.5907 0.5496 -0.5907
vn 0.7718 0.5496 -0.3197
vn -0.3197 0.5496 0.7718
vn 0.7718 0.5496 0.3197
vn -0.8354 0.5496 -0.0000
vn -0.0000 0.5496 0.8354
vn 0.8354 0.5496 -0.0000
vn 0.6633 -0.3465 -0.6633
vn 0.6633 -0.3465 0.6633
vn -0.6633 -0.3465 0.6633
vn -0.6633 -0.3465 -0.6633
vt 0.882196 0.716093
vt 0.873128 0.621620
vt 0.935197 0.663093
vt 0.976669 0.725161
vt 0.717630 0.716093
vt 0.726698 0.621620
vt 0.799913 0.607057
vt 0.799913 0.716093
vt 0.717630 0.880659
vt 0.717630 0.798376
vt 0.799913 0.798376
vt 0.799913 0.880659
vt 0.882196 0.880659
vt 0.882196 0.798376
vt 0.991233 0.798376
vt 0.976669 0.871591
vt 0.799913 0.989696
vt 0.873128 0.975132
vt 0.935196 0.933659
vt 0.623157 0.871591
vt 0.608594 0.798376
vt 0.664630 0.933659
vt 0.726698 0.975132
vt 0.623157 0.725161
vt 0.664630 0.663093
vt 0.431812 0.164669
vt 0.432811 0.156831
vt 0.436887 0.160285
vt 0.439657 0.164805
vt 0.432748 0.176585
vt 0.431217 0.170711
vt 0.440882 0.169953
vt 0.440453 0.175218
vt 0.421254 0.180935
vt 0.418146 0.174901
vt 0.424488 0.171244
vt 0.426687 0.177719
vt 0.419752 0.162166
vt 0.422361 0.154374
vt 0.427815 0.154791
vt 0.425639 0.164495
vt 0.417635 0.168634
vt 0.408302 0.162804
vt 0.412160 0.158545
vt 0.416980 0.155649
vt 0.425037 0.188193
vt 0.430340 0.186943
vt 0.419559 0.187777
vt 0.414349 0.185690
vt 0.409890 0.182135
vt 0.434953 0.184166
vt 0.438455 0.180129
vt 0.305154 0.085312
vt 0.335327 0.055300
vt 0.416432 0.027476
vt 0.459579 0.032573
vt 0.499351 0.050317
vt 0.554677 0.116586
vt 0.565013 0.159099
vt 0.440438 0.314562
vt 0.396622 0.313881
vt 0.562063 0.202784
vt 0.373915 0.035281
vt 0.546373 0.243510
vt 0.518971 0.277703
vt 0.532086 0.079196
vt 0.355123 0.300343
vt 0.482515 0.302144
vt 0.319709 0.275315
vt 0.120167 0.941418
vt 0.095633 0.941418
vt 0.095633 0.736510
vt 0.120167 0.736510
vt 0.071099 0.941418
vt 0.046564 0.941418
vt 0.046564 0.736510
vt 0.071099 0.736510
vt 0.267373 0.941418
vt 0.242838 0.941418
vt 0.242838 0.736510
vt 0.267373 0.736510
vt 0.316441 0.941418
vt 0.291907 0.941418
vt 0.291907 0.736510
vt 0.316441 0.736510
vt 0.340975 0.941418
vt 0.340975 0.736510
vt 0.169236 0.941418
vt 0.144701 0.941418
vt 0.144701 0.736510
vt 0.169236 0.736510
vt 0.193770 0.941418
vt 0.193770 0.736510
vt 0.218304 0.941418
vt 0.218304 0.736510
vt 0.414578 0.941418
vt 0.390044 0.941418
vt 0.390044 0.736510
vt 0.414578 0.736510
vt 0.365510 0.941418
vt 0.365510 0.736510
vt 0.439112 0.941418
vt 0.439112 0.736510
vt 0.883477 0.714812
vt 0.874367 0.619896
vt 0.936726 0.661563
vt 0.978393 0.723923
vt 0.718141 0.714812
vt 0.727252 0.619896
vt 0.800809 0.605265
vt 0.800809 0.714812
vt 0.718141 0.880149
vt 0.718141 0.797480
vt 0.800809 0.797480
vt 0.800809 0.880148
vt 0.883477 0.880149
vt 0.883477 0.797480
vt 0.993025 0.797480
vt 0.978393 0.871038
vt 0.800809 0.989696
vt 0.874367 0.975064
vt 0.936726 0.933397
vt 0.623225 0.871038
vt 0.608594 0.797480
vt 0.664892 0.933397
vt 0.727252 0.975064
vt 0.623225 0.723923
vt 0.664892 0.661563
vt 0.261972 0.591594
vt 0.261972 0.628534
vt 0.003760 0.628534
vt 0.003760 0.591594
vt 0.261972 0.197085
vt 0.261972 0.238210
vt 0.003760 0.238210
vt 0.003760 0.197085
vt 0.261972 0.004016
vt 0.261972 0.040955
vt 0.003760 0.040955
vt 0.003760 0.004016
vt 0.261972 0.353214
vt 0.261972 0.394339
vt 0.003760 0.394339
vt 0.003760 0.353214
vt 0.261972 0.082081
vt 0.261972 0.123206
vt 0.003760 0.123206
vt 0.003760 0.082081
vt 0.261972 0.509344
vt 0.261972 0.550469
vt 0.003760 0.550469
vt 0.003760 0.509344
vt 0.261972 0.279335
vt 0.003760 0.279335
vt 0.261972 0.435465
vt 0.003760 0.435465
vt 0.261972 0.160145
vt 0.003760 0.160145
vt 0.261972 0.316275
vt 0.003760 0.316275
vt 0.261972 0.472404
vt 0.003760 0.472404
vt 0.882812 0.715477
vt 0.873724 0.620791
vt 0.935932 0.662357
vt 0.977498 0.724566
vt 0.717876 0.715477
vt 0.726964 0.620791
vt 0.800344 0.606195
vt 0.800344 0.715477
vt 0.717876 0.880413
vt 0.717876 0.797945
vt 0.800344 0.797945
vt 0.800344 0.880414
vt 0.882812 0.880413
vt 0.882812 0.797945
vt 0.992094 0.797945
vt 0.977498 0.871325
vt 0.800344 0.989696
vt 0.873724 0.975099
vt 0.935932 0.933533
vt 0.623190 0.871325
vt 0.608594 0.797945
vt 0.664756 0.933533
vt 0.726964 0.975099
vt 0.623190 0.724566
vt 0.664756 0.662357
vt 0.262630 0.595651
vt 0.262630 0.632870
vt 0.003558 0.632870
vt 0.003558 0.595651
vt 0.262630 0.198160
vt 0.262630 0.239596
vt 0.003558 0.239596
vt 0.003558 0.198160
vt 0.262630 0.003631
vt 0.262630 0.040850
vt 0.003558 0.040850
vt 0.003558 0.003631
vt 0.262630 0.355469
vt 0.262630 0.396906
vt 0.003558 0.396906
vt 0.003558 0.355469
vt 0.262630 0.082286
vt 0.262630 0.123722
vt 0.003558 0.123722
vt 0.003558 0.082286
vt 0.262630 0.512779
vt 0.262630 0.554215
vt 0.003558 0.554215
vt 0.003558 0.512779
vt 0.262630 0.281032
vt 0.003558 0.281032
vt 0.262630 0.438341
vt 0.003558 0.438341
vt 0.262630 0.160941
vt 0.003558 0.160941
vt 0.262630 0.318251
vt 0.003558 0.318251
vt 0.262630 0.475560
vt 0.003558 0.475560
s 1
g Arbol_Arbol
f 25/1/1 17/2/2 4/3/3 12/4/4
f 24/5/1 13/6/5 8/7/6 18/8/1
f 23/9/1 20/10/1 9/11/1 19/12/1
f 22/13/1 21/14/1 7/15/7 16/16/8
f 19/12/1 9/11/1 21/14/1 22/13/1
f 6/17/9 19/12/1 22/13/1 11/18/10
f 11/18/10 22/13/1 16/16/8 2/19/11
f 10/20/12 5/21/13 20/10/1 23/9/1
f 1/22/14 10/20/12 23/9/1 15/23/15
f 15/23/15 23/9/1 19/12/1 6/17/9
f 14/24/16 3/25/17 13/6/5 24/5/1
f 5/21/13 14/24/16 24/5/1 20/10/1
f 20/10/1 24/5/1 18/8/1 9/11/1
f 18/8/1 8/7/6 17/2/2 25/1/1
f 9/11/1 18/8/1 25/1/1 21/14/1
f 21/14/1 25/1/1 12/4/4 7/15/7
f 50/26/18 30/27/19 31/28/20 40/29/21
f 49/30/22 42/31/23 41/32/24 32/33/25
f 48/34/26 43/35/27 44/36/28 45/37/29
f 47/38/30 38/39/31 39/40/32 46/41/33
f 43/42/27 47/38/30 46/41/33 44/36/28
f 37/43/34 28/44/35 47/38/30 43/42/27
f 28/44/35 29/45/36 38/39/31 47/38/30
f 26/46/37 48/34/26 45/37/29 35/47/38
f 27/48/39 36/49/40 48/34/26 26/46/37
f 36/49/40 37/50/34 43/35/27 48/34/26
f 34/51/41 49/30/22 32/33/25 33/52/42
f 35/47/38 45/37/29 49/30/22 34/51/41
f 45/37/29 44/36/28 42/31/23 49/30/22
f 42/31/23 50/26/18 40/29/21 41/32/24
f 44/36/28 46/41/33 50/26/18 42/31/23
f 46/41/33 39/40/32 30/27/19 50/26/18
f 6/53/9 11/54/10 28/44/35 37/43/34
f 16/55/8 7/56/7 39/40/32 38/39/31
f 7/56/7 12/57/4 30/27/19 39/40/32
f 17/58/2 8/59/6 41/32/24 40/29/21
f 10/60/12 1/61/14 27/48/39 26/46/37
f 8/59/6 13/62/5 32/33/25 41/32/24
f 11/54/10 2/63/11 29/45/36 28/44/35
f 3/64/17 14/65/16 34/51/41 33/52/42
f 12/57/4 4/66/3 31/28/20 30/27/19
f 1/61/14 15/67/15 36/49/40 27/48/39
f 13/62/5 3/64/17 33/52/42 32/33/25
f 2/63/11 16/55/8 38/39/31 29/45/36
f 14/65/16 5/68/13 35/47/38 34/51/41
f 4/66/3 17/58/2 40/29/21 31/28/20
f 5/68/13 10/60/12 26/46/37 35/47/38
f 15/67/15 6/69/9 37/50/34 36/49/40
f 60/70/43 51/71/44 75/72/44 59/73/43
f 65/74/45 56/75/46 70/76/46 80/77/45
f 67/78/47 58/79/48 68/80/48 82/81/47
f 62/82/49 54/83/50 72/84/50 77/85/49
f 57/86/51 62/82/49 77/85/49 69/87/51
f 64/88/52 55/89/53 71/90/53 79/91/52
f 53/92/54 64/88/52 79/91/52 73/93/54
f 63/94/55 53/92/54 73/93/54 78/95/55
f 61/96/56 52/97/57 74/98/57 76/99/56
f 54/83/50 67/78/47 82/81/47 72/84/50
f 58/79/48 63/94/55 78/95/55 68/80/48
f 52/97/57 66/100/58 81/101/58 74/98/57
f 56/102/46 61/96/56 76/99/56 70/103/46
f 55/89/53 60/70/43 59/73/43 71/90/53
f 66/100/58 57/86/51 69/87/51 81/101/58
f 51/71/44 65/74/45 80/77/45 75/72/44
f 107/104/1 99/105/59 86/106/60 94/107/61
f 106/108/1 95/109/62 90/110/63 100/111/1
f 105/112/1 102/113/1 91/114/1 101/115/1
f 104/116/1 103/117/1 89/118/64 98/119/65
f 101/115/1 91/114/1 103/117/1 104/116/1
f 88/120/66 101/115/1 104/116/1 93/121/67
f 93/121/67 104/116/1 98/119/65 84/122/68
f 92/123/69 87/124/70 102/113/1 105/112/1
f 83/125/71 92/123/69 105/112/1 97/126/72
f 97/126/72 105/112/1 101/115/1 88/120/66
f 96/127/73 85/128/74 95/109/62 106/108/1
f 87/124/70 96/127/73 106/108/1 102/113/1
f 102/113/1 106/108/1 100/111/1 91/114/1
f 100/111/1 90/110/63 99/105/59 107/104/1
f 91/114/1 100/111/1 107/104/1 103/117/1
f 103/117/1 107/104/1 94/107/61 89/118/64
f 99/129/59 90/130/63 115/131/75 123/132/76
f 92/133/69 83/134/71 108/135/77 116/136/78
f 90/137/63 95/138/62 119/139/79 115/140/75
f 93/141/67 84/142/68 109/143/80 117/144/81
f 85/145/74 96/146/73 120/147/82 110/148/83
f 94/149/61 86/150/60 111/151/84 118/152/85
f 83/134/71 97/153/72 121/154/86 108/135/77
f 95/138/62 85/145/74 110/148/83 119/139/79
f 84/142/68 98/155/65 122/156/87 109/143/80
f 96/146/73 87/157/70 112/158/88 120/147/82
f 86/150/60 99/129/59 123/132/76 111/151/84
f 87/157/70 92/133/69 116/136/78 112/158/88
f 97/153/72 88/159/66 113/160/89 121/154/86
f 88/159/66 93/141/67 117/144/81 113/160/89
f 98/155/65 89/161/64 114/162/90 122/156/87
f 89/161/64 94/149/61 118/152/85 114/162/90
f 148/163/1 140/164/59 127/165/91 135/166/61
f 147/167/1 136/168/62 131/169/63 141/170/1
f 146/171/1 143/172/1 132/173/1 142/174/1
f 145/175/1 144/176/1 130/177/64 139/178/65
f 142/174/1 132/173/1 144/176/1 145/175/1
f 129/179/66 142/174/1 145/175/1 134/180/67
f 134/180/67 145/175/1 139/178/65 125/181/92
f 133/182/69 128/183/70 143/172/1 146/171/1
f 124/184/93 133/182/69 146/171/1 138/185/72
f 138/185/72 146/171/1 142/174/1 129/179/66
f 137/186/73 126/187/94 136/168/62 147/167/1
f 128/183/70 137/186/73 147/167/1 143/172/1
f 143/172/1 147/167/1 141/170/1 132/173/1
f 141/170/1 131/169/63 140/164/59 148/163/1
f 132/173/1 141/170/1 148/163/1 144/176/1
f 144/176/1 148/163/1 135/166/61 130/177/64
f 140/188/59 131/189/63 156/190/75 164/191/76
f 133/192/69 124/193/93 149/194/77 157/195/78
f 131/196/63 136/197/62 160/198/79 156/199/75
f 134/200/67 125/201/92 150/202/80 158/203/81
f 126/204/94 137/205/73 161/206/82 151/207/83
f 135/208/61 127/209/91 152/210/84 159/211/85
f 124/193/93 138/212/72 162/213/86 149/194/77
f 136/197/62 126/204/94 151/207/83 160/198/79
f 125/201/92 139/214/65 163/215/87 150/202/80
f 137/205/73 128/216/70 153/217/88 161/206/82
f 127/209/91 140/188/59 164/191/76 152/210/84
f 128/216/70 133/192/69 157/195/78 153/217/88
f 138/212/72 129/218/66 154/219/89 162/213/86
f 129/218/66 134/200/67 158/203/81 154/219/89
f 139/214/65 130/220/64 155/221/90 163/215/87
f 130/220/64 135/208/61 159/211/85 155/221/90
