# Blender 4.5.3 LTS
# www.blender.org
o Moco
v 8.653265 -0.000003 -7.600396
v 10.482659 -0.000003 0.531180
v -10.002099 0.000003 0.373715
v 0.904826 -0.000000 -7.941969
v 9.406754 -0.000003 3.450990
v -4.385223 0.000001 9.706443
v -10.232569 0.000003 -4.079866
v 4.425229 -0.000001 -8.729626
v 10.347616 -0.000003 -3.498184
v 6.843648 -0.000002 6.317213
v -7.235463 0.000002 -7.020200
v -5.434211 0.000002 9.644648
v 6.483121 -0.000002 -8.579229
v 9.816447 -0.000003 -1.092199
v -0.409887 0.000000 -7.346401
v 10.336008 -0.000003 2.304390
v -10.462414 0.000003 -1.628280
v 2.791839 -0.000001 -8.544536
v 10.217515 -0.000003 -5.371270
v 1.849832 -0.000001 7.925763
v -8.603912 0.000003 3.092803
v -3.358143 0.000001 9.481720
v -7.125046 0.000002 6.087331
v 5.922387 -0.000002 7.814260
v 7.518141 -0.000002 4.310181
v -2.779418 0.000001 -5.747256
v -8.867129 0.000003 -6.152702
v -1.735740 0.000001 -6.672194
v 4.293731 -0.000001 8.538109
v -6.731015 0.000002 8.578259
v -0.765508 0.000000 7.650059
v -7.295343 0.000002 4.451582
v -9.572698 0.000003 -5.253376
v -5.580358 0.000002 -7.032244
v -3.940554 0.000001 -6.396321
v -9.348703 0.000003 1.916049
v -2.653558 0.000001 8.875798
v -1.768577 0.000001 8.129728
v 2.843294 -0.000001 8.369027
v 9.627546 0.581876 -8.471482
v 11.654064 0.581875 0.536300
v -11.037999 0.581883 0.361868
v 1.044185 0.581879 -8.849860
v 10.462225 0.581876 3.770730
v -4.815884 0.581881 10.700230
v -11.293303 0.581883 -4.571603
v 4.943924 0.581878 -9.722389
v 11.504470 0.581875 -3.927242
v 7.622936 0.581877 6.945800
v -7.973249 0.581882 -7.828767
v -5.977905 0.581881 10.631776
v 7.223561 0.581877 -9.555789
v 10.916066 0.581876 -1.262004
v -0.412192 0.581879 -8.190118
v 11.491610 0.581875 2.500580
v -11.547915 0.581883 -1.855849
v 3.134531 0.581878 -9.517356
v 11.360350 0.581875 -6.002160
v 2.091020 0.581878 8.727675
v -9.489153 0.581882 3.373947
v -3.678133 0.581880 10.451292
v -7.850934 0.581882 6.691146
v 6.602407 0.581877 8.604158
v 8.370110 0.581876 4.722502
v -3.037048 0.581880 -6.418659
v -9.780733 0.581882 -6.867794
v -1.880911 0.581880 -7.443262
v 4.798257 0.581878 9.406003
v -7.414445 0.581882 9.450480
v -0.806132 0.581879 8.422264
v -8.039580 0.581882 4.879139
v -10.562329 0.581883 -5.871562
v -6.139799 0.581881 -7.842109
v -4.323301 0.581881 -7.137664
v -10.314198 0.581882 2.070393
v -2.897626 0.581880 9.780081
v -1.917286 0.581880 8.953618
v 3.191531 0.581878 9.218703
vn 0.1503 -0.9696 -0.1930
vn 0.2599 -0.9645 -0.0472
vn -0.2641 -0.9602 0.0905
vn -0.1208 -0.9465 -0.2991
vn 0.1811 -0.9408 0.2867
vn 0.0354 -0.9550 0.2945
vn -0.2494 -0.9657 -0.0728
vn -0.0135 -0.9594 -0.2819
vn 0.2595 -0.9653 0.0296
vn 0.2601 -0.9585 0.1166
vn -0.0529 -0.9486 -0.3121
vn -0.0950 -0.9592 0.2662
vn 0.0531 -0.9643 -0.2595
vn 0.2399 -0.9705 -0.0229
vn -0.1424 -0.9457 -0.2924
vn 0.2514 -0.9610 0.1151
vn -0.2707 -0.9623 0.0256
vn -0.0743 -0.9510 -0.3000
vn 0.2345 -0.9693 -0.0745
vn -0.0735 -0.9427 0.3255
vn -0.2393 -0.9510 0.1961
vn 0.2276 -0.9113 0.3432
vn -0.3133 -0.9489 0.0385
vn 0.1951 -0.9553 0.2223
vn 0.2182 -0.9593 0.1792
vn -0.0555 -0.9374 -0.3439
vn -0.1641 -0.9642 -0.2083
vn -0.2115 -0.9328 -0.2919
vn 0.0268 -0.9459 0.3232
vn -0.2939 -0.9472 0.1285
vn 0.0471 -0.9453 0.3227
vn -0.2689 -0.9545 0.1289
vn -0.1993 -0.9708 -0.1335
vn 0.1071 -0.9162 -0.3862
vn 0.1998 -0.8985 -0.3909
vn -0.2557 -0.9567 0.1390
vn 0.2608 -0.9150 0.3078
vn 0.1844 -0.9308 0.3155
vn -0.1188 -0.9288 0.3511
vn 0.2671 -0.9122 -0.3106
vn 0.4443 -0.8938 -0.0607
vn -0.4855 -0.8613 0.1495
vn -0.2020 -0.8102 -0.5503
vn 0.3493 -0.8501 0.3941
vn 0.0230 -0.8584 0.5125
vn -0.4258 -0.8940 -0.1393
vn 0.0022 -0.8632 -0.5048
vn 0.4550 -0.8903 0.0194
vn 0.4609 -0.8588 0.2236
vn -0.1510 -0.8625 -0.4830
vn -0.1760 -0.8874 0.4261
vn 0.1267 -0.8914 -0.4351
vn 0.4635 -0.8855 -0.0330
vn -0.2597 -0.7953 -0.5478
vn 0.4230 -0.8926 0.1558
vn -0.4758 -0.8793 0.0213
vn -0.0996 -0.8381 -0.5364
vn 0.3841 -0.9118 -0.1452
vn -0.1984 -0.7640 0.6140
vn -0.4414 -0.8329 0.3338
vn 0.2183 -0.8033 0.5541
vn -0.5816 -0.8094 0.0809
vn 0.3206 -0.8731 0.3672
vn 0.3746 -0.8346 0.4038
vn 0.0122 -0.7533 -0.6576
vn -0.2992 -0.8906 -0.3424
vn -0.3392 -0.7805 -0.5251
vn 0.1018 -0.8526 0.5125
vn -0.4057 -0.8746 0.2656
vn 0.1275 -0.7889 0.6012
vn -0.5154 -0.8262 0.2273
vn -0.3716 -0.8948 -0.2474
vn 0.0690 -0.7870 -0.6131
vn 0.2950 -0.6717 -0.6795
vn -0.4728 -0.8480 0.2395
vn 0.4813 -0.6723 0.5625
vn 0.4144 -0.7064 0.5737
vn -0.1339 -0.7912 0.5967
vt 0.642392 0.181038
vt 0.675325 0.182978
vt 0.716038 0.216458
vt 0.728408 0.294659
vt 0.733755 0.346014
vt 0.774837 0.388672
vt 0.798220 0.425617
vt 0.818733 0.474038
vt 0.833184 0.536890
vt 0.825968 0.613857
vt 0.805252 0.650699
vt 0.783101 0.678934
vt 0.731875 0.706169
vt 0.679913 0.706546
vt 0.628431 0.686582
vt 0.591978 0.666205
vt 0.559212 0.695244
vt 0.517586 0.716410
vt 0.476311 0.735107
vt 0.417069 0.754025
vt 0.365789 0.759836
vt 0.301182 0.755114
vt 0.233050 0.724384
vt 0.183941 0.654400
vt 0.179856 0.595596
vt 0.196532 0.520060
vt 0.175617 0.469095
vt 0.180221 0.413425
vt 0.209394 0.377427
vt 0.268687 0.350453
vt 0.289863 0.287443
vt 0.318786 0.240443
vt 0.369917 0.217718
vt 0.415453 0.223026
vt 0.446643 0.236942
vt 0.528751 0.245598
vt 0.560243 0.230539
vt 0.588026 0.207116
vt 0.610147 0.188093
vt 0.138840 0.468933
vt 0.143941 0.407265
vt 0.277935 0.785773
vt 0.202463 0.751731
vt 0.737494 0.189074
vt 0.751198 0.275703
vt 0.851255 0.474410
vt 0.867263 0.544035
vt 0.162010 0.525391
vt 0.692394 0.151987
vt 0.471936 0.763611
vt 0.406310 0.784566
vt 0.517659 0.742898
vt 0.148062 0.674208
vt 0.176258 0.367389
vt 0.439071 0.211766
vt 0.530027 0.221355
vt 0.802629 0.379846
vt 0.828531 0.420771
vt 0.859270 0.629295
vt 0.564911 0.204673
vt 0.620193 0.157654
vt 0.655912 0.149838
vt 0.349505 0.791003
vt 0.757120 0.332591
vt 0.241940 0.337508
vt 0.265397 0.267708
vt 0.143537 0.609066
vt 0.640448 0.709856
vt 0.600066 0.687283
vt 0.297436 0.215644
vt 0.755037 0.731554
vt 0.697476 0.731973
vt 0.836321 0.670107
vt 0.811783 0.701384
vt 0.563769 0.719451
vt 0.595689 0.178726
vt 0.354078 0.190470
vt 0.404521 0.196350
s 1
f 6/1/6 12/2/12 30/3/30 23/4/23 32/5/32 21/6/21 36/7/36 3/8/3 17/9/17 7/10/7 33/11/33 27/12/27 11/13/11 34/14/34 35/15/35 26/16/26 28/17/28 15/18/15 4/19/4 18/20/18 8/21/8 13/22/13 1/23/1 19/24/19 9/25/9 14/26/14 2/27/2 16/28/16 5/29/5 25/30/25 10/31/10 24/32/24 29/33/29 39/34/39 20/35/20 31/36/31 38/37/38 37/38/37 22/39/22
f 2/27/2 41/40/41 55/41/55 16/28/16
f 13/22/13 52/42/52 40/43/40 1/23/1
f 30/3/30 69/44/69 62/45/62 23/4/23
f 3/8/3 42/46/42 56/47/56 17/9/17
f 14/26/14 53/48/53 41/40/41 2/27/2
f 12/2/12 51/49/51 69/44/69 30/3/30
f 4/19/4 43/50/43 57/51/57 18/20/18
f 15/18/15 54/52/54 43/50/43 4/19/4
f 1/23/1 40/43/40 58/53/58 19/24/19
f 16/28/16 55/41/55 44/54/44 5/29/5
f 20/35/20 59/55/59 70/56/70 31/36/31
f 21/6/21 60/57/60 75/58/75 36/7/36
f 17/9/17 56/47/56 46/59/46 7/10/7
f 31/36/31 70/56/70 77/60/77 38/37/38
f 22/39/22 61/61/61 45/62/45 6/1/6
f 18/20/18 57/51/57 47/63/47 8/21/8
f 32/5/32 71/64/71 60/57/60 21/6/21
f 25/30/25 64/65/64 49/66/49 10/31/10
f 19/24/19 58/53/58 48/67/48 9/25/9
f 23/4/23 62/45/62 71/64/71 32/5/32
f 35/15/35 74/68/74 65/69/65 26/16/26
f 10/31/10 49/66/49 63/70/63 24/32/24
f 11/13/11 50/71/50 73/72/73 34/14/34
f 33/11/33 72/73/72 66/74/66 27/12/27
f 5/29/5 44/54/44 64/65/64 25/30/25
f 34/14/34 73/72/73 74/68/74 35/15/35
f 28/17/28 67/75/67 54/52/54 15/18/15
f 27/12/27 66/74/66 50/71/50 11/13/11
f 37/38/37 76/76/76 61/61/61 22/39/22
f 26/16/26 65/69/65 67/75/67 28/17/28
f 6/1/6 45/62/45 51/49/51 12/2/12
f 38/37/38 77/60/77 76/76/76 37/38/37
f 7/10/7 46/59/46 72/73/72 33/11/33
f 8/21/8 47/63/47 52/42/52 13/22/13
f 36/7/36 75/58/75 42/46/42 3/8/3
f 24/32/24 63/70/63 68/77/68 29/33/29
f 9/25/9 48/67/48 53/48/53 14/26/14
f 39/34/39 78/78/78 59/55/59 20/35/20
f 29/33/29 68/77/68 78/78/78 39/34/39
