# Blender 4.5.3 LTS
# www.blender.org
o Muro
v 0.000000 0.000000 0.000000
v 55.703133 0.000000 0.000000
v 0.000000 54.595634 0.000002
v 55.703133 54.595634 0.000002
v 0.070672 51.074036 -2.286305
v 0.070672 64.250214 -2.286304
v 7.025783 51.074036 -2.286305
v 13.980898 51.074036 -2.286305
v 20.936012 51.074036 -2.286305
v 27.891125 51.074036 -2.286305
v 34.846237 51.074036 -2.286305
v 41.801353 51.074036 -2.286305
v 48.756466 51.074036 -2.286305
v 55.711578 51.074036 -2.286305
v 48.756466 64.250214 -2.286304
v 41.801346 64.250214 -2.286304
v 34.846237 64.250214 -2.286304
v 27.891123 64.250214 -2.286304
v 20.936010 64.250214 -2.286304
v 13.980895 64.250214 -2.286304
v 7.025783 64.250214 -2.286304
v 0.070672 57.799377 -2.286304
v 7.025783 57.799377 -2.286304
v 13.980895 57.799377 -2.286304
v 20.936012 57.799377 -2.286304
v 27.891123 57.799377 -2.286304
v 34.846237 57.799377 -2.286304
v 41.801353 57.799377 -2.286304
v 48.756466 57.799377 -2.286304
v 55.711578 57.799377 -2.286304
v 0.070672 57.799377 2.204307
v 0.070672 51.074036 2.204306
v 55.711578 51.074036 2.204306
v 7.025783 64.250214 2.204307
v 0.070672 64.250214 2.204307
v 7.025783 51.074036 2.204306
v 13.980898 51.074036 2.204306
v 20.936012 51.074036 2.204306
v 27.891125 51.074036 2.204306
v 34.846237 51.074036 2.204306
v 41.801353 51.074036 2.204306
v 48.756466 51.074036 2.204306
v 48.756466 64.250214 2.204307
v 41.801346 64.250214 2.204307
v 34.846237 64.250214 2.204307
v 27.891123 64.250214 2.204307
v 20.936010 64.250214 2.204307
v 13.980895 64.250214 2.204307
v 7.025783 57.799377 2.204307
v 13.980895 57.799377 2.204307
v 20.936012 57.799377 2.204307
v 27.891123 57.799377 2.204307
v 34.846237 57.799377 2.204307
v 41.801353 57.799377 2.204307
v 48.756466 57.799377 2.204307
v 55.711578 57.799377 2.204307
vn -0.0000 -0.0000 1.0000
vn -0.0000 -0.0000 -1.0000
vn 1.0000 -0.0000 -0.0000
vn -0.0000 -1.0000 -0.0000
vn -1.0000 -0.0000 -0.0000
vn -0.0000 1.0000 -0.0000
vt 0.503075 0.510158
vt 0.998245 0.510158
vt 0.998245 0.941666
vt 0.503075 0.941666
vt 0.770622 0.314954
vt 0.770622 0.440645
vt 0.895930 0.440645
vt 0.895930 0.314954
vt 0.770622 0.440645
vt 0.895930 0.440645
vt 0.770622 0.314954
vt 0.895930 0.314954
vt 0.770622 0.314954
vt 0.895930 0.314954
vt 0.895930 0.440645
vt 0.770622 0.440645
vt 0.770622 0.314954
vt 0.895930 0.314954
s 0
g Muro_Castillo_Fachada
f 1/1/1 2/2/1 4/3/1 3/4/1
f 22/5/2 6/6/2 21/7/2 23/8/2
f 24/5/2 20/6/2 19/7/2 25/8/2
f 26/5/2 18/6/2 17/7/2 27/8/2
f 28/5/2 16/6/2 15/7/2 29/8/2
f 13/5/2 29/9/2 30/10/2 14/8/2
f 12/11/2 28/9/2 29/10/2 13/12/2
f 11/5/2 27/9/2 28/10/2 12/8/2
f 10/11/2 26/9/2 27/10/2 11/12/2
f 9/5/2 25/9/2 26/10/2 10/8/2
f 8/11/2 24/9/2 25/10/2 9/12/2
f 7/5/2 23/9/2 24/10/2 8/8/2
f 5/11/2 22/9/2 23/10/2 7/12/2
f 31/13/1 49/14/1 34/15/1 35/16/1
f 50/13/1 51/14/1 47/15/1 48/16/1
f 52/13/1 53/14/1 45/15/1 46/16/1
f 54/13/1 55/14/1 43/15/1 44/16/1
f 42/17/1 33/18/1 56/15/1 55/16/1
f 41/17/1 42/18/1 55/15/1 54/16/1
f 40/17/1 41/18/1 54/15/1 53/16/1
f 39/17/1 40/18/1 53/15/1 52/16/1
f 38/17/1 39/18/1 52/15/1 51/16/1
f 37/17/1 38/18/1 51/15/1 50/16/1
f 36/17/1 37/18/1 50/15/1 49/16/1
f 32/5/1 36/8/1 49/7/1 31/6/1
f 25/8/3 19/7/3 47/6/3 51/5/3
f 7/16/4 8/15/4 37/18/4 36/17/4
f 18/15/5 26/14/5 52/13/5 46/16/5
f 8/16/4 9/15/4 38/18/4 37/17/4
f 27/8/3 17/7/3 45/6/3 53/5/3
f 9/16/4 10/15/4 39/18/4 38/17/4
f 30/10/6 29/9/6 55/5/6 56/8/6
f 16/15/5 28/14/5 54/13/5 44/16/5
f 10/16/4 11/15/4 40/18/4 39/17/4
f 29/8/3 15/7/3 43/6/3 55/5/3
f 11/16/4 12/15/4 41/18/4 40/17/4
f 28/10/6 27/9/6 53/5/6 54/8/6
f 12/16/4 13/15/4 42/18/4 41/17/4
f 6/15/5 22/14/5 31/13/5 35/16/5
f 13/16/4 14/15/4 33/18/4 42/17/4
f 26/10/6 25/9/6 51/5/6 52/8/6
f 15/7/6 16/6/6 44/5/6 43/8/6
f 24/10/6 23/9/6 49/5/6 50/8/6
f 22/7/5 5/8/5 32/5/5 31/6/5
f 17/7/6 18/6/6 46/5/6 45/8/6
f 19/7/6 20/6/6 48/5/6 47/8/6
f 23/8/3 21/7/3 34/6/3 49/5/3
f 21/7/6 6/6/6 35/5/6 34/8/6
f 20/15/5 24/14/5 50/13/5 48/16/5
f 5/6/4 7/7/4 36/8/4 32/5/4
