# Blender 4.5.3 LTS
# www.blender.org
o Tela_3_LOD00
v 4.807588 3.202365 5.093645
v 0.133352 3.204555 6.988216
v 7.171151 3.298230 -0.000000
v 0.133352 8.184466 -0.000001
v 2.163126 3.204912 6.655159
v 6.525043 3.223834 2.756656
v 0.133352 5.949739 3.012227
v 2.838108 5.894677 -0.000000
v 2.628343 4.786806 3.037270
v 3.600177 3.205462 5.989488
v 6.966737 3.294125 1.405336
v 0.133352 7.135368 1.535637
v 1.622047 6.907625 -0.000001
v 1.146164 3.205600 6.838003
v 5.717148 3.195108 4.002048
v 0.133352 4.735905 5.200461
v 4.930824 4.641697 -0.000000
v 2.817656 5.294989 1.561817
v 2.531048 4.240036 4.923933
v 1.551518 5.368973 3.061809
v 4.270064 4.057679 2.955773
v 4.012724 3.763613 4.443578
v 1.431507 4.497780 5.039380
v 1.617044 6.094728 1.555375
v 4.571259 4.173749 1.477882
v -4.540892 3.202365 5.093645
v -6.904455 3.297974 -0.000000
v -1.896431 3.204912 6.655159
v -6.258347 3.223660 2.756656
v -2.571412 6.026883 -0.000000
v -2.361648 4.656248 3.037271
v -3.333481 3.205462 5.989488
v -6.700042 3.293878 1.405336
v -1.355351 6.961001 -0.000001
v -0.879468 3.205600 6.838003
v -5.450452 3.195052 4.002048
v -4.664119 4.658906 -0.000000
v -2.550960 5.429890 1.561817
v -2.264353 4.144949 4.923933
v -1.284813 5.275884 3.061809
v -4.003368 3.992730 2.955773
v -3.746028 3.691260 4.443578
v -1.164811 4.452312 5.039380
v -1.350348 6.194121 1.555375
v -4.304564 4.233063 1.477882
v 4.807588 3.202364 -5.093646
v 0.133352 3.204554 -6.988217
v 2.163126 3.204911 -6.655160
v 6.525043 3.223834 -2.756656
v 0.133352 5.953101 -3.012228
v 2.628343 4.654030 -3.037271
v 3.600177 3.205461 -5.989489
v 6.966737 3.294125 -1.405337
v 0.133352 7.137494 -1.535638
v 1.146164 3.205599 -6.838004
v 5.717148 3.195107 -4.002049
v 0.133352 4.629363 -5.172716
v 2.817656 5.427663 -1.561817
v 2.531048 4.144948 -4.923934
v 1.551518 5.274894 -3.061810
v 4.270064 3.990640 -2.955773
v 4.012724 3.691259 -4.443579
v 1.431507 4.449663 -5.038676
v 1.617044 6.194836 -1.555376
v 4.571259 4.228958 -1.477882
v -4.540892 3.202364 -5.093646
v -1.896431 3.204911 -6.655160
v -6.258347 3.223660 -2.756656
v -2.361648 4.656312 -3.037271
v -3.333481 3.205461 -5.989489
v -6.700042 3.293878 -1.405337
v -0.879468 3.205599 -6.838004
v -5.450452 3.195052 -4.002049
v -2.550960 5.429909 -1.561817
v -2.264353 4.144948 -4.923934
v -1.284813 5.275975 -3.061810
v -4.003368 3.992729 -2.955773
v -3.746028 3.691259 -4.443579
v -1.164811 4.449663 -5.038676
v -1.350348 6.194103 -1.555376
v -4.304564 4.233063 -1.477882
vn 0.4379 0.8644 0.2472
vn 0.3940 0.8979 0.1964
vn 0.4396 0.8982 0.0077
vn 0.4849 0.8744 0.0155
vn 0.5046 0.7582 0.4128
vn 0.5046 0.7983 0.3287
vn 0.5686 0.8222 0.0264
vn 0.6007 0.7993 0.0181
vn 0.2440 0.8336 0.4956
vn 0.3153 0.8511 0.4199
vn 0.4272 0.8496 0.3092
vn 0.3860 0.8249 0.4130
vn 0.3543 0.8766 0.3257
vn 0.3533 0.8959 0.2693
vn 0.3529 0.9175 0.1835
vn 0.3974 0.8873 0.2341
vn 0.2266 0.8133 0.5359
vn 0.3236 0.8344 0.4461
vn 0.3325 0.8759 0.3496
vn -0.0142 0.8379 0.5457
vn -0.0077 0.8573 0.5148
vn -0.0073 0.7814 0.6239
vn 0.1687 0.7845 0.5967
vn 0.0117 0.8441 0.5360
vn 0.0119 0.9999 0.0061
vn -0.4476 0.8508 0.2752
vn -0.5003 0.8658 -0.0000
vn -0.4472 0.8944 -0.0000
vn -0.4007 0.8927 0.2062
vn -0.4840 0.7536 0.4449
vn -0.5811 0.8138 0.0002
vn -0.5681 0.8230 -0.0000
vn -0.4989 0.7812 0.3753
vn -0.2708 0.8344 0.4801
vn -0.3953 0.8065 0.4396
vn -0.4222 0.8352 0.3524
vn -0.3176 0.8610 0.3972
vn -0.3279 0.8946 0.3037
vn -0.3822 0.8844 0.2680
vn -0.3425 0.9163 0.2077
vn -0.3237 0.9111 0.2552
vn -0.2321 0.8285 0.5096
vn -0.3032 0.8596 0.4112
vn -0.2984 0.9016 0.3132
vn -0.1844 0.7904 0.5842
vn 0.4430 0.8566 -0.2644
vn 0.3985 0.8943 -0.2034
vn 0.4955 0.7545 -0.4304
vn 0.5033 0.7870 -0.3567
vn 0.2516 0.8391 -0.4823
vn 0.3872 0.8068 -0.4463
vn 0.4224 0.8352 -0.3521
vn 0.3172 0.8614 -0.3968
vn 0.3278 0.8948 -0.3031
vn 0.3819 0.8847 -0.2672
vn 0.3416 0.9169 -0.2065
vn 0.3232 0.9114 -0.2547
vn 0.2313 0.8289 -0.5093
vn 0.3032 0.8596 -0.4112
vn 0.2984 0.9016 -0.3132
vn 0.0001 0.8417 -0.5399
vn 0.0001 0.8462 -0.5329
vn -0.0000 0.7993 -0.6009
vn 0.1589 0.8032 -0.5741
vn 0.0040 0.8425 -0.5387
vn -0.4476 0.8508 -0.2752
vn -0.4006 0.8928 -0.2062
vn -0.4844 0.7534 -0.4446
vn -0.4989 0.7812 -0.3753
vn -0.2514 0.8390 -0.4825
vn -0.3170 0.8613 -0.3972
vn -0.4219 0.8353 -0.3526
vn -0.3867 0.8070 -0.4464
vn -0.3279 0.8946 -0.3036
vn -0.3235 0.9110 -0.2556
vn -0.3427 0.9163 -0.2072
vn -0.3822 0.8844 -0.2680
vn -0.2313 0.8289 -0.5093
vn -0.3032 0.8596 -0.4112
vn -0.2984 0.9016 -0.3132
vn -0.1588 0.8032 -0.5742
vt 0.464123 0.193421
vt 0.512142 0.194876
vt 0.516240 0.223046
vt 0.471331 0.223046
vt 0.404904 0.191868
vt 0.428972 0.191739
vt 0.429382 0.223046
vt 0.405005 0.223046
vt 0.401185 0.122029
vt 0.423226 0.124343
vt 0.425176 0.162162
vt 0.403591 0.161670
vt 0.452927 0.133972
vt 0.487094 0.142823
vt 0.503289 0.167788
vt 0.458086 0.163796
vt 0.415851 0.089639
vt 0.444657 0.102983
vt 0.468861 0.120941
vt 0.375163 0.118799
vt 0.375163 0.162664
vt 0.375163 0.082963
vt 0.395465 0.085974
vt 0.375163 0.192263
vt 0.375163 0.223046
vt 0.286201 0.193421
vt 0.278994 0.223046
vt 0.234085 0.223046
vt 0.238183 0.194876
vt 0.345421 0.191868
vt 0.345321 0.223046
vt 0.320944 0.223046
vt 0.321354 0.191739
vt 0.349140 0.122029
vt 0.346735 0.161670
vt 0.325149 0.162162
vt 0.327099 0.124343
vt 0.297398 0.133972
vt 0.292239 0.163796
vt 0.247037 0.167788
vt 0.263232 0.142823
vt 0.334474 0.089639
vt 0.305668 0.102983
vt 0.281464 0.120941
vt 0.354860 0.085974
vt 0.464123 0.252671
vt 0.512142 0.251217
vt 0.404904 0.254225
vt 0.428972 0.254354
vt 0.401185 0.324050
vt 0.403591 0.284422
vt 0.425176 0.283931
vt 0.423226 0.321750
vt 0.452927 0.312121
vt 0.458086 0.282297
vt 0.503289 0.278306
vt 0.487094 0.303270
vt 0.415851 0.356454
vt 0.444657 0.343110
vt 0.468861 0.325152
vt 0.375163 0.326737
vt 0.375163 0.283429
vt 0.375163 0.363130
vt 0.395465 0.360119
vt 0.375163 0.253829
vt 0.286201 0.252671
vt 0.238183 0.251217
vt 0.345421 0.254225
vt 0.321354 0.254354
vt 0.349140 0.324050
vt 0.327099 0.321750
vt 0.325149 0.283931
vt 0.346735 0.284422
vt 0.297398 0.312121
vt 0.263232 0.303270
vt 0.247037 0.278306
vt 0.292239 0.282297
vt 0.334474 0.356454
vt 0.305668 0.343110
vt 0.281464 0.325152
vt 0.354860 0.360119
s 1
g Tela_3_LOD00_Tela.001
f 25/1/1 11/2/2 3/3/3 17/4/4
f 24/5/5 18/6/6 8/7/7 13/8/8
f 23/9/9 19/10/10 9/11/11 20/12/12
f 22/13/13 15/14/14 6/15/15 21/16/16
f 19/10/10 22/13/13 21/16/16 9/11/11
f 5/17/17 10/18/18 22/13/13 19/10/10
f 10/18/18 1/19/19 15/14/14 22/13/13
f 16/20/20 23/9/9 20/12/12 7/21/21
f 2/22/22 14/23/23 23/9/9 16/20/20
f 14/23/23 5/17/17 19/10/10 23/9/9
f 12/24/24 24/5/5 13/8/8 4/25/25
f 7/21/21 20/12/12 24/5/5 12/24/24
f 20/12/12 9/11/11 18/6/6 24/5/5
f 18/6/6 25/1/1 17/4/4 8/7/7
f 9/11/11 21/16/16 25/1/1 18/6/6
f 21/16/16 6/15/15 11/2/2 25/1/1
f 45/26/26 37/27/27 27/28/28 33/29/29
f 44/30/30 34/31/31 30/32/32 38/33/33
f 43/34/34 40/35/35 31/36/36 39/37/37
f 42/38/38 41/39/39 29/40/40 36/41/41
f 39/37/37 31/36/36 41/39/39 42/38/38
f 28/42/42 39/37/37 42/38/38 32/43/43
f 32/43/43 42/38/38 36/41/41 26/44/44
f 16/20/20 7/21/21 40/35/35 43/34/34
f 2/22/22 16/20/20 43/34/34 35/45/45
f 35/45/45 43/34/34 39/37/37 28/42/42
f 12/24/24 4/25/25 34/31/31 44/30/30
f 7/21/21 12/24/24 44/30/30 40/35/35
f 40/35/35 44/30/30 38/33/33 31/36/36
f 38/33/33 30/32/32 37/27/27 45/26/26
f 31/36/36 38/33/33 45/26/26 41/39/39
f 41/39/39 45/26/26 33/29/29 29/40/40
f 65/46/46 17/4/4 3/3/3 53/47/47
f 64/48/48 13/8/8 8/7/7 58/49/49
f 63/50/50 60/51/51 51/52/52 59/53/53
f 62/54/54 61/55/55 49/56/56 56/57/57
f 59/53/53 51/52/52 61/55/55 62/54/54
f 48/58/58 59/53/53 62/54/54 52/59/59
f 52/59/59 62/54/54 56/57/57 46/60/60
f 57/61/61 50/62/62 60/51/51 63/50/50
f 47/63/63 57/61/61 63/50/50 55/64/64
f 55/64/64 63/50/50 59/53/53 48/58/58
f 54/65/65 4/25/25 13/8/8 64/48/48
f 50/62/62 54/65/65 64/48/48 60/51/51
f 60/51/51 64/48/48 58/49/49 51/52/52
f 58/49/49 8/7/7 17/4/4 65/46/46
f 51/52/52 58/49/49 65/46/46 61/55/55
f 61/55/55 65/46/46 53/47/47 49/56/56
f 81/66/66 71/67/67 27/28/28 37/27/27
f 80/68/68 74/69/69 30/32/32 34/31/31
f 79/70/70 75/71/71 69/72/72 76/73/73
f 78/74/74 73/75/75 68/76/76 77/77/77
f 75/71/71 78/74/74 77/77/77 69/72/72
f 67/78/78 70/79/79 78/74/74 75/71/71
f 70/79/79 66/80/80 73/75/75 78/74/74
f 57/61/61 79/70/70 76/73/73 50/62/62
f 47/63/63 72/81/81 79/70/70 57/61/61
f 72/81/81 67/78/78 75/71/71 79/70/70
f 54/65/65 80/68/68 34/31/31 4/25/25
f 50/62/62 76/73/73 80/68/68 54/65/65
f 76/73/73 69/72/72 74/69/69 80/68/68
f 74/69/69 81/66/66 37/27/27 30/32/32
f 69/72/72 77/77/77 81/66/66 74/69/69
f 77/77/77 68/76/76 71/67/67 81/66/66
o Tela_3_LOD01
v 4.807588 3.202365 5.093645
v 0.170155 3.278210 7.052595
v 7.171151 3.298230 -0.000000
v 0.133352 8.184466 -0.000001
v 2.163126 3.204912 6.655159
v 6.525043 3.223834 2.756656
v 0.133352 5.949739 3.012227
v 2.847307 5.933593 0.037513
v 2.628343 4.786806 3.037270
v 3.600177 3.205462 5.989488
v 6.966737 3.294125 1.405336
v 0.058963 7.482456 0.973911
v 5.709190 3.185739 4.004734
v 0.133352 4.735905 5.200461
v 4.930824 4.641697 -0.000000
v 1.870785 5.742701 1.936477
v 1.826519 4.450942 4.912267
v 4.183453 4.291881 2.047897
v -4.535394 3.181066 5.084693
v -6.904455 3.297974 -0.000000
v -1.896431 3.204912 6.655159
v -6.258347 3.223660 2.756656
v -2.254739 6.285999 -0.032380
v -4.050308 4.256221 1.971584
v -3.333481 3.205462 5.989488
v -6.700042 3.293878 1.405336
v -0.879468 3.205600 6.838003
v -5.450452 3.195052 4.002048
v -4.664119 4.658906 -0.000000
v -1.139209 4.634879 4.734164
v -1.284813 5.275884 3.061809
v 4.802217 3.181346 -5.084758
v 0.172969 3.267078 -7.040177
v 2.163126 3.204911 -6.655160
v 6.525043 3.223834 -2.756656
v 0.133352 5.953101 -3.012228
v 4.418456 4.204989 -1.984844
v 3.600177 3.205461 -5.989489
v 6.966737 3.294125 -1.405337
v 0.227511 7.510268 -0.922747
v 5.717148 3.195107 -4.002049
v 0.133352 4.629363 -5.172716
v 1.986171 5.849432 -1.729777
v 1.380048 4.664391 -4.683725
v -1.864037 3.182447 -6.654350
v -6.258347 3.223660 -2.756656
v -1.278562 4.915528 -3.744980
v -3.333481 3.205461 -5.989489
v -6.700042 3.293878 -1.405337
v -5.450452 3.195052 -4.002049
v -4.069673 4.231333 -2.021920
v -1.553893 4.380919 -4.961832
v -4.535390 3.181057 -5.084692
vn -0.0227 0.9992 -0.0341
vn 0.3384 0.8984 0.2799
vn 0.3157 0.8517 0.4184
vn -0.0191 0.8345 0.5506
vn 0.3025 0.8381 0.4539
vn 0.0117 0.8583 0.5131
vn 0.2282 0.8336 0.5031
vn -0.0239 0.8044 0.5936
vn 0.4313 0.8598 0.2734
vn 0.4652 0.7890 0.4012
vn 0.4457 0.8356 0.3213
vn -0.0174 0.8573 0.5145
vn -0.5646 0.8251 -0.0198
vn -0.4321 0.8552 0.2864
vn -0.3280 0.8909 0.3141
vn -0.3025 0.8452 0.4407
vn -0.1959 0.8332 0.5172
vn -0.1760 0.7955 0.5798
vn -0.4018 0.8016 0.4428
vn 0.0493 0.8368 -0.5452
vn 0.5588 0.8287 0.0303
vn 0.4748 0.7857 -0.3966
vn 0.4248 0.8645 -0.2688
vn 0.3276 0.8915 -0.3129
vn 0.2886 0.8439 -0.4522
vn 0.2099 0.8345 -0.5094
vn -0.0035 0.8203 -0.5719
vn 0.0209 0.8433 -0.5370
vn 0.0041 0.9992 -0.0391
vn -0.3547 0.8415 -0.4075
vn -0.4260 0.8569 -0.2904
vn -0.5016 0.8651 0.0012
vn 0.3541 0.9126 0.2044
vn 0.4829 0.8757 0.0026
vn -0.4145 0.8887 0.1960
vn -0.4493 0.8934 -0.0003
vn 0.4115 0.8902 0.1953
vn -0.3219 0.9120 0.2543
vn -0.3466 0.9144 0.2091
vn -0.2829 0.8394 0.4641
vn 0.4124 0.8904 -0.1925
vn 0.4458 0.8952 0.0017
vn 0.3186 0.9138 -0.2521
vn 0.3436 0.9159 -0.2075
vn 0.2819 0.8406 -0.4626
vn 0.0052 0.8452 -0.5344
vn -0.4137 0.8889 -0.1964
vn -0.3310 0.8885 -0.3178
vn -0.3206 0.9125 -0.2540
vn -0.3452 0.9153 -0.2073
vn -0.2753 0.8577 -0.4341
vn -0.2167 0.8223 -0.5262
vn -0.2786 0.8347 -0.4750
vt 0.468861 0.120941
vt 0.487000 0.142799
vt 0.444657 0.102983
vt 0.375163 0.118799
vt 0.416337 0.127795
vt 0.375163 0.162664
vt 0.415851 0.089639
vt 0.375699 0.083042
vt 0.461629 0.181181
vt 0.411712 0.191831
vt 0.425176 0.162162
vt 0.377353 0.192293
vt 0.327445 0.223046
vt 0.298690 0.173499
vt 0.281461 0.120939
vt 0.349961 0.121943
vt 0.334474 0.089639
vt 0.354860 0.085974
vt 0.346735 0.161670
vt 0.372452 0.253793
vt 0.429107 0.223046
vt 0.420851 0.263975
vt 0.462031 0.265049
vt 0.468864 0.325154
vt 0.399823 0.324192
vt 0.415851 0.356454
vt 0.375790 0.363037
vt 0.375163 0.283429
vt 0.375163 0.223046
vt 0.343941 0.284359
vt 0.297059 0.272805
vt 0.278994 0.223046
vt 0.503289 0.167788
vt 0.471331 0.223046
vt 0.238183 0.194876
vt 0.234085 0.223046
vt 0.512142 0.194876
vt 0.263232 0.142823
vt 0.247037 0.167788
vt 0.305668 0.102983
vt 0.512142 0.251217
vt 0.516240 0.223046
vt 0.487094 0.303270
vt 0.503289 0.278306
vt 0.444657 0.343110
vt 0.375163 0.326737
vt 0.238183 0.251217
vt 0.281461 0.325154
vt 0.263232 0.303270
vt 0.247037 0.278306
vt 0.341470 0.323250
vt 0.335100 0.356566
vt 0.305668 0.343110
s 1
g Tela_3_LOD01_Tela.001
f 82/82/82 94/83/83 91/84/84
f 95/85/85 98/86/86 88/87/87
f 86/88/88 98/86/86 83/89/89
f 99/90/90 97/91/91 90/92/92
f 93/93/93 104/94/94 105/95/95
f 105/95/95 100/96/96 111/97/97
f 111/97/97 102/98/98 108/99/99
f 88/87/87 93/93/93 112/100/100
f 121/101/101 89/102/102 124/103/103
f 118/104/104 113/105/105 125/106/106
f 125/106/106 115/107/107 114/108/108
f 117/109/109 121/101/101 124/103/103
f 121/101/101 104/94/94 85/110/110
f 128/111/111 132/112/112 121/101/101
f 132/112/112 110/113/113 104/94/94
f 90/92/92 98/86/86 94/83/83 99/90/90
f 94/83/83 87/114/114 99/90/90
f 98/86/86 86/88/88 91/84/84 94/83/83
f 89/102/102 85/110/110 93/93/93 97/91/91
f 83/89/89 98/86/86 95/85/85
f 97/91/91 93/93/93 88/87/87 98/86/86
f 96/115/115 89/102/102 97/91/91 99/90/90
f 98/86/86 90/92/92 97/91/91
f 107/116/116 105/95/95 110/113/113 101/117/117
f 87/114/114 92/118/118 99/90/90
f 109/119/119 100/96/96 105/95/95 103/120/120
f 111/97/97 112/100/100 105/95/95
f 106/121/121 102/98/98 111/97/97 100/96/96
f 112/100/100 111/97/97 95/85/85 88/87/87
f 108/99/99 83/89/89 95/85/85 111/97/97
f 120/122/122 118/104/104 96/115/115 84/123/123
f 93/93/93 85/110/110 104/94/94
f 112/100/100 93/93/93 105/95/95
f 105/95/95 104/94/94 110/113/113
f 105/95/95 107/116/116 103/120/120
f 122/124/124 113/105/105 118/104/104 116/125/125
f 125/106/106 124/103/103 118/104/104
f 119/126/126 115/107/107 125/106/106 113/105/105
f 124/103/103 125/106/106 123/127/127 117/109/109
f 96/115/115 118/104/104 124/103/103 89/102/102
f 123/127/127 125/106/106 114/108/108
f 121/101/101 85/110/110 89/102/102
f 110/113/113 132/112/112 130/128/128 101/117/117
f 118/104/104 120/122/122 116/125/125
f 132/112/112 134/129/129 131/130/130 127/131/131
f 121/101/101 132/112/112 104/94/94
f 128/111/111 133/132/132 134/129/129 132/112/112
f 133/132/132 126/133/133 129/134/134 134/129/129
f 128/111/111 117/109/109 123/127/127 133/132/132
f 123/127/127 114/108/108 126/133/133 133/132/132
f 96/115/115 99/90/90 92/118/118 84/123/123
f 117/109/109 128/111/111 121/101/101
f 127/131/131 130/128/128 132/112/112
o Tela_3_LOD02
v 4.807588 3.202365 5.093645
v 0.170155 3.278210 7.052595
v 7.172052 3.300020 -0.007155
v 0.178681 8.093862 0.043935
v 2.163126 3.204912 6.655159
v 6.525043 3.223834 2.756656
v 0.093970 5.368683 4.157300
v 2.847307 5.933593 0.037513
v 3.150115 4.686927 2.566297
v 3.600177 3.205462 5.989488
v 6.966737 3.294125 1.405336
v 5.709190 3.185739 4.004734
v 1.826519 4.450942 4.912267
v -4.535394 3.181066 5.084693
v -6.904455 3.297974 -0.000000
v -1.872738 3.160478 6.635735
v -6.258347 3.223660 2.756656
v -4.136834 4.957290 -0.120011
v -4.050308 4.256221 1.971584
v -3.333481 3.205462 5.989488
v -6.700042 3.293878 1.405336
v -5.450452 3.195052 4.002048
v 4.802217 3.181346 -5.084758
v 0.172969 3.267078 -7.040177
v 2.163126 3.204911 -6.655160
v 6.525043 3.223834 -2.756656
v 0.079456 4.955581 -4.605086
v 4.418456 4.204989 -1.984844
v 3.583101 3.184440 -5.985881
v 6.966737 3.294125 -1.405337
v 5.717148 3.195107 -4.002049
v 1.986171 5.849432 -1.729777
v -1.864037 3.182447 -6.654350
v -6.258347 3.223660 -2.756656
v -0.885052 4.805099 -4.452331
v -3.333481 3.205461 -5.989489
v -6.700042 3.293878 -1.405337
v -5.450452 3.195052 -4.002049
v -4.069673 4.231333 -2.021920
v -4.535390 3.181057 -5.084692
vn 0.3676 0.9250 0.0963
vn 0.4220 0.9066 0.0012
vn 0.4309 0.8392 0.3318
vn 0.3455 0.8906 0.2956
vn 0.2941 0.8310 0.4721
vn -0.0227 0.9992 -0.0341
vn 0.3157 0.8517 0.4184
vn 0.2282 0.8336 0.5031
vn -0.0024 0.8145 0.5801
vn 0.5792 0.8152 -0.0012
vn 0.0193 0.9998 -0.0066
vn -0.5277 0.8492 -0.0194
vn -0.4321 0.8584 0.2766
vn -0.3280 0.8872 0.3245
vn -0.0103 0.8621 0.5066
vn -0.2292 0.8221 0.5211
vn 0.3551 0.9299 -0.0958
vn 0.4383 0.8561 -0.2738
vn 0.4690 0.7906 -0.3936
vn 0.2438 0.9304 -0.2737
vn 0.2739 0.8785 -0.3914
vn 0.0373 0.8426 -0.5373
vn 0.0414 0.9972 -0.0618
vn 0.0124 0.8376 -0.5461
vn -0.2809 0.8306 -0.4808
vn -0.4287 0.8559 -0.2893
vn 0.3789 0.9015 0.2093
vn -0.4148 0.8884 0.1966
vn -0.4545 0.8907 -0.0020
vn -0.3219 0.9120 0.2543
vn -0.3466 0.9144 0.2091
vn -0.2719 0.8345 0.4793
vn 0.3186 0.9138 -0.2521
vn 0.3436 0.9159 -0.2075
vn -0.4193 0.8841 -0.2064
vn -0.3206 0.8929 -0.3161
vn -0.3206 0.9125 -0.2540
vn -0.3452 0.9153 -0.2073
vn -0.2189 0.8360 -0.5032
vn -0.2683 0.8478 -0.4574
vt 0.512142 0.194876
vt 0.516238 0.223046
vt 0.433834 0.175617
vt 0.487000 0.142799
vt 0.416337 0.127795
vt 0.468861 0.120941
vt 0.444657 0.102983
vt 0.415851 0.089639
vt 0.375699 0.083042
vt 0.429107 0.223046
vt 0.375308 0.221019
vt 0.289080 0.223046
vt 0.298690 0.173499
vt 0.281461 0.120939
vt 0.370128 0.131265
vt 0.334866 0.089569
vt 0.512142 0.251217
vt 0.462031 0.265049
vt 0.420851 0.263975
vt 0.468864 0.325154
vt 0.444596 0.343084
vt 0.375163 0.315551
vt 0.415851 0.356454
vt 0.375790 0.363037
vt 0.342853 0.301488
vt 0.297059 0.272805
vt 0.503289 0.167788
vt 0.238183 0.194876
vt 0.234085 0.223046
vt 0.263232 0.142823
vt 0.247037 0.167788
vt 0.305668 0.102983
vt 0.487094 0.303270
vt 0.503289 0.278306
vt 0.238183 0.251217
vt 0.281461 0.325154
vt 0.263232 0.303270
vt 0.247037 0.278306
vt 0.335100 0.356566
vt 0.305668 0.343110
s 1
g Tela_3_LOD02_Tela.001
f 145/135/135 137/136/136 143/137/137
f 146/138/138 143/137/137 147/139/139
f 135/140/140 146/138/138 144/141/141
f 139/142/142 147/139/139 136/143/143
f 143/137/137 137/136/136 142/144/144
f 138/145/145 152/146/146 153/147/147
f 153/147/147 148/148/148 141/149/149
f 141/149/149 150/150/150 136/143/143
f 137/136/136 164/151/151 162/152/152
f 138/145/145 142/144/144 166/153/153
f 162/152/152 157/154/154 163/155/155
f 161/156/156 166/153/153 163/155/155
f 163/155/155 159/157/157 158/158/158
f 161/156/156 138/145/145 166/153/153
f 169/159/159 173/160/160 138/145/145
f 146/138/138 140/161/161 143/137/137
f 143/137/137 138/145/145 141/149/149 147/139/139
f 136/143/143 147/139/139 141/149/149
f 138/145/145 143/137/137 142/144/144
f 155/162/162 153/147/147 152/146/146 149/163/163
f 140/161/161 145/135/135 143/137/137
f 156/164/164 148/148/148 153/147/147 151/165/165
f 154/166/166 150/150/150 141/149/149 148/148/148
f 165/167/167 157/154/154 162/152/152 160/168/168
f 141/149/149 138/145/145 153/147/147
f 153/147/147 155/162/162 151/165/165
f 163/155/155 166/153/153 162/152/152
f 137/136/136 162/152/152 166/153/153 142/144/144
f 161/156/156 163/155/155 158/158/158
f 147/139/139 139/142/142 144/141/141 146/138/138
f 152/146/146 173/160/160 171/169/169 149/163/163
f 162/152/152 164/151/151 160/168/168
f 173/160/160 174/170/170 172/171/171 168/172/172
f 138/145/145 173/160/160 152/146/146
f 169/159/159 167/173/173 170/174/174 174/170/170
f 174/170/170 173/160/160 169/159/159
f 161/156/156 158/158/158 167/173/173 169/159/159
f 161/156/156 169/159/159 138/145/145
f 168/172/172 171/169/169 173/160/160
