# Blender 4.5.3 LTS
# www.blender.org
o Vidriera_2
v -8.664206 -0.518732 -0.000001
v -4.057998 8.869717 0.000002
v 0.000000 -0.306138 -0.000001
v 0.000000 4.653265 0.000001
v -14.179166 5.414229 -0.000001
v -10.944370 12.007441 0.000001
v -15.597999 9.426919 -0.000002
v -15.230158 12.211199 -0.000002
v -7.277350 10.894799 0.000002
v -11.645518 1.991528 -0.000001
v -10.754715 -2.219486 -0.000001
v 0.000000 -3.672212 -0.000001
v -12.313740 -5.939884 -0.000001
v -4.429046 -7.924096 -0.000002
v -12.136579 -10.120903 -0.000002
v -7.759689 -9.837444 -0.000002
v 8.664206 -0.518732 -0.000001
v 4.057998 8.869717 0.000002
v 14.179166 5.414229 -0.000001
v 10.944370 12.007441 0.000001
v 15.597999 9.426919 -0.000002
v 15.230158 12.211199 -0.000002
v 7.277350 10.894799 0.000002
v 11.645518 1.991528 -0.000001
v 10.754715 -2.219486 -0.000001
v 12.313740 -5.939884 -0.000001
v 4.429046 -7.924096 -0.000002
v 12.136579 -10.120903 -0.000002
v 7.759689 -9.837444 -0.000002
v 0.000000 3.158017 0.000001
v -4.717264 8.059478 0.000001
v -7.711604 9.943020 0.000001
v -11.122216 10.977862 0.000001
v -10.884569 2.706272 -0.000001
v -7.038094 -0.532454 -0.000001
v -14.327097 11.130230 -0.000001
v -14.537466 9.537889 -0.000002
v -13.253386 5.906304 -0.000001
v -9.898832 -2.859834 -0.000001
v -11.268010 -6.127190 -0.000001
v -5.055565 -7.088237 -0.000002
v 0.000000 -2.234895 -0.000001
v -11.145532 -9.017685 -0.000002
v -8.067200 -8.818324 -0.000002
v 4.717264 8.059478 0.000001
v 7.711604 9.943020 0.000001
v 11.122216 10.977862 0.000001
v 10.884569 2.706272 -0.000001
v 7.038094 -0.532454 -0.000001
v 14.327097 11.130230 -0.000001
v 14.537466 9.537889 -0.000002
v 13.253386 5.906304 -0.000001
v 9.898832 -2.859834 -0.000001
v 11.268010 -6.127190 -0.000001
v 5.055565 -7.088237 -0.000002
v 11.145532 -9.017685 -0.000002
v 8.067200 -8.818324 -0.000002
v -0.000000 3.158017 1.611007
v -4.717264 8.059478 1.611008
v -7.711604 9.943020 1.611008
v -11.122216 10.977862 1.611007
v -10.884569 2.706272 1.611006
v -7.038094 -0.532454 1.611006
v -14.327097 11.130230 1.611005
v -14.537466 9.537889 1.611005
v -13.253386 5.906304 1.611006
v -9.898832 -2.859834 1.611006
v -11.268010 -6.127190 1.611005
v -5.055565 -7.088237 1.611005
v -0.000000 -2.234895 1.611006
v -11.145532 -9.017685 1.611005
v -8.067200 -8.818324 1.611005
v 4.717264 8.059478 1.611008
v 7.711604 9.943020 1.611008
v 11.122216 10.977862 1.611007
v 10.884569 2.706272 1.611006
v 7.038094 -0.532454 1.611006
v 14.327097 11.130230 1.611005
v 14.537466 9.537889 1.611005
v 13.253386 5.906304 1.611006
v 9.898832 -2.859834 1.611006
v 11.268010 -6.127190 1.611005
v 5.055565 -7.088237 1.611005
v 11.145532 -9.017685 1.611005
v 8.067200 -8.818324 1.611005
v -0.000000 4.653265 1.611008
v -4.057998 8.869717 1.611008
v -7.277350 10.894799 1.611008
v -10.944370 12.007441 1.611007
v -11.645518 1.991528 1.611006
v -8.664206 -0.518732 1.611005
v -15.230158 12.211199 1.611005
v -15.597999 9.426919 1.611004
v -14.179166 5.414229 1.611005
v -10.754715 -2.219486 1.611006
v -12.313740 -5.939884 1.611005
v -4.429046 -7.924096 1.611005
v -0.000000 -3.672212 1.611006
v -12.136579 -10.120903 1.611005
v -7.759689 -9.837444 1.611005
v 4.057998 8.869717 1.611008
v 7.277350 10.894799 1.611008
v 10.944370 12.007441 1.611007
v 11.645518 1.991528 1.611006
v 8.664206 -0.518732 1.611005
v 15.230158 12.211199 1.611005
v 15.597999 9.426919 1.611004
v 14.179166 5.414229 1.611005
v 10.754715 -2.219486 1.611006
v 12.313740 -5.939884 1.611005
v 4.429046 -7.924096 1.611005
v 12.136579 -10.120903 1.611005
v 7.759689 -9.837444 1.611005
vn -0.0000 -0.0000 1.0000
vn -0.6311 0.7757 -0.0000
vn -0.7205 0.6934 -0.0000
vn 0.1702 -0.9854 -0.0000
vn 0.0475 -0.9989 -0.0000
vn 0.2889 -0.9574 -0.0000
vn 0.5998 -0.8002 -0.0000
vn -0.9914 -0.1310 -0.0000
vn -0.9946 0.1041 -0.0000
vn -0.9843 0.1763 -0.0000
vn -0.9991 -0.0423 -0.0000
vn -0.6311 -0.7757 -0.0000
vn -0.7205 -0.6934 -0.0000
vn -0.7289 0.6846 -0.0000
vn -0.6441 0.7650 -0.0000
vn 0.0646 -0.9979 -0.0000
vn 0.4151 -0.9098 -0.0000
vn 0.6925 -0.7214 -0.0000
vn -0.8007 0.5991 -0.0000
vn 0.7205 -0.6934 -0.0000
vn 0.6311 -0.7757 -0.0000
vn -0.8830 -0.4693 -0.0000
vn -0.7289 -0.6846 -0.0000
vn 0.6311 0.7757 -0.0000
vn 0.4151 0.9098 -0.0000
vn -0.5998 0.8002 -0.0000
vn -0.2889 0.9574 -0.0000
vn -0.9946 -0.1041 -0.0000
vn 0.9991 0.0423 -0.0000
vn 0.9843 -0.1763 -0.0000
vn 0.1702 0.9854 -0.0000
vn 0.0475 0.9989 -0.0000
vn -0.0646 0.9979 -0.0000
vn -0.9914 0.1310 -0.0000
vn -0.6925 0.7214 -0.0000
vn -0.6441 -0.7650 -0.0000
vn 0.8007 -0.5991 -0.0000
vn -0.5998 -0.8002 -0.0000
vn -0.2889 -0.9574 -0.0000
vn 0.7205 0.6934 -0.0000
vn 0.9991 -0.0423 -0.0000
vn 0.9843 0.1763 -0.0000
vn -0.8830 0.4693 -0.0000
vn -0.1702 0.9854 -0.0000
vn -0.4151 0.9098 -0.0000
vn -0.1702 -0.9854 -0.0000
vn -0.4151 -0.9098 -0.0000
vn 0.6441 -0.7650 -0.0000
vn 0.7289 -0.6846 -0.0000
vn 0.6441 0.7650 -0.0000
vn 0.7289 0.6846 -0.0000
vn 0.9946 -0.1041 -0.0000
vn 0.9914 0.1310 -0.0000
vn 0.9946 0.1041 -0.0000
vn 0.9914 -0.1310 -0.0000
vn -0.0475 0.9989 -0.0000
vn -0.0475 -0.9989 -0.0000
vn 0.8830 -0.4693 -0.0000
vn -0.8007 -0.5991 -0.0000
vn 0.8830 0.4693 -0.0000
vn -0.9843 -0.1763 -0.0000
vn 0.8007 0.5991 -0.0000
vn 0.5998 0.8002 -0.0000
vn 0.6925 0.7214 -0.0000
vn 0.0646 0.9979 -0.0000
vn 0.2889 0.9574 -0.0000
vn -0.6925 -0.7214 -0.0000
vn -0.9991 0.0423 -0.0000
vn -0.0646 -0.9979 -0.0000
vt 0.802759 0.454752
vt 0.974124 0.460263
vt 0.974124 0.544609
vt 0.859267 0.663950
vt 0.709105 0.533609
vt 0.786360 0.709811
vt 0.703318 0.735007
vt 0.651428 0.611524
vt 0.625285 0.738717
vt 0.620163 0.699947
vt 0.733105 0.398085
vt 0.974124 0.413301
vt 0.699769 0.318531
vt 0.851030 0.295131
vt 0.702751 0.248153
vt 0.777702 0.253007
vt 0.651428 0.611524
vt 0.777702 0.253007
vt 0.998975 0.093398
vt 0.998975 0.004232
vt 0.976468 0.004232
vt 0.976468 0.093398
vt 0.998975 0.227621
vt 0.998975 0.279169
vt 0.975242 0.279169
vt 0.975242 0.227621
vt 0.998975 0.740137
vt 0.998975 0.798663
vt 0.976468 0.798663
vt 0.976468 0.740137
vt 0.998975 0.304974
vt 0.975242 0.304974
vt 0.998975 0.609546
vt 0.998975 0.673308
vt 0.976468 0.673308
vt 0.976468 0.609546
vt 0.975242 0.113526
vt 0.975242 0.004233
vt 0.998975 0.004233
vt 0.998975 0.113526
vt 0.998975 0.430824
vt 0.998975 0.511610
vt 0.975243 0.511610
vt 0.975242 0.430824
vt 0.998975 0.170359
vt 0.975242 0.170359
vt 0.998975 0.892211
vt 0.976468 0.892211
vt 0.998975 0.548083
vt 0.976468 0.548083
vt 0.998975 0.507021
vt 0.976468 0.507021
vt 0.998975 0.004233
vt 0.998975 0.113526
vt 0.998975 0.382753
vt 0.998975 0.447638
vt 0.976468 0.447638
vt 0.976467 0.382753
vt 0.998975 0.093398
vt 0.998975 0.151348
vt 0.976467 0.151348
vt 0.976467 0.093398
vt 0.975243 0.779618
vt 0.975243 0.723817
vt 0.998975 0.723817
vt 0.998975 0.779618
vt 0.998975 0.317903
vt 0.976467 0.317903
vt 0.975243 0.674257
vt 0.975243 0.627776
vt 0.998975 0.627776
vt 0.998975 0.674257
vt 0.998975 0.209736
vt 0.998975 0.275111
vt 0.976467 0.275111
vt 0.976467 0.209736
vt 0.975243 0.892210
vt 0.998975 0.892210
vt 0.975243 0.570860
vt 0.998975 0.570860
vt 0.976468 0.740137
vt 0.976468 0.798663
vt 0.998975 0.004232
vt 0.976467 0.004232
vt 0.998975 0.609546
vt 0.976468 0.609546
vt 0.976468 0.673308
vt 0.974124 0.581015
vt 0.875319 0.683678
vt 0.796934 0.732985
vt 0.707649 0.760076
vt 0.690577 0.516207
vt 0.763166 0.455087
vt 0.603297 0.765037
vt 0.594341 0.697245
vt 0.628887 0.599543
vt 0.712266 0.413676
vt 0.674307 0.323091
vt 0.866285 0.274780
vt 0.974124 0.378305
vt 0.678621 0.221291
vt 0.785190 0.228193
vt 0.998975 0.366859
vt 0.975242 0.366859
vt 0.998975 0.209736
vt 0.998975 0.151348
vt 0.976468 0.151348
vt 0.976468 0.209736
vt 0.975242 0.227621
vt 0.975242 0.170359
vt 0.998975 0.170359
vt 0.998975 0.507021
vt 0.976468 0.447638
vt 0.976468 0.507021
vt 0.975242 0.511610
vt 0.975242 0.430824
vt 0.998975 0.430824
vt 0.998975 0.511610
vt 0.998975 0.317903
vt 0.998975 0.275111
vt 0.976468 0.275111
vt 0.976468 0.317903
vt 0.975242 0.304974
vt 0.975242 0.279169
vt 0.998975 0.279169
vt 0.998975 0.304974
vt 0.998975 0.382753
vt 0.976468 0.382753
vt 0.998975 0.570860
vt 0.975243 0.570860
vt 0.975242 0.366859
vt 0.998975 0.366859
vt 0.998975 0.627776
vt 0.975243 0.627776
vt 0.976468 0.548083
vt 0.975243 0.674257
s 1
g Vidriera_2_Vidriera
f 35/1/1 3/2/1 30/3/1 31/4/1
f 34/5/1 32/6/1 33/7/1 38/8/1
f 38/8/1 33/7/1 36/9/1 37/10/1
f 35/1/1 31/4/1 32/6/1 34/5/1
f 3/2/1 35/1/1 39/11/1 42/12/1
f 42/12/1 39/11/1 40/13/1 41/14/1
f 41/14/1 40/13/1 43/15/1 44/16/1
f 49/1/1 45/4/1 30/3/1 3/2/1
f 48/5/1 52/17/1 47/7/1 46/6/1
f 52/17/1 51/10/1 50/9/1 47/7/1
f 49/1/1 48/5/1 46/6/1 45/4/1
f 3/2/1 42/12/1 53/11/1 49/1/1
f 42/12/1 55/14/1 54/13/1 53/11/1
f 55/14/1 57/18/1 56/15/1 54/13/1
f 18/19/2 4/20/3 86/21/3 101/22/2
f 47/23/4 50/24/5 78/25/5 75/26/4
f 16/27/6 14/28/7 97/29/7 100/30/6
f 50/24/8 51/31/9 79/32/9 78/25/8
f 13/33/10 15/34/11 99/35/11 96/36/10
f 31/37/12 30/38/13 58/39/13 59/40/12
f 48/41/14 49/42/15 77/43/15 76/44/14
f 15/34/16 16/27/6 100/30/6 99/35/16
f 46/45/17 47/23/4 75/26/4 74/46/17
f 14/28/7 12/47/18 98/48/18 97/29/7
f 11/49/19 13/33/10 96/36/10 95/50/19
f 1/51/2 11/49/19 95/50/19 91/52/2
f 30/53/20 45/54/21 73/37/21 58/38/20
f 5/55/22 10/56/23 90/57/23 94/58/22
f 2/59/24 9/60/25 88/61/25 87/62/24
f 41/63/26 44/64/27 72/65/27 69/66/26
f 7/67/28 5/55/22 94/58/22 93/68/28
f 43/69/29 40/70/30 68/71/30 71/72/29
f 6/73/31 8/74/32 92/75/32 89/76/31
f 44/64/27 43/69/33 71/72/33 72/65/27
f 8/74/34 7/67/28 93/68/28 92/75/34
f 42/77/35 41/63/26 69/66/26 70/78/35
f 10/56/23 1/51/36 91/52/36 90/57/23
f 40/70/30 39/79/37 67/80/37 68/71/30
f 9/60/25 6/73/31 89/76/31 88/61/25
f 27/28/38 29/27/39 113/81/39 111/82/38
f 4/83/40 2/59/24 87/62/24 86/84/40
f 28/34/41 26/85/42 110/86/42 112/87/41
f 59/4/1 58/3/1 86/88/1 87/89/1
f 61/7/1 60/6/1 88/90/1 89/91/1
f 63/1/1 62/5/1 90/92/1 91/93/1
f 65/10/1 64/9/1 92/94/1 93/95/1
f 64/9/1 61/7/1 89/91/1 92/94/1
f 66/8/1 65/10/1 93/95/1 94/96/1
f 60/6/1 59/4/1 87/89/1 88/90/1
f 62/5/1 66/8/1 94/96/1 90/92/1
f 67/11/1 63/1/1 91/93/1 95/97/1
f 68/13/1 67/11/1 95/97/1 96/98/1
f 70/12/1 69/14/1 97/99/1 98/100/1
f 72/16/1 71/15/1 99/101/1 100/102/1
f 71/15/1 68/13/1 96/98/1 99/101/1
f 69/14/1 72/16/1 100/102/1 97/99/1
f 58/3/1 73/4/1 101/89/1 86/88/1
f 74/6/1 75/7/1 103/91/1 102/90/1
f 76/5/1 77/1/1 105/93/1 104/92/1
f 78/9/1 79/10/1 107/95/1 106/94/1
f 75/7/1 78/9/1 106/94/1 103/91/1
f 79/10/1 80/17/1 108/96/1 107/95/1
f 73/4/1 74/6/1 102/90/1 101/89/1
f 80/17/1 76/5/1 104/92/1 108/96/1
f 77/1/1 81/11/1 109/97/1 105/93/1
f 81/11/1 82/13/1 110/98/1 109/97/1
f 83/14/1 70/12/1 98/100/1 111/99/1
f 84/15/1 85/18/1 113/102/1 112/101/1
f 82/13/1 84/15/1 112/101/1 110/98/1
f 85/18/1 83/14/1 111/99/1 113/102/1
f 51/31/9 52/103/43 80/104/43 79/32/9
f 20/105/44 23/106/45 102/107/45 103/108/44
f 45/54/21 46/45/17 74/46/17 73/37/21
f 33/109/46 32/110/47 60/111/47 61/23/46
f 17/112/48 24/56/49 104/113/49 105/114/48
f 52/103/43 48/41/14 76/44/14 80/104/43
f 35/115/50 34/116/51 62/117/51 63/118/50
f 21/119/52 22/120/53 106/121/53 107/122/52
f 37/123/54 36/124/55 64/125/55 65/126/54
f 22/120/56 20/105/44 103/108/44 106/121/56
f 36/124/57 33/109/46 61/23/46 64/125/57
f 19/127/58 21/119/52 107/122/52 108/128/58
f 49/42/12 53/129/59 81/130/59 77/43/12
f 38/131/60 37/123/54 65/126/54 66/132/60
f 23/106/45 18/19/2 101/22/2 102/107/45
f 32/110/47 31/37/12 59/40/12 60/111/47
f 24/56/49 19/127/58 108/128/58 104/113/49
f 53/129/59 54/133/61 82/134/61 81/130/59
f 34/116/51 38/131/60 66/132/60 62/117/51
f 25/49/62 17/112/24 105/114/24 109/135/62
f 55/66/63 42/78/64 70/77/64 83/63/63
f 26/85/42 25/49/62 109/135/62 110/86/42
f 56/72/65 57/65/66 85/64/66 84/136/65
f 12/47/67 27/28/38 111/82/38 98/48/67
f 54/133/61 56/72/68 84/136/68 82/134/61
f 39/79/37 35/115/21 63/118/21 67/80/37
f 29/27/39 28/34/69 112/87/69 113/81/39
f 57/65/66 55/66/63 83/63/63 85/64/66
