# Blender 4.5.3 LTS
# www.blender.org
o Collider_Circuito_castillo
v 164.266739 145.859283 -517.541016
v 204.511887 146.576813 -515.194336
v 163.938629 146.717270 -521.184265
v 201.933228 148.469803 -534.564575
v 162.453369 147.504166 -523.241882
v 192.151382 150.598190 -550.337097
v 158.273239 148.610474 -526.032959
v 178.242798 152.526245 -560.840759
v 150.355194 150.083954 -529.071899
v 162.789215 154.160889 -567.209412
v 139.363907 151.783554 -531.490051
v 146.664703 155.597946 -570.959473
v 126.418427 153.592422 -533.015076
v 130.288940 156.908997 -573.011475
v 112.559311 155.438675 -533.730835
v 114.160095 158.120667 -573.929565
v 98.700211 157.277130 -533.863464
v 98.903229 159.232834 -574.135437
v 85.639038 159.146683 -533.692444
v 85.259171 160.161377 -573.997803
v 73.995667 160.954163 -533.531677
v 74.146744 160.954163 -573.850708
v 65.437393 162.132751 -533.713684
v 65.437393 162.132751 -574.009766
v 55.277332 163.747513 -533.819702
v 54.874371 163.747513 -574.133728
v 48.447277 164.952148 -533.742310
v 47.841335 164.952148 -574.054260
v 41.195744 166.403976 -533.655151
v 40.692219 166.403976 -573.968201
v 34.183136 168.089783 -533.621643
v 34.114227 168.089783 -573.936096
v 27.977219 169.996368 -533.713013
v 28.887199 169.996368 -574.010376
v 164.266739 185.896027 -517.541016
v 204.511887 186.613556 -515.194336
v 163.938629 186.754013 -521.184265
v 201.933228 188.506546 -534.564575
v 162.453369 187.540909 -523.241882
v 192.151382 190.634933 -550.337097
v 158.273239 188.647217 -526.032959
v 178.242798 192.562988 -560.840759
v 150.355194 190.120697 -529.071899
v 162.789215 194.197632 -567.209412
v 139.363907 191.820297 -531.490051
v 146.664703 195.634689 -570.959473
v 126.418427 193.629166 -533.015076
v 130.288940 196.945740 -573.011475
v 112.559311 195.475418 -533.730835
v 114.160095 198.157410 -573.929565
v 98.700211 197.313873 -533.863464
v 98.903229 199.269577 -574.135437
v 85.639038 199.183426 -533.692444
v 85.259171 200.198120 -573.997803
v 73.995667 200.990906 -533.531677
v 74.146744 200.990906 -573.850708
v 65.437393 202.169495 -533.713684
v 65.437393 202.169495 -574.009766
v 55.277332 203.784256 -533.819702
v 54.874371 203.784256 -574.133728
v 48.447277 204.988892 -533.742310
v 47.841335 204.988892 -574.054260
v 41.195744 206.440720 -533.655151
v 40.692219 206.440720 -573.968201
v 34.183136 208.126526 -533.621643
v 34.114227 208.126526 -573.936096
v 27.977219 210.033096 -533.713013
v 28.887199 210.033096 -574.010376
v 23.081955 169.996368 -533.713013
v 23.991936 169.996368 -574.010376
v 23.081955 210.033096 -533.713013
v 23.991936 210.033096 -574.010376
v 21.173981 169.996368 -548.496338
v 21.479527 169.996368 -559.226990
vn -0.0143 0.9926 0.1205
vn 0.0022 0.9908 0.1351
vn 0.0022 0.9908 0.1352
vn 0.0357 0.9878 0.1518
vn 0.0360 0.9877 0.1519
vn 0.0635 0.9870 0.1475
vn 0.0636 0.9870 0.1475
vn 0.0805 0.9880 0.1319
vn 0.0805 0.9880 0.1318
vn 0.0897 0.9896 0.1122
vn 0.0949 0.9913 0.0914
vn 0.0984 0.9927 0.0701
vn 0.1023 0.9936 0.0479
vn 0.1091 0.9937 0.0243
vn 0.1245 0.9922 0.0062
vn 0.1447 0.9895 -0.0003
vn 0.1445 0.9895 -0.0003
vn 0.1627 0.9867 -0.0015
vn 0.1845 0.9828 -0.0024
vn 0.1844 0.9828 -0.0024
vn 0.1626 0.9867 -0.0015
vn 0.2193 0.9757 -0.0022
vn 0.2192 0.9757 -0.0022
vn 0.2789 0.9603 0.0008
vn 0.2786 0.9604 0.0008
vn 0.1618 0.9868 0.0017
vn 0.1587 0.9873 0.0017
vn -0.9463 -0.0000 0.3233
vn -0.9913 -0.0000 0.1320
vn -0.9366 -0.0000 0.3504
vn 0.9960 -0.0000 -0.0897
vn -0.7477 -0.0000 0.6641
vn -0.7297 -0.0000 0.6837
vn 0.8108 -0.0000 -0.5853
vn 0.7146 -0.0000 -0.6995
vn 0.6718 -0.0000 -0.7407
vn -0.5032 -0.0000 0.8642
vn -0.4885 -0.0000 0.8726
vn 0.4717 -0.0000 -0.8818
vn 0.4472 -0.0000 -0.8945
vn -0.3093 -0.0000 0.9510
vn -0.3002 -0.0000 0.9539
vn 0.2947 -0.0000 -0.9556
vn 0.2800 -0.0000 -0.9600
vn -0.1784 -0.0000 0.9840
vn -0.1730 -0.0000 0.9849
vn 0.1706 -0.0000 -0.9853
vn 0.1616 -0.0000 -0.9869
vn -0.0923 -0.0000 0.9957
vn -0.0890 -0.0000 0.9960
vn 0.0871 -0.0000 -0.9962
vn 0.0815 -0.0000 -0.9967
vn -0.0362 -0.0000 0.9993
vn -0.0342 -0.0000 0.9994
vn 0.0323 -0.0000 -0.9995
vn 0.0288 -0.0000 -0.9996
vn -0.0022 -0.0000 1.0000
vn -0.0012 -0.0000 1.0000
vn -0.0008 -0.0000 -1.0000
vn -0.0027 -0.0000 -1.0000
vn 0.0116 -0.0000 0.9999
vn 0.0117 -0.0000 0.9999
vn -0.0134 -0.0000 -0.9999
vn -0.0135 -0.0000 -0.9999
vn -0.0015 -0.0000 1.0000
vn -0.0035 -0.0000 1.0000
vn 0.0021 -0.0000 -1.0000
vn 0.0054 -0.0000 -1.0000
vn -0.0153 -0.0000 0.9999
vn -0.0147 -0.0000 0.9999
vn 0.0164 -0.0000 -0.9999
vn 0.0153 -0.0000 -0.9999
vn -0.0014 -0.0000 1.0000
vn 0.0010 -0.0000 1.0000
vn 0.0007 -0.0000 -1.0000
vn -0.0116 -0.0000 -0.9999
vn -0.0117 -0.0000 -0.9999
vn -0.0016 -0.0000 -1.0000
vn 0.0090 -0.0000 1.0000
vn 0.0079 -0.0000 1.0000
vn -0.0089 -0.0000 -1.0000
vn -0.0079 -0.0000 -1.0000
vn -0.0028 -0.0000 1.0000
vn -0.0064 -0.0000 1.0000
vn 0.0033 -0.0000 -1.0000
vn 0.0066 -0.0000 -1.0000
vn -0.0078 -0.0000 1.0000
vn -0.0062 -0.0000 1.0000
vn 0.0080 -0.0000 -1.0000
vn -0.0000 -0.0000 -1.0000
vn -0.0000 -0.0000 1.0000
vn -0.0000 1.0000 -0.0000
vt 0.899123 1.000000
vt 0.903509 1.000000
vt 0.903509 0.000000
vt 0.899123 0.000000
vt 0.907895 1.000000
vt 0.907895 0.000000
vt 0.912281 1.000000
vt 0.912281 0.000000
vt 0.916667 1.000000
vt 0.916667 0.000000
vt 0.921053 1.000000
vt 0.921053 0.000000
vt 0.925439 1.000000
vt 0.925439 0.000000
vt 0.929825 1.000000
vt 0.929825 0.000000
vt 0.934211 1.000000
vt 0.934211 0.000000
vt 0.938596 1.000000
vt 0.938596 0.000000
vt 0.942982 1.000000
vt 0.942982 0.000000
vt 0.947368 1.000000
vt 0.947368 0.000000
vt 0.964912 1.000000
vt 0.973684 1.000000
vt 0.973684 0.000000
vt 0.964912 0.000000
vt 0.982456 1.000000
vt 0.982456 0.000000
vt 0.991228 1.000000
vt 0.991228 0.000000
vt 1.000000 1.000000
vt 1.000000 0.000000
s 1
f 2/1/1 4/2/2 3/3/3 1/4/1
f 4/2/2 6/5/4 5/6/5 3/3/3
f 6/5/4 8/7/6 7/8/7 5/6/5
f 8/7/6 10/9/8 9/10/9 7/8/7
f 10/9/8 12/11/10 11/12/10 9/10/9
f 12/11/10 14/13/11 13/14/11 11/12/10
f 14/13/11 16/15/12 15/16/12 13/14/11
f 16/15/12 18/17/13 17/18/13 15/16/12
f 18/17/13 20/19/14 19/20/14 17/18/13
f 20/19/14 22/21/15 21/22/15 19/20/14
f 22/21/15 24/23/16 23/24/17 21/22/15
f 26/25/18 28/26/19 27/27/20 25/28/21
f 28/26/19 30/29/22 29/30/23 27/27/20
f 30/29/22 32/31/24 31/32/25 29/30/23
f 32/31/24 34/33/26 33/34/27 31/32/25
f 24/23/16 26/25/18 25/28/21 23/24/17
f 4/2/28 2/1/29 36/1/29 38/2/30
f 1/4/31 3/3/31 37/3/31 35/4/31
f 6/5/32 4/2/28 38/2/30 40/5/33
f 3/3/34 5/6/35 39/6/36 37/3/34
f 8/7/37 6/5/32 40/5/33 42/7/38
f 5/6/35 7/8/39 41/8/40 39/6/36
f 10/9/41 8/7/37 42/7/38 44/9/42
f 7/8/39 9/10/43 43/10/44 41/8/40
f 12/11/45 10/9/41 44/9/42 46/11/46
f 9/10/43 11/12/47 45/12/48 43/10/44
f 14/13/49 12/11/45 46/11/46 48/13/50
f 11/12/47 13/14/51 47/14/52 45/12/48
f 16/15/53 14/13/49 48/13/50 50/15/54
f 13/14/51 15/16/55 49/16/56 47/14/52
f 18/17/57 16/15/53 50/15/54 52/17/58
f 15/16/55 17/18/59 51/18/60 49/16/56
f 20/19/61 18/17/57 52/17/58 54/19/62
f 17/18/59 19/20/63 53/20/64 51/18/60
f 22/21/65 20/19/61 54/19/62 56/21/66
f 19/20/63 21/22/67 55/22/68 53/20/64
f 24/23/69 22/21/65 56/21/66 58/23/70
f 21/22/67 23/24/71 57/24/72 55/22/68
f 28/26/61 26/25/73 60/25/74 62/26/62
f 25/28/75 27/27/76 61/27/77 59/28/78
f 30/29/79 28/26/61 62/26/62 64/29/80
f 27/27/76 29/30/81 63/30/82 61/27/77
f 32/31/83 30/29/79 64/29/80 66/31/84
f 29/30/81 31/32/85 65/32/86 63/30/82
f 34/33/87 32/31/83 66/31/84 68/33/88
f 31/32/85 33/34/89 67/34/86 65/32/86
f 26/25/73 24/23/69 58/23/70 60/25/74
f 23/24/71 25/28/75 59/28/78 57/24/72
f 67/34/86 33/34/89 69/34/90 71/34/90
f 34/33/87 68/33/88 72/33/91 70/33/91
f 33/34/27 34/33/26 70/33/92 69/34/92
f 69/34/92 70/33/92 74/33/92 73/34/92
