# Blender 4.5.3 LTS
# www.blender.org
o CajasVarias_LOD02
v -0.811504 -0.637844 1.247511
v -0.681976 0.671458 1.241349
v -0.811504 -0.637844 -1.247512
v 3.548930 -0.637844 1.247511
v 3.548930 -0.637844 -1.247512
v -0.919493 -1.947147 -1.309302
v -0.919493 -1.947146 1.309302
v -0.800734 0.671458 -1.173396
v 3.656919 -1.947147 -1.309302
v 3.419401 0.671458 -1.241350
v 3.656919 -1.947146 1.309302
v 3.538160 0.671458 1.173395
v -0.563217 -1.761045 1.105442
v -0.563217 -1.761045 -1.105443
v 3.300642 -1.761045 -1.105443
v 3.300642 -1.761045 1.105442
v -0.157207 2.478493 1.476533
v 0.900177 1.458000 1.429025
v -0.072621 2.340941 -1.476533
v -2.834521 -1.008711 1.476533
v -2.617123 -1.221001 1.476533
v -2.701709 -1.083448 -1.476534
v -1.032231 3.241059 -1.549667
v -1.032230 3.241059 1.549668
v 0.060191 2.266203 1.476533
v 0.972498 1.552198 -1.429026
v -3.819149 -0.388903 -1.549668
v -1.633617 -1.842269 -1.429026
v -3.819149 -0.388902 1.549667
v -1.633617 -1.842270 1.429024
v -1.101580 2.845134 1.308382
v -1.101580 2.845134 -1.308382
v -3.454573 -0.219639 -1.308383
v -3.454572 -0.219640 1.308383
vn -0.0000 -1.0000 -0.0000
vn 0.6724 0.7402 0.0013
vn 0.6607 0.7506 0.0031
vn 0.6845 0.7290 -0.0102
vn 0.9970 0.0734 -0.0256
vn -0.9966 0.0822 -0.0000
vn -0.9976 0.0678 0.0119
vn -0.9976 0.0680 0.0117
vn -0.9983 0.0529 0.0241
vn -0.0000 0.0471 -0.9989
vn -0.0038 0.0390 -0.9992
vn -0.0037 0.0392 -0.9992
vn -0.0079 0.0303 -0.9995
vn 0.9966 0.0822 -0.0000
vn 0.9976 0.0678 -0.0119
vn 0.9976 0.0680 -0.0117
vn 0.9983 0.0529 -0.0241
vn -0.0000 0.0471 0.9989
vn 0.0038 0.0390 0.9992
vn 0.0037 0.0392 0.9992
vn 0.0079 0.0303 0.9995
vn -0.0000 1.0000 -0.0000
vn -0.0084 0.0421 -0.9991
vn 0.0084 0.0421 0.9991
vn -0.9970 0.0734 0.0256
vn -0.7932 0.6090 -0.0000
vn -0.5493 -0.8354 -0.0216
vn 0.6715 0.7410 -0.0075
vn 0.6463 0.7629 0.0155
vn 0.0442 -0.0340 -0.9984
vn 0.0367 -0.0282 -0.9989
vn 0.0368 -0.0283 -0.9989
vn 0.0288 -0.0221 -0.9993
vn -0.5302 -0.8479 -0.0012
vn -0.5492 -0.8357 -0.0064
vn -0.6136 -0.7896 -0.0070
vn -0.5581 -0.8297 -0.0115
vn -0.6296 -0.7769 -0.0124
vn 0.0500 -0.0384 0.9980
vn 0.0248 -0.0190 0.9995
vn 0.0265 -0.0203 0.9994
vn 0.0325 -0.0250 0.9992
vn 0.0151 -0.0116 0.9998
vn 0.0164 -0.0126 0.9998
vn 0.7932 -0.6090 -0.0000
vn 0.0393 -0.0302 -0.9988
vn 0.0393 -0.0302 0.9988
vn 0.6653 0.7466 -0.0000
vt 0.350606 0.675646
vt 0.600438 0.675646
vt 0.600438 0.925478
vt 0.350606 0.925478
vt 0.350233 0.452689
vt 0.335800 0.678940
vt 0.321447 0.452689
vt 0.772472 0.443196
vt 0.772472 0.675273
vt 0.561539 0.675273
vt 0.561539 0.443196
vt 0.136554 0.524828
vt 0.021136 0.523969
vt 0.017249 0.270929
vt 0.138678 0.268351
vt 0.176443 0.224435
vt 0.285734 0.211278
vt 0.315043 0.438501
vt 0.184205 0.446289
vt 0.004895 0.013891
vt 0.131004 0.000186
vt 0.145375 0.025894
vt 0.253144 0.003531
vt 0.114981 0.999814
vt 0.004275 0.986234
vt 0.019568 0.760485
vt 0.128450 0.765007
vt 0.179260 0.719900
vt 0.315829 0.732170
vt 0.280646 0.989717
vt 0.147101 0.965512
vt 0.561539 0.232263
vt 0.772472 0.232263
vt 0.350606 0.675273
vt 0.350606 0.443196
vt 0.983405 0.443196
vt 0.983405 0.675273
vt 0.561539 0.000186
vt 0.772472 0.000186
vt 0.022540 0.524013
vt 0.015800 0.270975
vt 0.176988 0.224343
vt 0.285735 0.211278
vt 0.183559 0.446368
vt 0.006475 0.012172
vt 0.146660 0.024192
vt 0.256044 0.005673
vt 0.005646 0.987764
vt 0.018112 0.760393
vt 0.148738 0.967571
vt 0.177372 0.719643
vt 0.312798 0.732271
vt 0.284160 0.986971
vt 0.321447 0.226437
vt 0.350233 0.226437
vt 0.335880 0.000186
s 1
f 7/1/1 6/2/1 9/3/1 11/4/1
f 25/5/2 19/6/3 17/7/4
f 14/8/5 8/9/5 2/10/5 13/11/5
f 7/12/6 1/13/7 3/14/8 6/15/6
f 8/16/9 3/17/8 1/18/7 2/19/9
f 6/15/10 3/14/11 5/20/12 9/21/10
f 10/22/13 5/23/12 3/17/11 8/16/13
f 9/24/14 5/25/15 4/26/16 11/27/14
f 12/28/17 4/29/16 5/30/15 10/31/17
f 11/27/18 4/26/19 1/13/20 7/12/18
f 2/19/21 1/18/20 4/29/19 12/28/21
f 16/32/22 15/33/22 14/8/22 13/11/22
f 13/11/23 2/10/23 12/34/23 16/35/23
f 15/36/24 10/37/24 8/9/24 14/8/24
f 16/32/25 12/38/25 10/39/25 15/33/25
f 29/4/26 24/1/26 23/2/26 27/3/26
f 32/8/27 26/9/27 18/10/27 31/11/27
f 23/15/28 24/12/28 17/40/4 19/41/3
f 26/42/29 19/43/3 25/18/2 18/44/29
f 23/15/30 19/41/31 22/45/32 27/21/30
f 28/46/33 22/47/32 19/43/31 26/42/33
f 27/24/34 22/48/35 20/49/36 29/27/34
f 28/50/37 30/51/37 21/52/38 22/53/35
f 29/27/39 20/49/40 17/40/41 24/12/39
f 18/44/42 25/18/43 21/52/44 30/51/42
f 17/7/41 20/54/40 21/55/44 25/5/43
f 22/56/35 21/55/38 20/54/36
f 34/32/45 33/33/45 32/8/45 31/11/45
f 34/35/46 31/11/46 18/10/46 30/34/46
f 32/8/47 33/36/47 28/37/47 26/9/47
f 34/32/48 30/38/48 28/39/48 33/33/48
