# Blender 4.5.3 LTS
# www.blender.org
o Carro_LOD02
v -7.926823 2.505207 4.208490
v 4.064259 -1.151983 4.208488
v -7.926823 2.505206 -4.208491
v 3.863718 -0.544786 -4.208491
v 3.663178 0.062412 4.208488
v -9.159823 1.601888 -4.002902
v -8.847462 2.816988 -4.630205
v -9.159823 1.601887 -5.257507
v 10.395240 -2.777404 -4.002901
v 10.395240 -2.777404 -5.257507
v -9.159823 1.601888 4.002901
v -8.847460 2.816987 4.002901
v -9.003641 2.209437 5.257507
v 10.395240 -2.777403 4.002900
v 10.395240 -2.777402 5.257505
v -7.786932 7.293241 -3.949666
v -7.596513 7.251300 -5.310745
v -8.923012 1.228791 -3.949665
v -9.113432 1.270732 -5.310745
v -7.786933 7.293242 3.949664
v -7.596515 7.251301 5.310744
v -8.923013 1.228792 3.949665
v -9.113432 1.270733 5.310744
vn 0.9496 0.3136 -0.0000
vn 0.2792 0.9602 -0.0000
vn 0.2790 0.9596 -0.0358
vn 0.2790 0.9596 0.0358
vn 0.2286 0.9730 -0.0324
vn -0.2185 -0.9758 -0.0000
vn -0.0000 -0.0000 1.0000
vn 0.0978 0.4366 -0.8943
vn 0.0978 0.4366 0.8943
vn -0.2268 -0.9433 0.2425
vn -0.2713 -0.9620 -0.0315
vn -0.0000 -0.0000 -1.0000
vn 0.2562 0.9357 0.2425
vn 0.2585 0.9441 0.2048
vn 0.2540 0.9275 0.2742
vn -0.9766 0.2151 -0.0000
vn 0.9766 -0.2151 -0.0000
vt 0.639780 0.914003
vt 0.379304 0.886083
vt 0.635965 0.896393
vt 0.107466 0.574073
vt 0.136600 0.037470
vt 0.089323 0.031308
vt 0.401740 0.615601
vt 0.656189 0.635022
vt 0.023315 0.015027
vt 0.021716 0.573854
vt 0.068355 0.573987
vt 0.077799 0.033917
vt 0.661697 0.637972
vt 0.146788 0.573969
vt 0.077799 0.033918
vt 0.076253 0.574030
vt 0.678104 0.347901
vt 0.423655 0.328480
vt 0.130780 0.574073
vt 0.136600 0.037470
vt 0.089323 0.031308
vt 0.889240 0.943553
vt 0.889030 0.797985
vt 0.964462 0.822138
vt 0.964672 0.967706
vt 0.716763 0.919541
vt 0.692397 0.846791
vt 0.840577 0.846578
vt 0.864944 0.919327
vt 0.889240 0.943553
vt 0.964672 0.967706
vt 0.716763 0.919541
vt 0.864944 0.919327
s 1
f 2/1/1 4/2/1 5/3/1
f 7/4/2 9/5/3 10/6/4
f 3/7/5 1/8/5 5/3/5 4/2/5
f 9/9/6 6/10/6 8/11/6 10/12/6
f 1/13/7 2/1/7 5/3/7
f 8/11/8 7/4/8 10/6/8
f 9/5/9 7/4/9 6/14/9
f 15/15/10 13/16/10 11/10/10 14/9/10
f 2/17/11 1/8/11 3/7/11 4/18/11
f 11/14/12 12/19/12 14/20/12
f 12/19/13 13/16/13 15/21/14 14/20/15
f 16/22/16 17/23/16 19/24/16 18/25/16
f 18/26/17 19/27/17 17/28/17 16/29/17
f 23/24/16 21/23/16 20/30/16 22/31/16
f 21/28/17 23/27/17 22/32/17 20/33/17
