# Blender 4.5.3 LTS
# www.blender.org
o Pocion_2_LOD02
v 0.438772 -2.730541 -0.374798
v -0.564661 -2.730541 0.150362
v 0.302628 -2.738774 0.586298
v -0.243955 -2.725835 -0.458062
v 1.060622 -0.284421 -0.566102
v 0.352266 -0.284421 -1.157822
v -0.949620 -0.268237 -0.792832
v -1.076272 -0.284421 0.552283
v -0.367929 -0.284421 1.144003
v 0.551360 -0.284421 1.061530
v 1.143080 -0.284421 0.353188
v 0.403671 0.348756 -0.479585
v -0.376923 0.562258 -0.411384
v -0.413532 0.370311 0.446586
v 0.433455 0.348093 0.413461
v 0.377715 0.754440 -0.468426
v -0.615106 0.754440 0.099854
v -0.183960 0.754440 0.556015
v 0.497081 0.754440 0.346991
v -0.052545 0.641857 -0.400500
v -0.413648 0.665741 0.004231
v 0.448898 0.712218 0.030908
v 0.088098 0.730352 0.436215
v -0.114113 1.256739 -0.562488
v -0.492426 1.278493 -0.073002
v 0.464903 1.333157 -0.011786
v 0.085951 1.368425 0.476473
vn -0.3849 -0.6933 -0.6092
vn -0.0051 -0.9999 -0.0097
vn -0.4795 -0.8384 -0.2592
vn -0.0898 -0.7937 -0.6017
vn 0.1670 0.6421 -0.7482
vn 0.4307 0.3969 -0.8105
vn 0.5080 0.6101 -0.6081
vn -0.4605 0.6681 -0.5844
vn -0.5256 0.7313 -0.4346
vn -0.6996 -0.2893 0.6533
vn -0.8596 -0.2758 0.4301
vn -0.9774 -0.1889 -0.0943
vn 0.4530 -0.2135 0.8656
vn 0.0876 -0.1979 0.9763
vn 0.6943 -0.0245 -0.7193
vn -0.8855 0.4641 -0.0232
vn -0.2935 0.9148 0.2774
vn -0.0000 1.0000 -0.0000
vn -0.0773 0.9878 -0.1350
vn -0.8920 -0.0641 0.4476
vn -0.5384 0.6750 -0.5046
vn 0.2957 0.7131 0.6357
vn 0.5993 0.6247 0.5006
vn 0.2722 0.7162 0.6426
vn 0.0541 0.7248 0.6868
vn 0.9585 -0.2838 0.0261
vn 0.9506 -0.2875 -0.1175
vn 0.8796 -0.2777 -0.3862
vn -0.2688 -0.2657 -0.9258
vn -0.5249 -0.2838 0.8025
vn -0.1389 -0.2414 -0.9604
vn 0.6257 -0.2177 -0.7491
vn 0.1540 -0.1105 0.9819
vn 0.7281 -0.1142 0.6759
vn 0.8413 -0.1061 0.5301
vn 0.7523 -0.1979 0.6284
vn -0.6922 0.6635 0.2840
vn -0.7130 0.6631 0.2279
vn 0.6765 0.7353 -0.0416
vn -0.5073 0.6115 0.6072
vn -0.8689 0.4949 -0.0011
vn -0.9829 -0.1554 0.0986
vn 0.0554 -0.0209 0.9982
vn 0.0879 -0.0206 0.9959
vn -0.0981 0.4374 -0.8939
vn -0.0483 0.9941 -0.0976
vn 0.8147 0.5707 -0.1027
vn 0.9945 -0.0719 -0.0765
vn -0.0432 -0.2178 -0.9750
vt 0.589722 0.026141
vt 0.749558 0.075297
vt 0.652327 0.079602
vt 0.063503 0.055225
vt 0.213980 0.020042
vt 0.151519 0.068715
vt 0.300826 0.307209
vt 0.283098 0.409973
vt 0.223476 0.336289
vt 0.377955 0.429865
vt 0.396410 0.278115
vt 0.587285 0.348785
vt 0.459273 0.308297
vt 0.768842 0.407968
vt 0.669272 0.372950
vt 0.296451 0.457654
vt 0.525547 0.472931
vt 0.585181 0.507683
vt 0.610325 0.572894
vt 0.308906 0.530988
vt 0.225651 0.522473
vt 0.590071 0.445669
vt 0.453243 0.444930
vt 0.039244 0.401222
vt 0.141289 0.362792
vt 0.162190 0.484257
vt 0.675284 0.512006
vt 0.866947 0.174742
vt 0.793883 0.177816
vt 0.784711 0.094722
vt 0.857171 0.079147
vt 0.864968 0.240991
vt 0.888061 0.186028
vt 0.980009 0.209301
vt 0.946756 0.270947
vt 0.862051 0.334491
vt 0.789575 0.324743
vt 0.795070 0.241327
vt 0.854482 0.391878
vt 0.782247 0.373217
s 1
f 4/1/1 3/2/2 2/3/3
f 3/4/2 4/5/1 1/6/4
f 6/7/5 12/8/6 5/9/7
f 13/10/8 12/8/6 6/7/5 7/11/9
f 2/3/10 8/12/11 7/13/12
f 3/2/13 10/14/13 9/15/14
f 12/8/6 13/10/8 16/16/15
f 17/17/16 18/18/17 19/19/18
f 17/20/16 19/21/18 16/16/19
f 14/22/20 17/17/16 13/23/21
f 10/24/22 11/25/23 15/26/24
f 14/22/25 9/15/25 10/14/22 15/27/24
f 11/25/26 3/4/26 1/6/27 5/9/28
f 4/1/1 2/3/3 7/13/29
f 9/15/30 8/12/11 2/3/10 3/2/30
f 6/7/31 1/6/4 4/5/1 7/11/29
f 1/6/27 6/7/32 5/9/28
f 18/18/33 14/22/33 15/27/34 19/19/35
f 3/4/13 11/25/36 10/24/13
f 13/23/8 7/13/9 8/12/37 14/22/38
f 12/8/39 15/26/39 11/25/39 5/9/39
f 19/21/35 15/26/34 12/8/6 16/16/15
f 8/12/37 9/15/40 14/22/38
f 16/16/19 13/10/21 17/20/16
f 25/28/41 21/29/42 23/30/43 27/31/44
f 14/22/20 18/18/17 17/17/16
f 24/32/45 25/33/41 27/34/46
f 24/32/45 27/34/46 26/35/47
f 26/36/47 22/37/48 20/38/49 24/32/45
f 26/36/47 27/39/44 23/40/43 22/37/48
f 25/28/41 24/32/45 20/38/49 21/29/42
