# Blender 4.5.3 LTS
# www.blender.org
o Pocion_1_LOD02
v 0.758577 -1.397675 -0.764255
v -0.422259 -1.403884 -1.016440
v 1.069212 -1.405187 0.336154
v -1.076056 -1.405188 0.336138
v -0.003414 -1.397675 1.075361
v 1.271347 -0.486576 0.031844
v 0.897984 -0.486577 -0.869554
v -0.003414 -0.486577 -1.242931
v -0.904812 -0.486577 -0.869554
v -1.278190 -0.486576 0.031844
v -0.502021 -0.471749 1.229238
v 0.897984 -0.486576 0.933242
v -0.180872 0.087727 -0.526841
v -0.542982 0.082191 0.002881
v -0.211840 0.120233 0.503693
v 0.458271 0.423266 -0.208023
v -0.414136 0.461929 -0.407828
v -0.225791 0.461929 0.539736
v 0.427005 0.262004 0.272932
v 0.127275 0.341748 -0.352288
v -0.337042 0.363591 -0.177423
v 0.350696 0.406121 0.210126
v -0.113650 0.422707 0.385500
v 0.146103 0.904225 -0.509670
v -0.368131 0.924125 -0.273422
v 0.381795 0.974122 0.182268
v -0.132447 1.006384 0.417244
vn 0.9827 -0.1839 -0.0229
vn 0.9817 -0.1870 -0.0365
vn 0.9212 -0.0763 0.3816
vn 0.0297 -0.7202 0.6932
vn -0.0865 -0.3580 0.9297
vn -0.1859 -0.9420 0.2793
vn 0.6216 0.7386 0.2611
vn -0.2586 0.6770 0.6891
vn -0.4682 0.1843 0.8642
vn 0.7385 0.6720 0.0550
vn 0.6803 0.6766 0.2818
vn -0.9839 0.1538 0.0913
vn -0.6012 0.5719 -0.5582
vn -0.0964 0.5271 -0.8443
vn -0.2172 0.7911 0.5718
vn -0.2382 0.7919 0.5623
vn 0.1309 0.7210 0.6804
vn 0.0017 -1.0000 0.0005
vn 0.4372 0.8528 -0.2856
vn 0.1565 0.7061 -0.6906
vn -0.0245 0.7278 -0.6853
vn 0.7554 0.6457 -0.1116
vn -0.0006 -1.0000 -0.0003
vn 0.1727 -0.8929 0.4158
vn -0.8520 -0.3510 -0.3885
vn -0.9746 -0.2165 0.0581
vn -0.9702 -0.2420 -0.0141
vn -0.0176 -0.1745 -0.9845
vn -0.3821 -0.0533 -0.9226
vn 0.0366 -0.1902 -0.9811
vn 0.9179 -0.2418 -0.3146
vn -0.8391 -0.0044 0.5440
vn 0.2790 -0.2533 -0.9263
vn 0.3741 -0.2299 0.8984
vn -0.5535 0.7838 -0.2814
vn -0.2661 0.7187 -0.6424
vn -0.5758 0.7377 0.3525
vn -0.7693 0.4950 -0.4039
vn -0.9166 -0.1554 -0.3684
vn -0.4139 -0.0209 0.9101
vn -0.3840 -0.0206 0.9231
vn 0.3276 0.4374 -0.8375
vn 0.0025 0.9941 -0.1088
vn 0.7695 0.5707 0.2868
vn 0.9165 -0.0719 0.3934
vn 0.4138 -0.2178 -0.8839
vt 0.133173 0.764373
vt 0.215839 0.784469
vt 0.167290 0.858790
vt 0.962723 0.812725
vt 0.846169 0.891598
vt 0.840971 0.740933
vt 0.300107 0.876521
vt 0.336642 0.962955
vt 0.254327 0.967391
vt 0.675695 0.803529
vt 0.592473 0.804924
vt 0.593209 0.730188
vt 0.096128 0.972015
vt 0.797849 0.602832
vt 0.361921 0.823525
vt 0.259598 0.706965
vt 0.328206 0.589949
vt 0.403186 0.731912
vt 0.013325 0.839299
vt 0.168930 0.577037
vt 0.176484 0.673626
vt 0.713099 0.686827
vt 0.758854 0.763169
vt 0.641477 0.571631
vt 0.436246 0.799585
vt 0.717232 0.907647
vt 0.648491 0.912660
vt 0.571310 0.874837
vt 0.867331 0.173735
vt 0.793886 0.176828
vt 0.784666 0.093303
vt 0.857504 0.077644
vt 0.865341 0.240330
vt 0.888556 0.185081
vt 0.980982 0.208475
vt 0.947555 0.270443
vt 0.862409 0.334318
vt 0.789554 0.324527
vt 0.795079 0.240665
vt 0.854801 0.392005
vt 0.782189 0.373246
s 1
f 3/1/1 6/2/2 12/3/3
f 5/4/4 11/5/5 4/6/6
f 19/7/7 18/8/8 15/9/9
f 6/2/10 19/7/7 12/3/11
f 14/10/12 17/11/13 13/12/14
f 15/9/15 11/13/16 12/3/17 19/7/17
f 5/4/4 4/6/6 2/14/18
f 16/15/19 7/16/20 8/17/21 13/18/14
f 19/7/7 6/2/10 7/16/22 16/15/19
f 5/19/4 2/20/18 1/21/23 3/1/24
f 9/22/25 2/14/25 4/6/26 10/23/27
f 2/14/28 9/22/29 8/24/30
f 7/16/31 6/2/2 3/1/1 1/21/31
f 4/6/26 11/5/32 10/23/27
f 8/17/30 7/16/33 1/21/33 2/20/28
f 12/3/34 11/13/5 5/19/4 3/1/24
f 14/10/35 13/12/35 9/22/35 10/23/35
f 13/18/14 17/25/13 16/15/19
f 8/24/21 9/22/36 13/12/14
f 15/26/15 14/10/37 10/23/37 11/5/16
f 18/27/8 17/11/13 14/10/12 15/26/9
f 16/28/19 17/11/13 18/27/8
f 16/15/19 18/8/8 19/7/7
f 25/29/38 21/30/39 23/31/40 27/32/41
f 24/33/42 25/34/38 27/35/43
f 24/33/42 27/35/43 26/36/44
f 26/37/44 22/38/45 20/39/46 24/33/42
f 26/37/44 27/40/41 23/41/40 22/38/45
f 25/29/38 24/33/42 20/39/46 21/30/39
