# Blender 4.5.3 LTS
# www.blender.org
o Rueda_LOD01
v -0.575995 -0.364383 0.006390
v -0.432357 -0.528595 0.118492
v -0.432357 -0.528595 -0.105712
v -2.766283 -1.781433 0.118492
v -2.766283 -1.781433 -0.105712
v -2.073274 -2.556596 0.006390
v -0.653655 0.247905 0.006390
v -0.696988 0.030189 0.118492
v -0.696988 0.030189 -0.105712
v -3.110461 1.125116 0.118492
v -3.110461 1.125116 -0.105712
v -3.304774 0.099764 0.006390
v -0.208088 0.675635 0.118492
v -0.208088 0.675635 -0.105712
v -0.401212 0.573040 0.006390
v -1.005552 3.159472 0.006390
v -1.931659 2.685652 0.118492
v -1.931659 2.685652 -0.105712
v 0.400810 0.580997 0.006390
v 0.205547 0.678417 0.118492
v 0.205547 0.678417 -0.105712
v 1.887810 2.724413 0.118492
v 1.887810 2.724413 -0.105712
v 0.952139 3.178015 0.006390
v 0.705685 0.044239 0.006390
v 0.662396 0.261963 0.118492
v 0.662396 0.261966 -0.105712
v 3.311507 0.167036 0.118492
v 3.311507 0.167036 -0.105712
v 3.100784 1.189147 0.006390
v 0.455795 -0.520647 0.118492
v 0.455795 -0.520647 -0.105712
v 0.595472 -0.352472 0.006390
v 2.137769 -2.514727 0.006390
v 2.814231 -1.724514 0.118492
v 2.814231 -1.724514 -0.105712
v -0.143250 -0.664823 0.006390
v 0.074432 -0.680834 0.118492
v 0.074432 -0.680834 -0.105712
v -0.703604 -3.212645 0.118492
v -0.703604 -3.212645 -0.105712
v 0.334305 -3.276574 0.006390
v -2.699404 -1.108682 0.275874
v -2.064684 -2.058609 0.275874
v 1.126272 -2.693329 0.275874
v 2.076198 -2.058609 0.275874
v 2.710917 1.132347 0.275874
v 2.076200 2.082272 0.275874
v -1.114757 2.716992 0.275874
v -2.064684 2.082272 0.275874
v -2.699404 1.132347 0.275874
v -2.922288 0.011833 0.275874
v -1.114757 -2.693329 0.275874
v 0.005758 -2.916214 0.275874
v 2.710917 -1.108682 0.275874
v 2.933804 0.011833 0.275874
v 1.126272 2.716992 0.275874
v 0.005758 2.939878 0.275874
v -3.528740 -1.452204 0.275874
v -2.699430 -2.693355 0.275874
v 1.469793 -3.522666 0.275874
v 2.710944 -2.693355 0.275874
v 3.540254 1.475868 0.275874
v 2.710944 2.717018 0.275874
v -1.458279 3.546329 0.275874
v -2.699430 2.717018 0.275874
v -3.528738 1.475868 0.275874
v -3.819956 0.011833 0.275874
v -1.458279 -3.522666 0.275874
v 0.005758 -3.813881 0.275875
v 3.540254 -1.452204 0.275874
v 3.831470 0.011833 0.275874
v 1.469795 3.546329 0.275874
v 0.005758 3.837544 0.275874
v -2.699404 -1.108682 -0.192869
v -2.064684 -2.058609 -0.192869
v 1.126272 -2.693329 -0.192869
v 2.076198 -2.058609 -0.192869
v 2.710917 1.132347 -0.192869
v 2.076200 2.082272 -0.192869
v -1.114757 2.716992 -0.192869
v -2.064684 2.082272 -0.192869
v -2.699404 1.132347 -0.192869
v -2.922288 0.011833 -0.192869
v -1.114757 -2.693329 -0.192869
v 0.005758 -2.916214 -0.192869
v 2.710917 -1.108682 -0.192869
v 2.933804 0.011833 -0.192869
v 1.126272 2.716992 -0.192869
v 0.005758 2.939878 -0.192869
v -3.528740 -1.452204 -0.192869
v -2.699430 -2.693355 -0.192869
v 1.469793 -3.522666 -0.192869
v 2.710944 -2.693355 -0.192869
v 3.540254 1.475868 -0.192869
v 2.710944 2.717018 -0.192869
v -1.458279 3.546329 -0.192869
v -2.699430 2.717018 -0.192869
v -3.528738 1.475868 -0.192869
v -3.819956 0.011833 -0.192869
v -1.458279 -3.522666 -0.192869
v 0.005758 -3.813881 -0.192868
v 3.540254 -1.452204 -0.192869
v 3.831470 0.011833 -0.192869
v 1.469795 3.546329 -0.192869
v 0.005758 3.837544 -0.192869
v -0.443326 -0.288240 0.144011
v -0.498555 0.220727 0.144011
v 0.150283 -0.542398 0.144011
v 0.556675 0.040397 0.144011
v 0.084327 0.579182 0.144011
v -0.428915 0.325731 -0.238162
v 0.462106 0.293289 -0.238162
v 0.475414 -0.301981 -0.238162
v -0.514153 -0.172609 -0.238162
v -0.706322 -0.240780 0.144011
v 0.511640 -0.549375 0.144011
v -0.589577 0.441753 0.144011
v 0.435678 0.607165 0.144011
v -0.163613 -0.702708 0.144011
v 0.730723 0.128800 0.144011
v -0.111202 0.736798 0.144011
v -0.099607 -0.517901 -0.238162
v 0.034323 0.562750 -0.238162
v -0.708783 -0.157539 -0.238162
v -0.379738 -0.613187 -0.238162
v 0.330652 -0.670307 -0.238162
v 0.760304 0.050955 -0.238162
v 0.258363 0.723914 -0.238162
v -0.555452 0.517712 -0.238162
vn 0.7774 -0.6290 -0.0000
vn -0.5432 0.8396 -0.0000
vn -0.0267 -0.9996 -0.0000
vn 0.3363 0.9418 -0.0000
vn -0.9582 0.2862 -0.0000
vn 0.8216 -0.5700 -0.0000
vn -0.3554 0.9347 -0.0000
vn 0.0471 -0.9989 -0.0000
vn 0.9950 0.0996 -0.0000
vn -0.9767 0.2148 -0.0000
vn -0.0000 -0.0000 -1.0000
vn -0.0000 -0.0000 1.0000
vn 0.9770 0.1155 -0.1792
vn 0.9994 -0.0072 -0.0333
vn 0.9985 -0.0533 0.0141
vn -0.7133 -0.6951 0.0891
vn -0.6400 -0.7458 0.1849
vn -0.7557 -0.6546 -0.0205
vn -0.6926 -0.7090 -0.1330
vn -0.7497 -0.6157 -0.2426
vn -0.6298 -0.7746 -0.0584
vn -0.4263 0.9046 -0.0074
vn -0.5184 0.8500 0.0937
vn -0.3467 0.9252 -0.1541
vn -0.7771 0.5419 -0.3202
vn -0.7571 0.5560 -0.3430
vn 0.9429 -0.3046 0.1350
vn 0.2282 0.9548 0.1903
vn 0.2316 0.9557 0.1817
vn 0.2250 0.9569 0.1834
vn 0.1268 -0.9885 0.0826
vn 0.2092 -0.9605 0.1832
vn 0.0245 -0.9977 -0.0630
vn -0.8098 -0.5867 -0.0000
vn 0.9521 0.3057 -0.0000
vn 0.5259 0.8505 -0.0000
vn -0.7644 -0.6448 -0.0000
vn -0.7285 0.6851 -0.0000
vn -0.4014 0.9159 -0.0000
vn -0.9808 0.1951 -0.0000
vn -0.3866 -0.9222 -0.0000
vn 0.0078 -1.0000 -0.0000
vn 0.9808 0.1951 -0.0000
vn 0.9344 0.3561 -0.0000
vn 0.9808 -0.1951 -0.0000
vn -0.0078 1.0000 -0.0000
vn 0.3866 0.9222 -0.0000
vn -0.9808 -0.1951 -0.0000
vn -0.9344 -0.3561 -0.0000
vn -0.9345 -0.3561 -0.0000
vn 0.4014 -0.9159 -0.0000
vn 0.7285 -0.6851 -0.0000
vn 0.8315 -0.5556 -0.0000
vn 0.9345 0.3561 -0.0000
vn 0.7188 0.6952 -0.0000
vn -0.8315 0.5556 -0.0000
vn -0.7188 -0.6952 -0.0000
vn 0.8243 0.5512 -0.1290
vn 0.8155 0.5581 -0.1534
vn 0.8147 0.5708 -0.1023
vn 0.8238 0.5521 -0.1288
vn -0.3497 0.9001 0.2598
vn -0.3583 0.8911 0.2783
vn -0.3330 0.8987 0.2855
vn -0.8043 -0.5865 -0.0955
vn 0.8486 -0.4725 -0.2378
vn 0.8345 -0.4971 -0.2379
vn -0.9670 -0.0386 0.2519
vn -0.9738 -0.0218 0.2266
vn 0.4892 -0.8653 -0.1089
vn 0.5224 -0.8482 -0.0877
vn 0.5207 -0.8493 -0.0875
vn 0.4963 -0.8657 -0.0650
vn 0.5241 0.8497 -0.0566
vn 0.5079 0.8592 -0.0612
vn 0.5122 0.8572 -0.0532
vn 0.5276 0.8476 -0.0569
vn 0.9770 -0.1671 0.1321
vn -0.0769 -0.9804 -0.1816
vn -0.5294 -0.8412 0.1101
vn -0.2441 0.9340 -0.2608
vt 0.045273 0.993419
vt 0.073135 0.585431
vt 0.016548 0.585886
vt 0.045150 0.586019
vt 0.016548 0.993604
vt 0.073387 0.993698
vt 0.242016 0.390608
vt 0.214887 0.370034
vt 0.205330 0.421635
vt 0.163621 0.642383
vt 0.199337 0.597958
vt 0.181519 0.533635
vt 0.219965 0.486641
vt 0.152734 0.736053
vt 0.184204 0.709669
vt 0.146853 0.834558
vt 0.175950 0.823560
vt 0.267694 0.737958
vt 0.243742 0.689336
vt 0.236165 0.761943
vt 0.265471 0.940524
vt 0.320098 0.914465
vt 0.260955 0.856422
vt 0.289548 0.436421
vt 0.306007 0.383759
vt 0.333404 0.665427
vt 0.283790 0.612232
vt 0.232157 0.834891
vt 0.349559 0.565975
vt 0.306813 0.490919
vt 0.253791 0.616984
vt 0.269708 0.525790
vt 0.017047 0.585431
vt 0.016548 0.993139
vt 0.073269 0.993698
vt 0.073634 0.585886
vt 0.016548 0.993698
vt 0.073387 0.993604
vt 0.073022 0.585792
vt 0.016548 0.586246
vt 0.016913 0.993698
vt 0.073634 0.993139
vt 0.044842 0.585658
vt 0.073387 0.586246
vt 0.016913 0.585792
vt 0.044967 0.993651
vt 0.805356 0.611229
vt 0.831326 0.486969
vt 0.754400 0.487251
vt 0.735536 0.583596
vt 0.501361 0.161897
vt 0.376036 0.187124
vt 0.405656 0.258207
vt 0.501597 0.238867
vt 0.501380 0.161847
vt 0.501610 0.238794
vt 0.597970 0.257633
vt 0.625625 0.187813
vt 0.735082 0.253872
vt 0.625515 0.187944
vt 0.597755 0.257823
vt 0.680146 0.310225
vt 0.831352 0.486853
vt 0.754364 0.487102
vt 0.735608 0.583149
vt 0.805372 0.611026
vt 0.739224 0.720670
vt 0.682792 0.665662
vt 0.680065 0.310389
vt 0.735073 0.253932
vt 0.268338 0.258078
vt 0.324733 0.312922
vt 0.805982 0.361559
vt 0.734845 0.391179
vt 0.376067 0.187171
vt 0.405708 0.258293
vt 0.268404 0.258068
vt 0.324836 0.313076
vt 0.806050 0.361592
vt 0.734955 0.391173
vt 0.739290 0.720660
vt 0.682895 0.665816
vt 0.838687 0.623155
vt 0.914876 0.651229
vt 0.943980 0.478351
vt 0.868226 0.486745
vt 0.501145 0.124993
vt 0.492759 0.049232
vt 0.325591 0.086790
vt 0.361515 0.153576
vt 0.665631 0.078287
vt 0.492755 0.049190
vt 0.501157 0.124945
vt 0.637555 0.154480
vt 0.760309 0.225934
vt 0.808406 0.173897
vt 0.665562 0.078379
vt 0.637473 0.154597
vt 0.914893 0.651087
vt 0.944000 0.478233
vt 0.868249 0.486631
vt 0.838701 0.622994
vt 0.767173 0.745916
vt 0.819243 0.794002
vt 0.808408 0.173908
vt 0.760319 0.225978
vt 0.188331 0.184782
vt 0.240392 0.232861
vt 0.906354 0.311117
vt 0.839546 0.347038
vt 0.325623 0.086806
vt 0.361546 0.153610
vt 0.188385 0.184736
vt 0.240455 0.232821
vt 0.906391 0.311164
vt 0.839600 0.347077
vt 0.767236 0.745877
vt 0.819297 0.793956
vt 0.491448 0.010617
vt 0.309554 0.051716
vt 0.982553 0.477048
vt 0.941481 0.295099
vt 0.309524 0.051701
vt 0.160155 0.158309
vt 0.941444 0.295047
vt 0.834886 0.145734
vt 0.160212 0.158257
vt 0.834878 0.145720
vt 0.679111 0.042325
vt 0.491463 0.010658
vt 0.950945 0.664637
vt 0.982573 0.476930
vt 0.847473 0.820428
vt 0.679177 0.042234
vt 0.950928 0.664774
vt 0.847416 0.820481
vt 0.149549 0.929110
vt 0.177789 0.919746
vt 0.180023 0.976466
vt 0.235468 0.926550
vt 0.330754 0.404489
vt 0.371039 0.467642
vt 0.318055 0.835440
vt 0.323550 0.750316
vt 0.383937 0.421920
s 1
f 6/1/1 3/2/1 2/3/1
f 1/4/2 5/5/2 4/6/2
f 12/1/3 9/2/3 8/3/3
f 7/4/4 11/5/4 10/6/4
f 24/1/5 21/2/5 20/3/5
f 19/4/6 23/5/6 22/6/6
f 30/1/7 27/2/7 26/3/7
f 25/4/8 29/5/8 28/6/8
f 42/1/9 39/2/9 38/3/9
f 37/4/10 41/5/10 40/6/10
f 126/7/11 115/8/11 123/9/11
f 113/10/11 128/11/11 114/12/11
f 127/13/11 123/9/11 114/12/11
f 124/14/11 129/15/11 113/10/11
f 112/16/11 130/17/11 124/14/11
f 111/18/12 119/19/12 122/20/12
f 107/21/13 115/22/14 108/23/15
f 126/7/16 120/24/17 116/25/18
f 113/26/19 110/27/20 111/18/21
f 130/17/22 118/28/23 122/20/24
f 114/29/25 109/30/26 110/27/25
f 128/11/27 121/31/27 117/32/27
f 129/15/28 122/20/29 119/19/30
f 127/13/31 117/32/32 120/24/33
f 3/33/11 6/34/11 5/35/11 1/36/11
f 10/37/12 12/38/12 8/39/12 7/40/12
f 9/33/11 12/34/11 11/35/11 7/36/11
f 17/38/12 15/39/12 13/40/12 16/37/12
f 17/41/34 18/42/34 15/43/34
f 13/44/35 14/45/35 16/46/35
f 14/36/11 15/33/11 18/34/11 16/35/11
f 22/37/12 24/38/12 20/39/12 19/40/12
f 21/33/11 24/34/11 23/35/11 19/36/11
f 28/37/12 30/38/12 26/39/12 25/40/12
f 27/33/11 30/34/11 29/35/11 25/36/11
f 35/38/12 33/39/12 31/40/12 34/37/12
f 35/41/36 36/42/36 33/43/36
f 31/44/37 32/45/37 34/46/37
f 32/36/11 33/33/11 36/34/11 34/35/11
f 40/37/12 42/38/12 38/39/12 37/40/12
f 39/33/11 42/34/11 41/35/11 37/36/11
f 64/47/12 73/48/12 57/49/12 48/50/12
f 67/51/12 68/52/12 52/53/12 51/54/12
f 71/55/12 55/56/12 46/57/12 62/58/12
f 65/59/12 66/60/12 50/61/12 49/62/12
f 69/63/12 53/64/12 44/65/12 60/66/12
f 63/67/12 64/47/12 48/50/12 47/68/12
f 66/60/12 67/51/12 51/54/12 50/61/12
f 62/58/12 46/57/12 45/69/12 61/70/12
f 59/71/12 43/72/12 52/53/12 68/52/12
f 69/63/12 70/73/12 54/74/12 53/64/12
f 61/70/12 45/69/12 54/74/12 70/73/12
f 71/55/12 72/75/12 56/76/12 55/56/12
f 63/77/12 47/78/12 56/76/12 72/75/12
f 73/48/12 74/79/12 58/80/12 57/49/12
f 59/81/12 60/66/12 44/65/12 43/82/12
f 65/59/12 49/62/12 58/80/12 74/79/12
f 96/83/11 80/84/11 89/85/11 105/86/11
f 99/87/11 83/88/11 84/89/11 100/90/11
f 78/91/11 87/92/11 103/93/11 94/94/11
f 97/95/11 81/96/11 82/97/11 98/98/11
f 76/99/11 85/100/11 101/101/11 92/102/11
f 95/103/11 79/104/11 80/84/11 96/83/11
f 98/98/11 82/97/11 83/88/11 99/87/11
f 77/105/11 78/91/11 94/94/11 93/106/11
f 100/90/11 84/89/11 75/107/11 91/108/11
f 85/100/11 86/109/11 102/110/11 101/101/11
f 86/109/11 77/105/11 93/106/11 102/110/11
f 103/93/11 87/92/11 88/111/11 104/112/11
f 88/111/11 79/113/11 95/114/11 104/112/11
f 105/86/11 89/85/11 90/115/11 106/116/11
f 91/117/11 75/118/11 76/99/11 92/102/11
f 90/115/11 81/96/11 97/95/11 106/116/11
f 66/60/38 65/59/39 97/95/39 98/98/38
f 55/119/40 56/120/40 88/111/40 87/92/40
f 68/52/40 67/51/40 99/87/40 100/90/40
f 57/121/41 58/122/42 90/115/42 89/85/41
f 70/73/42 69/63/41 101/101/41 102/110/42
f 52/123/43 43/124/44 75/107/44 84/89/43
f 72/75/45 71/55/45 103/93/45 104/112/45
f 54/125/46 45/126/39 77/105/39 86/109/46
f 74/79/46 73/48/47 105/86/47 106/116/46
f 56/120/48 47/127/49 79/113/49 88/111/48
f 59/71/50 68/52/48 100/90/48 91/108/50
f 58/122/42 49/128/51 81/96/51 90/115/42
f 61/70/51 70/73/42 102/110/42 93/106/51
f 50/129/52 51/130/53 83/88/53 82/97/52
f 95/114/54 63/77/54 72/75/43 104/112/43
f 44/131/55 53/132/47 85/100/47 76/99/55
f 43/133/44 44/131/55 76/99/55 75/118/44
f 65/59/39 74/79/46 106/116/46 97/95/39
f 46/134/38 55/119/56 87/92/56 78/91/38
f 45/126/39 46/134/38 78/91/38 77/105/39
f 67/51/56 66/60/38 98/98/38 99/87/56
f 48/135/57 57/121/41 89/85/41 80/84/57
f 47/136/49 48/135/57 80/84/57 79/104/49
f 69/63/41 60/66/57 92/102/57 101/101/41
f 60/66/57 59/81/50 91/117/50 92/102/57
f 49/128/51 50/129/52 82/97/52 81/96/51
f 71/55/53 62/58/52 94/94/52 103/93/53
f 62/58/52 61/70/51 93/106/51 94/94/52
f 51/130/45 52/123/45 84/89/45 83/88/45
f 73/48/47 64/47/55 96/83/55 105/86/47
f 64/47/55 63/67/54 95/103/54 96/83/55
f 53/132/47 54/125/46 86/109/46 85/100/47
f 112/16/11 115/137/11 125/138/11 130/17/11
f 129/15/11 128/11/11 113/10/11
f 130/17/11 129/15/11 124/14/11
f 115/137/11 126/139/11 125/138/11
f 123/9/11 127/13/11 126/7/11
f 122/20/12 118/28/12 108/23/12 111/18/12
f 114/12/11 128/11/11 127/13/11
f 119/19/12 111/18/12 110/27/12 121/31/12
f 110/27/12 109/30/12 117/32/12
f 108/23/12 118/28/12 116/140/12
f 107/21/12 108/23/12 116/140/12
f 109/30/12 120/24/12 117/32/12
f 110/27/12 117/32/12 121/31/12
f 4/37/12 6/38/12 2/39/12 1/40/12
f 120/24/12 109/30/12 107/141/12 116/25/12
f 119/19/58 121/31/59 128/11/60 129/15/61
f 109/30/62 114/29/63 123/142/64
f 125/138/65 126/139/16 116/140/18
f 127/13/66 128/11/67 117/32/67
f 113/26/68 114/29/69 110/27/69
f 111/18/70 108/23/71 112/143/72 124/144/73
f 107/141/74 109/30/75 123/142/76 115/145/77
f 116/140/40 118/28/40 130/17/40 125/138/40
f 115/22/14 112/143/78 108/23/15
f 126/7/79 127/13/31 120/24/33
f 124/144/80 113/26/19 111/18/21
f 129/15/81 130/17/22 122/20/24
