# Blender 4.5.3 LTS
# www.blender.org
o Valla_LOD01
v -6.392845 -3.598936 0.313206
v -5.388841 -3.598936 0.151229
v -6.554822 -3.598936 -0.690798
v -5.550818 -3.598936 -0.852776
v -6.681769 -3.598936 -0.155248
v -5.857294 -3.598936 0.440153
v -5.261894 -3.598936 -0.384321
v -6.086368 -3.598936 -0.979722
v -5.388841 3.235651 -0.690799
v -6.392845 3.235651 -0.852776
v -6.681769 3.235651 -0.384322
v -6.086368 3.235651 0.440153
v -5.261894 3.235651 -0.155248
v -5.857295 3.235651 -0.979723
v -5.550818 3.235651 0.313206
v -6.554822 3.235651 0.151229
v 6.368902 -3.598936 0.324477
v 5.594328 -3.598936 0.342278
v 6.349332 -3.598936 -0.881849
v 5.550820 -3.598936 -0.852777
v 6.671560 -3.598936 -0.435652
v 5.971832 -3.598936 0.437786
v 5.272102 -3.598936 -0.103920
v 5.971832 -3.598936 -0.977356
v 6.625543 -3.598936 0.000992
v 5.318120 -3.598936 -0.540561
v 6.672810 3.235651 -0.130344
v 5.550820 3.235651 0.313207
v 5.272102 3.235651 -0.435650
v 5.594328 3.235651 -0.881848
v 6.625543 3.235651 -0.540562
v 6.086371 3.235651 0.440152
v 5.318120 3.235651 0.000991
v 5.971832 3.235651 -0.977356
v 6.392839 3.235651 -0.852779
v 6.472158 3.235651 0.230544
v -5.943538 -0.156772 -0.227411
v -6.037530 1.596414 -0.227411
v -6.084071 0.190617 -0.227411
v -5.886685 1.249025 -0.227411
v -5.874237 0.719821 -0.227411
v 5.921089 -0.153284 -0.227410
v -0.000000 1.905222 -0.227411
v -5.944216 -0.154915 0.619906
v -6.037530 1.596414 0.619846
v -6.084071 0.190617 0.619846
v -5.886685 1.249025 0.619846
v -5.874237 0.719821 0.619846
v -3.973377 1.889675 0.619846
v -5.960064 1.889675 -0.227411
v -5.960064 1.889675 0.619846
v -6.202672 -0.303256 0.196217
v -6.490290 0.190272 0.196217
v -6.290634 1.228938 0.196216
v -6.443444 1.589043 0.196216
v -6.278945 0.736213 0.196216
v 6.193966 -0.332126 0.203353
v -6.229095 2.032192 0.196216
v 0.000000 2.079887 0.196216
v 6.037530 1.596414 -0.227411
v 6.084073 0.190617 -0.227411
v 5.886686 1.249025 -0.227411
v 5.874238 0.719821 -0.227411
v 5.943536 -0.156772 0.619846
v 6.037530 1.596414 0.619846
v 6.084073 0.190617 0.619846
v 5.886686 1.249025 0.619846
v 5.874238 0.719821 0.619846
v 5.960063 1.889675 -0.227411
v 5.960063 1.889675 0.619846
v 6.490289 0.190272 0.196217
v 6.290633 1.228938 0.196216
v 6.443445 1.589043 0.196216
v 6.278944 0.736213 0.196216
v 6.229095 2.032192 0.196216
v -5.799039 -2.887611 -0.167100
v -5.890747 -1.177046 -0.167100
v -5.936156 -2.548668 -0.167100
v -5.697742 -1.776530 -0.166967
v 5.777139 -2.884208 -0.167099
v 0.000000 -0.875747 -0.167100
v -5.799700 -2.885799 0.659618
v -5.890747 -1.177046 0.659559
v -5.936156 -2.548668 0.659559
v -5.697742 -1.776530 0.659426
v -3.876775 -0.890917 0.659559
v -5.815163 -0.890917 -0.167100
v -5.815163 -0.890917 0.659559
v -6.051874 -3.030534 0.246231
v -6.332500 -2.549004 0.246231
v -6.137696 -1.535590 0.246231
v -6.286795 -1.184239 0.246231
v -6.126293 -2.016337 0.246231
v 6.043382 -3.058702 0.253193
v -6.077655 -0.751864 0.246231
v 0.000000 -0.705329 0.246231
v 5.890748 -1.177046 -0.167100
v 5.936158 -2.548668 -0.167100
v 5.698016 -1.780005 -0.166988
v 5.799040 -2.887611 0.659559
v 5.890748 -1.177046 0.659559
v 5.936158 -2.548668 0.659559
v 5.743571 -1.515991 0.659559
v 5.731424 -2.032328 0.659559
v 5.815164 -0.890917 -0.167100
v 5.815164 -0.890917 0.659559
v 6.332500 -2.549004 0.246231
v 6.137697 -1.535590 0.246231
v 6.286793 -1.184239 0.246231
v 6.126294 -2.016337 0.246231
v 6.077656 -0.751864 0.246231
vn -0.0000 1.0000 -0.0000
vn 0.1593 -0.0079 0.9872
vn -0.1593 0.0079 0.9872
vn -0.5854 -0.0079 0.8107
vn 0.9872 -0.0079 -0.1593
vn 0.9872 0.0079 0.1593
vn 0.8107 -0.0079 0.5854
vn -0.1593 -0.0079 -0.9872
vn 0.1593 0.0079 -0.9872
vn 0.5854 -0.0079 -0.8107
vn -0.8107 0.0079 0.5854
vn -0.9872 -0.0079 0.1593
vn 0.5854 0.0079 0.8107
vn 0.8107 0.0079 -0.5854
vn -0.8107 -0.0079 -0.5854
vn -0.5854 0.0079 -0.8107
vn -0.9872 0.0079 -0.1593
vn 0.9720 0.0024 0.2349
vn 0.9393 -0.0025 0.3430
vn 0.9654 -0.0041 -0.2607
vn 0.1286 0.0041 0.9917
vn 0.0168 -0.0009 0.9999
vn 0.5890 -0.0024 0.8081
vn -0.9654 0.0042 -0.2607
vn -0.9319 -0.0010 -0.3627
vn -0.9654 -0.0042 0.2607
vn -0.0000 -0.0000 -1.0000
vn -0.0000 -0.0000 1.0000
vn -0.0001 0.0001 1.0000
vn -0.0002 -0.9225 0.3860
vn -0.0023 -0.9430 0.3328
vn -0.0024 -0.9434 0.3317
vn -0.3288 -0.0312 0.9439
vn -0.4355 0.0103 0.9001
vn -0.4682 -0.0728 0.8806
vn -0.4635 -0.0772 0.8827
vn -0.7120 0.1581 0.6841
vn -0.7064 -0.1795 0.6847
vn 0.3190 -0.9047 -0.2824
vn 0.0947 -0.9665 0.2385
vn 0.1765 -0.9781 0.1102
vn -0.3892 0.0130 0.9211
vn -0.3013 -0.0060 -0.9535
vn -0.7137 0.1495 -0.6843
vn -0.7087 -0.1695 -0.6849
vn 0.3368 -0.0290 -0.9411
vn 0.4354 0.0106 -0.9002
vn 0.3701 0.0676 0.9265
vn 0.3685 -0.0847 0.9258
vn 0.5060 0.0939 0.8574
vn 0.4644 0.0286 0.8851
vn 0.3887 0.0129 -0.9213
vn -0.5542 -0.0000 0.8324
vn -0.5570 -0.0000 0.8305
vn -0.5693 0.0010 -0.8221
vn -0.5667 0.0010 -0.8240
vn -0.9319 0.0010 0.3627
vn 0.6764 0.0025 0.7366
vn 0.5666 -0.0010 -0.8240
vn 0.5693 -0.0010 -0.8221
vn 0.9302 0.0009 -0.3671
vn 0.2405 -0.5451 -0.8032
vn -0.7356 -0.0496 0.6756
vn -0.7355 -0.0429 0.6761
vn -0.7031 -0.3581 0.6144
vn -0.7384 -0.0037 0.6744
vn -0.7378 -0.0113 0.6749
vn -0.7114 -0.1596 0.6844
vn -0.7114 -0.1598 0.6844
vn -0.7154 0.1305 0.6864
vn -0.7154 0.1307 0.6864
vn -0.0054 0.9387 0.3448
vn -0.0051 0.9382 0.3460
vn 0.0024 0.9265 0.3762
vn -0.7262 0.2878 0.6244
vn -0.7262 0.2878 -0.6244
vn -0.7384 -0.0037 -0.6744
vn -0.7378 -0.0111 -0.6749
vn -0.0000 0.9360 -0.3520
vn -0.0049 0.9360 -0.3519
vn -0.7154 0.1305 -0.6864
vn -0.7154 0.1307 -0.6864
vn -0.7357 -0.0495 -0.6755
vn -0.7356 -0.0428 -0.6761
vn 0.4591 -0.6734 -0.5794
vn -0.0009 -0.9345 -0.3558
vn -0.7114 -0.1596 -0.6844
vn -0.7115 -0.1598 -0.6843
vn -0.7032 -0.3580 -0.6143
vn 0.4756 -0.0388 -0.8788
vn 0.7021 -0.3476 0.6215
vn 0.7337 -0.0372 0.6785
vn 0.7337 -0.0439 0.6780
vn 0.7114 -0.1596 0.6844
vn 0.7378 -0.0113 0.6749
vn 0.7384 -0.0037 0.6744
vn 0.7115 -0.1598 0.6843
vn 0.7154 0.1305 0.6864
vn 0.7154 0.1307 0.6864
vn -0.0001 -0.9217 0.3880
vn 0.0027 0.9261 0.3774
vn 0.7262 0.2878 0.6244
vn 0.7262 0.2878 -0.6244
vn 0.7378 -0.0113 -0.6749
vn 0.7384 -0.0037 -0.6744
vn 0.0049 0.9360 -0.3519
vn 0.7154 0.1307 -0.6864
vn 0.7154 0.1305 -0.6864
vn 0.7293 -0.0511 -0.6822
vn 0.7114 -0.1598 -0.6844
vn 0.7114 -0.1596 -0.6844
vn 0.2600 -0.4887 -0.8328
vn -0.4417 -0.0378 -0.8964
vn -0.7441 -0.0572 0.6657
vn -0.7430 -0.1770 0.6455
vn -0.4359 0.0157 -0.8998
vn -0.3454 -0.0400 -0.9376
vn -0.7486 0.0084 0.6630
vn 0.0399 0.9700 0.2400
vn -0.1149 0.9643 0.2385
vn 0.0013 0.9999 0.0130
vn 0.1913 0.9731 0.1284
vn -0.7513 0.0855 0.6544
vn -0.5057 0.0937 -0.8576
vn -0.6288 0.1666 -0.7595
vn -0.7485 0.0109 -0.6630
vn -0.0000 0.9792 -0.2030
vn 0.0992 0.9498 -0.2968
vn -0.7457 -0.0347 -0.6654
vn 0.0389 -0.9683 -0.2466
vn -0.6234 -0.2457 -0.7423
vn 0.4629 -0.0823 -0.8826
vn 0.3544 -0.0377 0.9343
vn 0.4561 -0.0606 0.8879
vn 0.6834 -0.1803 0.7074
vn 0.7274 -0.0191 0.6859
vn 0.7127 -0.1594 0.6831
vn 0.7372 -0.0095 0.6756
vn 0.7105 0.1355 0.6905
vn -0.0408 -0.9588 0.2813
vn -0.1021 0.9412 0.3221
vn -0.1232 0.9747 -0.1865
vn 0.5969 0.2224 0.7709
vn 0.7916 0.0935 -0.6038
vn 0.7484 0.0093 -0.6632
vn -0.0405 0.9681 -0.2472
vn 0.7115 0.1535 -0.6857
vn 0.7341 -0.0609 -0.6763
vn 0.7107 -0.1823 -0.6795
vt 0.147525 0.138425
vt 0.234565 0.141706
vt 0.083657 0.197650
vt 0.080376 0.284690
vt 0.139601 0.348558
vt 0.290509 0.292614
vt 0.222195 0.985546
vt 0.243844 0.397338
vt 0.275488 0.985589
vt 0.115623 0.985561
vt 0.137255 0.397212
vt 0.168908 0.985522
vt 0.019854 0.985719
vt 0.030653 0.397099
vt 0.062341 0.985620
vt 0.297132 0.397361
vt 0.328785 0.985670
vt 0.190551 0.397295
vt 0.083955 0.397120
vt 0.382086 0.985764
vt 0.403698 0.397263
vt 0.435386 0.985785
vt 0.350417 0.397323
vt 0.326299 0.397348
vt 0.312935 0.985639
vt 0.355435 0.985721
vt 0.243844 0.397338
vt 0.232992 0.985554
vt 0.272962 0.985587
vt 0.110605 0.397162
vt 0.099777 0.985580
vt 0.142265 0.985534
vt 0.940716 0.983453
vt 0.707981 0.456735
vt 0.810865 0.455549
vt 0.937728 0.983506
vt 0.877338 0.445383
vt 0.543293 0.457603
vt 0.605846 0.441926
vt 0.502353 0.427788
vt 0.502370 0.426984
vt 0.929410 0.455195
vt 0.758765 0.456150
vt 0.937728 0.983506
vt 0.543293 0.457603
vt 0.710995 0.401757
vt 0.807671 0.400966
vt 0.502353 0.427788
vt 0.758074 0.456158
vt 0.940716 0.983456
vt 0.293791 0.205574
vt 0.226642 0.351840
vt 0.446185 0.397164
vt 0.122664 0.341542
vt 0.187082 0.358856
vt 0.251503 0.341542
vt 0.290509 0.292613
vt 0.122664 0.148722
vt 0.270529 0.167749
vt 0.300807 0.222511
vt 0.195550 0.985529
vt 0.190552 0.397295
vt 0.191371 0.131409
vt 0.062340 0.985620
vt 0.057304 0.397065
vt 0.019854 0.397140
vt 0.153105 0.397244
vt 0.286336 0.397362
vt 0.408736 0.985818
vt 0.446185 0.985744
vt 0.403699 0.397263
vt 0.366263 0.397304
vt 0.543300 0.463663
vt 0.605845 0.441926
vt 0.600598 0.388665
vt 0.543293 0.457663
vt 0.881622 0.392271
vt 0.990549 0.982396
vt 0.969022 0.423614
vt 0.969022 0.423613
vt 0.881621 0.392270
vt 0.543300 0.463663
vt 0.083657 0.197651
vt 0.080376 0.284691
s 1
f 13/1/1 9/2/1 15/3/1
f 12/4/1 15/3/1 16/5/1
f 9/2/1 10/6/1 16/5/1
f 6/7/2 12/8/3 1/9/4
f 7/10/5 13/11/6 2/12/7
f 8/13/8 14/14/9 4/15/10
f 1/9/4 16/16/11 5/17/12
f 2/12/7 15/18/13 6/7/2
f 4/15/10 9/19/14 7/10/5
f 3/20/15 10/21/16 8/22/8
f 5/17/12 11/23/17 3/20/15
f 27/24/18 25/25/19 21/26/20
f 32/27/21 22/28/22 17/29/23
f 29/30/24 26/31/25 23/32/26
f 43/33/27 41/34/27 40/35/27
f 47/35/28 49/36/28 45/37/28
f 44/38/29 49/36/28 46/39/29
f 57/40/30 44/38/31 52/41/32
f 49/36/28 51/42/28 45/37/28
f 62/35/27 43/33/27 60/37/27
f 49/36/28 68/34/28 67/35/28
f 70/42/28 49/36/28 65/37/28
f 43/33/27 69/42/27 60/37/27
f 85/43/33 86/44/28 83/37/34
f 82/45/35 86/44/28 84/39/36
f 93/46/37 85/43/33 91/47/38
f 94/48/39 82/45/40 89/41/41
f 86/44/28 88/42/42 83/37/34
f 79/43/43 93/46/44 91/47/45
f 99/49/46 81/50/27 97/37/47
f 86/44/28 104/34/48 103/35/49
f 106/42/50 86/44/28 101/37/51
f 81/50/27 105/42/52 97/37/47
f 9/2/1 14/51/1 10/6/1
f 15/3/1 9/2/1 16/5/1
f 16/5/1 10/6/1 11/52/1
f 4/15/10 14/14/9 9/19/14
f 5/17/12 16/16/11 11/23/17
f 6/7/2 15/18/13 12/8/3
f 7/10/5 9/19/14 13/11/6
f 8/22/8 10/21/16 14/53/9
f 3/20/15 11/23/17 10/21/16
f 1/9/4 12/8/3 16/16/11
f 2/12/7 13/11/6 15/18/13
f 36/54/1 27/55/1 31/56/1 35/57/1
f 33/58/1 36/54/1 35/57/1 30/59/1
f 35/57/1 34/60/1 30/59/1
f 18/61/53 22/28/22 32/27/21 28/62/54
f 33/58/1 30/59/1 29/63/1
f 24/13/27 20/64/55 30/65/56 34/66/27
f 33/67/57 29/30/24 23/32/26
f 36/68/58 17/29/23 25/25/19 27/24/18
f 19/69/59 24/70/27 34/53/27 35/71/60
f 21/26/20 19/69/59 35/71/60 31/72/61
f 20/64/55 26/31/25 29/30/24 30/65/56
f 23/32/26 18/61/53 28/62/54 33/67/57
f 36/68/58 32/27/21 17/29/23
f 41/34/27 43/33/27 42/73/62 39/74/27
f 31/72/61 27/24/18 21/26/20
f 46/39/63 53/75/64 52/41/65 44/38/65
f 40/35/27 38/37/27 43/33/27
f 37/76/27 39/74/27 42/73/62
f 49/36/28 47/35/28 48/34/28
f 48/34/28 46/39/29 49/36/28
f 45/37/66 55/77/67 54/47/68 47/35/69
f 47/35/69 54/47/68 56/46/70 48/34/71
f 46/39/63 48/34/71 56/46/70 53/75/64
f 51/42/72 49/36/73 59/78/74 58/79/72
f 58/79/75 55/77/67 45/37/66 51/42/75
f 43/33/27 38/37/27 50/42/27
f 58/80/76 50/42/76 38/37/77 55/81/78
f 59/78/79 43/33/79 50/42/80 58/80/80
f 56/46/81 41/34/82 39/74/83 53/75/84
f 57/40/85 52/41/86 37/76/86 42/73/62
f 56/46/81 54/47/87 40/35/88 41/34/82
f 54/47/87 55/81/78 38/37/77 40/35/88
f 52/41/89 53/75/84 39/74/83 37/76/89
f 42/73/62 43/33/27 63/34/27 61/74/90
f 43/33/27 62/35/27 63/34/27
f 49/36/28 44/38/29 64/76/28 66/39/28
f 49/36/28 66/39/28 68/34/28
f 67/35/28 65/37/28 49/36/28
f 57/40/91 71/75/92 66/39/93 64/76/91
f 72/47/94 73/77/95 65/37/96 67/35/97
f 74/46/98 72/47/94 67/35/97 68/34/99
f 66/39/93 71/75/92 74/46/98 68/34/99
f 64/76/100 44/38/31 57/40/30
f 70/42/101 75/79/101 59/78/74 49/36/73
f 65/37/96 73/77/95 75/79/102 70/42/102
f 75/80/103 73/81/104 60/37/105 69/42/103
f 69/42/106 43/33/79 59/78/79 75/80/106
f 61/74/90 63/34/107 74/46/108 71/75/109
f 74/46/108 63/34/107 62/35/110 72/47/111
f 72/47/111 62/35/110 60/37/105 73/81/104
f 57/40/85 42/73/62 61/74/90 71/75/109
f 79/43/43 81/50/27 80/82/112 78/74/113
f 84/39/36 90/75/114 89/41/115 82/45/35
f 79/43/43 77/37/116 81/50/27
f 76/76/117 78/74/113 80/82/112
f 28/83/1 32/84/1 36/54/1 33/58/1
f 85/43/33 84/39/36 86/44/28
f 83/37/34 92/77/118 91/47/38 85/43/33
f 84/39/36 85/43/33 93/46/37 90/75/114
f 88/42/119 86/44/120 96/78/121 95/79/122
f 95/79/123 92/77/118 83/37/34 88/42/42
f 81/50/27 77/37/116 87/42/124
f 95/80/125 87/42/124 77/37/116 92/81/126
f 96/78/121 81/50/127 87/42/128 95/80/122
f 93/46/44 79/43/43 78/74/113 90/75/129
f 94/48/39 89/41/41 76/76/130 80/82/112
f 91/47/45 92/81/126 77/37/116 79/43/43
f 89/41/131 90/75/129 78/74/113 76/76/117
f 80/82/112 81/50/27 99/49/46 98/74/132
f 86/44/28 82/45/35 100/76/133 102/39/134
f 86/44/28 102/39/134 104/34/48
f 103/35/49 101/37/51 86/44/28
f 94/48/135 107/75/136 102/39/134 100/76/133
f 108/47/137 109/77/138 101/37/51 103/35/49
f 110/46/139 108/47/137 103/35/49 104/34/48
f 102/39/134 107/75/136 110/46/139 104/34/48
f 100/76/140 82/45/40 94/48/39
f 106/42/141 111/79/142 96/78/121 86/44/120
f 101/37/51 109/77/138 111/79/143 106/42/50
f 111/80/144 109/81/145 97/37/47 105/42/52
f 105/42/146 81/50/127 96/78/121 111/80/142
f 98/74/132 99/49/46 110/46/147 107/75/148
f 108/47/149 99/49/46 97/37/47 109/81/145
f 99/49/46 108/47/149 110/46/147
f 94/48/39 80/82/112 98/74/132 107/75/148
