# Blender 4.5.3 LTS
# www.blender.org
o Collider_Circuito_castillo.010
v 114.699554 94.302437 -567.589355
v 111.756058 96.410637 -607.746338
v 106.983185 96.403435 -566.195679
v 97.347382 98.781570 -605.274902
v 99.103348 98.668564 -563.413452
v 83.495697 101.265656 -600.499207
v 91.570496 101.032829 -559.362732
v 70.468262 103.867935 -593.602356
v 84.849854 103.429260 -554.254944
v 58.577534 106.595428 -584.675903
v 79.325562 105.793221 -548.362305
v 48.217098 109.452820 -573.750549
v 75.259857 108.072289 -541.966064
v 39.902386 112.432564 -560.848083
v 72.772293 110.245872 -535.251953
v 34.291569 115.495331 -546.085693
v 71.915344 112.345253 -528.168762
v 32.109852 118.549858 -529.817749
v 72.885803 114.444626 -520.389526
v 33.938133 121.462013 -512.674072
v 76.206757 116.609482 -511.510742
v 40.031048 124.106339 -495.361176
v 82.701324 118.835289 -501.270050
v 50.343159 126.427452 -478.444580
v 87.272827 120.599556 -496.413574
v 58.921253 127.389137 -468.560638
v 93.308060 122.666824 -491.565247
v 69.068756 128.585373 -459.893188
v 100.421539 124.937706 -487.223755
v 80.583694 130.008453 -452.489960
v 108.213409 127.334282 -483.745636
v 93.278473 131.629257 -446.540955
v 116.270096 129.777161 -481.394531
v 106.979218 133.420044 -442.329132
v 124.192474 132.190445 -480.338440
v 121.497574 135.349640 -440.233002
v 131.656052 134.512802 -480.646759
v 136.570572 137.372314 -440.729767
v 138.509979 136.716125 -482.335052
v 151.761627 139.409088 -444.350372
v 144.845428 138.818497 -485.515747
v 166.392105 141.334824 -451.529022
v 150.890594 140.863953 -490.591736
v 179.646347 142.998367 -462.409393
v 156.732330 142.869736 -498.270752
v 190.850052 144.275452 -476.830200
v 161.950333 144.714203 -508.840057
v 199.835999 145.180557 -495.050507
v 164.266739 145.859283 -517.541016
v 204.511887 146.576813 -515.194336
v 114.699554 134.339188 -567.589355
v 111.756058 136.447372 -607.746338
v 106.983185 136.440186 -566.195679
v 97.347382 138.818329 -605.274902
v 99.103348 138.705307 -563.413452
v 83.495697 141.302414 -600.499207
v 91.570496 141.069580 -559.362732
v 70.468262 143.904678 -593.602356
v 84.849854 143.466003 -554.254944
v 58.577534 146.632172 -584.675903
v 79.325562 145.829971 -548.362305
v 48.217098 149.489578 -573.750549
v 75.259857 148.109024 -541.966064
v 39.902386 152.469330 -560.848083
v 72.772293 150.282608 -535.251953
v 34.291569 155.532074 -546.085693
v 71.915344 152.381989 -528.168762
v 32.109852 158.586609 -529.817749
v 72.885803 154.481369 -520.389526
v 33.938133 161.498749 -512.674072
v 76.206757 156.646225 -511.510742
v 40.031048 164.143097 -495.361176
v 82.701324 158.872055 -501.270050
v 50.343159 166.464203 -478.444580
v 87.272827 160.636322 -496.413574
v 58.921253 167.425888 -468.560638
v 93.308060 162.703583 -491.565247
v 69.068756 168.622116 -459.893188
v 100.421539 164.974472 -487.223755
v 80.583694 170.045197 -452.489960
v 108.213409 167.371033 -483.745636
v 93.278473 171.666000 -446.540955
v 116.270096 169.813904 -481.394531
v 106.979218 173.456787 -442.329132
v 124.192474 172.227188 -480.338440
v 121.497574 175.386383 -440.233002
v 131.656052 174.549545 -480.646759
v 136.570572 177.409058 -440.729767
v 138.509979 176.752869 -482.335052
v 151.761627 179.445831 -444.350372
v 144.845428 178.855240 -485.515747
v 166.392105 181.371567 -451.529022
v 150.890594 180.900696 -490.591736
v 179.646347 183.035110 -462.409393
v 156.732330 182.906479 -498.270752
v 190.850052 184.312195 -476.830200
v 161.950333 184.750946 -508.840057
v 199.835999 185.217300 -495.050507
v 164.266739 185.896027 -517.541016
v 204.511887 186.613556 -515.194336
vn 0.3263 -0.0000 0.9453
vn 0.5328 -0.0000 0.8462
vn 0.5665 -0.0000 0.8240
vn 0.3659 -0.0000 0.9306
vn -0.5345 -0.0000 -0.8452
vn -0.3300 -0.0000 -0.9440
vn -0.3465 -0.0000 -0.9380
vn -0.5478 -0.0000 -0.8366
vn 0.1218 -0.0000 0.9926
vn 0.1600 -0.0000 0.9871
vn -0.1247 -0.0000 -0.9922
vn -0.1414 -0.0000 -0.9899
vn -0.0621 -0.0000 0.9981
vn -0.0292 -0.0000 0.9996
vn 0.0626 -0.0000 -0.9980
vn 0.0478 -0.0000 -0.9989
vn -0.2204 -0.0000 0.9754
vn -0.1931 -0.0000 0.9812
vn 0.2252 -0.0000 -0.9743
vn 0.2129 -0.0000 -0.9771
vn -0.3560 -0.0000 0.9345
vn -0.3334 -0.0000 0.9428
vn 0.3650 -0.0000 -0.9310
vn 0.3550 -0.0000 -0.9349
vn -0.4750 -0.0000 0.8800
vn -0.4555 -0.0000 0.8902
vn 0.4877 -0.0000 -0.8730
vn 0.4796 -0.0000 -0.8775
vn 0.2020 0.9791 0.0234
vn 0.2067 0.9784 0.0086
vn 0.2138 0.9766 -0.0216
vn 0.2164 0.9749 -0.0526
vn 0.2149 0.9730 -0.0843
vn 0.2093 0.9709 -0.1164
vn 0.1986 0.9688 -0.1481
vn 0.1819 0.9672 -0.1773
vn 0.1590 0.9666 -0.2009
vn 0.1316 0.9676 -0.2154
vn 0.1035 0.9702 -0.2191
vn 0.0679 0.9732 -0.2198
vn 0.0165 0.9752 -0.2206
vn 0.0164 0.9752 -0.2206
vn -0.0389 0.9764 -0.2123
vn -0.0868 0.9775 -0.1923
vn -0.1273 0.9782 -0.1641
vn -0.1598 0.9786 -0.1293
vn -0.1826 0.9791 -0.0894
vn -0.1929 0.9801 -0.0465
vn -0.1877 0.9822 -0.0041
vn -0.1878 0.9822 -0.0042
vn -0.1656 0.9857 0.0320
vn -0.1287 0.9901 0.0563
vn -0.0827 0.9944 0.0656
vn -0.0451 0.9963 0.0732
vn -0.0316 0.9963 0.0801
vn -0.7124 -0.0000 -0.7018
vn -0.7207 -0.0000 -0.6933
vn 0.7128 -0.0000 0.7014
vn 0.7352 -0.0000 0.6778
vn -0.8457 -0.0000 -0.5337
vn -0.8496 -0.0000 -0.5275
vn 0.8444 -0.0000 0.5357
vn 0.8560 -0.0000 0.5169
vn -0.9403 -0.0000 -0.3403
vn -0.9431 -0.0000 -0.3326
vn 0.9330 -0.0000 0.3600
vn 0.9392 -0.0000 0.3433
vn -0.9741 -0.0000 -0.2261
vn 0.9663 -0.0000 0.2573
vn 0.2401 -0.0000 0.9708
vn 0.1691 -0.0000 0.9856
vn 0.2565 -0.0000 0.9665
vn -0.1777 -0.0000 -0.9841
vn -0.2431 -0.0000 -0.9700
vn -0.2692 -0.0000 -0.9631
vn 0.3903 -0.0000 0.9207
vn 0.4058 -0.0000 0.9139
vn -0.3924 -0.0000 -0.9198
vn -0.4164 -0.0000 -0.9092
vn 0.5282 -0.0000 0.8491
vn 0.5433 -0.0000 0.8396
vn -0.5295 -0.0000 -0.8483
vn -0.5524 -0.0000 -0.8336
vn 0.6579 -0.0000 0.7531
vn 0.6727 -0.0000 0.7399
vn -0.6584 -0.0000 -0.7527
vn -0.6807 -0.0000 -0.7325
vn 0.7795 -0.0000 0.6264
vn 0.7934 -0.0000 0.6087
vn -0.7795 -0.0000 -0.6264
vn -0.8006 -0.0000 -0.5992
vn 0.8867 -0.0000 0.4623
vn 0.8983 -0.0000 0.4395
vn -0.8868 -0.0000 -0.4621
vn -0.9044 -0.0000 -0.4266
vn 0.9659 -0.0000 0.2590
vn 0.9726 -0.0000 0.2323
vn -0.9666 -0.0000 -0.2564
vn -0.9768 -0.0000 -0.2141
vn 0.9996 -0.0000 0.0269
vn 1.0000 -0.0000 -0.0000
vn -0.9998 -0.0000 -0.0194
vn -0.9997 -0.0000 0.0234
vn 0.9778 -0.0000 -0.2093
vn 0.9728 -0.0000 -0.2318
vn -0.9752 -0.0000 0.2212
vn -0.9665 -0.0000 0.2565
vn 0.9072 -0.0000 -0.4208
vn 0.8997 -0.0000 -0.4365
vn -0.9012 -0.0000 0.4334
vn -0.8892 -0.0000 0.4575
vn 0.8103 -0.0000 -0.5860
vn 0.8043 -0.0000 -0.5942
vn -0.7982 -0.0000 0.6024
vn -0.7818 -0.0000 0.6235
vn 0.7071 -0.0000 -0.7071
vn 0.7016 -0.0000 -0.7126
vn -0.6873 -0.0000 0.7264
vn -0.6704 -0.0000 0.7420
vn 0.5999 -0.0000 -0.8001
vn 0.5932 -0.0000 -0.8051
vn -0.5836 -0.0000 0.8120
vn -0.5659 -0.0000 0.8244
vt 0.877193 0.000000
vt 0.881579 0.000000
vt 0.881579 1.000000
vt 0.877193 1.000000
vt 0.872807 0.000000
vt 0.872807 1.000000
vt 0.868421 0.000000
vt 0.868421 1.000000
vt 0.864035 0.000000
vt 0.864035 1.000000
vt 0.859649 0.000000
vt 0.859649 1.000000
vt 0.855263 0.000000
vt 0.855263 1.000000
vt 0.793860 1.000000
vt 0.798246 1.000000
vt 0.798246 0.000000
vt 0.793860 0.000000
vt 0.802632 1.000000
vt 0.802632 0.000000
vt 0.807018 1.000000
vt 0.807018 0.000000
vt 0.811404 1.000000
vt 0.811404 0.000000
vt 0.815789 1.000000
vt 0.815789 0.000000
vt 0.820175 1.000000
vt 0.820175 0.000000
vt 0.824561 1.000000
vt 0.824561 0.000000
vt 0.828947 1.000000
vt 0.828947 0.000000
vt 0.833333 1.000000
vt 0.833333 0.000000
vt 0.837719 1.000000
vt 0.837719 0.000000
vt 0.842105 1.000000
vt 0.842105 0.000000
vt 0.846491 1.000000
vt 0.846491 0.000000
vt 0.850877 1.000000
vt 0.850877 0.000000
vt 0.885965 1.000000
vt 0.885965 0.000000
vt 0.890351 1.000000
vt 0.890351 0.000000
vt 0.894737 1.000000
vt 0.894737 0.000000
vt 0.899123 1.000000
vt 0.899123 0.000000
s 1
f 39/1/1 41/2/2 91/2/3 89/1/4
f 42/3/5 40/4/6 90/4/7 92/3/8
f 37/5/9 39/1/1 89/1/4 87/5/10
f 40/4/6 38/6/11 88/6/12 90/4/7
f 35/7/13 37/5/9 87/5/10 85/7/14
f 38/6/11 36/8/15 86/8/16 88/6/12
f 33/9/17 35/7/13 85/7/14 83/9/18
f 36/8/15 34/10/19 84/10/20 86/8/16
f 31/11/21 33/9/17 83/9/18 81/11/22
f 34/10/19 32/12/23 82/12/24 84/10/20
f 29/13/25 31/11/21 81/11/22 79/13/26
f 32/12/23 30/14/27 80/14/28 82/12/24
f 2/15/29 4/16/30 3/17/30 1/18/29
f 4/16/30 6/19/31 5/20/31 3/17/30
f 6/19/31 8/21/32 7/22/32 5/20/31
f 8/21/32 10/23/33 9/24/33 7/22/32
f 10/23/33 12/25/34 11/26/34 9/24/33
f 12/25/34 14/27/35 13/28/35 11/26/34
f 14/27/35 16/29/36 15/30/36 13/28/35
f 16/29/36 18/31/37 17/32/37 15/30/36
f 18/31/37 20/33/38 19/34/38 17/32/37
f 20/33/38 22/35/39 21/36/39 19/34/38
f 22/35/39 24/37/40 23/38/40 21/36/39
f 24/37/40 26/39/41 25/40/42 23/38/40
f 26/39/41 28/41/43 27/42/43 25/40/42
f 28/41/43 30/14/44 29/13/44 27/42/43
f 30/14/44 32/12/45 31/11/45 29/13/44
f 32/12/45 34/10/46 33/9/46 31/11/45
f 34/10/46 36/8/47 35/7/47 33/9/46
f 36/8/47 38/6/48 37/5/48 35/7/47
f 38/6/48 40/4/49 39/1/50 37/5/48
f 40/4/49 42/3/51 41/2/51 39/1/50
f 42/3/51 44/43/52 43/44/52 41/2/51
f 44/43/52 46/45/53 45/46/53 43/44/52
f 46/45/53 48/47/54 47/48/54 45/46/53
f 48/47/54 50/49/55 49/50/55 47/48/54
f 44/43/56 42/3/5 92/3/8 94/43/57
f 41/2/2 43/44/58 93/44/59 91/2/3
f 46/45/60 44/43/56 94/43/57 96/45/61
f 43/44/58 45/46/62 95/46/63 93/44/59
f 48/47/64 46/45/60 96/45/61 98/47/65
f 45/46/62 47/48/66 97/48/67 95/46/63
f 50/49/68 48/47/64 98/47/65 100/49/68
f 47/48/66 49/50/69 99/50/69 97/48/67
f 4/16/70 2/15/71 52/15/71 54/16/72
f 1/18/73 3/17/74 53/17/75 51/18/73
f 6/19/76 4/16/70 54/16/72 56/19/77
f 3/17/74 5/20/78 55/20/79 53/17/75
f 8/21/80 6/19/76 56/19/77 58/21/81
f 5/20/78 7/22/82 57/22/83 55/20/79
f 10/23/84 8/21/80 58/21/81 60/23/85
f 7/22/82 9/24/86 59/24/87 57/22/83
f 12/25/88 10/23/84 60/23/85 62/25/89
f 9/24/86 11/26/90 61/26/91 59/24/87
f 14/27/92 12/25/88 62/25/89 64/27/93
f 11/26/90 13/28/94 63/28/95 61/26/91
f 16/29/96 14/27/92 64/27/93 66/29/97
f 13/28/94 15/30/98 65/30/99 63/28/95
f 18/31/100 16/29/96 66/29/97 68/31/101
f 15/30/98 17/32/102 67/32/103 65/30/99
f 20/33/104 18/31/100 68/31/101 70/33/105
f 17/32/102 19/34/106 69/34/107 67/32/103
f 22/35/108 20/33/104 70/33/105 72/35/109
f 19/34/106 21/36/110 71/36/111 69/34/107
f 24/37/112 22/35/108 72/35/109 74/37/113
f 21/36/110 23/38/114 73/38/115 71/36/111
f 26/39/116 24/37/112 74/37/113 76/39/117
f 23/38/114 25/40/118 75/40/119 73/38/115
f 28/41/120 26/39/116 76/39/117 78/41/121
f 25/40/118 27/42/122 77/42/123 75/40/119
f 30/14/27 28/41/120 78/41/121 80/14/28
f 27/42/122 29/13/25 79/13/26 77/42/123
