# Blender 4.5.3 LTS
# www.blender.org
o Terreno.003
v 1202.106934 27.475086 -740.149475
v 388.272278 9.001403 -773.946716
v 716.144897 43.819790 -740.149536
v 1202.106934 23.542393 -572.206726
v 716.144897 38.790070 -572.206787
v 1202.106934 33.002384 -669.475098
v 716.144897 51.386433 -669.475220
v 389.881653 4.921659 -727.995178
v 526.471802 6.201933 -572.206787
v 368.321655 -196.375122 -655.167725
v 483.973114 -194.557739 -572.206787
v 1202.106934 35.291325 -1650.114380
v 374.592438 55.486813 -1650.114624
v 716.144958 45.696014 -1650.114624
v 513.772034 -10.874635 -572.206787
v 382.801697 -12.242710 -708.390259
vn 0.0316 0.9986 -0.0434
vn -0.0754 0.9972 0.0022
vn -0.0256 0.9994 -0.0232
vn 0.0344 0.9930 0.1126
vn -0.0657 0.9902 0.1233
vn 0.0351 0.9993 0.0103
vn -0.0546 0.9978 0.0369
vn -0.2636 0.9513 0.1598
vn -0.3217 0.9045 0.2800
vn -0.6541 0.1849 0.7334
vn 0.0275 0.9996 0.0053
vn -0.0387 0.9989 0.0273
vn -0.0056 0.9999 0.0163
vn -0.6290 0.4513 0.6330
vn -0.6252 0.4690 0.6239
vt 0.527219 0.604616
vt 0.511073 0.604616
vt 0.511073 0.590922
vt 0.527219 0.590922
vt 0.465141 0.612855
vt 0.484370 0.590922
vt 0.511073 0.614566
vt 0.464914 0.619324
vt 0.527219 0.614566
vt 0.482582 0.590922
vt 0.464144 0.610095
vt 0.462105 0.602602
vt 0.478387 0.590922
vt 0.527219 0.742673
vt 0.511073 0.742673
vt 0.462988 0.742673
s 1
f 6/1/6 7/2/7 5/3/5 4/4/4
f 7/2/7 8/5/8 9/6/9 5/3/5
f 3/7/3 2/8/2 8/5/8 7/2/7
f 1/9/1 3/7/3 7/2/7 6/1/6
f 15/10/14 16/11/15 10/12/10 11/13/10
f 3/7/3 1/9/1 12/14/11 14/15/13
f 2/8/2 3/7/3 14/15/13 13/16/12
f 9/6/9 8/5/8 16/11/15 15/10/14
