# Blender 4.5.3 LTS
# www.blender.org
o Terreno
v -722.579773 -56.822918 627.323792
v -276.943878 -44.883617 627.323853
v -391.055847 -45.298042 627.323853
v -610.943665 -56.822918 627.323792
v -444.833435 -40.847897 627.323853
v -333.999847 -46.031757 627.323853
v -722.579773 -46.859970 492.897278
v -276.943878 -38.082489 492.897308
v -391.055847 -45.102165 492.897308
v -610.943665 -38.336479 492.897278
v -444.833435 -41.452698 492.897308
v -333.999847 -33.288624 492.897308
v -527.888550 -48.835407 627.323853
v -527.888550 -37.247875 492.897308
v -854.734314 -49.073490 627.323792
v -854.734314 -38.867554 492.897278
v -722.579773 -43.991013 735.708862
v -276.943878 -29.919296 735.708923
v -391.055847 -23.486181 735.708923
v -610.943665 -43.991013 735.708862
v -444.833435 -25.534431 735.708923
v -333.999847 -24.217352 735.708923
v -527.888550 -36.003506 735.708923
v -854.734314 -36.241585 735.708862
v -362.527832 -45.527378 627.323853
v -362.527832 -39.195396 492.897308
v -362.527832 -22.343151 735.708923
v -722.579773 -36.627590 890.781494
v -276.943878 -22.555872 890.781494
v -391.055847 -16.122757 890.781494
v -610.943665 -36.627590 890.781494
v -444.833435 -18.171007 890.781494
v -333.999847 -16.853928 890.781494
v -527.888550 -28.640079 890.781494
v -854.734314 -28.878162 890.781494
v -362.527832 -14.979726 890.781494
vn 0.0199 0.9997 -0.0138
vn 0.0358 0.9982 -0.0476
vn -0.0045 0.9961 -0.0877
vn -0.0469 0.9989 -0.0046
vn -0.0090 0.9978 -0.0651
vn 0.0045 0.9984 -0.0572
vn 0.0106 0.9959 0.0900
vn 0.0318 0.9969 0.0725
vn -0.0119 0.9999 0.0113
vn -0.0461 0.9931 0.1081
vn 0.0262 0.9995 0.0197
vn -0.0307 0.9970 0.0716
vn -0.0707 0.9972 -0.0230
vn -0.0385 0.9964 0.0760
vn 0.0590 0.9980 -0.0215
vn 0.0593 0.9954 0.0747
vn 0.0292 0.9962 -0.0826
vn 0.0692 0.9917 -0.1080
vn -0.0181 0.9930 -0.1170
vn -0.0477 0.9954 -0.0826
vn -0.0624 0.9932 -0.0980
vn 0.0615 0.9913 -0.1165
vn -0.1064 0.9907 -0.0850
vn 0.0583 0.9949 -0.0822
vn -0.0423 0.9960 -0.0788
vn -0.0965 0.9942 0.0475
vn 0.0127 0.9921 -0.1251
vn 0.0293 0.9984 -0.0474
vn 0.0993 0.9939 -0.0472
vn -0.0390 0.9981 -0.0474
vn -0.0479 0.9977 -0.0474
vn -0.0812 0.9956 -0.0473
vn 0.0823 0.9955 -0.0473
vn -0.1103 0.9928 -0.0471
vn 0.0585 0.9972 -0.0473
vn 0.0127 0.9988 -0.0474
vt 0.371263 0.422049
vt 0.371263 0.440974
vt 0.363230 0.440974
vt 0.363230 0.422049
vt 0.355198 0.422049
vt 0.355198 0.440974
vt 0.347627 0.440974
vt 0.347627 0.422049
vt 0.335934 0.422049
vt 0.335934 0.440974
vt 0.324241 0.440974
vt 0.324241 0.422049
vt 0.359214 0.422049
vt 0.359214 0.440974
vt 0.308525 0.440974
vt 0.308525 0.422049
vt 0.289920 0.440974
vt 0.289920 0.422049
vt 0.355198 0.406790
vt 0.359214 0.406790
vt 0.324241 0.406790
vt 0.335934 0.406790
vt 0.289920 0.406790
vt 0.308525 0.406790
vt 0.363230 0.406790
vt 0.371263 0.406790
vt 0.347627 0.406790
vt 0.324241 0.384959
vt 0.335934 0.384959
vt 0.355198 0.384959
vt 0.359214 0.384959
vt 0.289920 0.384959
vt 0.308525 0.384959
vt 0.347627 0.384959
vt 0.363230 0.384959
vt 0.371263 0.384959
s 1
f 2/1/2 8/2/8 12/3/12 6/4/6
f 3/5/3 9/6/9 11/7/11 5/8/5
f 13/9/13 14/10/14 10/11/10 4/12/4
f 25/13/25 26/14/26 9/6/9 3/5/3
f 4/12/4 10/11/10 7/15/7 1/16/1
f 5/8/5 11/7/11 14/10/14 13/9/13
f 1/16/1 7/15/7 16/17/16 15/18/15
f 25/13/25 3/5/3 19/19/19 27/20/27
f 13/9/13 4/12/4 20/21/20 23/22/23
f 1/16/1 15/18/15 24/23/24 17/24/17
f 2/1/2 6/4/6 22/25/22 18/26/18
f 4/12/4 1/16/1 17/24/17 20/21/20
f 5/8/5 13/9/13 23/22/23 21/27/21
f 3/5/3 5/8/5 21/27/21 19/19/19
f 6/4/6 25/13/25 27/20/27 22/25/22
f 6/4/6 12/3/12 26/14/26 25/13/25
f 23/22/23 20/21/20 31/28/31 34/29/34
f 27/20/27 19/19/19 30/30/30 36/31/36
f 17/24/17 24/23/24 35/32/35 28/33/28
f 19/19/19 21/27/21 32/34/32 30/30/30
f 20/21/20 17/24/17 28/33/28 31/28/31
f 21/27/21 23/22/23 34/29/34 32/34/32
f 18/26/18 22/25/22 33/35/33 29/36/29
f 22/25/22 27/20/27 36/31/36 33/35/33
