# Blender 4.5.3 LTS
# www.blender.org
o Terreno.008
v 830.831543 68.732330 890.781494
v 586.252258 44.429558 890.781494
v 434.394104 30.707083 890.781494
v 350.622894 13.044436 890.781494
v 830.831543 103.673462 1268.369629
v 586.252258 73.934280 1268.369629
v 434.394104 56.231701 1268.369629
v 350.622894 36.226418 1268.369629
v 830.831543 139.718094 1619.117676
v 586.252258 107.786705 1619.117676
v 434.394104 88.627930 1619.117676
v 350.622894 67.815620 1619.117676
v 1202.106934 74.681770 890.781433
v 1202.106934 113.438324 1268.369507
v 1202.106934 151.618866 1619.117554
vn -0.0654 0.9937 -0.0909
vn -0.1060 0.9913 -0.0784
vn -0.1611 0.9846 -0.0677
vn -0.2189 0.9737 -0.0628
vn -0.0710 0.9928 -0.0964
vn -0.1141 0.9896 -0.0871
vn -0.1692 0.9824 -0.0794
vn -0.2272 0.9709 -0.0753
vn -0.0762 0.9919 -0.1019
vn -0.1222 0.9879 -0.0959
vn -0.1766 0.9801 -0.0910
vn -0.2358 0.9678 -0.0883
vn -0.0211 0.9951 -0.0971
vn -0.0250 0.9946 -0.1012
vn -0.0290 0.9940 -0.1052
vt 0.527219 0.384959
vt 0.492786 0.384959
vt 0.492786 0.331801
vt 0.527219 0.331801
vt 0.471407 0.384959
vt 0.471407 0.331801
vt 0.459614 0.384959
vt 0.459614 0.331801
vt 0.492786 0.282421
vt 0.527219 0.282421
vt 0.471407 0.282421
vt 0.459614 0.282421
vt 0.579208 0.331801
vt 0.579208 0.384959
vt 0.579208 0.282421
s 1
f 1/1/1 2/2/2 6/3/6 5/4/5
f 2/2/2 3/5/3 7/6/7 6/3/6
f 3/5/3 4/7/4 8/8/8 7/6/7
f 5/4/5 6/3/6 10/9/10 9/10/9
f 6/3/6 7/6/7 11/11/11 10/9/10
f 7/6/7 8/8/8 12/12/12 11/11/11
f 1/1/1 5/4/5 14/13/14 13/14/13
f 5/4/5 9/10/9 15/15/15 14/13/14
