# Blender 4.5.3 LTS
# www.blender.org
g Collider_Circuito_castillo_Caastyillo.003
v 164.266739 145.859283 -517.541016
v 204.511887 146.576813 -515.194336
v 163.938629 146.717270 -521.184265
v 201.933228 148.469803 -534.564575
v 162.453369 147.504166 -523.241882
v 192.151382 150.598190 -550.337097
v 158.273239 148.610474 -526.032959
v 178.242798 152.526245 -560.840759
v 150.355194 150.083954 -529.071899
v 162.789215 154.160889 -567.209412
v 139.363907 151.783554 -531.490051
v 146.664703 155.597946 -570.959473
v 126.418427 153.592422 -533.015076
v 130.288940 156.908997 -573.011475
v 112.559311 155.438675 -533.730835
v 114.160095 158.120667 -573.929565
v 98.700211 157.277130 -533.863464
v 98.903229 159.232834 -574.135437
v 85.639038 159.146683 -533.692444
v 85.259171 160.161377 -573.997803
v 73.995667 160.954163 -533.531677
v 74.146744 160.954163 -573.850708
v 65.437393 162.132751 -533.713684
v 65.437393 162.132751 -574.009766
v 55.277332 163.747513 -533.819702
v 54.874371 163.747513 -574.133728
v 48.447277 164.952148 -533.742310
v 47.841335 164.952148 -574.054260
v 41.195744 166.403976 -533.655151
v 40.692219 166.403976 -573.968201
v 34.183136 168.089783 -533.621643
v 34.114227 168.089783 -573.936096
v 27.977219 169.996368 -533.713013
v 28.887199 169.996368 -574.010376
v 164.266739 185.896027 -517.541016
v 204.511887 186.613556 -515.194336
v 163.938629 186.754013 -521.184265
v 201.933228 188.506546 -534.564575
v 162.453369 187.540909 -523.241882
v 192.151382 190.634933 -550.337097
v 158.273239 188.647217 -526.032959
v 178.242798 192.562988 -560.840759
v 150.355194 190.120697 -529.071899
v 162.789215 194.197632 -567.209412
v 139.363907 191.820297 -531.490051
v 146.664703 195.634689 -570.959473
v 126.418427 193.629166 -533.015076
v 130.288940 196.945740 -573.011475
v 112.559311 195.475418 -533.730835
v 114.160095 198.157410 -573.929565
v 98.700211 197.313873 -533.863464
v 98.903229 199.269577 -574.135437
v 85.639038 199.183426 -533.692444
v 85.259171 200.198120 -573.997803
v 73.995667 200.990906 -533.531677
v 74.146744 200.990906 -573.850708
v 65.437393 202.169495 -533.713684
v 65.437393 202.169495 -574.009766
v 55.277332 203.784256 -533.819702
v 54.874371 203.784256 -574.133728
v 48.447277 204.988892 -533.742310
v 47.841335 204.988892 -574.054260
v 41.195744 206.440720 -533.655151
v 40.692219 206.440720 -573.968201
v 34.183136 208.126526 -533.621643
v 34.114227 208.126526 -573.936096
v 27.977219 210.033096 -533.713013
v 28.887199 210.033096 -574.010376
v 23.081955 169.996368 -533.713013
v 23.991936 169.996368 -574.010376
v 23.081955 210.033096 -533.713013
v 23.991936 210.033096 -574.010376
vn -0.9463 -0.0000 0.3233
vn -0.9913 -0.0000 0.1320
vn -0.9366 -0.0000 0.3504
vn 0.9960 -0.0000 -0.0897
vn -0.7477 -0.0000 0.6641
vn -0.7297 -0.0000 0.6837
vn 0.8108 -0.0000 -0.5853
vn 0.7146 -0.0000 -0.6995
vn 0.6718 -0.0000 -0.7407
vn -0.5032 -0.0000 0.8642
vn -0.4885 -0.0000 0.8726
vn 0.4717 -0.0000 -0.8818
vn 0.4472 -0.0000 -0.8945
vn -0.3093 -0.0000 0.9510
vn -0.3002 -0.0000 0.9539
vn 0.2947 -0.0000 -0.9556
vn 0.2800 -0.0000 -0.9600
vn -0.1784 -0.0000 0.9840
vn -0.1730 -0.0000 0.9849
vn 0.1706 -0.0000 -0.9853
vn 0.1616 -0.0000 -0.9869
vn -0.0923 -0.0000 0.9957
vn -0.0890 -0.0000 0.9960
vn 0.0871 -0.0000 -0.9962
vn 0.0815 -0.0000 -0.9967
vn -0.0362 -0.0000 0.9993
vn -0.0342 -0.0000 0.9994
vn 0.0323 -0.0000 -0.9995
vn 0.0288 -0.0000 -0.9996
vn -0.0022 -0.0000 1.0000
vn -0.0012 -0.0000 1.0000
vn -0.0008 -0.0000 -1.0000
vn -0.0027 -0.0000 -1.0000
vn 0.0116 -0.0000 0.9999
vn 0.0117 -0.0000 0.9999
vn -0.0134 -0.0000 -0.9999
vn -0.0135 -0.0000 -0.9999
vn -0.0015 -0.0000 1.0000
vn -0.0035 -0.0000 1.0000
vn 0.0021 -0.0000 -1.0000
vn 0.0054 -0.0000 -1.0000
vn -0.0153 -0.0000 0.9999
vn -0.0147 -0.0000 0.9999
vn 0.0164 -0.0000 -0.9999
vn 0.0153 -0.0000 -0.9999
vn -0.0014 -0.0000 1.0000
vn 0.0010 -0.0000 1.0000
vn 0.0007 -0.0000 -1.0000
vn -0.0116 -0.0000 -0.9999
vn -0.0117 -0.0000 -0.9999
vn -0.0016 -0.0000 -1.0000
vn 0.0090 -0.0000 1.0000
vn 0.0079 -0.0000 1.0000
vn -0.0089 -0.0000 -1.0000
vn -0.0079 -0.0000 -1.0000
vn -0.0028 -0.0000 1.0000
vn -0.0064 -0.0000 1.0000
vn 0.0033 -0.0000 -1.0000
vn 0.0066 -0.0000 -1.0000
vn -0.0078 -0.0000 1.0000
vn -0.0062 -0.0000 1.0000
vn 0.0080 -0.0000 -1.0000
vn -0.0000 -0.0000 -1.0000
vn -0.0000 -0.0000 1.0000
vt 0.016763 0.090568
vt 0.018227 0.000350
vt 0.201065 0.021062
vt 0.199600 0.111280
vt 0.899123 0.000000
vt 0.903509 0.000000
vt 0.016881 0.176426
vt 0.199719 0.197138
vt 0.907895 0.000000
vt 0.016670 0.257018
vt 0.199507 0.277730
vt 0.912281 0.000000
vt 0.015488 0.334194
vt 0.198325 0.354906
vt 0.916667 0.000000
vt 0.013486 0.410539
vt 0.196324 0.431251
vt 0.921053 0.000000
vt 0.010936 0.486586
vt 0.193773 0.507298
vt 0.925439 0.000000
vt 0.008112 0.560989
vt 0.190949 0.581701
vt 0.929825 0.000000
vt 0.005297 0.631244
vt 0.188135 0.651956
vt 0.934211 0.000000
vt 0.002479 0.694037
vt 0.185316 0.714749
vt 0.938596 0.000000
vt 0.000350 0.745199
vt 0.183187 0.765911
vt 0.942982 0.000000
vt 0.001226 0.785589
vt 0.184063 0.806301
vt 0.947368 0.000000
vt 0.004998 0.867409
vt 0.003135 0.834666
vt 0.185973 0.855378
vt 0.187835 0.888121
vt 0.964912 0.000000
vt 0.973684 0.000000
vt 0.007929 0.900811
vt 0.190767 0.921523
vt 0.982456 0.000000
vt 0.012225 0.931723
vt 0.195062 0.952435
vt 0.991228 0.000000
vt 0.018227 0.956583
vt 0.201065 0.977295
vt 1.000000 0.000000
vt 0.198532 0.999650
vt 0.015695 0.978938
s 1
f 4/1/1 2/2/2 36/3/2 38/4/3
f 1/5/4 3/6/4 37/6/4 35/5/4
f 6/7/5 4/1/1 38/4/3 40/8/6
f 3/6/7 5/9/8 39/9/9 37/6/7
f 8/10/10 6/7/5 40/8/6 42/11/11
f 5/9/8 7/12/12 41/12/13 39/9/9
f 10/13/14 8/10/10 42/11/11 44/14/15
f 7/12/12 9/15/16 43/15/17 41/12/13
f 12/16/18 10/13/14 44/14/15 46/17/19
f 9/15/16 11/18/20 45/18/21 43/15/17
f 14/19/22 12/16/18 46/17/19 48/20/23
f 11/18/20 13/21/24 47/21/25 45/18/21
f 16/22/26 14/19/22 48/20/23 50/23/27
f 13/21/24 15/24/28 49/24/29 47/21/25
f 18/25/30 16/22/26 50/23/27 52/26/31
f 15/24/28 17/27/32 51/27/33 49/24/29
f 20/28/34 18/25/30 52/26/31 54/29/35
f 17/27/32 19/30/36 53/30/37 51/27/33
f 22/31/38 20/28/34 54/29/35 56/32/39
f 19/30/36 21/33/40 55/33/41 53/30/37
f 24/34/42 22/31/38 56/32/39 58/35/43
f 21/33/40 23/36/44 57/36/45 55/33/41
f 28/37/34 26/38/46 60/39/47 62/40/35
f 25/41/48 27/42/49 61/42/50 59/41/51
f 30/43/52 28/37/34 62/40/35 64/44/53
f 27/42/49 29/45/54 63/45/55 61/42/50
f 32/46/56 30/43/52 64/44/53 66/47/57
f 29/45/54 31/48/58 65/48/59 63/45/55
f 34/49/60 32/46/56 66/47/57 68/50/61
f 31/48/58 33/51/62 67/51/59 65/48/59
f 26/38/46 24/34/42 58/35/43 60/39/47
f 23/36/44 25/41/48 59/41/51 57/36/45
f 67/51/59 33/51/62 69/51/63 71/51/63
f 34/49/60 68/50/61 72/52/64 70/53/64
g Collider_Circuito_castillo.020_Caastyillo.032
v 164.266739 145.859283 -517.541016
v 204.511887 146.576813 -515.194336
v 163.938629 146.717270 -521.184265
v 201.933228 148.469803 -534.564575
v 162.453369 147.504166 -523.241882
v 192.151382 150.598190 -550.337097
v 158.273239 148.610474 -526.032959
v 178.242798 152.526245 -560.840759
v 150.355194 150.083954 -529.071899
v 162.789215 154.160889 -567.209412
v 139.363907 151.783554 -531.490051
v 146.664703 155.597946 -570.959473
v 126.418427 153.592422 -533.015076
v 130.288940 156.908997 -573.011475
v 112.559311 155.438675 -533.730835
v 114.160095 158.120667 -573.929565
v 98.700211 157.277130 -533.863464
v 98.903229 159.232834 -574.135437
v 85.639038 159.146683 -533.692444
v 85.259171 160.161377 -573.997803
v 73.995667 160.954163 -533.531677
v 74.146744 160.954163 -573.850708
v 65.437393 162.132751 -533.713684
v 65.437393 162.132751 -574.009766
v 55.277332 163.747513 -533.819702
v 54.874371 163.747513 -574.133728
v 48.447277 164.952148 -533.742310
v 47.841335 164.952148 -574.054260
v 41.195744 166.403976 -533.655151
v 40.692219 166.403976 -573.968201
v 34.183136 168.089783 -533.621643
v 34.114227 168.089783 -573.936096
v 27.977219 169.996368 -533.713013
v 28.887199 169.996368 -574.010376
v 23.081955 169.996368 -533.713013
v 23.991936 169.996368 -574.010376
v 21.173981 169.996368 -548.496338
v 21.479527 169.996368 -559.226990
vn -0.0143 0.9926 0.1205
vn 0.0022 0.9908 0.1351
vn 0.0022 0.9908 0.1352
vn 0.0357 0.9878 0.1518
vn 0.0360 0.9877 0.1519
vn 0.0635 0.9870 0.1475
vn 0.0636 0.9870 0.1475
vn 0.0805 0.9880 0.1319
vn 0.0805 0.9880 0.1318
vn 0.0897 0.9896 0.1122
vn 0.0949 0.9913 0.0914
vn 0.0984 0.9927 0.0701
vn 0.1023 0.9936 0.0479
vn 0.1091 0.9937 0.0243
vn 0.1245 0.9922 0.0062
vn 0.1447 0.9895 -0.0003
vn 0.1445 0.9895 -0.0003
vn 0.1627 0.9867 -0.0015
vn 0.1845 0.9828 -0.0024
vn 0.1844 0.9828 -0.0024
vn 0.1626 0.9867 -0.0015
vn 0.2193 0.9757 -0.0022
vn 0.2192 0.9757 -0.0022
vn 0.2789 0.9603 0.0008
vn 0.2786 0.9604 0.0008
vn 0.1618 0.9868 0.0017
vn 0.1587 0.9873 0.0017
vn -0.0000 1.0000 -0.0000
vt 0.899123 1.000000
vt 0.903509 1.000000
vt 0.903509 0.000000
vt 0.899123 0.000000
vt 0.907895 1.000000
vt 0.907895 0.000000
vt 0.912281 1.000000
vt 0.912281 0.000000
vt 0.916667 1.000000
vt 0.916667 0.000000
vt 0.921053 1.000000
vt 0.921053 0.000000
vt 0.925439 1.000000
vt 0.925439 0.000000
vt 0.929825 1.000000
vt 0.929825 0.000000
vt 0.934211 1.000000
vt 0.934211 0.000000
vt 0.938596 1.000000
vt 0.938596 0.000000
vt 0.942982 1.000000
vt 0.942982 0.000000
vt 0.947368 1.000000
vt 0.947368 0.000000
vt 0.964912 1.000000
vt 0.973684 1.000000
vt 0.973684 0.000000
vt 0.964912 0.000000
vt 0.982456 1.000000
vt 0.982456 0.000000
vt 0.991228 1.000000
vt 0.991228 0.000000
vt 1.000000 1.000000
vt 1.000000 0.000000
s 1
f 74/54/65 76/55/66 75/56/67 73/57/65
f 76/55/66 78/58/68 77/59/69 75/56/67
f 78/58/68 80/60/70 79/61/71 77/59/69
f 80/60/70 82/62/72 81/63/73 79/61/71
f 82/62/72 84/64/74 83/65/74 81/63/73
f 84/64/74 86/66/75 85/67/75 83/65/74
f 86/66/75 88/68/76 87/69/76 85/67/75
f 88/68/76 90/70/77 89/71/77 87/69/76
f 90/70/77 92/72/78 91/73/78 89/71/77
f 92/72/78 94/74/79 93/75/79 91/73/78
f 94/74/79 96/76/80 95/77/81 93/75/79
f 98/78/82 100/79/83 99/80/84 97/81/85
f 100/79/83 102/82/86 101/83/87 99/80/84
f 102/82/86 104/84/88 103/85/89 101/83/87
f 104/84/88 106/86/90 105/87/91 103/85/89
f 96/76/80 98/78/82 97/81/85 95/77/81
f 105/87/91 106/86/90 108/86/92 107/87/92
f 107/87/92 108/86/92 110/86/92 109/87/92
