# Blender 4.5.3 LTS
# www.blender.org
o Circuito_castillo
v 164.266739 145.859283 -517.541016
v 204.511887 146.576813 -515.194336
v 163.938629 146.717270 -521.184265
v 201.933228 148.469803 -534.564575
v 162.453369 147.504166 -523.241882
v 192.151382 150.598190 -550.337097
v 158.273239 148.610474 -526.032959
v 178.242798 152.526245 -560.840759
v 150.355194 150.083954 -529.071899
v 162.789215 154.160889 -567.209412
v 139.363907 151.783554 -531.490051
v 146.664703 155.597946 -570.959473
v 126.418427 153.592422 -533.015076
v 130.288940 156.908997 -573.011475
v 112.559311 155.438675 -533.730835
v 114.160095 158.120667 -573.929565
v 98.700211 157.277130 -533.863464
v 98.903229 159.232834 -574.135437
v 85.639038 159.146683 -533.692444
v 85.259171 160.161377 -573.997803
v 73.995667 160.954163 -533.531677
v 74.146744 160.954163 -573.850708
v 65.437393 162.132751 -533.713684
v 65.437393 162.132751 -574.009766
v 55.277332 163.747513 -533.819702
v 54.874371 163.747513 -574.133728
v 48.447277 164.952148 -533.742310
v 47.841335 164.952148 -574.054260
v 41.195744 166.403976 -533.655151
v 40.692219 166.403976 -573.968201
v 34.183136 168.089783 -533.621643
v 34.114227 168.089783 -573.936096
v 27.977219 169.996368 -533.713013
v 28.887199 169.996368 -574.010376
v 164.266724 145.859268 -517.540955
v 204.511871 146.576797 -515.194275
v 163.938614 146.717255 -521.184204
v 201.933212 148.469788 -534.564514
v 162.453354 147.504150 -523.241821
v 192.151367 150.598175 -550.337036
v 158.273224 148.610458 -526.032898
v 178.242783 152.526230 -560.840698
v 150.355179 150.083939 -529.071838
v 162.789200 154.160873 -567.209351
v 139.363892 151.783539 -531.489990
v 146.664688 155.597931 -570.959412
v 126.418411 153.592422 -533.015015
v 130.288925 156.908981 -573.011414
v 112.559296 155.438660 -533.730774
v 114.160080 158.120651 -573.929504
v 98.700195 157.277115 -533.863403
v 98.903214 159.232819 -574.135376
v 85.639038 159.146667 -533.692383
v 85.259155 160.161362 -573.997742
v 73.995651 160.954147 -533.531616
v 74.146744 160.954147 -573.850647
v 65.437378 162.132736 -533.713623
v 65.437378 162.132736 -574.009705
v 55.277325 163.747498 -533.819641
v 54.874363 163.747498 -574.133667
v 48.447269 164.952133 -533.742249
v 47.841328 164.952133 -574.054199
v 41.195736 166.403961 -533.655090
v 40.692211 166.403961 -573.968140
v 34.183136 168.089767 -533.621582
v 34.114227 168.089767 -573.936035
v 27.977219 169.996353 -533.712952
v 28.887199 169.996353 -574.010315
v 205.963943 185.624832 -515.670349
v 165.718796 184.907303 -518.017029
v 203.385269 187.517822 -535.040588
v 165.390686 185.765289 -521.660278
v 193.603424 189.646210 -550.813110
v 163.905426 186.552185 -523.717896
v 179.694855 191.574265 -561.316772
v 159.725281 187.658493 -526.508972
v 164.241272 193.208908 -567.685425
v 151.807236 189.131973 -529.547913
v 148.116760 194.645966 -571.435486
v 140.815964 190.831573 -531.966064
v 131.740997 195.957016 -573.487488
v 127.870468 192.640457 -533.491089
v 115.612137 197.168686 -574.405579
v 114.011368 194.486694 -534.206848
v 100.355286 198.280853 -574.611450
v 100.152252 196.325150 -534.339478
v 86.711227 199.209396 -574.473816
v 87.091110 198.194702 -534.168457
v 75.598816 200.002182 -574.326721
v 75.447723 200.002182 -534.007690
v 66.889450 201.180771 -574.485779
v 66.889450 201.180771 -534.189697
v 56.729404 202.795532 -534.295715
v 56.326435 202.795532 -574.609741
v 49.293400 204.000168 -574.530273
v 49.899342 204.000168 -534.218323
v 42.144291 205.451996 -574.444214
v 42.647808 205.451996 -534.131165
v 35.566296 207.137802 -574.412109
v 35.635201 207.137802 -534.097656
v 30.339264 209.044388 -574.486389
v 29.429283 209.044388 -534.189026
v 197.877838 189.966217 -516.141846
v 174.084259 189.696945 -517.529236
v 195.863571 191.590469 -532.391724
v 173.267685 190.756973 -524.434265
v 187.709991 193.462494 -545.436157
v 170.128494 191.878571 -529.395569
v 175.701981 195.255112 -554.356995
v 163.960281 193.223419 -533.890808
v 161.744553 196.873047 -560.027466
v 154.458130 194.760727 -537.678711
v 146.645584 198.375946 -563.482117
v 142.373016 196.406342 -540.383789
v 130.957413 199.805206 -565.390320
v 128.693634 198.093750 -541.997314
v 115.286072 201.169876 -566.217224
v 114.350067 199.777740 -542.712219
v 100.313629 202.461197 -566.346497
v 100.194916 201.426239 -542.800232
v 86.790009 203.629044 -566.114624
v 87.012146 203.045807 -542.545898
v 75.567154 204.679474 -565.879517
v 75.478760 204.587585 -542.289001
v 66.889450 205.842453 -566.071472
v 66.889450 205.768082 -542.469727
v 56.646580 207.384171 -542.581848
v 56.410480 207.451599 -566.201843
v 49.419590 208.649216 -566.135498
v 49.774830 208.587738 -542.502136
v 42.248951 210.092468 -566.064697
v 42.544338 210.039810 -542.415649
v 35.580585 211.766251 -566.053955
v 35.621029 211.730057 -542.390381
v 30.151539 213.649902 -566.173218
v 29.617237 213.655487 -542.512329
vn -0.0143 0.9926 0.1205
vn 0.0022 0.9908 0.1351
vn 0.0022 0.9908 0.1352
vn 0.0357 0.9878 0.1518
vn 0.0360 0.9877 0.1519
vn 0.0635 0.9870 0.1475
vn 0.0636 0.9870 0.1475
vn 0.0805 0.9880 0.1319
vn 0.0805 0.9880 0.1318
vn 0.0897 0.9896 0.1122
vn 0.0949 0.9913 0.0914
vn 0.0984 0.9927 0.0701
vn 0.1023 0.9936 0.0479
vn 0.1091 0.9937 0.0243
vn 0.1245 0.9922 0.0062
vn 0.1447 0.9895 -0.0003
vn 0.1445 0.9895 -0.0003
vn 0.1627 0.9867 -0.0015
vn 0.1845 0.9828 -0.0024
vn 0.1844 0.9828 -0.0024
vn 0.1626 0.9867 -0.0015
vn 0.2193 0.9757 -0.0022
vn 0.2192 0.9757 -0.0022
vn 0.2789 0.9603 0.0008
vn 0.2786 0.9604 0.0008
vn 0.3163 0.9486 0.0033
vn -0.9900 0.0385 0.1356
vn -0.9345 0.0391 0.3539
vn -0.9442 0.0391 0.3271
vn 0.9483 -0.0391 -0.3151
vn 0.9151 -0.0389 -0.4014
vn 0.9944 -0.0382 -0.0985
vn -0.7278 0.0354 0.6849
vn -0.7432 0.0358 0.6681
vn 0.7060 -0.0349 -0.7074
vn 0.6664 -0.0339 -0.7448
vn -0.4875 0.0288 0.8726
vn -0.4985 0.0291 0.8664
vn 0.4648 -0.0281 -0.8850
vn 0.4439 -0.0274 -0.8956
vn -0.2997 0.0228 0.9538
vn -0.3056 0.0230 0.9519
vn 0.2896 -0.0224 -0.9569
vn 0.2779 -0.0220 -0.9603
vn -0.1725 0.0184 0.9848
vn -0.1757 0.0185 0.9843
vn 0.1669 -0.0182 -0.9858
vn 0.1601 -0.0180 -0.9869
vn -0.0885 0.0154 0.9960
vn -0.0903 0.0155 0.9958
vn 0.0843 -0.0153 -0.9963
vn 0.0802 -0.0151 -0.9967
vn -0.0337 0.0134 0.9993
vn -0.0347 0.0135 0.9993
vn 0.0301 -0.0133 -0.9995
vn 0.0276 -0.0132 -0.9995
vn -0.0006 0.0122 0.9999
vn -0.0011 0.0122 0.9999
vn -0.0027 -0.0121 -0.9999
vn -0.0041 -0.0120 -0.9999
vn 0.0125 0.0117 0.9999
vn 0.0124 0.0117 0.9999
vn -0.0152 -0.0116 -0.9998
vn -0.0019 0.0123 0.9999
vn 0.0007 -0.0122 -0.9999
vn 0.0032 -0.0123 -0.9999
vn -0.0129 0.0127 0.9998
vn -0.0134 0.0127 0.9998
vn 0.0144 -0.0127 -0.9998
vn 0.0136 -0.0127 -0.9998
vn 0.0008 0.0122 0.9999
vn 0.0026 0.0121 0.9999
vn 0.0139 0.0117 0.9998
vn 0.0138 0.0117 0.9998
vn -0.0138 -0.0117 -0.9998
vn -0.0139 -0.0117 -0.9998
vn -0.0034 -0.0121 -0.9999
vn -0.0016 -0.0121 -0.9999
vn 0.0108 0.0118 0.9999
vn 0.0116 0.0118 0.9999
vn -0.0114 -0.0118 -0.9999
vn -0.0106 -0.0118 -0.9999
vn -0.0023 0.0123 0.9999
vn 0.0007 0.0122 0.9999
vn 0.0002 -0.0122 -0.9999
vn 0.0029 -0.0123 -0.9999
vn -0.7634 -0.1197 0.6347
vn -0.2284 -0.5898 0.7746
vn -0.1852 -0.6313 -0.7531
vn 0.3494 0.6573 -0.6677
vn -0.1370 -0.9587 -0.2492
vn -0.1588 -0.9561 -0.2461
vn -0.1564 -0.9557 0.2493
vn -0.1430 -0.9583 0.2476
vn -0.2643 -0.9323 -0.2470
vn -0.2965 -0.9262 -0.2327
vn -0.3201 -0.9212 0.2214
vn -0.2796 -0.9298 0.2393
vn -0.2132 -0.9456 -0.2455
vn -0.2127 -0.9456 0.2463
vn -0.1818 -0.9521 -0.2459
vn -0.1758 -0.9526 0.2483
vn -0.1263 -0.9579 -0.2579
vn -0.1141 -0.9641 0.2399
vn -0.1221 -0.9556 -0.2683
vn -0.0889 -0.9692 0.2295
vn -0.1104 -0.9521 -0.2853
vn -0.0882 -0.9732 0.2124
vn -0.0973 -0.9484 -0.3019
vn -0.0952 -0.9760 0.1957
vn -0.0816 -0.9448 -0.3173
vn -0.1073 -0.9780 0.1790
vn -0.0593 -0.9417 -0.3311
vn -0.1261 -0.9789 0.1608
vn -0.0265 -0.9398 -0.3406
vn -0.1541 -0.9782 0.1391
vn 0.0218 -0.9403 -0.3397
vn -0.1943 -0.9750 0.1079
vn 0.0921 -0.9455 -0.3123
vn -0.2418 -0.9687 0.0558
vn 0.1777 -0.9573 -0.2282
vn -0.2713 -0.9622 -0.0218
vn 0.2345 -0.9583 -0.1633
vn -0.2732 -0.9596 -0.0672
vn 0.4831 -0.8507 -0.2071
vn 0.4197 -0.8486 -0.3221
vn -0.4771 -0.8785 -0.0252
vn -0.4584 -0.8868 0.0578
vn 0.2657 -0.8286 -0.4927
vn -0.3887 -0.8970 0.2105
vn 0.1332 -0.8246 -0.5498
vn -0.2916 -0.9043 0.3117
vn 0.0423 -0.8270 -0.5607
vn -0.2094 -0.9067 0.3660
vn -0.0193 -0.8315 -0.5552
vn -0.1516 -0.9053 0.3967
vn -0.0607 -0.8373 -0.5433
vn -0.1124 -0.9016 0.4176
vn -0.0892 -0.8439 -0.5291
vn -0.0864 -0.8965 0.4346
vn -0.1112 -0.8509 -0.5134
vn -0.0692 -0.8901 0.4505
vn -0.1274 -0.8584 -0.4969
vn -0.0632 -0.8821 0.4668
vn -0.1220 -0.8659 -0.4852
vn -0.0945 -0.8733 0.4780
vn -0.1202 -0.8685 -0.4809
vn -0.1323 -0.8670 0.4804
vn -0.1441 -0.8662 -0.4785
vn -0.1407 -0.8656 0.4806
vn -0.1553 -0.8633 0.4801
vn -0.1674 -0.8634 -0.4759
vn -0.1929 -0.8592 -0.4738
vn -0.1904 -0.8580 0.4771
vn -0.2311 -0.8509 -0.4717
vn -0.2563 -0.8458 0.4678
vn -0.8605 -0.2880 -0.4203
vn -0.0636 -0.9364 -0.3451
vt -16.005718 0.499346
vt -16.150557 0.499347
vt -16.150557 0.000004
vt -16.005718 0.000004
vt -16.282694 0.499346
vt -16.282694 0.000004
vt -16.423151 0.499346
vt -16.423151 0.000004
vt -16.580454 0.499346
vt -16.580454 0.000004
vt -16.753836 0.499346
vt -16.753836 0.000004
vt -16.937853 0.499346
vt -16.937853 0.000003
vt -17.124866 0.499346
vt -17.124866 0.000003
vt -17.306181 0.499347
vt -17.306181 0.000004
vt -17.472584 0.499346
vt -17.472584 0.000004
vt -17.614550 0.499346
vt -17.614550 0.000003
vt -17.722494 0.499346
vt -17.722494 0.000003
vt -17.852377 0.499347
vt -17.939516 0.499346
vt -17.939516 0.000004
vt -17.852377 0.000004
vt -18.030493 0.499346
vt -18.030493 0.000003
vt -18.117205 0.499346
vt -18.117205 0.000004
vt -18.191870 0.499346
vt -18.191870 0.000003
vt -21.943687 -0.009918
vt -21.943687 0.499579
vt -22.094053 0.499579
vt -22.094053 -0.009918
vt -18.334219 0.499535
vt -18.334219 -0.010973
vt -18.174026 -0.010973
vt -18.174026 0.499536
vt -22.231327 0.499579
vt -22.231327 -0.009918
vt -18.480469 0.499538
vt -18.480469 -0.010973
vt -22.377230 0.499579
vt -22.377230 -0.009918
vt -18.635900 0.499536
vt -18.635900 -0.010973
vt -22.540503 0.499579
vt -22.540503 -0.009918
vt -18.809851 0.499536
vt -18.809851 -0.010973
vt -22.720367 0.499579
vt -22.720367 -0.009918
vt -19.001471 0.499536
vt -19.001471 -0.010973
vt -22.911200 0.499579
vt -22.911200 -0.009918
vt -19.204771 0.499535
vt -19.204771 -0.010973
vt -23.105099 0.499579
vt -23.105099 -0.009918
vt -19.411345 0.499535
vt -19.411345 -0.010973
vt -23.293066 0.499579
vt -23.293066 -0.009918
vt -19.611599 0.499536
vt -19.611599 -0.010973
vt -23.465553 0.499579
vt -23.465553 -0.009918
vt -19.795353 0.499535
vt -19.795353 -0.010973
vt -23.612698 0.499579
vt -23.612698 -0.009918
vt -19.952122 0.499538
vt -19.952124 -0.010973
vt -23.724598 0.499579
vt -23.724598 -0.009918
vt -20.071333 0.499536
vt -20.071335 -0.010973
vt -23.859243 -0.009918
vt -23.859243 0.499579
vt -23.949579 0.499579
vt -23.949579 -0.009918
vt -20.311016 0.499538
vt -20.311016 -0.010973
vt -20.214783 -0.010973
vt -20.214781 0.499538
vt -24.043888 0.499579
vt -24.043888 -0.009918
vt -20.411491 0.499535
vt -20.411493 -0.010973
vt -24.133781 0.499579
vt -24.133781 -0.009918
vt -20.507261 0.499535
vt -20.507261 -0.010973
vt -24.211182 0.499579
vt -24.211182 -0.009918
vt -20.589718 0.499538
vt -20.589718 -0.010973
vt -16.162199 0.884387
vt -16.289257 0.884387
vt -16.289257 0.610142
vt -16.162199 0.610142
vt -16.548321 0.884387
vt -16.621357 0.884387
vt -16.621357 0.610142
vt -16.548321 0.610142
vt -16.463495 0.884387
vt -16.463495 0.610142
vt -16.374498 0.884387
vt -16.374498 0.610142
vt -16.056604 0.884387
vt -16.056604 0.610142
vt -15.917749 0.884387
vt -15.917749 0.610142
vt -15.754987 0.884387
vt -15.754987 0.610142
vt -15.577612 0.884387
vt -15.577612 0.610142
vt -15.394640 0.884387
vt -15.394640 0.610142
vt -15.214564 0.884387
vt -15.214564 0.610142
vt -15.044836 0.884387
vt -15.044836 0.610142
vt -14.890763 0.884387
vt -14.890763 0.610142
vt -14.753085 0.884387
vt -14.753085 0.610142
vt -14.623547 0.884387
vt -14.623547 0.610142
vt -14.481655 0.884387
vt -14.481655 0.610142
vt -14.481655 0.999960
vt -14.623547 0.999960
vt -14.481655 0.499564
vt -14.623547 0.499564
vt -14.753085 0.999960
vt -14.753085 0.499564
vt -14.890763 0.999960
vt -14.890763 0.499564
vt -15.044836 0.999960
vt -15.044836 0.499564
vt -15.214564 0.999960
vt -15.214564 0.499564
vt -15.394640 0.999960
vt -15.394640 0.499564
vt -15.577612 0.999960
vt -15.577612 0.499564
vt -15.754987 0.999960
vt -15.754987 0.499564
vt -15.917749 0.999960
vt -15.917749 0.499564
vt -16.056604 0.999960
vt -16.056604 0.499564
vt -16.162199 0.999960
vt -16.162199 0.499564
vt -16.289257 0.999960
vt -16.289257 0.499564
vt -16.374498 0.499564
vt -16.374498 0.999960
vt -16.463495 0.999960
vt -16.463495 0.499564
vt -16.548321 0.999960
vt -16.548321 0.499564
vt -16.621357 0.999960
vt -16.621357 0.499564
s 1
f 2/1/1 4/2/2 3/3/3 1/4/1
f 4/2/2 6/5/4 5/6/5 3/3/3
f 6/5/4 8/7/6 7/8/7 5/6/5
f 8/7/6 10/9/8 9/10/9 7/8/7
f 10/9/8 12/11/10 11/12/10 9/10/9
f 12/11/10 14/13/11 13/14/11 11/12/10
f 14/13/11 16/15/12 15/16/12 13/14/11
f 16/15/12 18/17/13 17/18/13 15/16/12
f 18/17/13 20/19/14 19/20/14 17/18/13
f 20/19/14 22/21/15 21/22/15 19/20/14
f 22/21/15 24/23/16 23/24/17 21/22/15
f 26/25/18 28/26/19 27/27/20 25/28/21
f 28/26/19 30/29/22 29/30/23 27/27/20
f 30/29/22 32/31/24 31/32/25 29/30/23
f 32/31/24 34/33/26 33/34/26 31/32/25
f 24/23/16 26/25/18 25/28/21 23/24/17
f 36/35/27 69/36/27 71/37/28 38/38/29
f 37/39/30 72/40/31 70/41/32 35/42/32
f 38/38/29 71/37/28 73/43/33 40/44/34
f 39/45/35 74/46/36 72/40/31 37/39/30
f 40/44/34 73/43/33 75/47/37 42/48/38
f 41/49/39 76/50/40 74/46/36 39/45/35
f 42/48/38 75/47/37 77/51/41 44/52/42
f 43/53/43 78/54/44 76/50/40 41/49/39
f 44/52/42 77/51/41 79/55/45 46/56/46
f 45/57/47 80/58/48 78/54/44 43/53/43
f 46/56/46 79/55/45 81/59/49 48/60/50
f 47/61/51 82/62/52 80/58/48 45/57/47
f 48/60/50 81/59/49 83/63/53 50/64/54
f 49/65/55 84/66/56 82/62/52 47/61/51
f 50/64/54 83/63/53 85/67/57 52/68/58
f 51/69/59 86/70/60 84/66/56 49/65/55
f 52/68/58 85/67/57 87/71/61 54/72/62
f 53/73/63 88/74/63 86/70/60 51/69/59
f 54/72/62 87/71/61 89/75/64 56/76/57
f 55/77/65 90/78/66 88/74/63 53/73/63
f 56/76/57 89/75/64 91/79/67 58/80/68
f 57/81/69 92/82/70 90/78/66 55/77/65
f 60/83/71 94/84/72 95/85/73 62/86/74
f 61/87/75 96/88/76 93/89/77 59/90/78
f 62/86/74 95/85/73 97/91/79 64/92/80
f 63/93/81 98/94/82 96/88/76 61/87/75
f 64/92/80 97/91/79 99/95/83 66/96/84
f 65/97/85 100/98/86 98/94/82 63/93/81
f 66/96/84 99/95/83 101/99/87 68/100/88
f 67/101/89 102/102/90 100/98/86 65/97/85
f 58/80/68 91/79/67 94/84/72 60/83/71
f 59/90/78 93/89/77 92/82/70 57/81/69
f 126/103/91 127/104/92 128/105/93 125/106/94
f 134/107/95 136/108/96 135/109/97 133/110/98
f 132/111/99 134/107/95 133/110/98 131/112/100
f 130/113/101 132/111/99 131/112/100 129/114/102
f 127/104/92 130/113/101 129/114/102 128/105/93
f 124/115/103 126/103/91 125/106/94 123/116/104
f 122/117/105 124/115/103 123/116/104 121/118/106
f 120/119/107 122/117/105 121/118/106 119/120/108
f 118/121/109 120/119/107 119/120/108 117/122/110
f 116/123/111 118/121/109 117/122/110 115/124/112
f 114/125/113 116/123/111 115/124/112 113/126/114
f 112/127/115 114/125/113 113/126/114 111/128/116
f 110/129/117 112/127/115 111/128/116 109/130/118
f 108/131/119 110/129/117 109/130/118 107/132/120
f 106/133/121 108/131/119 107/132/120 105/134/122
f 104/135/123 106/133/121 105/134/122 103/136/124
f 104/135/123 70/137/125 72/138/126 106/133/121
f 69/139/127 103/136/124 105/134/122 71/140/128
f 106/133/121 72/138/126 74/141/129 108/131/119
f 71/140/128 105/134/122 107/132/120 73/142/130
f 108/131/119 74/141/129 76/143/131 110/129/117
f 73/142/130 107/132/120 109/130/118 75/144/132
f 110/129/117 76/143/131 78/145/133 112/127/115
f 75/144/132 109/130/118 111/128/116 77/146/134
f 112/127/115 78/145/133 80/147/135 114/125/113
f 77/146/134 111/128/116 113/126/114 79/148/136
f 114/125/113 80/147/135 82/149/137 116/123/111
f 79/148/136 113/126/114 115/124/112 81/150/138
f 116/123/111 82/149/137 84/151/139 118/121/109
f 81/150/138 115/124/112 117/122/110 83/152/140
f 118/121/109 84/151/139 86/153/141 120/119/107
f 83/152/140 117/122/110 119/120/108 85/154/142
f 120/119/107 86/153/141 88/155/143 122/117/105
f 85/154/142 119/120/108 121/118/106 87/156/144
f 122/117/105 88/155/143 90/157/145 124/115/103
f 87/156/144 121/118/106 123/116/104 89/158/146
f 124/115/103 90/157/145 92/159/147 126/103/91
f 89/158/146 123/116/104 125/106/94 91/160/148
f 126/103/91 92/159/147 93/161/149 127/104/92
f 91/160/148 125/106/94 128/105/93 94/162/150
f 94/162/150 128/105/93 129/114/102 95/163/151
f 127/104/92 93/161/149 96/164/152 130/113/101
f 130/113/101 96/164/152 98/165/153 132/111/99
f 95/163/151 129/114/102 131/112/100 97/166/154
f 132/111/99 98/165/153 100/167/155 134/107/95
f 97/166/154 131/112/100 133/110/98 99/168/156
f 134/107/95 100/167/155 102/169/157 136/108/96
f 99/168/156 133/110/98 135/109/97 101/170/158
