# Blender 4.5.3 LTS
# www.blender.org
o Circuito_castillo.007
v 394.286469 4.048807 -500.172241
v 394.329651 4.048801 -540.492126
v 380.589020 4.048807 -500.193756
v 380.667603 4.048801 -540.513489
v 366.673889 4.048807 -500.226135
v 366.778778 4.048801 -540.545898
v 352.501953 4.048807 -500.266876
v 352.624115 4.048801 -540.586487
v 338.033905 4.048807 -500.312988
v 338.164734 4.048801 -540.632629
v 323.230377 4.048807 -500.361847
v 323.361816 4.048801 -540.681519
v 308.052002 4.048807 -500.410706
v 308.176514 4.048801 -540.730347
v 292.459381 4.048807 -500.456757
v 292.570007 4.048801 -540.776550
v 276.413025 4.048807 -500.497437
v 276.503571 4.048801 -540.817200
v 259.873596 4.048807 -500.529785
v 259.938324 4.048801 -540.849670
v 242.801468 4.048806 -500.551208
v 242.835739 4.048801 -540.871094
v 221.995087 4.094040 -500.808624
v 235.138260 4.003568 -540.884277
v 211.215637 4.771449 -504.497955
v 231.506058 4.046288 -541.462585
v 394.286438 4.048807 -500.172180
v 394.329620 4.048800 -540.492065
v 366.673859 4.048807 -500.226074
v 366.778748 4.048800 -540.545837
v 338.033875 4.048807 -500.312927
v 338.164703 4.048800 -540.632568
v 308.051971 4.048807 -500.410645
v 308.176483 4.048800 -540.730286
v 276.412994 4.048807 -500.497375
v 276.503540 4.048800 -540.817139
v 242.801437 4.048806 -500.551178
v 242.835709 4.048800 -540.871033
v 221.995056 4.094040 -500.808563
v 235.138229 4.003567 -540.884216
v 211.215622 4.771448 -504.497925
v 231.506027 4.046288 -541.462524
v 395.781677 43.096825 -540.968140
v 395.738495 43.096832 -500.648254
v 368.230804 43.096825 -541.021912
v 368.125916 43.096832 -500.702148
v 339.616791 43.096825 -541.108643
v 339.485931 43.096832 -500.789001
v 309.628571 43.096825 -541.206360
v 309.504059 43.096832 -500.886719
v 277.955597 43.096825 -541.293213
v 277.865082 43.096832 -500.973450
v 244.287766 43.096825 -541.347107
v 244.253494 43.096828 -501.027252
v 236.590286 43.051590 -541.360291
v 223.447113 43.142063 -501.284637
v 232.958084 43.094315 -541.938599
v 212.667679 43.819473 -504.973999
v 395.772644 47.774891 -532.519287
v 395.747559 47.771690 -509.091309
v 368.208862 47.768261 -532.585083
v 368.147827 47.762619 -509.128784
v 339.589386 47.769779 -532.669067
v 339.513275 47.759853 -509.210602
v 309.602417 47.779961 -532.748474
v 309.530060 47.762508 -509.313141
v 277.936523 47.802128 -532.795227
v 277.884033 47.771446 -509.416016
v 244.280472 47.843506 -532.774353
v 244.260696 47.789581 -509.502625
v 233.782059 47.840950 -532.797546
v 226.205933 47.809158 -509.696686
v 228.682770 47.951069 -534.150024
v 216.812820 48.232079 -512.525513
vn -0.0000 1.0000 -0.0000
vn -0.0000 1.0000 -0.0006
vn 0.0201 0.9998 0.0036
vn 0.0259 0.9997 0.0049
vn 0.0470 0.9988 0.0098
vn 0.0034 -0.0123 -0.9999
vn 0.0025 -0.0123 -0.9999
vn 0.0016 -0.0130 -0.9999
vn 0.0020 -0.0123 -0.9999
vn -0.0025 0.0123 0.9999
vn -0.0031 0.0123 0.9999
vn 0.0031 -0.0123 -0.9999
vn -0.0030 0.0123 0.9999
vn 0.0030 -0.0123 -0.9999
vn -0.0022 0.0123 0.9999
vn 0.0022 -0.0123 -0.9999
vn -0.0017 0.0123 0.9999
vn 0.0071 -0.0125 -0.9999
vn 0.0068 -0.0124 -0.9999
vn 0.0002 -0.9680 -0.2508
vn 0.0009 -0.9678 -0.2516
vn 0.0006 -0.9684 0.2495
vn -0.0009 -0.9683 0.2496
vn -0.0780 0.0151 0.9968
vn -0.0813 0.0152 0.9966
vn 0.1698 -0.0183 -0.9853
vn 0.1692 -0.0183 -0.9854
vn -0.1570 0.0179 0.9874
vn 0.3224 -0.0235 -0.9463
vn 0.0180 -0.9633 -0.2679
vn 0.0424 -0.9622 -0.2692
vn -0.0723 -0.9772 0.1995
vn -0.0399 -0.9737 0.2242
vn 0.0006 -0.9681 -0.2505
vn -0.0009 -0.9683 0.2499
vn 0.0007 -0.9681 -0.2504
vn -0.0008 -0.9683 0.2500
vn -0.0005 -0.9682 0.2500
vn 0.0006 -0.9682 -0.2503
vn -0.0003 -0.9683 0.2499
vn 0.0002 -0.8747 -0.4847
vn 0.0012 -0.8748 -0.4844
vn -0.0020 0.0123 0.9999
vn -0.0012 -0.8748 0.4844
vn -0.0009 -0.8748 0.4844
vn 0.0015 -0.8748 -0.4844
vn -0.0015 -0.8748 0.4844
vn 0.0011 -0.8748 -0.4844
vn -0.0011 -0.8748 0.4844
vn 0.0025 -0.8749 -0.4843
vn 0.0003 -0.8743 0.4854
vn 0.0561 -0.8803 -0.4711
vn -0.0509 -0.8767 0.4784
vn 0.1001 -0.8829 -0.4589
vn -0.1184 -0.8768 0.4660
vt -3.300198 0.499346
vt -3.469621 0.499346
vt -3.469621 0.000003
vt -3.300198 0.000003
vt -3.641796 0.499346
vt -3.641796 0.000003
vt -3.817207 0.499346
vt -3.817207 0.000003
vt -3.996338 0.499346
vt -3.996338 0.000003
vt -4.179677 0.499346
vt -4.179677 0.000003
vt -4.367702 0.499346
vt -4.367702 0.000003
vt -4.560903 0.499346
vt -4.560903 0.000003
vt -4.759759 0.499345
vt -4.759759 0.000003
vt -4.964757 0.499346
vt -4.964757 0.000003
vt -5.176383 0.499346
vt -5.176383 0.000003
vt -5.352902 0.499346
vt -5.352902 0.000003
vt -5.446357 0.499346
vt -5.446357 0.000004
vt -4.503903 0.499536
vt -4.503903 -0.010973
vt -4.126627 -0.010973
vt -4.126627 0.499536
vt -9.112199 0.499577
vt -9.479753 0.499577
vt -9.479753 -0.009918
vt -9.112199 -0.009918
vt -4.895477 0.499536
vt -4.895477 -0.010973
vt -9.864744 0.499577
vt -9.864744 -0.009918
vt -5.305629 0.499536
vt -5.305629 -0.010973
vt -10.271190 0.499577
vt -10.271190 -0.009918
vt -5.738634 0.499536
vt -5.738634 -0.010973
vt -10.703103 0.499577
vt -10.703103 -0.009918
vt -6.198774 0.499536
vt -6.198774 -0.010973
vt -3.466958 0.884387
vt -3.874536 0.884387
vt -3.874536 0.610142
vt -3.466958 0.610142
vt -10.886202 0.499577
vt -10.886204 -0.009918
vt -6.393842 0.499536
vt -6.393842 -0.010973
vt -10.983096 0.499577
vt -10.983096 -0.009918
vt -6.497066 0.499536
vt -6.497066 -0.010973
vt -4.047321 0.884387
vt -4.138754 0.884387
vt -4.138754 0.610142
vt -4.047321 0.610142
vt -3.083415 0.884387
vt -3.083415 0.610142
vt -2.720115 0.884387
vt -2.720115 0.610142
vt -2.373270 0.884387
vt -2.373270 0.610142
vt -2.039090 0.884387
vt -2.039090 0.610142
vt -2.039090 0.999958
vt -2.373270 0.999958
vt -8.758066 0.499577
vt -8.758066 -0.009918
vt -2.373270 0.499563
vt -2.039090 0.499563
vt -2.720115 0.999960
vt -2.720115 0.499563
vt -3.083415 0.999960
vt -3.083415 0.499563
vt -3.466958 0.999960
vt -3.466958 0.499563
vt -3.874536 0.999960
vt -3.874536 0.499563
vt -4.047321 0.999960
vt -4.047321 0.499563
vt -4.138754 0.999960
vt -4.138754 0.499563
s 1
f 2/1/1 4/2/1 3/3/1 1/4/1
f 4/2/1 6/5/1 5/6/1 3/3/1
f 6/5/1 8/7/1 7/8/1 5/6/1
f 8/7/1 10/9/1 9/10/1 7/8/1
f 10/9/1 12/11/1 11/12/1 9/10/1
f 12/11/1 14/13/1 13/14/1 11/12/1
f 14/13/1 16/15/1 15/16/1 13/14/1
f 16/15/1 18/17/1 17/18/1 15/16/1
f 18/17/1 20/19/1 19/20/1 17/18/1
f 20/19/1 22/21/2 21/22/2 19/20/1
f 22/21/2 24/23/3 23/24/4 21/22/2
f 24/23/3 26/25/5 25/26/5 23/24/4
f 29/27/6 46/28/7 44/29/8 27/30/9
f 45/31/10 47/32/11 32/33/11 30/34/10
f 31/35/12 48/36/12 46/28/7 29/27/6
f 47/32/11 49/37/13 34/38/13 32/33/11
f 33/39/14 50/40/14 48/36/12 31/35/12
f 49/37/13 51/41/15 36/42/15 34/38/13
f 35/43/16 52/44/16 50/40/14 33/39/14
f 51/41/15 53/45/17 38/46/17 36/42/15
f 37/47/18 54/48/19 52/44/16 35/43/16
f 68/49/20 70/50/21 69/51/22 67/52/23
f 38/46/17 53/45/17 55/53/24 40/54/25
f 39/55/26 56/56/27 54/48/19 37/47/18
f 40/54/25 55/53/24 57/57/28 42/58/28
f 41/59/29 58/60/29 56/56/27 39/55/26
f 72/61/30 74/62/31 73/63/32 71/64/33
f 70/50/21 72/61/30 71/64/33 69/51/22
f 66/65/34 68/49/20 67/52/23 65/66/35
f 64/67/36 66/65/34 65/66/35 63/68/37
f 62/69/36 64/67/36 63/68/37 61/70/38
f 60/71/39 62/69/36 61/70/38 59/72/40
f 44/73/41 46/74/42 62/69/36 60/71/39
f 43/75/43 45/31/10 30/34/10 28/76/43
f 61/70/38 45/77/44 43/78/45 59/72/40
f 46/74/42 48/79/46 64/67/36 62/69/36
f 63/68/37 47/80/47 45/77/44 61/70/38
f 48/79/46 50/81/46 66/65/34 64/67/36
f 65/66/35 49/82/47 47/80/47 63/68/37
f 50/81/46 52/83/48 68/49/20 66/65/34
f 67/52/23 51/84/49 49/82/47 65/66/35
f 52/83/48 54/85/50 70/50/21 68/49/20
f 69/51/22 53/86/51 51/84/49 67/52/23
f 70/50/21 54/85/50 56/87/52 72/61/30
f 53/86/51 69/51/22 71/64/33 55/88/53
f 72/61/30 56/87/52 58/89/54 74/62/31
f 55/88/53 71/64/33 73/63/32 57/90/55
