# Blender 4.5.3 LTS
# www.blender.org
o Circuito_castillo.004
v 390.395996 4.048851 146.177078
v 389.674713 4.048854 186.490509
v 404.761566 4.048852 145.466385
v 409.743408 4.048854 185.477295
v 417.779510 4.048852 142.886475
v 429.242218 4.048854 181.542618
v 428.172150 4.048852 138.821243
v 447.518402 4.048853 174.196594
v 434.980286 4.048851 134.102005
v 463.600922 4.048852 162.501877
v 438.387573 4.048850 129.516129
v 475.375702 4.048851 145.565109
v 439.600250 4.048847 122.097725
v 479.706177 4.048846 126.246086
v 439.520996 4.048843 107.973595
v 479.840881 4.048844 108.019714
v 439.533051 4.048842 86.937439
v 479.852936 4.048841 86.948601
v 439.532562 4.048840 61.969177
v 479.852478 4.048840 61.961750
v 439.522797 4.048838 34.027348
v 479.842651 4.048839 34.009594
v 439.506866 4.048838 4.067976
v 479.826752 4.048838 4.045066
v 439.488068 4.048837 -26.953821
v 479.807953 4.048837 -26.978022
v 439.469543 4.048836 -58.083374
v 479.789429 4.048836 -58.105377
v 439.454529 4.048834 -88.366409
v 479.774445 4.048834 -88.382317
v 439.446167 4.048833 -116.849083
v 479.766052 4.048833 -116.853775
v 439.447723 4.048831 -142.578384
v 479.767639 4.048830 -142.563766
v 439.462341 4.048829 -164.603500
v 479.782227 4.048829 -164.554153
v 439.790466 4.048826 -185.369064
v 480.051514 4.048827 -178.257004
v 439.462341 -1.220210 -164.603500
v 439.790466 -1.220213 -185.369064
v 390.395966 4.048850 146.177063
v 389.674683 4.048853 186.490494
v 404.761536 4.048851 145.466370
v 409.743378 4.048854 185.477280
v 417.779480 4.048851 142.886459
v 429.242188 4.048854 181.542603
v 428.172119 4.048852 138.821228
v 447.518372 4.048852 174.196579
v 434.980255 4.048851 134.101990
v 463.600891 4.048851 162.501862
v 438.387543 4.048849 129.516113
v 475.375641 4.048850 145.565094
v 439.600220 4.048846 122.097717
v 479.706116 4.048845 126.246071
v 439.520966 4.048843 107.973587
v 479.840820 4.048844 108.019707
v 439.533020 4.048841 86.937431
v 479.852905 4.048841 86.948593
v 439.532532 4.048840 61.969170
v 479.852417 4.048840 61.961742
v 439.522766 4.048837 34.027344
v 479.842590 4.048838 34.009590
v 439.506836 4.048838 4.067976
v 479.826691 4.048838 4.045065
v 439.488037 4.048836 -26.953821
v 479.807892 4.048836 -26.978020
v 439.469513 4.048836 -58.083370
v 479.789368 4.048836 -58.105373
v 439.454498 4.048834 -88.366402
v 479.774384 4.048833 -88.382309
v 439.446136 4.048832 -116.849075
v 479.765991 4.048832 -116.853767
v 439.447693 4.048831 -142.578369
v 479.767578 4.048830 -142.563751
v 439.462311 4.048828 -164.603485
v 479.782166 4.048828 -164.554138
v 439.685455 4.048826 -178.724060
v 480.051453 4.048827 -178.256989
v 391.126740 43.096878 186.014404
v 391.848022 43.096874 145.700974
v 411.195465 43.096882 185.001190
v 406.213593 43.096878 144.990280
v 430.694244 43.096882 181.066513
v 419.231537 43.096878 142.410370
v 448.970459 43.096874 173.720490
v 429.624207 43.096878 138.345139
v 465.052948 43.096874 162.025772
v 436.432312 43.096878 133.625900
v 476.827698 43.096874 145.089005
v 439.839600 43.096874 129.040024
v 481.158173 43.096867 125.769989
v 441.052277 43.096870 121.621620
v 481.292877 43.096867 107.543610
v 440.973022 43.096867 107.497490
v 481.304962 43.096867 86.472496
v 440.985077 43.096867 86.461334
v 481.304504 43.096863 61.485641
v 440.984619 43.096863 61.493069
v 481.294647 43.096863 33.533497
v 440.974823 43.096863 33.551250
v 481.278778 43.096863 3.568970
v 440.958923 43.096863 3.591880
v 481.259949 43.096859 -27.454117
v 440.940094 43.096859 -27.429916
v 481.241455 43.096863 -58.581467
v 440.921600 43.096863 -58.559467
v 481.226440 43.096859 -88.858406
v 440.906555 43.096859 -88.842499
v 481.218079 43.096859 -117.329857
v 440.898224 43.096859 -117.325172
v 481.219635 43.096855 -143.039841
v 440.899750 43.096855 -143.054459
v 481.234222 43.096855 -165.030228
v 440.914398 43.096855 -165.079575
v 481.503540 43.096851 -178.733078
v 441.137512 43.096848 -179.200150
v 391.276489 47.731621 177.645157
v 391.698303 47.731617 154.070236
v 410.161682 47.729450 176.698624
v 407.247375 47.729450 153.292847
v 428.319214 47.722504 173.057098
v 421.606567 47.722504 150.419785
v 444.976379 47.705860 166.417221
v 433.618256 47.705860 145.648407
v 459.186890 47.672569 156.204941
v 442.298401 47.672569 139.446732
v 469.306000 47.636726 141.825378
v 447.361298 47.636726 132.303650
v 472.858917 47.716618 124.911545
v 449.351532 47.716625 122.480057
v 472.903564 47.741974 107.534019
v 449.362335 47.741974 107.507088
v 472.916412 47.741535 86.470177
v 449.373627 47.741543 86.463654
v 472.916992 47.740959 61.487190
v 449.372131 47.740967 61.491524
v 472.908569 47.740192 33.537189
v 449.360901 47.740185 33.547558
v 472.894501 47.739182 3.573734
v 449.343201 47.739182 3.587116
v 472.878082 47.737835 -27.449087
v 449.321991 47.737835 -27.434946
v 472.862793 47.736057 -58.576897
v 449.300232 47.736061 -58.564037
v 472.852081 47.733696 -88.855103
v 449.280975 47.733707 -88.845802
v 472.849304 47.730568 -117.328888
v 449.266968 47.730572 -117.326149
v 472.858398 47.726418 -143.042877
v 449.261047 47.726429 -143.051437
v 472.882904 47.720924 -165.040451
v 449.265686 47.720928 -165.069351
v 473.163269 47.721550 -180.206360
v 449.582764 47.721554 -184.371826
vn -0.0000 1.0000 -0.0000
vn -0.9999 -0.0000 -0.0158
vn -0.0504 -0.0103 -0.9987
vn -0.1263 -0.0074 -0.9920
vn -0.1227 -0.0075 -0.9924
vn 0.1205 0.0076 0.9927
vn 0.1240 0.0075 0.9923
vn 0.0494 0.0103 0.9987
vn -0.2888 -0.0009 -0.9574
vn -0.2844 -0.0011 -0.9587
vn 0.2783 0.0014 0.9605
vn 0.2826 0.0012 0.9593
vn -0.4868 0.0075 -0.8735
vn -0.4816 0.0072 -0.8764
vn 0.4677 -0.0066 0.8839
vn 0.4727 -0.0068 0.8812
vn -0.7170 0.0182 -0.6968
vn -0.7119 0.0179 -0.7021
vn 0.6927 -0.0170 0.7211
vn 0.6979 -0.0172 0.7160
vn -0.9164 0.0292 -0.3992
vn -0.9138 0.0290 -0.4050
vn 0.9189 -0.0294 0.3933
vn 0.9219 -0.0296 0.3862
vn -0.9930 0.0356 -0.1125
vn -0.9928 0.0355 -0.1147
vn 0.9962 -0.0361 0.0789
vn 0.9964 -0.0361 0.0773
vn -0.9993 0.0371 -0.0040
vn 0.9993 -0.0372 -0.0025
vn -0.9993 0.0372 -0.0003
vn 0.9993 -0.0372 0.0003
vn -0.9993 0.0372 0.0002
vn 0.9993 -0.0372 -0.0002
vn -0.9993 0.0372 0.0004
vn 0.9993 -0.0372 -0.0004
vn -0.9993 0.0372 0.0006
vn 0.9993 -0.0372 -0.0006
vn -0.9993 0.0372 0.0005
vn 0.9993 -0.0372 -0.0005
vn -0.9993 0.0372 0.0001
vn 0.9993 -0.0372 -0.0001
vn -0.9993 0.0372 -0.0004
vn 0.9993 -0.0372 0.0004
vn -0.9993 0.0370 -0.0102
vn -0.9993 0.0370 -0.0101
vn 0.9993 -0.0371 0.0082
vn 0.9993 -0.0371 0.0083
vn -0.9991 0.0369 -0.0196
vn 0.9959 -0.0360 0.0825
vn 0.9640 -0.1594 0.2128
vn 0.2513 -0.9679 0.0022
vn 0.2147 -0.9767 0.0034
vn -0.2267 -0.9740 -0.0043
vn -0.2488 -0.9686 -0.0024
vn 0.2502 -0.9682 0.0002
vn -0.2501 -0.9682 -0.0000
vn 0.2502 -0.9682 -0.0000
vn -0.2501 -0.9682 0.0001
vn 0.2502 -0.9682 -0.0001
vn -0.2501 -0.9682 0.0002
vn 0.2501 -0.9682 -0.0001
vn -0.2502 -0.9682 0.0002
vn -0.2502 -0.9682 0.0001
vn 0.2501 -0.9682 -0.0000
vn 0.2501 -0.9682 0.0001
vn -0.2502 -0.9682 -0.0001
vn 0.2504 -0.9681 -0.0008
vn -0.2505 -0.9681 -0.0013
vn 0.2356 -0.9717 0.0183
vn -0.2636 -0.9641 -0.0316
vn 0.1996 -0.9763 0.0841
vn -0.2556 -0.9602 -0.1130
vn 0.1567 -0.9743 0.1616
vn -0.1970 -0.9615 -0.1915
vn 0.1091 -0.9727 0.2050
vn -0.1305 -0.9634 -0.2344
vn 0.0663 -0.9716 0.2273
vn -0.0758 -0.9646 -0.2525
vn 0.0292 -0.9710 0.2374
vn -0.0326 -0.9653 -0.2591
vn 0.0119 -0.9706 0.2402
vn -0.0132 -0.9654 -0.2605
vn 0.0240 -0.8743 0.4847
vn 0.0594 -0.8748 0.4809
vn -0.0244 -0.8743 -0.4847
vn -0.0602 -0.8748 -0.4807
vn 0.1363 -0.8747 0.4651
vn -0.1386 -0.8748 -0.4643
vn 0.2292 -0.8746 0.4273
vn -0.2343 -0.8747 -0.4242
vn 0.3390 -0.8747 0.3464
vn -0.3457 -0.8749 -0.3393
vn 0.4425 -0.8768 0.1881
vn -0.4422 -0.8757 -0.1938
vn 0.4844 -0.8739 0.0413
vn -0.4820 -0.8745 -0.0542
vn 0.4849 -0.8746 -0.0008
vn -0.4848 -0.8746 -0.0017
vn 0.4844 -0.8748 0.0001
vn -0.4844 -0.8748 -0.0001
vn 0.4844 -0.8748 -0.0001
vn -0.4844 -0.8748 0.0001
vn 0.4844 -0.8748 -0.0002
vn -0.4844 -0.8748 0.0002
vn 0.4844 -0.8748 -0.0003
vn -0.4844 -0.8748 0.0003
vn -0.4844 -0.8749 0.0003
vn 0.4844 -0.8748 0.0002
vn -0.4844 -0.8748 -0.0002
vn 0.4843 -0.8749 0.0041
vn -0.4842 -0.8749 -0.0048
vn 0.6680 -0.7412 0.0657
vn -0.4840 -0.8750 -0.0092
vt 11.074942 0.499345
vt 10.861444 0.499345
vt 10.861444 0.000003
vt 11.074942 0.000003
vt 10.656090 0.499345
vt 10.656090 0.000003
vt 10.465015 0.499345
vt 10.465015 0.000003
vt 10.290584 0.499345
vt 10.290584 0.000003
vt 10.127472 0.499345
vt 10.127472 0.000003
vt 9.958327 0.499345
vt 9.958327 0.000003
vt 9.757998 0.499345
vt 9.757998 0.000003
vt 9.497253 0.499345
vt 9.497253 0.000003
vt 9.187912 0.499345
vt 9.187912 0.000003
vt 8.841798 0.499345
vt 8.841798 0.000003
vt 8.470727 0.499345
vt 8.470727 0.000003
vt 8.086520 0.499345
vt 8.086520 0.000003
vt 7.701004 0.499345
vt 7.701004 0.000003
vt 7.325993 0.499346
vt 7.325993 0.000003
vt 6.973311 0.499346
vt 6.973311 0.000003
vt 6.654779 0.499346
vt 6.654779 0.000003
vt 6.382219 0.499346
vt 6.382219 0.000003
vt 6.168745 0.499346
vt 6.168745 0.000003
vt -8.089736 0.383990
vt -8.344982 0.383990
vt -8.344982 0.319233
vt -8.089736 0.319233
vt 6.141322 -0.009919
vt 6.141322 0.499577
vt 5.919986 0.499577
vt 5.919986 -0.009919
vt 11.510945 0.499535
vt 11.510945 -0.010973
vt 11.746747 -0.010973
vt 11.746747 0.499535
vt 5.707088 0.499577
vt 5.707088 -0.009919
vt 11.284130 0.499535
vt 11.284130 -0.010973
vt 5.508996 0.499577
vt 5.508996 -0.009919
vt 11.073091 0.499535
vt 11.073091 -0.010973
vt 5.328165 0.499577
vt 5.328165 -0.009919
vt 10.880438 0.499535
vt 10.880438 -0.010973
vt 5.159070 0.499577
vt 5.159070 -0.009919
vt 10.700290 0.499535
vt 10.700290 -0.010973
vt 4.983733 0.499577
vt 4.983733 -0.009919
vt 10.513490 0.499535
vt 10.513490 -0.010973
vt 4.776051 0.499577
vt 4.776051 -0.009919
vt 10.292232 0.499535
vt 10.292232 -0.010973
vt 4.505738 0.499577
vt 4.505738 -0.009919
vt 10.004246 0.499535
vt 10.004246 -0.010973
vt 4.185047 0.499577
vt 4.185047 -0.009919
vt 9.662588 0.499535
vt 9.662588 -0.010973
vt 3.826231 0.499577
vt 3.826231 -0.009919
vt 9.280310 0.499535
vt 9.280310 -0.010973
vt 3.441545 0.499577
vt 3.441545 -0.009919
vt 8.870468 0.499535
vt 8.870468 -0.010973
vt 3.043242 0.499577
vt 3.043242 -0.009919
vt 8.446124 0.499535
vt 8.446124 -0.010973
vt 2.643578 0.499577
vt 2.643578 -0.009919
vt 8.020329 0.499535
vt 8.020329 -0.010973
vt 2.254808 0.499577
vt 2.254808 -0.009919
vt 7.606138 0.499535
vt 7.606138 -0.010973
vt 1.889187 0.499577
vt 1.889187 -0.009919
vt 7.216610 0.499535
vt 7.216610 -0.010973
vt 1.558970 0.499577
vt 1.558970 -0.009919
vt 6.864799 0.499535
vt 6.864799 -0.010973
vt 1.276411 0.499577
vt 1.276411 -0.009919
vt 6.563764 0.499535
vt 6.563764 -0.010973
vt 1.055106 0.499577
vt 1.055106 -0.009919
vt 6.403436 0.499535
vt 6.403436 -0.010973
vt 7.430319 0.884387
vt 7.221469 0.884387
vt 7.221469 0.610142
vt 7.430319 0.610142
vt 7.696973 0.884387
vt 7.696973 0.610142
vt 8.008603 0.884387
vt 8.008603 0.610142
vt 8.353642 0.884387
vt 8.353642 0.610142
vt 8.720526 0.884387
vt 8.720526 0.610142
vt 9.097691 0.884387
vt 9.097691 0.610142
vt 9.473570 0.884387
vt 9.473570 0.610142
vt 9.836598 0.884387
vt 9.836598 0.610142
vt 10.175213 0.884387
vt 10.175213 0.610142
vt 10.477848 0.884387
vt 10.477848 0.610142
vt 10.732941 0.884387
vt 10.732941 0.610142
vt 10.928928 0.884387
vt 10.928928 0.610142
vt 11.094393 0.884387
vt 11.094393 0.610142
vt 11.253961 0.884387
vt 11.253961 0.610142
vt 11.424609 0.884387
vt 11.424609 0.610142
vt 11.611546 0.884387
vt 11.611546 0.610142
vt 11.812452 0.884387
vt 11.812452 0.610142
vt 12.021320 0.884387
vt 12.021320 0.610142
vt 12.021320 0.999958
vt 11.812452 0.999958
vt 12.021320 0.499563
vt 11.812452 0.499563
vt 11.611546 0.999958
vt 11.611546 0.499563
vt 11.424609 0.999958
vt 11.424609 0.499563
vt 11.253961 0.999958
vt 11.253961 0.499563
vt 11.094393 0.999958
vt 11.094393 0.499563
vt 10.928928 0.999958
vt 10.928928 0.499563
vt 10.732941 0.999958
vt 10.732941 0.499563
vt 10.477848 0.999958
vt 10.477848 0.499563
vt 10.175213 0.999958
vt 10.175213 0.499563
vt 9.836598 0.999958
vt 9.836598 0.499563
vt 9.473570 0.999958
vt 9.473570 0.499563
vt 9.097691 0.999958
vt 9.097691 0.499563
vt 8.720526 0.999958
vt 8.720526 0.499563
vt 8.353642 0.999958
vt 8.353642 0.499563
vt 8.008603 0.999958
vt 8.008603 0.499563
vt 7.696973 0.999958
vt 7.696973 0.499563
vt 7.430319 0.999958
vt 7.430319 0.499563
vt 7.281423 0.995037
vt 7.221469 0.499563
s 1
f 2/1/1 4/2/1 3/3/1 1/4/1
f 4/2/1 6/5/1 5/6/1 3/3/1
f 6/5/1 8/7/1 7/8/1 5/6/1
f 8/7/1 10/9/1 9/10/1 7/8/1
f 10/9/1 12/11/1 11/12/1 9/10/1
f 12/11/1 14/13/1 13/14/1 11/12/1
f 14/13/1 16/15/1 15/16/1 13/14/1
f 16/15/1 18/17/1 17/18/1 15/16/1
f 18/17/1 20/19/1 19/20/1 17/18/1
f 20/19/1 22/21/1 21/22/1 19/20/1
f 22/21/1 24/23/1 23/24/1 21/22/1
f 24/23/1 26/25/1 25/26/1 23/24/1
f 26/25/1 28/27/1 27/28/1 25/26/1
f 28/27/1 30/29/1 29/30/1 27/28/1
f 30/29/1 32/31/1 31/32/1 29/30/1
f 32/31/1 34/33/1 33/34/1 31/32/1
f 34/33/1 36/35/1 35/36/1 33/34/1
f 36/35/1 38/37/1 37/38/1 35/36/1
f 35/39/2 37/40/2 40/41/2 39/42/2
f 42/43/3 79/44/3 81/45/4 44/46/5
f 43/47/6 82/48/7 80/49/8 41/50/8
f 44/46/5 81/45/4 83/51/9 46/52/10
f 45/53/11 84/54/12 82/48/7 43/47/6
f 46/52/10 83/51/9 85/55/13 48/56/14
f 47/57/15 86/58/16 84/54/12 45/53/11
f 48/56/14 85/55/13 87/59/17 50/60/18
f 49/61/19 88/62/20 86/58/16 47/57/15
f 50/60/18 87/59/17 89/63/21 52/64/22
f 51/65/23 90/66/24 88/62/20 49/61/19
f 52/64/22 89/63/21 91/67/25 54/68/26
f 53/69/27 92/70/28 90/66/24 51/65/23
f 54/68/26 91/67/25 93/71/29 56/72/29
f 55/73/30 94/74/30 92/70/28 53/69/27
f 56/72/29 93/71/29 95/75/31 58/76/31
f 57/77/32 96/78/32 94/74/30 55/73/30
f 58/76/31 95/75/31 97/79/33 60/80/33
f 59/81/34 98/82/34 96/78/32 57/77/32
f 60/80/33 97/79/33 99/83/35 62/84/35
f 61/85/36 100/86/36 98/82/34 59/81/34
f 62/84/35 99/83/35 101/87/37 64/88/37
f 63/89/38 102/90/38 100/86/36 61/85/36
f 64/88/37 101/87/37 103/91/37 66/92/37
f 65/93/38 104/94/38 102/90/38 63/89/38
f 66/92/37 103/91/37 105/95/39 68/96/39
f 67/97/40 106/98/40 104/94/38 65/93/38
f 68/96/39 105/95/39 107/99/35 70/100/35
f 69/101/36 108/102/36 106/98/40 67/97/40
f 70/100/35 107/99/35 109/103/41 72/104/41
f 71/105/42 110/106/42 108/102/36 69/101/36
f 72/104/41 109/103/41 111/107/43 74/108/43
f 73/109/44 112/110/44 110/106/42 71/105/42
f 74/108/43 111/107/43 113/111/45 76/112/46
f 75/113/47 114/114/48 112/110/44 73/109/44
f 76/112/46 113/111/45 115/115/49 78/116/49
f 77/117/50 116/118/51 114/114/48 75/113/47
f 152/119/52 154/120/53 153/121/54 151/122/55
f 150/123/56 152/119/52 151/122/55 149/124/57
f 148/125/58 150/123/56 149/124/57 147/126/59
f 146/127/60 148/125/58 147/126/59 145/128/59
f 144/129/60 146/127/60 145/128/59 143/130/61
f 142/131/60 144/129/60 143/130/61 141/132/61
f 140/133/62 142/131/60 141/132/61 139/134/63
f 138/135/62 140/133/62 139/134/63 137/136/64
f 136/137/65 138/135/62 137/136/64 135/138/64
f 134/139/66 136/137/65 135/138/64 133/140/67
f 132/141/68 134/139/66 133/140/67 131/142/69
f 130/143/70 132/141/68 131/142/69 129/144/71
f 128/145/72 130/143/70 129/144/71 127/146/73
f 126/147/74 128/145/72 127/146/73 125/148/75
f 124/149/76 126/147/74 125/148/75 123/150/77
f 122/151/78 124/149/76 123/150/77 121/152/79
f 120/153/80 122/151/78 121/152/79 119/154/81
f 118/155/82 120/153/80 119/154/81 117/156/83
f 118/155/82 80/157/84 82/158/85 120/153/80
f 79/159/86 117/156/83 119/154/81 81/160/87
f 120/153/80 82/158/85 84/161/88 122/151/78
f 81/160/87 119/154/81 121/152/79 83/162/89
f 122/151/78 84/161/88 86/163/90 124/149/76
f 83/162/89 121/152/79 123/150/77 85/164/91
f 124/149/76 86/163/90 88/165/92 126/147/74
f 85/164/91 123/150/77 125/148/75 87/166/93
f 126/147/74 88/165/92 90/167/94 128/145/72
f 87/166/93 125/148/75 127/146/73 89/168/95
f 128/145/72 90/167/94 92/169/96 130/143/70
f 89/168/95 127/146/73 129/144/71 91/170/97
f 130/143/70 92/169/96 94/171/98 132/141/68
f 91/170/97 129/144/71 131/142/69 93/172/99
f 132/141/68 94/171/98 96/173/100 134/139/66
f 93/172/99 131/142/69 133/140/67 95/174/101
f 134/139/66 96/173/100 98/175/102 136/137/65
f 95/174/101 133/140/67 135/138/64 97/176/103
f 136/137/65 98/175/102 100/177/104 138/135/62
f 97/176/103 135/138/64 137/136/64 99/178/105
f 138/135/62 100/177/104 102/179/106 140/133/62
f 99/178/105 137/136/64 139/134/63 101/180/107
f 140/133/62 102/179/106 104/181/106 142/131/60
f 101/180/107 139/134/63 141/132/61 103/182/108
f 142/131/60 104/181/106 106/183/106 144/129/60
f 103/182/108 141/132/61 143/130/61 105/184/107
f 144/129/60 106/183/106 108/185/104 146/127/60
f 105/184/107 143/130/61 145/128/59 107/186/105
f 146/127/60 108/185/104 110/187/102 148/125/58
f 107/186/105 145/128/59 147/126/59 109/188/103
f 148/125/58 110/187/102 112/189/109 150/123/56
f 109/188/103 147/126/59 149/124/57 111/190/110
f 150/123/56 112/189/109 114/191/111 152/119/52
f 111/190/110 149/124/57 151/122/55 113/192/112
f 152/119/52 114/191/111 116/193/113 154/120/53
f 113/192/112 151/122/55 153/121/54 115/194/114
