# Blender 4.5.3 LTS
# www.blender.org
o Expositor_LOD00
v 6.081253 -3.045711 -2.228106
v -2.521479 -3.045710 5.965586
v 2.094249 -3.045711 -6.414143
v 2.094249 2.606840 -6.414143
v -6.508482 -3.045710 1.779550
v -6.508482 2.606841 1.779549
v -5.081601 -3.045710 3.277669
v 3.521140 -3.045711 -4.916023
v -0.370801 -3.045710 3.917158
v 1.779887 -3.045710 1.868740
v 3.930565 -3.045711 -0.179688
v -0.056429 -3.045711 -4.365725
v -2.207117 -3.045711 -2.317297
v -4.357804 -3.045711 -0.268878
v -4.357804 2.606840 -0.268879
v -2.207117 2.606840 -2.317297
v -0.056429 2.606840 -4.365725
v -2.930913 -3.045711 1.229241
v -0.780225 -3.045711 -0.819177
v 1.370453 -3.045711 -2.867605
v -2.521479 -0.810844 5.965586
v 3.521140 2.606840 -4.916023
v 6.081253 -0.810845 -2.228106
v -5.081601 2.606841 3.277669
v -0.370801 -0.810844 3.917158
v -2.930913 2.606840 1.229240
v 3.930565 -0.810844 -0.179688
v 1.779887 -0.810844 1.868740
v -0.780225 2.606840 -0.819177
v 1.370453 2.606840 -2.867606
v -1.425290 -1.912647 3.240676
v -3.145843 -1.912647 4.879412
v 2.617954 1.303048 -5.433649
v 5.026762 -1.912648 -2.904598
v -5.554641 1.303048 2.350361
v 0.897402 1.303048 -3.794913
v 3.306211 -1.912648 -1.265862
v -3.834099 1.303048 0.711615
v 0.725388 -1.912648 1.192248
v -0.995155 -1.912647 2.830994
v -3.403963 1.303048 0.301933
v -1.683411 1.303048 -1.336803
v 2.876075 -1.912648 -0.856170
v 1.155533 -1.912648 0.782566
v -1.253276 1.303048 -1.746495
v 0.467266 1.303048 -3.385231
v -0.243797 -0.610832 4.050508
v -2.394475 -0.610832 6.098937
v 3.648144 2.806852 -4.782682
v 6.208257 -0.610832 -2.094765
v -4.954587 2.806852 3.411010
v 1.497457 2.806852 -2.734255
v 4.057579 -0.610832 -0.046337
v 1.906891 -0.610832 2.002081
v -2.803909 2.806852 1.362591
v -0.653221 2.806852 -0.685836
v -0.534511 -0.509837 4.175921
v -2.255064 -0.509837 5.814658
v 3.508734 2.705858 -4.498404
v 5.917532 -0.509838 -1.969353
v -4.663872 2.705858 3.285607
v 1.788181 2.705858 -2.859667
v 4.196990 -0.509838 -0.330616
v -2.943320 2.705858 1.646861
v 1.616167 -0.509838 2.127494
v -0.104376 -0.509837 3.766240
v -2.513185 2.705858 1.237179
v -0.792632 2.705858 -0.401558
v 3.766855 -0.509838 0.079075
v 2.046302 -0.509838 1.717812
v -0.362497 2.705858 -0.811249
v 1.358046 2.705858 -2.449986
v -0.610910 2.526873 -0.991509
v 1.818561 -1.038101 1.560122
v 1.220404 2.594335 -2.665943
v 3.702428 -0.914261 -0.052704
v 0.282519 2.525618 -1.841706
v 0.618184 0.759165 0.260808
v 2.806893 -0.916910 0.804187
v 2.575692 0.985760 -1.227020
v 1.407564 0.714550 -0.829874
v -0.132531 2.560772 -1.383336
v 1.207434 0.011712 0.994797
v 3.278085 -0.876466 0.398103
v 1.750199 1.663617 -2.130562
v 0.731141 2.531974 -2.275272
v 0.057901 1.732096 -0.279823
v 2.318659 -0.966902 1.190923
v 3.048762 -0.090934 -0.735197
v 1.974995 0.817967 -1.012140
v 1.058236 0.774123 -0.321116
v 0.953455 1.824540 -1.167655
v 2.187601 0.077948 0.213840
v 1.594358 0.190755 0.635138
v 0.641456 1.928559 -0.567977
v 1.322644 1.913927 -1.733653
v 2.540824 -0.174984 -0.366324
v 1.536011 2.526873 -3.036338
v 3.965482 -1.038101 -0.484717
v 3.367316 2.594335 -4.710773
v 5.849349 -0.914261 -2.097533
v 2.429430 2.525618 -3.886535
v 2.765106 0.759165 -1.784022
v 4.953815 -0.916910 -1.240643
v 4.722603 0.985760 -3.271850
v 3.554475 0.714550 -2.874703
v 2.014380 2.560772 -3.428166
v 3.354355 0.011712 -1.050033
v 5.425006 -0.876466 -1.646726
v 3.897110 1.663616 -4.175391
v 2.878062 2.531974 -4.320111
v 2.204812 1.732096 -2.324652
v 4.465570 -0.966903 -0.853916
v 5.195673 -0.090934 -2.780026
v 4.121916 0.817966 -3.056970
v 3.205147 0.774122 -2.365955
v 3.100366 1.824539 -3.212495
v 4.334512 0.077948 -1.830999
v 3.741269 0.190755 -1.409702
v 2.788367 1.928559 -2.612807
v 3.469565 1.913927 -3.778482
v 4.687736 -0.174984 -2.411163
v -2.773332 2.526873 1.068090
v -0.343862 -1.038101 3.619721
v -0.942028 2.594335 -0.606344
v 1.540005 -0.914260 2.006905
v -1.879904 2.525618 0.217903
v -1.544238 0.759165 2.320417
v 0.644471 -0.916910 2.863796
v 0.413269 0.985760 0.832589
v -0.754858 0.714551 1.229725
v -2.294953 2.560772 0.676273
v -0.954989 0.011712 3.054405
v 1.115663 -0.876466 2.457712
v -0.412223 1.663617 -0.070953
v -1.431281 2.531974 -0.215673
v -2.104521 1.732097 1.779776
v 0.156236 -0.966902 3.250522
v 0.886330 -0.090933 1.324412
v -0.187428 0.817967 1.047459
v -1.104187 0.774123 1.738483
v -1.208967 1.824540 0.891944
v 0.025169 0.077948 2.273439
v -0.568064 0.190756 2.694736
v -1.520966 1.928559 1.491632
v -0.839778 1.913928 0.325946
v 0.378402 -0.174983 1.693275
v -4.979737 2.526874 3.169586
v -2.550267 -1.038101 5.721216
v -3.148433 2.594335 1.495152
v -0.666399 -0.914260 4.108391
v -4.086308 2.525619 2.319388
v -3.750643 0.759166 4.421913
v -1.561934 -0.916909 4.965291
v -1.793135 0.985760 2.934074
v -2.961263 0.714551 3.331221
v -4.501358 2.560772 2.777768
v -3.161393 0.011712 5.155891
v -1.090742 -0.876466 4.559208
v -2.618628 1.663617 2.030542
v -3.637686 2.531975 1.885823
v -4.310926 1.732097 3.881272
v -2.050169 -0.966902 5.352017
v -1.320075 -0.090933 3.425908
v -2.393832 0.817967 3.148954
v -3.310601 0.774123 3.839979
v -3.415372 1.824540 2.993439
v -2.181236 0.077948 4.374934
v -2.774479 0.190756 4.796232
v -3.727371 1.928559 3.593118
v -3.046183 1.913928 2.427441
v -1.828003 -0.174983 3.794771
vn 0.6897 -0.0000 0.7241
vn -0.7241 -0.0000 0.6897
vn -0.6897 -0.0000 -0.7241
vn 0.7241 -0.0000 -0.6897
vn -0.0000 -1.0000 -0.0000
vn -0.5074 0.6773 -0.5327
vn -0.0000 1.0000 -0.0000
vn 0.5074 -0.6773 0.5327
vn 0.4671 0.7357 0.4905
vn 0.4672 0.7357 0.4905
vn 0.4382 0.7414 0.5082
vn 0.4874 0.7724 0.4073
vn 0.3778 0.7950 0.4746
vn 0.3340 0.6914 0.6407
vn 0.4542 0.7213 0.5230
vn 0.3941 0.6874 0.6101
vn 0.3263 0.6764 0.6604
vn 0.4475 0.7482 0.4898
vn 0.5236 0.6716 0.5242
vn 0.5600 0.6885 0.4608
vn 0.5517 0.6815 0.4808
vn 0.5808 0.6706 0.4616
vn 0.4025 0.7539 0.5193
vn 0.4515 0.6150 0.6464
vn 0.5475 0.6930 0.4690
vn 0.4938 0.7671 0.4095
vn 0.4143 0.6946 0.5881
vn 0.3688 0.7156 0.5932
vn 0.4025 0.5963 0.6946
vn 0.3596 0.8347 0.4170
vn 0.4718 0.8163 0.3332
vn 0.1903 0.8005 0.5683
vn 0.3522 0.6682 0.6554
vn 0.4794 0.7586 0.4413
vn 0.5382 0.7078 0.4576
vn 0.1902 0.8005 0.5683
vn 0.4871 0.7725 0.4074
vn 0.3340 0.6914 0.6406
vn 0.3263 0.6763 0.6604
vn 0.3597 0.8347 0.4169
vt 0.551883 0.808501
vt 0.551883 0.996507
vt 0.504882 0.996507
vt 0.504882 0.808501
vt 0.358655 0.808501
vt 0.358655 0.996507
vt 0.316876 0.996507
vt 0.316876 0.808501
vt 0.175872 0.808501
vt 0.175872 0.996507
vt 0.128871 0.996507
vt 0.128871 0.808501
vt 0.087092 0.808501
vt 0.087092 0.996507
vt -0.059134 0.879921
vt -0.059134 0.808501
vt 0.175872 0.766722
vt 0.128871 0.766722
vt 0.265175 1.180191
vt 0.227574 1.180191
vt 0.175872 1.038285
vt 0.128871 1.038285
vt 0.175872 0.620496
vt 0.128871 0.620496
vt 0.504882 0.875295
vt 0.316876 0.620496
vt 0.316876 0.766722
vt 0.269875 0.766722
vt 0.269875 0.620496
vt 0.222874 0.766722
vt 0.222874 0.620496
vt 0.316876 1.038285
vt 0.269875 1.038285
vt 0.269875 0.996507
vt 0.222874 1.038285
vt 0.222874 0.996507
vt 0.171172 1.042607
vt 0.171172 1.180191
vt 0.274575 1.180191
vt 0.274575 1.042607
vt 0.269875 0.808501
vt 0.222874 0.808501
vt 0.692887 0.808501
vt 0.692887 0.996507
vt 0.645885 0.996507
vt 0.645885 0.808501
vt 0.598884 0.996507
vt 0.598884 0.808501
vt 0.133571 1.180191
vt 0.133571 1.042607
vt 0.312176 1.042607
vt 0.312176 1.180191
vt 0.265175 1.042607
vt 0.227574 1.042607
vt 0.218173 1.042607
vt 0.218173 1.180191
vt 0.180572 1.180191
vt 0.180572 1.042607
vt 0.316876 1.184512
vt 0.269875 1.184512
vt 0.128871 1.184512
vt 0.175872 1.184512
vt 0.222874 1.184512
vt 0.087823 0.642445
vt 0.089532 0.582138
vt 0.115940 0.582355
vt 0.115940 0.641975
vt 0.090425 0.762472
vt 0.089408 0.700050
vt 0.115940 0.698990
vt 0.115940 0.752439
vt 0.033604 0.756239
vt 0.040312 0.702191
vt 0.065961 0.703181
vt 0.062251 0.756148
vt 0.025789 0.651832
vt 0.031777 0.584092
vt 0.060309 0.582695
vt 0.058800 0.644447
vt 0.006840 0.698853
vt 0.006840 0.646565
vt 0.006840 0.585779
vt 0.036132 0.800896
vt 0.061691 0.799941
vt 0.006840 0.800161
vt 0.006840 0.752256
vt 0.087365 0.800185
vt 0.115940 0.802014
s 1
f 9/1/1 25/2/1 21/3/1 2/4/1
f 7/5/2 24/6/2 6/7/2 5/8/2
f 12/9/3 17/10/3 4/11/3 3/12/3
f 8/13/4 22/14/4 23/15/4 1/16/4
f 20/17/5 12/9/5 3/12/5 8/18/5
f 40/19/6 66/19/6 65/20/6 39/20/6
f 17/10/7 30/21/7 22/22/7 4/11/7
f 11/23/5 20/17/5 8/18/5 1/24/5
f 3/12/4 4/11/4 22/14/4 8/13/4
f 2/4/2 21/25/2 24/6/2 7/5/2
f 2/26/5 7/27/5 18/28/5 9/29/5
f 9/29/5 18/28/5 19/30/5 10/31/5
f 10/31/5 19/30/5 20/17/5 11/23/5
f 6/7/7 24/32/7 26/33/7 15/34/7
f 15/34/7 26/33/7 29/35/7 16/36/7
f 16/36/7 29/35/7 30/21/7 17/10/7
f 36/37/4 62/37/4 63/38/4 37/38/4
f 31/39/2 57/39/2 64/40/2 38/40/2
f 7/27/5 5/8/5 14/41/5 18/28/5
f 18/28/5 14/41/5 13/42/5 19/30/5
f 19/30/5 13/42/5 12/9/5 20/17/5
f 5/8/3 6/7/3 15/34/3 14/41/3
f 14/41/3 15/34/3 16/36/3 13/42/3
f 13/42/3 16/36/3 17/10/3 12/9/3
f 1/43/1 23/44/1 27/45/1 11/46/1
f 11/46/1 27/45/1 28/47/1 10/48/1
f 10/48/1 28/47/1 25/2/1 9/1/1
f 24/6/2 21/3/2 48/3/2 51/6/2
f 30/21/6 29/35/6 56/35/6 52/21/6
f 23/15/4 22/14/4 49/14/4 50/15/4
f 29/35/6 26/33/6 55/33/6 56/35/6
f 25/2/8 28/47/8 54/47/8 47/2/8
f 36/37/9 37/38/9 34/49/9 33/50/9
f 35/51/9 32/52/9 31/39/9 38/40/9
f 41/53/9 40/19/9 39/20/9 42/54/9
f 45/55/9 44/56/9 43/57/9 46/58/9
f 34/49/2 60/49/2 59/50/2 33/50/2
f 35/51/4 61/51/4 58/52/4 32/52/4
f 42/54/8 68/54/8 67/53/8 41/53/8
f 46/58/8 72/58/8 71/55/8 45/55/8
f 33/50/8 59/50/8 62/37/8 36/37/8
f 41/53/4 67/53/4 66/19/4 40/19/4
f 45/55/4 71/55/4 70/56/4 44/56/4
f 37/38/6 63/38/6 60/49/6 34/49/6
f 39/20/2 65/20/2 68/54/2 42/54/2
f 43/57/2 69/57/2 72/58/2 46/58/2
f 38/40/8 64/40/8 61/51/8 35/51/8
f 44/56/6 70/56/6 69/57/6 43/57/6
f 57/39/9 58/52/9 48/59/10 47/60/9
f 59/50/9 60/49/9 50/61/9 49/22/9
f 58/52/9 61/51/9 51/32/10 48/59/10
f 62/37/9 59/50/9 49/22/9 52/21/9
f 60/49/9 63/38/9 53/62/9 50/61/9
f 61/51/9 64/40/9 55/33/9 51/32/10
f 64/40/9 57/39/9 47/60/9 55/33/9
f 63/38/9 62/37/9 52/21/9 53/62/9
f 65/20/10 66/19/9 47/60/9 54/63/9
f 67/53/9 68/54/9 56/35/9 55/33/9
f 66/19/9 67/53/9 55/33/9 47/60/9
f 68/54/9 65/20/10 54/63/9 56/35/9
f 69/57/9 70/56/9 54/63/9 53/62/9
f 71/55/9 72/58/9 52/21/9 56/35/9
f 70/56/9 71/55/9 56/35/9 54/63/9
f 72/58/9 69/57/9 53/62/9 52/21/9
f 27/45/8 23/44/8 50/44/8 53/45/8
f 22/22/6 30/21/6 52/21/6 49/22/6
f 28/47/8 27/45/8 53/45/8 54/47/8
f 21/3/8 25/2/8 47/2/8 48/3/8
f 26/33/6 24/32/6 51/32/6 55/33/6
f 32/52/6 58/52/6 57/39/6 31/39/6
f 97/64/11 84/65/12 76/66/13 89/67/14
f 96/68/15 90/69/16 80/70/17 85/71/18
f 95/72/19 91/73/20 81/74/21 92/75/22
f 94/76/23 88/77/24 79/78/25 93/79/26
f 91/73/20 94/76/23 93/79/26 81/74/21
f 78/80/27 83/81/28 94/76/23 91/73/20
f 83/81/28 74/82/29 88/77/24 94/76/23
f 82/83/30 95/72/19 92/75/22 77/84/31
f 73/85/32 87/86/33 95/72/19 82/83/30
f 87/86/33 78/80/27 91/73/20 95/72/19
f 86/87/34 96/68/15 85/71/18 75/88/35
f 77/84/31 92/75/22 96/68/15 86/87/34
f 92/75/22 81/74/21 90/69/16 96/68/15
f 90/69/16 97/64/11 89/67/14 80/70/17
f 81/74/21 93/79/26 97/64/11 90/69/16
f 93/79/26 79/78/25 84/65/12 97/64/11
f 122/64/11 109/65/12 101/66/13 114/67/14
f 121/68/15 115/69/16 105/70/17 110/71/18
f 120/72/19 116/73/20 106/74/21 117/75/22
f 119/76/23 113/77/24 104/78/25 118/79/26
f 116/73/20 119/76/23 118/79/26 106/74/21
f 103/80/27 108/81/28 119/76/23 116/73/20
f 108/81/28 99/82/29 113/77/24 119/76/23
f 107/83/30 120/72/19 117/75/22 102/84/31
f 98/85/32 112/86/33 120/72/19 107/83/30
f 112/86/33 103/80/27 116/73/20 120/72/19
f 111/87/34 121/68/15 110/71/18 100/88/35
f 102/84/31 117/75/22 121/68/15 111/87/34
f 117/75/22 106/74/21 115/69/16 121/68/15
f 115/69/16 122/64/11 114/67/14 105/70/17
f 106/74/21 118/79/26 122/64/11 115/69/16
f 118/79/26 104/78/25 109/65/12 122/64/11
f 147/64/11 134/65/12 126/66/13 139/67/14
f 146/68/15 140/69/16 130/70/17 135/71/18
f 145/72/19 141/73/20 131/74/21 142/75/22
f 144/76/23 138/77/24 129/78/25 143/79/26
f 141/73/20 144/76/23 143/79/26 131/74/21
f 128/80/27 133/81/28 144/76/23 141/73/20
f 133/81/28 124/82/29 138/77/24 144/76/23
f 132/83/30 145/72/19 142/75/22 127/84/31
f 123/85/36 137/86/33 145/72/19 132/83/30
f 137/86/33 128/80/27 141/73/20 145/72/19
f 136/87/34 146/68/15 135/71/18 125/88/35
f 127/84/31 142/75/22 146/68/15 136/87/34
f 142/75/22 131/74/21 140/69/16 146/68/15
f 140/69/16 147/64/11 139/67/14 130/70/17
f 131/74/21 143/79/26 147/64/11 140/69/16
f 143/79/26 129/78/25 134/65/12 147/64/11
f 172/64/11 159/65/37 151/66/13 164/67/38
f 171/68/15 165/69/16 155/70/39 160/71/18
f 170/72/19 166/73/20 156/74/21 167/75/22
f 169/76/23 163/77/24 154/78/25 168/79/26
f 166/73/20 169/76/23 168/79/26 156/74/21
f 153/80/27 158/81/28 169/76/23 166/73/20
f 158/81/28 149/82/29 163/77/24 169/76/23
f 157/83/40 170/72/19 167/75/22 152/84/31
f 148/85/36 162/86/33 170/72/19 157/83/40
f 162/86/33 153/80/27 166/73/20 170/72/19
f 161/87/34 171/68/15 160/71/18 150/88/35
f 152/84/31 167/75/22 171/68/15 161/87/34
f 167/75/22 156/74/21 165/69/16 171/68/15
f 165/69/16 172/64/11 164/67/38 155/70/39
f 156/74/21 168/79/26 172/64/11 165/69/16
f 168/79/26 154/78/25 159/65/37 172/64/11
