# Blender 4.5.3 LTS
# www.blender.org
o Mesa_LOD00
v -1.034028 -1.813412 -5.828420
v -1.034028 0.438256 -5.828420
v -1.034028 -1.813412 -5.141922
v -1.034028 0.438256 -5.141922
v -1.720525 -1.813412 -5.828420
v -1.720525 0.438256 -5.828420
v -1.720525 -1.813412 -5.141922
v -1.720525 0.438256 -5.141922
v 1.034023 -1.813412 -5.828420
v 1.034023 0.438256 -5.828420
v 1.034023 -1.813412 -5.141922
v 1.034023 0.438256 -5.141922
v 1.720520 -1.813412 -5.828420
v 1.720520 0.438256 -5.828420
v 1.720520 -1.813412 -5.141922
v 1.720520 0.438256 -5.141922
v -1.034028 -1.813411 5.828421
v -1.034028 0.438257 5.828421
v -1.034028 -1.813411 5.141923
v -1.034028 0.438257 5.141923
v -1.720525 -1.813411 5.828421
v -1.720525 0.438257 5.828421
v -1.720525 -1.813411 5.141923
v -1.720525 0.438257 5.141923
v 1.034033 -1.813411 5.828421
v 1.034033 0.438257 5.828421
v 1.034033 -1.813411 5.141923
v 1.034033 0.438257 5.141923
v 1.720530 -1.813411 5.828421
v 1.720530 0.438257 5.828421
v 1.720530 -1.813411 5.141923
v 1.720530 0.438257 5.141923
v 1.893647 0.334151 -6.592994
v -1.893652 0.334151 -6.592994
v 1.893656 0.334152 6.592993
v -1.893652 0.334152 6.592993
v 1.893656 0.950658 6.592993
v 1.893647 0.950657 -6.592994
v -1.893652 0.950657 -6.592994
v -1.893652 0.950658 6.592993
v 1.893656 1.632579 6.592993
v 1.893647 1.632578 -6.592994
v -1.893652 1.632578 -6.592994
v -1.893652 1.632579 6.592993
v 2.265609 0.950658 6.964946
v 2.265609 0.950657 -6.964946
v -2.265615 0.950657 -6.964946
v -2.265605 0.950658 6.964946
v 2.265609 1.632579 6.964946
v 2.265609 1.632578 -6.964946
v -2.265615 1.632578 -6.964946
v -2.265605 1.632579 6.964946
vn 1.0000 -0.0000 -0.0000
vn -0.0000 -0.0000 1.0000
vn -1.0000 -0.0000 -0.0000
vn -0.0000 -0.0000 -1.0000
vn -0.0000 -1.0000 -0.0000
vn -0.0000 1.0000 -0.0000
vt 0.430211 0.749919
vt 0.000161 0.749919
vt 0.000161 0.500000
vt 0.430211 0.500000
vt 0.000161 0.250080
vt 0.430211 0.250081
vt 0.000161 0.000161
vt 0.430212 0.000161
vt 0.430211 0.999839
vt 0.000161 0.999839
vt 0.443691 0.983098
vt 0.443691 0.672969
vt 0.532767 0.672969
vt 0.532767 0.983098
vt 0.857467 0.712568
vt 0.545495 0.712568
vt 0.536695 0.703767
vt 0.866267 0.703767
vt 0.857467 0.850493
vt 0.545495 0.850493
vt 0.545495 0.835907
vt 0.857467 0.835907
vt 0.545495 0.664247
vt 0.857467 0.664247
vt 0.857467 0.678833
vt 0.545495 0.678833
vt 0.443691 0.658469
vt 0.532767 0.658469
vt 0.532767 0.997598
vt 0.443691 0.997598
vt 0.857467 0.802173
vt 0.545495 0.802173
vt 0.866267 0.810973
vt 0.536695 0.810973
vt 0.891201 0.712568
vt 0.891201 0.802173
vt 0.882401 0.810973
vt 0.882401 0.703767
vt 0.434943 0.649721
vt 0.541515 0.649721
vt 0.866267 0.827107
vt 0.536695 0.827107
vt 0.536695 0.687633
vt 0.866267 0.687633
vt 0.434943 0.633682
vt 0.541515 0.633682
s 1
f 1/1/1 2/2/1 4/3/1 3/4/1
f 3/4/2 4/3/2 8/5/2 7/6/2
f 7/6/3 8/5/3 6/7/3 5/8/3
f 5/9/4 6/10/4 2/2/4 1/1/4
f 9/1/3 11/4/3 12/3/3 10/2/3
f 11/4/2 15/6/2 16/5/2 12/3/2
f 15/6/1 13/8/1 14/7/1 16/5/1
f 13/9/4 9/1/4 10/2/4 14/10/4
f 17/1/1 19/4/1 20/3/1 18/2/1
f 19/4/4 23/6/4 24/5/4 20/3/4
f 23/6/3 21/8/3 22/7/3 24/5/3
f 21/9/2 17/1/2 18/2/2 22/10/2
f 25/1/3 26/2/3 28/3/3 27/4/3
f 27/4/4 28/3/4 32/5/4 31/6/4
f 31/6/1 32/5/1 30/7/1 29/8/1
f 29/9/2 30/10/2 26/2/2 25/1/2
f 33/11/5 35/12/5 36/13/5 34/14/5
f 42/15/6 41/16/6 49/17/6 50/18/6
f 34/19/3 36/20/3 40/21/3 39/22/3
f 35/23/1 33/24/1 38/25/1 37/26/1
f 36/13/2 35/12/2 37/27/2 40/28/2
f 33/11/4 34/14/4 39/29/4 38/30/4
f 42/15/6 43/31/6 44/32/6 41/16/6
f 44/32/6 43/31/6 51/33/6 52/34/6
f 38/35/5 39/36/5 47/37/5 46/38/5
f 40/28/5 37/27/5 45/39/5 48/40/5
f 46/38/4 47/37/4 51/33/4 50/18/4
f 47/41/3 48/42/3 52/34/3 51/33/3
f 45/43/1 46/44/1 50/18/1 49/17/1
f 48/40/2 45/39/2 49/45/2 52/46/2
f 39/22/5 40/21/5 48/42/5 47/41/5
f 41/16/6 44/32/6 52/34/6 49/17/6
f 37/26/5 38/25/5 46/44/5 45/43/5
f 43/31/6 42/15/6 50/18/6 51/33/6
