# Blender 4.5.3 LTS
# www.blender.org
o Poste_Mercado1
v -10.844616 -13.447752 0.707169
v -10.844616 -0.496282 0.707168
v -11.531400 -13.447752 0.030380
v -11.531400 -0.496282 0.030379
v -10.167838 -13.447752 0.020376
v -10.167838 -0.496282 0.020375
v -10.854621 -13.447752 -0.656403
v -10.854621 -0.496282 -0.656404
v 11.160333 -13.447752 0.689325
v 11.160333 -0.496282 0.689324
v 10.473549 -13.447752 0.012546
v 10.473549 -0.496282 0.012545
v 11.837121 -13.447752 0.002542
v 11.837121 -0.496282 0.002541
v 11.150329 -13.447752 -0.674247
v 11.150329 -0.496282 -0.674248
v 0.003915 -13.447753 -10.230800
v 0.003915 -0.496283 -10.230801
v -0.682869 -13.447753 -10.907589
v -0.682869 -0.496283 -10.907590
v 0.680704 -13.447753 -10.917593
v 0.680704 -0.496283 -10.917594
v -0.006090 -13.447753 -11.594373
v -0.006090 -0.496283 -11.594374
v 0.011151 -13.447751 11.677851
v 0.011151 -0.496281 11.677850
v -0.675632 -13.447751 11.001061
v -0.675632 -0.496281 11.001060
v 0.687940 -13.447751 10.991057
v 0.687940 -0.496281 10.991056
v 0.001147 -13.447751 10.314278
v 0.001147 -0.496281 10.314277
vn -0.7019 -0.0000 0.7123
vn -0.7123 -0.0000 -0.7019
vn 0.7019 -0.0000 -0.7123
vn 0.7123 -0.0000 0.7019
vt 0.018903 0.294764
vt 0.110646 0.293917
vt 0.111093 0.432511
vt 0.019628 0.431864
vt 0.109616 0.571078
vt 0.018456 0.568964
vt 0.019934 0.017603
vt 0.111093 0.019717
vt 0.109921 0.156817
vt 0.018456 0.156170
s 1
f 1/1/1 2/2/1 4/3/1 3/4/1
f 3/4/2 4/3/2 8/5/2 7/6/2
f 7/7/3 8/8/3 6/9/3 5/10/3
f 5/10/4 6/9/4 2/2/4 1/1/4
f 9/1/1 10/2/1 12/3/1 11/4/1
f 11/4/2 12/3/2 16/5/2 15/6/2
f 15/7/3 16/8/3 14/9/3 13/10/3
f 13/10/4 14/9/4 10/2/4 9/1/4
f 17/1/1 18/2/1 20/3/1 19/4/1
f 19/4/2 20/3/2 24/5/2 23/6/2
f 23/7/3 24/8/3 22/9/3 21/10/3
f 21/10/4 22/9/4 18/2/4 17/1/4
f 25/1/1 26/2/1 28/3/1 27/4/1
f 27/4/2 28/3/2 32/5/2 31/6/2
f 31/7/3 32/8/3 30/9/3 29/10/3
f 29/10/4 30/9/4 26/2/4 25/1/4
