# Blender 4.5.3 LTS
# www.blender.org
o Tela_3_3_LOD00
v -7.475113 -10.748025 8.291145
v -11.322394 -10.636509 0.000001
v -3.955875 -10.745047 10.832896
v -10.270695 -10.723184 4.487133
v -5.509757 -10.744405 9.749353
v -10.989659 -10.641283 2.287518
v -8.955652 -10.756556 6.514313
v 0.133352 -10.745479 -11.375027
v -7.475113 -10.748027 -8.291143
v -3.170614 -10.745049 -10.832894
v -10.270695 -10.723184 -4.487131
v -5.509757 -10.744407 -9.749352
v -10.989659 -10.641283 -2.287516
v -1.515259 -10.744261 -11.130516
v -8.955652 -10.756557 -6.514311
v 0.133352 3.210246 6.363898
v -4.123296 3.208816 4.638581
v -6.275702 3.271208 -0.000000
v -1.715090 3.210484 6.060595
v -5.687322 3.222716 2.510385
v -3.023755 3.210841 5.454392
v -6.089551 3.268532 1.279782
v -0.788990 3.210924 6.227100
v -4.951606 3.204042 3.644508
v 0.133352 3.210245 -6.363899
v -4.123296 3.208815 -4.638582
v -1.715090 3.210483 -6.060596
v -5.687322 3.222716 -2.510386
v -3.023755 3.210840 -5.454393
v -6.089551 3.268532 -1.279782
v -0.788990 3.210923 -6.227101
v -4.951606 3.204041 -3.644509
v -1.178473 -1.543783 6.813546
v -2.541696 -7.131437 8.770831
v -1.738493 -3.612748 7.283474
v -0.604471 0.302314 6.586188
v -3.205801 0.120661 -5.768902
v -4.435717 -7.131401 -7.893781
v -3.660819 -3.612420 -6.555024
v -6.027223 -7.134837 -6.713337
v -4.368733 0.118700 -4.906029
v -4.982294 -3.614939 -5.574650
v -6.022861 0.133985 2.655100
v -8.291199 -7.115456 3.633403
v -6.862038 -3.598280 3.017020
v -7.226213 -7.142167 5.274776
v -5.244765 0.113908 3.854630
v -5.977806 -3.620730 4.380014
v -6.448255 0.182705 -1.353555
v -8.873486 -7.049335 -1.852318
v -7.345472 -3.543200 -1.538066
v -9.142967 -7.045532 0.000001
v -6.645136 0.185601 -0.000000
v -7.569201 -3.539984 0.000000
v -3.205801 0.120662 5.768902
v -4.435717 -7.131400 7.893782
v -3.660819 -3.612419 6.555025
v -0.842174 0.120542 -6.586188
v -1.201418 -7.130466 -9.011593
v -0.975086 -3.612136 -7.483524
v -2.541696 -7.131447 -8.770829
v -1.821677 0.120148 -6.410071
v -2.088061 -3.612749 -7.283473
v -6.448255 0.182706 1.353555
v -8.873486 -7.049335 1.852319
v -7.345472 -3.543200 1.538066
v -5.244765 0.113908 -3.854630
v -7.226213 -7.142168 -5.274775
v -5.977806 -3.620730 -4.380013
v -8.291199 -7.115457 -3.633402
v -6.022861 0.133985 -2.655100
v -6.862038 -3.598280 -3.017020
v 0.133352 1.554185 6.730876
v -6.027223 -7.134836 6.713338
v -4.368733 0.118701 4.906029
v -4.982294 -3.614938 5.574651
v 0.133352 0.119800 -6.730876
v 0.133352 -7.131337 -9.209491
v 0.133352 -3.612923 -7.647904
v 7.741809 -10.748025 8.291145
v 11.589091 -10.636509 0.000001
v 4.222571 -10.745047 10.832896
v 10.537391 -10.723184 4.487133
v 5.776453 -10.744405 9.749353
v 11.256356 -10.641283 2.287518
v 9.222348 -10.756556 6.514313
v 7.741809 -10.748027 -8.291143
v 3.437310 -10.745049 -10.832894
v 10.537391 -10.723184 -4.487131
v 5.776453 -10.744407 -9.749352
v 11.256356 -10.641283 -2.287516
v 1.781955 -10.744261 -11.130516
v 9.222348 -10.756557 -6.514311
v 4.389992 3.208816 4.638581
v 6.542397 3.271208 -0.000000
v 1.981786 3.210484 6.060595
v 5.954018 3.222716 2.510385
v 3.290451 3.210841 5.454392
v 6.356247 3.268532 1.279782
v 1.055686 3.210924 6.227100
v 5.218302 3.204042 3.644508
v 4.389992 3.208815 -4.638582
v 1.981786 3.210483 -6.060596
v 5.954018 3.222716 -2.510386
v 3.290451 3.210840 -5.454393
v 6.356247 3.268532 -1.279782
v 1.055686 3.210923 -6.227101
v 5.218302 3.204041 -3.644509
v 1.445169 -1.543783 6.813546
v 2.808392 -7.131437 8.770831
v 2.005189 -3.612748 7.283474
v 0.871166 0.302314 6.586188
v 3.472497 0.120661 -5.768902
v 4.702412 -7.131401 -7.893781
v 3.927515 -3.612420 -6.555024
v 6.293918 -7.134837 -6.713337
v 4.635429 0.118700 -4.906029
v 5.248990 -3.614939 -5.574650
v 6.289566 0.133985 2.655100
v 8.557895 -7.115456 3.633403
v 7.128734 -3.598280 3.017020
v 7.492908 -7.142167 5.274776
v 5.511461 0.113908 3.854630
v 6.244501 -3.620730 4.380014
v 6.714951 0.182705 -1.353555
v 9.140182 -7.049335 -1.852318
v 7.612168 -3.543200 -1.538066
v 9.409662 -7.045532 0.000001
v 6.911831 0.185601 -0.000000
v 7.835897 -3.539984 0.000000
v 3.472497 0.120662 5.768902
v 4.702412 -7.131400 7.893782
v 3.927515 -3.612419 6.555025
v 1.108870 0.120542 -6.586188
v 1.468114 -7.130466 -9.011593
v 1.241782 -3.612136 -7.483524
v 2.808392 -7.131447 -8.770829
v 2.088373 0.120148 -6.410071
v 2.354757 -3.612749 -7.283473
v 6.714951 0.182706 1.353555
v 9.140182 -7.049335 1.852319
v 7.612168 -3.543200 1.538066
v 5.511461 0.113908 -3.854630
v 7.492908 -7.142168 -5.274775
v 6.244501 -3.620730 -4.380013
v 8.557895 -7.115457 -3.633402
v 6.289566 0.133985 -2.655100
v 7.128734 -3.598280 -3.017020
v 6.293918 -7.134836 6.713338
v 4.635429 0.118701 4.906029
v 5.248990 -3.614938 5.574651
vn -0.9835 0.1811 -0.0000
vn -0.9444 0.3289 -0.0000
vn -0.9195 0.3244 0.2219
vn -0.9572 0.1785 0.2278
vn -0.8841 0.4674 -0.0000
vn -0.8612 0.4624 0.2108
vn -0.6764 0.1775 0.7149
vn -0.6509 0.3223 0.6874
vn -0.4519 0.3323 0.8279
vn -0.4825 0.1653 0.8601
vn -0.6113 0.4586 0.6450
vn -0.4603 0.4705 0.7528
vn -0.6764 0.1775 -0.7149
vn -0.6509 0.3223 -0.6874
vn -0.7617 0.3199 -0.5634
vn -0.7918 0.1764 -0.5847
vn -0.6113 0.4586 -0.6450
vn -0.7153 0.4555 -0.5300
vn -0.0000 0.1796 -0.9837
vn -0.0000 0.3260 -0.9454
vn -0.1533 0.3205 -0.9348
vn -0.1593 0.1768 -0.9713
vn -0.0000 0.4631 -0.8863
vn -0.1439 0.4570 -0.8778
vn -0.8857 0.1791 -0.4283
vn -0.8497 0.3250 -0.4152
vn -0.9195 0.3244 -0.2219
vn -0.9572 0.1785 -0.2278
vn -0.7954 0.4616 -0.3929
vn -0.8612 0.4624 -0.2108
vn -0.7918 0.1764 0.5847
vn -0.7617 0.3199 0.5634
vn -0.7153 0.4555 0.5300
vn -0.2963 0.1787 -0.9382
vn -0.2849 0.3244 -0.9020
vn -0.4837 0.3223 -0.8137
vn -0.5028 0.1776 -0.8460
vn -0.2673 0.4611 -0.8461
vn -0.4541 0.4588 -0.7638
vn -0.8497 0.3250 0.4152
vn -0.8857 0.1791 0.4283
vn -0.7954 0.4616 0.3929
vn -0.3291 0.3299 0.8848
vn -0.3062 0.2029 0.9301
vn -0.3845 0.4772 0.7902
vn -0.2759 0.1187 0.9538
vn -0.4982 0.1117 0.8598
vn -0.1491 0.1333 0.9798
vn -0.1915 0.1362 0.9720
vn -0.4160 0.5399 0.7317
vn -0.4641 0.5252 0.7133
vn -0.0000 0.1461 0.9893
vn -0.5074 0.1168 -0.8538
vn -0.2991 0.1174 -0.9470
vn -0.5917 0.5098 -0.6245
vn -0.4393 0.5103 -0.7393
vn -0.6824 0.1167 -0.7216
vn -0.2583 0.5123 -0.8190
vn -0.7993 0.1159 -0.5896
vn -0.6923 0.5073 -0.5133
vn -0.8955 0.1174 0.4293
vn -0.9665 0.1178 0.2279
vn -0.6923 0.5073 0.5133
vn -0.7692 0.5124 0.3817
vn -0.7993 0.1159 0.5896
vn -0.8322 0.5151 0.2050
vn -0.6824 0.1167 0.7216
vn -0.5917 0.5098 0.6245
vn -0.9665 0.1178 -0.2279
vn -0.8955 0.1174 -0.4293
vn -0.8549 0.5188 -0.0000
vn -0.8322 0.5151 -0.2050
vn -0.9929 0.1189 -0.0000
vn -0.7692 0.5124 -0.3817
vn -0.1608 0.1166 -0.9801
vn -0.0000 0.1179 -0.9930
vn -0.1391 0.5099 -0.8489
vn -0.0000 0.5140 -0.8578
vn 0.9835 0.1811 -0.0000
vn 0.9572 0.1785 0.2278
vn 0.9195 0.3244 0.2219
vn 0.9444 0.3289 -0.0000
vn 0.8612 0.4624 0.2108
vn 0.8841 0.4674 -0.0000
vn 0.6764 0.1775 0.7149
vn 0.4825 0.1653 0.8601
vn 0.4519 0.3323 0.8279
vn 0.6509 0.3223 0.6874
vn 0.4603 0.4705 0.7528
vn 0.6113 0.4586 0.6450
vn 0.6764 0.1775 -0.7149
vn 0.7918 0.1764 -0.5847
vn 0.7617 0.3199 -0.5634
vn 0.6509 0.3223 -0.6874
vn 0.7153 0.4555 -0.5300
vn 0.6113 0.4586 -0.6450
vn 0.1593 0.1768 -0.9713
vn 0.1533 0.3205 -0.9348
vn 0.1439 0.4570 -0.8778
vn 0.8857 0.1791 -0.4283
vn 0.9572 0.1785 -0.2278
vn 0.9195 0.3244 -0.2219
vn 0.8497 0.3250 -0.4152
vn 0.8612 0.4624 -0.2108
vn 0.7954 0.4616 -0.3929
vn 0.7918 0.1764 0.5847
vn 0.7617 0.3199 0.5634
vn 0.7153 0.4555 0.5300
vn 0.2963 0.1787 -0.9382
vn 0.5028 0.1776 -0.8460
vn 0.4837 0.3223 -0.8137
vn 0.2849 0.3244 -0.9020
vn 0.4541 0.4588 -0.7638
vn 0.2673 0.4611 -0.8461
vn 0.8857 0.1791 0.4283
vn 0.8497 0.3250 0.4152
vn 0.7953 0.4616 0.3929
vn 0.3062 0.2029 0.9301
vn 0.3291 0.3299 0.8848
vn 0.3845 0.4772 0.7902
vn 0.4982 0.1117 0.8598
vn 0.2759 0.1187 0.9538
vn 0.1491 0.1333 0.9798
vn 0.1915 0.1362 0.9720
vn 0.4160 0.5399 0.7317
vn 0.4641 0.5252 0.7133
vn 0.2991 0.1174 -0.9470
vn 0.5074 0.1168 -0.8538
vn 0.5917 0.5098 -0.6245
vn 0.4393 0.5103 -0.7393
vn 0.6824 0.1167 -0.7216
vn 0.2583 0.5123 -0.8190
vn 0.7993 0.1159 -0.5896
vn 0.6923 0.5073 -0.5133
vn 0.9665 0.1178 0.2279
vn 0.8955 0.1174 0.4293
vn 0.6923 0.5073 0.5133
vn 0.7692 0.5124 0.3817
vn 0.7993 0.1159 0.5896
vn 0.8322 0.5151 0.2050
vn 0.6824 0.1167 0.7216
vn 0.5917 0.5098 0.6245
vn 0.8955 0.1174 -0.4293
vn 0.9665 0.1178 -0.2279
vn 0.8549 0.5188 -0.0000
vn 0.8322 0.5151 -0.2050
vn 0.9929 0.1189 -0.0000
vn 0.7692 0.5124 -0.3817
vn 0.1608 0.1166 -0.9801
vn 0.1391 0.5099 -0.8489
vt 0.703559 0.686453
vt 0.695072 0.783808
vt 0.734985 0.785663
vt 0.737706 0.688420
vt 0.687079 0.881030
vt 0.733299 0.882608
vt 0.840448 0.684411
vt 0.854192 0.778091
vt 0.893499 0.770067
vt 0.875070 0.679022
vt 0.871836 0.870811
vt 0.917909 0.859311
vt 0.568439 0.659814
vt 0.537711 0.751070
vt 0.575425 0.762831
vt 0.600957 0.669281
vt 0.505085 0.841514
vt 0.548819 0.855561
vt 0.458139 0.612913
vt 0.413199 0.691419
vt 0.436325 0.704659
vt 0.479064 0.623215
vt 0.360977 0.765364
vt 0.387742 0.782773
vt 0.635650 0.677475
vt 0.615776 0.772834
vt 0.655336 0.778922
vt 0.669554 0.682360
vt 0.595383 0.867898
vt 0.641140 0.875169
vt 0.807152 0.687790
vt 0.815740 0.783242
vt 0.827002 0.877876
vt 0.500589 0.633552
vt 0.460248 0.718038
vt 0.499210 0.736129
vt 0.534859 0.647870
vt 0.415202 0.800250
vt 0.460383 0.822949
vt 0.774754 0.786311
vt 0.771795 0.689615
vt 0.779445 0.882729
vt 0.940643 0.756420
vt 0.935772 0.706044
vt 0.964332 0.843810
vt 0.896121 0.600359
vt 0.863209 0.606259
vt 0.938167 0.660740
vt 0.917505 0.595497
vt 0.990008 0.942266
vt 0.947672 0.953530
vt 0.949130 0.628521
vt 0.938631 0.590408
vt 0.561022 0.578041
vt 0.529839 0.565682
vt 0.469966 0.935416
vt 0.417748 0.913670
vt 0.591082 0.588644
vt 0.364411 0.886522
vt 0.619873 0.597162
vt 0.520643 0.951422
vt 0.770573 0.614792
vt 0.740425 0.613312
vt 0.840386 0.976402
vt 0.785339 0.983001
vt 0.801892 0.613769
vt 0.732132 0.982727
vt 0.831749 0.610813
vt 0.892944 0.967959
vt 0.680415 0.607871
vt 0.650485 0.603883
vt 0.679105 0.981615
vt 0.626561 0.974363
vt 0.710323 0.611674
vt 0.573997 0.966362
vt 0.509790 0.556549
vt 0.489967 0.547399
vt 0.331764 0.864727
vt 0.299384 0.842761
s 1
f 53/1/1 54/2/2 66/3/3 64/4/4
f 54/2/2 52/5/5 65/6/6 66/3/3
f 75/7/7 76/8/8 57/9/9 55/10/10
f 76/8/8 74/11/11 56/12/12 57/9/9
f 41/13/13 42/14/14 69/15/15 67/16/16
f 42/14/14 40/17/17 68/18/18 69/15/15
f 77/19/19 79/20/20 60/21/21 58/22/22
f 79/20/20 78/23/23 59/24/24 60/21/21
f 71/25/25 72/26/26 51/27/27 49/28/28
f 72/26/26 70/29/29 50/30/30 51/27/27
f 47/31/31 48/32/32 76/8/8 75/7/7
f 48/32/32 46/33/33 74/11/11 76/8/8
f 62/34/34 63/35/35 39/36/36 37/37/37
f 63/35/35 61/38/38 38/39/39 39/36/36
f 67/16/16 69/15/15 72/26/26 71/25/25
f 69/15/15 68/18/18 70/29/29 72/26/26
f 64/4/4 66/3/3 45/40/40 43/41/41
f 66/3/3 65/6/6 44/42/42 45/40/40
f 58/22/22 60/21/21 63/35/35 62/34/34
f 60/21/21 59/24/24 61/38/38 63/35/35
f 55/10/10 57/9/9 35/43/43 33/44/44
f 57/9/9 56/12/12 34/45/45 35/43/43
f 49/28/28 51/27/27 54/2/2 53/1/1
f 51/27/27 50/30/30 52/5/5 54/2/2
f 43/41/41 45/40/40 48/32/32 47/31/31
f 45/40/40 44/42/42 46/33/33 48/32/32
f 37/37/37 39/36/36 42/14/14 41/13/13
f 39/36/36 38/39/39 40/17/17 42/14/14
f 33/44/44 19/46/46 21/47/47 55/10/10
f 36/48/48 23/49/49 19/46/46 33/44/44
f 3/50/50 34/45/45 56/12/12 5/51/51
f 73/52/52 16/53/52 23/49/49 36/48/48
f 37/37/37 29/54/53 27/55/54 62/34/34
f 9/56/55 40/17/17 38/39/39 12/57/56
f 41/13/13 26/58/57 29/54/53 37/37/37
f 12/57/56 38/39/39 61/38/38 10/59/58
f 67/16/16 32/60/59 26/58/57 41/13/13
f 15/61/60 68/18/18 40/17/17 9/56/55
f 43/41/41 20/62/61 22/63/62 64/4/4
f 7/64/63 46/33/33 44/42/42 4/65/64
f 47/31/31 24/66/65 20/62/61 43/41/41
f 4/65/64 44/42/42 65/6/6 6/67/66
f 75/7/7 17/68/67 24/66/65 47/31/31
f 1/69/68 74/11/11 46/33/33 7/64/63
f 49/28/28 30/70/69 28/71/70 71/25/25
f 2/72/71 52/5/5 50/30/30 13/73/72
f 53/1/1 18/74/73 30/70/69 49/28/28
f 13/73/72 50/30/30 70/29/29 11/75/74
f 64/4/4 22/63/62 18/74/73 53/1/1
f 6/67/66 65/6/6 52/5/5 2/72/71
f 55/10/10 21/47/47 17/68/67 75/7/7
f 5/51/51 56/12/12 74/11/11 1/69/68
f 58/22/22 31/76/75 25/77/76 77/19/19
f 10/59/58 61/38/38 59/24/24 14/78/77
f 62/34/34 27/55/54 31/76/75 58/22/22
f 14/78/77 59/24/24 78/23/23 8/79/78
f 11/75/74 70/29/29 68/18/18 15/61/60
f 71/25/25 28/71/70 32/60/59 67/16/16
f 129/1/79 140/4/80 142/3/81 130/2/82
f 130/2/82 142/3/81 141/6/83 128/5/84
f 150/7/85 131/10/86 133/9/87 151/8/88
f 151/8/88 133/9/87 132/12/89 149/11/90
f 117/13/91 143/16/92 145/15/93 118/14/94
f 118/14/94 145/15/93 144/18/95 116/17/96
f 77/19/19 134/22/97 136/21/98 79/20/20
f 79/20/20 136/21/98 135/24/99 78/23/23
f 147/25/100 125/28/101 127/27/102 148/26/103
f 148/26/103 127/27/102 126/30/104 146/29/105
f 123/31/106 150/7/85 151/8/88 124/32/107
f 124/32/107 151/8/88 149/11/90 122/33/108
f 138/34/109 113/37/110 115/36/111 139/35/112
f 139/35/112 115/36/111 114/39/113 137/38/114
f 143/16/92 147/25/100 148/26/103 145/15/93
f 145/15/93 148/26/103 146/29/105 144/18/95
f 140/4/80 119/41/115 121/40/116 142/3/81
f 142/3/81 121/40/116 120/42/117 141/6/83
f 134/22/97 138/34/109 139/35/112 136/21/98
f 136/21/98 139/35/112 137/38/114 135/24/99
f 131/10/86 109/44/118 111/43/119 133/9/87
f 133/9/87 111/43/119 110/45/120 132/12/89
f 125/28/101 129/1/79 130/2/82 127/27/102
f 127/27/102 130/2/82 128/5/84 126/30/104
f 119/41/115 123/31/106 124/32/107 121/40/116
f 121/40/116 124/32/107 122/33/108 120/42/117
f 113/37/110 117/13/91 118/14/94 115/36/111
f 115/36/111 118/14/94 116/17/96 114/39/113
f 109/44/118 131/10/86 98/47/121 96/46/122
f 112/48/123 109/44/118 96/46/122 100/49/124
f 82/50/125 84/51/126 132/12/89 110/45/120
f 73/52/52 112/48/123 100/49/124 16/53/52
f 113/37/110 138/34/109 103/55/127 105/54/128
f 87/56/129 90/57/130 114/39/113 116/17/96
f 117/13/91 113/37/110 105/54/128 102/58/131
f 90/57/130 88/59/132 137/38/114 114/39/113
f 143/16/92 117/13/91 102/58/131 108/60/133
f 93/61/134 87/56/129 116/17/96 144/18/95
f 119/41/115 140/4/80 99/63/135 97/62/136
f 86/64/137 83/65/138 120/42/117 122/33/108
f 123/31/106 119/41/115 97/62/136 101/66/139
f 83/65/138 85/67/140 141/6/83 120/42/117
f 150/7/85 123/31/106 101/66/139 94/68/141
f 80/69/142 86/64/137 122/33/108 149/11/90
f 125/28/101 147/25/100 104/71/143 106/70/144
f 81/72/145 91/73/146 126/30/104 128/5/84
f 129/1/79 125/28/101 106/70/144 95/74/147
f 91/73/146 89/75/148 146/29/105 126/30/104
f 140/4/80 129/1/79 95/74/147 99/63/135
f 85/67/140 81/72/145 128/5/84 141/6/83
f 131/10/86 150/7/85 94/68/141 98/47/121
f 84/51/126 80/69/142 149/11/90 132/12/89
f 134/22/97 77/19/19 25/77/76 107/76/149
f 88/59/132 92/78/150 135/24/99 137/38/114
f 138/34/109 134/22/97 107/76/149 103/55/127
f 92/78/150 8/79/78 78/23/23 135/24/99
f 89/75/148 93/61/134 144/18/95 146/29/105
f 147/25/100 143/16/92 108/60/133 104/71/143
