# Blender 4.5.3 LTS
# www.blender.org
g Collider_Circuito_castillo.002_Caastyillo.005
v 161.524826 4.048839 -66.242554
v 161.414703 4.048843 -26.371109
v 168.549469 4.048840 -66.753395
v 169.424042 4.048843 -26.442995
v 180.999649 4.048839 -67.410454
v 185.559341 4.048842 -27.392872
v 185.464401 4.048840 -67.949165
v 191.285477 4.048842 -28.007612
v 187.569962 4.048840 -68.396400
v 201.331619 4.048842 -30.361273
v 188.804718 4.048839 -68.878227
v 211.104874 4.048844 -34.820816
v 189.635513 4.048838 -69.407959
v 219.713135 4.048843 -42.008915
v 190.207275 4.048841 -70.325417
v 225.857010 4.048841 -51.227150
v 190.470322 4.048841 -71.477470
v 229.447632 4.048840 -61.159435
v 191.365662 4.048840 -76.677811
v 231.340103 4.048841 -71.411247
v 192.021011 4.048841 -84.701530
v 232.273636 4.048840 -82.373604
v 192.358185 4.048840 -95.382812
v 232.669907 4.048840 -94.572113
v 192.465210 4.048839 -108.646484
v 232.784561 4.048840 -108.441788
v 192.434082 4.048822 -287.478485
v 232.753891 4.048822 -287.418854
v 192.541611 4.048822 -304.341888
v 232.708115 4.048821 -300.828613
v 195.819489 4.048821 -321.820526
v 233.748856 4.048821 -308.143799
v 204.928299 4.048821 -337.873016
v 236.448929 4.048821 -312.730560
v 217.888977 4.048820 -349.909363
v 241.286728 4.048821 -317.072815
v 233.027878 4.048820 -358.127045
v 248.435349 4.048821 -320.867096
v 249.363876 4.048821 -363.024719
v 257.375336 4.048821 -323.508728
v 266.289673 4.048819 -364.901764
v 267.213348 4.048821 -324.592468
v 267.213348 44.085564 -324.592468
v 266.289673 44.085560 -364.901764
v 257.375336 44.085564 -323.508728
v 249.363876 44.085564 -363.024719
v 248.435349 44.085564 -320.867096
v 233.027878 44.085560 -358.127045
v 241.286728 44.085564 -317.072815
v 217.888977 44.085560 -349.909363
v 236.448929 44.085564 -312.730560
v 204.928299 44.085560 -337.873016
v 233.748856 44.085564 -308.143799
v 195.819489 44.085564 -321.820526
v 232.708115 44.085560 -300.828613
v 192.541611 44.085564 -304.341888
v 232.753891 44.085560 -287.418854
v 192.434082 44.085560 -287.478485
v 232.784561 44.085583 -108.441788
v 192.465210 44.085579 -108.646484
v 232.669907 44.085579 -94.572113
v 192.358185 44.085579 -95.382812
v 232.273636 44.085579 -82.373604
v 192.021011 44.085579 -84.701530
v 231.340103 44.085583 -71.411247
v 191.365662 44.085579 -76.677811
v 229.447632 44.085583 -61.159435
v 190.470322 44.085583 -71.477470
v 225.857010 44.085583 -51.227150
v 190.207275 44.085583 -70.325417
v 219.713135 44.085583 -42.008915
v 189.635513 44.085579 -69.407959
v 211.104874 44.085583 -34.820816
v 188.804718 44.085579 -68.878227
v 201.331619 44.085583 -30.361273
v 187.569962 44.085583 -68.396400
v 191.285477 44.085579 -28.007612
v 185.464401 7.993221 -67.949165
v 185.559341 7.993224 -27.392870
v 180.999649 7.993217 -67.410454
v 169.424042 7.993224 -26.442995
v 168.549469 7.993221 -66.753395
v 161.414703 7.993224 -26.371107
v 161.524826 7.993217 -66.242554
v 185.492065 4.048842 -28.724537
v 185.492065 7.993224 -28.724535
v 185.464401 4.048840 -66.736847
v 185.464401 7.993221 -66.736847
vn -0.3780 -0.0000 -0.9258
vn -0.5726 -0.0000 -0.8198
vn 0.7843 -0.0000 0.6204
vn 0.5834 -0.0000 0.8122
vn -0.7740 -0.0000 -0.6332
vn 0.9391 -0.0000 0.3436
vn -0.9439 -0.0000 -0.3304
vn 0.9954 -0.0000 0.0957
vn -0.9976 -0.0000 -0.0689
vn 1.0000 -0.0000 0.0031
vn -1.0000 -0.0000 0.0018
vn 1.0000 -0.0000 0.0039
vn -1.0000 -0.0000 -0.0040
vn 0.3842 -0.0000 0.9233
vn -0.1972 -0.0000 -0.9804
vn 0.1995 -0.0000 0.9799
vn -0.1095 -0.0000 -0.9940
vn 0.1102 -0.0000 0.9939
vn -0.0339 -0.0000 -0.9994
vn -0.0090 -0.0000 -1.0000
vn 0.0725 -0.0000 0.9974
vn 0.0626 -0.0000 0.9980
vn -0.0588 -0.0000 -0.9983
vn 0.0863 -0.0000 0.9963
vn -0.1677 -0.0000 -0.9858
vn -0.1067 -0.0000 -0.9943
vn -0.2171 -0.0000 -0.9761
vn 0.1198 -0.0000 0.9928
vn -0.3232 -0.0000 -0.9463
vn 0.2078 -0.0000 0.9782
vn 0.2866 -0.0000 0.9580
vn 0.3580 -0.0000 0.9337
vn -0.5328 -0.0000 -0.8462
vn 0.4527 -0.0000 0.8916
vn -0.7442 -0.0000 -0.6680
vn 0.7107 -0.0000 0.7035
vn 0.7107 -0.0000 0.7034
vn -0.8927 -0.0000 -0.4506
vn 0.9246 -0.0000 0.3810
vn -0.9652 -0.0000 -0.2616
vn 0.9806 -0.0000 0.1962
vn -0.9911 -0.0000 -0.1333
vn 0.9921 -0.0000 0.1257
vn -0.9983 -0.0000 -0.0587
vn 0.9984 -0.0000 0.0565
vn -0.9998 -0.0000 -0.0204
vn 0.9998 -0.0000 0.0198
vn -0.9987 -0.0000 0.0504
vn 1.0000 -0.0000 -0.0000
vt 0.122807 1.000000
vt 0.118421 1.000000
vt 0.114035 0.000000
vt 0.118421 0.000000
vt 0.114035 1.000000
vt 0.109649 0.000000
vt 0.109649 1.000000
vt 0.105263 0.000000
vt 0.105263 1.000000
vt 0.100877 0.000000
vt 0.100877 1.000000
vt 0.052632 0.000000
vt 0.052632 1.000000
vt 0.122807 0.000000
vt 0.127193 1.000000
vt 0.127193 0.000000
vt 0.131579 1.000000
vt 0.131579 0.000000
vt 0.004386 1.000000
vt 0.000000 1.000000
vt 0.000000 0.000000
vt 0.004386 0.000000
vt 0.010758 1.000000
vt 0.010758 1.000000
vt 0.010758 0.000000
vt 0.010758 0.000000
vt 0.013158 1.000000
vt 0.014037 0.000000
vt 0.014037 0.000000
vt 0.017544 1.000000
vt 0.016411 0.000000
vt 0.021930 1.000000
vt 0.020246 0.000000
vt 0.026316 1.000000
vt 0.025510 0.000000
vt 0.030702 1.000000
vt 0.032217 0.000000
vt 0.035088 1.000000
vt 0.035088 0.000000
vt 0.039474 1.000000
vt 0.039474 0.000000
vt 0.043860 1.000000
vt 0.043860 0.000000
vt 0.048246 1.000000
vt 0.048246 0.000000
s 1
f 38/1/1 36/2/2 49/2/2 47/1/1
f 33/3/3 35/4/4 50/4/4 52/3/3
f 36/2/2 34/5/5 51/5/5 49/2/2
f 31/6/6 33/3/3 52/3/3 54/6/6
f 34/5/5 32/7/7 53/7/7 51/5/5
f 29/8/8 31/6/6 54/6/6 56/8/8
f 32/7/7 30/9/9 55/9/9 53/7/7
f 27/10/10 29/8/8 56/8/8 58/10/10
f 30/9/9 28/11/11 57/11/11 55/9/9
f 25/12/12 27/10/10 58/10/10 60/12/12
f 28/11/11 26/13/13 59/13/13 57/11/11
f 35/4/4 37/14/14 48/14/14 50/4/4
f 40/15/15 38/1/1 47/1/1 45/15/15
f 37/14/14 39/16/16 46/16/16 48/14/14
f 42/17/17 40/15/15 45/15/15 43/17/17
f 39/16/16 41/18/18 44/18/18 46/16/16
f 4/19/19 2/20/20 83/20/20 81/19/19
f 1/21/21 3/22/22 82/22/22 84/21/21
f 6/23/23 4/19/19 81/19/19 79/24/23
f 3/22/22 5/25/24 80/26/24 82/22/22
f 8/27/25 6/23/26 79/24/26 77/27/27
f 5/25/24 7/28/28 78/29/28 80/26/24
f 10/30/29 8/27/25 77/27/27 75/30/29
f 7/28/30 9/31/31 76/31/32 78/29/30
f 12/32/33 10/30/29 75/30/29 73/32/33
f 9/31/31 11/33/34 74/33/34 76/31/32
f 14/34/35 12/32/33 73/32/33 71/34/35
f 11/33/34 13/35/36 72/35/37 74/33/34
f 16/36/38 14/34/35 71/34/35 69/36/38
f 13/35/36 15/37/39 70/37/39 72/35/37
f 18/38/40 16/36/38 69/36/38 67/38/40
f 15/37/39 17/39/41 68/39/41 70/37/39
f 20/40/42 18/38/40 67/38/40 65/40/42
f 17/39/41 19/41/43 66/41/43 68/39/41
f 22/42/44 20/40/42 65/40/42 63/42/44
f 19/41/43 21/43/45 64/43/45 66/41/43
f 24/44/46 22/42/44 63/42/44 61/44/46
f 21/43/45 23/45/47 62/45/47 64/43/45
f 26/13/13 24/44/46 61/44/46 59/13/13
f 23/45/47 25/12/12 60/12/12 62/45/47
f 79/24/48 86/24/48 85/23/48 6/23/48
f 7/28/49 78/29/49 88/29/49 87/28/49
g Collider_Circuito_castillo.011_Caastyillo.023
v 161.524826 4.048839 -66.242554
v 161.414703 4.048843 -26.371109
v 168.549469 4.048840 -66.753395
v 169.424042 4.048843 -26.442995
v 180.999649 4.048839 -67.410454
v 185.559341 4.048842 -27.392872
v 185.464401 4.048840 -67.949165
v 191.285477 4.048842 -28.007612
v 187.569962 4.048840 -68.396400
v 201.331619 4.048842 -30.361273
v 188.804718 4.048839 -68.878227
v 211.104874 4.048844 -34.820816
v 189.635513 4.048838 -69.407959
v 219.713135 4.048843 -42.008915
v 190.207275 4.048841 -70.325417
v 225.857010 4.048841 -51.227150
v 190.470322 4.048841 -71.477470
v 229.447632 4.048840 -61.159435
v 191.365662 4.048840 -76.677811
v 231.340103 4.048841 -71.411247
v 192.021011 4.048841 -84.701530
v 232.273636 4.048840 -82.373604
v 192.358185 4.048840 -95.382812
v 232.669907 4.048840 -94.572113
v 192.465210 4.048839 -108.646484
v 232.784561 4.048840 -108.441788
v 192.434082 4.048822 -287.478485
v 232.753891 4.048822 -287.418854
v 192.541611 4.048822 -304.341888
v 232.708115 4.048821 -300.828613
v 195.819489 4.048821 -321.820526
v 233.748856 4.048821 -308.143799
v 204.928299 4.048821 -337.873016
v 236.448929 4.048821 -312.730560
v 217.888977 4.048820 -349.909363
v 241.286728 4.048821 -317.072815
v 233.027878 4.048820 -358.127045
v 248.435349 4.048821 -320.867096
v 249.363876 4.048821 -363.024719
v 257.375336 4.048821 -323.508728
v 266.289673 4.048819 -364.901764
v 267.213348 4.048821 -324.592468
vn -0.0000 1.0000 -0.0000
vt 0.000000 1.000000
vt 0.004386 1.000000
vt 0.004386 0.000000
vt 0.000000 0.000000
vt 0.010758 1.000000
vt 0.010758 0.000000
vt 0.013158 1.000000
vt 0.014037 0.000000
vt 0.017544 1.000000
vt 0.016411 0.000000
vt 0.021930 1.000000
vt 0.020246 0.000000
vt 0.026316 1.000000
vt 0.025510 0.000000
vt 0.030702 1.000000
vt 0.032217 0.000000
vt 0.035088 1.000000
vt 0.035088 0.000000
vt 0.039474 1.000000
vt 0.039474 0.000000
vt 0.043860 1.000000
vt 0.043860 0.000000
vt 0.048246 1.000000
vt 0.048246 0.000000
vt 0.052632 1.000000
vt 0.052632 0.000000
vt 0.100877 1.000000
vt 0.100877 0.000000
vt 0.105263 1.000000
vt 0.105263 0.000000
vt 0.109649 1.000000
vt 0.109649 0.000000
vt 0.114035 1.000000
vt 0.114035 0.000000
vt 0.118421 1.000000
vt 0.118421 0.000000
vt 0.122807 1.000000
vt 0.122807 0.000000
vt 0.127193 1.000000
vt 0.127193 0.000000
vt 0.131579 1.000000
vt 0.131579 0.000000
s 1
f 90/46/50 92/47/50 91/48/50 89/49/50
f 92/47/50 94/50/50 93/51/50 91/48/50
f 94/50/50 96/52/50 95/53/50 93/51/50
f 96/52/50 98/54/50 97/55/50 95/53/50
f 98/54/50 100/56/50 99/57/50 97/55/50
f 100/56/50 102/58/50 101/59/50 99/57/50
f 102/58/50 104/60/50 103/61/50 101/59/50
f 104/60/50 106/62/50 105/63/50 103/61/50
f 106/62/50 108/64/50 107/65/50 105/63/50
f 108/64/50 110/66/50 109/67/50 107/65/50
f 110/66/50 112/68/50 111/69/50 109/67/50
f 112/68/50 114/70/50 113/71/50 111/69/50
f 114/70/50 116/72/50 115/73/50 113/71/50
f 116/72/50 118/74/50 117/75/50 115/73/50
f 118/74/50 120/76/50 119/77/50 117/75/50
f 120/76/50 122/78/50 121/79/50 119/77/50
f 122/78/50 124/80/50 123/81/50 121/79/50
f 124/80/50 126/82/50 125/83/50 123/81/50
f 126/82/50 128/84/50 127/85/50 125/83/50
f 128/84/50 130/86/50 129/87/50 127/85/50
