# Blender 4.5.3 LTS
# www.blender.org
o Tela_3_3_LOD01
v -7.475113 -10.748025 8.291145
v -11.322394 -10.636509 0.000001
v -3.948208 -10.767321 10.814203
v -10.270695 -10.723184 4.487133
v -10.989659 -10.641283 2.287518
v -8.955652 -10.756556 6.514313
v 0.198905 -10.744141 -11.383996
v -7.475113 -10.748027 -8.291143
v -3.098803 -10.743664 -10.864874
v -10.270695 -10.723184 -4.487131
v -5.509757 -10.744407 -9.749352
v -10.989659 -10.641283 -2.287516
v -8.955652 -10.756557 -6.514311
v 0.178256 3.214928 6.398556
v -3.669977 3.208455 5.047993
v -6.291561 3.278320 -0.250940
v -1.715090 3.210484 6.060595
v -5.773621 3.235016 2.396523
v -4.951606 3.204042 3.644508
v 0.160084 3.210328 -6.367242
v -3.669977 3.208454 -5.047994
v -1.685609 3.210569 -6.073369
v -5.518079 3.211419 -2.881682
v -1.178473 -1.543783 6.813546
v -2.541696 -7.131437 8.770831
v -1.738493 -3.612748 7.283474
v -0.604471 0.302314 6.586188
v -2.277008 0.004235 -6.333593
v -3.106436 -6.951231 -8.557885
v -2.654379 -3.610181 -7.161054
v -6.409636 -7.246773 -6.444640
v -4.579955 0.173136 -4.701317
v -5.320401 -3.673722 -5.282129
v -6.247002 0.077526 2.245820
v -8.583797 -7.011915 2.928321
v -7.120196 -3.561524 2.469996
v -6.409635 -7.246772 6.444642
v -5.320402 -3.673721 5.282130
v -6.247001 0.077526 -2.245819
v -8.583797 -7.011914 -2.928320
v -7.120196 -3.561525 -2.469996
v -9.142967 -7.045532 0.000001
v -6.645136 0.185601 -0.000000
v -7.569201 -3.539984 0.000000
v -4.126152 0.174345 5.208849
v -4.435717 -7.131400 7.893782
v -3.660819 -3.612419 6.555025
v 0.133352 1.554185 6.730876
v 0.173592 0.097874 -6.739251
v 0.190212 -7.154163 -9.227396
v 0.179931 -3.628549 -7.658251
v 7.741809 -10.748025 8.291145
v 11.589091 -10.636509 0.000001
v 4.224929 -10.752716 10.835670
v 10.537391 -10.723184 4.487133
v 11.256356 -10.641283 2.287518
v 9.222348 -10.756556 6.514313
v 7.741809 -10.748027 -8.291143
v 3.437310 -10.745049 -10.832894
v 10.537391 -10.723184 -4.487131
v 5.776453 -10.744407 -9.749352
v 11.256356 -10.641283 -2.287516
v 9.222348 -10.756557 -6.514311
v 3.936674 3.208455 5.047992
v 6.558257 3.278320 0.250937
v 1.840355 3.205255 6.057946
v 5.784776 3.211419 2.881677
v 3.936672 3.208454 -5.047995
v 1.981786 3.210483 -6.060596
v 6.040317 3.235016 -2.396525
v 5.218302 3.204041 -3.644509
v 1.445169 -1.543783 6.813546
v 2.808392 -7.131437 8.770831
v 2.005189 -3.612748 7.283474
v 0.871166 0.302314 6.586188
v 2.704218 0.150875 -6.212989
v 3.572529 -6.740296 -8.316689
v 3.106493 -3.488684 -7.003574
v 6.676344 -7.246776 -6.444628
v 4.846643 0.173128 -4.701327
v 5.587108 -3.673752 -5.282131
v 6.513688 0.077545 2.245848
v 8.850498 -7.011917 2.928316
v 7.386886 -3.561515 2.470003
v 6.676322 -7.246762 6.444643
v 5.587098 -3.673705 5.282116
v 6.513692 0.077542 -2.245838
v 8.850489 -7.011905 -2.928316
v 7.386889 -3.561514 -2.469992
v 9.409662 -7.045532 0.000001
v 6.911831 0.185601 -0.000000
v 7.835897 -3.539984 0.000000
v 4.392834 0.174372 5.208854
v 4.702412 -7.131400 7.893782
v 3.927515 -3.612419 6.555025
vn -0.8744 0.3299 0.3559
vn -0.9092 0.1824 0.3742
vn -0.9837 0.1797 0.0067
vn -0.9440 0.3299 -0.0000
vn -0.1237 0.1662 0.9783
vn 0.0351 0.1332 0.9905
vn -0.1706 0.1312 0.9766
vn -0.6152 0.1359 -0.7766
vn -0.3698 0.1806 -0.9114
vn -0.7047 0.1680 -0.6893
vn -0.4481 0.5098 -0.7344
vn -0.3339 0.4649 -0.8200
vn -0.2425 0.5026 -0.8298
vn -0.6945 0.5127 -0.5048
vn -0.6332 0.4707 -0.6144
vn -0.5800 0.5143 -0.6317
vn -0.8206 0.4686 0.3270
vn -0.8351 0.5114 0.2025
vn -0.7634 0.5128 0.3927
vn -0.6435 0.4654 0.6077
vn -0.6945 0.5127 0.5048
vn -0.5868 0.5039 0.6338
vn -0.9896 0.1380 -0.0395
vn -0.9125 0.1779 -0.3685
vn -0.8351 0.5114 -0.2025
vn -0.8206 0.4686 -0.3270
vn -0.7634 0.5128 -0.3927
vn -0.8680 0.1390 -0.4767
vn 0.6244 0.1749 0.7613
vn 0.4560 0.3354 0.8243
vn 0.7000 0.3216 0.6376
vn 0.4663 0.5258 0.7114
vn 0.4581 0.4735 0.7523
vn 0.3513 0.4884 0.7988
vn 0.3868 0.1738 -0.9057
vn 0.3063 0.1265 -0.9435
vn 0.6044 0.1312 -0.7858
vn 0.7074 0.1682 -0.6865
vn 0.9089 0.1796 0.3764
vn 0.8672 0.1320 0.4801
vn 0.8351 0.5114 0.2025
vn 0.8206 0.4686 0.3270
vn 0.7634 0.5128 0.3927
vn 0.5946 0.1299 0.7934
vn 0.6945 0.5127 0.5048
vn 0.6441 0.4658 0.6068
vn 0.5881 0.5048 0.6319
vn -0.8810 0.4731 -0.0000
vn -0.4560 0.3354 0.8243
vn -0.7000 0.3216 0.6376
vn -0.4574 0.4718 0.7538
vn -0.6293 0.1715 0.7580
vn -0.3633 0.3277 -0.8721
vn 0.0143 0.1757 -0.9843
vn 0.0158 0.3269 -0.9449
vn 0.0115 0.4697 -0.8827
vn -0.6802 0.3253 -0.6570
vn -0.8765 0.3271 -0.3533
vn -0.3406 0.2131 0.9157
vn -0.3419 0.3465 0.8735
vn -0.3519 0.4858 0.8001
vn -0.3078 0.1128 0.9447
vn -0.5882 0.1236 0.7992
vn -0.4648 0.5228 0.7146
vn -0.2981 0.1336 -0.9451
vn -0.7903 0.1045 0.6038
vn -0.9116 0.1089 0.3964
vn -0.8498 0.5270 -0.0000
vn 0.0116 0.1107 -0.9938
vn 0.0084 0.5196 -0.8543
vn 0.8744 0.3299 0.3559
vn 0.9440 0.3299 -0.0000
vn 0.9837 0.1797 -0.0067
vn 0.8810 0.4731 -0.0000
vn 0.6821 0.3249 -0.6551
vn 0.9123 0.1817 -0.3670
vn 0.8765 0.3271 -0.3533
vn 0.6355 0.4703 -0.6124
vn 0.8206 0.4686 -0.3270
vn 0.3810 0.3207 -0.8672
vn 0.3516 0.4602 -0.8152
vn 0.3337 0.2186 0.9170
vn 0.3419 0.3465 0.8735
vn 0.3394 0.1182 0.9332
vn 0.1343 0.1428 0.9806
vn 0.5835 0.5121 -0.6303
vn 0.4488 0.5080 -0.7352
vn 0.2489 0.5058 -0.8259
vn 0.7917 0.1140 -0.6002
vn 0.6945 0.5127 -0.5048
vn 0.9896 0.1380 0.0395
vn 0.8498 0.5270 -0.0000
vn 0.8351 0.5114 -0.2025
vn 0.9149 0.1146 -0.3872
vn 0.7634 0.5128 -0.3927
vt 0.759400 0.786061
vt 0.760441 0.689217
vt 0.703559 0.686453
vt 0.695072 0.783808
vt 0.949130 0.628521
vt 0.939752 0.590138
vt 0.938167 0.660740
vt 0.577733 0.583935
vt 0.510617 0.637699
vt 0.575384 0.661836
vt 0.417748 0.913670
vt 0.428405 0.806763
vt 0.362929 0.885533
vt 0.520643 0.951422
vt 0.515633 0.844902
vt 0.469966 0.935416
vt 0.760635 0.882680
vt 0.732132 0.982727
vt 0.785339 0.983001
vt 0.861023 0.872515
vt 0.840386 0.976402
vt 0.892944 0.967959
vt 0.704633 0.610951
vt 0.646942 0.679102
vt 0.626561 0.974363
vt 0.614034 0.870862
vt 0.573997 0.966362
vt 0.641344 0.601876
vt 0.849384 0.682783
vt 0.893499 0.770067
vt 0.843278 0.779553
vt 0.990000 0.942268
vt 0.917909 0.859311
vt 0.964332 0.843810
vt 0.515004 0.639575
vt 0.529839 0.565682
vt 0.577733 0.583935
vt 0.575384 0.661836
vt 0.760442 0.689217
vt 0.779925 0.614487
vt 0.760635 0.882680
vt 0.845720 0.608791
vt 0.861023 0.872515
vt 0.687079 0.881030
vt 0.843278 0.779553
vt 0.849383 0.682783
vt 0.473038 0.723906
vt 0.458957 0.613316
vt 0.414118 0.691945
vt 0.362040 0.766056
vt 0.548416 0.754408
vt 0.631049 0.775184
vt 0.935772 0.706044
vt 0.940643 0.756420
vt 0.896121 0.600359
vt 0.845720 0.608791
vt 0.989910 0.942292
vt 0.529173 0.565378
vt 0.801892 0.613769
vt 0.767422 0.614637
vt 0.679105 0.981615
vt 0.490519 0.547654
vt 0.300618 0.843598
vt 0.759401 0.786061
vt 0.548416 0.754408
vt 0.646942 0.679102
vt 0.631049 0.775184
vt 0.515633 0.844902
vt 0.614034 0.870862
vt 0.478226 0.726386
vt 0.434343 0.809866
vt 0.899274 0.599642
vt 0.364411 0.886522
vt 0.619873 0.597162
vt 0.716050 0.611986
vt 0.653613 0.604300
s 1
f 36/1/1 34/2/2 43/3/3 44/4/4
f 48/5/5 14/6/6 27/7/7
f 21/8/8 28/9/9 32/10/10
f 11/11/11 29/12/12 9/13/13
f 13/14/14 31/15/15 8/16/16
f 35/17/17 5/18/18 4/19/19
f 37/20/20 6/21/21 1/22/22
f 16/23/23 39/24/24 43/3/3
f 12/25/25 40/26/26 10/27/27
f 39/24/24 23/28/28 32/10/10
f 93/29/29 95/30/30 86/31/31
f 54/32/32 94/33/33 73/34/34
f 76/35/35 69/36/36 68/37/37
f 76/35/35 68/37/37 80/38/38
f 82/39/39 67/40/40 93/29/29
f 56/18/41 83/41/42 55/19/43
f 93/29/29 67/40/40 64/42/44
f 57/21/45 85/43/46 52/22/47
f 35/17/17 36/1/1 44/4/4 42/44/48
f 47/30/49 38/45/50 37/20/20 46/33/51
f 45/46/52 38/45/50 47/30/49
f 30/47/53 28/9/9 49/48/54 51/49/55
f 29/12/12 30/47/53 51/49/55 50/50/56
f 39/24/24 32/10/10 33/51/57 41/52/58
f 41/52/58 33/51/57 31/15/15 40/26/26
f 24/53/59 45/46/52 47/30/49 26/54/60
f 25/34/61 26/54/60 47/30/49 46/33/51
f 43/3/3 39/24/24 41/52/58 44/4/4
f 44/4/4 41/52/58 40/26/26 42/44/48
f 38/45/50 45/46/52 34/2/2 36/1/1
f 37/20/20 38/45/50 36/1/1 35/17/17
f 32/10/10 28/9/9 30/47/53 33/51/57
f 31/15/15 33/51/57 30/47/53 29/12/12
f 45/46/52 24/53/59 17/55/62 15/56/63
f 17/55/62 24/53/59 27/7/7 14/6/6
f 29/12/12 11/11/11 8/16/16 31/15/15
f 3/57/64 25/34/61 46/33/51
f 28/9/9 21/8/8 22/58/65
f 35/17/17 4/19/19 6/21/21 37/20/20
f 23/28/28 21/8/8 32/10/10
f 34/2/2 45/46/52 19/59/66 18/60/67
f 12/25/25 2/61/68 42/44/48 40/26/26
f 45/46/52 15/56/63 19/59/66
f 39/24/24 16/23/23 23/28/28
f 16/23/23 43/3/3 34/2/2 18/60/67
f 42/44/48 2/61/68 5/18/18 35/17/17
f 1/22/22 3/57/64 46/33/51 37/20/20
f 20/62/69 49/48/54 28/9/9 22/58/65
f 50/50/56 7/63/70 9/13/13 29/12/12
f 13/14/14 10/27/27 40/26/26 31/15/15
f 84/64/71 92/4/72 91/3/73 82/39/39
f 83/41/42 90/44/74 92/4/72 84/64/71
f 85/43/46 86/31/31 95/30/30 94/33/33
f 81/65/75 80/38/38 87/66/76 89/67/77
f 79/68/78 81/65/75 89/67/77 88/69/79
f 51/49/55 49/48/54 76/35/35 78/70/80
f 50/50/56 51/49/55 78/70/80 77/71/81
f 95/30/30 93/29/29 72/53/82 74/54/83
f 73/34/34 94/33/33 95/30/30 74/54/83
f 89/67/77 87/66/76 91/3/73 92/4/72
f 88/69/79 89/67/77 92/4/72 90/44/74
f 86/31/31 84/64/71 82/39/39 93/29/29
f 85/43/46 83/41/42 84/64/71 86/31/31
f 78/70/80 76/35/35 80/38/38 81/65/75
f 79/68/78 77/71/81 78/70/80 81/65/75
f 66/72/84 72/53/82 93/29/29 64/42/44
f 66/72/84 14/6/6 48/5/5 75/7/85
f 75/7/85 72/53/82 66/72/84
f 77/71/81 79/68/78 58/16/86 61/11/87
f 83/41/42 85/43/46 57/21/45 55/19/43
f 61/11/87 59/73/88 77/71/81
f 80/38/38 68/37/37 71/74/89
f 63/14/90 58/16/86 79/68/78
f 82/39/39 65/75/91 67/40/40
f 90/44/74 53/61/92 62/25/93 88/69/79
f 65/75/91 91/3/73 87/66/76 70/76/94
f 90/44/74 83/41/42 56/18/41 53/61/92
f 62/25/93 60/27/95 88/69/79
f 82/39/39 91/3/73 65/75/91
f 94/33/33 54/32/32 52/22/47 85/43/46
f 77/71/81 59/73/88 7/63/70 50/50/56
f 69/36/36 76/35/35 49/48/54 20/62/69
f 88/69/79 60/27/95 63/14/90 79/68/78
f 71/74/89 70/76/94 87/66/76 80/38/38
