# Blender 4.5.3 LTS
# www.blender.org
o Torre_medium_LOD02
v -8.557589 -26.933413 5.325382
v 11.164232 -26.933413 3.555877
v -10.255449 -26.933413 -17.863800
v 9.466372 -26.933413 -19.633305
v 2.906181 -26.933413 8.042697
v -1.997396 -26.933413 -22.350620
v -13.538690 -26.933413 -1.357839
v 14.447474 -26.933413 -12.950083
v -14.523749 -26.933413 -10.704323
v 15.432530 -26.933413 -3.603594
v -7.978952 45.059124 5.725318
v 13.462961 44.909840 1.062997
v -10.255449 44.985825 -17.863800
v 8.671354 44.909840 -20.162525
v 3.753869 45.172020 7.872952
v 15.481301 45.172020 -10.453459
v -2.845085 45.172012 -22.180874
v -13.538690 44.985825 -1.357839
v -14.708445 44.909840 -9.767298
v -5.264244 54.052513 -1.435322
v 6.173036 54.052513 -1.435321
v -5.264244 54.052513 -12.872601
v 6.173036 54.052513 -12.872600
v -7.632980 54.052513 -7.153960
v 0.454393 54.052513 0.933417
v 8.541772 54.052513 -7.153960
v 0.454393 54.052513 -15.241338
v -7.017366 54.052513 -4.059055
v 3.549301 54.052513 0.317802
v 7.926158 54.052513 -10.248866
v -2.640509 54.052513 -14.625725
v -7.017366 54.052513 -10.248866
v -2.640509 54.052513 0.317802
v 7.926158 54.052513 -4.059055
v 3.549301 54.052513 -14.625725
v -2.482136 63.935505 -6.826560
v -1.784221 66.228973 -7.926244
v -0.219869 63.935505 -9.743609
v 0.831525 66.261818 -8.996124
v 2.697187 63.935509 -7.481334
v 1.244046 67.122635 -6.564603
v 0.434906 63.935505 -4.564285
v -0.601911 66.220604 -5.205541
v -5.033092 23.534243 7.811063
v 4.332211 23.534243 8.164898
v -3.991926 33.694553 7.850401
v 3.400310 33.694553 8.129690
v -2.905576 36.194653 7.891443
v 2.204702 36.194653 8.084518
v 4.068168 31.182545 8.154922
v -4.699079 31.182545 7.823683
v 4.061760 23.640558 6.703184
v 4.261153 26.644897 6.705943
v 4.365825 26.924437 8.140040
v 6.250386 23.819004 6.274713
v 6.915536 23.591850 7.508904
v 6.250386 26.644897 6.274713
v 6.842814 26.887020 7.444519
v 4.362733 27.179117 6.423954
v 4.164856 30.551487 6.435724
v 4.023998 30.876768 7.830783
v 6.393869 27.298721 6.303139
v 6.791606 27.054110 7.668051
v 6.195976 30.671085 6.314909
v 6.652884 31.003439 7.472494
v 4.282737 26.820602 7.695539
v 4.023375 31.017807 6.667812
v 3.069575 34.085957 8.157062
v 5.974755 31.360889 6.449647
v 6.528928 31.065952 7.747271
v 4.382579 34.067516 6.921820
v 5.043761 35.654732 7.730155
v 4.073189 30.657232 7.896044
v 2.929273 34.265999 6.971731
v 1.034917 35.956196 8.417887
v 4.283684 35.763325 6.833357
v 4.855530 35.783905 7.906287
v 2.138670 36.639652 7.416909
v 1.867650 38.154392 8.123855
v 1.047281 35.847591 7.430667
v -1.720784 36.173393 8.496219
v 1.340409 37.848396 7.332224
v 1.652093 38.189133 8.456671
v -1.073679 37.362560 7.584396
v -2.251768 38.459839 8.127090
v -3.422301 34.376415 6.861036
v -2.696312 36.803802 7.407646
v -4.713926 35.938164 6.605176
v -1.647535 36.103611 8.515213
v -2.424953 38.321743 8.146412
v -5.405541 35.948925 7.614426
v -4.744178 30.797878 7.780416
v -4.589814 31.144508 6.564101
v -5.009315 34.218121 6.794578
v -6.520320 31.485109 6.187099
v -3.748122 34.249866 8.125376
v -5.684161 35.851234 7.543542
v -7.190570 31.161720 7.437658
v -5.030260 26.834269 8.244018
v -4.732046 27.179117 6.862572
v -4.543230 30.551487 6.922945
v -6.670096 27.298721 6.242867
v -6.481280 30.671085 6.303242
v -4.699683 30.889795 8.174854
v -7.242048 30.969355 7.453732
v -7.386715 27.023800 7.317457
v -5.066836 23.478348 8.365117
v -4.792432 23.768867 6.960967
v -4.792432 26.695021 6.960967
v -6.714936 23.768867 6.292396
v -6.714936 26.695021 6.292396
v -5.059907 26.994305 8.249177
v -7.455788 26.918623 7.523094
v -7.490012 23.504501 7.291135
v 6.437146 23.699787 2.567485
v 8.616031 21.183521 2.559778
v 7.142262 22.932163 8.779911
v -0.229266 19.387186 2.310073
v -0.229266 23.749552 2.309768
v -0.229266 19.696291 11.910948
v 0.380918 23.124609 11.843443
v 5.256820 21.249298 11.211864
v 6.972142 19.666372 8.925256
v 6.179616 19.291462 2.570519
v -6.828199 23.733187 2.566956
v -9.074495 21.183361 2.560064
v -7.372683 23.140345 8.995440
v -5.653302 21.417049 11.301585
v -7.419670 19.686750 8.970378
v -6.624016 19.315403 2.569068
v -0.724691 66.488388 -7.249226
v 0.279303 66.488388 -6.449743
v 0.674007 66.488388 -7.638034
v -0.601243 80.301056 -6.814474
v 0.825223 80.301056 -6.952813
v -0.284295 80.301056 -7.810374
v 18.137491 41.892834 4.570498
v -17.554947 41.930077 -19.853716
v -21.353413 41.882820 -7.198126
v 21.442039 41.882820 -7.198124
v -3.458437 41.923706 -28.595596
v -18.576153 41.827164 4.115850
v 8.232868 41.882820 12.570793
v 17.877666 41.987640 -19.170179
v -4.841242 42.197803 13.601082
v 8.232869 41.882820 -26.967047
v 0.044314 44.174118 -20.622652
v 0.044315 44.174118 6.226402
v -13.380212 44.174118 -7.198124
v 13.468842 44.174118 -7.198125
v 9.536889 44.174118 2.294449
v -9.448259 44.174118 2.294450
v -9.448259 44.174118 -16.690699
v 9.536887 44.174118 -16.690701
v 1.198238 64.556107 -5.471141
v 1.784245 64.566139 -8.367381
v -1.420390 64.515106 -8.650183
v -1.831147 64.498718 -6.421287
v -0.367518 64.573738 -5.127754
v 2.114674 64.573738 -6.786302
v 0.447840 64.566139 -9.255239
v 2.399892 51.255322 -18.216021
v -9.412169 51.255318 -1.072946
v -6.080871 51.255310 -16.654604
v 5.791462 54.327362 -12.953321
v 11.124962 51.255318 -9.238217
v 9.094919 51.608311 -1.150696
v -10.973588 51.255318 -9.553708
v -2.311265 51.255318 3.819771
v 1.256581 57.823593 -12.953346
v -4.917627 57.669655 -3.810161
v 4.950350 57.921967 -4.062481
v -5.710914 57.823593 -8.410398
v -0.996643 57.912201 -1.502447
v 2.977261 54.950756 -0.117347
v -3.168042 57.823593 -12.124887
v 5.704782 57.912201 -8.416052
vn 0.9276 0.3090 -0.2100
vn 0.7148 0.6109 -0.3402
vn 0.7923 0.6095 0.0287
vn 0.9766 -0.0093 0.2149
vn 0.7967 0.2998 0.5248
vn 0.7106 -0.0027 0.7036
vn 0.9322 -0.0019 -0.3620
vn -0.2599 0.7466 -0.6124
vn -0.7247 0.6121 -0.3165
vn -0.2518 0.9650 -0.0733
vn -0.6690 0.5258 0.5253
vn -0.7345 0.6054 0.3065
vn -0.8807 0.3047 0.3626
vn -0.5070 0.3036 0.8067
vn -0.5586 0.6178 0.5534
vn -0.9960 0.0660 0.0598
vn -0.6451 -0.0722 -0.7607
vn -0.6842 0.0384 -0.7283
vn -0.6906 0.0596 -0.7208
vn -0.3679 -0.4314 -0.8237
vn -0.4695 -0.3620 -0.8053
vn -0.4890 -0.3474 -0.8001
vn 0.7385 0.0417 -0.6730
vn 0.7431 0.0587 -0.6666
vn 0.7662 0.1653 -0.6210
vn -0.6544 -0.6136 -0.4419
vn 0.8419 0.1894 -0.5054
vn 0.8119 0.2510 -0.5271
vn 0.6117 0.5244 -0.5923
vn 0.9953 -0.0902 0.0353
vn 0.6397 -0.6706 0.3756
vn 0.2937 -0.9558 0.0104
vn 0.0375 0.1846 0.9821
vn 0.4656 -0.0309 0.8845
vn 0.6879 0.6126 0.3892
vn -0.0048 0.9975 0.0708
vn 0.0138 0.9965 0.0822
vn 0.3916 0.9189 0.0483
vn -0.8655 0.4947 0.0785
vn -0.6459 0.6551 0.3921
vn -0.3865 0.9213 0.0436
vn -0.1292 -0.9912 0.0288
vn -0.6059 -0.7950 -0.0292
vn -0.2915 -0.9565 0.0104
vn -0.4453 0.0160 0.8952
vn -0.0038 -0.1526 0.9883
vn 0.9487 -0.0260 0.3151
vn -0.2677 -0.0306 -0.9630
vn 0.0417 -0.9672 0.2507
vn -0.0038 -0.9687 0.2483
vn 0.1872 -0.9643 0.1872
vn -0.1820 -0.9652 -0.1877
vn -0.2306 -0.9624 -0.1433
vn -0.1073 -0.9619 -0.2515
vn 0.2339 -0.9623 -0.1391
vn 0.1936 -0.9643 -0.1807
vn 0.0540 -0.9703 -0.2359
vn -0.8014 0.5743 -0.1672
vn -0.5936 0.5493 -0.5881
vn -0.4496 0.5739 -0.6844
vn 0.5545 0.6379 -0.5345
vn 0.6823 0.5269 -0.5067
vn 0.8282 0.5456 -0.1279
vn 0.7178 0.5502 0.4267
vn 0.8375 0.5194 0.1697
vn 0.4359 0.5232 0.7323
vn -0.6784 0.5796 0.4516
vn -0.7699 0.5470 0.3288
vn -0.6772 0.7358 -0.0046
vn -0.6879 0.7133 -0.1342
vn -0.5466 0.7305 -0.4093
vn -0.3812 0.7122 -0.5894
vn -0.1312 0.7320 -0.6685
vn 0.1530 0.7190 -0.6780
vn 0.2651 0.7254 -0.6353
vn 0.3025 0.6272 0.7177
vn -0.1824 0.5619 0.8069
vn -0.1771 0.7057 0.6860
vn 0.6968 0.7120 -0.0863
vn -0.1617 0.3096 -0.9370
vn -0.3079 0.6237 -0.7184
vn 0.0287 0.6095 -0.7923
vn 0.2788 0.6063 -0.7448
vn 0.5161 0.2940 -0.8045
vn 0.7448 0.6063 0.2788
vn -0.2749 0.6093 0.7438
vn 0.1850 0.3029 0.9349
vn -0.0280 0.6097 0.7921
vn 0.3402 0.6109 0.7148
vn -0.7874 0.6164 0.0017
vn -0.9351 0.3050 -0.1803
vn -0.5735 0.6051 -0.5522
vn -0.6769 0.3031 -0.6708
vn 0.5759 0.6028 -0.5523
vn -0.7322 0.6114 -0.3002
vn 0.5523 0.6028 0.5759
vn 0.1735 0.0024 0.9848
vn -0.7045 0.0001 -0.7097
vn -0.9797 -0.0000 -0.2006
vn 0.5466 0.0035 -0.8374
vn -0.1511 -0.0011 -0.9885
vn -0.9260 -0.0003 0.3775
vn -0.5347 0.0011 0.8450
vn -0.0378 -0.0000 0.9993
vn -0.5778 0.2271 -0.7840
vn -0.7891 -0.0533 -0.6120
vn 0.7725 0.2356 -0.5896
vn 0.7731 0.2369 -0.5883
vn 0.6127 -0.0231 -0.7900
vn 0.8300 0.4664 -0.3059
vn 0.6409 0.2847 0.7129
vn 0.6435 0.2830 0.7112
vn 0.7772 0.1810 0.6027
vn 0.4013 0.4117 0.8182
vn -0.7823 0.2342 0.5773
vn -0.6119 -0.0562 0.7890
vn -0.0235 -0.2034 0.9788
vn 0.8861 0.0057 -0.4635
vn 0.0403 -0.9786 -0.2018
vn -0.0388 0.9817 -0.1863
vn 0.0741 0.0112 0.9972
vn 0.0680 -0.9708 -0.2303
vn 0.9461 0.0354 -0.3218
vn -0.0758 0.9678 -0.2400
vn -0.9948 -0.0595 -0.0831
vn 0.1251 0.0086 0.9921
vn 0.1388 -0.9500 -0.2797
vn 0.7103 0.3381 -0.6174
vn -0.8099 0.1947 -0.5533
vn -0.7772 0.2623 -0.5720
vn -0.8857 -0.0514 -0.4613
vn -0.5687 0.5489 -0.6127
vn 0.1172 -0.2526 0.9605
vn 0.3326 0.6856 -0.6476
vn 0.6786 -0.6461 -0.3493
vn 0.0960 -0.1414 0.9853
vn -0.7203 0.1834 -0.6690
vn -0.0176 0.7526 -0.6583
vn 0.9634 -0.1520 -0.2210
vn -0.2694 0.6919 -0.6699
vn -0.5936 -0.2608 -0.7613
vn 0.7081 -0.0532 -0.7041
vn -0.2157 -0.2528 0.9432
vn 0.9142 -0.0452 -0.4028
vn -0.6656 0.3347 -0.6670
vn -0.1047 -0.9503 -0.2931
vn -0.2029 0.0082 0.9792
vn 0.9831 -0.0685 0.1696
vn 0.1078 0.9704 -0.2160
vn -0.8317 0.0528 -0.5528
vn 0.0160 -0.9710 -0.2384
vn -0.3182 0.0110 0.9479
vn 0.9803 0.0025 0.1973
vn 0.0430 0.9815 -0.1865
vn -0.8269 0.0250 -0.5618
vn 0.0721 -0.9783 -0.1944
vn -0.3498 -0.0136 0.9367
vn -0.0015 -0.9991 0.0426
vn -0.8351 -0.1634 0.5252
vn -0.2625 0.0087 0.9649
vn -0.9528 0.0181 -0.3032
vn 0.6112 0.0325 -0.7908
vn -0.2539 -0.9672 -0.0014
vn -0.2539 -0.9672 -0.0019
vn -0.1781 -0.9664 0.1855
vn -0.1030 -0.9623 0.2518
vn -0.2250 -0.9638 0.1427
vn -0.0151 -0.9707 -0.2397
vn 0.2545 -0.9671 0.0014
vn 0.2545 -0.9671 -0.0003
vn 0.2194 -0.9632 0.1553
vn 0.1057 0.5062 -0.8559
vn 0.1345 0.5635 -0.8151
vn -0.2205 0.5047 0.8347
vn 0.5991 0.7064 0.3770
vn 0.5686 0.7418 0.3556
vn 0.6793 0.7338 0.0036
vn 0.5516 0.7360 -0.3925
vn -0.1778 0.7371 0.6520
vn 0.2622 0.7316 0.6293
vn -0.5542 0.7521 0.3566
vn -0.5883 0.7060 0.3943
vt 0.049575 0.103168
vt 0.008095 0.000194
vt 0.103023 0.000194
vt 0.156579 1.111374
vt 0.241407 0.103094
vt 0.293773 1.111448
vt 0.000842 1.111290
vt 0.756094 0.952720
vt 0.738933 0.924183
vt 0.774403 0.933482
vt 0.768531 0.906976
vt 0.778953 0.000194
vt 0.779113 0.103687
vt 0.631940 0.103422
vt 0.681880 0.000194
vt 0.332613 0.522883
vt 0.413007 0.483825
vt 0.409334 0.523391
vt 0.332612 0.522980
vt 0.413477 0.485169
vt 0.332608 0.374316
vt 0.413558 0.408927
vt 0.409334 0.373926
vt 0.420594 0.417124
vt 0.457084 0.450798
vt 0.427246 0.481988
vt 0.284941 0.473345
vt 0.285458 0.419960
vt 0.319942 0.479484
vt 0.420638 0.478793
vt 0.457090 0.443423
vt 0.426903 0.415510
vt 0.809844 0.723774
vt 0.814032 0.613476
vt 0.768208 0.710154
vt 0.986520 0.591422
vt 0.908755 0.576000
vt 0.872815 0.625336
vt 0.876583 0.620676
vt 0.861223 0.564646
vt 0.993867 0.741739
vt 0.875535 0.734680
vt 0.809846 0.723805
vt 0.880080 0.624310
vt 0.876792 0.734757
vt 0.814677 0.613468
vt 0.768210 0.710193
vt 0.912244 0.578671
vt 0.990574 0.545254
vt 0.964092 0.372785
vt 0.969287 0.100194
vt 0.975387 0.372812
vt 0.968436 0.100194
vt 0.508453 0.085678
vt 0.562597 0.010605
vt 0.653773 0.099119
vt 0.797492 0.587149
vt 0.705836 0.585129
vt 0.731906 0.505276
vt 0.709088 0.310636
vt 0.801294 0.317381
vt 0.734695 0.418252
vt 0.511612 0.349139
vt 0.442299 0.406079
vt 0.469568 0.321823
vt 0.499291 0.600500
vt 0.445889 0.486492
vt 0.509874 0.544864
vt 0.538198 0.506570
vt 0.458611 0.475080
vt 0.466220 0.460018
vt 0.540879 0.389908
vt 0.461047 0.423243
vt 0.671420 0.244272
vt 0.578737 0.283899
vt 0.613019 0.175110
vt 0.509105 0.230849
vt 0.463002 0.816396
vt 0.462491 0.674648
vt 0.534006 0.772057
vt 0.579593 0.477123
vt 0.552370 0.436825
vt 0.641370 0.427824
vt 0.574754 0.608956
vt 1.213039 0.103972
vt 1.152819 0.000194
vt 1.270929 0.000194
vt -0.174352 0.000194
vt -0.145535 0.103832
vt -0.292553 0.103625
vt -0.292553 0.000194
vt 0.198792 0.000194
vt 0.585193 0.000194
vt 0.436108 0.103253
vt 0.488560 0.000194
vt 0.391904 0.000194
vt 0.875411 0.000194
vt 0.917515 0.103647
vt 1.064344 0.000194
vt 1.068959 0.103947
vt -0.084994 0.000194
vt 0.971083 0.000194
vt 0.295255 0.000194
vt 0.449454 1.111517
vt 1.075161 1.111465
vt 0.937764 1.111542
vt -0.136515 1.111187
vt 1.231251 1.111109
vt 0.781951 1.111578
vt 0.644715 1.111572
vt -0.292553 1.110974
vt 0.841269 0.939525
vt 0.828024 0.892507
vt 0.992238 0.892507
vt 0.979729 0.939525
vt 0.717477 0.975154
vt 0.716817 0.885055
vt 0.807576 0.974495
vt 0.806916 0.884396
vt 0.821768 0.749354
vt 0.997184 0.749354
vt 0.957335 0.986319
vt 0.861617 0.986319
vt 0.319985 0.416758
vt 0.414398 0.406723
vt 0.419341 0.478166
vt 0.285424 0.473427
vt 0.328008 0.407765
vt 0.332675 0.373926
vt 0.284903 0.420021
vt 0.457106 0.420021
vt 0.457068 0.473792
vt 0.423104 0.416481
vt 0.321500 0.417145
vt 0.415403 0.404088
vt 0.420773 0.478859
vt 0.318673 0.480098
vt 0.328565 0.409226
vt 0.425837 0.415782
vt 0.413533 0.485328
vt 0.332675 0.523391
vt 0.327560 0.488016
vt 0.320291 0.416836
vt 0.415717 0.403264
vt 0.420576 0.478763
vt 0.317847 0.480497
vt 0.328121 0.408060
vt 0.413460 0.485121
vt 0.327258 0.488882
vt 0.426691 0.415564
vt 0.457089 0.444149
vt 0.320064 0.416778
vt 0.415875 0.402850
vt 0.420622 0.478786
vt 0.285333 0.473428
vt 0.328037 0.407841
vt 0.319956 0.479478
vt 0.415883 0.492044
vt 0.420819 0.417066
vt 0.285308 0.419974
vt 0.427121 0.415454
vt 0.457089 0.443811
vt 0.328029 0.486670
vt 0.328024 0.486685
vt 0.415909 0.492117
vt 0.427176 0.481954
vt 0.457085 0.449923
vt 0.332588 0.374460
vt 0.413475 0.409144
vt 0.413483 0.485185
vt 0.327298 0.488767
vt 0.328023 0.407803
vt 0.415795 0.403059
vt 0.317956 0.480444
vt 0.320024 0.416768
vt 0.414776 0.405733
vt 0.328755 0.409725
vt 0.422620 0.479751
vt 0.424131 0.416219
vt 0.327353 0.488610
vt 0.414210 0.487264
vt 0.322017 0.417278
vt 0.318107 0.480371
vt 0.414014 0.407731
vt 0.328891 0.410081
vt 0.419837 0.478406
vt 0.422059 0.416749
vt 0.326815 0.490155
vt 0.413189 0.484345
vt 0.322387 0.417372
vt 0.316634 0.481084
vt 0.987945 0.385555
vt 0.877828 0.391666
vt 0.876745 0.493402
vt 0.877433 0.494066
vt 0.878037 0.391690
vt 0.987892 0.385556
vt 0.993874 0.741739
vt 0.883132 0.620534
vt 0.862210 0.564583
vt 0.975387 0.100194
vt 0.964092 0.100194
vt 0.971043 0.372801
vt 0.972511 0.372805
vt 0.730302 0.705882
vt 0.663964 0.654106
vt 0.636001 0.796865
vt 0.605151 0.715398
vt 0.821624 0.451938
vt 0.740885 0.196995
vt 0.539336 0.877159
vt 0.425519 0.400827
vt 0.432520 0.312347
vt 0.467916 0.443196
vt 0.446024 0.577720
vt 0.429759 0.492559
vt 0.619208 0.544164
vt 0.622305 0.351729
vt 0.439413 0.205487
s 1
f 16/1/1 30/2/2 26/3/3
f 10/4/4 12/5/5 2/6/6
f 8/7/7 16/1/1 10/4/4
f 39/8/8 37/9/9 41/10/10
f 37/9/9 43/11/11 41/10/10
f 28/12/12 18/13/13 11/14/14 20/15/15
f 52/16/16 54/17/16 53/18/16
f 74/19/17 75/20/18 78/18/19
f 80/21/20 81/22/21 84/23/22
f 89/24/23 87/25/24 90/26/25
f 88/27/26 86/28/26 91/29/26
f 96/30/27 94/31/28 97/32/29
f 116/33/30 123/34/31 124/35/32
f 121/36/33 122/37/34 117/38/35
f 117/39/35 122/37/34 123/40/31
f 119/41/36 121/36/37 115/42/38
f 126/43/39 127/44/40 125/45/41
f 129/46/42 126/43/43 130/47/44
f 128/48/45 120/49/46 121/36/33
f 133/50/47 135/51/47 132/52/47
f 131/50/48 136/53/48 133/52/48
f 141/54/49 147/55/50 153/56/51
f 151/57/52 137/58/53 143/59/54
f 142/60/55 152/61/56 145/62/57
f 173/63/58 157/64/59 176/65/60
f 165/66/61 156/67/62 177/68/63
f 172/69/64 160/70/65 155/71/66
f 171/72/67 158/73/68 173/63/58
f 139/74/69 168/75/70 138/76/71
f 138/76/71 164/77/72 141/54/73
f 141/78/73 162/79/74 146/80/75
f 175/81/76 174/82/77 169/83/78
f 165/66/61 177/68/63 166/84/79
f 17/85/80 31/86/81 27/87/82
f 35/88/83 14/89/84 17/90/80 27/91/82
f 34/92/85 12/5/5 16/1/1 26/3/3
f 33/93/86 11/14/14 15/94/87 25/95/88
f 15/94/87 29/96/89 25/95/88
f 24/97/90 19/98/91 18/13/13 28/12/12
f 22/99/92 31/86/81 17/85/80 13/100/93
f 14/89/84 35/88/83 23/101/94
f 19/98/91 24/97/90 32/102/95
f 12/5/5 34/92/85 21/103/96
f 23/101/94 30/2/2 16/1/1 14/89/84
f 11/14/14 33/93/86 20/15/15
f 32/102/95 22/99/92 13/100/93 19/98/91
f 21/103/96 29/96/89 15/94/87 12/5/5
f 15/94/87 5/104/97 2/6/6 12/5/5
f 13/100/93 3/105/98 9/106/99 19/98/91
f 16/1/1 8/7/7 4/107/100 14/89/84
f 17/85/80 6/108/101 3/105/98 13/100/93
f 19/98/91 9/106/99 7/109/102 18/13/13
f 11/14/14 1/110/103 5/104/97 15/94/87
f 14/89/84 4/107/100 6/111/101 17/90/80
f 10/4/4 16/1/1 12/5/5
f 18/13/13 7/109/102 1/110/103 11/14/14
f 46/112/104 51/113/104 50/114/104 47/115/104
f 37/9/9 39/8/8 38/116/105
f 37/9/9 38/116/105 36/117/106
f 39/8/107 40/118/108 38/116/109
f 39/8/107 41/10/110 40/118/108
f 41/10/111 42/119/112 40/118/113
f 41/10/111 43/11/114 42/119/112
f 43/11/11 36/117/115 42/119/116
f 51/113/104 44/120/104 45/121/104 50/114/104
f 49/122/104 48/123/104 46/112/104 47/115/104
f 56/124/117 58/125/117 54/126/117 52/127/117
f 56/128/118 55/129/118 57/23/118 58/125/118
f 55/130/119 56/124/119 52/127/119
f 57/131/120 53/132/120 54/126/120 58/133/120
f 63/134/121 65/135/121 61/136/121 66/137/121
f 66/137/122 59/27/122 62/130/122 63/134/122
f 62/129/123 64/23/123 65/135/123 63/138/123
f 64/131/124 60/132/124 61/136/124 65/139/124
f 61/140/125 60/18/125 59/141/125 66/142/125
f 70/143/126 72/144/126 68/145/126 73/146/126
f 73/146/127 67/27/127 69/130/127 70/143/127
f 69/129/128 71/23/128 72/144/128 70/147/128
f 68/148/129 71/18/130 67/141/131 73/149/131
f 68/145/129 72/150/132 71/151/130
f 77/152/133 79/153/133 75/154/133 74/155/133
f 76/129/134 78/23/134 79/153/134 77/156/134
f 76/130/135 77/152/135 74/155/135
f 83/157/136 85/158/136 81/159/136 80/160/136
f 75/154/18 79/161/137 78/162/19
f 82/141/138 84/18/138 85/158/138 83/163/138
f 82/27/139 83/157/139 80/160/139
f 88/141/140 91/164/140 90/165/140 87/18/140
f 81/159/21 85/166/141 84/167/22
f 86/168/142 87/23/24 89/169/23
f 91/164/143 86/168/143 89/169/143 90/26/143
f 96/170/27 92/171/144 93/141/144 94/18/28
f 95/129/145 98/172/145 97/173/145 94/23/145
f 92/174/146 98/175/146 95/130/146 93/27/146
f 98/172/147 92/171/147 96/170/147 97/32/147
f 104/176/148 99/177/148 100/129/148 101/23/148
f 103/132/149 105/178/149 104/179/149 101/131/149
f 102/141/150 106/180/150 105/181/150 103/18/150
f 99/182/151 106/183/151 102/27/151 100/130/151
f 99/177/152 104/176/152 105/178/152 106/180/152
f 109/23/153 112/184/153 107/185/153 108/129/153
f 111/132/154 113/186/154 112/187/154 109/131/154
f 114/188/155 113/189/155 111/18/155 110/141/155
f 107/190/156 114/191/156 110/27/156 108/130/156
f 107/185/157 112/184/157 113/186/157 114/188/157
f 118/192/158 124/193/32 123/194/31 120/49/158
f 116/33/30 115/42/38 117/38/35
f 116/33/30 117/38/35 123/34/31
f 129/195/42 130/196/44 118/197/158 120/49/158
f 115/42/38 121/36/37 117/38/35
f 120/49/46 122/37/34 121/36/33
f 120/49/46 123/194/31 122/37/34
f 129/46/159 127/44/40 126/43/39
f 127/44/40 121/36/37 119/198/36 125/45/41
f 127/199/40 129/200/159 128/48/45
f 134/201/160 131/52/160 132/50/160 135/202/160
f 121/36/33 127/44/40 128/48/45
f 128/48/45 129/195/159 120/49/46
f 131/203/161 134/202/161 136/201/161
f 133/204/162 136/202/162 135/201/162
f 137/58/53 151/57/52 150/205/163 140/206/164
f 43/11/11 37/9/9 36/117/115
f 154/207/165 146/80/166 144/208/167
f 143/59/54 145/62/57 148/209/168 151/57/52
f 149/210/169 152/61/56 142/60/55 139/74/170
f 149/210/169 139/74/170 138/76/171 153/56/51
f 145/62/57 152/61/56 148/209/168
f 138/76/171 141/54/49 153/56/51
f 146/80/166 154/207/165 147/211/50 141/78/49
f 144/208/167 140/206/164 150/205/163 154/207/165
f 161/212/172 170/213/173 176/65/60 157/64/59
f 159/214/174 158/73/68 171/72/67 174/82/77
f 175/81/76 172/69/64 155/71/66
f 156/67/62 165/66/61 170/215/173 161/216/172
f 173/63/58 158/73/68 157/64/59
f 159/214/174 174/82/77 175/81/76 155/71/66
f 167/217/175 137/58/176 140/206/177 166/84/79
f 172/69/64 177/68/63 160/70/65
f 177/68/63 156/67/62 160/70/65
f 140/206/177 144/208/178 166/84/79
f 169/83/78 145/62/179 143/59/180 175/81/76
f 168/75/70 139/74/69 142/60/181 163/218/182
f 165/66/61 144/208/178 146/80/75 162/79/74
f 163/218/182 142/60/181 145/62/179 169/83/78
f 167/217/175 175/81/76 143/59/180 137/58/176
f 144/208/178 165/66/61 166/84/79
f 138/76/71 168/75/70 164/77/72
f 172/69/64 167/217/175 166/84/79 177/68/63
f 141/54/73 164/77/72 162/219/74
f 173/63/58 168/75/70 163/218/182 171/72/67
f 171/72/67 163/218/182 169/83/78 174/82/77
f 162/79/74 170/215/173 165/66/61
f 176/65/60 164/77/72 168/75/70 173/63/58
f 170/213/173 162/219/74 164/77/72 176/65/60
f 175/81/76 167/217/175 172/69/64
